<?xml version="1.0" standalone="no"?>
<!DOCTYPE svg PUBLIC "-//W3C//DTD SVG 1.1//EN" "http://www.w3.org/Graphics/SVG/1.1/DTD/svg11.dtd" >
<svg xmlns="http://www.w3.org/2000/svg" width="100%" height="100%">
<metadata>
Created by FontXChange 20100429 at Mon Jan 28 21:50:35 2013
 By Colin Waddell
(c) Vanessa Bays @ ByTheButterfly.com 

</metadata>
<defs>
<font id="AnjelikaRoseThin" horiz-adv-x="540" >
  <font-face 
    font-family="Anjelika Rose Thin"
    font-weight="500"
    font-stretch="normal"
    units-per-em="1000"
    panose-1="2 0 6 3 0 0 0 0 0 0"
    ascent="800"
    descent="-200"
    x-height="482"
    cap-height="693"
    bbox="-251.545 -191.189 1003.61 890.8"
    underline-thickness="50"
    underline-position="-100"
    unicode-range="U+0020-F8FF"
  />
<missing-glyph horiz-adv-x="364" 
d="M46 23h219v620h-219v-620zM33 10v646h245v-646h-245z" />
    <glyph glyph-name=".notdef" horiz-adv-x="364" 
d="M46 23h219v620h-219v-620zM33 10v646h245v-646h-245z" />
    <glyph glyph-name=".null" horiz-adv-x="0" 
 />
    <glyph glyph-name="nonmarkingreturn" horiz-adv-x="333" 
 />
    <glyph glyph-name="space" unicode=" " horiz-adv-x="300" 
 />
    <glyph glyph-name="exclam" unicode="!" horiz-adv-x="128" 
d="M81 667q1 -18 5 -103.5t5.5 -120.5t2.5 -103t-1 -122q-2 -50 -7 -105q-1 -7 -6.5 -12t-13 -4t-12.5 6.5t-4 13.5q5 51 7 103.5t1 119.5t-2 101t-6 121l-5 104q0 7 5 12.5t12 6t12.5 -4.5t6.5 -13zM84 29q0 -8 -5 -13t-13 -5t-13 5t-5 13t5 13t13 5t13 -5t5 -13z" />
    <glyph glyph-name="quotedbl" unicode="&#x22;" horiz-adv-x="200" 
d="M66 670q-15 -66 -15 -155q0 -8 -5 -13t-13 -5t-13 5t-5 13q0 93 17 163q1 8 7.5 11.5t14 2t11 -7.5t1.5 -14zM155 660q-17 -53 -19 -143q0 -7 -5.5 -12t-13 -5t-12.5 5.5t-5 13.5q3 93 20 151q3 7 9.5 10.5t13.5 1.5t10.5 -8.5t1.5 -13.5z" />
    <glyph glyph-name="numbersign" unicode="#" horiz-adv-x="500" 
d="M321 338q-6 59 -11 121q-83 -14 -146 -22v-125q86 16 157 26zM325 302q-76 -10 -162 -27q-1 -77 -1 -120q0 -8 -5 -13t-13 -5t-13 5t-5 13q0 41 1 113l-69 -13q-8 -2 -14 2t-7.5 11.5t2.5 13.5t11 7l77 17q1 75 1 128q-64 -6 -113 -6q-8 0 -13 5t-5 13t5 13t13 5
q48 0 113 6q-1 91 -5 159q-1 7 4.5 12.5t12.5 6.5t12.5 -4.5t6.5 -12.5q4 -65 5 -157q62 7 144 21q-5 72 -7 136q0 8 5 13.5t12.5 5.5t13 -5t5.5 -12q2 -61 7 -133l77 14q7 1 13.5 -3.5t7.5 -12t-3.5 -13.5t-11.5 -7l-81 -14q5 -61 11 -122q47 6 83 8q7 1 12.5 -4.5
t6.5 -12.5t-4.5 -12.5t-12.5 -6.5q-35 -2 -81 -7q7 -65 15 -119q1 -8 -3.5 -14t-12 -7t-13.5 4t-7 12z" />
    <glyph glyph-name="dollar" unicode="$" horiz-adv-x="500" 
d="M241 438q1 91 2 146q-74 -21 -81 -63q-5 -24 37 -56zM275 383v-76q0 -33 2 -105.5t1 -122.5q26 2 38 5q89 15 106 85q14 61 -21 107t-108 89zM401 559q-15 14 -46 22t-77 8q0 -54 -2 -172l36 -21q15 -8 26.5 -16l26.5 -19t26 -21t23 -23t20 -26t14.5 -28t9.5 -30.5t3 -34
t-5 -37.5q-11 -48 -47 -76t-87 -37q-17 -3 -45 -4q-2 -62 -7 -107q-1 -6 -7 -11t-13.5 -4t-12 7t-3.5 14q6 42 7 102q-56 6 -93 21q-65 28 -128 85q-6 5 -6 12.5t5 13.5t12.5 6t13.5 -5q58 -54 117 -78q30 -13 80 -19q0 47 -1.5 118.5t-1.5 107.5t1 89l-8 5q-35 21 -54 35
q-60 44 -52 91q7 37 36.5 59.5t79.5 33.5l-2 74q-1 6 4.5 11.5t12.5 6.5t12.5 -4.5t6.5 -13.5l2 -69q52 0 89 -10t58 -28q5 -5 6 -12.5t-4.5 -13t-13 -6.5t-12.5 4z" />
    <glyph glyph-name="percent" unicode="%" horiz-adv-x="606" 
d="M120 558l-4 -13q-4 -17 -5 -30q-4 -31 6 -42q13 -18 39 -5q27 15 39 40q17 35 -4 63q-19 26 -54 7q-4 -2 -11 -10zM100 592q10 13 20 18q31 16 57 10.5t43 -27.5q15 -21 17.5 -48t-10.5 -53q-16 -36 -54 -55q-14 -7 -27.5 -10t-29.5 2.5t-28 19.5q-18 24 -13 71
q2 13 6 33q-3 12 5 20l2 5q2 9 12 14zM328 134q-8 -40 -2.5 -60t19.5 -28q6 -3 15.5 -5t24 8t27.5 27q8 14 9.5 34t-3.5 39q-7 16 -17 22q-14 6 -33 -3q-11 -5 -24 -18zM291 130q-6 14 4 22q4 4 8 7.5t8.5 8.5t7.5 8q18 17 33 24q36 17 64 4q24 -12 35 -42q9 -24 6 -55
q-2 -31 -16 -51q-24 -36 -56 -46.5t-61 7.5q-23 14 -32 42q-10 30 -1 71zM19 23q130 275 527 673q5 5 13 5t13 -5t5 -13t-5 -13q-393 -393 -521 -663q-3 -6 -9.5 -8.5t-13.5 0.5t-9.5 10t0.5 14z" />
    <glyph glyph-name="ampersand" unicode="&#x26;" horiz-adv-x="460" 
d="M219 186q94 -4 215 7q7 1 13 -4t6.5 -12.5t-4.5 -13t-12 -6.5q-40 -3 -87 -6q0 -7 2 -5q-61 -75 -135 -120q-109 -68 -174 -7t-23 181q14 44 40 83q25 41 68 81q-37 5 -50 10q-47 21 -45 81q2 53 42 107.5t91 83.5q59 34 105 19q52 -19 65 -99q1 -7 -3 -13.5t-11.5 -7.5
t-13.5 3.5t-8 12.5q-9 57 -41 69q-30 11 -75 -14q-44 -26 -78 -74t-37 -89q-1 -35 24 -45q23 -10 72 -7q10 1 17 2t17.5 4.5t20.5 6.5l22 6q7 1 9 2v0h5q2 1 -1 1q2 -1 6 -1q5 -1 9 -7q9 -11 0 -22q-1 -2 -3 -3l-3 -2l-5 -1q-70 -18 -117 -59q-24 -21 -49.5 -60t-38.5 -80
q-34 -98 14 -143q44 -43 131 12q46 28 108 92q-57 0 -89 1q-8 0 -13 6t-5 13t6 12t13 5z" />
    <glyph glyph-name="quotesingle" unicode="'" horiz-adv-x="101" 
d="M51 723q3 -45 3 -158q0 -8 -5 -13t-13 -5t-13 5t-5 13q0 111 -3 156q-1 7 4 12.5t12.5 6.5t13 -4.5t6.5 -12.5z" />
    <glyph glyph-name="parenleft" unicode="(" horiz-adv-x="195" 
d="M170 734q-77 -137 -101 -330.5t23 -340.5q4 -15 11 -29t17 -32l15 -29q3 -7 1 -14t-9 -10t-14 -1t-10 10q-4 7 -14 26l-18 36q-8 17 -14 31q-49 157 -24 357.5t107 343.5q3 6 10 8t13.5 -1.5t8.5 -10.5t-2 -14z" />
    <glyph glyph-name="parenright" unicode=")" horiz-adv-x="211" 
d="M23 -24q77 143 101 331.5t-22 339.5q-4 15 -11 29t-17 32t-15 30q-3 7 -1 14t9 10t14 1t10 -10l14.5 -26.5t18 -36.5l13.5 -31q48 -162 23 -357t-104 -342q-4 -7 -11.5 -9t-13.5 1.5t-8.5 10.5t0.5 13z" />
    <glyph glyph-name="asterisk" unicode="*" horiz-adv-x="400" 
d="M206 545q14 33 20 44q40 78 87 82q23 2 35 -16q10 -13 10 -35q1 -36 -17 -88q-15 -50 -39 -88q-11 -19 -23 -31q-16 -15 -31 -17q-12 -1 -32 6q-15 7 -34 19q-41 23 -78 56q-41 39 -56 71q-10 21 -7 40q2 20 21 34q30 20 63 9q25 -8 47 -35q14 -14 34 -51z" />
    <glyph glyph-name="plus" unicode="+" horiz-adv-x="328" 
d="M63 300q39 -7 97 -6q0 39 1 81q0 7 5.5 12t13 5t12.5 -5.5t5 -13.5q-1 -39 -1 -78q71 5 92 6q7 0 12.5 -5t5.5 -12.5t-5 -13t-14 -5.5t-90 -6q2 -54 8 -93q1 -7 -3 -13.5t-11.5 -7.5t-13.5 3.5t-8 12.5q-6 40 -8 97q-63 -1 -105 6q-7 1 -11.5 7.5t-3 13.5t8 11.5
t13.5 3.5z" />
    <glyph glyph-name="comma" unicode="," horiz-adv-x="167" 
d="M127 60q-8 -54 -39 -91.5t-83 -71.5q-6 -3 -13.5 -1.5t-11.5 8t-2.5 13.5t8.5 12q46 28 72.5 60.5t32.5 75.5q1 8 7.5 12.5t14 3.5t11.5 -7.5t3 -13.5z" />
    <glyph glyph-name="hyphen" unicode="-" horiz-adv-x="301" 
d="M59 333q86 -4 186 3q8 1 13.5 -4t6 -13t-4 -13t-12.5 -6q-102 -7 -190 -3q-8 1 -13 6.5t-4.5 12.5t6 12.5t12.5 4.5z" />
    <glyph glyph-name="period" unicode="." horiz-adv-x="99" 
d="M64 28q0 -8 -5 -13t-13 -5t-13 5t-5 13t5 13t13 5t13 -5t5 -13z" />
    <glyph glyph-name="slash" unicode="/" horiz-adv-x="459" 
d="M2 28l68 127q34 63 84 145l71 117l90 141q69 107 77 121q4 6 11 7.5t13.5 -2.5t8.5 -11t-2 -14l-66 -104l-72 -111l-64 -103l-68 -112l-58 -104l-61 -114q-3 -7 -10 -9t-13.5 1t-9 10t0.5 15z" />
    <glyph glyph-name="zero" unicode="0" 
d="M260 672q-75 -10 -126 -103q-50 -93 -55 -221q-4 -128 43 -216q51 -94 145 -98q90 -4 149.5 82.5t65.5 211.5q3 83 -18 155t-72.5 124t-123.5 63q-2 2 -8 2zM268 711h4q67 -11 118 -49t79.5 -92.5t42 -117t10.5 -127.5q-7 -136 -71 -230q-73 -107 -185 -101
q-118 6 -179 119q-52 97 -48 238q5 135 60 236q62 116 159 125q5 0 10 -1z" />
    <glyph glyph-name="one" unicode="1" horiz-adv-x="127" 
d="M80 682q0 -32 2.5 -331.5t-1.5 -331.5q0 -8 -5.5 -13t-13 -5t-12.5 5.5t-5 12.5q4 32 1.5 331.5t-2.5 331.5q0 8 5 13t13 5t13 -5t5 -13z" />
    <glyph glyph-name="two" unicode="2" horiz-adv-x="528" 
d="M155 601q27 47 83.5 75t112.5 28q62 0 95 -33q39 -39 23 -107q-13 -52 -78 -128l-51 -57l-46 -50l-63 -81l-47 -63l-62 -83q-25 -33 -41 -58q17 -6 21 -6q22 -2 45 -3q98 -3 328 6q7 0 12.5 -5t5.5 -12t-4.5 -13t-12.5 -6q-232 -9 -330 -6q-25 1 -49 3q-19 2 -31 5
q-8 1 -14 4q-12 5 -15 15q-2 7 1 14q1 5 4 9l13 21l38 54l63 83l47 63q41 55 64 82q11 13 45 49t52 58q59 69 70 115q11 47 -12 70.5t-71 23.5t-96 -23.5t-69 -61.5q-3 -6 -10.5 -8t-14 1.5t-8.5 10.5t2 14z" />
    <glyph glyph-name="three" unicode="3" horiz-adv-x="528" 
d="M138 542q17 25 53 59q36 32 77 55q113 67 174 13q51 -47 8 -140q-27 -55 -86 -116q108 -11 141 -89q11 -25 13.5 -60.5t-4.5 -61.5q-17 -65 -75.5 -116t-133.5 -74q-51 -14 -99 -15.5t-93.5 18t-75.5 58.5q-4 6 -3 13.5t6.5 12t13 3.5t12.5 -7q35 -47 98 -59t130 10
q67 21 119 65.5t66 98.5q6 21 3.5 50.5t-10.5 49.5q-20 45 -66 59.5t-98 -0.5q-4 0 -5.5 -2t-5 -3.5t-9.5 -4.5q-21 -13 -38 -4q-10 5 -12 16t10 19q4 4 15 7q5 1 11 3l9 3t5 2q29 16 57 42q45 39 73 98q32 67 -1 96q-40 37 -130 -15q-37 -22 -71 -52t-49 -52
q-4 -6 -11 -7.5t-13.5 2.5t-8 11.5t3.5 13.5z" />
    <glyph glyph-name="four" unicode="4" horiz-adv-x="538" 
d="M318 241q-12 181 -6 353l-53 -85l-120 -173l-63 -94q40 2 63 2q44 1 179 -3zM356 699q-19 -190 -2 -460q90 -1 148 5q8 1 13.5 -4t6.5 -12.5t-4 -13t-12 -6.5q-62 -6 -150 -5q6 -81 15 -186q1 -7 -4 -12.5t-12.5 -6.5t-13 4t-6.5 13q-12 134 -16 190q-138 4 -178 3
q-31 -1 -59 -2q-3 0 -5 -0.5t-5.5 -1.5t-8.5 -2q-23 -6 -36 5q-6 6 -7 13q0 3 1 7v1l3 3q0 -5 1 -5v9v0l7 9l22 31l55 79l119 174q76 116 90 174q1 6 6 10q6 8 16 7q7 -1 12 -6.5t4 -13.5z" />
    <glyph glyph-name="five" unicode="5" horiz-adv-x="531" 
d="M469 646h-76q-61 0 -100 -3q-58 -3 -91 -14q-36 -11 -43 -28q-3 -7 -8 -44q-2 -20 -4 -45q-2 -22 -3 -70l23 11l32 19l21 11q91 36 169 -1.5t109 -130.5q32 -96 -4 -176.5t-115 -127.5q-76 -45 -165.5 -47.5t-169.5 44.5q-7 5 -8.5 12t2.5 13.5t11.5 8t13.5 -2.5
q70 -41 150 -39.5t148 41.5q70 42 100 111t2 151q-25 79 -89 110t-142 0q-3 -1 -7 -3.5l-7 -4.5l-34 -19q-20 -11 -33 -17q-8 -4 -13 -6t-7 -2q-8 -2 -15 3q-5 4 -7 9l-1 2q0 5 -1 8v9q0 11 1 29q1 30 3 57q2 26 4 48q5 40 10 53q15 33 66 48q37 12 99 16q44 3 103 3h75
q7 1 12.5 -4.5t6 -12.5t-4.5 -12.5t-13 -6.5z" />
    <glyph glyph-name="six" unicode="6" horiz-adv-x="495" 
d="M142 87q26 -27 57 -42q27 -11 60 -9.5t64 13.5q46 18 82 76q35 58 34.5 110t-27.5 88q-28 35 -69 37q-48 1 -100 -42q-51 -45 -80 -101q-17 -32 -20 -57t-1 -73zM334 644q-20 19 -45 17q-24 -3 -52 -24q-47 -35 -88 -101q-31 -51 -51 -123q-19 -72 -17 -145
q1 -47 22 -123q14 62 28 88q33 65 89 111q63 54 125 51q58 -2 95 -49q35 -45 35.5 -110t-39.5 -131q-43 -67 -101 -90q-35 -14 -74 -16t-78 14q-27 13 -51 33h-6q-8 0 -13.5 5t-5.5 12v9q-59 76 -62 195q-2 77 18.5 155.5t54.5 133.5q46 71 98 110q36 26 69 30q41 5 73 -26
q6 -5 6 -12.5t-5 -13t-12.5 -5.5t-12.5 5z" />
    <glyph glyph-name="seven" unicode="7" horiz-adv-x="501" 
d="M30 467q9 56 8 160v1q0 4 -0.5 4.5l-0.5 0.5l-3 8q-4 21 10 32q12 10 33 4l6 -1.5t3.5 -1.5t5.5 -1h1q70 -7 128 -4q97 5 186 18h12v4l4 2q21 6 34 -5q9 -8 9 -24q0 -9 -2 -22q-4 -21 -14 -54l-11 -35l-12 -32q-5 -15 -5 -17q-51 -159 -75 -268t-31 -244
q-1 -8 -6.5 -13.5t-13 -4.5t-12.5 6.5t-4 11.5q7 140 31.5 251t75.5 272q1 3 6 16.5t11 31.5l11 36l21 76q-24 -24 -22 -24q-93 -13 -192 -18q-59 -3 -134 4l-14 7v-17q2 -106 -8 -165q-1 -8 -7.5 -12.5t-14 -3.5t-11.5 7.5t-3 13.5z" />
    <glyph glyph-name="eight" unicode="8" horiz-adv-x="372" 
d="M320 638q7 -7 9 -7q4 -3 5.5 -10t-2.5 -14l-18 -27l-31 -43l-32 -47l-58 -85q65 -63 94 -99q65 -83 61 -165q-2 -44 -33.5 -78.5t-76.5 -52.5q-39 -18 -88.5 -17.5t-82.5 24.5q-55 41 -33 139q15 71 76 179l37 64l-19 17l-16 16q-5 5 -15.5 16.5t-16.5 19.5t-12.5 19
t-9.5 21q-13 44 3 85.5t51.5 70.5t78 36.5t87.5 -13.5q10 -5 21 -17l7 -7l8 -8q6 -5 6 -17zM174 373l-33 -55q-58 -103 -73 -171q-16 -73 21 -100q23 -18 60 -18.5t75.5 15t62.5 42t25 57.5q3 68 -53 141q-26 33 -85 89zM289 628l-16 17q-7 7 -13 10q-30 15 -63 9
t-61.5 -28.5t-40.5 -54.5t-2 -63q4 -13 16 -28.5t21 -24.5t37 -35l54 80l79 113z" />
    <glyph glyph-name="nine" unicode="9" horiz-adv-x="470" 
d="M357 607q-26 27 -56 42q-27 12 -60 11t-64 -13q-47 -18 -84 -74q-23 -35 -31 -74t-1.5 -70t23.5 -54q17 -22 40.5 -32t58 -2t69.5 37q52 42 82 99q17 33 20.5 57t2.5 73zM146 40q44 -29 106 17q50 36 92 101q32 50 52.5 122.5t19.5 144.5q-1 46 -19 123q-17 -61 -31 -87
q-34 -65 -90 -111q-67 -52 -125.5 -49t-94.5 52q-35 43 -34 111q0 68 41 129q44 66 102 88q36 14 74.5 15t77.5 -15q26 -12 50 -33h6q8 0 13.5 -5t5.5 -12v-9q58 -76 60 -196q1 -78 -20.5 -156t-57.5 -132q-45 -70 -100 -110q-82 -60 -148 -19q-6 3 -7.5 10.5t2 14t11 8
t14.5 -1.5z" />
    <glyph glyph-name="colon" unicode=":" horiz-adv-x="127" 
d="M80 428q0 -8 -5 -13t-13 -5t-13 5t-5 13t5 13t13 5t13 -5t5 -13zM72 74q0 -8 -5 -13t-13 -5t-13 5t-5 13t5 13t13 5t13 -5t5 -13z" />
    <glyph glyph-name="semicolon" unicode=";" horiz-adv-x="101" 
d="M46 56q3 -43 -13 -74.5t-51 -59.5q-6 -6 -13 -5t-12 6.5t-4.5 13t6.5 11.5q29 25 41 49t10 57q-1 8 4 13t12.5 6t13 -4t6.5 -13zM66 418q0 -8 -5 -13t-13 -5t-13 5t-5 13t5 13t13 5t13 -5t5 -13z" />
    <glyph glyph-name="less" unicode="&#x3c;" horiz-adv-x="369" 
d="M320 459q-12 -12 -129 -117l-78 -70l-18 -18l70 -42q137 -79 176 -103q6 -3 7.5 -10.5t-2.5 -14t-11.5 -8t-13.5 2.5q-38 24 -174 103l-65 38q-14 8 -20 13q-5 3 -7 5.5t-3 5.5q-4 6 -3 12l3 8l4 4q0 1 -2 -1l1 1l2 2l7 6l25 23l78 70l129 116q5 5 12 5t12.5 -5.5
t5.5 -13t-6 -12.5z" />
    <glyph glyph-name="equal" unicode="=" horiz-adv-x="276" 
d="M50 342q3 -2 93.5 -1t91.5 1q8 0 13 -5t5 -13t-5 -13t-13 -5q-20 0 -57.5 -0.5t-68 -0.5t-55.5 1q-8 1 -13.5 6.5t-4.5 12.5t6.5 12.5t7.5 4.5zM50 262q16 -1 87 0q57 1 91 -3q8 -1 12.5 -6.5t3.5 -13.5t-6.5 -12.5t-13.5 -3.5q-30 4 -86 3q-72 -1 -90 0q-7 0 -12 5.5
t-5 13t5.5 12.5t13.5 5z" />
    <glyph glyph-name="greater" unicode="&#x3e;" horiz-adv-x="402" 
d="M78 108q13 14 130 116l79 70l19 18l-75 44l-170 102q-7 5 -8.5 12t2.5 13.5t11.5 8t13.5 -1.5q41 -28 170 -103q46 -26 67 -40q13 -9 20 -15q6 -4 8 -6t3 -5q4 -6 4 -12l-4 -8l-1 -1l-1 -1l-4 -4v5h5l-4 -5l-7 -6l-25 -23l-79 -68l-130 -115q-5 -5 -12.5 -5t-12.5 5.5
t-5 13t6 11.5z" />
    <glyph glyph-name="question" unicode="?" horiz-adv-x="364" 
d="M27 559q29 40 81 70q53 31 105 37q60 8 95 -23q41 -34 34 -108q-4 -59 -55 -108q-18 -16 -47 -38q-46 -33 -48 -36q-54 -42 -73 -83q-26 -56 -6 -138q2 -8 -2 -14t-11.5 -8t-13.5 1.5t-8 11.5q-23 94 8 162q23 50 85 97q2 2 47 36q28 20 43 35q42 39 45 84q5 56 -21 79
q-23 19 -68 14q-44 -5 -91 -31q-46 -27 -69 -60q-4 -7 -11.5 -8t-13.5 3.5t-7.5 11.5t2.5 13zM123 32q0 -8 -5 -13t-12.5 -5t-13 5t-5.5 13t5.5 13t13 5t12.5 -5t5 -13z" />
    <glyph glyph-name="at" unicode="@" horiz-adv-x="783" 
d="M500 335q-46 -56 -79 -83q-47 -38 -85 -50q-51 -16 -85 15q-54 47 -20 128q27 65 97 121q70 58 129 64q35 5 58 -13q24 -19 28 -59q1 -6 -5 -16q9 -11 10 -17q2 -6 0 -16q0 -3 -2 -9l-1 -4q0 -7 -5 -45.5t-3 -59.5q1 -25 11.5 -40t32.5 -19q64 -12 106 82q19 40 25 87
q7 45 2 74q-14 77 -91 132q-62 44 -142.5 44.5t-156.5 -35.5q-77 -35 -140.5 -93t-96.5 -122q-32 -61 -29.5 -115.5t27.5 -97t71 -75.5q67 -50 158 -70t171 -4q26 6 54.5 17t46.5 20l54 26l50 25q7 3 14 1t10 -9t1 -14t-10 -10q-13 -7 -48 -24l-56 -28q-19 -10 -50.5 -21.5
t-57.5 -16.5q-89 -19 -187.5 2.5t-170.5 76.5q-53 38 -81.5 87t-32 112.5t33.5 133.5q35 71 103.5 133t150.5 99q58 25 113.5 34.5t114.5 -1.5t106 -45q90 -65 107 -156q6 -35 -2 -86t-28 -95q-22 -52 -59 -82.5t-86 -21.5q-38 7 -57 35q-14 22 -17 58q-1 9 -1 46zM507 454
q-3 25 -15 35q-10 8 -31 6q-48 -5 -110 -56q-63 -52 -87 -108q-24 -57 10 -88q19 -16 52 -7q32 10 71 43q35 29 64 65.5t42 61.5v7v4q1 9 3 14q1 2 7 8q-6 11 -6 15z" />
    <glyph glyph-name="A" unicode="A" horiz-adv-x="545" 
d="M113 274q157 -30 318 -15q-11 61 -22 108q-27 120 -51 188q-29 81 -54 98q-16 10 -32 3q-16 -8 -35 -33q-21 -30 -51 -99q-48 -115 -73 -250zM107 235q-15 -105 -18 -222q0 -8 -6 -13.5t-14 -5.5t-14 6t-6 15q3 121 18 229l-14 3q-7 2 -11.5 9t-2.5 15t9 12t16 2h11
q25 139 73 255q31 72 56 106t51 46q36 17 70 -5q37 -24 71 -118q26 -73 52 -193l23 -112l23 3q9 1 15.5 -4t8 -13t-3.5 -15t-13 -8l-23 -2l15 -83l13 -70l8 -44q2 -8 -2.5 -15t-12.5 -8.5t-15 3t-8 12.5q-4 17 -9 45l-13 71q-8 44 -14 83q-168 -16 -333 16z" />
    <glyph glyph-name="B" unicode="B" horiz-adv-x="500" 
d="M62 -1l-25 2q-9 1 -14 7.5t-4 15t7.5 13.5t26.5 3q-2 22 -10 87.5t-10 85t-5.5 74.5t-1.5 86t7.5 75.5t16.5 83.5q19 66 54 112q53 69 121 51q57 -14 65 -66q5 -37 -18 -92q-25 -61 -89 -142q40 9 53 10q97 15 158 -29q62 -45 68 -137q4 -75 -40 -125.5t-119 -79.5
q-95 -37 -215 -36q-6 -3 -11 -4q-7 -1 -15 5zM66 305q2 -45 6 -83.5t11 -95.5l11 -88q111 2 195 34q139 53 133 165q-5 72 -53 107q-47 33 -127 22q-57 -8 -140 -43l-4 -2q-2 -1 -6 -3.5t-8 -4.5q-7 -4 -18 -8zM66 357q19 10 27.5 15.5t10.5 7t7.5 4.5t7.5 5.5t5.5 5.5
t7.5 6l8 8q3 4 10 10q17 18 43.5 56.5t42.5 76.5q18 45 14 71t-34 34q-43 10 -80 -38q-31 -39 -47 -97q-19 -69 -23 -165z" />
    <glyph glyph-name="C" unicode="C" 
d="M373 592q-27 47 -59 61q-24 12 -54 1q-58 -21 -111 -109q-33 -56 -56.5 -143.5t-21.5 -165.5q3 -88 41 -136q42 -54 128 -53q71 1 133 41l14 10l12 10q7 6 15 14l12 12q4 4 13 14l12 14l12 16q9 10 12 13q6 7 14.5 8t14.5 -4.5t7 -14t-5 -14.5q-2 -3 -13.5 -16.5t-15 -18
t-13.5 -15.5t-16.5 -17.5t-16 -15t-19 -16t-18.5 -13.5q-71 -46 -154 -47q-105 -1 -159 68q-46 59 -50 159q-3 85 22 177.5t62 153.5q60 101 131 127q45 16 86.5 -3.5t74.5 -76.5q4 -7 2 -15t-9 -12t-15 -2t-12 9z" />
    <glyph glyph-name="D" unicode="D" horiz-adv-x="566" 
d="M43 44q4 83 0 222q-5 185 -5 230v16v32v39q0 34 1 54q0 11 1 18q0 5 0.5 8t0.5 5q3 7 11 11t16 2q6 -1 14 -3q11 -2 28 -7l25 -10q16 -6 18 -6q60 -19 128 -60q67 -40 123 -92q140 -132 131 -262q-10 -149 -193 -204q-105 -32 -290 -32q-8 0 -14 6t-6 14q0 10 11 19z
M78 639v-57v-38v-32v-16q0 -44 5 -229q4 -137 1 -222q157 3 247 29q155 47 164 169q7 113 -118 230q-54 50 -117 88q-64 38 -119 55q-2 1 -17.5 6.5l-26.5 9.5z" />
    <glyph glyph-name="E" unicode="E" horiz-adv-x="528" 
d="M403 644q-31 3 -166 -3q-64 -3 -104 -7q-18 -2 -37 -6l-3 -28l-7 -93l-10 -136q47 5 86 8l88 7q49 4 76 6q8 1 14 -4.5t7 -14t-4.5 -14.5t-14.5 -7q-239 -20 -253 -22q-3 -13 -5 -37.5t-2.5 -32t-1.5 -28.5t-0.5 -31.5t1 -27.5t3 -30.5t6.5 -25.5q26 -85 172 -82
q60 1 122 15q63 15 106 34q8 2 15.5 -1t10.5 -10.5t0 -15.5t-10 -11q-46 -18 -112.5 -34t-130.5 -17q-35 -1 -66 4t-61.5 16.5t-52 34t-31.5 55.5q-8 28 -10.5 65t-1.5 63.5t4.5 69.5t4.5 57l11 150l8 93l2 30q1 6 1 10v3v1q0 -3 1 -2v6q1 2 6 7q4 4 13 7q5 1 14 3
q14 3 38 5q39 5 105 8q142 7 173 3q9 -1 14 -7.5t4 -15t-7.5 -13.5t-14.5 -4z" />
    <glyph glyph-name="F" unicode="F" horiz-adv-x="400" 
d="M422 653h-71q-54 0 -104 -1q-64 -1 -98 -5q-22 -2 -34 -5q-5 -1 -13 -5q-9 -10 -16 -32q-8 -25 -13 -65q-7 -61 -8 -167q55 5 136 11.5t96 7.5q8 1 14 -4.5t7 -14t-4.5 -14.5t-14.5 -7q-11 -1 -95.5 -7.5t-137.5 -11.5q0 -79 4.5 -187t4.5 -131q0 -8 -6 -14t-14 -6t-14 6
t-6 14q0 21 -4.5 141.5t-5.5 197.5q0 118 9 191q5 44 14 72q11 34 28 50q9 8 29 13q16 4 39 7q36 4 101 5q51 1 105 1h70q9 0 15 -5.5t6 -14t-5.5 -14.5t-13.5 -6z" />
    <glyph glyph-name="G" unicode="G" horiz-adv-x="644" 
d="M396 328q75 -10 207 -3q9 1 15 -5t6.5 -14t-5 -14t-13.5 -7q-41 -2 -79 -3v-55q0 -24 -0.5 -53t-0.5 -45q0 -111 5 -167q0 -9 -5 -15t-13.5 -7t-15 4.5t-6.5 13.5q-5 58 -5 172v47q-33 -53 -49 -73q-74 -87 -197 -94q-70 -4 -118.5 26.5t-73.5 86.5q-48 102 -21 249
q27 144 107 235q42 49 96 70q53 21 112 6q8 -2 12.5 -9t2.5 -15t-9 -12t-15 -2q-93 23 -169 -64q-72 -81 -97.5 -216t17.5 -225q44 -96 151.5 -90t170.5 80q44 52 77 152q-56 1 -92 6q-8 1 -13 8t-4 15t8 13t14 4z" />
    <glyph glyph-name="H" unicode="H" horiz-adv-x="516" 
d="M379 399q-228 -16 -264 -19q9 -189 16 -375q0 -8 -5.5 -14.5t-13.5 -6.5t-14.5 5.5t-6.5 13.5q-7 186 -16 375q-32 0 -52 -1q-9 0 -15 5.5t-6 14t5.5 14.5t13.5 6q20 0 52 1l-17 266q-1 8 5 14t14 7t14 -5t7 -14q8 -126 16 -266l265 19q-9 151 -19 261q-1 9 4.5 15t14 7
t14.5 -4.5t7 -13.5q10 -121 18 -263q41 3 67 4q8 1 14 -5t7 -14t-5 -14t-14 -7q-27 -1 -67 -4q2 -54 7 -178.5t9 -193.5q1 -8 -5 -14t-14 -7t-14 5t-7 14l-8 193q-5 124 -7 179z" />
    <glyph glyph-name="I" unicode="I" horiz-adv-x="111" 
d="M71 674q4 -75 4.5 -170t-0.5 -147t-5 -180t-5 -154q0 -8 -6 -13.5t-14.5 -5.5t-14 6t-5.5 15l5 153q4 124 5 177.5t0.5 147t-4.5 169.5q-1 8 5 14t14 7t14 -5t7 -14z" />
    <glyph glyph-name="J" unicode="J" horiz-adv-x="517" 
d="M359 693q60 -131 96 -247q37 -123 41 -200q7 -129 -64 -197q-73 -67 -200 -50q-113 15 -181 76q-38 34 -45.5 73.5t14.5 71.5q19 30 54 50t76 26q34 5 125 -3q7 -1 12.5 -7t5 -14.5t-7 -14t-15.5 -4.5q-87 7 -115 3q-33 -4 -61 -20.5t-41 -37.5q-28 -46 25 -93
q58 -53 159 -66q109 -16 167.5 39.5t51.5 165.5q-4 72 -40 190q-36 116 -92 243q-4 7 -1.5 15t10.5 11t15.5 0.5t10.5 -10.5z" />
    <glyph glyph-name="K" unicode="K" horiz-adv-x="554" 
d="M308 615q-71 -125 -215 -281q-2 -3 -18 -14l13 -12q15 -16 44 -36q51 -36 139 -87q138 -78 252 -132q8 -3 10.5 -11t-1 -15.5t-11 -10t-15.5 0.5q-113 52 -255 134q-91 51 -142 88q-15 11 -44 34q5 -78 5 -95q4 -89 0 -149q-1 -8 -7 -14t-14.5 -5t-14 7t-4.5 14
q3 59 0 145q0 16 -2.5 67.5t-3.5 79.5q-1 45 -0.5 177.5t-3.5 177.5q-1 8 4.5 14t14 7t14.5 -5t7 -14q3 -43 3.5 -90.5t0 -111.5t-0.5 -118q145 159 210 275q4 7 12 9t15.5 -2t9.5 -12t-2 -15z" />
    <glyph glyph-name="L" unicode="L" horiz-adv-x="500" 
d="M47 688q2 -66 3 -227t5 -248v-90v-55v-16q23 -5 51 -7q52 -4 130 -4q156 0 224 5q8 1 13 -4t6 -13t-4 -13t-13 -6q-67 -5 -226 -5q-83 0 -133 4q-29 3 -47 7q-11 2 -17 4q-11 5 -15 11l-4 9v0v2v8q-1 6 -1 18v55v88q-4 86 -5 247.5t-3 227.5q0 8 5 13.5t12.5 5.5t13 -5
t5.5 -12z" />
    <glyph glyph-name="M" unicode="M" horiz-adv-x="700" 
d="M58 6q-10 249 -10 271q-1 87 0 177q0 47 5 121q3 43 6 68q2 14 4 23q1 6 3 10q2 3 5 6q6 7 15 7t14 -5l3 -5q1 -1 2 -4l3 -6q2 -4 4 -14l12 -44l9 -31l7 -27q4 -12 5 -14q35 -115 75 -200q31 -63 61.5 -100.5t61.5 -42.5q8 4 15 11q15 15 34 48q30 55 71 163l63 171
q15 39 24 60q7 12 11 20q8 11 17 15q17 6 26 -10q3 -4 4 -11q3 -8 5 -23q4 -26 8 -73q2 -26 5.5 -76t4.5 -63q5 -48 16 -188t21 -216q1 -9 -4 -15.5t-13.5 -7.5t-15 4t-7.5 13q-9 76 -20.5 217t-16.5 189q-1 13 -4.5 63.5l-8.5 121.5l-77 -204q-43 -112 -75 -169
q-20 -38 -39 -57q-26 -26 -52 -23q-43 6 -85 58q-34 41 -66 107q-40 84 -91 250q-5 -98 -5 -117q-1 -90 0 -177q0 -20 10 -270q0 -8 -5.5 -14t-13.5 -6.5t-14 5t-7 14.5z" />
    <glyph glyph-name="N" unicode="N" horiz-adv-x="569" 
d="M48 26q0 45 -1.5 149.5t-0.5 182.5q0 74 5 149q5 72 7 96q1 14 1 19q1 3 1 7v1q1 2 1 4q0 1 1 3l5 5q8 7 18 4q6 -1 10 -7q2 -1 2.5 -2.5t2.5 -4.5l1 -5q4 -7 7 -20l19 -58l12 -40q7 -24 11.5 -37.5t5.5 -17.5q38 -107 93 -194t137 -165q19 -18 47 -31q20 -9 41 -7v8
q4 8 7 22q6 24 12 64q8 64 10 115q3 84 3 142q0 118 -27 282q-1 8 4 15t13 8t15 -4t8 -13q27 -167 27 -288q0 -60 -3 -144q-2 -52 -11 -119q-6 -42 -13 -69q-4 -16 -8 -26q-6 -15 -14 -23q-28 -23 -80 0q-34 15 -59 38q-85 82 -143 172.5t-96 202.5q-2 5 -27 86
q-7 -121 -7 -194.5t1.5 -165.5t1.5 -140q0 -8 -6 -14t-14 -6t-14 6t-6 14z" />
    <glyph glyph-name="O" unicode="O" horiz-adv-x="528" 
d="M252 672q-75 -10 -126 -103q-50 -93 -55 -221q-4 -128 43 -216q51 -94 145 -98q90 -4 149.5 82.5t65.5 211.5q3 83 -18 155t-72.5 124t-123.5 63q-2 2 -8 2zM260 711h4q67 -11 118 -49t79.5 -92.5t42 -117t10.5 -127.5q-7 -136 -71 -230q-73 -107 -185 -101
q-118 6 -179 119q-52 97 -48 238q5 135 60 236q62 116 159 125q5 0 10 -1z" />
    <glyph glyph-name="P" unicode="P" horiz-adv-x="449" 
d="M89 296q130 46 216 123q115 102 87 201q-22 76 -142 51q-48 -9 -92 -32t-68 -50q3 -120 -1 -293zM49 599q-1 37 -3 73q-1 8 5 14t14 7t14 -5t7 -14l2 -32q77 53 154 68q27 7 57.5 6t56 -7.5t45.5 -26.5t29 -52q36 -124 -99 -241q-50 -45 -114 -79.5t-119 -52.5h-11
q-1 -47 -3.5 -124.5t-3.5 -117.5q0 -8 -6 -13.5t-14.5 -5.5t-14 6t-5.5 15q1 39 4.5 143t4.5 143t2.5 143t-1.5 144q-1 5 -1 9z" />
    <glyph glyph-name="Q" unicode="Q" horiz-adv-x="531" 
d="M382 75q-37 39 -59 68q-5 7 -4 15t8 13t15 4t13 -8q19 -25 53 -62l12 17q55 88 55 213q0 83 -24.5 154t-78.5 121.5t-130 59.5q-78 -10 -124.5 -106.5t-45.5 -223.5q2 -130 52 -215q55 -92 151 -92q55 0 107 42zM410 47q-64 -54 -135 -54q-118 0 -184 111q-57 95 -59 235
q-1 138 49 241q58 118 154 130h6h7q67 -9 120 -45t84.5 -89.5t47 -114.5t15.5 -126q0 -137 -61 -233q-5 -11 -17 -26l59 -60q5 -6 5 -14.5t-6 -14t-14.5 -5.5t-14.5 6z" />
    <glyph glyph-name="R" unicode="R" horiz-adv-x="464" 
d="M90 342q109 35 195 84q57 34 88 67q34 35 33 65q-2 58 -55.5 77.5t-119.5 3.5q-56 -15 -141 -70q2 -97 0 -227zM115 307q102 -104 303 -267q6 -4 7 -12.5t-4 -15t-13.5 -7.5t-15.5 5q-195 157 -303 266q-3 -62 -5.5 -141.5t-3.5 -119.5q0 -8 -6 -13.5t-14.5 -5.5t-14 6
t-5.5 15q1 29 5 155.5t5 179.5t0.5 148t-4.5 172q-1 8 5 14t14 7t14 -5t7 -14l3 -57q78 47 132 60q78 20 141 -3q37 -13 59.5 -42t24.5 -72q2 -47 -43 -94q-36 -37 -98 -73q-80 -48 -190 -86z" />
    <glyph glyph-name="S" unicode="S" horiz-adv-x="396" 
d="M328 528q-34 68 -82 100q-44 30 -97 25t-69 -50q-9 -26 33 -76q17 -21 50 -54l61 -60q20 -20 35 -36.5t33 -39t30 -42t23.5 -43.5t16 -46.5t4.5 -48.5t-7 -51q-12 -37 -35.5 -63t-53.5 -37t-63.5 -12.5t-62.5 10.5q-69 25 -101.5 93t-3.5 163q2 8 9.5 11.5t15.5 1.5
t12 -9.5t2 -15.5q-25 -80 0.5 -133.5t78.5 -72.5q52 -19 99.5 1.5t63.5 74.5q19 64 -15.5 127.5t-109.5 139.5l-61 60q-33 34 -52 56q-56 68 -39 116q12 35 39.5 53.5t62.5 22.5q67 7 124 -31.5t95 -115.5q4 -8 1.5 -15.5t-10 -11t-15.5 -1.5t-12 10z" />
    <glyph glyph-name="T" unicode="T" horiz-adv-x="455" 
d="M18 658q209 30 455 19q9 -1 14.5 -7t5 -14t-6.5 -14t-14 -5q-106 5 -219 1q5 -82 5.5 -173t-0.5 -141.5t-5 -172.5t-5 -148q0 -8 -6 -13.5t-14.5 -5.5t-14 6t-5.5 15l5 148q4 118 5 169.5t0.5 141t-5.5 173.5q-103 -7 -189 -19q-9 -1 -15.5 4t-7.5 13t3.5 15t13.5 8z" />
    <glyph glyph-name="U" unicode="U" horiz-adv-x="531" 
d="M91 676q0 -10 -2 -50.5t-2.5 -68.5t-1 -70t1 -83t4.5 -79q9 -112 35 -183q29 -81 78 -106q51 -26 103 2.5t85 87.5q59 111 77 268t-14 278q-2 8 2 15t12 9t15 -2t9 -12q35 -129 16 -293t-83 -281q-16 -31 -39.5 -57t-56 -46t-68 -21.5t-77.5 16.5q-62 32 -97 128
q-27 77 -37 194q-3 39 -4.5 80.5t-1 84.5t1 71.5t2.5 69.5t2 50q0 8 6.5 13.5t14.5 5.5t13.5 -6.5t5.5 -14.5z" />
    <glyph glyph-name="V" unicode="V" horiz-adv-x="421" 
d="M54 676q13 -238 27 -348q15 -117 36 -189q24 -81 53 -100q15 -9 29 -3q15 9 30 33t43 98q78 206 93 513q0 9 6 15t14.5 5t14 -7t5.5 -13q-16 -316 -96 -527q-29 -78 -46 -105q-21 -34 -45 -47q-34 -18 -69 4q-42 26 -71 123q-21 75 -37 195q-14 112 -27 351q-1 8 4.5 14
t14 7t14.5 -5t7 -14z" />
    <glyph glyph-name="W" unicode="W" horiz-adv-x="769" 
d="M57 677q13 -240 29 -362.5t39 -197.5q26 -85 59 -103q11 -6 21 -2q13 5 26 22q27 35 51 114q18 59 34 138l12 52l5 31q-1 9 3 15t11 8q8 2 15.5 -2t9.5 -12l2 -6q3 -13 10 -41l8 -30q11 -45 21 -74q34 -90 49 -119q37 -70 77 -77q33 -6 56 35q13 21 32 87q13 40 23 87
t16 82.5t12 92.5l8 84q2 26 6.5 94t5.5 87q0 9 6.5 14.5t15 4.5t13.5 -7t5 -14q-1 -19 -5.5 -86.5t-7 -94.5t-8.5 -86t-12 -95t-16 -84.5t-23 -90.5q-22 -70 -36 -95q-38 -66 -98 -55t-105 98q-17 32 -51 125q-5 12 -19 63q-23 -96 -37 -141q-26 -85 -57 -126
q-21 -27 -43 -36q-28 -10 -56 6q-45 25 -77 125q-25 80 -41 204q-16 123 -29 366q-1 8 4.5 14t14 7t14.5 -5t7 -14z" />
    <glyph glyph-name="X" unicode="X" horiz-adv-x="500" 
d="M238 328l-176 -321q-3 -7 -11 -9t-15 1.5t-9.5 11.5t1.5 15l187 341l-170 302q-4 7 -1.5 14.5t9.5 11.5t14.5 2t11.5 -10l158 -280l168 279q4 6 12 8t15 -2t9 -12t-3 -16l-177 -296l214 -345q5 -6 3 -14t-9 -12.5t-15 -3t-12 8.5z" />
    <glyph glyph-name="Y" unicode="Y" horiz-adv-x="433" 
d="M83 683q-9 -62 -12.5 -98t-5 -89t8.5 -98t30 -83q26 -50 63 -67q38 -18 71 17q46 48 79 159q21 75 37 185v25q-1 25 10 39q4 7 14 8q16 2 22 -14q2 -4 2 -9q-1 -5 -2 -21q-2 -42 -2 -72q1 -107 3 -152q1 -35 6 -125.5t7 -155.5t2 -126q0 -8 -6 -14t-14 -6t-14 6t-6 14
q0 78 -15 419q-50 -142 -93 -188q-54 -56 -119 -26q-49 24 -81 86q-18 34 -28 77t-13 77t0 84.5t6 76.5t10 76q1 8 8 13.5t15 4.5t13 -8t4 -15z" />
    <glyph glyph-name="Z" unicode="Z" horiz-adv-x="538" 
d="M99 679q10 0 75 3.5t105 4.5q65 1 102 -2q23 -2 37 -6q23 -9 26 -26q1 -4 1 -6v-2l-2 -4l-1 -1t-1 -4l-2 -2l-7 -13l-23 -37l-41 -66l-86 -142q62 -5 104 -10q8 -1 13 -8t4 -15t-7.5 -13t-14.5 -4q-55 8 -123 11l-90 -151q-27 -45 -90 -135q43 6 60 7q169 12 360 -15
q9 -1 14 -8t3.5 -15t-8 -13t-14.5 -4q-189 27 -353 15q-26 -2 -69 -8q-20 -3 -24 -3q-5 -1 -7 -1h-7q-2 0 -4 1q-9 3 -12 11q-9 20 12 39l6 6q1 1 4 2.5t3 -1.5h-4q65 95 95 144l80 132q-54 1 -99 1q-8 0 -14 6t-6 14t6 14t14 6q66 0 123 -2l96 161l42 66l23 39h-22
q-34 3 -96 2q-41 -1 -106 -4.5t-75 -3.5t-16 6t-6 14t6 14t16 6z" />
    <glyph glyph-name="bracketleft" unicode="[" horiz-adv-x="1031" 
d="M405 701q-3 -58 -3 -63q0 -114 11 -172q20 -104 77 -120q72 -19 156 72q35 38 84 116l-38 -12q-33 -10 -55 -12q-14 -1 -23 1q-16 4 -23 15q-9 15 -6 49q2 22 8 59l12 44l-47 -53l-33 -37q-7 -9 -13 -13q-3 -3 -6 -5q-6 -4 -12 -4q-14 0 -26 13l-17 25q-12 23 -46 97z
M416 -23q17 63 -11 132t-87 119t-122.5 56.5t-121.5 -38.5q-30 -27 -32.5 -60t17.5 -57q19 -26 53 -38.5t69 -0.5q27 9 37 26.5t6 31.5q-3 10 -12 16.5t-29 11.5t-51 -2q-7 -2 -13 2t-8 11t2.5 13.5t11.5 7.5q51 12 87 -2t46 -46q11 -32 -8 -62t-57 -42q-48 -15 -92.5 0.5
t-70.5 51.5q-18 25 -23 52.5t5.5 57.5t38.5 54q44 40 98 47.5t102 -10.5t90 -54q45 -38 90 -113q12 95 27 164q0 2 6 11q-66 38 -87 142q-11 61 -11 179q0 24 4 72q2 29 4 46q1 10 3 16q3 5 5 9q9 12 23 5q3 -1 5.5 -3t1.5 -2v2q0 -3 1 -4q0 -1 1 -2v3v-5l2 -2l1 -4l8 -22
l27 -63l30 -63l12 -14l37 40q50 60 59 67q0 3 -1 3q7 7 8 10q6 5 12 8q7 3 14 1q8 -2 13 -9.5t5 -21.5q0 -8 -2 -23q-1 -10 -10 -54q-6 -37 -8 -55q-1 -11 -1 -27h13q20 2 49 10q50 16 78 31q10 11 22 5q6 -4 8.5 -11t-0.5 -13q-60 -111 -118 -174q-86 -95 -179 -85v-9
q-23 -107 -33 -243q74 95 156 136q81 42 168 45q48 2 87 -10q36 -11 63 -46q37 -47 21 -100q-12 -46 -58 -79q-28 -20 -60 -29q-33 -11 -69 -6t-62 27q-29 29 -27.5 61t27.5 56q24 25 60.5 28t78.5 -24q7 -5 8 -12t-3.5 -13.5t-11.5 -7.5t-14 3q-33 19 -55.5 18t-38.5 -18
q-14 -15 -14.5 -32.5t13.5 -31.5q29 -22 69.5 -19t77.5 29q35 26 45 59q10 36 -15 69q-20 26 -49 34.5t-72 7.5q-103 -3 -195.5 -66t-127.5 -158q-1 -3 -3 -6q-4 -11 -15 -14q-8 -4 -15 -2q-8 2 -11.5 8t-1.5 13z" />
    <glyph glyph-name="backslash" unicode="\" horiz-adv-x="446" 
d="M382 6q-159 245 -373 660q-3 8 -0.5 15t9 10t13.5 1t10 -9q214 -414 372 -658q4 -7 2 -14t-8.5 -11t-13.5 -2.5t-11 8.5z" />
    <glyph glyph-name="bracketright" unicode="]" horiz-adv-x="1043" 
d="M393 662v-34q7 -38 9 -60q2 -34 -7 -49q-6 -10 -20 -13q-7 -3 -20 -2q-17 0 -44 7l-50 14q47 -78 79 -114q75 -84 157 -71q27 4 45.5 34.5t29.5 83.5q12 64 12 173q0 5 -3 59l-28 -55q-16 -30 -27 -47q-8 -11 -14 -18q-3 -4 -6 -6q-6 -5 -14 -5q-6 0 -12 3q-2 3 -7 6
q-5 4 -13 13l-32 36zM553 -20q-38 96 -130.5 158.5t-197.5 65.5q-41 1 -68 -7t-47 -35q-24 -34 -15.5 -67.5t43.5 -60.5q35 -26 75 -29.5t68 19.5q15 12 14.5 31.5t-16.5 33.5q-16 16 -37.5 17.5t-53.5 -17.5q-7 -5 -14 -4t-11.5 7t-3.5 13.5t7 11.5q42 28 78 25.5t61 -27.5
q15 -15 22.5 -35.5t2 -43t-25.5 -38.5q-26 -23 -61.5 -28t-67 5t-59 31t-44 48.5t-16 62.5t25.5 67q27 35 61.5 46.5t83.5 9.5q88 -3 169 -45q83 -41 160 -137q-15 133 -53 246q-105 -12 -191 84q-46 52 -111 173q-3 6 -1 13t9 11q11 6 17 0q0 -6 4 -6t13 -8q4 -2 5 -4
q34 -13 72 -22q22 -5 46 -5v26q-2 17 -8 56l-9 54l-3 23q0 14 5 21t13 9q6 2 14 -1q6 -2 13 -10q1 -1 6 -8l3 -5q5 -4 55 -65l37 -40q16 27 29 52q31 58 39 79v4v5q0 2 1 8q2 23 16.5 30.5t24.5 -3.5q3 -4 6 -9l3 -18q3 -14 5 -44q4 -53 4 -73q0 -112 -13 -180
q-12 -58 -33 -94q-14 -23 -38 -40q28 -84 47 -182q43 72 86 109q44 36 91.5 53.5t101.5 10t97 -46.5q27 -25 37.5 -55t5.5 -57q-5 -28 -23 -52q-26 -37 -71 -52t-92 -1q-37 13 -55 43t-8 62q9 33 45 47t87 0q8 -2 11.5 -8t1.5 -13.5t-8 -11t-13 -1.5q-31 8 -50.5 3.5
t-28.5 -11t-12 -16.5q-4 -15 6 -32.5t36 -25.5q35 -13 68.5 -1t53.5 39q19 24 17 56.5t-33 59.5q-55 45 -118.5 39t-122.5 -56q-41 -34 -68 -79.5t-34 -92.5q2 -28 2 -58v-6q1 -6 2 -11q2 -7 -1.5 -13.5t-10.5 -8.5t-14 1.5t-8 10.5q-2 5 -4 15q-3 3 -4 5z" />
    <glyph glyph-name="asciicircum" unicode="^" horiz-adv-x="300" 
d="M-7 536q26 27 77 106l32 48q8 11 12 16q3 4 4 6l5 3q7 5 15 3q6 -3 11 -7q4 -4 7 -8l14 -20q12 -21 30 -57q33 -60 50 -98q2 -6 -0.5 -13.5t-9 -10t-14 0t-10.5 9.5q-16 35 -47 96q-16 30 -36 62l-32 -51q-53 -80 -80 -109q-5 -6 -13 -6t-13.5 5t-5.5 12.5t4 12.5z" />
    <glyph glyph-name="underscore" unicode="_" horiz-adv-x="400" 
d="M35 -80q52 0 166 9q138 11 167 13q7 1 12.5 -4.5t6.5 -12.5t-4.5 -12.5t-12.5 -6.5q-29 -2 -167 -13q-112 -9 -168 -9q-8 0 -13 5t-5 13t5 13t13 5z" />
    <glyph glyph-name="grave" unicode="`" horiz-adv-x="155" 
d="M40 731l36 -57l40 -56q5 -6 3 -13.5t-8 -11.5t-13.5 -2.5t-11.5 7.5l-40 56q-23 34 -37 59q-4 7 -2 14t8.5 10.5t13.5 1.5t11 -8z" />
    <glyph glyph-name="a" unicode="a" horiz-adv-x="428" 
d="M365 62q-21 57 -42 93.5t-55 65.5q-75 62 -135 44q-24 -8 -41 -28t-24 -48q-6 -27 1.5 -55t28.5 -53.5t64.5 -40.5t102.5 -14q54 1 100 36zM132 440q60 63 116 48q45 -11 80 -74q36 -66 70 -220q6 -25 13 -100q0 -1 0.5 -8t1.5 -16t2 -17q1 -14 1 -25q1 -5 0.5 -8
t-0.5 -6q-1 -3 -4 -6q-2 -5 -7 -7q-7 -2 -16 0q-9 4 -20 20q-47 -30 -105 -31q-68 -2 -118.5 16.5t-77 49t-37 67t-2.5 73.5t31.5 64.5t59.5 37.5q79 26 170 -51q28 -23 79 -92q-40 180 -74 242q-28 50 -56 57q-35 8 -79 -39q-6 -5 -13.5 -5.5t-13 4.5t-5.5 12.5t4 13.5z
" />
    <glyph glyph-name="b" unicode="b" horiz-adv-x="365" 
d="M72 304q-3 -111 -13 -267q74 -24 145 17q57 34 84 93t22.5 117.5t-30.5 107.5q-18 34 -42 50.5t-49 13.5q-27 -4 -57.5 -34.5t-59.5 -97.5zM36 310q4 186 -9 336q-1 7 4 12.5t12 6.5t13 -4t7 -13q9 -107 10 -261q61 79 112 85q39 5 72.5 -19t55.5 -65q21 -39 29 -88
t1 -99.5t-38 -98.5t-83 -78q-85 -50 -170 -23q-8 -4 -14 -4q-7 1 -12 6.5t-4 12.5q11 173 14 291v3z" />
    <glyph glyph-name="c" unicode="c" horiz-adv-x="375" 
d="M282 412q-58 65 -111 34q-52 -31 -79 -126q-28 -95 -7 -176q21 -86 89 -103q52 -12 99 23q10 6 17.5 13t11 11.5l13 16t15.5 17.5q5 6 12 7t13 -4t6.5 -12.5t-4.5 -13.5q-3 -4 -14 -17.5t-15 -17.5l-13.5 -13t-20.5 -17q-60 -43 -127 -27q-47 10 -76 44.5t-42 82.5
q-22 92 8 196q31 107 95 146q35 22 76 12.5t81 -52.5q5 -5 4.5 -12.5t-6 -13t-13 -4.5t-12.5 6z" />
    <glyph glyph-name="d" unicode="d" horiz-adv-x="387" 
d="M312 333q-56 99 -113 109q-46 7 -84 -47q-41 -56 -49 -140q-7 -85 28 -158q36 -71 113 -56q34 7 62.5 30.5t41.5 57.5q1 2 5 6q-5 89 -4 198zM358 650q-1 -45 -5 -155t-5 -168.5t2.5 -147.5t14.5 -162q1 -7 -3.5 -13.5t-12 -7.5t-13.5 3.5t-7 12.5q-3 18 -7 61
q-54 -57 -108 -67q-45 -10 -86.5 8.5t-65.5 64.5q-41 85 -32.5 178.5t55.5 158.5q52 72 120 61q48 -7 108 -77q2 49 5 129t4 123q0 7 5.5 12t12.5 5t12.5 -5.5t5.5 -13.5z" />
    <glyph glyph-name="e" unicode="e" horiz-adv-x="371" 
d="M68 192q80 32 131 81q51 50 71 109q16 46 -17 64q-36 19 -79 -9q-29 -18 -52 -56q-24 -37 -37 -87q-12 -45 -17 -102zM70 158q6 -26 9 -38q18 -49 70.5 -71t100.5 -2q9 3 16 6.5t17 10.5l12 10l16 14q12 9 15 12q6 5 13.5 4t12 -6.5t4 -13t-5.5 -12.5q-2 -1 -14.5 -11
l-17.5 -14l-15 -12q-11 -8 -20 -13t-18 -9q-44 -15 -87.5 -9t-80.5 34t-51 70q-28 80 4 195q34 121 105 165q28 17 58.5 20t56.5 -11t36 -42t-1 -65q-24 -72 -87 -128.5t-136 -83.5h-12z" />
    <glyph glyph-name="f" unicode="f" horiz-adv-x="331" 
d="M319 601q-1 35 -17.5 56t-40.5 28q-24 5 -45.5 -3.5t-33.5 -32.5q-4 -8 -7 -35q-4 -27 -6 -70q-2 -49 -2 -126h99q8 0 13 -5t5 -13t-5 -13t-13 -5h-99v-31q1 -198 9 -332q1 -7 -4.5 -12.5t-12.5 -6.5t-12.5 4.5t-6.5 12.5q-8 134 -9 333v32h-82q-8 0 -13 5t-5 13t5 13
t13 5h82q0 79 3 127q2 45 5 73q4 33 11 46q17 37 51 50.5t69 4.5q36 -10 60 -40.5t25 -75.5q0 -8 -5 -13.5t-12.5 -5.5t-13 5t-5.5 12z" />
    <glyph glyph-name="g" unicode="g" horiz-adv-x="390" 
d="M333 222q-1 41 -3 85q-19 74 -55 108t-74 30q-40 -3 -75 -46t-48 -121q-18 -95 7 -155t69 -74q15 -2 32 -2t37 12.5t38 31t36.5 51t31.5 74.5q0 1 4 6zM321 419l-4 55q-1 7 4 12.5t12 6.5t13 -4t7 -13q9 -110 12 -162q1 -6 1 -10q3 -60 3 -111q0 -187 -44 -279
q-27 -56 -80 -84t-111 -19t-100 54q-4 6 -4 13.5t5.5 12.5t13 4.5t12.5 -5.5q33 -35 78.5 -42.5t88.5 14.5t65 68q26 57 39 197q-58 -84 -102 -104.5t-87 -7.5q-61 18 -90 92t-11 177q15 87 57.5 139t97.5 58q59 6 124 -62z" />
    <glyph glyph-name="h" unicode="h" horiz-adv-x="455" 
d="M79 688q5 -125 4 -409q28 59 39 77q63 104 159 112q58 5 92 -57q25 -46 37 -129q8 -59 11 -146q0 -17 0.5 -55t1.5 -52q1 -8 -4.5 -13.5t-12.5 -6.5t-12.5 4.5t-6.5 13.5q-1 13 -1.5 51.5t-0.5 56.5q-2 85 -10 141q-11 77 -33 117q-23 43 -59 39q-77 -6 -131 -96
q-41 -68 -63 -170q-4 -23 -6 -53q1 -16 1 -38l2 -47v-16v-4v-2v-2v-1l-1 -3q-2 -5 -6 -8q-6 -5 -14 -4q-7 1 -12 7q-4 4 -5 10q-1 5 -2 15v44q0 30 1 50q-1 42 -1 58q0 41 1 158t0 198t-4 159q0 7 5 12.5t12 6t12.5 -4.5t6.5 -13z" />
    <glyph glyph-name="i" unicode="i" horiz-adv-x="100" 
d="M80 457q-4 -76 -1 -222q3 -158 1 -225q0 -7 -5.5 -12t-13 -5t-12.5 5.5t-5 13.5q2 64 -1 222q-3 147 1 223q1 8 6.5 13.5t12.5 4.5t12.5 -6.5t4.5 -11.5zM83 595q0 -8 -5 -13t-13 -5t-13 5t-5 13t5 13t13 5t13 -5t5 -13z" />
    <glyph glyph-name="j" unicode="j" horiz-adv-x="127" 
d="M78 461q8 -134 2 -275q-8 -196 -46 -267q-47 -88 -133 -104q-17 -4 -31.5 -4t-27.5 3.5t-23.5 7.5t-22.5 12t-20.5 15l-20.5 17q-6 6 -6.5 13t4.5 12.5t12.5 6.5t12.5 -4q35 -31 58 -41t59 -4q68 14 106 86q35 63 43 254q6 141 -2 270q-1 7 4 12.5t12.5 6.5t13 -4.5
t6.5 -12.5zM80 592q0 -8 -5 -13t-13 -5t-13 5t-5 13t5 13t13 5t13 -5t5 -13z" />
    <glyph glyph-name="k" unicode="k" horiz-adv-x="371" 
d="M281 419q-41 -37 -114 -112l-52 -55l-12 -15q14 -14 30 -25q28 -23 82 -62l89 -64q46 -34 58 -45q6 -4 6.5 -12t-4 -13t-12.5 -6t-13 4q-7 7 -56 42l-89 64l-85 63l-16 17q-5 -107 -14 -183q-2 -8 -7.5 -12.5t-13 -3.5t-12 7t-3.5 13q13 100 15.5 223.5t-0.5 208
t-11 225.5q-1 7 4 12.5t12.5 6.5t13 -4.5t6.5 -12.5q13 -242 13 -397l46 49q73 76 114 114q6 5 13.5 5t12.5 -6t5 -13.5t-6 -12.5z" />
    <glyph glyph-name="l" unicode="l" horiz-adv-x="130" 
d="M85 683q0 -45 -2 -203.5t0 -260.5t12 -203q1 -8 -4 -13.5t-12.5 -6.5t-13 4t-6.5 12q-9 101 -11.5 203t-0.5 264t2 204q0 8 5 13t13 5t13 -5t5 -13z" />
    <glyph glyph-name="m" unicode="m" horiz-adv-x="529" 
d="M36 29v316v7v14q0 9 0.5 21t0.5 22q1 27 2 42q1 11 2 16q1 4 2 7q2 4 5 7q6 6 16 4q5 -1 8.5 -3.5t4.5 -4.5l1 -1q1 -3 3 -6l2 -11l3 -17q3 -14 5 -20q13 -59 29 -100q22 -62 51 -94q34 -35 74 -27q47 8 79 69q9 17 16.5 36.5t15.5 43t13 35.5q12 31 22 54l9 17q2 5 4 7
l5 4q10 9 21 1q3 -2 4.5 -4.5t1.5 -1.5v-4l1 -1q1 -2 1 -1v-5q1 -5 1 -11q1 -13 3 -35q1 -13 2.5 -36t1.5 -28q9 -136 48 -334q2 -7 -2 -13t-11.5 -7.5t-13.5 2.5t-7 12q-40 197 -54 385q-35 -105 -50 -132q-41 -77 -105 -89q-60 -10 -106 39q-30 33 -74 140
q0 -102 0.5 -194t0.5 -121q0 -8 -5 -13t-13 -5t-13 5t-5 13z" />
    <glyph glyph-name="n" unicode="n" horiz-adv-x="436" 
d="M61 475q-1 -68 -1 -227q53 127 105 184q37 40 83 53q61 17 98 -32q43 -56 59 -213q12 -119 5 -225q-1 -7 -6.5 -12.5t-12.5 -4.5t-12.5 6.5t-4.5 12.5q6 103 -5 219q-14 147 -51 195q-23 29 -61 20q-34 -10 -64 -43q-66 -73 -99 -175q-31 -102 -31 -211v-1v-4v0l-2 -5
q-1 -4 -4 -6q-6 -5 -13 -5q-6 0 -11 4q-3 3 -5 8v1q-1 2 -1 1v2v1v1v1v14q-1 27 -1 35q-2 55 -2 119q0 238 1 289q0 7 5.5 12t13 5t12.5 -5.5t5 -13.5z" />
    <glyph glyph-name="o" unicode="o" horiz-adv-x="387" 
d="M185 454q-7 0 -9 -2q-9 -2 -28 -16q-33 -24 -55.5 -90.5t-20.5 -137.5q2 -77 31 -123t84 -46q63 0 102 50.5t44 128.5q6 77 -21.5 142.5t-80.5 86.5q-7 4 -22 5q-1 0 -10 0.5t-14 1.5zM228 486l17 -5q66 -28 98 -103q33 -77 26 -163q-3 -40 -16 -78q-12 -36 -34 -66.5
t-56 -49t-76 -18.5q-39 0 -69.5 17.5t-47 48t-25 65t-9.5 73.5q-2 78 22.5 152.5t67.5 106.5q26 19 46 22q6 2 42 3q7 0 14 -5z" />
    <glyph glyph-name="p" unicode="p" horiz-adv-x="387" 
d="M83 30v-178q0 -8 -5 -13t-13 -5t-13 5t-5 13q0 39 0.5 152t0.5 169.5t-2.5 146.5t-6.5 164q-1 7 4 12.5t12.5 6.5t13 -4.5t6.5 -12.5q2 -29 4 -85q24 30 33 39q67 64 134 40q48 -17 76 -51.5t35.5 -78t1.5 -88.5t-24 -88q-40 -94 -110 -134q-63 -37 -142 -10zM84 70
q64 -33 123 0q60 36 95 118q23 55 24.5 106.5t-21.5 93t-70 58.5q-47 16 -98 -32q-13 -13 -23.5 -30.5t-14.5 -27.5l-16 -40l-1 -1q2 -99 2 -245z" />
    <glyph glyph-name="q" unicode="q" horiz-adv-x="384" 
d="M310 380q-45 66 -99.5 52t-97.5 -86q-44 -73 -45 -151q-2 -82 50 -121q41 -32 93 -24q34 4 98 53q0 130 9 270q-7 5 -8 7zM362 477q-30 -352 -7 -630q1 -7 -4 -12.5t-12.5 -6.5t-13 4t-6.5 13q-8 95 -10 213q-58 -39 -92 -44q-31 -4 -64 5q-33 8 -57 27q-66 50 -64 150
q1 87 50 169q51 84 118 102q58 15 121 -41l5 53q1 8 6.5 13t13 4t12.5 -6.5t4 -12.5z" />
    <glyph glyph-name="r" unicode="r" horiz-adv-x="337" 
d="M55 82q-3 88 -3 97v126q0 98 -8 151q-1 7 3 13.5t11.5 7.5t14 -3.5t7.5 -12.5q8 -52 8 -184l23 58q36 90 84 127q62 48 134 6q6 -4 8 -11t-2 -13t-11 -8t-13 2q-51 29 -94 -4q-41 -32 -73 -111q-22 -57 -36 -123.5t-17 -118.5l1 -19q1 -34 1 -41v-3l-1 -1q-1 -5 -4 -9
q-6 -7 -17 -6q-6 1 -11 8q-2 2 -2.5 4.5t-0.5 7.5q-1 6 -2 23q-1 15 0 37z" />
    <glyph glyph-name="s" unicode="s" horiz-adv-x="328" 
d="M280 356q-9 56 -37 80t-62 21q-33 -2 -54.5 -22.5t-19.5 -43.5q2 -34 37 -66q10 -10 23 -19l31 -22l27 -20q55 -40 75 -77q29 -53 4 -120q-15 -45 -61.5 -63.5t-94.5 -6.5q-52 11 -82.5 52.5t-21.5 104.5q2 8 8 12.5t13.5 3.5t11.5 -7.5t4 -13.5q-8 -49 14 -79t61 -39
q38 -8 71 5t44 43q18 52 -3 91q-16 30 -64 65q-6 5 -27 19l-34 24q-13 10 -24 20q-46 43 -49 91q-2 42 31.5 71.5t76.5 32.5q49 4 87.5 -28.5t51.5 -102.5q1 -7 -3.5 -13.5t-11.5 -7.5t-13.5 3.5t-8.5 11.5z" />
    <glyph glyph-name="t" unicode="t" horiz-adv-x="284" 
d="M37 426q31 -2 83 -1q2 241 2 258q0 8 5.5 13t14 5t14 -5t5.5 -13q0 -22 -2 -256q71 2 99 2q9 0 14.5 -5t5.5 -13t-5.5 -13t-14.5 -5q-28 0 -100 -2q-1 -227 14 -375q0 -8 -5 -13.5t-13 -6.5t-14.5 4t-6.5 12q-15 150 -14 377q-53 -1 -85 1q-8 1 -13.5 6.5t-5 12.5
t6.5 12.5t15 4.5z" />
    <glyph glyph-name="u" unicode="u" horiz-adv-x="328" 
d="M76 474q0 -2 -2.5 -28t-3.5 -41l-3 -45q-2 -32 -2.5 -55t0 -53t2.5 -56q8 -89 35 -131q27 -45 79 -31q28 8 46 58t26 129q2 27 3.5 57t1.5 59v49q0 20 -0.5 46t-0.5 32q0 7 5 12.5t12.5 5.5t13 -5t5.5 -13q0 -5 0.5 -31t0.5 -47v-50q0 -30 -1.5 -60t-4.5 -58
q-8 -86 -26 -138q-27 -68 -73 -80q-76 -21 -119 45q-30 49 -39 148q-2 26 -2.5 57.5t0 55.5t2.5 55l3 48q1 15 3.5 41.5t2.5 27.5q1 7 6.5 12t13 4t12.5 -6.5t4 -13.5z" />
    <glyph glyph-name="v" unicode="v" horiz-adv-x="400" 
d="M36 469q53 -123 110 -294l36 -110q15 44 20.5 63.5t9.5 31.5t5 14q46 132 138 302q4 7 11 9t14 -1.5t9 -10.5t-2 -13q-92 -169 -138 -298q0 -3 -3 -13l-9 -31q-6 -19 -10 -35q-10 -32 -17 -51q-4 -11 -7 -17q-2 -4 -3 -7q-4 -7 -11 -10q-9 -3 -18 3q-1 0 -2 3q-3 2 -4 3
q0 3 -2 6q-1 4 -6 17l-18 50l-28 83q-50 158 -108 292q-3 7 -0.5 13.5t9.5 9.5t14 0.5t10 -9.5z" />
    <glyph glyph-name="w" unicode="w" horiz-adv-x="628" 
d="M62 472q21 -43 39 -95.5t26.5 -87.5t21.5 -97q7 -30 18 -96l20 58q21 59 39 96q27 51 55 64q8 6 25.5 5.5t28.5 -9.5q26 -25 73 -121l53 -114q8 66 11 84q26 159 104 315q3 6 10.5 8t14 -1t9 -10t-1.5 -15q-75 -151 -100 -301l-14 -94q-3 -25 -4 -36q-2 -8 -3 -13
q-1 -3 -2 -5l-2 -4q-5 -7 -13 -8q-15 -2 -25 11q-4 6 -7 15q0 2 -3 15l-1 7q-35 82 -58 130q-41 86 -67 111q-7 0 -13 -2q-17 -9 -38 -48q-18 -35 -37 -92l-27 -88q-6 -22 -9 -30q-2 -7 -3 -9l-3 -6q-2 -5 -9 -8q-9 -3 -17 0q-8 4 -12 11q-3 7 -3 18v14v8q-9 63 -24 132
l-23 96q-8 36 -24 85.5t-37 88.5q-3 8 -0.5 15t9 10t13.5 1t10 -8z" />
    <glyph glyph-name="x" unicode="x" horiz-adv-x="359" 
d="M24 23q16 31 46 98q30 66 47 98q17 31 41 70q-51 101 -110 169q-5 5 -4.5 12.5t6 12.5t13 4t12.5 -6q53 -62 106 -159q23 33 119 158q5 6 12 7t13 -3.5t7 -12t-4 -13.5q-104 -136 -128 -172q14 -31 25 -58l23 -58l20 -50l22 -58l18 -51q3 -8 0 -14.5t-10 -9t-14 0t-9 9.5
q-66 180 -98 253l-28 -47q-17 -34 -46 -97q-35 -76 -47 -100q-3 -6 -10.5 -8t-13.5 1t-8.5 10.5t0.5 13.5z" />
    <glyph glyph-name="y" unicode="y" horiz-adv-x="340" 
d="M81.5 464q-0.5 -10 -4.5 -47l-6 -53q-8 -82 -8 -139q0 -79 14 -122q15 -47 46 -52q46 -8 91 46q22 25 68 103q2 49 2 98.5t-0.5 103.5t-0.5 67q0 8 5 13t13 5t13 -5t5 -13q0 -11 0.5 -69.5t0 -110t-1.5 -99.5q-9 -199 -47 -271q-47 -88 -133 -104q-17 -4 -31.5 -4
t-27.5 3.5t-23.5 7.5t-22.5 12t-20.5 15l-20.5 17q-6 6 -6.5 13t4.5 12.5t12.5 6.5t12.5 -4q35 -31 58 -41t59 -4q68 14 106 86q24 45 39 184l-35 -46q-59 -68 -126 -58q-52 9 -73 76q-16 51 -16 134q0 59 9 143q1 17 5 52.5t4.5 45.5t6 15t13.5 4t12.5 -6t4 -15z" />
    <glyph glyph-name="z" unicode="z" horiz-adv-x="428" 
d="M50 468q14 -2 121 12q47 6 71 8q38 3 52 -3q21 -10 19 -35q-1 -14 -12 -35q-7 -12 -24 -39l-26 -41l-99 -158l-57 -98l-19 -35q26 0 43 3q28 5 39 5q109 4 210 -5q7 -1 11.5 -6.5t4 -13t-6.5 -12.5t-13 -4q-106 9 -205 5q-8 0 -34 -4q-25 -5 -40 -4h-8h-13q-24 3 -27 22
q-1 7 2 16l5 14l19 36q20 38 58 100l99 159l27 41q15 23 22 36q2 4 8 21q-23 0 -32 -1q-21 -2 -70 -8q-108 -14 -129 -12q-7 1 -12 6.5t-4.5 13t6.5 12.5t14 4z" />
    <glyph glyph-name="braceleft" unicode="{" horiz-adv-x="300" 
d="M222 -100q-78 31 -116 78q-45 57 -32 139q2 11 6 22.5t6.5 17.5l7.5 18t6 14q16 34 10 62q-5 36 -31 57q-10 9 -36 19l-17 7l-4 2q-2 2 -5 2h-1l-5 6q-4 0 -2.5 -0.5t0 2.5t-1.5 10q1 7 7 12q3 2 5 4l8 2q1 0 10 1q18 3 29 8q35 12 35 46q0 26 -6 65q-8 50 -9 65
q-6 79 39 136q47 56 109 63q8 1 14 -4t6.5 -12.5t-4.5 -13t-11 -6.5q-28 -2 -47 -14t-38 -37q-37 -45 -32 -110q1 -12 8 -62q7 -42 7 -70q0 -48 -57 -82l22 -11q36 -29 45 -79q6 -39 -13 -82l-8 -17q-5 -10 -7 -15.5t-4.5 -14l-4.5 -15.5q-11 -68 25 -113q31 -39 100 -66
q7 -3 10 -9.5t0 -14t-9.5 -10t-13.5 -0.5z" />
    <glyph glyph-name="bar" unicode="|" horiz-adv-x="795" 
d="M504 362q33 -56 23 -107l9 -7q71 -52 130 -31q24 7 41.5 26t24.5 43q16 52 -16 85q-39 40 -132 23q-27 -4 -80 -32zM500 207q-21 -21 -44 -33q-16 -8 -41 -14q-2 -41 4 -62q24 -83 79 -101q46 -14 89 19q42 34 38 80q-7 56 -85 95q-15 8 -40 16zM269 376q22 26 45 38
q8 5 21 10q4 52 -3 76q-22 91 -74 109q-42 15 -84 -19q-42 -37 -37 -88q5 -61 81 -105q19 -10 51 -21zM258 224q-7 11 -9 17q-19 37 -7 85q-36 19 -59 22q-91 17 -130 -23q-31 -33 -15 -85q8 -24 25 -43t40 -26q58 -21 128 31q10 7 27 22zM180 134q-55 -9 -88 3
q-33 10 -55.5 35t-33.5 57q-10 29 -4 62.5t29 57.5q38 41 136 40q-59 58 -62 110q-4 33 10 64.5t39 52.5q25 23 55 30.5t65 -3.5q53 -19 92 -112q33 81 83 104q32 14 65.5 12t62.5 -18t47.5 -43t19.5 -59q0 -40 -40 -93q101 4 141 -38q23 -24 29 -57.5t-4 -63.5
q-10 -32 -33.5 -57t-55.5 -36q-17 -5 -52 -9q31 -42 34 -74t-11 -61.5t-40.5 -50t-57.5 -27.5t-64 4q-47 14 -88 81q-18 -53 -38 -73q-30 -30 -69.5 -32.5t-69.5 17.5q-33 20 -50.5 55.5t-9.5 76.5q3 14 18 45zM369 157q-45 7 -80 31q-79 -51 -91 -106q-6 -29 6 -54t36 -40
q23 -14 49 -12.5t46 21.5q42 43 34 160zM390 433q46 -6 82 -37q38 13 57 25q76 51 76 105q-1 45 -48 72q-50 26 -97 4q-54 -25 -68 -110q-4 -20 -2 -59z" />
    <glyph glyph-name="braceright" unicode="}" horiz-adv-x="300" 
d="M90 758q76 -31 113 -80q44 -59 29 -140q-2 -10 -6 -21t-6 -18l-10 -19q-6 -11 -7 -14q-15 -33 -10 -61q4 -35 30 -58q6 -4 35 -20l12 -2q8 -1 13 -4q11 -8 11 -22q-1 -10 -11 -15q-2 -2 -4 -2t-5 -1l-3.5 -0.5t-6.5 -0.5q-18 -2 -30 -7q-35 -13 -36 -47q-1 -26 5 -64
q7 -52 8 -65q4 -79 -43 -135q-24 -28 -49 -43q-24 -15 -60 -18q-8 -1 -13.5 4.5t-6 12.5t4.5 12.5t13 6.5q26 2 44.5 13t39.5 36q38 45 34 109q-1 11 -8 61q-6 43 -5 72q1 47 57 79l-19 13q-36 30 -43 79q-6 40 14 82q3 5 8 17l7 15q3 6 5.5 15l4.5 16q12 66 -22 112
q-31 41 -99 68q-6 3 -9 10t-0.5 13.5t10 9.5t14.5 1z" />
    <glyph glyph-name="asciitilde" unicode="~" horiz-adv-x="467" 
d="M29 582q38 81 91 88q32 6 94 -27q61 -31 92 -35q54 -6 107 38q6 5 13.5 4t12.5 -6.5t4.5 -13t-6.5 -12.5q-66 -54 -135 -45q-38 4 -104 39q-52 26 -73 23q-34 -5 -64 -69q-3 -6 -9.5 -8.5t-13.5 0.5t-9.5 10t0.5 14z" />
    <glyph glyph-name="exclamdown" unicode="&#xa1;" horiz-adv-x="100" 
d="M63 568q1 -18 5 -104l6 -120q1 -35 2 -103t-1 -121q-2 -51 -7 -106q-1 -7 -6.5 -12t-13 -4t-12.5 6.5t-4 13.5q5 51 7 103.5t1 119.5t-2 101t-6 121l-5 104q0 7 5 12.5t12 6t12.5 -4.5t6.5 -13zM63 671q0 -8 -5 -13t-13 -5t-13 5t-5 13t5 13t13 5t13 -5t5 -13z" />
    <glyph glyph-name="cent" unicode="&#xa2;" horiz-adv-x="356" 
d="M146 41l4 111l3 94q3 111 0 207q-64 -43 -89 -133q-28 -95 -7 -176q19 -78 89 -103zM189 492q50 -11 92 -56q5 -5 4.5 -12.5t-6 -13t-13 -4.5t-12.5 6q-25 28 -65 44q3 -97 0 -212q-1 -30 -3 -95l-4 -110q39 8 63 25q10 6 17.5 13t11 11.5l13 16t15.5 17.5q5 6 12 7
t13 -4t6.5 -12.5t-4.5 -13.5q-3 -4 -14 -17.5t-15 -17.5l-13.5 -13t-20.5 -17q-35 -25 -84 -31q-1 -48 -1 -82q0 -8 -5 -13t-13 -5t-13 5t-5 13q0 35 1 84q-55 13 -83.5 47t-41.5 82q-22 92 8 196q31 107 95 146q11 7 29 13l-4 79q-1 7 4 12.5t12.5 6.5t13 -4.5t6.5 -12.5z
" />
    <glyph glyph-name="sterling" unicode="&#xa3;" horiz-adv-x="467" 
d="M23 350q44 -3 106 -2q13 64 25 109q25 93 50 147q34 72 72 81q58 15 90 -32q20 -29 27 -82q0 -7 -4.5 -13t-11.5 -7t-13 3.5t-7 12.5q-6 45 -22 68t-49 16q-23 -5 -49 -63q-24 -52 -48 -140l-24 -98h15q153 9 159 9q8 0 13.5 -5t5.5 -12.5t-5.5 -13t-11.5 -5.5
q-7 0 -159 -8q-9 -1 -24 -1q-8 -36 -15.5 -75.5t-9.5 -48.5q-22 -105 -32 -136l-9 -18q23 -3 32 -3q38 -2 107 1q135 6 185 13q7 1 13 -3.5t7 -12t-3 -13.5t-12 -7q-51 -7 -189 -13q-68 -3 -109 -1q-25 1 -39 3q-8 2 -14 3q-10 5 -14 13q-8 15 2 34l4.5 6.5l2.5 3.5l2 2
q0 5 0 4q8 26 31 132q2 9 8.5 44t14.5 70q-60 -1 -101 2q-7 1 -12 6t-4.5 13t6 13t13.5 4z" />
    <glyph glyph-name="currency" unicode="&#xa4;" horiz-adv-x="532" 
d="M356 484q-44 27 -85 28.5t-71.5 -13.5t-56.5 -43q-41 -48 -44.5 -104t34.5 -89q31 -25 68.5 -31t70.5 5.5t60 36t42 56.5t12.5 71t-27.5 75q-2 2 -3 8zM408 473q0 -2 -3 -5q27 -67 14 -120t-60 -100q28 -39 54 -70q5 -6 4 -13.5t-6.5 -12.5t-13 -4t-12.5 6l-56 72
q-51 -32 -107 -32t-110 40q-37 -47 -67 -75q-5 -5 -12.5 -5t-12.5 5.5t-5 13t6 12.5q29 28 65 75q-28 50 -23.5 98.5t38.5 99.5l-60 62q-5 5 -5 12.5t5.5 12.5t13 5t12.5 -6l56 -57q39 37 78 51.5t87.5 8t102.5 -41.5q26 20 63 55q6 5 13.5 4.5t12.5 -6t4.5 -13t-5.5 -12.5
q-37 -34 -71 -60z" />
    <glyph glyph-name="yen" unicode="&#xa5;" horiz-adv-x="560" 
d="M295 100q33 -2 79 1q0 37 -3 79q-51 -6 -82 -7q-7 0 -12.5 5t-6 12t4.5 12.5t13 6.5q33 1 82 7q-1 32 -3.5 81.5t-5.5 128.5q-50 -143 -93 -189q-54 -56 -119 -26q-49 24 -81 86q-18 34 -28 77t-13 77t0 84.5t6 76.5t10 76q1 8 8 13.5t15 4.5t13 -8t4 -15
q-9 -62 -12.5 -98t-5 -89t8.5 -98t30 -83q26 -50 63 -67q38 -18 71 17q46 48 79 159q21 75 37 185v25q-1 25 10 39q4 7 14 8q16 2 22 -14q2 -4 2 -9q-1 -5 -2 -21q-2 -42 -2 -72q1 -107 3 -152q1 -35 4.5 -102.5t5.5 -88.5q77 11 108 14q8 1 13.5 -4t6.5 -12.5t-4 -13
t-12 -6.5q-31 -3 -111 -14l2 -83l60 7q31 3 45 4q8 1 13.5 -4t6.5 -12.5t-4 -13t-12 -6.5q-20 -2 -46 -4l-61 -7v-61q0 -8 -6 -14t-14 -6t-14 6t-6 14v59q-49 -3 -81 -1q-8 1 -13.5 6.5t-4.5 12.5t6.5 12.5t11.5 4.5z" />
    <glyph glyph-name="brokenbar" unicode="&#xa6;" horiz-adv-x="132" 
d="M86 274q0 -96 -14 -200q-1 -7 -7 -12t-13.5 -4t-12 7t-3.5 14q14 101 14 195q0 8 5 13t13 5t13 -5t5 -13zM95 601q0 -96 -14 -200q-1 -7 -7 -12t-13.5 -4t-12 7t-3.5 14q14 101 14 195q0 8 5 13t13 5t13 -5t5 -13z" />
    <glyph glyph-name="section" unicode="&#xa7;" horiz-adv-x="266" 
d="M87 254q52 -22 60 -24q27 -6 44 9q14 13 2 47q-11 33 -49 85l-5 5q-47 22 -72 2q-26 -19 -9 -69q8 -23 29 -55zM182 602q-23 14 -50 17t-44 -5q-19 -7 -25 -23q-7 -20 3 -51q6 -15 40 -59q62 -81 67 -89q41 -57 54 -93q20 -56 -11 -86q-26 -24 -85 -17q55 -77 68 -127
q8 -27 2 -54t-25 -41q-22 -14 -47.5 -9.5t-50.5 26.5l-17 17l-19 24l-14 18q-5 5 -4.5 12t6 12.5t13 4.5t12.5 -7l16 -18l16 -20q8 -8 16 -15q32 -30 52 -16q20 15 9 57q-12 50 -67 119q-1 2 -11.5 16t-13 18t-11 15.5t-12.5 16.5l-10 17l-9 18.5t-7 16.5q-11 35 -5.5 64
t28.5 46q16 13 59 16l-27 36q-38 49 -45 69q-16 44 -3 75q12 31 44 45q29 12 63 7t65 -23q6 -3 7.5 -10.5t-2.5 -14t-11.5 -8t-13.5 2.5z" />
    <glyph glyph-name="dieresis" unicode="&#xa8;" horiz-adv-x="200" 
d="M51 632q0 -8 -5 -13t-13 -5t-13 5t-5 13t5 13t13 5t13 -5t5 -13zM134 632q0 -8 -5 -13t-13 -5t-13 5t-5 13t5 13t13 5t13 -5t5 -13z" />
    <glyph glyph-name="copyright" unicode="&#xa9;" horiz-adv-x="537" 
d="M261 672q-75 -10 -126 -103q-50 -93 -55 -221q-4 -128 43 -216q51 -94 145 -98q90 -4 149.5 82.5t65.5 211.5q3 83 -18 155t-72.5 124t-123.5 63q-2 2 -8 2zM269 711h4q67 -11 118 -49t79.5 -92.5t42 -117t10.5 -127.5q-7 -136 -71 -230q-73 -107 -185 -101
q-118 6 -179 119q-52 97 -48 238q5 135 60 236q62 116 159 125q5 0 10 -1zM313 407q2 64 -18 86q-12 13 -35 2q-28 -16 -52 -59t-26 -98q-2 -57 18.5 -101.5t50.5 -57.5q25 -12 47 6q30 26 45 96q1 7 7 11t13.5 2.5t11.5 -7.5t2 -14q-16 -82 -55 -115q-40 -33 -87 -11
q-41 19 -66 72.5t-23 120.5q2 62 30.5 114t68.5 72q18 12 39.5 10t37.5 -19q30 -33 27 -112q0 -7 -5.5 -12t-13.5 -5t-12.5 5.5t-4.5 13.5z" />
    <glyph glyph-name="ordfeminine" unicode="&#xaa;" horiz-adv-x="331" 
d="M246 459q-8 22 -10 26q-10 21 -22.5 36t-37.5 23q-64 21 -97 -10q-29 -28 -20 -71q9 -44 51 -52q52 -10 136 48zM281 457q20 -47 52 -10h-19q-2 2 -4 2q-3 2 -29 8zM78 688q37 37 77 32q34 -3 63 -36q44 -46 67 -130q6 -22 18 -105q0 -2 5 -19q4 -7 4 -11q1 -5 0 -8
q-3 -11 -14 -13q-8 -2 -14 1l-5 4q-7 7 -19 23q-93 -63 -157 -50q-32 7 -52 29t-26.5 50.5t1.5 57t28 47.5q49 48 133 18q23 -8 66 -42q-32 92 -61 125q-21 21 -40 24q-24 2 -50 -23q-5 -5 -12.5 -5t-12.5 5.5t-5 13t6 12.5z" />
    <glyph glyph-name="guillemotleft" unicode="&#xab;" horiz-adv-x="450" 
d="M232 435q-1 -2 -29 -27l-60 -55l-60 -53l-21 -18q9 -14 15 -20q17 -22 52 -55l60 -55l41 -40q4 -5 4 -12.5t-5.5 -12.5t-13 -4.5t-12.5 5.5q-6 7 -39 36l-61 57q-35 35 -54 57q-11 15 -18 26q-8 16 -5 28l3 6l3 4q0 1 -2 -1v0l2 1l7 7l19 18l60 54l61 55q29 25 31 27
q6 5 13.5 4t12 -7t3.5 -13.5t-7 -11.5zM407 427l-27 -25q-20 -21 -28 -28l-25 -23q-17 -15 -31 -26l-28 -23q-3 -1 -13 -7l-9 -10l14 -16q18 -20 55 -53l40 -37l38 -36q16 -14 20 -19q5 -5 5 -13t-5 -13t-12.5 -5t-13.5 5q-5 5 -21 19l-38 35l-39 37l-55 56q-12 12 -19 21
q-4 5 -5 9q-5 9 -3 17q3 15 19 27q4 3 12 7q6 4 8 6l27.5 20.5t29.5 26t23.5 22t29 27.5t26.5 25q6 5 13 5t12 -5.5t5 -13t-5 -12.5z" />
    <glyph glyph-name="logicalnot" unicode="&#xac;" horiz-adv-x="463" 
d="M58 323h33h62h75h105q23 -1 35 -1q7 -1 11 -1q3 -1 6 -1q5 -1 9 -4q10 -9 16 -34q4 -18 8 -45q0 -1 6 -75q1 -7 -4 -12.5t-12.5 -6.5t-13 4t-6.5 13q-6 70 -6 73q-3 25 -6 41q-2 3 -5 12q-18 0 -39 1h-104h-75h-62h-35q-7 0 -12 5.5t-5 13t5.5 12.5t13.5 5z" />
    <glyph glyph-name="registered" unicode="&#xae;" horiz-adv-x="531" 
d="M255 672q-75 -10 -126 -103q-50 -93 -55 -221q-4 -128 43 -216q51 -94 145 -98q90 -4 149.5 82.5t65.5 211.5q3 83 -18 155t-72.5 124t-123.5 63q-2 2 -8 2zM263 711h4q67 -11 118 -49t79.5 -92.5t42 -117t10.5 -127.5q-7 -136 -71 -230q-73 -107 -185 -101
q-118 6 -179 119q-52 97 -48 238q5 135 60 236q62 116 159 125q5 0 10 -1zM200 482l1 -46q33 1 52 3q62 9 73 36q4 8 -1 18q-11 25 -52 19q-36 -5 -73 -30zM214 400q25 -37 51 -71l88 -105q5 -5 4 -12t-6.5 -12.5t-12.5 -4.5t-13 7q-44 50 -87 105l-31 37l9 -141
q1 -7 -4.5 -12.5t-12.5 -6.5t-12.5 4.5t-6.5 12.5q-15 243 -17 294q0 7 5 12.5t14 6.5q42 27 85 34q69 10 92 -41q10 -24 1 -46q-20 -47 -102 -57q-13 -2 -44 -4z" />
    <glyph glyph-name="macron" unicode="&#xaf;" horiz-adv-x="353" 
d="M34 676q46 -1 135 4q107 6 137 7q8 0 13.5 -5t5.5 -12.5t-5 -13t-12 -5.5q-29 -1 -137 -7q-87 -5 -139 -4q-7 0 -12 5.5t-5 13t5.5 12.5t13.5 5z" />
    <glyph glyph-name="degree" unicode="&#xb0;" horiz-adv-x="331" 
d="M257 674q7 -5 8 -11q17 -58 5.5 -126.5t-50.5 -117.5q-21 -25 -51 -39t-60 -13q-33 2 -57 22t-33 58q-13 57 12.5 120.5t69.5 106.5q47 46 91 45q41 -1 65 -45zM232 640q-13 43 -40 43q-29 1 -66 -35q-39 -37 -60.5 -92t-11.5 -101q12 -50 57 -52q21 -1 43 9.5t37 30.5
q31 37 42 88.5t1 103.5q-1 3 -2 5z" />
    <glyph glyph-name="plusminus" unicode="&#xb1;" horiz-adv-x="500" 
d="M187 364q-80 -20 -129 -44q-7 -3 -14.5 -1t-10.5 9t-1 14t9 10q58 28 146 48q-1 88 -3 120q0 8 4.5 13t12.5 6t13.5 -4t5.5 -13q3 -39 3 -116q41 7 94 14t64 9q8 1 14 -3.5t7 -12t-3.5 -13t-11.5 -6.5l-68 -10q-57 -7 -96 -14q2 -137 37 -219q89 14 167 14q8 0 13 -5
t5 -13t-5 -13t-13 -5q-63 0 -132 -9.5t-112 -19t-130 -31.5q-7 -2 -13.5 2t-8.5 11t2 13t11 8q115 29 179 41q-33 86 -36 220z" />
    <glyph glyph-name="uni00B2" unicode="&#xb2;" horiz-adv-x="362" 
d="M77 623q17 20 54 42.5t70 31.5q46 12 71 -7q30 -23 17 -81q-10 -49 -90 -146q-44 -52 -108 -118q38 0 56 1q168 1 175 1q8 0 13 -5t5 -13t-5 -13t-13 -5q-7 0 -175 -1q-48 -1 -71 -1q-14 1 -22 1q-5 0 -7 0.5t-3 0.5l-6 2q-5 3 -8 10q-5 13 3 23q4 5 12 9q8 5 7 5h3
q60 58 116 126q75 90 83 131q6 29 -3 45q-14 7 -40 0q-29 -8 -61 -27t-46 -36q-5 -5 -12 -6t-13 4t-6.5 12.5t4.5 13.5z" />
    <glyph glyph-name="uni00B3" unicode="&#xb3;" horiz-adv-x="365" 
d="M53 649q14 22 42 39.5t59 25.5q20 4 41.5 4.5t40.5 -11t30 -34.5q19 -44 -21 -86q-11 -12 -44 -36q81 -29 117 -92q36 -64 9 -112q-22 -41 -82 -62q-51 -16 -112.5 -15t-101.5 18q-7 3 -9.5 10.5t0.5 14t10 9t13 0.5q34 -15 87.5 -16t100.5 13q48 17 63 44q17 32 -9 78
q-34 60 -95 75q-20 4 -41 4h-13h-5h-3q-9 3 -12 7q-6 8 -4.5 17.5t7.5 14.5t19 7q3 1 8 2.5t7 1.5l8 3q37 19 56 39q24 24 13 47q-14 34 -69 20q-26 -7 -48.5 -21t-31.5 -28q-4 -6 -11.5 -7.5t-13.5 2.5t-7.5 11.5t2.5 12.5z" />
    <glyph glyph-name="acute" unicode="&#xb4;" horiz-adv-x="200" 
d="M140 722q-54 -72 -97 -159q-3 -7 -10 -9t-14 1t-9 10t1 14q44 90 101 165q5 6 12 7t13 -3.5t7 -12t-4 -13.5z" />
    <glyph glyph-name="uni00B5" unicode="&#xb5;" horiz-adv-x="437" 
d="M277 66q-59 -89 -126 -71q-41 10 -84 72l-30 -143q-1 -8 -7 -12t-13.5 -2.5t-11.5 7.5t-2 13q4 25 21.5 110.5t25 126.5t19 111t16 126.5t4.5 108.5q0 8 5 13t13 5t13 -5t5 -13q0 -141 -45 -378q13 -47 34 -73.5t45 -32.5q23 -6 48.5 11t48.5 63q18 37 28.5 79t14.5 95
t5 87.5t1 94.5v20q0 8 5 13t13 5t13 -5t5 -13v-23q0 -76 -1.5 -120t-12 -112t-32.5 -124q42 -52 76 -79q6 -4 7 -11.5t-3.5 -13.5t-12 -7t-13.5 4q-33 26 -72 73z" />
    <glyph glyph-name="paragraph" unicode="&#xb6;" horiz-adv-x="464" 
d="M296 339q36 -3 74 -2l4 120q1 29 0 99q-1 27 -1 48q-26 41 -77 59q6 -132 0 -324zM260 344q6 195 0 323q-90 0 -137 -36.5t-53 -89.5q-7 -54 30 -105t114 -79q17 -6 46 -13zM260 308q-35 7 -57 15q-88 31 -132.5 93t-35.5 129q7 69 65 113.5t151 44.5q72 0 122 -41
q12 14 21 13q8 -1 12.5 -6t4.5 -13q-1 -20 -2 -43q1 -5 0 -11q0 -16 1 -45q1 -72 0 -102q-6 -194 5 -427q0 -6 -5 -11.5t-12.5 -6.5t-13 4.5t-5.5 13.5q-7 144 -9 273q-38 -1 -74 2q-6 -204 -6 -286q0 -8 -5.5 -13t-13 -5t-12.5 5t-5 13q0 81 6 291z" />
    <glyph glyph-name="periodcentered" unicode="&#xb7;" horiz-adv-x="130" 
d="M59 375q0 -8 -5 -13t-13 -5t-13 5t-5 13t5 13t13 5t13 -5t5 -13z" />
    <glyph glyph-name="cedilla" unicode="&#xb8;" horiz-adv-x="128" 
d="M88 37q-8 -46 -29.5 -80.5t-59.5 -66.5q-5 -5 -12.5 -4t-12.5 6.5t-4.5 13t6.5 12.5q33 27 51.5 56t24.5 69q1 7 7 11.5t13.5 3.5t11.5 -7.5t4 -13.5z" />
    <glyph glyph-name="uni00B9" unicode="&#xb9;" horiz-adv-x="141" 
d="M73 677q0 -55 5 -165t5 -165q0 -8 -5 -13t-13 -5t-13 5t-5 13q0 55 -5 165t-5 165q0 8 5 13t13 5t13 -5t5 -13z" />
    <glyph glyph-name="ordmasculine" unicode="&#xba;" horiz-adv-x="300" 
d="M201 662l-4 4q-12 0 -16 -2q-25 -7 -49.5 -43t-36.5 -82q-11 -49 -4 -84.5t33 -48.5q37 -19 65 2q29 20 42 70q12 45 4.5 96.5t-34.5 87.5zM232 681q32 -44 40 -104.5t-7 -106.5q-16 -63 -55 -92q-46 -33 -102 -4q-28 14 -42.5 44.5t-13.5 63.5t8 66q13 52 42.5 95.5
t67.5 55.5q8 3 21 3q14 9 26 -2q14 -4 15 -19z" />
    <glyph glyph-name="guillemotright" unicode="&#xbb;" horiz-adv-x="434" 
d="M82 482q2 -4 15 -17l32 -34q20 -21 34 -37l50 -55q13 -13 18 -20q4 -5 5 -7q4 -7 5 -12q0 -12 -7 -27q-6 -10 -18 -25q-19 -23 -52 -57l-96 -89q-6 -5 -13.5 -4t-12.5 6.5t-4.5 13t6.5 12.5l95 87q32 32 49 54q8 10 16 22q-8 12 -18 23l-49 54l-35 37l-33 36
q-12 13 -15 16q-4 5 -3.5 12.5t6.5 12.5t13.5 4t11.5 -6zM229 485l105 -93l61 -56l20 -20q4 -3 6 -5t2.5 -3l1.5 -3q3 -5 3 -9.5t-2 -8.5l-4 -5q-3 -4 -6 -10l-21 -22l-65 -64q-101 -99 -109 -110q-5 -5 -12.5 -6t-13.5 4t-6.5 12.5t4.5 13.5q7 9 112 112l64 63l18 20
l-17 14l-61 56l-103 93q-6 4 -6.5 11.5t4.5 13t12 6.5t13 -4z" />
    <glyph glyph-name="onequarter" unicode="&#xbc;" horiz-adv-x="700" 
d="M531 148l2 72q5 93 5 141l-93 -118l-77 -93h25q34 -3 91 -3q19 0 47 1zM73 694q2 -68 -4 -183q-7 -136 -7 -182q0 -8 -5 -13t-12.5 -5t-13 5t-5.5 13q0 51 7 183q6 115 4 180q0 8 5.5 13.5t12.5 5.5t12.5 -5t5.5 -12zM26 62l140 198l163 232l144 193q5 6 12.5 7t13 -3.5
t6.5 -12t-4 -13.5l-144 -193l-163 -232l-138 -196q-4 -7 -11.5 -8t-13.5 3.5t-7.5 11.5t2.5 13zM576 421q0 -56 -7 -204l-2 -67q41 1 79 3q8 1 13.5 -4.5t6 -12.5t-4.5 -12.5t-12 -6.5q-40 -2 -84 -5q0 -55 1 -95q0 -8 -4.5 -13.5t-12.5 -5.5t-13.5 5t-5.5 12q-1 40 -1 98
q-28 -2 -44 -2q-59 0 -96 3q-21 2 -35 5q-19 4 -27 14q-4 5 -4 13q0 2 1 4q2 2 3 5l1 2q2 3 6 8l19 24l63 77q100 120 121 156q3 2 4 6q5 11 17 11q8 0 13 -5t5 -13z" />
    <glyph glyph-name="onehalf" unicode="&#xbd;" horiz-adv-x="630" 
d="M73 694q2 -68 -4 -183q-7 -136 -7 -182q0 -8 -5 -13t-12.5 -5t-13 5t-5.5 13q0 51 7 183q6 115 4 180q0 8 5.5 13.5t12.5 5.5t12.5 -5t5.5 -12zM26 62l140 198l163 232l144 193q5 6 12.5 7t13 -3.5t6.5 -12t-4 -13.5l-144 -193l-163 -232l-138 -196q-4 -7 -11.5 -8
t-13.5 3.5t-7.5 11.5t2.5 13zM382 300q37 36 88 60q34 16 58 13q35 -4 44 -43q8 -35 -25 -94q-24 -44 -70 -103q-28 -36 -80 -94q31 0 42 1q112 2 141 2q8 0 13 -5t5 -13t-5 -13t-13 -5q-28 0 -141 -2q-56 -1 -58 -1h-19q-3 0 -5 0.5l-4 1t-4 2.5q-6 3 -8 9t-1 10q1 2 1 4
l2 2q0 1 1 2.5t2 1.5l7 8l24 26q41 46 71 85q45 57 67 98q27 47 22 70q-1 4 -3.5 9t-10.5 5v0q-13 2 -38 -10q-45 -21 -77 -53q-5 -5 -12.5 -5t-13 5t-5.5 13t5 13z" />
    <glyph glyph-name="threequarters" unicode="&#xbe;" horiz-adv-x="840" 
d="M672 148l2 72q5 93 5 141l-93 -118l-77 -93h25q34 -3 91 -3q19 0 47 1zM167 62l139 198l164 232l144 193q5 6 12 7t13 -3.5t7 -12t-4 -13.5l-144 -193l-163 -232l-138 -196q-4 -7 -11.5 -8t-14 3.5t-7.5 11.5t3 13zM717 421q0 -56 -7 -204l-2 -67q41 1 79 3
q8 1 13.5 -4.5t6 -12.5t-4.5 -12.5t-12 -6.5q-40 -2 -84 -5q0 -55 1 -95q0 -8 -4.5 -13.5t-12.5 -5.5t-13.5 5t-5.5 12q-1 40 -1 98q-28 -2 -44 -2q-59 0 -96 3q-21 2 -35 5q-19 4 -27 14q-4 5 -4 13q0 2 1 4q2 2 3 5l1 2q2 3 6 8l19 24l63 77q99 120 121 156q3 2 4 6
q5 11 17 11q8 0 13 -5t5 -13zM43 655q50 33 95 50q78 28 117 -6q21 -20 19 -47q-1 -20 -18 -42q-11 -15 -41 -41q57 -23 76 -73q10 -22 8.5 -50.5t-18.5 -49.5q-7 -10 -17 -18.5t-18.5 -14.5t-21.5 -11.5t-21 -8t-24.5 -5t-22.5 -4t-23.5 -2t-21.5 -0.5h-23h-19q-8 0 -13 5
t-5 13t5 13t13 5q39 0 56 0.5t46.5 4.5t48.5 15t33 30q20 25 5 66q-16 41 -49 48q-29 5 -39 1q-23 -14 -42 -21q-4 0 -5 -1h-1q-4 -1 -9 1q-8 2 -10 11q-3 8 0 14q2 3 5 5q2 2 3.5 3t7.5 4q16 8 19 10l40 27q33 23 49 45q10 13 11 24q0 10 -8 17q-21 19 -80 -2
q-42 -14 -89 -45q-5 -4 -12.5 -2.5t-11.5 7.5t-2.5 13.5t8.5 11.5z" />
    <glyph glyph-name="questiondown" unicode="&#xbf;" horiz-adv-x="343" 
d="M333 88l-25 -20l-24 -19q-8 -6 -21.5 -14.5t-28.5 -15.5q-34 -16 -70 -19t-70 8q-34 14 -53.5 45t-16.5 76q4 59 53 108q14 14 45 38q44 34 47 37q52 43 71 85q25 57 4 140q-1 7 2.5 13t10.5 8t13.5 -2t8.5 -11q24 -94 -6 -163q-22 -50 -82 -99q-3 -2 -47 -36
q-27 -21 -42 -36q-40 -39 -42 -84q-4 -65 47 -84q51 -20 111 8q14 7 25 14l18.5 12t22.5 17.5t27 21.5q6 5 13 4t11.5 -7t3.5 -13.5t-6 -11.5zM277 666q0 -8 -5 -13t-13 -5t-13 5t-5 13t5 13t13 5t13 -5t5 -13z" />
    <glyph glyph-name="Agrave" unicode="&#xc0;" horiz-adv-x="551" 
d="M113 274q157 -30 318 -15q-11 61 -22 108q-27 120 -51 188q-29 81 -54 98q-16 10 -32 3q-16 -8 -35 -33q-21 -30 -51 -99q-48 -115 -73 -250zM107 235q-15 -105 -18 -222q0 -8 -6 -13.5t-14 -5.5t-14 6t-6 15q3 121 18 229l-14 3q-7 2 -11.5 9t-2.5 15t9 12t16 2h11
q25 139 73 255q31 72 56 106t51 46q36 17 70 -5q37 -24 71 -118q26 -73 52 -193l23 -112l23 3q9 1 15.5 -4t8 -13t-3.5 -15t-13 -8l-23 -2l15 -83l13 -70l8 -44q2 -8 -2.5 -15t-12.5 -8.5t-15 3t-8 12.5q-4 17 -9 45l-13 71q-8 44 -14 83q-168 -16 -333 16zM215 808
q57 -17 169 -70q6 -3 9 -10t0 -13.5t-10 -9t-15 0.5q-117 53 -163 67q-7 3 -10.5 9.5t-1 13.5t9 10.5t12.5 1.5z" />
    <glyph glyph-name="Aacute" unicode="&#xc1;" horiz-adv-x="548" 
d="M113 274q157 -30 318 -15q-11 61 -22 108q-27 120 -51 188q-29 81 -54 98q-16 10 -32 3q-16 -8 -35 -33q-21 -30 -51 -99q-48 -115 -73 -250zM107 235q-15 -105 -18 -222q0 -8 -6 -13.5t-14 -5.5t-14 6t-6 15q3 121 18 229l-14 3q-7 2 -11.5 9t-2.5 15t9 12t16 2h11
q25 139 73 255q31 72 56 106t51 46q36 17 70 -5q37 -24 71 -118q26 -73 52 -193l23 -112l23 3q9 1 15.5 -4t8 -13t-3.5 -15t-13 -8l-23 -2l15 -83l13 -70l8 -44q2 -8 -2.5 -15t-12.5 -8.5t-15 3t-8 12.5q-4 17 -9 45l-13 71q-8 44 -14 83q-168 -16 -333 16zM195 749
q98 49 152 67q7 2 13.5 -1t9 -10t-1 -14t-10.5 -8q-52 -19 -148 -66q-7 -3 -14 -1t-10 9t-1 14t10 10z" />
    <glyph glyph-name="Acircumflex" unicode="&#xc2;" horiz-adv-x="545" 
d="M113 274q157 -30 318 -15q-11 61 -22 108q-27 120 -51 188q-29 81 -54 98q-16 10 -32 3q-16 -8 -35 -33q-21 -30 -51 -99q-48 -115 -73 -250zM107 235q-15 -105 -18 -222q0 -8 -6 -13.5t-14 -5.5t-14 6t-6 15q3 121 18 229l-14 3q-7 2 -11.5 9t-2.5 15t9 12t16 2h11
q25 139 73 255q31 72 56 106t51 46q36 17 70 -5q37 -24 71 -118q26 -73 52 -193l23 -112l23 3q9 1 15.5 -4t8 -13t-3.5 -15t-13 -8l-23 -2l15 -83l13 -70l8 -44q2 -8 -2.5 -15t-12.5 -8.5t-15 3t-8 12.5q-4 17 -9 45l-13 71q-8 44 -14 83q-168 -16 -333 16zM169 722l35 44
l27 34q28 34 50 35q25 2 54 -32q12 -15 66 -88q4 -6 3 -13.5t-7 -12t-13.5 -3.5t-12.5 7q-53 74 -64 87q-10 11 -23 20q-13 -9 -26 -23q-6 -9 -26 -35l-34 -44q-6 -5 -13 -6t-13 4t-6.5 12.5t3.5 13.5z" />
    <glyph glyph-name="Atilde" unicode="&#xc3;" horiz-adv-x="551" 
d="M113 274q157 -30 318 -15q-11 61 -22 108q-27 120 -51 188q-29 81 -54 98q-16 10 -32 3q-16 -8 -35 -33q-21 -30 -51 -99q-48 -115 -73 -250zM107 235q-15 -105 -18 -222q0 -8 -6 -13.5t-14 -5.5t-14 6t-6 15q3 121 18 229l-14 3q-7 2 -11.5 9t-2.5 15t9 12t16 2h11
q25 139 73 255q31 72 56 106t51 46q36 17 70 -5q37 -24 71 -118q26 -73 52 -193l23 -112l23 3q9 1 15.5 -4t8 -13t-3.5 -15t-13 -8l-23 -2l15 -83l13 -70l8 -44q2 -8 -2.5 -15t-12.5 -8.5t-15 3t-8 12.5q-4 17 -9 45l-13 71q-8 44 -14 83q-168 -16 -333 16zM163 737
q33 73 67 82q26 8 60 -23q26 -22 37 -23q21 -1 50 39q5 6 12.5 7t13.5 -3.5t7 -12t-3 -13.5q-41 -57 -83 -53q-23 3 -57 33q-16 13 -25 15q-21 -7 -46 -64q-3 -6 -10 -8.5t-14 0t-9.5 10t0.5 14.5z" />
    <glyph glyph-name="Adieresis" unicode="&#xc4;" horiz-adv-x="554" 
d="M113 274q157 -30 318 -15q-11 61 -22 108q-27 120 -51 188q-29 81 -54 98q-16 10 -32 3q-16 -8 -35 -33q-21 -30 -51 -99q-48 -115 -73 -250zM107 235q-15 -105 -18 -222q0 -8 -6 -13.5t-14 -5.5t-14 6t-6 15q3 121 18 229l-14 3q-7 2 -11.5 9t-2.5 15t9 12t16 2h11
q25 139 73 255q31 72 56 106t51 46q36 17 70 -5q37 -24 71 -118q26 -73 52 -193l23 -112l23 3q9 1 15.5 -4t8 -13t-3.5 -15t-13 -8l-23 -2l15 -83l13 -70l8 -44q2 -8 -2.5 -15t-12.5 -8.5t-15 3t-8 12.5q-4 17 -9 45l-13 71q-8 44 -14 83q-168 -16 -333 16zM239 775
q0 -8 -5 -13t-13 -5t-13 5t-5 13t5 13t13 5t13 -5t5 -13zM374 775q0 -8 -5 -13t-13 -5t-13 5t-5 13t5 13t13 5t13 -5t5 -13z" />
    <glyph glyph-name="Aring" unicode="&#xc5;" horiz-adv-x="548" 
d="M113 274q157 -30 318 -15q-11 61 -22 108q-27 120 -51 188q-29 81 -54 98q-16 10 -32 3q-16 -8 -35 -33q-21 -30 -51 -99q-48 -115 -73 -250zM107 235q-15 -105 -18 -222q0 -8 -6 -13.5t-14 -5.5t-14 6t-6 15q3 121 18 229l-14 3q-7 2 -11.5 9t-2.5 15t9 12t16 2h11
q25 139 73 255q31 71 56 106q11 14 32 36q-67 26 -68 69q0 33 30.5 54.5t75.5 21.5q53 0 81 -21q30 -21 24 -55t-56 -61q43 -37 73 -121q26 -73 52 -193l23 -112l23 3q9 1 15.5 -4t8 -13t-3.5 -15t-13 -8l-23 -2l15 -83l13 -70l8 -44q2 -8 -2.5 -15t-12.5 -8.5t-15 3
t-8 12.5q-4 17 -9 45l-13 71q-8 44 -14 83q-168 -16 -333 16zM264 717q25 0 44 7.5t27 16t9.5 18t-10.5 18.5q-18 14 -60 14q-24 0 -40.5 -7.5t-23 -16t-6.5 -16.5q0 -5 4 -10.5t15 -13t32 -12.5q6 2 9 2z" />
    <glyph glyph-name="AE" unicode="&#xc6;" horiz-adv-x="839" 
d="M112 265q156 -25 319 -6q-11 61 -22 108q-27 120 -51 188q-29 81 -54 98q-16 10 -32 3q-16 -8 -35 -33q-21 -30 -51 -99q-49 -118 -74 -259zM106 226q-14 -101 -17 -213q0 -8 -6 -13.5t-14 -5.5t-14 6t-6 15q3 114 16 218q-27 6 -46 11q-8 2 -12.5 9t-2.5 15t9 12t15 2
l44 -10q26 147 76 268q31 72 56 106t51 46q24 11 49 4q50 -5 167 -5q121 0 173 -4q8 -1 13 -6.5t4.5 -13t-6.5 -12.5t-13 -4q-51 4 -171 4q-62 -1 -115 2q24 -44 40 -88q26 -73 53 -193l21 -108q58 -1 150.5 1.5t132.5 2.5q8 0 13 -5t5 -13t-5 -13t-13 -5q-41 0 -129.5 -2.5
t-146.5 -1.5q7 -42 18.5 -105t18.5 -93q130 2 282 2q8 0 13 -5t5 -13t-5 -13t-13 -5q-166 0 -297 -3q-13 0 -18 14q-4 4 -5 9q-4 17 -9 46l-13 72l-16 82q-169 -21 -332 6z" />
    <glyph glyph-name="Ccedilla" unicode="&#xc7;" 
d="M373 592q-27 47 -59 61q-24 12 -54 1q-58 -21 -111 -109q-33 -56 -56.5 -143.5t-21.5 -165.5q3 -88 41 -136q42 -54 128 -53q71 1 133 41l14 10l12 10q7 6 15 14l12 12q4 4 13 14l12 14l12 16q9 10 12 13q6 7 14.5 8t14.5 -4.5t7 -14t-5 -14.5q-2 -3 -13.5 -16.5t-15 -18
t-13.5 -15.5t-16.5 -17.5t-16 -15t-19 -16t-18.5 -13.5q-71 -46 -154 -47h-11q-10 -57 -43.5 -93t-82.5 -51q-7 -2 -13.5 1.5t-8.5 10.5t1.5 13.5t10.5 9.5q38 11 64 38t36 75q-74 15 -112 64q-46 59 -50 159q-3 85 22 177.5t62 153.5q60 101 131 127q45 16 86.5 -3.5
t74.5 -76.5q4 -7 2 -15t-9 -12t-15 -2t-12 9z" />
    <glyph glyph-name="Egrave" unicode="&#xc8;" horiz-adv-x="531" 
d="M406 644q-31 3 -166 -3q-64 -3 -104 -7q-18 -2 -37 -6l-3 -28l-7 -93l-10 -136q47 5 86 8l88 7q49 4 76 6q8 1 14 -4.5t7 -14t-4.5 -14.5t-14.5 -7q-239 -20 -253 -22q-3 -13 -5 -37.5t-2.5 -32t-1.5 -28.5t-0.5 -31.5t1 -27.5t3 -30.5t6.5 -25.5q26 -85 172 -82
q60 1 122 15q63 15 106 34q8 2 15.5 -1t10.5 -10.5t0 -15.5t-10 -11q-46 -18 -112.5 -34t-130.5 -17q-35 -1 -66 4t-61.5 16.5t-52 34t-31.5 55.5q-8 28 -10.5 65t-1.5 63.5t4.5 69.5t4.5 57l11 150l8 93l2 30q1 6 1 10v3v1q0 -3 1 -2v6q1 2 6 7q4 4 13 7q5 1 14 3
q14 3 38 5q39 5 105 8q142 7 173 3q9 -1 14 -7.5t4 -15t-7.5 -13.5t-14.5 -4zM163 819q88 -44 151 -70q6 -3 9 -10t0 -13.5t-9.5 -9.5t-13.5 -1q-64 27 -155 72q-6 3 -8 10t1 14t10 9t15 -1z" />
    <glyph glyph-name="Eacute" unicode="&#xc9;" 
d="M415 644q-31 3 -166 -3q-64 -3 -104 -7q-18 -2 -37 -6l-3 -28l-7 -93l-10 -136q47 5 86 8l88 7q49 4 76 6q8 1 14 -4.5t7 -14t-4.5 -14.5t-14.5 -7q-239 -20 -253 -22q-3 -13 -5 -37.5t-2.5 -32t-1.5 -28.5t-0.5 -31.5t1 -27.5t3 -30.5t6.5 -25.5q26 -85 172 -82
q60 1 122 15q63 15 106 34q8 2 15.5 -1t10.5 -10.5t0 -15.5t-10 -11q-46 -18 -112.5 -34t-130.5 -17q-35 -1 -66 4t-61.5 16.5t-52 34t-31.5 55.5q-8 28 -10.5 65t-1.5 63.5t4.5 69.5t4.5 57l11 150l8 93l2 30q1 6 1 10v3v1q0 -3 1 -2v6q1 2 6 7q4 4 13 7q5 1 14 3
q14 3 38 5q39 5 105 8q142 7 173 3q9 -1 14 -7.5t4 -15t-7.5 -13.5t-14.5 -4zM173 749q12 6 71 41q46 26 75 40q7 3 14.5 0.5t10 -9t0 -13.5t-8.5 -10q-26 -11 -72 -38l-74 -43q-6 -3 -13 -1t-10.5 8.5t-1.5 13.5t9 11z" />
    <glyph glyph-name="Ecircumflex" unicode="&#xca;" horiz-adv-x="528" 
d="M403 644q-31 3 -166 -3q-64 -3 -104 -7q-18 -2 -37 -6l-3 -28l-7 -93l-10 -136q47 5 86 8l88 7q49 4 76 6q8 1 14 -4.5t7 -14t-4.5 -14.5t-14.5 -7q-239 -20 -253 -22q-3 -13 -5 -37.5t-2.5 -32t-1.5 -28.5t-0.5 -31.5t1 -27.5t3 -30.5t6.5 -25.5q26 -85 172 -82
q60 1 122 15q63 15 106 34q8 2 15.5 -1t10.5 -10.5t0 -15.5t-10 -11q-46 -18 -112.5 -34t-130.5 -17q-35 -1 -66 4t-61.5 16.5t-52 34t-31.5 55.5q-8 28 -10.5 65t-1.5 63.5t4.5 69.5t4.5 57l11 150l8 93l2 30q1 6 1 10v3v1q0 -3 1 -2v6q1 2 6 7q4 4 13 7q5 1 14 3
q14 3 38 5q39 5 105 8q142 7 173 3q9 -1 14 -7.5t4 -15t-7.5 -13.5t-14.5 -4zM111 753l54 73l33 42q7 8 12 13q3 3 6 5l5 3q5 3 12 1q16 -4 30 -21l6 -8l4 -6l5 -5q56 -56 77 -88q4 -6 2.5 -13.5t-7.5 -11.5t-13.5 -2.5t-11.5 7.5q-21 31 -73 82l-21 27l-37 -47l-53 -71
q-5 -7 -12.5 -8t-13.5 3.5t-7 11.5t3 13z" />
    <glyph glyph-name="Edieresis" unicode="&#xcb;" horiz-adv-x="537" 
d="M412 644q-31 3 -166 -3q-64 -3 -104 -7q-18 -2 -37 -6l-3 -28l-7 -93l-10 -136q47 5 86 8l88 7q49 4 76 6q8 1 14 -4.5t7 -14t-4.5 -14.5t-14.5 -7q-239 -20 -253 -22q-3 -13 -5 -37.5t-2.5 -32t-1.5 -28.5t-0.5 -31.5t1 -27.5t3 -30.5t6.5 -25.5q26 -85 172 -82
q60 1 122 15q63 15 106 34q8 2 15.5 -1t10.5 -10.5t0 -15.5t-10 -11q-46 -18 -112.5 -34t-130.5 -17q-35 -1 -66 4t-61.5 16.5t-52 34t-31.5 55.5q-8 28 -10.5 65t-1.5 63.5t4.5 69.5t4.5 57l11 150l8 93l2 30q1 6 1 10v3v1q0 -3 1 -2v6q1 2 6 7q4 4 13 7q5 1 14 3
q14 3 38 5q39 5 105 8q142 7 173 3q9 -1 14 -7.5t4 -15t-7.5 -13.5t-14.5 -4zM221 775q0 -8 -5 -13t-13 -5t-13 5t-5 13t5 13t13 5t13 -5t5 -13zM325 775q0 -8 -5 -13t-13 -5t-13 5t-5 13t5 13t13 5t13 -5t5 -13z" />
    <glyph glyph-name="Igrave" unicode="&#xcc;" horiz-adv-x="161" 
d="M101 674q4 -75 4.5 -170t-0.5 -147t-5 -180t-5 -154q0 -8 -6 -13.5t-14 -5.5t-14 6t-6 15l5 153q4 124 5 177.5t0.5 147t-4.5 169.5q0 8 5.5 14t14 7t14.5 -5t6 -14zM25 822q27 -19 78.5 -48t64.5 -37q7 -4 9 -11t-2 -13t-11 -8t-13 2l-66.5 37.5t-78.5 45.5
q-7 5 -8.5 12t2.5 13.5t11.5 8t13.5 -1.5z" />
    <glyph glyph-name="Iacute" unicode="&#xcd;" horiz-adv-x="145" 
d="M100 674q4 -75 4.5 -170t-0.5 -147t-5 -180t-5 -154q0 -8 -6 -13.5t-14.5 -5.5t-14 6t-5.5 15l5 153q4 124 5 177.5t0.5 147t-4.5 169.5q-1 8 4.5 14t14 7t14.5 -5t7 -14zM-12 729l61 56q38 37 61 55q6 5 13.5 4t12 -6.5t4 -13t-6.5 -12.5q-17 -13 -60 -54
q-42 -39 -62 -55q-6 -6 -13 -5t-12 6.5t-4.5 13t6.5 11.5z" />
    <glyph glyph-name="Icircumflex" unicode="&#xce;" horiz-adv-x="173" 
d="M102 674q4 -75 4.5 -170t-0.5 -147t-5 -180t-5 -154q0 -8 -6 -13.5t-14 -5.5t-14 6t-6 15l5 153q4 124 5 177.5t0.5 147t-4.5 169.5q0 8 5.5 14t14 7t14.5 -5t6 -14zM-13 729q27 68 47 96q26 36 55 31q23 -3 50 -37q10 -13 56 -77q5 -6 3.5 -13t-7.5 -11.5t-13.5 -3.5
t-12.5 8q-44 62 -53 73q-15 19 -30 28q-11 -8 -18 -18q-18 -25 -44 -90q-2 -6 -9.5 -9t-14 -0.5t-9.5 9.5t0 14z" />
    <glyph glyph-name="Idieresis" unicode="&#xcf;" horiz-adv-x="145" 
d="M99 674q4 -75 4.5 -170t-0.5 -147t-5 -180t-5 -154q0 -8 -6 -13.5t-14.5 -5.5t-14 6t-5.5 15l5 153q4 124 5 177.5t0.5 147t-4.5 169.5q-1 8 5 14t14 7t14 -5t7 -14zM56 769q0 -8 -5 -13t-13 -5t-13 5t-5 13t5 13t13 5t13 -5t5 -13zM150 771q0 -8 -5 -13t-13 -5t-13 5
t-5 13t5 13t13 5t13 -5t5 -13z" />
    <glyph glyph-name="Eth" unicode="&#xd0;" horiz-adv-x="588" 
d="M64 301q-27 2 -70 6q-7 1 -12 6.5t-4.5 13t6.5 12.5t14 4q36 -4 66 -6q-3 103 -3 159v16v32v39q0 34 1 54q0 11 1 18v8t1 5q3 7 11 11q7 4 16 2q6 -1 14 -3q10 -2 27 -7l25 -10q17 -6 19 -6q60 -19 128 -60q67 -40 123 -92q139 -132 131 -262q-10 -149 -193 -204
q-106 -32 -290 -32q-8 0 -14 6t-6 14q0 10 10 19q5 88 1 222zM106 301v-34q4 -129 0 -222q157 3 248 29q155 47 164 169q7 113 -119 230q-53 50 -116 88q-64 38 -120 55q-1 1 -17 6.5t-26 9.5l-19 7v-57v-38v-32v-16q0 -56 3 -160q47 3 82 11q7 2 13.5 -2t8.5 -11t-2 -13
t-11 -8q-39 -10 -89 -12z" />
    <glyph glyph-name="Ntilde" unicode="&#xd1;" horiz-adv-x="566" 
d="M48 26q0 45 -1.5 149.5t-0.5 182.5q0 74 5 149q5 72 7 96q1 14 1 19q1 3 1 7v1q1 2 1 4q0 1 1 3l5 5q8 7 18 4q6 -1 10 -7q2 -1 2.5 -2.5t2.5 -4.5l1 -5q4 -7 7 -20l19 -58l12 -40q7 -24 11.5 -37.5t5.5 -17.5q38 -107 93 -194t137 -165q19 -18 47 -31q20 -9 41 -7v8
q4 8 7 22q6 24 12 64q8 64 10 115q3 84 3 142q0 118 -27 282q-1 8 4 15t13 8t15 -4t8 -13q27 -167 27 -288q0 -60 -3 -144q-2 -52 -11 -119q-6 -42 -13 -69q-4 -16 -8 -26q-6 -15 -14 -23q-28 -23 -80 0q-34 15 -59 38q-85 82 -143 172.5t-96 202.5q-2 5 -27 86
q-7 -121 -7 -194.5t1.5 -165.5t1.5 -140q0 -8 -6 -14t-14 -6t-14 6t-6 14zM117 716q39 82 86 85q13 1 29.5 -6.5t24.5 -13.5t22 -18q41 -34 57 -37q30 -5 64 45q5 7 12 8t13.5 -3.5t7.5 -11.5t-3 -13q-48 -68 -99 -61q-11 2 -21 6t-22.5 13.5l-16 12t-16.5 14.5
q-35 30 -50 29q-25 -1 -56 -65q-3 -7 -10 -9t-14 1t-9 10t1 14z" />
    <glyph glyph-name="Ograve" unicode="&#xd2;" horiz-adv-x="537" 
d="M261 672q-75 -10 -126 -103q-50 -93 -55 -221q-4 -128 43 -216q51 -94 145 -98q90 -4 149.5 82.5t65.5 211.5q3 83 -18 155t-72.5 124t-123.5 63q-2 2 -8 2zM269 711h4q67 -11 118 -49t79.5 -92.5t42 -117t10.5 -127.5q-7 -136 -71 -230q-73 -107 -185 -101
q-118 6 -179 119q-52 97 -48 238q5 135 60 236q62 116 159 125q5 0 10 -1zM169 819q83 -14 174 -60q7 -3 9 -10.5t-1 -14t-10.5 -8.5t-14.5 1q-84 44 -162 56q-8 1 -12.5 7t-3.5 13.5t7.5 12t13.5 3.5z" />
    <glyph glyph-name="Oacute" unicode="&#xd3;" horiz-adv-x="531" 
d="M255 672q-75 -10 -126 -103q-50 -93 -55 -221q-4 -128 43 -216q51 -94 145 -98q90 -4 149.5 82.5t65.5 211.5q3 83 -18 155t-72.5 124t-123.5 63q-2 2 -8 2zM263 711h4q67 -11 118 -49t79.5 -92.5t42 -117t10.5 -127.5q-7 -136 -71 -230q-73 -107 -185 -101
q-118 6 -179 119q-52 97 -48 238q5 135 60 236q62 116 159 125q5 0 10 -1zM182 773q25 11 75 40q49 28 78 41q6 2 13 -0.5t10 -9t0.5 -14t-9.5 -10.5q-24 -10 -74 -38q-53 -30 -77 -41q-7 -3 -14 -0.5t-10 9t-0.5 13.5t8.5 10z" />
    <glyph glyph-name="Ocircumflex" unicode="&#xd4;" 
d="M264 672q-75 -10 -126 -103q-50 -93 -55 -221q-4 -128 43 -216q51 -94 145 -98q90 -4 149.5 82.5t65.5 211.5q3 83 -18 155t-72.5 124t-123.5 63q-2 2 -8 2zM272 711h4q67 -11 118 -49t79.5 -92.5t42 -117t10.5 -127.5q-7 -136 -71 -230q-73 -107 -185 -101
q-118 6 -179 119q-52 97 -48 238q5 135 60 236q62 116 159 125q5 0 10 -1zM154 769q7 8 47 59l27 35l9 11l2 3v0l4 4q0 -5 1 -5q0 7 -1 6t0 -1q4 3 8 4q11 2 24 -6q8 -5 18 -14q14 -15 35 -42l34 -46q17 -24 23 -29q5 -5 4 -12.5t-6.5 -13t-13 -4.5t-12.5 6q-6 7 -24 33
l-33 44q-20 25 -40 45l-31 -40q-40 -53 -46.5 -59.5t-13.5 -7.5t-12.5 4.5t-6.5 13t4 12.5z" />
    <glyph glyph-name="Otilde" unicode="&#xd5;" 
d="M264 672q-75 -10 -126 -103q-50 -93 -55 -221q-4 -128 43 -216q51 -94 145 -98q90 -4 149.5 82.5t65.5 211.5q3 83 -18 155t-72.5 124t-123.5 63q-2 2 -8 2zM272 711h4q67 -11 118 -49t79.5 -92.5t42 -117t10.5 -127.5q-7 -136 -71 -230q-73 -107 -185 -101
q-118 6 -179 119q-52 97 -48 238q5 135 60 236q62 116 159 125q5 0 10 -1zM138 761q23 58 54 74q27 14 63 -2l26 -15q19 -13 23 -15q23 -13 36 -10q6 1 11 2.5t10.5 5.5t7.5 6.5t9.5 11t10.5 11.5q4 5 11.5 5.5t13 -4.5t6 -12.5t-4.5 -12.5q0 -1 -8 -10.5t-11 -11.5l-14 -11
q-8 -6 -16.5 -10t-19.5 -6q-25 -5 -61 16q-4 2 -24 14q-13 9 -22 13q-20 9 -31 3q-19 -10 -36 -54q-3 -8 -9.5 -10.5t-14 0t-10 9t-0.5 13.5z" />
    <glyph glyph-name="Odieresis" unicode="&#xd6;" horiz-adv-x="537" 
d="M261 672q-75 -10 -126 -103q-50 -93 -55 -221q-4 -128 43 -216q51 -94 145 -98q90 -4 149.5 82.5t65.5 211.5q3 83 -18 155t-72.5 124t-123.5 63q-2 2 -8 2zM269 711h4q67 -11 118 -49t79.5 -92.5t42 -117t10.5 -127.5q-7 -136 -71 -230q-73 -107 -185 -101
q-118 6 -179 119q-52 97 -48 238q5 135 60 236q62 116 159 125q5 0 10 -1zM211 782q0 -8 -5 -13t-13 -5t-13 5t-5 13t5 13t13 5t13 -5t5 -13zM318 788q0 -8 -5 -13t-13 -5t-13 5t-5 13t5 13t13 5t13 -5t5 -13z" />
    <glyph glyph-name="multiply" unicode="&#xd7;" horiz-adv-x="329" 
d="M170 319l-107 -103q-5 -5 -12.5 -4.5t-12.5 6t-4.5 13t5.5 12.5q41 37 106 103q-52 54 -85 93q-5 5 -4.5 12.5t6 12.5t13.5 4t12 -6l82 -90l100 98q5 5 12.5 5t12.5 -5.5t5 -13t-6 -12.5l-98 -99l103 -107q5 -5 5 -12.5t-5.5 -12.5t-13 -5t-12.5 6z" />
    <glyph glyph-name="Oslash" unicode="&#xd8;" 
d="M450 530q-64 122 -178 140q-2 2 -8 2q-75 -10 -126 -103q-50 -93 -55 -221q-2 -61 13 -136q177 186 354 318zM463 496q-185 -140 -355 -324l18 -40q51 -94 145 -98q90 -4 149.5 82.5t65.5 211.5q3 82 -23 168zM272 711h4q67 -11 118 -49t79.5 -92.5t42 -117t10.5 -127.5
q-7 -136 -71 -230q-73 -107 -185 -101q-118 6 -179 119q-52 97 -48 238q5 135 60 236q62 116 159 125q5 0 10 -1z" />
    <glyph glyph-name="Ugrave" unicode="&#xd9;" horiz-adv-x="534" 
d="M94 676q0 -10 -2 -50.5t-2.5 -68.5t-1 -70t1 -83t4.5 -79q9 -112 35 -183q29 -81 78 -106q51 -26 103 2.5t85 87.5q59 111 77 268t-14 278q-2 8 2 15t12 9t15 -2t9 -12q35 -129 16 -293t-83 -281q-16 -31 -39.5 -57t-56 -46t-68 -21.5t-77.5 16.5q-62 32 -97 128
q-27 77 -37 194q-3 39 -4.5 80.5t-1 84.5t1 71.5t2.5 69.5t2 50q0 8 6.5 13.5t14.5 5.5t13.5 -6.5t5.5 -14.5zM188 795l55 -31l68 -37q29 -16 55 -32q6 -3 7.5 -10.5t-2 -14t-11 -8t-14.5 2.5q-25 16 -54 32l-67 36l-56 30q-6 4 -8 11t1.5 13.5t10.5 8.5t15 -1z" />
    <glyph glyph-name="Uacute" unicode="&#xda;" horiz-adv-x="528" 
d="M88 676q0 -10 -2 -50.5t-2.5 -68.5t-1 -70t1 -83t4.5 -79q9 -112 35 -183q29 -81 78 -106q51 -26 103 2.5t85 87.5q59 111 77 268t-14 278q-2 8 2 15t12 9t15 -2t9 -12q35 -129 16 -293t-83 -281q-16 -31 -39.5 -57t-56 -46t-68 -21.5t-77.5 16.5q-62 32 -97 128
q-27 77 -37 194q-3 39 -4.5 80.5t-1 84.5t1 71.5t2.5 69.5t2 50q0 8 6.5 13.5t14.5 5.5t13.5 -6.5t5.5 -14.5zM182 723q21 13 68 53q45 36 74 53q6 4 13 2t11 -8t2 -13t-8 -11q-26 -17 -68 -51q-52 -42 -71 -55q-6 -4 -13.5 -2.5t-11.5 7.5t-2.5 13.5t6.5 11.5z" />
    <glyph glyph-name="Ucircumflex" unicode="&#xdb;" horiz-adv-x="531" 
d="M91 676q0 -10 -2 -50.5t-2.5 -68.5t-1 -70t1 -83t4.5 -79q9 -112 35 -183q29 -81 78 -106q51 -26 103 2.5t85 87.5q59 111 77 268t-14 278q-2 8 2 15t12 9t15 -2t9 -12q35 -129 16 -293t-83 -281q-16 -31 -39.5 -57t-56 -46t-68 -21.5t-77.5 16.5q-62 32 -97 128
q-27 77 -37 194q-3 39 -4.5 80.5t-1 84.5t1 71.5t2.5 69.5t2 50q0 8 6.5 13.5t14.5 5.5t13.5 -6.5t5.5 -14.5zM125 752q8 11 91 105v3q0 1 3 6q11 17 27 17q6 0 12 -3l9 -7q6 -5 15 -15q16 -16 38 -44q41 -52 61 -82q4 -6 2.5 -13.5t-7.5 -11.5t-13.5 -2.5t-11.5 7.5
q-21 32 -59 79q-21 27 -53 60q0 -16 4 -16q-83 -96 -88.5 -103.5t-13 -8.5t-13.5 3.5t-7 12t4 13.5z" />
    <glyph glyph-name="Udieresis" unicode="&#xdc;" horiz-adv-x="528" 
d="M88 676q0 -10 -2 -50.5t-2.5 -68.5t-1 -70t1 -83t4.5 -79q9 -112 35 -183q29 -81 78 -106q51 -26 103 2.5t85 87.5q59 111 77 268t-14 278q-2 8 2 15t12 9t15 -2t9 -12q35 -129 16 -293t-83 -281q-16 -31 -39.5 -57t-56 -46t-68 -21.5t-77.5 16.5q-62 32 -97 128
q-27 77 -37 194q-3 39 -4.5 80.5t-1 84.5t1 71.5t2.5 69.5t2 50q0 8 6.5 13.5t14.5 5.5t13.5 -6.5t5.5 -14.5zM218 760q0 -8 -5 -13t-13 -5t-13 5t-5 13t5 13t13 5t13 -5t5 -13zM323 758q0 -8 -5 -13t-13 -5t-13 5t-5 13t5 13t13 5t13 -5t5 -13z" />
    <glyph glyph-name="Yacute" unicode="&#xdd;" horiz-adv-x="439" 
d="M92 683q-9 -62 -12.5 -98t-5 -89t8.5 -98t30 -83q26 -50 63 -67q38 -18 71 17q46 48 79 159q21 75 37 185v25q-1 25 10 39q4 7 14 8q16 2 22 -14q2 -4 2 -9q-1 -5 -2 -21q-2 -42 -2 -72q1 -107 3 -152q1 -35 6 -125.5t7 -155.5t2 -126q0 -8 -6 -14t-14 -6t-14 6t-6 14
q0 78 -15 419q-50 -142 -93 -188q-54 -56 -119 -26q-49 24 -81 86q-18 34 -28 77t-13 77t0 84.5t6 76.5t10 76q1 8 8 13.5t15 4.5t13 -8t4 -15zM173 731q9 5 59.5 37t77.5 47q7 4 14 2t10.5 -8.5t2 -13.5t-8.5 -10q-28 -16 -77 -48l-58 -36q-7 -4 -14.5 -2t-11 8t-1.5 13.5
t7 10.5z" />
    <glyph glyph-name="Thorn" unicode="&#xde;" horiz-adv-x="455" 
d="M57 106q-4 -55 -16 -183q-1 -7 -7 -12t-13 -4t-12 6.5t-4 13.5q11 113 18 199.5t12 190.5t3 203t-11 193q-1 8 4 13.5t12 6.5t13 -4t7 -12q7 -81 10 -182q60 27 116.5 38t106.5 6q68 -8 106 -45q42 -44 36 -122q-9 -99 -153 -200q-53 -36 -113.5 -64.5t-114.5 -41.5z
M61 143q108 33 203 99q61 42 97.5 86.5t40.5 85.5q5 63 -26 95q-29 29 -84 34q-51 5 -110 -8q-59 -14 -98 -36q-3 0 -10 -7q1 -152 -13 -349z" />
    <glyph glyph-name="germandbls" unicode="&#xdf;" horiz-adv-x="504" 
d="M76 13q4 52 -9 151q-15 111 -13 161q0 6 1 16q1 49 3.5 77.5t9.5 72t22.5 79t39.5 65.5q27 34 65.5 51t76.5 12q41 -5 67.5 -34.5t30.5 -80.5q6 -79 -62 -134l-24 -22q39 -6 57 -13q46 -20 81 -58.5t49 -86.5q28 -92 -18 -163t-141 -81q-40 -4 -55 -1q-28 4 -53 28
q-5 5 -5 13t5 13t13 5t13 -5q16 -16 32 -19q12 -2 46 2q79 9 115.5 64.5t13.5 133.5q-12 39 -42 72t-68 49q-33 14 -68 9q-19 -4 -22 -4q-12 1 -19 10q-4 8 -2 19q1 11 12 20q5 5 17 13q31 22 40 29q53 44 49 105q-5 74 -67 82q-28 3 -57.5 -10t-51.5 -40q-19 -23 -31 -52.5
t-19 -51.5t-11 -63t-4.5 -58t-2.5 -65t12 -152.5t10 -159.5q-1 -8 -6 -13t-13 -4t-13 6t-4 13z" />
    <glyph glyph-name="agrave" unicode="&#xe0;" horiz-adv-x="431" 
d="M368 62q-21 57 -41.5 93.5t-53.5 65.5q-74 62 -132 44q-24 -8 -40.5 -28t-23.5 -48q-6 -27 1.5 -55t28 -53.5t63 -40.5t100.5 -14q53 1 98 36zM142 440q59 63 113 48q44 -11 78 -74q35 -66 68 -220q6 -25 13 -100q0 -1 0.5 -8t1.5 -16t2 -17q1 -14 1 -25q1 -5 0.5 -8
t-0.5 -6q-1 -3 -4 -6q-2 -5 -7 -7q-7 -2 -15 0q-9 4 -20 20q-46 -30 -102 -31q-66 -2 -115.5 16.5t-75.5 49t-36 67t-2 73.5t30.5 64.5t57.5 37.5q77 26 166 -51q27 -23 77 -92q-39 180 -72 242q-27 50 -55 57q-34 8 -77 -39q-5 -5 -12.5 -5.5t-13 4.5t-5.5 12.5t4 13.5z
M165 641q22 -9 44 -20.5t50.5 -28t38.5 -21.5q7 -4 9 -11t-1.5 -13.5t-10.5 -8.5t-14 1l-40 24l-49 26q-19 10 -40 18q-7 3 -10 10t-0.5 13.5t10 9.5t13.5 1z" />
    <glyph glyph-name="aacute" unicode="&#xe1;" horiz-adv-x="428" 
d="M365 62q-21 57 -41.5 93.5t-53.5 65.5q-74 62 -132 44q-24 -8 -40.5 -28t-23.5 -48q-6 -27 1.5 -55t28 -53.5t63 -40.5t100.5 -14q53 1 98 36zM139 440q59 63 113 48q44 -11 78 -74q35 -66 68 -220q6 -25 13 -100q0 -1 0.5 -8t1.5 -16t2 -17q1 -14 1 -25q1 -5 0.5 -8
t-0.5 -6q-1 -3 -4 -6q-2 -5 -7 -7q-7 -2 -15 0q-9 4 -20 20q-46 -30 -102 -31q-66 -2 -115.5 16.5t-75.5 49t-36 67t-2 73.5t30.5 64.5t57.5 37.5q77 26 166 -51q27 -23 77 -92q-39 180 -72 242q-27 50 -55 57q-34 8 -77 -39q-5 -5 -12.5 -5.5t-13 4.5t-5.5 12.5t4 13.5z
M154 572l68 35q48 26 71 37q7 3 14 1t10 -9t1 -14t-10 -10q-21 -10 -68 -36q-45 -24 -70 -36q-8 -3 -15 -0.5t-10 9t0 13.5t9 10z" />
    <glyph glyph-name="acircumflex" unicode="&#xe2;" horiz-adv-x="428" 
d="M365 62q-21 57 -41.5 93.5t-53.5 65.5q-74 62 -132 44q-24 -8 -40.5 -28t-23.5 -48q-6 -27 1.5 -55t28 -53.5t63 -40.5t100.5 -14q53 1 98 36zM139 440q59 63 113 48q44 -11 78 -74q35 -66 68 -220q6 -25 13 -100q0 -1 0.5 -8t1.5 -16t2 -17q1 -14 1 -25q1 -5 0.5 -8
t-0.5 -6q-1 -3 -4 -6q-2 -5 -7 -7q-7 -2 -15 0q-9 4 -20 20q-46 -30 -102 -31q-66 -2 -115.5 16.5t-75.5 49t-36 67t-2 73.5t30.5 64.5t57.5 37.5q77 26 166 -51q27 -23 77 -92q-39 180 -72 242q-27 50 -55 57q-34 8 -77 -39q-5 -5 -12.5 -5.5t-13 4.5t-5.5 12.5t4 13.5z
M118 550l69 82q14 17 21 23q13 12 26.5 12t27.5 -12q8 -6 22 -23q59 -71 74 -87q5 -5 4.5 -12.5t-6 -13t-13 -4.5t-12.5 6l-75 88q-8 11 -21 21q-11 -10 -19 -21q-47 -56 -73 -83q-5 -6 -12 -6t-12.5 5t-5.5 12.5t5 12.5z" />
    <glyph glyph-name="atilde" unicode="&#xe3;" horiz-adv-x="428" 
d="M365 62q-21 57 -41.5 93.5t-53.5 65.5q-74 62 -132 44q-24 -8 -40.5 -28t-23.5 -48q-6 -27 1.5 -55t28 -53.5t63 -40.5t100.5 -14q53 1 98 36zM139 440q59 63 113 48q44 -11 78 -74q35 -66 68 -220q6 -25 13 -100q0 -1 0.5 -8t1.5 -16t2 -17q1 -14 1 -25q1 -5 0.5 -8
t-0.5 -6q-1 -3 -4 -6q-2 -5 -7 -7q-7 -2 -15 0q-9 4 -20 20q-46 -30 -102 -31q-66 -2 -115.5 16.5t-75.5 49t-36 67t-2 73.5t30.5 64.5t57.5 37.5q77 26 166 -51q27 -23 77 -92q-39 180 -72 242q-27 50 -55 57q-34 8 -77 -39q-5 -5 -12.5 -5.5t-13 4.5t-5.5 12.5t4 13.5z
M82 574q40 70 81 74q27 2 67 -32q32 -27 48 -30q27 -4 61 40q6 5 13 6t13 -4t6.5 -12.5t-3.5 -13.5q-48 -57 -94 -52q-27 4 -67 39q-29 24 -41 23q-22 -1 -53 -56q-3 -6 -10.5 -8t-14 1.5t-8.5 10.5t2 14z" />
    <glyph glyph-name="adieresis" unicode="&#xe4;" horiz-adv-x="428" 
d="M365 62q-21 57 -41.5 93.5t-53.5 65.5q-74 62 -132 44q-24 -8 -40.5 -28t-23.5 -48q-6 -27 1.5 -55t28 -53.5t63 -40.5t100.5 -14q53 1 98 36zM139 440q59 63 113 48q44 -11 78 -74q35 -66 68 -220q6 -25 13 -100q0 -1 0.5 -8t1.5 -16t2 -17q1 -14 1 -25q1 -5 0.5 -8
t-0.5 -6q-1 -3 -4 -6q-2 -5 -7 -7q-7 -2 -15 0q-9 4 -20 20q-46 -30 -102 -31q-66 -2 -115.5 16.5t-75.5 49t-36 67t-2 73.5t30.5 64.5t57.5 37.5q77 26 166 -51q27 -23 77 -92q-39 180 -72 242q-27 50 -55 57q-34 8 -77 -39q-5 -5 -12.5 -5.5t-13 4.5t-5.5 12.5t4 13.5z
M195 586q0 -8 -5 -13t-13 -5t-13 5t-5 13t5 13t13 5t13 -5t5 -13zM301 585q0 -8 -5 -13t-13 -5t-13 5t-5 13t5 13t13 5t13 -5t5 -13z" />
    <glyph glyph-name="aring" unicode="&#xe5;" horiz-adv-x="428" 
d="M365 62q-21 57 -41.5 93.5t-53.5 65.5q-74 62 -132 44q-24 -8 -40.5 -28t-23.5 -48q-6 -27 1.5 -55t28 -53.5t63 -40.5t100.5 -14q53 1 98 36zM236 695q8 15 19 14q69 -3 79 -48q8 -36 -26 -80q-31 -40 -74 -60q-50 -24 -86 -1q-31 20 -26 59q3 29 27 60q36 42 87 56z
M139 440q59 63 113 48q44 -11 78 -74q35 -66 68 -220q6 -25 13 -100q0 -1 0.5 -8t1.5 -16t2 -17q1 -14 1 -25q1 -5 0.5 -8t-0.5 -6q-1 -3 -4 -6q-2 -5 -7 -7q-7 -2 -15 0q-9 4 -20 20q-46 -30 -102 -31q-66 -2 -115.5 16.5t-75.5 49t-36 67t-2 73.5t30.5 64.5t57.5 37.5
q77 26 166 -51q27 -23 77 -92q-39 180 -72 242q-27 50 -55 57q-34 8 -77 -39q-5 -5 -12.5 -5.5t-13 4.5t-5.5 12.5t4 13.5zM272 662q-23 3 -49 -10t-45 -36q-19 -22 -21 -42q-2 -16 10 -24q19 -12 52 4q35 16 61 49q24 31 19 49q0 5 -10 15q-12 -6 -17 -5z" />
    <glyph glyph-name="ae" unicode="&#xe6;" horiz-adv-x="731" 
d="M399 180q71 40 115 95q66 85 29 144q-28 47 -95 26q-30 -10 -56 -29.5t-37 -41.5l-6 -10q7 -22 31 -107q16 -56 19 -77zM365 67l-26 52l-23 46q-12 21 -17 28q-8 8 -26.5 24.5t-30.5 23.5q-68 42 -117 20q-42 -19 -51 -74q-7 -36 5.5 -70t50.5 -61t96 -30q47 -3 77 4
t62 37zM138 440q53 57 101 53q41 -4 74 -52q6 -9 18 -35q49 55 106 73q25 7 50 8t48.5 -11.5t38.5 -36.5q14 -23 17.5 -48t-3.5 -49t-18.5 -46.5t-27.5 -43.5q-57 -71 -137 -109q2 -15 3.5 -30.5t1.5 -18.5q0 -2 2 -10q34 -36 70 -44q44 -8 108 24q62 32 85 73q3 7 10.5 9
t13.5 -1.5t8.5 -10.5t-0.5 -13q-28 -52 -101 -89q-75 -38 -132 -26q-36 7 -73 38q-4 -2 -9 -1q-38 -37 -76.5 -46.5t-92.5 -6.5q-52 3 -91.5 23t-60.5 49t-29.5 62.5t-3.5 67.5t24 61t48 41q66 31 151 -22q14 -9 35 -27t30 -29q6 -7 51 -78l-32 111q-1 4 -6 22.5t-8 26.5
l-7 25q-5 17 -9 27.5l-9 24.5t-11.5 25.5l-12.5 21.5q-23 34 -47 35q-29 2 -69 -42q-6 -5 -13.5 -5.5t-12.5 4.5t-5.5 12.5t3.5 13.5z" />
    <glyph glyph-name="ccedilla" unicode="&#xe7;" horiz-adv-x="387" 
d="M282 412q-58 65 -111 34q-52 -31 -79 -126q-28 -95 -7 -176q21 -86 89 -103q52 -12 99 23q10 6 17.5 13t11 11.5l13 16t15.5 17.5q5 6 12 7t13 -4t6.5 -12.5t-4.5 -13.5q-3 -4 -14 -17.5t-15 -17.5l-13.5 -13t-20.5 -17q-43 -30 -97 -31q-29 -64 -66 -102q-5 -6 -12 -6
t-12.5 5t-5.5 12.5t5 12.5q28 30 55 83q-87 31 -112 126q-22 92 8 196q31 107 95 146q35 22 76 12.5t81 -52.5q5 -5 4.5 -12.5t-6 -13t-13 -4.5t-12.5 6z" />
    <glyph glyph-name="egrave" unicode="&#xe8;" horiz-adv-x="365" 
d="M68 192q80 32 131 81q51 50 71 109q16 46 -17 64q-36 19 -79 -9q-29 -18 -52 -56q-24 -37 -37 -87q-12 -45 -17 -102zM70 158q6 -26 9 -38q18 -49 70.5 -71t100.5 -2q9 3 16 6.5t17 10.5l12 10l16 14q12 9 15 12q6 5 13.5 4t12 -6.5t4 -13t-5.5 -12.5q-2 -1 -14.5 -11
l-17.5 -14l-15 -12q-11 -8 -20 -13t-18 -9q-44 -15 -87.5 -9t-80.5 34t-51 70q-28 80 4 195q34 121 105 165q28 17 58.5 20t56.5 -11t36 -42t-1 -65q-24 -72 -87 -128.5t-136 -83.5h-12zM122 640q32 -15 82 -45l81 -47q6 -3 8 -10.5t-1.5 -13.5t-11 -8t-13.5 2l-80 47
q-48 27 -80 43q-7 3 -9.5 10t1 14t10.5 9t13 -1z" />
    <glyph glyph-name="eacute" unicode="&#xe9;" horiz-adv-x="368" 
d="M68 192q80 32 131 81q51 50 71 109q16 46 -17 64q-36 19 -79 -9q-29 -18 -52 -56q-24 -37 -37 -87q-12 -45 -17 -102zM70 158q6 -26 9 -38q18 -49 70.5 -71t100.5 -2q9 3 16 6.5t17 10.5l12 10l16 14q12 9 15 12q6 5 13.5 4t12 -6.5t4 -13t-5.5 -12.5q-2 -1 -14.5 -11
l-17.5 -14l-15 -12q-11 -8 -20 -13t-18 -9q-44 -15 -87.5 -9t-80.5 34t-51 70q-28 80 4 195q34 121 105 165q28 17 58.5 20t56.5 -11t36 -42t-1 -65q-24 -72 -87 -128.5t-136 -83.5h-12zM134 555q112 72 140 88q6 3 13.5 1t11 -8.5t1 -13.5t-8.5 -11l-37 -20l-32 -21
l-35 -24l-34 -21q-6 -4 -13 -2.5t-11.5 7.5t-3 13.5t8.5 11.5z" />
    <glyph glyph-name="ecircumflex" unicode="&#xea;" horiz-adv-x="371" 
d="M68 192q80 32 131 81q51 50 71 109q16 46 -17 64q-36 19 -79 -9q-29 -18 -52 -56q-24 -37 -37 -87q-12 -45 -17 -102zM70 158q6 -26 9 -38q18 -49 70.5 -71t100.5 -2q9 3 16 6.5t17 10.5l12 10l16 14q12 9 15 12q6 5 13.5 4t12 -6.5t4 -13t-5.5 -12.5q-2 -1 -14.5 -11
l-17.5 -14l-15 -12q-11 -8 -20 -13t-18 -9q-44 -15 -87.5 -9t-80.5 34t-51 70q-28 80 4 195q34 121 105 165q28 17 58.5 20t56.5 -11t36 -42t-1 -65q-24 -72 -87 -128.5t-136 -83.5h-12zM87 543l41 68l27 40l10 15q7 8 13 11q21 11 52 -8q20 -12 45 -37q43 -43 63 -77
q4 -6 2 -13t-8.5 -11t-13.5 -2t-11 8q-18 29 -57 69q-22 23 -38 32q-4 4 -15 7q-8 -8 -13 -14q-10 -14 -25 -39l-41 -69q-4 -5 -11.5 -7t-13.5 1.5t-8 11t2 14.5z" />
    <glyph glyph-name="edieresis" unicode="&#xeb;" horiz-adv-x="368" 
d="M68 192q80 32 131 81q51 50 71 109q16 46 -17 64q-36 19 -79 -9q-29 -18 -52 -56q-24 -37 -37 -87q-12 -45 -17 -102zM70 158q6 -26 9 -38q18 -49 70.5 -71t100.5 -2q9 3 16 6.5t17 10.5l12 10l16 14q12 9 15 12q6 5 13.5 4t12 -6.5t4 -13t-5.5 -12.5q-2 -1 -14.5 -11
l-17.5 -14l-15 -12q-11 -8 -20 -13t-18 -9q-44 -15 -87.5 -9t-80.5 34t-51 70q-28 80 4 195q34 121 105 165q28 17 58.5 20t56.5 -11t36 -42t-1 -65q-24 -72 -87 -128.5t-136 -83.5h-12zM176 583q0 -8 -5.5 -13t-13 -5t-12.5 5t-5 13t5 13t12.5 5t13 -5t5.5 -13zM288 579
q0 -8 -5.5 -13t-13 -5t-12.5 5t-5 13t5 13t12.5 5t13 -5t5.5 -13z" />
    <glyph glyph-name="igrave" unicode="&#xec;" horiz-adv-x="127" 
d="M79 457q-4 -76 -1 -222q3 -158 1 -225q0 -7 -5.5 -12t-13 -5t-12.5 5.5t-5 13.5q2 64 -1 222q-3 147 1 223q0 8 5.5 13.5t13 4.5t12.5 -6.5t5 -11.5zM21 674q42 -55 79 -122q3 -6 1 -13t-9 -10.5t-14 -1.5t-11 9q-35 65 -75 116q-4 6 -3 13.5t6.5 12t13 3.5t12.5 -7z" />
    <glyph glyph-name="iacute" unicode="&#xed;" horiz-adv-x="127" 
d="M79 457q-4 -76 -1 -222q3 -158 1 -225q0 -7 -5.5 -12t-12.5 -5t-12.5 5.5t-5.5 13.5q2 64 -1 222q-3 147 1 223q1 8 6.5 13.5t13 4.5t12.5 -6.5t4 -11.5zM19 534q32 55 93 133q5 5 12.5 6t13.5 -3.5t6.5 -12.5t-3.5 -14q-61 -73 -89 -127q-4 -6 -11 -8t-14 1.5t-9 10.5
t1 14z" />
    <glyph glyph-name="icircumflex" unicode="&#xee;" horiz-adv-x="127" 
d="M78 457q-4 -76 -1 -222q3 -158 1 -225q0 -7 -5.5 -12t-12.5 -5t-12.5 5.5t-5.5 13.5q2 64 -1 222q-3 147 1 223q1 8 6.5 13.5t13 4.5t12.5 -6.5t4 -11.5zM-24 565l51 73q23 33 42 37q23 5 52 -23q15 -15 63 -72q4 -6 3.5 -13.5t-6.5 -12.5t-13.5 -4t-12.5 6
q-45 57 -59 70q-7 7 -19 16q-12 -12 -21 -24l-50 -73q-4 -7 -11.5 -8t-13.5 3.5t-7.5 11.5t2.5 13z" />
    <glyph glyph-name="idieresis" unicode="&#xef;" horiz-adv-x="127" 
d="M77 457q-4 -76 -1 -222q3 -158 1 -225q0 -7 -5.5 -12t-13 -5t-12.5 5.5t-5 13.5q2 64 -1 222q-3 147 1 223q1 8 6.5 13.5t12.5 4.5t12.5 -6.5t4.5 -11.5zM28 585q0 -8 -5 -13t-13 -5t-13 5t-5 13t5 13t13 5t13 -5t5 -13zM120 591q0 -8 -5 -13t-13 -5t-13 5t-5 13t5 13
t13 5t13 -5t5 -13z" />
    <glyph glyph-name="eth" unicode="&#xf0;" horiz-adv-x="467" 
d="M299 309q-101 -41 -143 -112q-14 -23 -18.5 -53.5t2.5 -56.5q16 -58 75 -51t97 54q61 79 -13 219zM200 437q-68 -63 -122 -94q-6 -4 -13 -2t-11 8t-2 13t8 11q51 31 113 88q-79 67 -136 83q-7 2 -11 8t-2 13t8.5 11t13.5 2q66 -17 153 -92q77 79 96 97q5 4 13 4
t12.5 -5.5t4.5 -13.5t-5 -13q-13 -11 -95 -93q46 -45 75 -88l15 -22q54 16 103 18q7 1 12.5 -4.5t6 -12.5t-4.5 -12.5t-13 -6.5q-37 -2 -85 -13q79 -159 6 -253q-46 -60 -119 -68q-46 -5 -75.5 17t-39.5 60q-10 35 -4.5 72.5t23.5 67.5q47 76 157 125l-12 11q-28 40 -70 84z
" />
    <glyph glyph-name="ntilde" unicode="&#xf1;" horiz-adv-x="443" 
d="M61 475q-1 -68 -1 -227q53 127 105 184q37 40 83 53q61 17 98 -32q43 -56 59 -213q12 -119 5 -225q-1 -7 -6.5 -12.5t-12.5 -4.5t-12.5 6.5t-4.5 12.5q6 103 -5 219q-14 147 -51 195q-23 29 -61 20q-34 -10 -64 -43q-66 -73 -99 -175q-31 -102 -31 -211v-1v-4v0l-2 -5
q-1 -4 -4 -6q-6 -5 -13 -5q-6 0 -11 4q-3 3 -5 8v1q-1 2 -1 1v2v1v1v1v14q-1 27 -1 35q-2 55 -2 119q0 238 1 289q0 7 5.5 12t13 5t12.5 -5.5t5 -13.5zM62 583q46 59 93 63q31 3 76 -22q41 -22 55 -22q26 -2 54 35q4 6 11.5 7t13.5 -3.5t7 -12t-4 -13.5q-39 -52 -84 -49
q-22 1 -70 27q-36 19 -56 18q-32 -4 -68 -50q-4 -6 -11.5 -7t-13.5 3.5t-7 12t4 13.5z" />
    <glyph glyph-name="ograve" unicode="&#xf2;" horiz-adv-x="390" 
d="M185 454q-7 0 -9 -2q-9 -2 -28 -16q-33 -24 -55.5 -90.5t-20.5 -137.5q2 -77 31 -123t84 -46q63 0 102 50.5t44 128.5q6 77 -21.5 142.5t-80.5 86.5q-7 4 -22 5q-1 0 -10 0.5t-14 1.5zM228 486l17 -5q66 -28 98 -103q33 -77 26 -163q-3 -40 -16 -78q-12 -36 -34 -66.5
t-56 -49t-76 -18.5q-39 0 -69.5 17.5t-47 48t-25 65t-9.5 73.5q-2 78 22.5 152.5t67.5 106.5q26 19 46 22q6 2 42 3q7 0 14 -5zM110 651l44 -34l52 -38l45 -33q6 -4 7 -11.5t-3.5 -13.5t-12 -7t-13.5 4l-45 33l-54 39q-24 18 -44 35q-5 4 -6 11.5t4 13t12.5 6.5t13.5 -5z
" />
    <glyph glyph-name="oacute" unicode="&#xf3;" horiz-adv-x="390" 
d="M188 454q-7 0 -9 -2q-9 -2 -28 -16q-33 -24 -55.5 -90.5t-20.5 -137.5q2 -77 31 -123t84 -46q63 0 102 50.5t44 128.5q6 77 -21.5 142.5t-80.5 86.5q-7 4 -22 5q-1 0 -10 0.5t-14 1.5zM231 486l17 -5q66 -28 98 -103q33 -77 26 -163q-3 -40 -16 -78q-12 -36 -34 -66.5
t-56 -49t-76 -18.5q-39 0 -69.5 17.5t-47 48t-25 65t-9.5 73.5q-2 78 22.5 152.5t67.5 106.5q26 19 46 22q6 2 42 3q7 0 14 -5zM100 548q28 17 69 50l69 56q6 5 13.5 4t12 -7t3.5 -13.5t-7 -11.5l-68 -55q-41 -35 -72 -54q-7 -4 -14 -2.5t-11 8t-2.5 13.5t7.5 12z" />
    <glyph glyph-name="ocircumflex" unicode="&#xf4;" horiz-adv-x="390" 
d="M191 454q-7 0 -9 -2q-9 -2 -28 -16q-33 -24 -55.5 -90.5t-20.5 -137.5q2 -77 31 -123t84 -46q63 0 102 50.5t44 128.5q6 77 -21.5 142.5t-80.5 86.5q-7 4 -22 5q-1 0 -10 0.5t-14 1.5zM234 486l17 -5q66 -28 98 -103q33 -77 26 -163q-3 -40 -16 -78q-12 -36 -34 -66.5
t-56 -49t-76 -18.5q-39 0 -69.5 17.5t-47 48t-25 65t-9.5 73.5q-2 78 22.5 152.5t67.5 106.5q26 19 46 22q6 2 42 3q7 0 14 -5zM85 545l50 80q11 16 18 23q12 12 25.5 14t26.5 -7q9 -7 23 -21l30 -35l34 -38q6 -5 5 -12.5t-6.5 -13t-13 -4.5t-12.5 6q-12 13 -33.5 38.5
t-30.5 33.5q-6 7 -18 19l-17 -22l-49 -81q-5 -6 -12 -7.5t-13.5 2.5t-8 11t1.5 14z" />
    <glyph glyph-name="otilde" unicode="&#xf5;" horiz-adv-x="390" 
d="M188 454q-7 0 -9 -2q-9 -2 -28 -16q-33 -24 -55.5 -90.5t-20.5 -137.5q2 -77 31 -123t84 -46q63 0 102 50.5t44 128.5q6 77 -21.5 142.5t-80.5 86.5q-7 4 -22 5q-1 0 -10 0.5t-14 1.5zM231 486l17 -5q66 -28 98 -103q33 -77 26 -163q-3 -40 -16 -78q-12 -36 -34 -66.5
t-56 -49t-76 -18.5q-39 0 -69.5 17.5t-47 48t-25 65t-9.5 73.5q-2 78 22.5 152.5t67.5 106.5q26 19 46 22q6 2 42 3q7 0 14 -5zM52 571q45 61 81 66q28 4 58 -24q26 -22 35 -24q21 -4 56 29q5 5 12.5 5t12.5 -5.5t5 -13t-6 -12.5q-46 -45 -85 -38q-21 3 -53 32
q-18 16 -29 16q-22 -4 -59 -53q-4 -6 -11.5 -7t-13.5 3.5t-7 12t4 13.5z" />
    <glyph glyph-name="odieresis" unicode="&#xf6;" horiz-adv-x="393" 
d="M185 454q-7 0 -9 -2q-9 -2 -28 -16q-33 -24 -55.5 -90.5t-20.5 -137.5q2 -77 31 -123t84 -46q63 0 102 50.5t44 128.5q6 77 -21.5 142.5t-80.5 86.5q-7 4 -22 5q-1 0 -10 0.5t-14 1.5zM228 486l17 -5q66 -28 98 -103q33 -77 26 -163q-3 -40 -16 -78q-12 -36 -34 -66.5
t-56 -49t-76 -18.5q-39 0 -69.5 17.5t-47 48t-25 65t-9.5 73.5q-2 78 22.5 152.5t67.5 106.5q26 19 46 22q6 2 42 3q7 0 14 -5zM163 591q0 -8 -5 -13t-13 -5t-13 5t-5 13t5 13t13 5t13 -5t5 -13zM278 590q0 -8 -5 -13t-13 -5t-13 5t-5 13t5 13t13 5t13 -5t5 -13z" />
    <glyph glyph-name="divide" unicode="&#xf7;" horiz-adv-x="387" 
d="M49 318q16 2 123 19t165 17q8 0 13 -5t5 -13t-5 -13t-13 -5q-57 0 -157.5 -16.5t-126.5 -19.5q-7 -1 -13.5 3.5t-7 12t4 13.5t12.5 7zM211 427q0 -8 -5 -13t-13 -5t-13 5t-5 13t5 13t13 5t13 -5t5 -13zM220 219q0 -8 -5 -13t-13 -5t-13 5t-5 13t5 13t13 5t13 -5t5 -13z
" />
    <glyph glyph-name="oslash" unicode="&#xf8;" horiz-adv-x="393" 
d="M314 356q-33 71 -83 91q-7 4 -22 5q-1 0 -10 0.5t-14 1.5q-7 0 -9 -2q-9 -2 -28 -16q-34 -24 -56 -91q-22 -65 -20 -137q1 -39 12 -88l217 228zM325 322l-222 -236q35 -47 84 -47q63 0 102 50.5t44 128.5q4 44 -8 104zM228 486l17 -5q66 -28 98 -103q33 -77 26 -163
q-3 -40 -16 -78q-12 -36 -34 -66.5t-56 -49t-76 -18.5q-39 0 -69.5 17.5t-47 48t-25 65t-9.5 73.5q-2 78 22.5 152.5t67.5 106.5q26 19 46 22q6 2 42 3q7 0 14 -5z" />
    <glyph glyph-name="ugrave" unicode="&#xf9;" horiz-adv-x="331" 
d="M76 474q0 -2 -2.5 -28t-3.5 -41l-3 -45q-2 -32 -2.5 -55t0 -53t2.5 -56q8 -89 35 -131q27 -45 79 -31q28 8 46 58t26 129q2 27 3.5 57t1.5 59v49q0 20 -0.5 46t-0.5 32q0 7 5 12.5t12.5 5.5t13 -5t5.5 -13q0 -5 0.5 -31t0.5 -47v-50q0 -30 -1.5 -60t-4.5 -58
q-8 -86 -26 -138q-27 -68 -73 -80q-76 -21 -119 45q-30 49 -39 148q-2 26 -2.5 57.5t0 55.5t2.5 55l3 48q1 15 3.5 41.5t2.5 27.5q1 7 6.5 12t13 4t12.5 -6.5t4 -13.5zM82 636q17 -12 55 -35t57 -37q6 -4 7 -12t-3.5 -14t-12 -7t-13.5 3q-16 12 -54 36q-38 23 -56 36
q-7 5 -8 12.5t3.5 13.5t11.5 7t13 -3z" />
    <glyph glyph-name="uacute" unicode="&#xfa;" horiz-adv-x="328" 
d="M76 474q0 -2 -2.5 -28t-3.5 -41l-3 -45q-2 -32 -2.5 -55t0 -53t2.5 -56q8 -89 35 -131q27 -45 79 -31q28 8 46 58t26 129q2 27 3.5 57t1.5 59v49q0 20 -0.5 46t-0.5 32q0 7 5 12.5t12.5 5.5t13 -5t5.5 -13q0 -5 0.5 -31t0.5 -47v-50q0 -30 -1.5 -60t-4.5 -58
q-8 -86 -26 -138q-27 -68 -73 -80q-76 -21 -119 45q-30 49 -39 148q-2 26 -2.5 57.5t0 55.5t2.5 55l3 48q1 15 3.5 41.5t2.5 27.5q1 7 6.5 12t13 4t12.5 -6.5t4 -13.5zM121 544q55 60 98 97q5 5 12 4t12.5 -6.5t4.5 -12.5t-7 -13q-42 -38 -92 -93q-5 -5 -12.5 -6t-13 4.5
t-6.5 13t4 12.5z" />
    <glyph glyph-name="ucircumflex" unicode="&#xfb;" horiz-adv-x="331" 
d="M76 474q0 -2 -2.5 -28t-3.5 -41l-3 -45q-2 -32 -2.5 -55t0 -53t2.5 -56q8 -89 35 -131q27 -45 79 -31q28 8 46 58t26 129q2 27 3.5 57t1.5 59v49q0 20 -0.5 46t-0.5 32q0 7 5 12.5t12.5 5.5t13 -5t5.5 -13q0 -5 0.5 -31t0.5 -47v-50q0 -30 -1.5 -60t-4.5 -58
q-8 -86 -26 -138q-27 -68 -73 -80q-76 -21 -119 45q-30 49 -39 148q-2 26 -2.5 57.5t0 55.5t2.5 55l3 48q1 15 3.5 41.5t2.5 27.5q1 7 6.5 12t13 4t12.5 -6.5t4 -13.5zM70 562l49 84q10 17 18 26q10 13 23 15q14 3 28 -7q10 -7 21 -22q9 -11 58 -83q4 -6 2.5 -13.5
t-7.5 -11.5t-13.5 -2.5t-11.5 7.5q-48 71 -56 80q-3 5 -17 19q-9 -18 -15 -27l-49 -85q-3 -5 -10.5 -7t-13.5 1.5t-8 11t2 14.5z" />
    <glyph glyph-name="udieresis" unicode="&#xfc;" horiz-adv-x="328" 
d="M76 474q0 -2 -2.5 -28t-3.5 -41l-3 -45q-2 -32 -2.5 -55t0 -53t2.5 -56q8 -89 35 -131q27 -45 79 -31q28 8 46 58t26 129q2 27 3.5 57t1.5 59v49q0 20 -0.5 46t-0.5 32q0 7 5 12.5t12.5 5.5t13 -5t5.5 -13q0 -5 0.5 -31t0.5 -47v-50q0 -30 -1.5 -60t-4.5 -58
q-8 -86 -26 -138q-27 -68 -73 -80q-76 -21 -119 45q-30 49 -39 148q-2 26 -2.5 57.5t0 55.5t2.5 55l3 48q1 15 3.5 41.5t2.5 27.5q1 7 6.5 12t13 4t12.5 -6.5t4 -13.5zM142 574q0 -8 -5 -13t-13 -5t-13 5t-5 13t5 13t13 5t13 -5t5 -13zM229 574q0 -8 -5 -13t-13 -5t-13 5
t-5 13t5 13t13 5t13 -5t5 -13z" />
    <glyph glyph-name="yacute" unicode="&#xfd;" horiz-adv-x="371" 
d="M109.5 464q-0.5 -10 -4.5 -47l-6 -53q-8 -82 -8 -139q0 -79 14 -122q15 -47 46 -52q46 -8 91 46q22 25 68 103q2 49 2 98.5t-0.5 103.5t-0.5 67q0 8 5 13t13 5t13 -5t5 -13q0 -11 0.5 -69.5t0 -110t-1.5 -99.5q-9 -199 -47 -271q-47 -88 -133 -104q-17 -4 -31.5 -4
t-27.5 3.5t-23.5 7.5t-22.5 12t-20.5 15l-20.5 17q-6 6 -6.5 13t4.5 12.5t12.5 6.5t12.5 -4q35 -31 58 -41t59 -4q68 14 106 86q24 45 39 184l-35 -46q-59 -68 -126 -58q-52 9 -73 76q-16 51 -16 134q0 59 9 143q1 17 5 52.5t4.5 45.5t6 15t13.5 4t12.5 -6t4 -15z
M168.5 529.5l18.5 12t21.5 16.5l17.5 15l20 19q16 14 20 18q5 5 12.5 4t12.5 -6.5t4.5 -13t-5.5 -11.5q-4 -3 -19 -17.5l-21 -20.5l-20 -15q-11 -10 -22.5 -18t-22.5 -14q-7 -4 -14 -2t-11 8t-2 13t10.5 12.5z" />
    <glyph glyph-name="thorn" unicode="&#xfe;" horiz-adv-x="449" 
d="M95 126q34 -27 58 -37.5t55 -10.5q82 1 129.5 57.5t48.5 132.5q0 73 -45 116q-50 48 -139 31q-71 -13 -102 -72l-4 -4q3 -114 -1 -213zM93 82q-5 -39 -10 -86q-10 -81 -11 -125q0 -7 -5.5 -12t-13 -5t-12.5 5.5t-5 13.5q1 43 11 128t12 125q2 57 2 121t-1.5 114.5
t-5 125.5t-6.5 115.5t-8 121.5q-1 7 4.5 12.5t12.5 6.5t12.5 -4.5t6.5 -12.5q14 -206 19 -327q50 43 101 52q106 19 170 -40q56 -54 56 -144q-1 -40 -14.5 -79t-39 -72t-67 -53t-93.5 -21q-54 -1 -115 40z" />
    <glyph glyph-name="ydieresis" unicode="&#xff;" horiz-adv-x="365" 
d="M109.5 464q-0.5 -10 -4.5 -47l-6 -53q-8 -82 -8 -139q0 -79 14 -122q15 -47 46 -52q46 -8 91 46q22 25 68 103q2 49 2 98.5t-0.5 103.5t-0.5 67q0 8 5 13t13 5t13 -5t5 -13q0 -11 0.5 -69.5t0 -110t-1.5 -99.5q-9 -199 -47 -271q-47 -88 -133 -104q-17 -4 -31.5 -4
t-27.5 3.5t-23.5 7.5t-22.5 12t-20.5 15l-20.5 17q-6 6 -6.5 13t4.5 12.5t12.5 6.5t12.5 -4q35 -31 58 -41t59 -4q68 14 106 86q24 45 39 184l-35 -46q-59 -68 -126 -58q-52 9 -73 76q-16 51 -16 134q0 59 9 143q1 17 5 52.5t4.5 45.5t6 15t13.5 4t12.5 -6t4 -15zM174 555
q0 -8 -5 -13t-13 -5t-13 5t-5 13t5 13t13 5t13 -5t5 -13zM265 552q0 -8 -5 -13t-13 -5t-13 5t-5 13t5 13t13 5t13 -5t5 -13z" />
    <glyph glyph-name="Amacron" unicode="&#x100;" horiz-adv-x="100" 
d="M56 730q0 -8 -5 -13t-13 -5t-13 5t-5 13t5 13t13 5t13 -5t5 -13z" />
    <glyph glyph-name="OE" unicode="&#x152;" horiz-adv-x="805" 
d="M258 672q-75 -10 -126 -103q-50 -93 -55 -221q-4 -128 43 -216q51 -94 145 -98q90 -4 149.5 82.5t65.5 211.5q3 83 -18 155t-72.5 124t-123.5 63q-2 2 -8 2zM271 711q73 0 220 9q161 10 221 10q8 0 13 -5t5 -13t-5 -13t-13 -5q-73 0 -220 -9q-64 -5 -126 -7
q82 -61 114 -133t40 -164q69 -5 204 9q8 1 13.5 -4t6.5 -12.5t-4 -13t-12 -6.5q-137 -13 -208 -9v-20q-7 -136 -71 -230q-20 -27 -61 -67q46 2 86.5 5.5t59.5 4.5q40 2 117 3q76 1 114 3q7 1 12.5 -4.5t6.5 -12.5t-4.5 -12.5t-12.5 -6.5q-37 -2 -116 -3q-75 -1 -114 -3
q-18 -1 -61 -4.5t-68 -5t-62 -1.5t-68 3h-14q-118 6 -179 119q-52 97 -48 238q5 135 60 236q62 116 159 125q5 0 10 -1h3h2z" />
    <glyph glyph-name="oe" unicode="&#x153;" horiz-adv-x="678" 
d="M185 454q-7 0 -9 -2q-9 -2 -28 -16q-33 -24 -55.5 -90.5t-20.5 -137.5q2 -77 31 -123t84 -46q63 0 102 50.5t44 128.5q6 77 -21.5 142.5t-80.5 86.5q-7 4 -22 5q-1 0 -10 0.5t-14 1.5zM364 190q72 25 116 87q27 40 37 82t-1 75q-9 29 -30 39q-19 8 -46 2t-54.5 -22
t-42.5 -35q-3 -2 -16 -8q51 -90 42 -196q0 -4 -5 -24zM307 55q-53 -52 -120 -52q-39 0 -69.5 17.5t-47 48t-25 65t-9.5 73.5q-2 78 22.5 152.5t67.5 106.5q26 19 46 22q6 2 42 3q7 0 14 -5l17 -5q31 -13 63 -47q27 30 59.5 50t64.5 26q40 9 70 -4q35 -16 49 -60
q13 -49 1.5 -96.5t-42.5 -91.5q-28 -42 -66.5 -70t-85.5 -35q-10 -37 -30 -68q47 -47 101.5 -57.5t106 11t82.5 70.5q5 7 12 8.5t13.5 -2.5t8 -11t-2.5 -14q-37 -58 -97.5 -84.5t-124.5 -15t-120 64.5z" />
    <glyph glyph-name="quoteleft" unicode="&#x2018;" horiz-adv-x="195" 
d="M162 723q-103 -59 -110 -169q-1 -7 -6.5 -12.5t-13 -4.5t-12.5 6.5t-4 12.5q3 65 37 115t91 82q6 4 13.5 2t11 -8t1.5 -13.5t-8 -10.5z" />
    <glyph glyph-name="quoteright" unicode="&#x2019;" horiz-adv-x="200" 
d="M144 736q0 -118 -109 -179q-6 -4 -13.5 -2t-11 8t-1.5 13.5t8 10.5q91 51 91 149q0 8 5 13t13 5t13 -5t5 -13z" />
    <glyph glyph-name="quotedblleft" unicode="&#x201c;" horiz-adv-x="300" 
d="M135 717q-81 -48 -96 -138q-2 -7 -8.5 -11.5t-13.5 -3t-11.5 7.5t-3.5 13q20 106 114 163q6 4 13.5 2t11.5 -8t2 -13.5t-8 -11.5zM237 701q-75 -52 -93 -136q-2 -7 -8.5 -11t-13 -2.5t-11 8t-2.5 13.5q21 97 107 158q6 4 13.5 3t12 -7t3 -13.5t-7.5 -12.5z" />
    <glyph glyph-name="quotedblright" unicode="&#x201d;" horiz-adv-x="300" 
d="M136 723q-2 -53 -31 -89q-30 -36 -83 -67q-6 -4 -13 -2t-11 8t-2 13t8 11q47 28 71 57t25 71q0 7 5.5 12t13 5t12.5 -5.5t5 -13.5zM245 718q-12 -54 -39 -94t-73 -83q-6 -5 -13.5 -4t-12.5 6.5t-4.5 13t5.5 12.5q43 38 67.5 73.5t34.5 83.5q1 7 7.5 11t13.5 2.5t11 -8
t3 -13.5z" />
    <glyph glyph-name="perthousand" unicode="&#x2030;" horiz-adv-x="729" 
d="M115 558l-4 -13q-4 -17 -5 -30q-4 -31 6 -42q13 -18 39 -5q27 15 39 40q17 35 -4 63q-19 26 -54 7q-4 -2 -11 -10zM95 592q10 13 20 18q31 16 57 10.5t43 -27.5q15 -21 17.5 -48t-10.5 -53q-16 -36 -54 -55q-14 -7 -27.5 -10t-29.5 2.5t-28 19.5q-18 24 -13 71q2 13 6 33
q-3 12 5 20l2 5q2 9 12 14zM554 125q-8 -40 -2.5 -60t19.5 -28q6 -3 15.5 -5t24 8t27.5 27q8 14 9.5 34t-3.5 39q-7 16 -17 22q-14 6 -33 -3q-11 -5 -24 -18zM517 121q-6 14 4 22q4 4 8 7.5t8.5 8.5t7.5 8q18 17 33 24q36 17 64 4q24 -12 35 -42q9 -25 7 -55q-3 -30 -17 -51
q-24 -36 -56 -46.5t-61 7.5q-23 14 -32 43q-10 30 -1 70zM323 134q-8 -40 -2.5 -60t19.5 -28q6 -3 15.5 -5t24 8t27.5 27q8 14 9.5 34t-3.5 39q-7 16 -17 22q-14 6 -33 -3q-11 -5 -24 -18zM286 130q-6 14 4 22q4 4 8 7.5t8.5 8.5t7.5 8q18 17 33 24q36 17 64 4
q24 -12 35 -42q9 -24 6 -55q-2 -31 -16 -51q-24 -36 -56 -46.5t-61 7.5q-23 14 -32 42q-10 30 -1 71zM14 23q130 275 527 673q5 5 13 5t13 -5t5 -13t-5 -13q-393 -393 -521 -663q-3 -6 -9.5 -8.5t-13.5 0.5t-9.5 10t0.5 14z" />
    <glyph glyph-name="Euro" unicode="&#x20ac;" horiz-adv-x="640" 
d="M44 415q52 -4 123 -2q26 87 59 143q61 101 132 127q44 16 86 -3.5t75 -76.5q4 -7 2 -15t-9.5 -12t-15.5 -2t-12 9q-26 47 -58 61q-25 12 -55 1q-57 -21 -110 -109q-26 -44 -51 -121l123 10q6 1 12 -4t6.5 -12.5t-4 -13t-12.5 -6.5l-136 -11q-15 -73 -16 -142q60 0 166 -3
q6 0 11.5 -5.5t5.5 -13t-5.5 -12.5t-13.5 -5q-102 3 -162 3q10 -72 39 -109q42 -54 128 -53q71 1 132 41l15 11l12 10q6 4 15 13l12 12q4 4 12 15l12 13l12 15q10 11 13 14q6 7 14 8t14.5 -4.5t7 -14t-4.5 -14.5q-2 -3 -13.5 -16.5t-15 -18t-14 -15.5l-16.5 -17.5t-16 -15
l-19 -16t-19 -13.5q-70 -46 -153 -47q-105 -1 -159 68q-38 48 -49 133q-57 -2 -99 -6q-8 -1 -14 4t-6.5 12.5t4.5 13t12 6.5q43 4 102 6q0 66 16 141q-70 -1 -117 3q-8 1 -13 6.5t-4.5 13t6.5 12.5t13 4z" />
    <glyph glyph-name="trademark" unicode="&#x2122;" horiz-adv-x="743" 
d="M306 284q-4 71 -30 206l-17 84l-5 26q-1 4 -1 10q-1 1 -1 -1v1v2v4l2 6q3 6 12 8q15 5 25 -7q4 -6 8 -17q1 -1 1.5 -4.5t0.5 -6.5l3 -5q7 -12 18 -27q57 -79 113 -73q39 3 68 53q17 29 39 98q6 16 15 53q3 13 5 18l3 9q4 5 9 7q10 4 19 -2q2 -1 4 -4t2 -4l1 -2l2 -5
q2 -6 4 -14l8 -38q3 -12 4 -25l5 -22q1 -7 1 -8q36 -153 90 -272q4 -7 1 -14.5t-9.5 -10t-13.5 0t-9 8.5q-56 120 -93 278q0 1 -10 44q-28 -83 -45 -113q-39 -66 -96 -71q-56 -5 -131 66q30 -162 34 -234q1 -7 -4 -12.5t-12.5 -6.5t-13 4.5t-6.5 12.5zM-31 583l85 48l101 58
l86 45q7 3 14 1t10.5 -9t1 -14t-8.5 -10q-50 -25 -123 -66l4 -8q3 -28 21 -152t25 -191q1 -8 -4 -13.5t-12 -6.5t-13 4t-7 12q-5 48 -12 102t-16.5 119l-16.5 117l-117 -66q-7 -4 -14 -2t-10.5 8.5t-1.5 13.5t8 10z" />
    <glyph glyph-name="uni3000" unicode="&#x3000;" horiz-adv-x="1000" 
 />
    <glyph glyph-name="uniF8FF" unicode="&#xf8ff;" horiz-adv-x="1045" 
d="M240 381v0v0zM246 135q18 22 28 42q22 41 11 57q-21 33 -88 34q-49 1 -97 -21q63 -81 100 -135q18 10 31 16q6 3 15 7zM543 4q-17 -25 -38 -43q-46 -39 -131 -71q-76 -27 -144 -36q-34 -4 -57 -2q-29 2 -40 15q-19 20 -10 49q6 19 25 42q29 33 68 58l-14 24
q-18 -5 -26 1.5t-8 20.5q1 9 7 22q-35 54 -101 137l-15 -15q-5 -6 -12.5 -6t-13 5t-5.5 12.5t5 12.5q2 1 18 21q-9 12 -8 19.5t7 11.5q5 5 11.5 4t17.5 -10q52 29 118 28q87 -1 119 -50q20 -32 -14 -103l47 7q70 7 123 -11q65 -23 80 -78q3 -11 2 -30l10 -5q6 -3 8 -10
t-2 -14q-7 -12 -27 -6zM523 54q-25 45 -62 58q-45 16 -110 10q-44 -4 -84 -18q-7 -7 -11 -12l-11 -11q-9 -10 -14 -19l17 -31q138 57 275 23zM156 -109q13 -3 20 -3q20 -2 50 2q65 8 135 34q79 28 121 64q12 10 29 32q-118 32 -246 -21q3 -22 -10 -28q-11 -5 -25 11
q-33 -23 -54 -48q-14 -16 -20 -30v-13zM505 317v-4q-4 4 -6.5 7.5t-3.5 4.5q-5 9 -7 16q-1 8 2 16q1 1 12 8q-38 40 -56 32.5t-22 -46.5q-7 -44 12 -83.5t51 -44.5q1 -2 12 -2q7 12 9 28q4 25 -3 68zM904 646q-14 17 -22 23q-15 12 -31 1q-58 -41 -46 -154q3 -21 58 -254
q-34 242 -27 275q13 54 68 109zM872 466h10q16 7 37 29q15 16 13 51q0 23 -12 67q-41 -48 -49 -84q-8 -37 1 -63zM545 276q0 -24 -1 -31q-3 -27 -15 -42q-17 -22 -46 -17q-54 10 -80 67q-22 49 -16 103q8 59 45 75q45 18 97 -43q8 -9 0 -25q7 -10 11 -21q1 -1 1.5 -3t0.5 -7
q1 -1 1 -2q21 -22 43 -35q12 -7 27 -9q11 22 8 54q-2 31 -9 54q-7 20 -23 47q-2 3 -5 8t-4 6q-2 5 -3 9t0 7q3 13 15 15q5 1 11 -1l2 -2q5 -3 14 -15l17 -22q27 -35 43 -54q26 -27 43 -33h9l5 10q2 7 4 32q2 27 1 41q0 7 -1 12l-2 10.5t-2 9t-4 10.5l-3 7q-1 4 -5.5 13
t-6.5 14l-8 10q-5 7 -7 13q-4 13 4 23q8 9 19 5q4 0 7 -2l5.5 -5.5l9.5 -9.5l20 -28q0 131 63 176q36 26 73 -1q11 -8 27 -29l38 27q7 4 14 2.5t11.5 -7.5t3 -13.5t-7.5 -11.5q-19 -12 -41 -29q20 -49 20 -91q1 -49 -22 -76q-26 -29 -49 -38t-81 26l75 -106q29 -41 43 -67
q8 -16 12 -26q2 -8 2 -13q0 -11 -9 -18q-21 -17 -47 0q-14 11 -30 34q-16 22 -36 62q-16 35 -45 120q-7 -79 -14 -92q-9 -20 -24 -27q-17 -6 -35 0q-16 6 -52 36q3 -65 -8 -87q-13 -25 -40 -24q-18 0 -39 12q-4 4 -24 13zM39 679l40 -59l47 -68q21 -31 43 -58l64 -82
q-2 71 -1 94q2 36 9.5 73.5t22.5 88t19 66.5q2 7 8.5 11t13.5 2t11 -8t2 -14q-5 -21 -19.5 -70t-22 -82.5t-8.5 -68.5q-1 -22 0 -67q0 -5 1.5 -9.5t3 -11.5t2.5 -14q6 -30 -7 -47q-7 -11 -19 -7q-5 0 -7 2l-8 6l-17 21q-29 32 -77 95q-21 26 -41 57l-48 71q-27 40 -41 59
q-5 6 -3.5 13t8 11.5t13.5 3.5t11 -8zM356 410q0 -8 -5 -13t-12.5 -5t-13 5t-5.5 13t5.5 13t13 5t12.5 -5t5 -13z" />
    </font>
</defs>
</svg>
