<?xml version="1.0" standalone="no"?>
<!DOCTYPE svg PUBLIC "-//W3C//DTD SVG 1.1//EN" "http://www.w3.org/Graphics/SVG/1.1/DTD/svg11.dtd" >
<svg xmlns="http://www.w3.org/2000/svg" width="100%" height="100%">
<metadata>
Created by FontXChange 20100429 at Mon Jan 28 21:50:35 2013
 By Colin Waddell
Darlin' Pop (c) MiffinFonts. 2013. All Rights Reserved
</metadata>
<defs>
<font id="Darlin'PopItalics" horiz-adv-x="1193" >
  <font-face 
    font-family="Darlin' Pop Italics"
    font-weight="400"
    font-style="italic"
    font-stretch="normal"
    units-per-em="2048"
    panose-1="2 0 5 0 0 0 0 0 0 0"
    ascent="1638"
    descent="-410"
    x-height="1008"
    cap-height="1413"
    bbox="-471.258 -598 2009 1716.05"
    underline-thickness="150"
    underline-position="-142"
    unicode-range="U+0020-F002"
  />
<missing-glyph horiz-adv-x="1024" 
d="M100 0l305 1434h824l-305 -1434h-824zM161 50h724l283 1334h-724zM569 1148q37 28 67 43q60 30 119 30q92 0 137.5 -47.5t28.5 -127.5q-10 -49 -43.5 -98.5t-114.5 -129.5q-80 -80 -127 -132t-57 -99q-8 -38 -4 -133h-32q-15 97 -4 148q16 76 127.5 218t127.5 217
q13 57 -13 90t-84 33q-38 0 -73 -17q-29 -15 -65 -40zM460 334l69 58q13 10 22 10q10 0 20 -11l43 -60q7 -11 5 -20q-2 -11 -15 -22l-69 -62q-17 -14 -24 -14q-11 0 -18 10l-46 71q-5 9 -3 18q2 10 16 22z" />
    <glyph glyph-name=".notdef" horiz-adv-x="1024" 
d="M100 0l305 1434h824l-305 -1434h-824zM161 50h724l283 1334h-724zM569 1148q37 28 67 43q60 30 119 30q92 0 137.5 -47.5t28.5 -127.5q-10 -49 -43.5 -98.5t-114.5 -129.5q-80 -80 -127 -132t-57 -99q-8 -38 -4 -133h-32q-15 97 -4 148q16 76 127.5 218t127.5 217
q13 57 -13 90t-84 33q-38 0 -73 -17q-29 -15 -65 -40zM460 334l69 58q13 10 22 10q10 0 20 -11l43 -60q7 -11 5 -20q-2 -11 -15 -22l-69 -62q-17 -14 -24 -14q-11 0 -18 10l-46 71q-5 9 -3 18q2 10 16 22z" />
    <glyph glyph-name=".null" horiz-adv-x="0" 
 />
    <glyph glyph-name="nonmarkingreturn" horiz-adv-x="508" 
 />
    <glyph glyph-name="space" unicode=" " horiz-adv-x="508" 
 />
    <glyph glyph-name="space" unicode="&#xa0;" horiz-adv-x="508" 
 />
    <glyph glyph-name="exclam" unicode="!" horiz-adv-x="470" 
d="M528 1436q33 0 27 -52l-205 -967q-17 -52 -50 -52q-38 0 -24 66l204 958q7 33 48 47zM219 251q13 0 59 -57h5q48 37 87 52q48 -18 35 -80q-22 -102 -158 -166h-19q-116 57 -92 171q30 80 83 80z" />
    <glyph glyph-name="quotedbl" unicode="&#x22;" horiz-adv-x="380" 
d="M436 1428q28 0 22 -44l-39 -188q-8 -36 -40 -36h-8q-22 10 -15 44l39 184q7 30 41 40zM549 1416q25 0 25 -36q-52 -220 -79 -220h-20q-21 16 -17 32q46 220 82 220z" />
    <glyph glyph-name="numbersign" unicode="#" horiz-adv-x="1389" 
d="M822 1428q34 -10 24 -55l-9 -42l-93 -422h257l98 464q9 39 49 55q41 0 25 -74l-93 -440h363q39 -8 33 -37q-7 -31 -68 -37q-90 0 -345 -4l-35 -166l342 9q33 -13 27 -41q-19 -37 -76 -37q-281 -4 -309 -4l-114 -537q-9 -45 -50 -60q-41 0 -26 69l111 523h-5
q-63 0 -258 -4l-61 -290q-19 -89 -57 -248q-5 -24 -45 -36q-37 0 -23 64l112 505h-5q-97 0 -299 -5q-39 8 -32 42q8 36 168 36q42 0 185 5l36 170h-14q-114 0 -318 -5q-21 0 -33 37q9 41 78 41h284l24 5l57 271q18 84 50 211q5 22 45 37zM727 831l-36 -170q47 5 70 5h73
q39 0 116 4l35 166h-5q-86 0 -253 -5z" />
    <glyph glyph-name="dollar" unicode="$" horiz-adv-x="1100" 
d="M804 1602q36 0 12 -112q-6 -53 -11 -77q436 -83 426 -130l-1 -9q-6 -27 -39 -36q-293 99 -402 99l-1 -5l-5 -40l-93 -504q-2 -9 176 -167q222 -208 185 -378q-31 -149 -206 -207q-68 -13 -129 -18l-164 14l-1 -5q-2 -30 -6 -49l-13 -63q-8 -34 -46 -45q-41 0 -13 130
l10 50q-287 64 -278 108q11 36 44 36q210 -68 247 -68l1 5l113 616q-299 248 -256 450q27 127 180 194q81 27 159 27h36l17 81q5 24 10 63q4 22 48 40zM422 1179q-28 -134 195 -333h9l92 495q-8 5 -13 5q-197 0 -247 -86q-25 -32 -36 -81zM672 684l-1 -4q-89 -485 -103 -572
q65 -13 159 -13h27q194 0 226 153q37 173 -308 436z" />
    <glyph glyph-name="percent" unicode="%" horiz-adv-x="1212" 
d="M532 1426q44 0 110 -110h14q137 101 187 101q80 -37 55 -152q5 0 3 -9q-32 -152 -236 -290q-46 -32 -99 -32h-5q-139 0 -201 248q1 46 9 83q55 161 163 161zM1329 1412h9q7 0 18 -23l-3 -14q-4 -21 -702 -818q-393 -470 -469 -539l-19 -4q-14 0 -25 32q30 52 435 511
q697 817 738 851q8 4 18 4zM821 492q34 0 101 -110h13q146 101 188 101q66 0 60 -152l-2 -9q-38 -176 -274 -313q-34 -9 -57 -9h-5q-141 0 -201 244q1 71 3 78q23 111 122 161q44 9 52 9z" />
    <glyph glyph-name="ampersand" unicode="&#x26;" horiz-adv-x="752" 
d="M569 1426q10 0 53 -51h9q80 46 98 46q32 0 33 -78q-16 -77 -146 -147q-19 -5 -38 -5q-75 0 -104 134l5 27q25 74 90 74zM557 1136h42q262 -19 253 -64l-2 -9q-6 -29 -43 -33q-137 33 -246 33h-5q-99 0 -140 -51q-40 -61 -52 -120q-15 -151 40 -151q89 32 127 32
q97 -20 84 -83q-35 -55 -104 -55q-21 0 -106 18q-45 -54 -52 -87l-11 -51q-25 -121 77 -138h42q95 0 199 28q24 0 34 -32q-11 -51 -175 -65q-59 -6 -71 -9q-153 0 -180 124q-5 62 0 111q11 51 68 142q-72 97 -44 230q72 230 265 230zM495 235q48 -51 58 -51q79 46 97 46
q39 0 34 -78q-17 -79 -146 -147q-19 -5 -33 -5q-82 0 -106 133q-2 7 2 28q14 67 94 74z" />
    <glyph glyph-name="quotesingle" unicode="'" horiz-adv-x="264" 
d="M437 1432q28 0 22 -44l-39 -188q-6 -28 -41 -40q-32 0 -20 56l37 176q6 28 41 40z" />
    <glyph glyph-name="parenleft" unicode="(" horiz-adv-x="621" 
d="M766 1424h27q12 -3 15 -31q-2 -10 -219 -229q-226 -266 -272 -479q-63 -298 214 -636l-5 -27q-6 -10 -36 -22q-58 42 -154 202q-142 241 -91 479v4q72 336 521 739z" />
    <glyph glyph-name="parenright" unicode=")" horiz-adv-x="573" 
d="M442 1436q38 0 146 -359q58 -265 18 -454l-3 -14q-70 -329 -429 -604q-9 0 -10 -5q-25 0 -29 36q12 22 155 150q193 203 243 437q64 301 -136 772l1 5q4 21 44 36z" />
    <glyph glyph-name="asterisk" unicode="*" horiz-adv-x="665" 
d="M642 1535q37 0 7 -139l-1 -22h4q152 148 171 150q15 -6 21 -22l-1 -7q-4 -16 -197 -202q-1 -2 148 -201q-2 -8 1 -8q-3 -16 -31 -29q-21 0 -113 128q-1 0 -20 22h-8l-1 -3q-7 -32 -22 -140q-3 -16 -35 -29q-37 0 -7 139l4 19q-3 7 -2 11h-7q-147 -147 -163 -147h-4
q-23 0 -19 29q3 12 197 202q1 6 -149 198l5 22q5 11 30 18q11 0 129 -150h7q7 33 20 128q4 20 36 33z" />
    <glyph glyph-name="plus" unicode="+" horiz-adv-x="987" 
d="M748 1151q42 -16 34 -50q-31 -122 -46 -194l-39 -184q0 -10 8 -10h149q180 0 174 -30q-1 -5 1 -15q-7 -36 -68 -40q-248 5 -288 5l-1 -5q-20 -93 -82 -363q-8 -35 -51 -50q-32 0 -30 45l40 189q12 58 44 184l-48 5h-130q-179 0 -173 30l6 25q23 30 56 30q47 0 307 -5l1 5
q52 220 78 343l4 20q11 49 54 65z" />
    <glyph glyph-name="comma" unicode="," horiz-adv-x="320" 
d="M133 64h12q49 0 47 -192v-4q-18 -84 -108 -148h-24q-10 2 -14 28q68 77 71 88q7 16 11 32q10 50 -21 168q16 26 26 28z" />
    <glyph glyph-name="hyphen" unicode="-" horiz-adv-x="916" 
d="M270 534h620q30 0 33 -32q-7 -32 -63 -32h-620q-28 0 -33 32q7 32 63 32z" />
    <glyph glyph-name="hyphen" unicode="&#xad;" horiz-adv-x="916" 
d="M270 534h620q30 0 33 -32q-7 -32 -63 -32h-620q-28 0 -33 32q7 32 63 32z" />
    <glyph glyph-name="period" unicode="." horiz-adv-x="480" 
d="M226 256q11 0 56 -56h4q68 43 95 52q42 0 33 -88q-19 -93 -150 -160q-16 -4 -28 -4q-78 0 -105 148l4 20q27 88 91 88z" />
    <glyph glyph-name="slash" unicode="/" horiz-adv-x="929" 
d="M1095 1418q22 0 28 -36q-804 -1157 -968 -1377l-23 -5q-18 0 -27 23l3 13q22 48 962 1373q8 0 25 9z" />
    <glyph glyph-name="zero" unicode="0" horiz-adv-x="1277" 
d="M934 1424q373 0 411 -442q11 -137 -23 -297q-67 -317 -300 -545q-162 -140 -381 -140h-5q-355 0 -401 424q-13 151 22 315q82 385 376 604q135 81 301 81zM325 721q-72 -339 84 -559q80 -90 251 -90q319 0 493 347q69 133 101 284q79 369 -109 586q-99 63 -235 63
q-283 0 -448 -284q-96 -153 -137 -347z" />
    <glyph glyph-name="one" unicode="1" horiz-adv-x="822" 
d="M761 1423q32 -15 24 -53l-242 -1182q-15 -86 -21 -114h44q166 0 161 -26q-1 -4 2 -13q-6 -27 -47 -35q-393 9 -475 9q-56 7 -49 39q6 28 51 35q120 -4 196 -4h44l254 1235h-4q-311 -206 -329 -206q-25 0 -29 30q26 40 270 193q118 82 150 92z" />
    <glyph glyph-name="two" unicode="2" horiz-adv-x="1253" 
d="M733 1428h9q262 0 421 -248q47 -144 18 -281l-1 -4q-52 -246 -249 -511q108 -93 234 -303v-22l-3 -14q-18 -22 -41 -22q-19 0 -107 153q-94 128 -132 145q-7 0 -124 -118q-254 -203 -378 -203q-273 35 -227 253q43 199 241 321q63 32 141 32q130 0 338 -177h5
q178 221 226 448q67 316 -188 434q-105 45 -194 45q-130 0 -182 -68q-64 -91 -133 -267l-21 -13h-22q-21 11 -16 36q28 129 166 307q82 77 219 77zM225 253q-32 -150 148 -181q177 0 448 285l2 9q-179 167 -316 167q-168 0 -267 -235q-10 -23 -15 -45z" />
    <glyph glyph-name="three" unicode="3" horiz-adv-x="1041" 
d="M787 1423q303 0 324 -267q2 -79 -7 -140q-28 -128 -130 -259q93 -164 47 -380q-61 -285 -322 -355q-71 -22 -166 -22q-209 0 -308 79q4 17 -4 17q24 48 58 48q11 0 44 -39q108 -35 242 -35q320 0 387 315q41 191 -37 316q-122 -57 -211 -57h-8q-182 13 -196 105
q48 89 241 105h8q80 0 183 -48q71 83 94 192l4 18q71 337 -258 337q-320 -26 -334 -92q-20 -22 -41 -26q-32 12 -27 39q25 115 404 149h13zM592 749q32 -35 123 -35q95 0 144 35l1 8q-65 27 -134 27q-86 0 -134 -35z" />
    <glyph glyph-name="four" unicode="4" horiz-adv-x="948" 
d="M1123 1423q25 -11 18 -41q-122 -531 -184 -825l-107 -503q-11 -54 -52 -54h-9q-24 16 -19 41l129 607q-7 0 -63 5q-147 0 -564 9q-29 13 -23 40l142 671q8 36 44 36q37 0 29 -36l-135 -639q113 0 587 -9l156 675q21 23 51 23z" />
    <glyph glyph-name="five" unicode="5" horiz-adv-x="1042" 
d="M483 1413q34 0 713 -9q43 -6 36 -39q-5 -24 -48 -35q-20 0 -99 5q-431 4 -527 4l-60 4q-27 -170 -71 -397q-16 -56 -34 -139q18 -13 54 -13q251 22 288 22h40q227 0 226 -371l-8 -79q-77 -366 -544 -366q-276 0 -325 96l1 22q24 43 53 43q31 -16 25 -48q103 -43 264 -43
q308 0 401 157q32 51 47 122l3 17q45 211 -68 358q-43 22 -112 22l-315 -22q-118 0 -96 100l22 105q34 161 84 432l-3 8q21 44 53 44z" />
    <glyph glyph-name="six" unicode="6" horiz-adv-x="1216" 
d="M878 1426q206 0 439 -84l10 -19l-5 -23q-18 -23 -42 -23q-240 74 -408 74q-199 0 -289 -130q-192 -206 -261 -527q-33 -211 -12 -233q119 158 411 247q63 19 192 28q177 0 275 -135q36 -92 14 -196q-61 -288 -369 -377q-93 -28 -188 -28q-369 0 -417 405q-7 165 24 313
q86 404 400 652q102 56 226 56zM338 354l-4 -18q-19 -89 110 -210q105 -51 213 -51q274 0 410 181q44 75 61 154q34 161 -88 219q-60 28 -139 28h-42q-218 0 -443 -177q-65 -64 -78 -126z" />
    <glyph glyph-name="seven" unicode="7" horiz-adv-x="1142" 
d="M451 1418q640 -9 775 -9q116 0 107 -40q-820 -1285 -881 -1360q-19 -4 -20 -9q-24 0 -28 36q2 12 411 646q407 623 417 651h-4l-806 13q-21 0 -28 36q7 32 57 36z" />
    <glyph glyph-name="eight" unicode="8" horiz-adv-x="1204" 
d="M922 1426h13q359 -18 405 -227q10 -43 -1 -95q-38 -177 -518 -405l-1 -4l148 -136q135 -136 109 -259q-46 -217 -431 -295q-62 -5 -92 -5h-13q-322 0 -379 223q-4 48 3 81q37 176 503 400q-146 113 -235 222q-70 99 -51 187l1 4q49 232 450 304q52 5 89 5zM457 1122
l-1 -5q-32 -151 298 -372h5q475 209 510 372q33 157 -216 223q-51 9 -138 13q-290 0 -431 -168q-21 -35 -27 -63zM235 291q-31 -148 210 -209q107 -9 121 -9q258 0 399 150q26 35 31 59l9 40q19 121 -266 332h-10q-458 -194 -494 -363z" />
    <glyph glyph-name="nine" unicode="9" horiz-adv-x="1123" 
d="M915 1426h5q283 0 347 -171q9 -66 -34 -267q-94 -442 -252 -970l-27 -18h-23q-21 12 -15 37q183 671 231 895q68 319 36 319q-63 101 -293 101q-309 -9 -420 -152q-62 -100 -84 -203q-50 -236 114 -286q37 -14 117 -14h32q135 0 390 51h5q20 -12 14 -42q-11 -53 -444 -88
q-277 0 -307 208q-14 83 5 171l2 9q89 420 601 420z" />
    <glyph glyph-name="colon" unicode=":" horiz-adv-x="480" 
d="M226 256q11 0 56 -56h4q68 43 95 52q42 0 33 -88q-19 -93 -150 -160q-16 -4 -28 -4q-78 0 -105 148l4 20q27 88 91 88zM381 985q11 0 56 -56h4q68 43 95 52q42 0 33 -88q-19 -93 -150 -160q-17 -4 -29 -4q-78 0 -104 148l4 20q27 88 91 88z" />
    <glyph glyph-name="semicolon" unicode=";" horiz-adv-x="480" 
d="M383 990q11 0 56 -56h4q68 43 95 52q42 0 33 -88q-21 -99 -159 -164h-20q-73 0 -104 132q1 22 4 36q27 88 91 88zM265 78q41 0 48 -168q4 -3 -3 -36q-64 -140 -118 -140l-1 -4q-26 0 -24 36q71 73 79 108l2 12q8 38 -22 160l1 4q14 28 38 28z" />
    <glyph glyph-name="semicolon" unicode="&#x37e;" horiz-adv-x="480" 
d="M383 990q11 0 56 -56h4q68 43 95 52q42 0 33 -88q-21 -99 -159 -164h-20q-73 0 -104 132q1 22 4 36q27 88 91 88zM265 78q41 0 48 -168q4 -3 -3 -36q-64 -140 -118 -140l-1 -4q-26 0 -24 36q71 73 79 108l2 12q8 38 -22 160l1 4q14 28 38 28z" />
    <glyph glyph-name="less" unicode="&#x3c;" horiz-adv-x="924" 
d="M1043 1179q19 0 25 -32q-5 -25 -203 -128q-484 -274 -515 -296l-1 -4q24 -25 527 -440q-1 -20 3 -20q-4 -19 -38 -32q-53 31 -583 476l-4 20q5 24 239 148q477 274 550 308z" />
    <glyph glyph-name="equal" unicode="=" horiz-adv-x="960" 
d="M1022 911q21 0 25 -32q-7 -32 -87 -32q-54 -4 -651 -12q-19 0 -25 32q8 36 100 36q87 0 638 8zM316 751h648q44 0 36 -36q-5 -23 -50 -28h-648q-44 0 -36 36q5 23 50 28z" />
    <glyph glyph-name="greater" unicode="&#x3e;" horiz-adv-x="912" 
d="M441 1191q31 -15 429 -392q95 -81 90 -104q-52 -51 -254 -160q-492 -297 -526 -308q-17 0 -25 32q5 23 168 112q488 287 546 328q-2 12 -260 248q-201 188 -205 200l4 20q1 7 33 24z" />
    <glyph glyph-name="question" unicode="?" horiz-adv-x="948" 
d="M731 1427q307 0 340 -269q5 -86 -12 -164q-47 -223 -230 -351q-46 -14 -53 -14q-151 41 -165 41h-13q-46 0 -64 -86l-8 -37q-22 -103 -12 -205q-6 -29 -48 -37q-47 0 -15 251q35 163 164 192h4l169 -41h9q65 0 162 200q21 57 28 91q57 267 -138 338q-59 18 -133 18
q-171 0 -267 -96q-5 -4 -21 -59q-11 -50 -9 -169q-10 -36 -44 -36q-46 0 -22 196l5 23q32 152 276 205q59 9 97 9zM412 205l50 -45q40 23 78 41q41 -16 30 -69q-66 -132 -151 -132q-99 48 -80 137q23 68 73 68z" />
    <glyph glyph-name="at" unicode="@" horiz-adv-x="1404" 
d="M1025 1423h18q296 0 418 -246q54 -187 3 -425l-4 -18q-92 -374 -295 -461q-8 0 -51 -9q-44 0 -63 81h-4q-123 -148 -274 -148q-223 0 -256 250q-14 122 12 242q69 325 292 448q28 14 132 31q235 0 257 -286q3 -110 -16 -202l-3 -13q-8 -40 -49 -166l-9 -40
q-19 -93 2 -121h5q113 0 225 304q9 43 26 103q128 604 -382 604q-327 0 -526 -268q-117 -172 -163 -389q-73 -342 58 -524q96 -98 351 -98q279 0 566 98q30 -9 24 -36l-2 -9q-70 -86 -582 -125h-35q-412 0 -461 295q-36 188 8 394l3 14q90 424 405 622q192 98 370 98z
M601 689q-56 -263 61 -385q52 -31 96 -31h62q139 0 256 251q30 82 45 152q57 325 -85 398q-37 18 -82 18h-27q-173 0 -282 -255q-40 -126 -44 -148z" />
    <glyph glyph-name="A" unicode="A" horiz-adv-x="904" 
d="M726 1413q98 0 109 -741q2 -275 -19 -616q-7 -35 -47 -47q-47 0 -18 178q15 376 8 499h-5q-351 -52 -353 -61q-57 -135 -227 -606q-30 -19 -37 -19q-28 0 -28 42q414 1172 567 1352q32 19 50 19zM690 1306q-222 -454 -252 -597q13 0 318 51l1 5q6 269 -46 527l-11 14h-10
z" />
    <glyph glyph-name="B" unicode="B" horiz-adv-x="997" 
d="M454 1234q-45 -213 -248 -1082q21 -78 209 -78q248 0 403 119q20 0 66 120q52 243 -113 309q-168 60 -406 60q-29 19 -26 36q22 37 64 37h110q368 0 464 143q53 77 70 157q37 173 -80 230q-122 64 -290 64q-198 0 -220 -101zM697 1423q343 0 425 -207q16 -82 0 -157
q-58 -272 -327 -345q-18 0 -20 -9q147 -56 177 -162q32 -111 9 -216l-1 -5q-55 -260 -463 -317q-52 -5 -93 -5q-227 0 -267 111q-8 26 -4 46l255 1114q65 152 286 152h23z" />
    <glyph glyph-name="C" unicode="C" horiz-adv-x="1433" 
d="M1076 1418q341 0 495 -217q10 -38 1 -79q-31 -144 -91 -171q-25 0 -35 33q39 75 55 152q20 92 -256 185q-90 23 -194 23q-426 0 -627 -365q-70 -134 -97 -263q-96 -449 211 -591q137 -51 271 -51q278 0 486 157h14q28 0 30 -32q-8 -38 -168 -116q-170 -83 -378 -83
q-444 0 -547 360q-32 174 7 356l1 5q78 370 376 577q200 120 446 120z" />
    <glyph glyph-name="D" unicode="D" horiz-adv-x="1148" 
d="M654 1427q350 0 490 -461q55 -254 17 -433v-4q-76 -353 -516 -497q-123 -32 -217 -32h-9q-270 0 -283 169l236 1066q33 158 273 192h9zM437 1199l-19 -91q-128 -601 -208 -935q-12 -58 131 -91q54 -9 103 -9q336 0 557 260q65 96 88 205q57 266 -86 583
q-142 233 -364 233q-169 0 -202 -155z" />
    <glyph glyph-name="E" unicode="E" horiz-adv-x="1074" 
d="M814 1418h9q390 -14 411 -50l2 -9l-5 -23q-18 -22 -37 -22q-255 32 -396 32q-260 0 -347 -82q-2 -8 -16 -27l-89 -485h589q44 -6 36 -41q-5 -26 -56 -31h-575l-10 -5q-12 -79 -91 -494q-12 -54 125 -90q96 -19 209 -19q145 0 387 32q35 -8 28 -41q-9 -39 -192 -49
q-119 -14 -234 -14h-13q-332 0 -376 131q-31 0 99 612q-5 0 90 489q31 144 332 181q54 5 120 5z" />
    <glyph glyph-name="F" unicode="F" horiz-adv-x="1060" 
d="M820 1418h18q219 0 401 -41l10 -18l-5 -22q-19 -23 -37 -23q-256 32 -402 32q-269 0 -344 -95q-68 -211 -137 -535q303 9 506 9q4 0 37 4q43 -9 36 -40q-6 -30 -56 -36q-482 -9 -533 -9q-2 -9 -7 -9l3 -9l-2 -9q-40 -187 -111 -585q-6 -27 -43 -32h-9q-36 0 21 266
q38 222 83 436l9 41q117 553 170 567q111 108 392 108z" />
    <glyph glyph-name="G" unicode="G" horiz-adv-x="1494" 
d="M985 1423q232 0 550 -92l13 -27q-6 -27 -46 -42q-301 88 -550 88q-282 0 -395 -152q-169 -188 -227 -459q-86 -404 147 -583q140 -83 327 -83q407 16 557 248q45 78 62 161q40 188 -72 243q-25 0 -63 5q-90 0 -287 -51h-13q-7 0 -18 23l5 23q9 43 329 78h4
q175 0 197 -179q5 -79 -10 -147v-4q-70 -329 -455 -436q-119 -37 -242 -37h-14q-481 0 -544 441q-11 166 15 289l7 32q75 353 363 583q136 78 360 78z" />
    <glyph glyph-name="H" unicode="H" horiz-adv-x="934" 
d="M452 1423q37 0 25 -55l-133 -606h5q574 45 576 54q10 25 14 41l44 206q24 114 72 324q5 19 45 36q34 -11 26 -46q-38 -182 -298 -1341q-4 -19 -44 -36q-32 0 -26 50l150 684q-9 0 -8 5q-10 -5 -15 -5q-29 0 -558 -50l-147 -648q-4 -21 -44 -36q-34 11 -27 46l299 1341
q5 19 44 36z" />
    <glyph glyph-name="I" unicode="I" horiz-adv-x="1157" 
d="M1322 1413q24 0 28 -36q-9 -41 -141 -41q-24 0 -316 -10q-2 -9 -7 -9l3 -9l-245 -1217q349 9 385 9q30 -9 24 -36q-9 -41 -141 -41l-766 -23q-28 0 -28 41q8 36 168 36q239 10 280 10l248 1235q-39 0 -394 -9q-39 8 -33 36q9 41 141 41z" />
    <glyph glyph-name="J" unicode="J" horiz-adv-x="1439" 
d="M584 1413h1011q32 0 37 -37q-7 -32 -58 -36h-389l-1 -5q20 -449 -42 -741q-98 -458 -441 -562q-124 -32 -199 -32h-9q-252 0 -342 155q-8 45 1 87q29 139 95 211h28q20 -13 15 -37q-50 -104 -65 -174q-22 -101 121 -141q13 -19 159 -28q325 0 470 256q56 109 91 275l2 9
q68 323 40 727h-554q-49 4 -42 36q8 37 72 37z" />
    <glyph glyph-name="K" unicode="K" horiz-adv-x="1113" 
d="M433 1396q31 0 25 -49l-107 -506h4l883 385q24 0 31 -22l-5 -23q-4 -19 -403 -188q-467 -208 -470 -214l-1 -5l576 -698l-5 -22q-1 -6 -26 -23h-9q-28 0 -192 215l-401 470h-9l-142 -671q-8 -34 -46 -45q-36 0 -23 63l274 1288q7 32 46 45z" />
    <glyph glyph-name="L" unicode="L" horiz-adv-x="999" 
d="M454 1427q31 0 26 -51q-256 -1166 -290 -1302h679q35 0 38 -37q-8 -37 -73 -37h-683q-51 0 -42 42q258 1173 300 1348q5 22 45 37z" />
    <glyph glyph-name="M" unicode="M" horiz-adv-x="1188" 
d="M481 1427q72 0 170 -535q60 -255 85 -265h5q83 59 456 681q75 110 123 110q64 0 -30 -444q5 0 -39 -206l-8 -41q-84 -393 -156 -690q-4 -20 -45 -37q-28 0 -27 41q132 578 144 636q85 425 109 604h-4q-47 -60 -310 -490q-164 -247 -235 -247q-87 0 -174 494
q-45 203 -70 275h-9l-285 -1276q-5 -22 -44 -37q-32 0 -25 55q290 1340 312 1340q28 32 57 32z" />
    <glyph glyph-name="N" unicode="N" horiz-adv-x="929" 
d="M439 1427q34 0 76 -216q257 -966 269 -999h5l254 1138q16 32 43 32h9q24 -17 19 -41l-291 -1305q-4 -21 -43 -36q-34 0 -67 176l-276 1030h-4l-233 -1138q-12 -36 -44 -36h-9q-17 5 -19 36l267 1323q5 21 44 36z" />
    <glyph glyph-name="O" unicode="O" horiz-adv-x="1298" 
d="M942 1413q306 0 403 -280q52 -197 3 -426l-4 -18q-120 -506 -456 -640q-128 -49 -233 -49q-306 0 -403 280q-50 200 -2 427l1 4q113 529 493 666q119 36 198 36zM324 720q-113 -534 226 -631q38 -13 99 -13h45q303 0 478 328q70 141 100 285q115 539 -224 635
q-38 13 -100 13h-44q-315 0 -493 -355q-62 -143 -87 -262z" />
    <glyph glyph-name="P" unicode="P" horiz-adv-x="1173" 
d="M755 1413q304 0 492 -200q60 -112 31 -249l-3 -13q-55 -261 -286 -342q-100 -22 -164 -22q-189 0 -458 88l-9 18l5 22q17 23 41 23q247 -76 415 -76h57q267 0 331 302q54 255 -231 333q-102 45 -249 45q-189 0 -262 -107q-29 -27 -166 -631q-76 -382 -106 -564
q-6 -24 -49 -40q-35 0 -11 111q28 175 110 560l3 18q119 556 189 613q118 111 320 111z" />
    <glyph glyph-name="Q" unicode="Q" horiz-adv-x="1322" 
d="M933 1423q313 0 401 -310q34 -200 -7 -390q-3 -14 1 -14l-9 -22l-4 -23q-49 -229 -196 -435q100 -93 123 -139q-4 -17 -35 -36h-9q-18 0 -128 112h-5q-202 -166 -408 -166q-282 0 -392 247q-67 212 -13 467l2 9q116 547 511 673q98 27 168 27zM327 727q-99 -467 148 -610
q92 -41 154 -41h63q184 0 325 139q1 6 -252 270l-1 18q12 20 34 31h18q224 -227 261 -251q119 160 171 408l3 14q95 445 -130 592q-82 50 -182 50h-54q-234 0 -411 -243q-104 -173 -147 -377z" />
    <glyph glyph-name="R" unicode="R" horiz-adv-x="1044" 
d="M730 1413q285 0 407 -167q49 -106 17 -257q-107 -334 -288 -334q-44 0 -277 72h-27q-43 0 -65 -68l-4 -18q-43 -205 394 -587q-2 -10 2 -18q-16 -31 -43 -31h-14q-462 393 -410 641l1 4q47 149 158 149h10q98 -17 251 -68q24 -4 50 -4q94 0 177 221q11 31 15 50
q49 232 -135 302q-127 41 -239 41q-183 0 -258 -91q-20 -26 -24 -45q-51 -368 -200 -1070l-16 -76q-10 -44 -49 -59q-40 0 -26 68l44 203q124 583 176 939q28 132 243 189q61 14 130 14z" />
    <glyph glyph-name="S" unicode="S" horiz-adv-x="1216" 
d="M872 1423q416 -26 456 -253q-1 -8 2 -36q-15 -68 -60 -68q-36 0 -14 104q-32 97 -206 154q-106 27 -193 27q-296 0 -433 -231l-12 -54q-30 -140 485 -352q335 -168 294 -357q-38 -183 -292 -316q-119 -41 -212 -41h-13q-282 0 -478 199q-42 57 -31 108q17 54 56 54
q14 0 26 -31l-10 -23q-21 -99 281 -212q110 -23 184 -23q256 0 390 217q19 29 28 72q36 168 -400 348q-421 185 -382 371q35 165 274 289q122 54 260 54z" />
    <glyph glyph-name="T" unicode="T" horiz-adv-x="1628" 
d="M440 1410q1178 -18 1312 -18q71 -5 63 -41q-23 -36 -49 -36q-508 9 -666 9l-1 -4q-217 -1106 -256 -1288q-22 -32 -43 -32q-33 17 -27 45q206 1054 240 1211l11 73q-250 0 -608 9q-30 9 -24 36l2 9q22 27 46 27z" />
    <glyph glyph-name="U" unicode="U" horiz-adv-x="1146" 
d="M1197 1408q48 0 33 -161q7 -350 -57 -651q-86 -404 -323 -524q-140 -72 -275 -72q-342 0 -378 309q-3 133 25 265l2 9q71 336 288 785l30 13q33 -12 28 -36q-209 -457 -275 -767q-84 -397 115 -470q82 -36 171 -36q264 0 403 206q75 124 122 341q63 298 53 753
q3 17 38 36z" />
    <glyph glyph-name="V" unicode="V" horiz-adv-x="1186" 
d="M1336 1408h27q11 -3 16 -31q-588 -1249 -643 -1359l-31 -18q-38 0 -76 233q-245 1054 -247 1094q20 32 47 32q30 0 68 -229q12 -30 223 -973h5q12 0 218 453l378 789z" />
    <glyph glyph-name="W" unicode="W" horiz-adv-x="1743" 
d="M1891 1403h27q11 -2 17 -31q-538 -1300 -560 -1340q-23 -14 -35 -14q-28 0 -100 271q-143 463 -170 537q-451 -755 -489 -812l-25 -14q-42 0 -54 217q-7 9 -139 1019q4 21 40 36q45 0 49 -167q9 -41 132 -952h5q11 9 469 785q28 18 35 18q30 0 108 -297q12 -26 154 -488
h9q491 1189 513 1223z" />
    <glyph glyph-name="X" unicode="X" horiz-adv-x="992" 
d="M453 1408q37 0 84 -204q122 -388 130 -389q422 546 441 566l24 4q29 -15 25 -36q-443 -580 -467 -620l209 -693q-3 -17 -34 -36h-18q-25 7 -121 349q-92 297 -99 303q-21 -22 -448 -575l-21 -14h-4q-26 0 -34 32q3 15 484 634q-4 27 -189 625l-1 18q4 19 39 36z" />
    <glyph glyph-name="Y" unicode="Y" horiz-adv-x="1174" 
d="M1342 1408q30 -9 24 -37l-1 -4q-4 -17 -402 -471q-133 -150 -135 -160l-129 -695q-18 -41 -46 -41q-41 0 -12 133q120 617 104 617q-366 561 -363 576q4 17 35 36h19q44 -43 354 -548h13q20 15 514 585q24 4 25 9z" />
    <glyph glyph-name="Z" unicode="Z" horiz-adv-x="1493" 
d="M1546 1426q17 0 31 -27l-2 -10q-5 -21 -466 -493l-785 -814l-2 -9h1042q32 0 37 -36q-8 -37 -72 -37h-1096q-26 0 -36 27l2 10q5 22 507 534q732 754 740 773l1 4l-1028 -41q-25 0 -33 37q9 41 128 41q64 4 1032 41z" />
    <glyph glyph-name="bracketleft" unicode="[" horiz-adv-x="556" 
d="M677 1417q20 0 29 -36q-10 -44 -179 -44h-54q-14 -5 -15 -9q-24 -113 -235 -1252q65 0 216 9q34 -7 27 -36q-8 -40 -106 -40q-150 -9 -189 -9q-35 0 -16 89q3 37 236 1279q9 45 178 45q4 0 108 4z" />
    <glyph glyph-name="backslash" unicode="\" horiz-adv-x="1272" 
d="M1225 1206q148 0 147 -240q-5 -47 -11 -74q-89 -422 -692 -887q-9 0 -10 -5q-319 167 -399 494q-24 147 3 273l2 9q58 274 292 398l72 14q162 0 203 -305q4 -79 12 -79q11 13 85 162q161 240 296 240z" />
    <glyph glyph-name="bracketright" unicode="]" horiz-adv-x="585" 
d="M704 1424q40 0 7 -155l-219 -1234q-5 -27 -47 -35q-270 0 -261 40l1 9q6 27 48 35q145 -9 193 -9l1 5l225 1269q-66 0 -232 -9q-34 6 -28 35l2 9q8 36 225 36q24 4 85 4z" />
    <glyph glyph-name="asciicircum" unicode="^" horiz-adv-x="916" 
d="M787 1406q17 0 190 -252q56 -71 64 -96q-5 -24 -40 -36q-15 0 -222 292q2 6 -13 12q-76 -53 -404 -300h-24q-10 2 -14 28q3 15 385 304q68 48 78 48z" />
    <glyph glyph-name="underscore" unicode="_" horiz-adv-x="848" 
d="M144 -57h552q28 0 33 -32q-7 -32 -63 -32h-552q-28 0 -33 32q7 32 63 32z" />
    <glyph glyph-name="grave" unicode="`" horiz-adv-x="612" 
d="M420 1410h20q279 -279 304 -316l-4 -20q-1 -5 -24 -20h-20q-280 279 -305 316l3 12q4 20 26 28z" />
    <glyph glyph-name="a" unicode="a" 
d="M688 1022q258 0 314 -270q8 -145 -13 -246q-5 -20 -48 -154q-33 -155 61 -256h19q56 20 68 20q8 0 21 -34q-40 -63 -100 -63h-9q-90 0 -142 174h-9q-149 -193 -369 -193q-202 0 -277 174q-39 132 2 327l3 10q77 366 329 482q82 29 150 29zM283 501q-89 -419 200 -419h49
q191 0 316 236q43 113 48 140l17 77q58 276 -95 371q-67 39 -155 39q-225 0 -332 -289q-28 -65 -48 -155z" />
    <glyph glyph-name="b" unicode="b" horiz-adv-x="1078" 
d="M439 1427q41 0 14 -131q-16 -72 -60 -324q9 0 8 -4q238 49 370 49q268 0 311 -315q18 -127 -8 -252q-67 -313 -357 -409q-136 -41 -266 -41q-223 0 -276 117q-24 0 113 684q-4 0 108 590q4 19 43 36zM377 896q-5 -40 -6 -45q-18 -87 -129 -693q30 -86 229 -86
q333 8 455 189q57 102 77 194q55 258 -78 436q-47 50 -148 50h-45q-123 0 -355 -45z" />
    <glyph glyph-name="c" unicode="c" horiz-adv-x="1176" 
d="M773 1004q425 -29 411 -94q-21 -38 -46 -38q-230 57 -381 57q-240 0 -343 -143q-103 -149 -138 -312q-65 -307 119 -379q52 -14 181 -19q421 25 463 85l25 5q30 0 38 -43q-20 -91 -557 -123h-9q-302 0 -339 213q-25 128 3 261l2 9q65 303 298 465q125 56 273 56z" />
    <glyph glyph-name="d" unicode="d" horiz-adv-x="1106" 
d="M1223 1427q43 0 11 -149q-40 -393 -125 -796q-73 -342 -141 -394q-105 -88 -260 -88h-4q-265 0 -425 162q-108 171 -56 416q56 261 256 398q94 48 224 48q167 0 422 -74l1 4q33 196 58 438q4 19 39 35zM288 573l-1 -4q-75 -355 186 -460q120 -43 241 -43q172 0 232 83
q48 106 98 341q45 209 75 412l-32 -9q-229 66 -407 66q-209 0 -294 -149q-68 -98 -98 -237z" />
    <glyph glyph-name="e" unicode="e" horiz-adv-x="1124" 
d="M862 1008q279 -15 321 -177q6 -54 -3 -97l-2 -9q-34 -161 -213 -219q-88 -14 -114 -14q-441 51 -425 126q16 32 44 32q232 -79 378 -79h42q181 0 217 168q26 124 -108 167q-64 28 -161 28q-297 0 -479 -219q-54 -98 -72 -181q-53 -252 88 -399q90 -61 289 -61
q256 0 269 61q4 19 33 32q47 -24 41 -56q-18 -81 -256 -106q-41 -5 -103 -5h-5q-367 0 -416 228q-49 139 -12 315q72 338 466 442q84 23 181 23z" />
    <glyph glyph-name="f" unicode="f" horiz-adv-x="889" 
d="M701 1418h22q238 0 303 -199q13 -45 -4 -124l-12 -57q-21 -80 -43 -80h-23q-23 17 -18 40q3 15 20 75q38 179 -66 226q-69 48 -176 48q-234 -19 -260 -141q-46 -157 -103 -424l-28 -133h292q34 0 42 -26l-4 -22q-5 -22 -72 -27h-278q-83 -410 -111 -539q-4 -21 -42 -35
q-40 0 -13 128l104 490q143 672 187 672q117 128 283 128z" />
    <glyph glyph-name="g" unicode="g" horiz-adv-x="1086" 
d="M791 1003q293 0 316 -291q2 -71 -9 -126l-8 -35q-13 -63 -50 -139q-5 -183 -42 -356q-61 -286 -227 -374q-142 -78 -303 -78q-325 13 -389 217q-3 66 4 100q70 222 186 222q136 -18 126 -65q-6 -28 -46 -31q-54 22 -73 22h-26q-48 0 -95 -139q-33 -156 127 -217
q82 -39 201 -39q243 0 358 152q57 85 93 252q36 204 21 204h-4q-151 -139 -339 -139q-309 0 -326 304q-4 60 12 135q62 291 318 395q96 26 175 26zM367 582q-58 -271 131 -348q54 -17 113 -17h30q204 0 315 173q48 81 68 174l2 9q53 252 -112 334q-71 26 -142 26
q-234 0 -344 -186q-43 -80 -61 -165z" />
    <glyph glyph-name="h" unicode="h" horiz-adv-x="887" 
d="M450 1418q37 -14 30 -45q-41 -174 -60 -263l-38 -183h4q146 45 268 45h35q223 0 270 -116q1 -40 -3 -58l-20 -93q-60 -286 -150 -665q-5 -24 -48 -40q-32 19 -28 40q2 11 12 36q120 523 165 736q13 59 -138 84q-57 5 -92 5q-284 -13 -297 -76q-14 -40 -16 -49
q-48 -228 -165 -736q-16 -31 -42 -31h-9q-24 12 -17 45l293 1315q6 30 46 49z" />
    <glyph glyph-name="i" unicode="i" horiz-adv-x="456" 
d="M431 1252q9 0 54 -52h9q43 35 80 48q37 0 30 -79q-20 -94 -146 -156h-17q-78 0 -95 143l4 18q26 78 81 78zM430 961q33 -13 27 -39l-210 -883q-4 -20 -43 -39q-28 0 -26 39q28 132 210 887q4 18 42 35z" />
    <glyph glyph-name="j" unicode="j" horiz-adv-x="540" 
d="M471 1245q10 0 51 -49h8q37 31 76 45q41 -17 31 -66q-23 -107 -144 -155h-12q-73 0 -90 135l4 16q23 74 76 74zM484 938q50 0 1 -668q-15 -128 -36 -228q-110 -514 -404 -611q-91 -29 -178 -29q-218 0 -331 153q-15 65 1 142q64 215 107 215h8q26 0 21 -37l-2 -10
q-47 -68 -72 -186q-24 -111 79 -149q90 -52 214 -52q301 0 425 329q29 76 65 225q70 333 59 878q5 22 43 28z" />
    <glyph glyph-name="k" unicode="k" horiz-adv-x="893" 
d="M435 1408q22 0 30 -36l-92 -452l-24 -113l640 268q27 -9 28 -22l-5 -23q-5 -24 -379 -173q-71 -37 -231 -101l-1 -4q-4 -18 219 -510q76 -165 83 -192q-17 -41 -45 -41q-29 0 -116 228q-59 115 -204 456h-14l-131 -643q-8 -38 -47 -50q-41 0 -25 73l271 1299q4 21 43 36z
" />
    <glyph glyph-name="l" unicode="l" horiz-adv-x="518" 
d="M437 1413q30 0 25 -49l-262 -1279q41 -13 73 -13q90 0 104 67l10 45q7 36 43 36q35 0 22 -63l-4 -18q-30 -139 -204 -139q-137 12 -120 94l216 1032l51 242q7 32 46 45z" />
    <glyph glyph-name="m" unicode="m" horiz-adv-x="1139" 
d="M1179 1013q70 0 26 -209q-3 -39 -35 -188l-69 -323q-19 -90 -58 -253q-6 -24 -49 -40q-35 0 -27 60q34 162 94 422q67 335 82 432h-5q-50 -35 -324 -313q-86 -72 -120 -75q-54 0 -178 239q-93 149 -118 149q-15 0 -210 -874q-5 -21 -48 -40q-40 0 -25 70l13 64
q183 859 233 859q27 15 42 15q88 -9 273 -353q33 -44 36 -44q70 46 343 328q86 74 124 74z" />
    <glyph glyph-name="n" unicode="n" horiz-adv-x="983" 
d="M357 1025q38 0 23 -68l-3 -14q160 67 315 67h29q301 0 329 -159q10 -16 -43 -266l-14 -68l-103 -459q-22 -53 -54 -53q-35 18 -29 48q25 91 115 493q68 319 39 319q-80 68 -262 68h-24q-294 -18 -313 -111l-1 -5q-26 -123 -46 -193q-60 -303 -110 -585q-4 -22 -47 -39
q-43 0 -26 82l178 904q4 21 47 39z" />
    <glyph glyph-name="o" unicode="o" horiz-adv-x="1061" 
d="M736 1008h5q298 0 337 -303q10 -109 -11 -208l-1 -5q-73 -343 -359 -464q-94 -28 -172 -28q-318 0 -340 331q-3 100 11 166l2 9q74 350 351 469q85 33 177 33zM285 511q-67 -313 134 -416q80 -19 129 -19q216 0 326 156q84 111 116 260q68 321 -138 421q-70 19 -138 19
q-249 0 -376 -260q-28 -62 -53 -161z" />
    <glyph glyph-name="p" unicode="p" horiz-adv-x="910" 
d="M513 1018h9q228 0 363 -165q76 -143 33 -344q-58 -275 -275 -411q-76 -26 -143 -26q-136 0 -285 49q-9 -5 -14 -5l-99 -482q-6 -32 -45 -49q-41 0 -27 67l252 1205q23 107 162 152q44 9 69 9zM356 871l-112 -554l-27 -125q183 -49 298 -49q141 0 208 103q92 113 126 276
q58 274 -129 375q-119 50 -213 50q-114 0 -150 -72z" />
    <glyph glyph-name="q" unicode="q" horiz-adv-x="941" 
d="M825 1018q219 0 176 -206q-23 -168 -95 -504l-17 -84l-125 -565q-5 -26 -44 -44q-24 0 -28 35l97 434l17 79h-9q-241 -57 -345 -57q-206 0 -243 180q-24 114 2 237l1 4q59 276 284 408q168 83 329 83zM288 553l-11 -48q-42 -200 59 -302q38 -27 112 -27h5q129 0 358 53h9
l27 127q117 552 86 552q-35 40 -97 40h-53q-220 0 -384 -162q-88 -123 -111 -233z" />
    <glyph glyph-name="r" unicode="r" horiz-adv-x="769" 
d="M362 1058q38 0 24 -65l-10 -47h4q123 70 197 70q121 0 273 -116q0 -19 6 -19q-22 -37 -50 -37q-152 93 -232 93h-23q-91 0 -198 -98q-11 -70 -18 -103l-145 -685q-15 -51 -48 -51q-34 14 -27 47l171 829l29 135q7 33 47 47z" />
    <glyph glyph-name="s" unicode="s" horiz-adv-x="872" 
d="M544 1013q172 0 391 -93q-1 -9 4 -24q-5 -25 -45 -37q-228 79 -371 79q-149 0 -170 -98l-1 -9q-24 -112 315 -360q172 -157 145 -284q-26 -123 -191 -173q-76 -14 -124 -14h-24q-354 24 -342 79l2 10q23 32 44 32q183 -46 326 -46q211 0 235 112l2 9q25 120 -335 383
q-151 146 -127 257q32 152 233 177h33z" />
    <glyph glyph-name="t" unicode="t" horiz-adv-x="1013" 
d="M804 1419q41 0 26 -72l-23 -104l-79 -393h5q282 4 322 4q38 -8 32 -36q-9 -41 -140 -41q-173 0 -235 -4q-125 -630 -148 -737q-4 -19 -44 -36q-40 0 -13 127l133 646q-245 -5 -336 -9q-39 11 -34 36q9 41 68 41q258 4 313 4l23 109q33 155 85 424q5 25 45 41z" />
    <glyph glyph-name="u" unicode="u" horiz-adv-x="918" 
d="M439 1010q31 0 30 -43q-155 -323 -200 -536q-54 -256 61 -321q71 -33 160 -33q220 0 302 205q29 95 36 125q50 236 15 565q4 18 37 38h24q46 0 18 -498q-4 -41 -17 -105l-4 -19q-83 -388 -442 -388q-224 0 -276 187q-21 103 7 234q54 254 217 570z" />
    <glyph glyph-name="v" unicode="v" horiz-adv-x="901" 
d="M963 1013h29q11 -3 17 -34q-345 -776 -477 -955q-31 -24 -48 -24q-43 0 -55 192l-125 768q7 31 51 39h5q27 0 62 -274q34 -179 95 -591h5q155 276 425 869z" />
    <glyph glyph-name="w" unicode="w" horiz-adv-x="1382" 
d="M1445 1010h28q11 -2 17 -33l-366 -910q-45 -62 -89 -62q-80 0 -192 376q-29 71 -47 91h-10q-104 -106 -319 -405q-66 -67 -95 -67q-58 0 -60 300q-18 232 -8 658q6 31 51 38q38 0 21 -214q-5 -314 24 -668h10q60 64 256 329q103 119 149 119q61 0 181 -381q23 -56 48 -90
h14q227 596 370 910z" />
    <glyph glyph-name="x" unicode="x" horiz-adv-x="806" 
d="M828 1022q18 0 32 -28l-1 -5q-5 -24 -305 -459q155 -424 166 -464q-17 -33 -45 -33h-14q-17 5 -121 303q-35 96 -45 99h-10q-228 -342 -293 -426q-19 -1 -21 -9q-26 0 -35 38q324 477 327 487q-4 25 -154 435l-3 10q5 22 46 38q30 0 101 -218q64 -172 71 -175l283 398
q20 3 21 9z" />
    <glyph glyph-name="y" unicode="y" horiz-adv-x="863" 
d="M939 1018q25 0 32 -35q-691 -1291 -738 -1365q-24 -10 -24 -13q-27 0 -32 35l239 448q-90 588 -122 825q4 19 38 35q42 0 52 -167q83 -547 93 -575h4q426 799 438 799z" />
    <glyph glyph-name="z" unicode="z" horiz-adv-x="990" 
d="M388 1016h593q26 0 37 -28l-5 -25l-779 -876l-2 -10h626q34 0 40 -38q-8 -39 -75 -39h-670q-52 5 -45 39q32 46 782 886l3 14h-540q-37 0 -40 39q8 38 75 38z" />
    <glyph glyph-name="braceleft" unicode="{" horiz-adv-x="733" 
d="M674 1416h4q184 -15 186 -47q8 -1 7 -8l-1 -5q-5 -24 -38 -38q-55 21 -165 30q-80 0 -113 -51q-30 -44 -38 -81l-6 -30q-18 -84 14 -431q-1 -69 -13 -123q-36 -170 -173 -192q-18 -4 -35 -4l-2 -9h21q92 0 110 -89q6 -51 -3 -90l-6 -30q-10 -48 -137 -345
q-14 -44 -15 -51q-30 -141 89 -141q43 0 184 26q17 -11 20 -30q-11 -51 -219 -64h-4q-132 0 -147 132q1 3 6 64l3 13q11 51 138 349q8 19 18 64q26 124 -51 124q-132 0 -117 72q15 70 184 81q51 40 69 124q22 102 -10 413q-7 49 6 150q30 144 168 208q42 9 66 9z" />
    <glyph glyph-name="bar" unicode="|" horiz-adv-x="1270" 
d="M1223 1204q148 0 147 -240q-5 -47 -11 -74q-89 -421 -691 -885q-9 0 -10 -5q-318 166 -398 493q-24 146 3 273l2 9q58 273 292 396l72 14q161 0 202 -304q4 -78 12 -78q12 13 85 161q160 240 295 240zM776 489q-39 0 -16 166q14 213 -28 341q-49 111 -111 111h-23
q-118 0 -231 -240q-27 -85 -31 -106q-85 -399 326 -678q161 113 289 254q282 305 332 544q37 171 -33 235q-20 14 -43 14q-164 0 -347 -484q-33 -157 -84 -157z" />
    <glyph glyph-name="braceright" unicode="}" horiz-adv-x="704" 
d="M639 1420q116 0 135 -140q4 -45 -1 -68l-8 -38q-18 -84 -196 -440q-19 -53 -26 -89l-10 -47q-23 -108 46 -122q124 -14 109 -85q-14 -64 -133 -64h-33q-39 -24 -52 -84l-9 -43q-9 -41 12 -360l-5 -63q-59 -182 -191 -182q-161 22 -154 55l2 8q5 26 37 34q86 -30 147 -30
q67 20 81 89l7 30q15 70 -8 322q-5 38 4 118q33 153 151 174q18 4 31 4q-7 8 -78 34q-57 69 -32 187q20 93 214 487q13 46 21 80l3 17q18 148 -74 148h-4q-83 0 -211 -38q-23 0 -27 34q11 51 248 72h4z" />
    <glyph glyph-name="asciitilde" unicode="~" horiz-adv-x="708" 
d="M435 1014q47 0 149 -128q27 -12 45 -12q40 0 140 92h8q24 0 30 -28q-39 -66 -150 -120q-36 -8 -49 -8q-68 0 -158 124q-14 16 -37 16q-23 -16 -86 -88q-9 0 -17 -4q-24 10 -24 20l4 16q75 120 145 120z" />
    <glyph glyph-name="exclamdown" unicode="&#xa1;" horiz-adv-x="470" 
d="M546 1433q116 -57 92 -170q-10 -50 -64 -76q-28 9 -74 52q-65 -52 -72 -52q-10 -5 -16 -5q-48 0 -43 85q22 102 158 166h19zM450 1069q33 0 27 -52l-206 -970q-8 -36 -48 -47q-36 10 -26 57l205 965q7 33 48 47z" />
    <glyph glyph-name="cent" unicode="&#xa2;" horiz-adv-x="869" 
d="M638 1160q41 0 14 -125l-3 -13h5q218 -17 192 -139q-6 -25 -44 -37q-23 0 -42 69q-32 28 -82 28h-41l-149 -812q2 -14 6 -14q140 0 235 60l1 32q6 28 40 37q38 0 37 -69q-10 -45 -118 -97q-129 -37 -206 -37q-9 0 -12 -14q-4 -19 -13 -83q-8 -35 -51 -46q-33 0 -23 69
l16 74q-77 0 -155 74q-84 170 -34 406l3 14q70 327 280 448l79 27l8 56l10 46q7 32 47 46zM287 532q-59 -277 47 -387q32 -23 78 -23q135 742 143 807h-9q-69 0 -150 -124q-76 -116 -109 -273z" />
    <glyph glyph-name="sterling" unicode="&#xa3;" horiz-adv-x="1055" 
d="M680 1419h4q178 0 367 -81q0 -17 6 -17q-6 -28 -45 -41q-204 67 -348 67q-206 0 -244 -183q-27 -127 58 -439l441 14q17 0 30 -27l-1 -9q-9 -41 -71 -41q-90 0 -383 -8l-1 -5q23 -190 5 -273q-32 -151 -168 -282l-2 -9l606 -13q21 0 29 -36q-6 -28 -48 -36q-533 9 -647 9
q-85 0 -77 36q3 17 129 125q78 92 98 188l6 27q32 151 -71 551q-24 140 -7 223l4 18q31 145 195 220q60 22 135 22z" />
    <glyph glyph-name="currency" unicode="&#xa4;" horiz-adv-x="915" 
d="M947 1043q17 0 30 -27l-2 -9q-3 -17 -150 -175q50 -106 31 -194q-20 -96 -91 -175q-1 -8 115 -157l-5 -27q-7 -13 -37 -23q-14 0 -130 149h-9q-78 -41 -161 -41q-57 0 -130 23q-125 -143 -161 -162q-17 0 -30 27l2 9q3 16 134 166q-58 107 -38 203q19 86 96 175
q1 8 -108 148l6 27q6 13 36 23q10 0 131 -144h9q73 36 157 36h18q30 0 116 -23q132 153 171 171zM399 665l-11 -53q-32 -149 125 -171q0 -5 44 -5q153 0 213 153l14 67q17 167 -131 167h-23q-158 0 -219 -126z" />
    <glyph glyph-name="yen" unicode="&#xa5;" horiz-adv-x="936" 
d="M1058 1227q25 0 32 -35q-19 -33 -212 -153q-157 -100 -159 -106l-34 -162h131q40 0 33 -35q-7 -32 -57 -35h-122l-27 -127h140q47 0 45 -39q-8 -35 -74 -35h-127l-94 -443q-9 -42 -47 -57q-40 0 -26 66l92 434h-136q-41 6 -34 39q7 35 72 35h114l27 127h-149
q-48 0 -39 40q19 30 45 30h158l34 162q-12 18 -292 211q5 22 -4 22q5 23 42 35q13 0 300 -202h13q305 202 355 228z" />
    <glyph glyph-name="brokenbar" unicode="&#xa6;" horiz-adv-x="272" 
d="M442 1429q34 0 21 -60l-137 -642q-10 -47 -48 -47q-24 0 -20 47l140 655q15 47 44 47zM215 382q30 0 24 -47l-142 -668q-14 -47 -44 -47q-34 0 -21 60l139 655q14 47 44 47z" />
    <glyph glyph-name="section" unicode="&#xa7;" horiz-adv-x="858" 
d="M707 1419h5q139 0 321 -99v-23l-2 -9q-1 -6 -27 -22h-9q-209 81 -294 81h-13q-91 -5 -103 -63l-8 -36q-18 -85 248 -383q85 -127 66 -216q-24 -109 -145 -153q-65 -14 -98 -14q-41 0 -146 14l-2 -9q179 -200 152 -325q-13 -60 -85 -121q-71 -41 -156 -41q-287 21 -296 72
l2 9q6 27 40 36q156 -45 273 -45q126 0 143 81l7 32q14 94 -247 383q-86 125 -67 216q30 138 204 153q75 0 228 -50l1 5q-221 251 -196 369l1 5q29 136 203 153zM338 784l-2 -9q-16 -78 87 -185q157 -36 235 -36q140 0 160 90q16 75 -42 144q-18 -3 -20 -9q-194 86 -305 86
q-95 0 -113 -81z" />
    <glyph glyph-name="dieresis" unicode="&#xa8;" horiz-adv-x="868" 
d="M468 1393q10 0 56 -56h8q66 49 91 52q36 0 34 -84q-21 -101 -163 -168h-12q-87 0 -108 152l3 16q27 88 91 88zM856 1393q11 0 56 -56h4q68 43 95 52q42 0 34 -88q-21 -98 -159 -164h-24q-57 0 -98 124q1 40 2 48q32 84 90 84z" />
    <glyph glyph-name="copyright" unicode="&#xa9;" horiz-adv-x="1556" 
d="M1079 1424h18q381 0 506 -305q51 -189 9 -388l-4 -19q-101 -472 -493 -644q-182 -68 -316 -68h-32q-364 0 -505 288q-58 199 -14 406l4 18q102 483 518 653q172 59 309 59zM324 708q-93 -438 197 -580q128 -55 271 -55q432 14 622 329q86 146 122 315q96 450 -205 584
q-115 50 -263 50q-395 0 -621 -324q-89 -161 -123 -319zM1059 1246q170 0 232 -155q4 -44 1 -82q-50 -160 -102 -160h-5q-25 11 -20 32q39 83 46 114l8 37q21 98 -139 137q-22 0 -45 4q-143 0 -304 -159q-101 -134 -136 -297l-7 -32q-68 -320 209 -416q50 -18 106 -18h36
q141 0 204 123l9 41q1 5 -3 5q4 21 44 41q35 0 31 -73q-20 -92 -161 -178q-103 -37 -159 -37q-173 0 -333 151q-98 162 -57 356l4 19q1 4 -3 4l6 9l2 9q80 376 423 507q78 18 113 18z" />
    <glyph glyph-name="ordfeminine" unicode="&#xaa;" horiz-adv-x="616" 
d="M534 1327q107 0 129 -88q0 -55 -8 -132h4q11 0 70 44q15 0 27 -24l-5 -20q-67 -72 -107 -72q-23 3 -45 32q-73 -40 -125 -40h-4q-148 17 -120 148l1 4q28 131 183 148zM414 1175q-18 -84 78 -84q84 0 98 68l8 36q15 68 -77 68q-88 0 -107 -88z" />
    <glyph glyph-name="guillemotleft" unicode="&#xab;" horiz-adv-x="1064" 
d="M736 790q26 -8 21 -32l-2 -8q-39 -37 -286 -160q-167 -92 -168 -96q5 -12 337 -276v-20l-2 -8q-1 -5 -24 -20h-12q-16 0 -330 256q-67 46 -65 68q6 28 256 152q244 135 275 144zM1098 782q23 -8 24 -20l-5 -20q-27 -30 -376 -192l-113 -60l-1 -4q-1 -7 373 -260l7 -24
q-11 -18 -30 -28h-8q-62 26 -441 296l-4 20q5 25 249 136q311 156 325 156z" />
    <glyph glyph-name="logicalnot" unicode="&#xac;" horiz-adv-x="960" 
d="M302 688h660q44 0 34 -44l-73 -344q-6 -28 -40 -40q-32 0 -20 56l65 308h-656q-30 0 -33 32q7 32 63 32z" />
    <glyph glyph-name="registered" unicode="&#xae;" horiz-adv-x="1461" 
d="M1050 1428q426 0 488 -388q14 -144 -20 -303q-81 -380 -351 -588q-219 -149 -461 -149q-423 0 -477 393q-15 141 21 312l1 5q76 355 343 574q226 144 456 144zM320 692q-94 -438 168 -570q102 -50 234 -50q332 0 543 258q132 174 185 425q91 426 -189 560
q-113 41 -226 41q-342 0 -557 -280q-116 -184 -158 -384zM926 1184q177 0 273 -117q31 -72 18 -131q-67 -204 -184 -204q-158 50 -174 50q-6 0 -16 -14l-9 -40q-3 -139 210 -348q8 0 16 -32q-3 -17 -34 -36h-9q-43 0 -204 230q-63 112 -52 204q45 113 119 113l156 -50h31
q54 37 69 104l6 32q29 136 -196 162q-19 0 -49 5q-115 -7 -127 -63l-30 -145q-59 -278 -95 -579q-20 -40 -50 -40q-45 0 -1 208q39 267 79 456q34 160 86 190q74 45 167 45z" />
    <glyph glyph-name="macron" unicode="&#xaf;" horiz-adv-x="848" 
d="M457 1413h552q28 0 33 -32q-7 -32 -63 -32h-552q-28 0 -33 32q7 32 63 32z" />
    <glyph glyph-name="degree" unicode="&#xb0;" horiz-adv-x="564" 
d="M600 1414q106 0 124 -132q0 -56 -7 -92q-41 -192 -196 -244l-41 -4h-4q-152 0 -133 200l5 24q38 180 178 236q38 12 74 12zM412 1170q-34 -164 86 -164q87 0 139 128q4 18 15 52q35 164 -77 164q-84 0 -138 -104z" />
    <glyph glyph-name="plusminus" unicode="&#xb1;" horiz-adv-x="953" 
d="M701 1022q33 0 23 -72l-71 -336h101q69 0 188 5q30 0 34 -43q-8 -34 -81 -39h-67q-71 0 -193 -5l-84 -398l-16 -48q175 5 251 5q51 -5 44 -38q-9 -43 -148 -43q-85 0 -496 -10q-41 9 -35 38q10 44 149 44h115l48 4q7 48 12 72l79 374q-148 -4 -217 -4h-72q-52 4 -45 38
q8 38 104 38q55 5 194 5h53l74 350q20 63 56 63z" />
    <glyph glyph-name="uni00B2" unicode="&#xb2;" horiz-adv-x="764" 
d="M586 1419q170 0 239 -172q4 -75 -7 -128q-19 -90 -114 -236l-1 -4q108 -128 112 -168q-4 -21 -39 -32q-13 0 -107 136q-11 8 -18 8q-162 -156 -261 -156q-143 24 -117 144q28 133 175 188l29 4q80 -7 167 -80h12q77 96 100 204q32 153 -96 208q-45 20 -96 20
q-60 0 -92 -56q-46 -120 -69 -120h-16q-21 17 -17 32q50 131 100 172q46 36 116 36zM336 807q-16 -76 80 -76q128 45 192 132q-72 67 -129 72h-28q-71 0 -115 -128z" />
    <glyph glyph-name="uni00B3" unicode="&#xb3;" horiz-adv-x="652" 
d="M607 1424q151 0 177 -124q3 -61 -3 -92l-4 -16q-8 -38 -57 -120q43 -80 19 -192q-32 -151 -185 -192q-46 -8 -73 -8q-164 0 -170 68q4 17 35 32h8q56 -35 124 -36q117 0 164 56q26 49 35 88q15 140 -18 140q-48 -24 -90 -24h-12q-76 0 -108 56l3 12q10 49 138 68
q12 0 88 -20q26 29 39 88q32 152 -124 152q-117 0 -172 -56h-20q-20 17 -17 32q15 69 223 88z" />
    <glyph glyph-name="acute" unicode="&#xb4;" horiz-adv-x="656" 
d="M818 1406q25 0 30 -32q-4 -16 -287 -220q-29 -17 -202 -140h-20q-7 0 -18 28q6 19 305 232q186 132 192 132z" />
    <glyph glyph-name="mu" unicode="&#xb5;" horiz-adv-x="897" 
d="M411 996q30 0 29 -41q-130 -307 -172 -506q-53 -250 38 -315q60 -50 157 -50q179 0 271 133q55 89 85 232q40 188 43 501q4 15 39 32q48 0 28 -164q1 -190 -35 -360l-5 -23q-61 -286 -244 -378q-99 -46 -192 -46h-5q-132 0 -219 87h-9l-37 -178q-10 -44 -49 -59
q-41 0 -27 68l66 310q4 127 20 201l6 27q148 529 212 529z" />
    <glyph glyph-name="paragraph" unicode="&#xb6;" horiz-adv-x="1051" 
d="M976 1424q200 -9 228 -125q3 -53 -4 -85l-241 -1178q-4 -19 -44 -36q-21 0 -28 36q47 240 78 385l45 215q-93 -27 -185 -49q-2 -32 -3 -36l-99 -488v-18q-7 -30 -50 -45q-33 15 -25 49l102 524q-109 -13 -174 -18q-245 0 -276 215q-15 99 7 202l1 4q72 339 466 426
q104 22 202 22zM378 967q-42 -264 92 -322q42 -14 100 -14h18q122 0 178 18l136 699h-9q-182 0 -382 -130q-101 -99 -133 -251zM978 1348l-1 -5q-35 -162 -136 -680h5q54 9 146 36q17 -9 25 -9l32 152l86 421q-19 85 -139 85h-18z" />
    <glyph glyph-name="periodcentered" unicode="&#xb7;" horiz-adv-x="480" 
d="M351 840q11 0 56 -56h4q68 43 95 52q42 0 33 -88q-19 -93 -150 -160q-16 -4 -28 -4q-78 0 -105 148l4 20q27 88 91 88z" />
    <glyph glyph-name="periodcentered" unicode="&#x2219;" horiz-adv-x="480" 
d="M351 840q11 0 56 -56h4q68 43 95 52q42 0 33 -88q-19 -93 -150 -160q-16 -4 -28 -4q-78 0 -105 148l4 20q27 88 91 88z" />
    <glyph glyph-name="cedilla" unicode="&#xb8;" horiz-adv-x="524" 
d="M142 0q21 0 22 -31q-27 -57 -37 -105q-5 -25 21 -31q10 0 141 24q100 -21 75 -142q-38 -122 -145 -122h-7q-161 11 -153 49q5 22 37 28q81 -21 125 -21q73 0 87 69q12 56 -18 80h-24l-130 -21q-73 0 -63 94l2 11q21 97 67 118z" />
    <glyph glyph-name="uni00B9" unicode="&#xb9;" horiz-adv-x="548" 
d="M598 1421q36 0 12 -116l-17 -76l-104 -508h60q51 -7 45 -36q-22 -32 -47 -32q-280 0 -275 24q-2 7 0 16q6 29 50 32h84q4 0 3 -4q9 4 13 4l48 224l74 368h-8q-132 -88 -147 -88q-24 0 -21 32l2 8q95 78 228 152z" />
    <glyph glyph-name="ordmasculine" unicode="&#xba;" horiz-adv-x="500" 
d="M565 1434q102 0 101 -144q5 -17 -5 -64l-1 -4q-36 -169 -160 -204q-15 -4 -32 -4q-97 0 -113 112q-6 45 5 96q33 156 151 204q42 8 54 8zM424 1222q-31 -144 53 -144h8q80 0 111 144q31 148 -49 148q-92 0 -123 -148z" />
    <glyph glyph-name="guillemotright" unicode="&#xbb;" horiz-adv-x="1080" 
d="M673 811q19 0 320 -264q84 -59 86 -84q-8 -35 -180 -92q-353 -148 -398 -160q-16 7 -23 24l4 16q4 22 243 108l255 108q-322 275 -341 300v16q2 12 34 28zM344 807q18 0 220 -188q126 -105 122 -124l-1 -4q-7 -31 -183 -108q-289 -152 -327 -164q-24 10 -24 20l4 20
q41 38 347 184q89 46 92 52q-2 7 -278 256q-9 15 -6 28q2 12 34 28z" />
    <glyph glyph-name="onequarter" unicode="&#xbc;" horiz-adv-x="1586" 
d="M802 1426q39 0 25 -66l-111 -519q-8 -37 -37 -53h-22q-25 11 -14 62l111 523q9 38 48 53zM1751 1413q21 0 27 -36q-3 -15 -346 -296q-1275 -1066 -1290 -1068h-5q-23 0 -27 36q3 15 314 270q1310 1094 1322 1094h5zM1512 664q40 0 26 -66l-116 -545q-8 -38 -47 -53
q-39 0 -25 66l36 173h-288q-67 0 -57 44l9 18q70 332 96 332l10 5h22q12 -1 19 -40l-7 -9q-19 -89 -67 -275h279l63 297q12 53 47 53z" />
    <glyph glyph-name="onehalf" unicode="&#xbd;" horiz-adv-x="1780" 
d="M818 1440q32 0 22 -68l-114 -534q-7 -36 -37 -50h-9q-41 0 -27 68l112 525q20 59 53 59zM1784 1426q24 0 29 -36q-6 -24 -733 -616q-2 -10 -930 -774h-27q-10 3 -16 32q4 21 772 647q2 10 890 743q5 0 15 4zM1347 693q277 -41 229 -267l-9 -41q-5 -23 -51 -136
q155 -85 177 -190q-13 -36 -44 -36q-125 155 -179 158h-9q-127 -163 -261 -163h-19q-116 0 -148 91q-5 17 2 49q33 154 241 177q56 0 172 -45h9q29 53 41 108l3 14q30 142 -74 186q-48 18 -87 18h-50q-79 0 -112 -64q-47 -113 -88 -113q-25 0 -24 36q76 218 258 218h23z
M1108 163l-5 -23q20 -49 90 -49h14q116 0 198 126q-70 46 -149 46q-94 0 -137 -73z" />
    <glyph glyph-name="threequarters" unicode="&#xbe;" horiz-adv-x="1588" 
d="M638 1428q147 0 168 -111q5 -55 -3 -93q-7 -32 -50 -111q32 -80 18 -146l-6 -27q-54 -177 -215 -177h-40q-144 12 -133 62q18 40 53 40q28 -31 118 -31h13q111 0 133 106l4 18q14 86 -13 106q-25 -11 -80 -22q-116 19 -105 71q10 44 129 67q55 -8 68 -18q23 6 35 62
q28 133 -91 133q-108 0 -161 -49h-22q-11 3 -16 31q12 57 132 80q35 9 64 9zM1760 1410q18 -11 21 -31q-4 -20 -724 -612q-903 -754 -915 -754q-23 0 -33 31q5 25 315 271q1 8 642 536q667 559 677 559h17zM1469 665q26 0 21 -49l-121 -567q-14 -49 -45 -49q-34 9 -25 53
l39 186h-288q-66 0 -55 49q74 351 114 351h17q24 -17 19 -40q-60 -242 -69 -284h279l64 301q10 49 50 49z" />
    <glyph glyph-name="questiondown" unicode="&#xbf;" horiz-adv-x="946" 
d="M829 1423q99 -47 80 -136q-23 -69 -73 -69l-50 46q-39 -24 -76 -41q-42 15 -31 68q65 132 150 132zM783 1118q46 0 15 -250q-34 -162 -163 -191h-5l-169 41h-9q-65 0 -160 -200q-21 -56 -28 -91q-57 -266 137 -336q58 -18 132 -18q171 0 266 95q6 5 22 59q11 50 9 169
q10 36 44 36q46 0 22 -196l-5 -22q-32 -152 -275 -205q-59 -9 -98 -9q-306 0 -338 268q-5 86 12 164q47 222 229 350q45 14 53 14q150 -41 163 -41h14q45 0 64 86l7 36q22 103 13 205q6 29 48 36z" />
    <glyph glyph-name="Agrave" unicode="&#xc0;" horiz-adv-x="904" 
d="M726 1413q98 0 109 -741q2 -275 -19 -616q-7 -35 -47 -47q-47 0 -18 178q15 376 8 499h-5q-351 -52 -353 -61q-57 -135 -227 -606q-30 -19 -37 -19q-28 0 -28 42q414 1172 567 1352q32 19 50 19zM690 1306q-222 -454 -252 -597q13 0 318 51l1 5q6 269 -46 527l-11 14h-10
zM525 1699l21 4q340 -211 373 -241v-20q0 -5 -21 -23l-21 -4q-340 211 -373 241l1 12q0 20 20 31z" />
    <glyph glyph-name="Aacute" unicode="&#xc1;" horiz-adv-x="904" 
d="M726 1413q98 0 109 -741q2 -275 -19 -616q-7 -35 -47 -47q-47 0 -18 178q15 376 8 499h-5q-351 -52 -353 -61q-57 -135 -227 -606q-30 -19 -37 -19q-28 0 -28 42q414 1172 567 1352q32 19 50 19zM690 1306q-222 -454 -252 -597q13 0 318 51l1 5q6 269 -46 527l-11 14h-10
zM1055 1698q23 -5 21 -38q-5 -15 -313 -172q-30 -12 -217 -105l-19 3q-7 2 -12 32q9 18 333 181q201 100 207 99z" />
    <glyph glyph-name="Acircumflex" unicode="&#xc2;" horiz-adv-x="904" 
d="M726 1413q98 0 109 -741q2 -275 -19 -616q-7 -35 -47 -47q-47 0 -18 178q15 376 8 499h-5q-351 -52 -353 -61q-57 -135 -227 -606q-30 -19 -37 -19q-28 0 -28 42q414 1172 567 1352q32 19 50 19zM690 1306q-222 -454 -252 -597q13 0 318 51l1 5q6 269 -46 527l-11 14h-10
zM811 1695q12 0 134 -177q39 -50 44 -68q-3 -17 -27 -25q-11 0 -156 205q1 5 -10 9q-54 -38 -283 -211h-17q-7 1 -10 20q2 10 270 213q48 34 55 34z" />
    <glyph glyph-name="Atilde" unicode="&#xc3;" horiz-adv-x="904" 
d="M726 1413q98 0 109 -741q2 -275 -19 -616q-7 -35 -47 -47q-47 0 -18 178q15 376 8 499h-5q-351 -52 -353 -61q-57 -135 -227 -606q-30 -19 -37 -19q-28 0 -28 42q414 1172 567 1352q32 19 50 19zM690 1306q-222 -454 -252 -597q13 0 318 51l1 5q6 269 -46 527l-11 14h-10
zM658 1635q47 0 148 -128q28 -12 46 -12q40 0 139 92h8q24 0 30 -28q-39 -66 -149 -120q-37 -8 -50 -8q-68 0 -157 124q-14 16 -37 16q-23 -16 -87 -88q-9 0 -17 -4q-23 10 -23 20l3 16q76 120 146 120z" />
    <glyph glyph-name="Adieresis" unicode="&#xc4;" horiz-adv-x="932" 
d="M754 1413q98 0 109 -741q2 -275 -19 -616q-7 -35 -47 -47q-47 0 -18 178q15 376 8 499h-5q-351 -52 -353 -61q-57 -135 -227 -606q-30 -19 -37 -19q-28 0 -28 42q414 1172 567 1352q32 19 50 19zM718 1306q-222 -454 -252 -597q13 0 318 51l1 5q6 269 -46 527l-11 14h-10
zM530 1685q10 0 56 -56h8q66 49 91 52q36 0 35 -84q-22 -101 -164 -168h-12q-87 0 -108 152l4 16q26 88 90 88zM918 1685q11 0 56 -56h4q68 43 95 52q42 0 34 -88q-21 -98 -159 -164h-24q-57 0 -98 124q1 40 2 48q32 84 90 84z" />
    <glyph glyph-name="Aring" unicode="&#xc5;" horiz-adv-x="904" 
d="M726 1413q98 0 109 -741q2 -275 -19 -616q-7 -35 -47 -47q-47 0 -18 178q15 376 8 499h-5q-351 -52 -353 -61q-57 -135 -227 -606q-30 -19 -37 -19q-28 0 -28 42q414 1172 567 1352q32 19 50 19zM690 1306q-222 -454 -252 -597q13 0 318 51l1 5q6 269 -46 527l-11 14h-10
zM774 1716q77 0 86 -92q1 -35 -5 -63q-21 -97 -112 -119h-16q-99 0 -86 136l3 10q19 89 97 123q19 5 33 5zM686 1583q-21 -98 61 -98q49 0 66 82q19 90 -40 106h-11q-57 0 -76 -90z" />
    <glyph glyph-name="AE" unicode="&#xc6;" horiz-adv-x="1813" 
d="M1383 1440q626 -5 622 -27l4 -23q-19 -36 -53 -36q-397 9 -535 9l-30 5q-61 -262 -92 -409l-37 -173h454q69 0 61 -41l-2 -9q-17 -27 -70 -27h-459l-136 -623h4q607 -6 603 -27l4 -23q-6 -28 -49 -36q-641 0 -635 27q-7 0 -11 32l10 23l134 631q-361 -9 -402 -9
l-608 -681q-11 0 -20 -5q-19 0 -29 32q4 19 607 695q526 599 609 686q47 9 56 9zM1285 1295q-7 -12 -443 -504l-3 -14q3 0 28 5q238 4 277 4l43 5q16 61 23 90l88 414h-13z" />
    <glyph glyph-name="Ccedilla" unicode="&#xc7;" horiz-adv-x="1433" 
d="M499 55q-190 85 -253 305q-32 174 7 356l1 5q78 370 376 577q200 120 446 120q341 0 495 -217q10 -38 1 -79q-31 -144 -91 -171q-25 0 -35 33q39 75 55 152q20 92 -256 185q-90 23 -194 23q-426 0 -627 -365q-70 -134 -97 -263q-96 -449 211 -591q137 -51 271 -51
q278 0 486 157h14q28 0 30 -32q-8 -38 -168 -116q-170 -83 -378 -83q-139 0 -243 35q-13 -34 -20 -64q-5 -25 21 -31q10 0 141 24q100 -21 75 -142q-38 -122 -145 -122h-7q-161 11 -153 49q5 22 37 28q81 -21 125 -21q73 0 87 69q12 56 -18 80h-24l-130 -21q-73 0 -63 94
l2 11q8 39 21 66z" />
    <glyph glyph-name="Egrave" unicode="&#xc8;" horiz-adv-x="1074" 
d="M814 1418h9q390 -14 411 -50l2 -9l-5 -23q-18 -22 -37 -22q-255 32 -396 32q-260 0 -347 -82q-2 -8 -16 -27l-89 -485h589q44 -6 36 -41q-5 -26 -56 -31h-575l-10 -5q-12 -79 -91 -494q-12 -54 125 -90q96 -19 209 -19q145 0 387 32q35 -8 28 -41q-9 -39 -192 -49
q-119 -14 -234 -14h-13q-332 0 -376 131q-31 0 99 612q-5 0 90 489q31 144 332 181q54 5 120 5zM578 1701l21 5q354 -191 389 -220v-19q1 -5 -19 -24l-21 -5q-355 191 -389 220v11q-1 20 19 32z" />
    <glyph glyph-name="Eacute" unicode="&#xc9;" horiz-adv-x="1074" 
d="M814 1418h9q390 -14 411 -50l2 -9l-5 -23q-18 -22 -37 -22q-255 32 -396 32q-260 0 -347 -82q-2 -8 -16 -27l-89 -485h589q44 -6 36 -41q-5 -26 -56 -31h-575l-10 -5q-12 -79 -91 -494q-12 -54 125 -90q96 -19 209 -19q145 0 387 32q35 -8 28 -41q-9 -39 -192 -49
q-119 -14 -234 -14h-13q-332 0 -376 131q-31 0 99 612q-5 0 90 489q31 144 332 181q54 5 120 5zM1160 1716q22 -7 16 -41q-7 -15 -322 -142q-31 -9 -223 -85l-18 5q-6 3 -8 34q11 18 343 149q206 82 212 80z" />
    <glyph glyph-name="Ecircumflex" unicode="&#xca;" horiz-adv-x="1074" 
d="M814 1418h9q390 -14 411 -50l2 -9l-5 -23q-18 -22 -37 -22q-255 32 -396 32q-260 0 -347 -82q-2 -8 -16 -27l-89 -485h589q44 -6 36 -41q-5 -26 -56 -31h-575l-10 -5q-12 -79 -91 -494q-12 -54 125 -90q96 -19 209 -19q145 0 387 32q35 -8 28 -41q-9 -39 -192 -49
q-119 -14 -234 -14h-13q-332 0 -376 131q-31 0 99 612q-5 0 90 489q31 144 332 181q54 5 120 5zM908 1703q12 0 134 -177q39 -50 44 -68q-4 -17 -27 -25q-11 0 -157 205q1 5 -9 9q-54 -38 -284 -211h-17q-6 1 -9 20q2 10 270 213q48 34 55 34z" />
    <glyph glyph-name="Edieresis" unicode="&#xcb;" horiz-adv-x="1074" 
d="M814 1418h9q390 -14 411 -50l2 -9l-5 -23q-18 -22 -37 -22q-255 32 -396 32q-260 0 -347 -82q-2 -8 -16 -27l-89 -485h589q44 -6 36 -41q-5 -26 -56 -31h-575l-10 -5q-12 -79 -91 -494q-12 -54 125 -90q96 -19 209 -19q145 0 387 32q35 -8 28 -41q-9 -39 -192 -49
q-119 -14 -234 -14h-13q-332 0 -376 131q-31 0 99 612q-5 0 90 489q31 144 332 181q54 5 120 5zM586 1693q10 0 56 -56h8q66 49 91 52q36 0 34 -84q-21 -101 -163 -168h-12q-87 0 -108 152l3 16q27 88 91 88zM974 1693q11 0 56 -56h4q68 43 95 52q42 0 33 -88
q-20 -98 -158 -164h-24q-57 0 -98 124q0 40 2 48q32 84 90 84z" />
    <glyph glyph-name="Igrave" unicode="&#xcc;" horiz-adv-x="1157" 
d="M1322 1413q24 0 28 -36q-9 -41 -141 -41q-24 0 -316 -10q-2 -9 -7 -9l3 -9l-245 -1217q349 9 385 9q30 -9 24 -36q-9 -41 -141 -41l-766 -23q-28 0 -28 41q8 36 168 36q239 10 280 10l248 1235q-39 0 -394 -9q-39 8 -33 36q9 41 141 41zM554 1705l20 5q366 -174 402 -201
l2 -19q0 -5 -19 -25l-20 -5q-366 174 -403 201v11q-2 19 18 33z" />
    <glyph glyph-name="Iacute" unicode="&#xcd;" horiz-adv-x="1157" 
d="M1322 1413q24 0 28 -36q-9 -41 -141 -41q-24 0 -316 -10q-2 -9 -7 -9l3 -9l-245 -1217q349 9 385 9q30 -9 24 -36q-9 -41 -141 -41l-766 -23q-28 0 -28 41q8 36 168 36q239 10 280 10l248 1235q-39 0 -394 -9q-39 8 -33 36q9 41 141 41zM1260 1700q22 -8 16 -42
q-8 -15 -326 -135q-31 -8 -224 -79l-18 6q-5 2 -6 34q12 18 346 141q207 76 212 75z" />
    <glyph glyph-name="Icircumflex" unicode="&#xce;" horiz-adv-x="1157" 
d="M1322 1413q24 0 28 -36q-9 -41 -141 -41q-24 0 -316 -10q-2 -9 -7 -9l3 -9l-245 -1217q349 9 385 9q30 -9 24 -36q-9 -41 -141 -41l-766 -23q-28 0 -28 41q8 36 168 36q239 10 280 10l248 1235q-39 0 -394 -9q-39 8 -33 36q9 41 141 41zM908 1703q12 0 134 -177
q39 -50 44 -68q-3 -17 -27 -25q-11 0 -157 205q2 5 -9 9q-54 -38 -283 -211h-17q-7 1 -10 20q2 10 270 213q48 34 55 34z" />
    <glyph glyph-name="Idieresis" unicode="&#xcf;" horiz-adv-x="1157" 
d="M1322 1413q24 0 28 -36q-9 -41 -141 -41q-24 0 -316 -10q-2 -9 -7 -9l3 -9l-245 -1217q349 9 385 9q30 -9 24 -36q-9 -41 -141 -41l-766 -23q-28 0 -28 41q8 36 168 36q239 10 280 10l248 1235q-39 0 -394 -9q-39 8 -33 36q9 41 141 41zM666 1693q10 0 56 -56h8
q66 49 91 52q36 0 34 -84q-21 -101 -163 -168h-12q-87 0 -108 152l3 16q27 88 91 88zM1054 1693q11 0 56 -56h4q68 43 95 52q42 0 34 -88q-21 -98 -159 -164h-24q-57 0 -98 124q1 40 2 48q32 84 90 84z" />
    <glyph glyph-name="Eth" unicode="&#xd0;" horiz-adv-x="1391" 
d="M887 1445h14q291 0 455 -360q100 -307 50 -545l-1 -5q-76 -358 -522 -503q-125 -32 -220 -32h-9q-235 0 -285 138q5 21 0 42l69 305l46 217q14 67 49 207h-185q-39 0 -47 37q9 42 78 42h171l46 217q40 187 210 226q40 14 81 14zM689 1269q-41 -168 -62 -267l-3 -14h231
q55 0 47 -37q-9 -42 -78 -42h-217l-10 -46l-153 -697q-9 -45 122 -83q73 -9 113 -9q340 0 564 263q66 98 90 208q56 265 -84 586q-150 240 -364 240q-143 0 -195 -97z" />
    <glyph glyph-name="Ntilde" unicode="&#xd1;" horiz-adv-x="929" 
d="M439 1427q34 0 76 -216q257 -966 269 -999h5l254 1138q16 32 43 32h9q24 -17 19 -41l-291 -1305q-4 -21 -43 -36q-34 0 -67 176l-276 1030h-4l-233 -1138q-12 -36 -44 -36h-9q-17 5 -19 36l267 1323q5 21 44 36zM702 1659q47 0 149 -128q27 -12 45 -12q40 0 140 92h8
q24 0 30 -28q-39 -66 -149 -120q-37 -8 -50 -8q-68 0 -158 124q-13 16 -36 16q-24 -16 -87 -88q-9 0 -17 -4q-24 10 -24 20l4 16q75 120 145 120z" />
    <glyph glyph-name="Ograve" unicode="&#xd2;" horiz-adv-x="1298" 
d="M942 1413q306 0 403 -280q52 -197 3 -426l-4 -18q-120 -506 -456 -640q-128 -49 -233 -49q-306 0 -403 280q-50 200 -2 427l1 4q113 529 493 666q119 36 198 36zM324 720q-113 -534 226 -631q38 -13 99 -13h45q303 0 478 328q70 141 100 285q115 539 -224 635
q-38 13 -100 13h-44q-315 0 -493 -355q-62 -143 -87 -262zM761 1686l20 5q365 -176 401 -203l1 -19q1 -5 -19 -25l-20 -5q-365 176 -401 203l-1 11q0 20 19 33z" />
    <glyph glyph-name="Oacute" unicode="&#xd3;" horiz-adv-x="1298" 
d="M942 1413q306 0 403 -280q52 -197 3 -426l-4 -18q-120 -506 -456 -640q-128 -49 -233 -49q-306 0 -403 280q-50 200 -2 427l1 4q113 529 493 666q119 36 198 36zM324 720q-113 -534 226 -631q38 -13 99 -13h45q303 0 478 328q70 141 100 285q115 539 -224 635
q-38 13 -100 13h-44q-315 0 -493 -355q-62 -143 -87 -262zM1280 1682q23 -9 14 -43q-8 -15 -326 -128q-31 -8 -224 -75l-18 6q-6 3 -6 35q12 17 347 134q208 73 213 71z" />
    <glyph glyph-name="Ocircumflex" unicode="&#xd4;" horiz-adv-x="1298" 
d="M942 1413q306 0 403 -280q52 -197 3 -426l-4 -18q-120 -506 -456 -640q-128 -49 -233 -49q-306 0 -403 280q-50 200 -2 427l1 4q113 529 493 666q119 36 198 36zM324 720q-113 -534 226 -631q38 -13 99 -13h45q303 0 478 328q70 141 100 285q115 539 -224 635
q-38 13 -100 13h-44q-315 0 -493 -355q-62 -143 -87 -262zM1024 1703q12 0 133 -177q40 -50 45 -68q-4 -17 -27 -25q-11 0 -157 205q1 5 -9 9q-54 -38 -284 -211h-17q-7 1 -10 20q3 10 271 213q48 34 55 34z" />
    <glyph glyph-name="Otilde" unicode="&#xd5;" horiz-adv-x="1298" 
d="M324 720q-113 -534 226 -631q38 -13 99 -13h45q303 0 478 328q70 141 100 285q115 539 -224 635q-38 13 -100 13h-44q-315 0 -493 -355q-62 -143 -87 -262zM942 1413q306 0 403 -280q52 -197 3 -426l-4 -18q-120 -506 -456 -640q-128 -49 -233 -49q-306 0 -403 280
q-50 200 -2 427l1 4q113 529 493 666q119 36 198 36zM845 1651q47 0 149 -128q27 -12 45 -12q40 0 140 92h8q24 0 30 -28q-39 -66 -150 -120q-36 -8 -49 -8q-68 0 -158 124q-14 16 -37 16q-23 -16 -86 -88q-9 0 -17 -4q-24 10 -24 20l3 16q76 120 146 120z" />
    <glyph glyph-name="Odieresis" unicode="&#xd6;" horiz-adv-x="1298" 
d="M942 1413q306 0 403 -280q52 -197 3 -426l-4 -18q-120 -506 -456 -640q-128 -49 -233 -49q-306 0 -403 280q-50 200 -2 427l1 4q113 529 493 666q119 36 198 36zM324 720q-113 -534 226 -631q38 -13 99 -13h45q303 0 478 328q70 141 100 285q115 539 -224 635
q-38 13 -100 13h-44q-315 0 -493 -355q-62 -143 -87 -262zM720 1684q10 0 56 -56h8q65 49 91 52q36 0 34 -84q-21 -101 -163 -168h-12q-87 0 -108 152l3 16q27 88 91 88zM1108 1684q11 0 56 -56h4q68 43 95 52q42 0 33 -88q-20 -98 -158 -164h-24q-57 0 -98 124q0 40 2 48
q32 84 90 84z" />
    <glyph glyph-name="multiply" unicode="&#xd7;" horiz-adv-x="674" 
d="M728 1002h25q12 -3 14 -30q-3 -14 -201 -190l-6 -8q109 -178 128 -216l2 -9q-4 -20 -41 -34q-23 7 -146 208q-7 0 -253 -216h-21q-6 0 -17 21l4 21q246 219 248 229l-103 173l4 17q7 16 35 26q18 0 122 -161h9z" />
    <glyph glyph-name="Oslash" unicode="&#xd8;" horiz-adv-x="1498" 
d="M1043 1423q313 0 415 -300h4q140 99 160 99q26 0 29 -31q-9 -23 -182 -144l-1 -4q16 -177 -18 -340q-106 -498 -462 -654q-130 -49 -235 -49q-296 0 -407 273h-9q-152 -103 -161 -103q-38 8 -32 36q4 17 187 143q-22 189 17 376q100 471 430 636q114 54 256 62h9z
M418 716q-32 -152 -18 -318h4q23 12 980 672v4q1 71 -75 170q-107 103 -261 103h-44q-282 0 -453 -282q-90 -150 -133 -349zM415 322q72 -246 332 -246h45q277 0 447 273q96 153 139 358q29 133 21 287h-14l-963 -663z" />
    <glyph glyph-name="Ugrave" unicode="&#xd9;" horiz-adv-x="1146" 
d="M1197 1408q48 0 33 -161q7 -350 -57 -651q-86 -404 -323 -524q-140 -72 -275 -72q-342 0 -378 309q-3 133 25 265l2 9q71 336 288 785l30 13q33 -12 28 -36q-209 -457 -275 -767q-84 -397 115 -470q82 -36 171 -36q264 0 403 206q75 124 122 341q63 298 53 753
q3 17 38 36zM691 1686l20 5q365 -176 401 -203l1 -19q1 -5 -19 -25l-20 -5q-365 176 -401 203l-1 11q0 20 19 33z" />
    <glyph glyph-name="Uacute" unicode="&#xda;" horiz-adv-x="1146" 
d="M1197 1408q48 0 33 -161q7 -350 -57 -651q-86 -404 -323 -524q-140 -72 -275 -72q-342 0 -378 309q-3 133 25 265l2 9q71 336 288 785l30 13q33 -12 28 -36q-209 -457 -275 -767q-84 -397 115 -470q82 -36 171 -36q264 0 403 206q75 124 122 341q63 298 53 753
q3 17 38 36zM1291 1682q22 -9 13 -43q-8 -15 -326 -128q-30 -8 -224 -75l-17 6q-7 3 -7 35q12 17 347 134q208 73 214 71z" />
    <glyph glyph-name="Ucircumflex" unicode="&#xdb;" horiz-adv-x="1146" 
d="M1197 1408q48 0 33 -161q7 -350 -57 -651q-86 -404 -323 -524q-140 -72 -275 -72q-342 0 -378 309q-3 133 25 265l2 9q71 336 288 785l30 13q33 -12 28 -36q-209 -457 -275 -767q-84 -397 115 -470q82 -36 171 -36q264 0 403 206q75 124 122 341q63 298 53 753
q3 17 38 36zM954 1703q12 0 133 -177q40 -50 45 -68q-4 -17 -27 -25q-11 0 -157 205q1 5 -9 9q-54 -38 -284 -211h-17q-7 1 -9 20q2 10 270 213q48 34 55 34z" />
    <glyph glyph-name="Udieresis" unicode="&#xdc;" horiz-adv-x="1146" 
d="M1197 1408q48 0 33 -161q7 -350 -57 -651q-86 -404 -323 -524q-140 -72 -275 -72q-342 0 -378 309q-3 133 25 265l2 9q71 336 288 785l30 13q33 -12 28 -36q-209 -457 -275 -767q-84 -397 115 -470q82 -36 171 -36q264 0 403 206q75 124 122 341q63 298 53 753
q3 17 38 36zM690 1684q10 0 56 -56h8q66 49 91 52q36 0 34 -84q-21 -101 -163 -168h-12q-87 0 -108 152l3 16q27 88 91 88zM1078 1684q11 0 56 -56h4q68 43 95 52q42 0 33 -88q-20 -98 -158 -164h-24q-57 0 -98 124q0 40 2 48q32 84 90 84z" />
    <glyph glyph-name="Yacute" unicode="&#xdd;" horiz-adv-x="1174" 
d="M1342 1408q30 -9 24 -37l-1 -4q-4 -17 -402 -471q-133 -150 -135 -160l-129 -695q-18 -41 -46 -41q-41 0 -12 133q120 617 104 617q-366 561 -363 576q4 17 35 36h19q44 -43 354 -548h13q20 15 514 585q24 4 25 9zM1281 1682q22 -9 14 -43q-8 -15 -326 -128
q-31 -8 -224 -75l-18 6q-7 3 -7 35q12 17 348 134q207 73 213 71z" />
    <glyph glyph-name="Thorn" unicode="&#xde;" horiz-adv-x="936" 
d="M463 1426q38 -14 31 -46l-47 -202l-24 -115h4q205 78 330 78h5q230 0 234 -239q9 -107 -15 -221q-43 -203 -218 -308q-100 -33 -163 -33q-125 0 -328 79l-1 -5l-89 -377q-5 -22 -45 -37q-29 0 -28 41l304 1325q9 43 50 60zM395 957q-16 -78 -104 -451q143 -87 312 -87h32
q142 0 202 101q47 74 60 133l17 83q30 141 -23 281q-50 50 -141 50q-192 0 -354 -106z" />
    <glyph glyph-name="germandbls" unicode="&#xdf;" horiz-adv-x="897" 
d="M623 1426h14q249 0 321 -170q26 -78 5 -178q-36 -165 -176 -326q-31 -28 -156 -50l-3 -10q0 -7 92 -41q181 -162 152 -298l-1 -9q-38 -176 -318 -307q-79 -23 -139 -28q-131 0 -166 101q2 41 1 50q26 78 49 78h9q37 0 28 -41l-11 -55q3 -55 88 -55h37q168 0 327 202
q19 41 22 59q25 116 -136 243q-131 35 -115 106q15 75 195 101q115 134 147 284q58 271 -276 271q-147 0 -165 -83l-1 -4q-22 -104 -91 -409l-151 -733q-9 -63 -12 -78q-6 -31 -52 -46q-32 17 -26 46l140 683l58 271q22 103 67 293q18 82 149 119q36 14 94 14z" />
    <glyph glyph-name="agrave" unicode="&#xe0;" 
d="M688 1022q258 0 314 -270q8 -145 -13 -246q-5 -20 -48 -154q-33 -155 61 -256h19q56 20 68 20q8 0 21 -34q-40 -63 -100 -63h-9q-90 0 -142 174h-9q-149 -193 -369 -193q-202 0 -277 174q-39 132 2 327l3 10q77 366 329 482q82 29 150 29zM283 501q-89 -419 200 -419h49
q191 0 316 236q43 113 48 140l17 77q58 276 -95 371q-67 39 -155 39q-225 0 -332 -289q-28 -65 -48 -155zM538 1266l20 5q365 -176 401 -203l1 -19q1 -5 -19 -25l-20 -5q-365 176 -401 203l-1 11q-1 20 19 33z" />
    <glyph glyph-name="aacute" unicode="&#xe1;" 
d="M688 1022q258 0 314 -270q8 -145 -13 -246q-5 -20 -48 -154q-33 -155 61 -256h19q56 20 68 20q8 0 21 -34q-40 -63 -100 -63h-9q-90 0 -142 174h-9q-149 -193 -369 -193q-202 0 -277 174q-39 132 2 327l3 10q77 366 329 482q82 29 150 29zM283 501q-89 -419 200 -419h49
q191 0 316 236q43 113 48 140l17 77q58 276 -95 371q-67 39 -155 39q-225 0 -332 -289q-28 -65 -48 -155zM985 1262q22 -9 14 -43q-8 -15 -326 -128q-31 -8 -224 -75l-18 6q-6 3 -6 35q11 17 347 134q208 73 213 71z" />
    <glyph glyph-name="acircumflex" unicode="&#xe2;" 
d="M688 1022q258 0 314 -270q8 -145 -13 -246q-5 -20 -48 -154q-33 -155 61 -256h19q56 20 68 20q8 0 21 -34q-40 -63 -100 -63h-9q-90 0 -142 174h-9q-149 -193 -369 -193q-202 0 -277 174q-39 132 2 327l3 10q77 366 329 482q82 29 150 29zM283 501q-89 -419 200 -419h49
q191 0 316 236q43 113 48 140l17 77q58 276 -95 371q-67 39 -155 39q-225 0 -332 -289q-28 -65 -48 -155zM787 1309q12 0 134 -177q39 -50 44 -68q-3 -17 -27 -25q-11 0 -157 205q1 5 -9 9q-54 -38 -284 -211h-17q-6 1 -9 20q2 10 270 213q48 34 55 34z" />
    <glyph glyph-name="atilde" unicode="&#xe3;" 
d="M688 1022q258 0 314 -270q8 -145 -13 -246q-5 -20 -48 -154q-33 -155 61 -256h19q56 20 68 20q8 0 21 -34q-40 -63 -100 -63h-9q-90 0 -142 174h-9q-149 -193 -369 -193q-202 0 -277 174q-39 132 2 327l3 10q77 366 329 482q82 29 150 29zM283 501q-89 -419 200 -419h49
q191 0 316 236q43 113 48 140l17 77q58 276 -95 371q-67 39 -155 39q-225 0 -332 -289q-28 -65 -48 -155zM614 1251q47 0 149 -128q27 -12 45 -12q40 0 140 92h8q24 0 30 -28q-39 -66 -150 -120q-36 -8 -49 -8q-68 0 -158 124q-14 16 -37 16q-23 -16 -86 -88q-9 0 -17 -4
q-24 10 -24 20l3 16q76 120 146 120z" />
    <glyph glyph-name="adieresis" unicode="&#xe4;" 
d="M688 1022q258 0 314 -270q8 -145 -13 -246q-5 -20 -48 -154q-33 -155 61 -256h19q56 20 68 20q8 0 21 -34q-40 -63 -100 -63h-9q-90 0 -142 174h-9q-149 -193 -369 -193q-202 0 -277 174q-39 132 2 327l3 10q77 366 329 482q82 29 150 29zM283 501q-89 -419 200 -419h49
q191 0 316 236q43 113 48 140l17 77q58 276 -95 371q-67 39 -155 39q-225 0 -332 -289q-28 -65 -48 -155zM486 1291q10 0 56 -56h8q66 49 92 52q36 0 34 -84q-22 -101 -164 -168h-12q-87 0 -108 152l4 16q26 88 90 88zM874 1291q11 0 56 -56h4q69 43 96 52q42 0 33 -88
q-21 -98 -159 -164h-24q-57 0 -98 124q1 40 3 48q31 84 89 84z" />
    <glyph glyph-name="aring" unicode="&#xe5;" 
d="M688 1022q258 0 314 -270q8 -145 -13 -246q-5 -20 -48 -154q-33 -155 61 -256h19q56 20 68 20q8 0 21 -34q-40 -63 -100 -63h-9q-90 0 -142 174h-9q-149 -193 -369 -193q-202 0 -277 174q-39 132 2 327l3 10q77 366 329 482q82 29 150 29zM283 501q-89 -419 200 -419h49
q191 0 316 236q43 113 48 140l17 77q58 276 -95 371q-67 39 -155 39q-225 0 -332 -289q-28 -65 -48 -155zM717 1316q77 0 86 -92q1 -35 -5 -63q-21 -97 -113 -119h-16q-99 0 -85 136l2 10q19 89 98 123q19 5 33 5zM628 1183q-20 -98 62 -98q49 0 66 82q19 90 -40 106h-11
q-57 0 -77 -90z" />
    <glyph glyph-name="ae" unicode="&#xe6;" horiz-adv-x="1568" 
d="M592 868q161 0 246 -160q8 -52 17 -52q186 212 469 212q243 -11 283 -156q0 -58 -5 -80l-2 -8q-29 -138 -184 -188q-76 -12 -98 -12q-140 0 -359 80l-7 24q12 32 39 32q199 -68 325 -68h36q156 0 187 144q23 110 -105 148q-51 20 -128 20q-247 0 -401 -176
q-43 -69 -47 -88q-9 -43 -20 -112q-12 -40 -16 -60q-3 -131 59 -228q71 -76 272 -76q224 0 235 52q4 16 30 28q40 -21 34 -48q-15 -70 -220 -92q-34 -4 -88 -4h-4q-130 0 -244 40q-26 -12 -43 -12q-75 0 -120 148q-138 -160 -310 -160q-223 0 -249 220q-2 105 15 184l5 24
q63 296 268 396q55 20 130 28zM254 428q-57 -269 72 -324q51 -24 111 -24q169 0 266 160q41 81 51 128q13 79 18 104q1 6 17 64q5 139 -42 196q-75 68 -153 68h-20q-240 0 -320 -372z" />
    <glyph glyph-name="ccedilla" unicode="&#xe7;" horiz-adv-x="1176" 
d="M276 70q-64 52 -79 143q-25 128 3 261l2 9q65 303 298 465q125 56 273 56q425 -29 411 -94q-21 -38 -46 -38q-230 57 -381 57q-240 0 -343 -143q-103 -149 -138 -312q-65 -307 119 -379q52 -14 181 -19q421 25 463 85l25 5q30 0 38 -43q-20 -91 -557 -123h-9
q-141 0 -225 46q-24 -55 -34 -102q-6 -25 20 -31q10 0 141 24q101 -21 75 -142q-38 -122 -145 -122h-7q-161 11 -153 49q5 22 37 28q81 -21 125 -21q73 0 88 69q11 56 -18 80h-24l-131 -21q-73 0 -63 94l2 11q17 80 52 108z" />
    <glyph glyph-name="egrave" unicode="&#xe8;" horiz-adv-x="1124" 
d="M862 1008q279 -15 321 -177q6 -54 -3 -97l-2 -9q-34 -161 -213 -219q-88 -14 -114 -14q-441 51 -425 126q16 32 44 32q232 -79 378 -79h42q181 0 217 168q26 124 -108 167q-64 28 -161 28q-297 0 -479 -219q-54 -98 -72 -181q-53 -252 88 -399q90 -61 289 -61
q256 0 269 61q4 19 33 32q47 -24 41 -56q-18 -81 -256 -106q-41 -5 -103 -5h-5q-367 0 -416 228q-49 139 -12 315q72 338 466 442q84 23 181 23zM538 1266l20 5q365 -176 401 -203l1 -19q1 -5 -19 -25l-20 -5q-365 176 -401 203l-1 11q-1 20 19 33z" />
    <glyph glyph-name="eacute" unicode="&#xe9;" horiz-adv-x="1124" 
d="M862 1008q279 -15 321 -177q6 -54 -3 -97l-2 -9q-34 -161 -213 -219q-88 -14 -114 -14q-441 51 -425 126q16 32 44 32q232 -79 378 -79h42q181 0 217 168q26 124 -108 167q-64 28 -161 28q-297 0 -479 -219q-54 -98 -72 -181q-53 -252 88 -399q90 -61 289 -61
q256 0 269 61q4 19 33 32q47 -24 41 -56q-18 -81 -256 -106q-41 -5 -103 -5h-5q-367 0 -416 228q-49 139 -12 315q72 338 466 442q84 23 181 23zM1147 1302q22 -9 14 -43q-9 -15 -327 -128q-30 -8 -224 -75l-17 6q-7 3 -7 35q12 17 348 134q207 73 213 71z" />
    <glyph glyph-name="ecircumflex" unicode="&#xea;" horiz-adv-x="1124" 
d="M862 1008q279 -15 321 -177q6 -54 -3 -97l-2 -9q-34 -161 -213 -219q-88 -14 -114 -14q-441 51 -425 126q16 32 44 32q232 -79 378 -79h42q181 0 217 168q26 124 -108 167q-64 28 -161 28q-297 0 -479 -219q-54 -98 -72 -181q-53 -252 88 -399q90 -61 289 -61
q256 0 269 61q4 19 33 32q47 -24 41 -56q-18 -81 -256 -106q-41 -5 -103 -5h-5q-367 0 -416 228q-49 139 -12 315q72 338 466 442q84 23 181 23zM887 1309q12 0 134 -177q39 -50 44 -68q-3 -17 -27 -25q-11 0 -157 205q1 5 -9 9q-54 -38 -284 -211h-17q-6 1 -9 20
q2 10 270 213q48 34 55 34z" />
    <glyph glyph-name="edieresis" unicode="&#xeb;" horiz-adv-x="1124" 
d="M862 1008q279 -15 321 -177q6 -54 -3 -97l-2 -9q-34 -161 -213 -219q-88 -14 -114 -14q-441 51 -425 126q16 32 44 32q232 -79 378 -79h42q181 0 217 168q26 124 -108 167q-64 28 -161 28q-297 0 -479 -219q-54 -98 -72 -181q-53 -252 88 -399q90 -61 289 -61
q256 0 269 61q4 19 33 32q47 -24 41 -56q-18 -81 -256 -106q-41 -5 -103 -5h-5q-367 0 -416 228q-49 139 -12 315q72 338 466 442q84 23 181 23zM593 1291q10 0 56 -56h8q66 49 92 52q36 0 34 -84q-22 -101 -164 -168h-12q-87 0 -108 152l4 16q26 88 90 88zM981 1291
q11 0 56 -56h4q69 43 96 52q42 0 33 -88q-21 -98 -159 -164h-24q-57 0 -98 124q1 40 3 48q31 84 89 84z" />
    <glyph glyph-name="igrave" unicode="&#xec;" horiz-adv-x="687" 
d="M540 1252q9 0 54 -52h9q43 35 80 48q37 0 30 -79q-20 -94 -146 -156h-17q-78 0 -95 143l4 18q26 78 81 78zM539 961q33 -13 27 -39l-210 -883q-4 -20 -43 -39q-28 0 -26 39q28 132 210 887q4 18 42 35zM443 1535l20 5q365 -176 401 -203l1 -19q1 -5 -19 -25l-20 -5
q-365 176 -401 203l-1 11q0 20 19 33z" />
    <glyph glyph-name="iacute" unicode="&#xed;" horiz-adv-x="741" 
d="M541 1252q9 0 54 -52h9q43 35 80 48q37 0 30 -79q-20 -94 -146 -156h-17q-78 0 -95 143l4 18q26 78 81 78zM540 961q33 -13 27 -39l-210 -883q-4 -20 -43 -39q-28 0 -26 39q28 132 210 887q4 18 42 35zM944 1538q22 -9 14 -43q-8 -15 -326 -128q-31 -8 -224 -75l-18 6
q-6 3 -7 35q12 17 348 134q207 73 213 71z" />
    <glyph glyph-name="icircumflex" unicode="&#xee;" horiz-adv-x="703" 
d="M528 1252q9 0 54 -52h9q43 35 80 48q37 0 30 -79q-20 -94 -146 -156h-17q-78 0 -95 143l4 18q26 78 81 78zM527 961q33 -13 27 -39l-210 -883q-4 -20 -43 -39q-28 0 -26 39q28 132 210 887q4 18 42 35zM706 1566q12 0 133 -177q40 -50 45 -68q-4 -17 -28 -25
q-11 0 -156 205q1 5 -9 9q-54 -38 -284 -211h-17q-7 1 -10 20q2 10 271 213q48 34 55 34z" />
    <glyph glyph-name="idieresis" unicode="&#xef;" horiz-adv-x="868" 
d="M606 1252q9 0 54 -52h9q43 35 80 48q37 0 30 -79q-20 -94 -146 -156h-17q-78 0 -95 143l4 18q26 78 81 78zM605 961q33 -13 27 -39l-210 -883q-4 -20 -43 -39q-28 0 -26 39q28 132 210 887q4 18 42 35zM513 1606q10 0 56 -56h8q66 49 92 52q36 0 34 -84
q-22 -101 -164 -168h-12q-87 0 -108 152l4 16q26 88 90 88zM901 1606q11 0 56 -56h4q69 43 96 52q42 0 33 -88q-21 -98 -159 -164h-24q-57 0 -98 124q1 40 3 48q31 84 89 84z" />
    <glyph glyph-name="eth" unicode="&#xf0;" horiz-adv-x="1102" 
d="M983 1436q52 0 96 -123q9 -30 21 -30q92 44 105 44q25 0 32 -31q-5 -26 -130 -83q60 -435 -24 -832q-51 -242 -130 -302q-107 -79 -253 -79q-315 0 -447 206q-75 161 -33 359l2 9q55 257 251 398q96 48 203 48h9q4 0 5 4l8 -4h39q91 0 326 -52l1 4q1 113 -26 210
q-13 0 -144 -61q-16 0 -29 26l4 22q26 24 158 83l1 5q-31 118 -80 118l-12 22l4 17q15 22 43 22zM288 574l-2 -9q-87 -410 286 -486q61 -13 146 -13q157 0 229 87q42 98 70 228q82 500 36 517q-198 56 -330 56h-74q-193 0 -290 -188q-47 -77 -71 -192z" />
    <glyph glyph-name="ntilde" unicode="&#xf1;" horiz-adv-x="983" 
d="M357 1025q38 0 23 -68l-3 -14q160 67 315 67h29q301 0 329 -159q10 -16 -43 -266l-14 -68l-103 -459q-22 -53 -54 -53q-35 18 -29 48q25 91 115 493q68 319 39 319q-80 68 -262 68h-24q-294 -18 -313 -111l-1 -5q-26 -123 -46 -193q-60 -303 -110 -585q-4 -22 -47 -39
q-43 0 -26 82l178 904q4 21 47 39zM653 1244q47 0 149 -128q28 -12 46 -12q40 0 139 92h8q24 0 30 -28q-39 -66 -149 -120q-37 -8 -50 -8q-68 0 -158 124q-13 16 -36 16q-24 -16 -87 -88q-9 0 -17 -4q-24 10 -23 20l3 16q75 120 145 120z" />
    <glyph glyph-name="ograve" unicode="&#xf2;" horiz-adv-x="1061" 
d="M736 1008h5q298 0 337 -303q10 -109 -11 -208l-1 -5q-73 -343 -359 -464q-94 -28 -172 -28q-318 0 -340 331q-3 100 11 166l2 9q74 350 351 469q85 33 177 33zM285 511q-67 -313 134 -416q80 -19 129 -19q216 0 326 156q84 111 116 260q68 321 -138 421q-70 19 -138 19
q-249 0 -376 -260q-28 -62 -53 -161zM538 1266l21 5q364 -176 400 -203l1 -19q1 -5 -19 -25l-20 -5q-365 176 -401 203l-1 11q0 20 19 33z" />
    <glyph glyph-name="oacute" unicode="&#xf3;" horiz-adv-x="1061" 
d="M736 1008h5q298 0 337 -303q10 -109 -11 -208l-1 -5q-73 -343 -359 -464q-94 -28 -172 -28q-318 0 -340 331q-3 100 11 166l2 9q74 350 351 469q85 33 177 33zM285 511q-67 -313 134 -416q80 -19 129 -19q216 0 326 156q84 111 116 260q68 321 -138 421q-70 19 -138 19
q-249 0 -376 -260q-28 -62 -53 -161zM986 1262q22 -9 13 -43q-8 -15 -326 -128q-30 -8 -224 -75l-17 6q-7 3 -7 35q12 17 348 134q207 73 213 71z" />
    <glyph glyph-name="ocircumflex" unicode="&#xf4;" horiz-adv-x="1061" 
d="M736 1008h5q298 0 337 -303q10 -109 -11 -208l-1 -5q-73 -343 -359 -464q-94 -28 -172 -28q-318 0 -340 331q-3 100 11 166l2 9q74 350 351 469q85 33 177 33zM285 511q-67 -313 134 -416q80 -19 129 -19q216 0 326 156q84 111 116 260q68 321 -138 421q-70 19 -138 19
q-249 0 -376 -260q-28 -62 -53 -161zM838 1309q12 0 133 -177q39 -50 45 -68q-4 -17 -28 -25q-11 0 -156 205q1 5 -9 9q-54 -38 -284 -211h-17q-7 1 -10 20q2 10 270 213q49 34 56 34z" />
    <glyph glyph-name="otilde" unicode="&#xf5;" horiz-adv-x="1061" 
d="M736 1008h5q298 0 337 -303q10 -109 -11 -208l-1 -5q-73 -343 -359 -464q-94 -28 -172 -28q-318 0 -340 331q-3 100 11 166l2 9q74 350 351 469q85 33 177 33zM285 511q-67 -313 134 -416q80 -19 129 -19q216 0 326 156q84 111 116 260q68 321 -138 421q-70 19 -138 19
q-249 0 -376 -260q-28 -62 -53 -161zM654 1244q47 0 149 -128q27 -12 45 -12q40 0 140 92h8q24 0 30 -28q-39 -66 -150 -120q-37 -8 -50 -8q-68 0 -157 124q-14 16 -37 16q-23 -16 -87 -88q-9 0 -16 -4q-24 10 -24 20l3 16q76 120 146 120z" />
    <glyph glyph-name="odieresis" unicode="&#xf6;" horiz-adv-x="1061" 
d="M736 1008h5q298 0 337 -303q10 -109 -11 -208l-1 -5q-73 -343 -359 -464q-94 -28 -172 -28q-318 0 -340 331q-3 100 11 166l2 9q74 350 351 469q85 33 177 33zM285 511q-67 -313 134 -416q80 -19 129 -19q216 0 326 156q84 111 116 260q68 321 -138 421q-70 19 -138 19
q-249 0 -376 -260q-28 -62 -53 -161zM534 1316q10 0 56 -56h8q66 49 91 52q36 0 34 -84q-21 -101 -163 -168h-12q-87 0 -108 152l3 16q27 88 91 88zM922 1316q11 0 56 -56h4q68 43 95 52q42 0 34 -88q-21 -98 -159 -164h-24q-57 0 -98 124q1 40 2 48q32 84 90 84z" />
    <glyph glyph-name="divide" unicode="&#xf7;" horiz-adv-x="1006" 
d="M675 1121q17 0 53 -56q6 -4 16 -4q75 51 98 56q46 0 36 -95q-22 -102 -167 -177h-26q-81 0 -110 151l3 30q33 95 97 95zM325 733h668q69 0 61 -39q-6 -30 -72 -34h-689q-42 0 -45 34q8 39 77 39zM541 492q22 0 60 -61h9q74 56 103 56q41 0 31 -94q-22 -104 -171 -177h-26
q-60 0 -105 133q1 6 2 48q31 95 97 95z" />
    <glyph glyph-name="oslash" unicode="&#xf8;" horiz-adv-x="1245" 
d="M1316 1003q29 0 35 -37q-4 -18 -170 -144q-7 -8 -9 -19q53 -146 16 -320q-73 -341 -357 -455q-84 -28 -164 -28q-231 0 -309 186h-4q-188 -144 -208 -144h-9q-8 0 -21 32q3 16 221 186l1 5q-14 134 7 232q75 351 365 469q93 23 162 23q172 0 264 -116zM419 492
q-21 -100 -5 -172q18 4 655 502q-55 93 -221 93q-231 0 -353 -214q-35 -58 -76 -209zM429 232q46 -158 249 -158q264 0 384 256q28 63 52 158q34 158 -12 269h-5q-591 -445 -666 -515z" />
    <glyph glyph-name="ugrave" unicode="&#xf9;" horiz-adv-x="918" 
d="M439 1010q31 0 30 -43q-155 -323 -200 -536q-54 -256 61 -321q71 -33 160 -33q220 0 302 205q29 95 36 125q50 236 15 565q4 18 37 38h24q46 0 18 -498q-4 -41 -17 -105l-4 -19q-83 -388 -442 -388q-224 0 -276 187q-21 103 7 234q54 254 217 570zM432 1276l20 5
q364 -176 400 -203l1 -19q1 -5 -19 -25l-20 -5q-365 176 -401 203v11q-1 20 19 33z" />
    <glyph glyph-name="uacute" unicode="&#xfa;" horiz-adv-x="918" 
d="M439 1010q31 0 30 -43q-155 -323 -200 -536q-54 -256 61 -321q71 -33 160 -33q220 0 302 205q29 95 36 125q50 236 15 565q4 18 37 38h24q46 0 18 -498q-4 -41 -17 -105l-4 -19q-83 -388 -442 -388q-224 0 -276 187q-21 103 7 234q54 254 217 570zM1046 1262
q22 -9 13 -43q-8 -15 -326 -128q-30 -8 -224 -75l-17 6q-7 3 -7 35q12 17 348 134q207 73 213 71z" />
    <glyph glyph-name="ucircumflex" unicode="&#xfb;" horiz-adv-x="918" 
d="M439 1010q31 0 30 -43q-155 -323 -200 -536q-54 -256 61 -321q71 -33 160 -33q220 0 302 205q29 95 36 125q50 236 15 565q4 18 37 38h24q46 0 18 -498q-4 -41 -17 -105l-4 -19q-83 -388 -442 -388q-224 0 -276 187q-21 103 7 234q54 254 217 570zM739 1309
q12 0 133 -177q39 -50 45 -68q-4 -17 -28 -25q-11 0 -156 205q1 5 -9 9q-54 -38 -284 -211h-17q-7 1 -10 20q2 10 270 213q49 34 56 34z" />
    <glyph glyph-name="udieresis" unicode="&#xfc;" horiz-adv-x="918" 
d="M439 1010q31 0 30 -43q-155 -323 -200 -536q-54 -256 61 -321q71 -33 160 -33q220 0 302 205q29 95 36 125q50 236 15 565q4 18 37 38h24q46 0 18 -498q-4 -41 -17 -105l-4 -19q-83 -388 -442 -388q-224 0 -276 187q-21 103 7 234q54 254 217 570zM475 1319q10 0 56 -56
h8q65 49 91 52q36 0 34 -84q-21 -101 -164 -168h-12q-87 0 -107 152l3 16q27 88 91 88zM863 1319q11 0 56 -56h4q68 43 95 52q42 0 33 -88q-21 -98 -159 -164h-24q-57 0 -97 124q0 40 2 48q32 84 90 84z" />
    <glyph glyph-name="yacute" unicode="&#xfd;" horiz-adv-x="863" 
d="M939 1018q25 0 32 -35q-691 -1291 -738 -1365q-24 -10 -24 -13q-27 0 -32 35l239 448q-90 588 -122 825q4 19 38 35q42 0 52 -167q83 -547 93 -575h4q426 799 438 799zM985 1262q22 -9 14 -43q-9 -15 -327 -128q-30 -8 -224 -75l-17 6q-7 3 -7 35q12 17 348 134
q207 73 213 71z" />
    <glyph glyph-name="thorn" unicode="&#xfe;" horiz-adv-x="933" 
d="M439 1420q36 0 17 -92q5 0 -84 -435h5q229 78 361 78q193 0 230 -165q13 -111 -2 -183q-52 -242 -212 -394q-98 -55 -196 -55h-13q-124 0 -290 78h-5l-1 -5q-12 -53 -38 -201q-7 -35 -51 -46q-34 13 -23 64l257 1319q4 20 45 37zM358 802q-66 -335 -84 -417
q-15 -70 124 -106q65 -32 181 -32q138 0 195 101q81 120 104 229l18 83q23 112 -37 197q-36 36 -134 36h-32q-144 0 -319 -78q-16 -10 -16 -13z" />
    <glyph glyph-name="ydieresis" unicode="&#xff;" horiz-adv-x="896" 
d="M972 1018q25 0 32 -35q-691 -1291 -738 -1365q-24 -10 -24 -13q-27 0 -32 35l239 448q-90 588 -122 825q4 19 38 35q42 0 52 -167q83 -547 93 -575h4q426 799 438 799zM452 1319q10 0 56 -56h8q65 49 91 52q36 0 34 -84q-21 -101 -164 -168h-12q-87 0 -107 152l3 16
q27 88 91 88zM840 1319q11 0 56 -56h4q68 43 95 52q42 0 33 -88q-21 -98 -159 -164h-24q-57 0 -97 124q0 40 2 48q32 84 90 84z" />
    <glyph glyph-name="dotlessi" unicode="&#x131;" horiz-adv-x="655" 
 />
    <glyph glyph-name="circumflex" unicode="&#x2c6;" horiz-adv-x="703" 
d="M660 1346q12 0 133 -177q39 -50 44 -68q-3 -17 -27 -25q-11 0 -156 205q1 5 -9 9q-54 -38 -284 -211h-17q-7 1 -10 20q2 10 270 213q49 34 56 34z" />
    <glyph glyph-name="caron" unicode="&#x2c7;" horiz-adv-x="782" 
 />
    <glyph glyph-name="uni02C9" unicode="&#x2c9;" horiz-adv-x="716" 
 />
    <glyph glyph-name="breve" unicode="&#x2d8;" horiz-adv-x="784" 
 />
    <glyph glyph-name="dotaccent" unicode="&#x2d9;" horiz-adv-x="415" 
 />
    <glyph glyph-name="ring" unicode="&#x2da;" horiz-adv-x="417" 
d="M482 1316q77 0 87 -92q0 -35 -6 -63q-20 -97 -112 -119h-16q-99 0 -85 136l2 10q19 89 97 123q19 5 33 5zM394 1183q-21 -98 61 -98q49 0 67 82q19 90 -41 106h-11q-57 0 -76 -90z" />
    <glyph glyph-name="ogonek" unicode="&#x2db;" horiz-adv-x="568" 
 />
    <glyph glyph-name="tilde" unicode="&#x2dc;" horiz-adv-x="774" 
 />
    <glyph glyph-name="hungarumlaut" unicode="&#x2dd;" horiz-adv-x="789" 
 />
    <glyph glyph-name="endash" unicode="&#x2013;" horiz-adv-x="1196" 
 />
    <glyph glyph-name="emdash" unicode="&#x2014;" horiz-adv-x="2248" 
 />
    <glyph glyph-name="quoteleft" unicode="&#x2018;" horiz-adv-x="264" 
d="M437 1432q28 0 22 -44l-39 -188q-6 -28 -41 -40q-32 0 -20 56l37 176q6 28 41 40z" />
    <glyph glyph-name="quoteright" unicode="&#x2019;" horiz-adv-x="264" 
d="M437 1432q28 0 22 -44l-39 -188q-6 -28 -41 -40q-32 0 -20 56l37 176q6 28 41 40z" />
    <glyph glyph-name="quotesinglbase" unicode="&#x201a;" horiz-adv-x="264" 
d="M173 192q28 0 22 -44l-39 -188q-6 -28 -41 -40q-32 0 -20 56l37 176q6 28 41 40z" />
    <glyph glyph-name="quotedblleft" unicode="&#x201c;" horiz-adv-x="380" 
d="M421 1358q28 0 22 -44l-39 -188q-8 -36 -40 -36h-8q-22 10 -15 44l39 184q7 30 41 40zM534 1346q25 0 25 -36q-52 -220 -79 -220h-20q-21 16 -17 32q46 220 82 220z" />
    <glyph glyph-name="quotedblright" unicode="&#x201d;" horiz-adv-x="380" 
d="M419 1348q28 0 22 -44l-39 -188q-8 -36 -40 -36h-8q-22 10 -15 44l39 184q7 30 41 40zM532 1336q25 0 25 -36q-52 -220 -79 -220h-20q-21 16 -17 32q46 220 82 220z" />
    <glyph glyph-name="quotedblbase" unicode="&#x201e;" horiz-adv-x="380" 
d="M168 169q28 0 22 -44l-39 -188q-8 -36 -40 -36h-8q-22 10 -15 44l39 184q7 30 41 40zM281 157q25 0 25 -36q-52 -220 -79 -220h-20q-21 16 -17 32q46 220 82 220z" />
    <glyph glyph-name="dagger" unicode="&#x2020;" horiz-adv-x="1073" 
 />
    <glyph glyph-name="daggerdbl" unicode="&#x2021;" horiz-adv-x="1073" 
 />
    <glyph glyph-name="bullet" unicode="&#x2022;" horiz-adv-x="792" 
 />
    <glyph glyph-name="ellipsis" unicode="&#x2026;" horiz-adv-x="1816" 
 />
    <glyph glyph-name="guilsinglleft" unicode="&#x2039;" horiz-adv-x="556" 
 />
    <glyph glyph-name="guilsinglright" unicode="&#x203a;" horiz-adv-x="556" 
 />
    <glyph glyph-name="fraction" unicode="&#x2044;" horiz-adv-x="1224" 
 />
    <glyph glyph-name="fraction" unicode="&#x2215;" horiz-adv-x="1224" 
 />
    <glyph glyph-name="franc" unicode="&#x20a3;" horiz-adv-x="1189" 
d="M588 1423h758q31 0 38 -35q-7 -31 -57 -36h-732l-1 -4l-129 -634h4q68 4 437 13q30 -9 24 -35l-2 -9q-6 -31 -188 -31q-207 -9 -290 -9q-25 -135 -39 -200l-27 -128h84q54 0 46 -36q-8 -40 -70 -40h-76l-1 -4q-11 -53 -36 -191q-6 -30 -49 -44q-31 0 -22 66l37 173h-102
q-43 6 -36 40q8 36 74 36h80q2 8 13 80l201 988q7 34 61 40z" />
    <glyph glyph-name="lira" unicode="&#x20a4;" horiz-adv-x="964" 
d="M618 1268h4q163 0 329 -72q-1 -16 4 -16q-5 -24 -40 -36q-179 60 -315 60q-180 0 -215 -164q-22 -106 50 -388l286 8q19 0 25 -32q-8 -36 -76 -36q-44 0 -217 -4q-2 -12 6 -84q46 0 266 8q30 -10 24 -36q-14 -32 -58 -32q-181 -4 -225 -4l-1 -4l-9 -100
q-29 -135 -150 -252l-2 -8q563 -8 560 -20l7 -24q-5 -25 -43 -32q-469 8 -562 8q-92 0 -85 32q4 19 105 100q78 85 100 188l3 16q11 52 8 92h-84q-32 0 -25 32l1 8q15 24 62 24h40q-3 84 -15 84h-60q-43 4 -37 32q8 36 84 36l1 4q-66 274 -43 380l3 16q29 135 182 200
q58 16 112 16z" />
    <glyph glyph-name="peseta" unicode="&#x20a7;" horiz-adv-x="2119" 
 />
    <glyph glyph-name="Euro" unicode="&#x20ac;" horiz-adv-x="1105" 
d="M861 1415h14q187 0 402 -75l9 -18l-2 -9q-13 -36 -44 -36q-217 67 -385 67q-201 0 -291 -137q-110 -116 -196 -338h324q38 0 48 -26l-5 -22q-16 -27 -68 -27h-306q-4 0 -3 4q-15 -4 -15 -8q-5 -23 -23 -89h4q375 -10 367 -45q-1 -4 2 -13q-26 -35 -47 -35
q-187 17 -338 17q-55 -259 76 -496q53 -58 197 -58q162 0 380 58q27 0 32 -36q-13 -64 -427 -93q-248 0 -296 195q-81 225 -26 484l5 22q89 418 387 656q100 58 225 58z" />
    <glyph glyph-name="afii61352" unicode="&#x2116;" horiz-adv-x="2271" 
 />
    <glyph glyph-name="trademark" unicode="&#x2122;" horiz-adv-x="1052" 
d="M1197 1417q36 0 14 -104q-4 -37 -73 -440q-13 -32 -39 -32h-8q-36 0 31 316q-1 15 12 76h-4q-18 -20 -138 -200l-14 -8h-20q-23 22 -97 220h-8l-74 -348q-7 -31 -34 -44h-20q-20 0 -11 60l92 432q13 60 49 60q25 0 95 -208q29 -68 34 -68q10 8 192 280q20 0 21 8z
M463 1405h280q60 0 52 -36l-2 -8q-14 -24 -61 -24h-100l-94 -444q-7 -31 -34 -44h-16q-26 9 -14 64l87 408q1 4 5 4q-3 8 -2 12h-132q-39 0 -41 32q8 36 72 36z" />
    <glyph glyph-name="partialdiff" unicode="&#x2202;" horiz-adv-x="1060" 
 />
    <glyph glyph-name="Delta" unicode="&#x2206;" horiz-adv-x="1267" 
 />
    <glyph glyph-name="product" unicode="&#x220f;" horiz-adv-x="1619" 
 />
    <glyph glyph-name="summation" unicode="&#x2211;" horiz-adv-x="1224" 
 />
    <glyph glyph-name="minus" unicode="&#x2212;" horiz-adv-x="1040" 
 />
    <glyph glyph-name="radical" unicode="&#x221a;" horiz-adv-x="1237" 
 />
    <glyph glyph-name="infinity" unicode="&#x221e;" horiz-adv-x="1085" 
 />
    <glyph glyph-name="integral" unicode="&#x222b;" horiz-adv-x="997" 
 />
    <glyph glyph-name="approxequal" unicode="&#x2248;" horiz-adv-x="1029" 
 />
    <glyph glyph-name="lessequal" unicode="&#x2264;" horiz-adv-x="1040" 
 />
    <glyph glyph-name="greaterequal" unicode="&#x2265;" horiz-adv-x="1040" 
 />
    <glyph glyph-name="uniF001" unicode="&#xf001;" horiz-adv-x="1073" 
 />
    <glyph glyph-name="uniF001" unicode="&#xfb01;" horiz-adv-x="1073" 
 />
    <glyph glyph-name="uniF002" unicode="&#xf002;" horiz-adv-x="1081" 
 />
    <glyph glyph-name="uniF002" unicode="&#xfb02;" horiz-adv-x="1081" 
 />
    </font>
</defs>
</svg>
