<?xml version="1.0" standalone="no"?>
<!DOCTYPE svg PUBLIC "-//W3C//DTD SVG 1.1//EN" "http://www.w3.org/Graphics/SVG/1.1/DTD/svg11.dtd" >
<svg xmlns="http://www.w3.org/2000/svg" width="100%" height="100%">
<metadata>
Created by FontXChange 20100429 at Mon Jan 28 21:50:34 2013
 By Colin Waddell
(c) Vanessa Bays @ ByTheButterfly.com
</metadata>
<defs>
<font id="MyFirstCrushHollow" horiz-adv-x="500" >
  <font-face 
    font-family="My First Crush Hollow"
    font-weight="500"
    font-stretch="normal"
    units-per-em="1000"
    panose-1="2 0 6 3 0 0 0 0 0 0"
    ascent="800"
    descent="-200"
    x-height="509"
    cap-height="715"
    bbox="-464 -215.059 1180.44 916.923"
    underline-thickness="50"
    underline-position="-100"
    unicode-range="U+0020-F8FF"
  />
<missing-glyph horiz-adv-x="364" 
d="M96 48h169v570h-169v-570zM298 15v636h-235v-636h235zM66 648h229v-630h-229v630zM33 -15v696h295v-696h-295z" />
    <glyph glyph-name=".notdef" horiz-adv-x="364" 
d="M96 48h169v570h-169v-570zM298 15v636h-235v-636h235zM66 648h229v-630h-229v630zM33 -15v696h295v-696h-295z" />
    <glyph glyph-name=".null" horiz-adv-x="0" 
 />
    <glyph glyph-name="nonmarkingreturn" horiz-adv-x="333" 
 />
    <glyph glyph-name="space" unicode=" " horiz-adv-x="300" 
 />
    <glyph glyph-name="exclam" unicode="!" horiz-adv-x="167" 
d="M86 72q-2 3 -7 4.5t-9 -1t-5.5 -7.5t1.5 -10q3 -6 8.5 -15t8 -14t5.5 -8q6 -9 10 -13q7 -7 16 -7q7 0 14 6q5 4 12 14q3 3 29 42q3 4 2.5 8.5t-5 7.5t-9 2t-7.5 -5l-36 -52zM125.5 684.5q-3.5 3.5 -8.5 3.5t-8.5 -3t-4.5 -8q-5 -63 -5 -244.5t-2 -244.5q0 -5 3.5 -9t8 -4
t8.5 3.5t4 7.5q2 91 2 244t5 245q1 6 -2.5 9.5zM116 80l9 12q9 16 26.5 19t32 -7t17.5 -27.5t-8 -31.5q-27 -41 -30 -44q-8 -10 -15 -16q-15 -14 -34 -14q-21 0 -36 15q-7 6 -14 17q-3 3 -6.5 10t-9 16t-8.5 15q-9 15 -4.5 32t19.5 25.5t32 4t25 -19.5zM158 673
q-5 -90 -5 -243t-2 -244q0 -18 -13 -29.5t-30.5 -11.5t-29 13t-11.5 30q2 63 2 245.5t5 245.5q2 17 14.5 29t30 10t29.5 -14.5t10 -30.5z" />
    <glyph glyph-name="quotedbl" unicode="&#x22;" horiz-adv-x="200" 
d="M65 669.5q-4 3.5 -8.5 3.5t-8 -4t-3.5 -9q1 -38 1 -138q0 -5 3.5 -8.5t8.5 -3.5t8.5 3.5t3.5 8.5q0 100 -1 140q0 4 -4 7.5zM151.5 666.5q-3.5 3.5 -8.5 3.5t-8.5 -3.5t-3.5 -8.5q0 -83 11 -145q1 -5 5 -8t9 -2t8 5t2 9q-11 63 -11 141q0 5 -3.5 8.5zM99 662
q1 -40 1 -140q0 -17 -12.5 -29.5t-29.5 -12.5t-29.5 12.5t-12.5 29.5q0 100 -1 138q0 17 11.5 30t29 13t30.5 -11.5t13 -29.5zM185 658q0 -76 11 -135q3 -17 -7 -32t-27 -18t-32 7t-18 27q-11 66 -11 151q0 17 12.5 29.5t29.5 12.5t29.5 -12.5t12.5 -29.5z" />
    <glyph glyph-name="numbersign" unicode="#" horiz-adv-x="531" 
d="M343 336q-54 -3 -95 -2q-2 -55 -6 -103q77 4 110 4q-2 12 -4 36q-4 38 -5 65zM395.5 633q-3.5 4 -8 4t-8.5 -3.5t-4 -7.5q-5 -145 -4 -234q-83 -5 -151 -4q2 126 -4 262q0 4 -4 7.5t-8.5 3.5t-8 -4t-3.5 -9q6 -134 4 -259q-57 4 -97 11q-5 1 -9 -2t-5 -8t2 -9t8 -5
q40 -7 99 -11q-2 -87 -9 -166q-70 -4 -108 -4q-5 0 -8.5 -3.5t-3.5 -8.5t3.5 -8.5t8.5 -3.5q39 0 105 3q-9 -76 -20 -140q-1 -5 2 -9t8 -5t9 2t5 8q11 64 21 145q122 6 183 6q16 -107 20 -142q0 -5 4.5 -8.5t9 -3t8 5t2.5 8.5q-4 36 -20 140q65 -3 105 -10q5 -1 9 2t4.5 8
t-2.5 9t-7 5q-45 7 -112 9q-7 45 -9 73q-4 37 -7 92q37 5 98 10q4 0 7.5 4t3 9t-4.5 8.5t-10 2.5q-52 -5 -94 -8q-1 88 4 229q0 5 -3.5 9zM378 273q2 -22 8 -68q-67 0 -178 -6q8 82 10 165q71 -1 155 4q1 -57 5 -95zM429 624q-5 -141 -4 -197l62 6q18 1 31 -9.5t14.5 -28.5
t-9 -31t-28.5 -15q-59 -5 -68 -6q1 -27 5 -64q2 -26 5 -45q43 -2 90 -9q18 -3 28 -17t7.5 -31t-16.5 -27t-31 -9q-40 7 -65 8q10 -68 14 -104q1 -18 -9.5 -31.5t-28 -15t-31 9t-15.5 27.5q-4 35 -16 116q-35 0 -131 -4q-6 -57 -17 -123q-3 -17 -18 -27t-32 -7t-27 18t-7 32
q11 62 16 102q-32 -1 -71 -1q-17 0 -29.5 12.5t-12.5 29.5t12.5 29.5t29.5 12.5q38 0 80 2q5 53 7 110q-33 2 -75 9q-17 3 -27 18t-7 32t18 27t32 7q38 -7 61 -9q2 93 -4 227q0 17 11.5 30t29 13t30.5 -11.5t13 -29.5q6 -136 4 -232q38 -1 91 2q-1 61 4 206q0 18 13 29.5
t30.5 11.5t29 -13t11.5 -30z" />
    <glyph glyph-name="dollar" unicode="$" horiz-adv-x="403" 
d="M229 725q-2 4 -7 5t-9.5 -1.5t-5.5 -7.5t2 -10q12 -19 23 -27q12 -11 26 -7q10 2 22 14l20 26q2 4 1.5 9t-4.5 7.5t-9 2t-8 -4.5l-26 -35q-19 19 -25 29zM291 -47q4 -4 9 -4t8.5 3.5t3.5 8.5t-3 8q-11 11 -28 31q-5 7 -8 10q-6 6 -13 6q-8 1 -15 -5q-5 -3 -8 -7
q0 -1 -29 -44q-3 -5 -2 -10t5.5 -7.5t9.5 -1.5t8 5l29 46q23 -30 33 -39zM397 522q5 -2 9 0t6 7t0 9q-23 54 -69 76.5t-97 15.5q-46 -7 -81 -37t-37 -73q-1 -33 41 -77q13 -13 44 -41.5t41 -38.5q53 -52 82 -101.5t21 -106.5q-6 -53 -76 -67q-31 -6 -62.5 -2t-52.5 16
q-58 34 -78 114q-2 5 -6 7.5t-9 1t-7.5 -5.5t-0.5 -9q22 -89 89 -128q26 -16 62 -20.5t70 3.5q37 8 64 30t31 58q4 34 -3.5 66.5t-25.5 62t-37 51.5t-45 47q-10 10 -40 37.5t-44 42.5q-35 36 -34 59q1 32 29.5 56.5t68.5 30.5q44 7 82 -12.5t58 -65.5q2 -4 7 -6zM251 742
l5 7q11 14 28 16.5t31 -8t16.5 -27.5t-7.5 -31l-21 -28q-19 -20 -39 -24q-28 -6 -51 13q-14 12 -30 35q-9 15 -5 32t18.5 26.5t31.5 5.5t27 -18q4 -8 -4 1zM260 -60l-6 -10q-10 -14 -27 -18t-31.5 5.5t-18.5 26.5t5 32q25 37 25 38q11 14 19 21q17 14 38 11q15 -2 29 -14
q5 -5 12 -14q15 -18 25 -27q12 -13 12 -30t-12.5 -29.5t-29.5 -12.5t-29 12q-12 11 -11 9zM363 516q-16 36 -45 50.5t-64 9.5q-31 -4 -51 -21.5t-21 -37.5q0 -9 26 -37l42.5 -40.5l40.5 -37.5q27 -27 47 -50t40 -55.5t28.5 -70t4.5 -77.5q-6 -48 -40 -76t-79 -38
q-38 -8 -80 -2.5t-73 23.5q-78 45 -103 146q-5 17 3.5 32t25.5 19.5t32 -4t20 -25.5q17 -68 65 -96q15 -10 40.5 -13t52.5 3q49 10 52 41q7 47 -18.5 90.5t-75.5 91.5q-10 10 -41 38.5t-45 43.5q-50 52 -49 97q2 57 45.5 94t98.5 46q60 9 115 -18.5t83 -91.5q6 -16 0 -32
t-21.5 -23t-32 -1t-23.5 22z" />
    <glyph glyph-name="percent" unicode="%" horiz-adv-x="544" 
d="M374 137q-3 5 -7.5 6.5t-9 -1t-6 -7t0.5 -8.5l22 -43q3 -8 6 -12q6 -8 15 -8q8 0 14 8q3 4 8 13l22 42q2 5 0.5 10t-6 7t-9.5 0.5t-7 -5.5l-22 -45zM138 521q-3 3 -8 2.5t-8.5 -4.5t-3 -9t4.5 -8q15 -12 28 -28q7 -8 9 -9q7 -8 14 -7q9 1 13 11q2 4 5 13l15 50
q1 5 -1.5 9.5t-7 6t-9 -1t-6.5 -7.5l-13 -46zM64 14.5q1 -4.5 5 -7.5t9 -2t7 5l203 281q172 237 254 369q3 4 2 9t-5.5 7.5t-9 1.5t-7.5 -6q-84 -131 -255 -369l-201 -280q-3 -4 -2 -8.5zM395 162l-4 -9q8 16 25 20.5t32.5 -3.5t20 -25t-3.5 -32l-22 -42q-5 -11 -10 -17
q-16 -20 -38 -20q-23 0 -39 20q-5 6 -10 18l-20 41q-8 16 -2.5 32.5t21 24t32 2t23.5 -20.5zM154 547l1 2q6 17 21.5 24.5t32 2t24 -21t2.5 -30.5l-15 -50q-3 -11 -5 -17q-12 -26 -39 -29q-21 -1 -38 15q-2 3 -9 11q-13 14 -24 24q-14 11 -16 29t9 31t29 14.5t31 -9.5z
M42 41l201 280q171 236 253 367q9 15 26.5 19t32 -5.5t18.5 -26.5t-5 -31q-84 -132 -256 -371l-202 -279q-9 -16 -26 -19t-32 7t-18 27.5t8 31.5z" />
    <glyph glyph-name="ampersand" unicode="&#x26;" 
d="M290 254q-3 -4 -2 -9t5.5 -8t9.5 -2l76 14q-62 -102 -102 -150q-41 -52 -74 -74q-37 -25 -62 -15q-29 14 -33 51q-4 33 11 84q22 78 71 157q13 21 53 61q39 41 54 68q2 2 1 1l1 2v2.5t-1 4.5q-2 7 -9 8q-3 1 -6 -1q-2 -1 -4.5 -2.5t-7.5 -5.5l-14 -14l-33 -24l-26 -18
q-48 -36 -74 -44q-15 -2 -27 2l-3 5q-2 2 -4 9.5t-4 16.5q-3 28 15 87q18 64 47 115q35 59 70 76q38 18 76 -18q37 -36 41 -96q1 -5 4.5 -8t8.5 -3t8.5 4t2.5 9q-5 68 -48 110q-50 49 -103 24q-42 -21 -80 -86q-31 -53 -50 -120q-20 -63 -16 -96q4 -36 24 -49q18 -12 46 -3
q6 1 54 21q-70 -117 -90 -187q-16 -56 -12 -95q7 -50 48 -68q36 -18 84 14q36 25 80 79q42 54 115 172q54 12 93 27q5 2 7 6t0.5 8.5t-6 7t-9.5 0.5q-56 -19 -198 -45q-5 -1 -8 -5zM293 289q140 26 193 43q17 6 33 -1.5t21 -24t-2.5 -32.5t-23.5 -20q-40 -15 -84 -25
q-67 -110 -111 -164q-46 -58 -86 -85q-62 -42 -114 -18q-55 26 -65 92q-5 45 13 107q21 74 46 115q33 14 25 13q-39 -11 -68 7q-32 21 -38 71q-4 39 17 108q20 71 53 128q43 71 93 96q72 35 137 -28q51 -50 57 -130q2 -17 -9.5 -30t-29 -15t-30.5 10t-15 29q-3 48 -32 76
q-23 22 -42 12q-27 -13 -57 -62q-27 -49 -44 -109q-16 -53 -14 -75q1 -7 2 -9.5l1 -2.5l-1 1q-7 2 -1 4q19 6 64 38l26 18l31 22l13 14q7 6 11.5 9.5t9.5 4.5q10 4 22 3q23 -5 32 -26q3 -8 3 -15.5t-2 -13.5l-1 -4q-2 -5 -5 -7q-15 -27 -57 -70q-37 -38 -48 -57
q-47 -75 -68 -149q-13 -45 -10 -72q2 -21 15 -27q10 -4 33 11q29 20 68 68q38 48 64 90l-10 -2q-17 -3 -31.5 7t-18 27t6.5 32t28 18z" />
    <glyph glyph-name="quotesingle" unicode="'" horiz-adv-x="103" 
d="M86 708q-3 4 -8 4t-9 -3t-4 -8q-3 -45 1 -150q0 -4 4 -7.5t8.5 -3.5t8 4t3.5 9q-4 103 -1 146q0 5 -3 9zM119 697q-3 -41 1 -144q0 -17 -11.5 -30t-29 -13t-30.5 11.5t-13 29.5q-4 105 -1 152q2 17 15 29t30 10t29 -15t10 -30z" />
    <glyph glyph-name="parenleft" unicode="(" horiz-adv-x="203" 
d="M152.5 692.5q-1.5 4.5 -5.5 7t-9 1t-7 -5.5q-39 -66 -57 -159.5t-15 -194t27.5 -192.5t67.5 -156q3 -4 8 -5t9 2t5 7.5t-2 8.5q-41 62 -64.5 150t-26.5 187q-3 97 14.5 187t53.5 154q3 4 1.5 8.5zM177 668q-34 -58 -50.5 -144t-13.5 -181t25.5 -179t59.5 -140
q11 -14 7 -31.5t-18 -27.5t-31 -6t-26 18q-47 68 -72.5 164t-28.5 199.5t16 201t60 167.5q8 16 25 20.5t32 -4t19.5 -26t-4.5 -31.5z" />
    <glyph glyph-name="parenright" unicode=")" horiz-adv-x="202" 
d="M53.5 2.5q1.5 -4.5 5 -7.5t8.5 -2t8 5q58 86 85 216t13.5 262.5t-67.5 223.5q-2 3 -7 4.5t-9 -1t-5.5 -7.5t1.5 -9q51 -86 63.5 -214t-13 -253t-81.5 -209q-3 -4 -1.5 -8.5zM31 29q52 78 76.5 198t12.5 242t-60 202q-9 16 -4.5 33t19.5 25.5t32 4t25 -19.5
q57 -95 71 -233.5t-14 -273.5t-89 -225q-10 -14 -27 -18t-31 6t-18 27.5t7 31.5z" />
    <glyph glyph-name="asterisk" unicode="*" horiz-adv-x="294" 
d="M122 688q-9 13 -25.5 16t-31 -6.5t-17 -26t6.5 -31.5l50 -78q12 -18 19 -26q18 -21 41 -21q24 0 42 22q7 8 18 27q3 4 11 19l17 31l19 32q9 15 5 30q-4 17 -19 26t-31.5 5t-24.5 -19l-37 -65zM110 536v0v0zM163 681l13 23q15 25 43.5 32t54 -8t32.5 -44t-8 -54l-19 -32
l-17 -29l-11 -21q-12 -19 -21 -31q-27 -32 -65 -32q-37 0 -64 31q-8 10 -21 30l-50 78q-16 25 -11 53.5t29.5 45t53.5 11.5t45 -30zM110 536v0v0z" />
    <glyph glyph-name="plus" unicode="+" horiz-adv-x="275" 
d="M154 145q0 -4 3.5 -7.5t8.5 -3.5t8.5 4t3.5 9q-1 41 -3 93q49 0 81 3q5 0 8 4t2.5 9t-4 8.5t-9.5 2.5q-31 -3 -78 -3v91q0 5 -4 8.5t-8.5 3.5t-8 -3.5t-3.5 -8.5v-91q-50 3 -84 8q-5 1 -9 -2t-5 -8t2 -9t8 -5q38 -5 88 -8q2 -52 3 -95zM122 212q-24 1 -64 6q-17 3 -27 17
t-7.5 31t16 27t30.5 9q34 -5 51 -6v59q0 17 12 29.5t29.5 12.5t30 -12.5t12.5 -29.5v-61q16 0 45 3q19 1 32 -9.5t14.5 -28.5t-9.5 -31t-28 -15q-34 -3 -53 -3q1 -22 2 -63q0 -17 -12 -30t-29 -13t-30 11.5t-13 29.5q-1 43 -2 67z" />
    <glyph glyph-name="comma" unicode="," horiz-adv-x="132" 
d="M118.5 57.5q-3.5 3.5 -8.5 3.5t-8.5 -3.5t-3.5 -8.5q0 -43 -16.5 -70.5t-56.5 -50.5q-4 -2 -5.5 -7t1 -9t7 -5.5t8.5 1.5q45 25 65.5 57.5t20.5 83.5q0 5 -3.5 8.5zM152 49q0 -59 -24.5 -98.5t-75.5 -68.5q-14 -9 -31.5 -4.5t-26 19.5t-4 32t20.5 25q32 19 44.5 39.5
t12.5 55.5q0 17 12.5 29.5t29.5 12.5t29.5 -12.5t12.5 -29.5z" />
    <glyph glyph-name="hyphen" unicode="-" horiz-adv-x="267" 
d="M50 299.5q-4 -3.5 -4 -8t3.5 -8.5t7.5 -4q77 -2 179 5q5 0 8 4t3 9t-4 8t-9 3q-101 -7 -175 -5q-5 0 -9 -3.5zM59 333q74 -2 173 5q17 2 30 -10t15 -29t-10 -30t-29 -15q-104 -7 -181 -5q-18 0 -29.5 13t-11.5 30.5t13 29t30 11.5z" />
    <glyph glyph-name="period" unicode="." horiz-adv-x="164" 
d="M79 79q-3 4 -7.5 5.5t-9 -1t-6 -7.5t0.5 -9q3 -4 10.5 -17.5t10.5 -18.5q11 -18 21 -20q14 -3 29 13q8 10 28 40q3 4 2 8.5t-5 7.5t-9 2t-8 -6l-32 -44zM108 88l4 6q9 13 26 17t31 -6t18 -27.5t-7 -31.5q-20 -30 -30 -42q-27 -28 -57 -23q-24 6 -41 34q-3 5 -10.5 18.5
t-10.5 19.5q-8 16 -3.5 32t20 24.5t32 4t25.5 -20.5z" />
    <glyph glyph-name="slash" unicode="/" 
d="M71 19q1 -5 5.5 -7.5t9 -1.5t7.5 6l178 296q141 237 222 362q3 5 2 10t-5.5 7.5t-9.5 1.5t-7 -5l-222 -363l-178 -297q-3 -4 -2 -9zM47 44l178 297l222 363q10 14 27 18t31.5 -5.5t18.5 -26.5t-5 -32q-81 -125 -222 -362l-178 -296q-9 -15 -26.5 -19t-32 5.5t-18.5 26.5
t5 31z" />
    <glyph glyph-name="zero" unicode="0" 
d="M264 633q-42 3 -80 -62q-44 -74 -56 -192q-12 -120 19 -212q29 -92 90 -112q54 -18 100 35q44 50 64 130q33 133 -3 253q-37 122 -134 160zM265 690q-4 1 -12 -4q-68 -6 -116 -87q-50 -85 -63 -214q-13 -132 21 -235q39 -118 126 -147t157 52q52 60 75 151q37 148 -3 282
q-45 148 -170 196l-4 2q-6 2 -11 4zM427 481q38 -128 3 -269q-22 -86 -70 -142q-60 -67 -132 -43q-76 24 -110 130q-32 98 -20 224q13 126 60 206q47 81 113 76q114 -46 156 -182zM286 714q4 -1 6 -2q137 -54 187 -216q42 -142 3 -298q-25 -97 -81 -163q-84 -95 -189 -60
q-102 33 -145 165q-36 109 -23 247q14 137 67 228q56 93 133 101q13 7 31 2q5 -2 11 -4z" />
    <glyph glyph-name="one" unicode="1" 
d="M100.5 547.5q2.5 -4.5 7 -6t8.5 0.5q15 8 44 33l52 49l53 48v-65q-1 -16 -1 -37t-0.5 -33.5t-0.5 -15.5q0 -311 -13 -475q-70 -5 -162 -25q-5 -1 -8 -5t-2 -8.5t5.5 -7.5t7.5 -1q75 15 124 20.5t109 0.5t117 -26q6 -2 10 0t6 7t0 9t-6 6q-78 29 -177 31q13 167 13 474
q0 3 0.5 15.5t0.5 33t1 36.5v54v19q0 2 -1 5v3l-4 8q-3 4 -12 3q-5 0 -10 -3q-8 -3 -19 -12q-15 -12 -48 -42l-51 -48q-26 -24 -34.5 -28t-10 -8.5t1 -9zM89 589q12 6 35 26l51 48q33 32 50 44q13 11 24 16t22 5q22 1 39 -17l8 -18v-5q1 -3 1 -9v-19v-54q-1 -16 -1 -36.5
t-0.5 -33t-0.5 -15.5q0 -309 -11 -444q73 -2 156 -33q15 -6 22 -22t1 -32t-21.5 -23t-32.5 -1q-53 19 -109 24q-58 5 -105 -0.5t-118 -20.5q-16 -4 -31 6t-19 26.5t6 31.5t27 18q94 20 140 23q11 138 11 447q0 3 0.5 15.5t0.5 33.5t1 37v-3l-3 -2l-52 -49q-32 -29 -50 -37
q-16 -8 -32.5 -2.5t-24 21t-2 32t17.5 22.5z" />
    <glyph glyph-name="two" unicode="2" horiz-adv-x="562" 
d="M136 566.5q0 -5.5 3 -9t8 -3.5t9 3q11 10 32 31t36.5 34t34.5 22q63 30 113 4q50 -25 47 -96q-3 -75 -96 -221q-61 -96 -151 -207q-10 -12 -32 -36q-24 -25 -32 -32q-5 -5 -6 -5l-2 -2q-5 0 -7 -0.5t-6 -2.5q-21 -9 -21 -26q0 -7 4 -12q4 -4 10 -5q6 0 18 4q1 0 10 3
q6 3 10 3q73 10 89 11q50 2 101 2.5t123.5 0t99.5 -0.5q5 0 8.5 3.5t3.5 8.5t-3.5 8.5t-8.5 3.5q-26 0 -100 0.5t-125.5 0t-98.5 -2.5q-14 -1 -80 -9q53 57 63 70q91 111 153 209q96 152 100 234q2 42 -14.5 72.5t-46.5 45.5q-60 31 -134 -5q-19 -10 -37.5 -24t-42 -38
l-28.5 -29q-4 -2 -4 -7.5zM120 598q5 3 28.5 27t44 40t41.5 26q88 44 162 5q38 -19 58.5 -57.5t18.5 -88.5q-4 -90 -104 -248q-64 -100 -155 -213q-12 -13 -9 -10q-14 -2 0 -1q49 2 100.5 2.5t125.5 0t100 -0.5q17 0 29.5 -12.5t12.5 -29.5t-12.5 -29.5t-29.5 -12.5
q-27 0 -99.5 0.5t-123.5 0t-99 -2.5q-16 -1 -89 -11q2 0 0 -1q-17 -5 -18 -5q-12 -4 -24 -4q-18 3 -30 15q-12 13 -12 32q0 37 39 54q6 2 11 3.5t2 1.5l2 2q1 0 -2 -3q8 7 30 30q22 24 30 34q90 111 149 205q89 140 92 207q3 51 -31 68q-36 18 -87 -6q-15 -7 -28.5 -18
t-34.5 -32t-32 -31q-12 -13 -30 -11t-30 14.5t-10 30t14 29.5z" />
    <glyph glyph-name="three" unicode="3" horiz-adv-x="534" 
d="M113.5 557q0.5 -5 4.5 -7.5t9 -2t8 4.5l26 35q8 11 24.5 28t31.5 27q46 29 91 27q49 -3 57 -51q8 -44 -27 -94q-24 -33 -75 -76q-18 -14 -57 -38l-22 -14q-4 -2 -5 -3q-3 -2 -3 -4q-3 -5 -1 -10q1 -6 7 -8l4 -1q4 2 7 2q14 4 36.5 12.5t35 12.5t34 10t36.5 6l37 -2
q78 -10 101 -88q10 -34 6.5 -72.5t-19.5 -72.5q-45 -89 -152 -135t-203 -19q-5 1 -9 -1.5t-5.5 -7.5t1 -9t7.5 -6q51 -15 108.5 -7.5t110 29t96 60t67.5 86.5q18 37 22.5 80.5t-6.5 82.5q-13 42 -44 70t-79 34q-24 3 -92 -5q59 57 76 81q41 57 31 111q-7 35 -28.5 52
t-52.5 19q-52 2 -103 -31q-7 -4 -12.5 -8t-11.5 -10l-12 -11q-3 -3 -9.5 -10.5l-9.5 -11t-9.5 -12l-8.5 -11t-9 -12.5t-8 -11q-2 -3 -1.5 -8zM91 585q2 1 8.5 10t8.5 11.5t9 12t10.5 13t10 11t11.5 12.5l12 11q6 6 13.5 12t14.5 10q59 37 121 35q40 -2 70 -26t39 -69
q12 -68 -37 -135q-18 -26 -16 -23q-16 -2 12 -5q58 -8 95 -42t53 -84q12 -45 7.5 -93.5t-25.5 -91.5q-27 -52 -74.5 -94.5t-104 -66t-119 -31t-119.5 9.5q-17 4 -25.5 19t-4 32t19.5 25.5t32 3.5q86 -23 183 19t137 121q13 28 16.5 61.5t-4.5 61.5q-18 58 -76 66l-35 2
q-10 0 -29.5 -5t-31 -9t-34 -12.5t-42.5 -14.5h-1q-12 -2 -22 1q-22 6 -28 28q-5 15 2 30q4 8 9 12q3 5 12 9l21 14q37 22 54 36q48 39 70 70q27 38 21 70q-4 26 -29 27q-35 2 -73 -23q-12 -8 -26.5 -23t-21.5 -24l-26 -35q-11 -14 -28 -16.5t-31 8t-16.5 27.5t7.5 32z" />
    <glyph glyph-name="four" unicode="4" horiz-adv-x="600" 
d="M286 263q-8 131 -7 197q1 2 -53 -99q-40 -74 -57 -96h21q54 0 96 -2zM341 713q-3 4 -8 4.5t-9 -2.5t-4 -6v-3q-33 -117 -142 -319q-40 -75 -74 -120q-7 -9 -26 -27q-8 -9 -12 -13q-2 -3 -2 -7q-2 -10 5 -14q12 -9 31 -2q4 0 7 1.5l5 2.5t7 1q17 2 71 2q55 0 130 -4
q10 -122 24 -216q1 -4 5 -7t8.5 -2.5t7.5 4.5t3 9q-14 89 -23 210q85 -6 206 -19q5 -1 9 2.5t4.5 8t-2.5 9t-8 4.5q-127 13 -211 20q-18 273 1 473q0 6 -3 10zM190 235h-80q50 68 90 140q53 101 112 227q-4 -208 6 -371q-75 4 -128 4zM374 701q-19 -198 -3 -443
q59 -5 186 -18q18 -2 28.5 -15.5t9 -31t-15.5 -28t-31 -9.5q-121 13 -171 17q7 -85 21 -174q1 -17 -9 -31t-27 -16.5t-31 7.5t-17 28q-14 94 -22 192q-48 2 -102 2q-52 0 -69 -2h0.5t-4 -1.5t-9.5 -3.5q-31 -9 -55 6q-25 16 -19 44q1 12 9 21q4 6 13 15q19 18 24 25
q32 43 72 116q107 200 138 309v1q3 17 16 27t30 8.5t28 -14.5t10 -31z" />
    <glyph glyph-name="five" unicode="5" 
d="M406.5 670.5q3.5 3.5 3.5 8.5t-3.5 8.5t-8.5 3.5q-92 0 -133 -1q-57 -1 -81 -3q-19 -2 -30 -4q-15 -2 -21 -6q-7 -5 -12 -17q-2 -8 -4 -22q-3 -21 -3 -57q0 -22 0.5 -56.5t0.5 -39.5q0 -2 -0.5 -7t-1 -14t-0.5 -15q-1 -16 -2 -24v-7v-4v-3q0 4 1 3v-5q-1 1 0.5 -1t3.5 -3
q4 -4 10 -3q1 0 4 2q2 1 4 3q2 1 5 5l17 18q27 30 43 42q65 50 126 50q68 -1 105 -69q38 -75 27 -162.5t-64 -159.5q-34 -47 -79.5 -76t-101 -34.5t-114.5 21.5q-4 2 -9 0t-7 -6t0 -9t7 -7q66 -31 127 -23.5t110.5 38.5t86.5 82q55 77 67.5 169.5t-29.5 178.5
q-43 80 -125 81q-71 0 -143 -56q-8 -6 -44 -42q0 42 -0.5 76t-0.5 57q0 34 3 55q1 7 5 24h13q9 2 26 3q27 2 80 3q40 1 133 1q5 0 8.5 3.5zM398 637q-93 0 -132 -1q-53 -1 -79 -3q-15 -1 -25 -3h9q1 7 0 2q-3 -19 -3 -51q0 -23 0.5 -57t0.5 -4q-14 -14 -4 -6q80 62 161 62
q100 -1 152 -97q46 -94 32.5 -195.5t-73.5 -184.5q-40 -55 -95 -89t-123.5 -42.5t-142.5 24.5q-16 8 -22 24t1 32t23 22t32 0q52 -25 100 -19.5t88 30.5t71 68q48 66 58 144.5t-24 145.5q-28 52 -78 53q-51 0 -108 -44q-14 -10 -39 -38l-16 -18l-9 -9q-5 -4 -9 -5
q-4 -4 -13 -6q-20 -3 -34 9q-6 5 -9 10l-6 10v1q-1 1 -1 9v3v4v9q1 8 2 22q0 6 0.5 16t1 15l0.5 5q0 5 -0.5 39.5t-0.5 56.5q0 38 3 61q3 16 6 28q8 22 24 33q11 6 32 10q12 2 32 4q26 2 83 3q42 1 134 1q17 0 29.5 -12.5t12.5 -29.5t-12.5 -29.5t-29.5 -12.5z" />
    <glyph glyph-name="six" unicode="6" 
d="M299 88q26 19 65 77q39 62 49 118q9 48 -9 66q-3 3 -9 4.5t-9 1.5q-23 -8 -44 -42.5t-33 -89.5q-19 -89 -10 -135zM259.5 692.5q1.5 4.5 -0.5 9t-7 6t-9 -0.5q-58 -30 -105 -133q-43 -97 -60 -215q-16 -125 7 -216q27 -107 102 -136q55 -22 120 22q56 36 103 107
q44 71 56 138q14 75 -24 113q-14 14 -33.5 19t-39.5 1q-42 -14 -70 -61q-29 -47 -42 -111q-24 -112 0 -207q-40 -8 -61 1q-64 26 -88 120q-22 87 -6 207q16 114 59 208q43 95 92 121q5 3 6.5 7.5zM280 229q13 61 38 102.5t59 51.5q11 4 25 0.5t23 -12.5q29 -30 18 -94
q-12 -62 -54 -128q-42 -64 -111 -111q-19 96 2 191zM267 659q-40 -22 -79 -107q-41 -90 -56 -200q-15 -114 5 -195q20 -80 70 -100l13 -5q-18 71 8 189q14 70 45 121q34 55 88 73q28 8 55.5 0t46.5 -26q49 -50 33 -141q-14 -73 -61 -148q-50 -77 -112 -117q-78 -52 -147 -24
q-89 35 -120 156q-25 97 -8 228q18 122 63 223q51 113 119 147q15 8 31.5 2.5t24 -21t2.5 -32t-21 -23.5z" />
    <glyph glyph-name="seven" unicode="7" horiz-adv-x="438" 
d="M65.5 696.5q-3.5 -3.5 -4 -9t3 -9.5t7.5 -5q96 -9 306 1l-30 -56q-44 -82 -55 -110q-25 -62 -45 -133q-66 1 -108 9q-5 1 -9.5 -2t-5.5 -8.5t2 -9.5t8 -5q40 -8 106 -9q-30 -136 -35 -318q0 -6 3.5 -10t8.5 -4t8.5 3.5t3.5 8.5q5 188 35 319q20 0 108 2q5 0 8 4t3 9.5
t-3.5 9t-9.5 3.5q-3 0 -32.5 -1t-66.5 -1q21 69 44 124q10 26 53 106l27 52q6 11 8 18q2 3 3 5t1 3v1q1 5 -2 10q-7 13 -26 10q-1 -1 -12 -4q-6 -1 -9 -1t-31.5 -1.5t-34 -1.5t-29.5 -1t-32 -1t-29.5 -0.5t-33 0t-29 1t-33.5 1.5t-32 3q-6 1 -9.5 -2.5zM78 729q16 -2 31 -3
t32.5 -1.5t29 -1t32 0t28.5 0.5t32 1t29.5 1t34 1.5t32.5 1.5l2 1q7 1 10 2q43 7 61 -24q8 -13 6 -26q0 -6 -1.5 -9t-2.5 -6t-3 -6q-2 -5 -8 -18l-27 -52q-43 -78 -53 -104q-21 -53 -30 -82q-5 0 24.5 1t33.5 1q19 0 31 -12.5t12 -30t-11.5 -30.5t-28.5 -13q-88 -2 -85 -2
q-24 -105 -29 -289q0 -19 -13 -30.5t-30 -11.5t-29 13t-12 31q5 186 28 288q-32 1 -74 9q-17 3 -27 18t-7 32.5t17.5 27.5t31.5 7q40 -8 80 -9q14 51 41 115q11 28 55 112l5 10q-159 -8 -258 1q-17 3 -27.5 16t-9 31.5t15 29t31.5 9.5z" />
    <glyph glyph-name="eight" unicode="8" 
d="M218 456q2 2 6 2q21 14 36.5 34t21 40t3.5 39.5t-9 34.5q-16 30 -41 33q-34 3 -76 -43q-18 -19 -29 -44.5t-10 -48.5q1 -42 45 -51q24 -5 35 -4l-1 -1l5 3l3 1q8 4 11 5zM238 368q-2 -3 -29 -36q-46 -59 -58 -131q-15 -80 25 -126q39 -47 115 -31q29 6 55.5 37t41.5 78.5
t12 89.5q-3 41 -21 63q-36 43 -130 61q2 0 -1 -1q-7 -2 -12 -4h2zM167 368q-55 -71 -70 -156q-9 -50 1 -95t37 -77q28 -34 71 -48q43 -13 97 0q46 10 82 52t54 100q19 50 15 109t-33 95q-40 49 -149 78q45 45 57.5 79t10 66.5t-15.5 59.5q-14 25 -35.5 41t-47.5 19
q-61 6 -122 -57q-24 -26 -39 -62t-14 -69q1 -38 22.5 -65t65.5 -36q5 -2 37 -2zM219 423l-3 -1l-3 -1l-5 -3q-21 -1 -49 4q-68 15 -69 81q-1 29 12 60.5t35 52.5q52 58 102 53q41 -5 63 -49q11 -21 13 -45.5t-4.5 -50.5t-26 -50t-51.5 -46h-1q-7 -1 -13 -5zM231 398q1 0 7 2
q7 3 13 3q108 -20 151 -71q25 -30 28 -81q3 -48 -14 -100.5t-48.5 -90.5t-70.5 -46q-94 -20 -144 41q-49 58 -32 152q14 78 64 143l39 48h7zM131 370q23 0 15 2q-53 11 -81 47t-29 84q-1 39 16 80t45 71q71 75 147 67q35 -3 62.5 -24t43.5 -52q17 -33 19.5 -71.5t-12 -78.5
t-27.5 -53q68 -19 114 -74q36 -44 40 -111t-17 -123q-20 -62 -59 -110q-43 -50 -99 -62q-61 -13 -112 2q-52 16 -85 56q-32 38 -43 90t-2 108q17 91 76 168z" />
    <glyph glyph-name="nine" unicode="9" horiz-adv-x="441" 
d="M384 498q0 -81 -1 -241.5t-1 -241.5q0 -5 4 -8.5t8.5 -3.5t8 3.5t3.5 8.5q0 81 1 241.5t1 241.5q0 61 -1 114q0 28 -1 44v12q-1 4 -1 5v2q0 3 -1 4q-4 6 -11 6q-5 0 -19 -8q-67 54 -141 19q-60 -29 -113 -105q-50 -73 -62 -140q-12 -81 36 -107q37 -19 82 8q35 20 74 66
q37 44 104 150l30 41v-111zM332 641q-33 27 -78.5 5t-89.5 -86q-43 -62 -52 -118q-7 -42 9 -50q8 -5 28 6q26 16 60 56t99 142q17 28 24 41q8 -2 0 4zM354 519l25 33q-67 -108 -106 -154q-43 -50 -82 -72q-59 -35 -111 -8q-67 36 -51 137q12 75 66 154q57 82 125 115
q92 43 157 -11q2 2 16 2q24 0 36 -20q3 -5 5 -10q1 -3 1 -6t1 -7v-16q1 -16 1 -44q1 -53 1 -114q0 -81 -1 -241.5t-1 -241.5q0 -17 -12 -29.5t-29.5 -12.5t-30 12.5t-12.5 29.5q0 81 1 241.5t1 241.5v21zM377 657l-44 -77q-65 -104 -102 -147t-67 -61q-35 -19 -58 -6
q-34 18 -23 80q9 64 56 132q48 70 106.5 98t105.5 -11q2 -2 26 -8z" />
    <glyph glyph-name="colon" unicode=":" horiz-adv-x="200" 
d="M85 474q-2 5 -6 7.5t-9 1t-7.5 -5.5t-0.5 -9q9 -39 11 -43q3 -10 6 -14q5 -10 13 -11t16 5q4 3 10 11q6 7 29 41q3 4 2 8.5t-5 7.5t-9 2t-7 -5l-32 -42zM87 97q-3 7 -7.5 9t-9 0t-6.5 -6.5t0 -9.5q6 -14 13 -40q4 -11 6 -16q3 -8 7 -12q8 -10 19 -6q7 2 13 12q9 13 28 51
q2 4 0.5 8.5t-6 7t-9 1t-7.5 -6.5l-23 -44q-15 45 -18 52zM110 496l-7 -10q9 16 26.5 19t32 -7t17.5 -27.5t-8 -31.5q-23 -34 -29 -41q-8 -10 -16 -17q-18 -14 -39 -11q-23 5 -34 25q-5 8 -8 20q-2 4 -12 45q-5 17 3.5 32t25.5 19.5t32 -4t20 -25.5zM111 121l-9 -18
q7 15 23.5 20.5t32 -2t21 -24t-1.5 -32.5q-20 -40 -31 -55q-11 -16 -27 -22q-31 -12 -52 14q-7 8 -12 22q-2 5 -6 18q-7 24 -13 36q-6 17 0 32.5t22.5 22.5t32 1t21.5 -20t-1 7z" />
    <glyph glyph-name="semicolon" unicode=";" horiz-adv-x="182" 
d="M97 482q-1 5 -5.5 7.5t-9.5 1t-7 -6t0.5 -12.5l7 -23.5t5.5 -19.5q3 -9 6 -15q4 -8 11 -11q9 -5 18 1q5 4 10 12q8 10 27 45q2 4 1 8.5t-5 7t-9 1t-7 -5.5l-25 -44zM96.5 53q-3.5 3 -8.5 3t-8.5 -4t-2.5 -9q3 -43 -11 -70q-12 -25 -49 -53q-3 -3 -4 -7.5t2 -8.5t7.5 -4.5
t9.5 2.5q41 31 56 61q16 32 13 82q-1 5 -4.5 8zM123 502l-10 -16q8 16 25.5 20.5t32.5 -4t19.5 -26t-4.5 -31.5q-20 -35 -28 -47q-9 -12 -18 -18q-25 -18 -49 -3q-16 7 -24 25q-3 6 -8 19q-1 4 -5.5 19.5t-9 28.5t3.5 28.5t24.5 21t32 -2t21.5 -24.5zM131 47q4 -58 -16 -98
q-19 -36 -65 -71q-14 -11 -31.5 -8.5t-27.5 16.5t-7.5 31.5t16.5 26.5q30 24 39 43q10 19 8 54q-2 17 9.5 30t29 15t30.5 -10t15 -29z" />
    <glyph glyph-name="less" unicode="&#x3c;" horiz-adv-x="300" 
d="M280 524q-1 5 -5 7.5t-9 2t-8 -4.5q-8 -12 -113 -121q-44 -46 -65 -70q-14 -15 -20 -25q-5 -7 -8 -12q-3 -6 -4 -10q-1 -23 27 -68q22 -35 63 -83q70 -84 126 -133q3 -3 8 -3t8.5 3.5t3 9t-4.5 8.5q-53 49 -123 130q-40 47 -61 81q-16 26 -25 53l8 8l20 26l64 68
q108 113 116 124q3 4 2 9zM303 497q-10 -13 -119 -126l-63 -68l-18 -22q-1 -3 1 0q2 -7 16 -29q20 -32 59 -77q68 -81 120 -128q13 -11 14.5 -28.5t-10.5 -30t-29.5 -14.5t-30.5 11q-56 51 -128 135q-42 50 -65 87q-34 53 -32 86q2 12 8 24q4 5 9 12q7 12 23 29q21 24 65 70
q104 109 111 119q11 14 28 16.5t31 -8t16.5 -27.5t-6.5 -31z" />
    <glyph glyph-name="equal" unicode="=" horiz-adv-x="235" 
d="M56 330q-4 -3 -4.5 -8t3 -9t8.5 -4q92 -6 138 -3q5 0 8.5 4t3 9t-4.5 8t-8 3q-45 -3 -136 3q-4 0 -8 -3zM56.5 238q-3.5 -3 -4 -8.5t3 -9t9.5 -3.5q132 -7 139 -7q4 0 8 3.5t4 8.5t-4 8.5t-8 3.5q-6 0 -140 7q-4 0 -7.5 -3zM67 363q88 -6 130 -3q18 2 31 -10t14.5 -29
t-10 -30t-28.5 -15q-49 -3 -144 3q-17 2 -28.5 15t-10 30t14.5 29t31 10zM67 271q132 -7 137 -7q17 0 29.5 -12.5t12.5 -29.5t-12.5 -29.5t-29.5 -12.5q-8 0 -141 7q-18 2 -30 14.5t-10.5 30t14 29.5t30.5 10z" />
    <glyph glyph-name="greater" unicode="&#x3e;" horiz-adv-x="300" 
d="M78 514q-5 0 -8.5 -3.5t-3 -9t4.5 -8.5q22 -21 111 -123q43 -51 64 -79q14 -17 27 -36q-13 -18 -25 -31q-21 -24 -61 -65l-63 -66l-46 -45q-2 -4 -2 -8.5t3.5 -8t8.5 -3.5t9 4l45 47l63 63l61 67q13 14 20 24l8 10q3 6 3 10q0 5 -4 13q-2 4 -6 9q-8 12 -22 31
q-23 32 -65 79q-86 101 -114 126q-3 3 -8 3zM107 533q28 -25 116 -128q42 -49 67 -81q14 -19 22 -31q6 -9 8 -15q7 -12 7 -25q0 -12 -8 -26l-8 -12q-9 -12 -22 -26q-20 -23 -63 -67l-63 -65l-45 -45q-12 -14 -29 -14t-30 11.5t-13 29t11 29.5l46 47l63 64l59 65q12 13 11 11
q-1 1 -13 18q-21 28 -64 77q-87 102 -108 121q-13 11 -14.5 28.5t10.5 30t29.5 14.5t30.5 -11z" />
    <glyph glyph-name="question" unicode="?" horiz-adv-x="432" 
d="M141 79q-4 5 -9 5t-9 -3t-4 -8t2 -8q11 -12 28 -37q6 -7 9 -11q6 -7 12 -9q15 -6 28 13q6 10 22 43q2 4 0.5 8.5t-6 7t-9 1t-7.5 -6.5l-22 -43q-26 37 -35 48zM59.5 543q1.5 -5 6 -7.5t9 -1t7.5 5.5q34 63 81 97q49 36 112.5 22.5t86.5 -66.5q26 -59 -22 -111
q-39 -42 -111 -69l-45 -12q-36 -9 -49 -22t-15 -45q-1 -22 4 -59l11 -59q6 -35 7 -43q0 -5 4.5 -8.5t9 -3t8 5t2.5 12t-8 41.5q-7 39 -10 59q-5 34 -4 54q0 8 1 13t1 11l6 6q9 8 37 15l50 13q75 29 118 74q59 64 27 138q-19 43 -61.5 65.5t-90 18.5t-83.5 -30
q-50 -37 -89 -105q-2 -4 -0.5 -9zM172 89v-1q7 15 23.5 20.5t32 -2t21 -24t-1.5 -32.5q-17 -35 -25 -45q-25 -39 -64 -25q-12 6 -22 17q-5 4 -11 15q-17 23 -26 33q-11 13 -9.5 30t14.5 29t30 10t29 -15q11 -13 9 -10zM34 566q42 74 97 115q44 32 99.5 36t107 -22.5
t74.5 -79.5q40 -92 -33 -170q-47 -51 -130 -82l-52 -13q-22 -7 -25 -9l4 4q0 4 -1 -1t-1 -11q-1 -18 4 -50q3 -20 10 -57q7 -36 8.5 -50.5t-9.5 -28t-28.5 -15t-31 9t-15.5 27.5q-1 8 -7 41l-11 61q-5 39 -4 65q2 44 23 65q19 19 63 30l44 10q63 25 98 61q34 38 16 79
q-17 39 -66 49.5t-87 -17.5q-41 -30 -73 -87q-9 -16 -25.5 -20.5t-32 4t-20 24.5t3.5 32z" />
    <glyph glyph-name="at" unicode="@" horiz-adv-x="800" 
d="M431.5 535q2.5 4 1 9t-5.5 7.5t-9 1.5q-52 -14 -98 -69.5t-72 -123.5q-25 -70 -21 -124q6 -63 54 -80q53 -17 110 21q49 35 71 89l16 17q35 -55 77 -71q42 -17 90 -2q45 15 76 64q30 50 43 116q12 57 4.5 120.5t-35.5 99.5q-49 62 -124.5 88.5t-152.5 17t-146 -44.5
q-100 -52 -167 -165.5t-74 -231.5q-7 -128 58 -209q74 -90 225 -92q87 -1 143.5 23.5t127.5 85.5q4 3 4.5 8t-3 9t-8.5 4t-9 -3q-68 -59 -120 -82q-53 -22 -135 -21q-139 1 -206 84q-60 73 -53 191q8 114 71.5 221.5t155.5 155.5q67 35 139.5 43t141.5 -16t114 -82
q23 -29 29 -85q8 -54 -4 -115q-11 -62 -38.5 -105.5t-63.5 -54.5q-55 -18 -99.5 14t-51.5 90q-2 6 -2 20v23l-2 2q2 -2 -1 4q-1 3 -2 4q-5 3 -11 2q-4 0 -7 -4q-1 -2 -2 -3q0 -1 -0.5 -4t-0.5 -9v-19q-3 -38 -21 -82q-17 -45 -61 -74q-46 -33 -88 -18q-33 11 -38 59
q-4 48 20 113t65 114q43 51 88 63q5 2 7.5 6zM432 501q-36 -10 -73 -55q-38 -45 -59.5 -104t-18.5 -101q3 -28 18 -33q27 -9 61 14q36 25 50 62q17 40 19 72v17q0 8 0.5 11t0.5 6q4 11 8 17q11 14 27 16q18 3 32 -8q10 -7 13 -18q0 2 3 -2q0 -4 1 -6q1 -13 1 -31
q0 -12 1 -16q6 -46 39 -69t74 -11q26 9 48.5 45.5t33.5 92.5q10 55 3 105q-5 48 -23 71q-39 50 -100.5 72t-128 14t-128.5 -39q-85 -44 -144.5 -145.5t-66.5 -207.5q-6 -106 46 -171q58 -71 183 -72q76 -1 123 19q48 21 112 76q14 13 31.5 11t29 -15t10 -30t-14.5 -28
q-75 -65 -136.5 -91.5t-154.5 -25.5q-165 2 -248 104q-73 89 -65 229q8 126 79 245.5t178 175.5q74 39 157 48.5t166 -19t138 -98.5q33 -42 41.5 -112.5t-5.5 -131.5q-13 -70 -47 -126q-36 -59 -92 -76q-58 -19 -110 2q-51 20 -71 51l14 15q-22 -58 -79 -97
q-69 -48 -137 -25q-66 23 -74 106q-5 60 23 136q27 74 78 134.5t112 76.5q17 5 32 -3.5t19.5 -25.5t-4 -32t-25.5 -19z" />
    <glyph glyph-name="A" unicode="A" horiz-adv-x="600" 
d="M216 260q96 30 189 49q-19 69 -47 185q-2 9 -20 99l9 -37q-37 -76 -67 -145zM193 196q131 42 257 66q43 -144 89 -254q2 -4 6.5 -6t9.5 0t6.5 6.5t-0.5 8.5q-45 107 -88 249q50 9 82 12q4 0 7.5 4.5t3 9t-4.5 8t-9 2.5q-35 -4 -86 -12q-26 94 -56 215q-2 9 -20 98l-10 60
l-4 20l-2 7v-3l-1 1v7v1q0 -5 2 -7l-4 7q-5 6 -13 3q-3 -1 -5 -3q-1 -2 -2 -3.5t-2.5 -5t-7.5 -15.5l-23 -52l-88 -187q-50 -114 -96 -231q-33 -11 -54 -16q-5 -1 -8 -4.5t-1.5 -8.5t5 -8t9.5 -1q4 0 38 13l-65 -175q-2 -5 0 -9.5t7 -6t9.5 0.5t5.5 7q33 92 72 189
q31 10 41 13zM252 423l104 221l11 -45q18 -90 20 -99q28 -114 56 -215q-124 -25 -280 -73zM175 159q-34 -83 -66 -175q-5 -17 -21.5 -24t-33 -1.5t-23.5 22t-1 31.5l42 113q23 9 17 9q-16 -4 -30 6t-18 27t6.5 31.5t26.5 17.5q19 3 37 10q41 105 92 219l88 187l23 52l7 16.5
t5 9t5 6.5q7 8 17 11q27 11 48 -13l3 -7q4 -4 4 -11v-1v5l1 -1v-7l1 -3l4 -20l11 -60q17 -89 19 -96q30 -121 49 -189q25 4 61 8q17 1 31 -9.5t15.5 -28t-9.5 -31t-28 -15.5q-31 -3 -47 -6q33 -108 78 -213q6 -16 0 -32.5t-22.5 -22.5t-33 0t-22.5 24q-46 110 -82 230
q-98 -20 -227 -60q-10 -3 -27 -9z" />
    <glyph glyph-name="B" unicode="B" 
d="M313 41q117 46 147 138q14 46 -0.5 89.5t-50.5 76.5q-30 27 -69 43.5t-121 16.5q75 59 102 89q53 60 50 112q-2 54 -44 75q-33 16 -87 8q-71 -9 -154 -56l-7 30q0 5 -4.5 7.5t-9 1.5t-7.5 -5t-1 -9q21 -101 30.5 -216t8 -218.5t-4.5 -219.5q0 -5 3.5 -9t8.5 -4q7 0 15 12
q111 5 195 38zM147 59q74 4 146 32q94 37 115 104q19 59 -36 110q-26 25 -59.5 37t-64.5 8q-20 -2 -33.5 -5.5t-20.5 -6t-28 -11.5q-9 -6 -17 -9q3 -103 -2 -259zM124 592q15 -90 20 -182l-17 -9q11 8 32 26l40 32q52 38 82 71q38 43 36 74q-1 22 -15 29q-17 8 -55 3
q-36 -5 -74 -20t-49 -24zM134 -27q-9 -14 -32 -12q-18 0 -29.5 13t-11.5 30q3 116 4.5 218.5t-8 216.5t-29.5 211q-5 17 4.5 32t26.5 19t32 -5.5t18 -26.5l-2 10q52 29 129 40q63 8 104 -12q58 -29 61 -99q4 -64 -58 -134q-29 -32 -37 -39q1 0 45 -18.5t78 -49.5
q42 -39 59.5 -90.5t-0.5 -107.5q-34 -104 -164 -156q-89 -35 -190 -40zM118 338q26 11 34 15q24 11 32 13.5l23 7t38 6.5q37 4 77 -10t70 -43q69 -63 45 -142q-26 -79 -133 -122q-77 -30 -188 -36q6 188 2 311zM162 644q41 17 81 22q47 7 73 -7q29 -15 31 -53q3 -43 -44 -96
q-32 -35 -86 -75l-39 -32q-22 -18 -36 -28l-26 -13q-7 136 -25 244q30 21 71 38z" />
    <glyph glyph-name="C" unicode="C" horiz-adv-x="531" 
d="M368.5 569q4.5 -2 9.5 0t6.5 6.5t-0.5 8.5q-22 55 -54.5 83t-70.5 26q-37 -2 -70.5 -30.5t-57.5 -79.5q-46 -93 -62 -227t13 -236q19 -63 56.5 -95.5t85.5 -33.5q44 -1 89 23t83 66q7 7 13 14.5l13 16.5l12 16q5 6 12 17.5t10.5 16.5t11.5 18.5t9.5 16.5t10.5 18.5
t10 16.5q2 3 0.5 8t-5.5 7.5t-9 1t-6 -4.5q-2 -2 -10 -17l-10 -16l-8 -14q-8 -12 -10 -15.5l-8.5 -14.5t-10.5 -15.5t-10 -13.5t-10 -14l-10 -13q-7 -8 -13 -14q-34 -38 -75 -59.5t-79 -21.5q-85 1 -119 113q-28 95 -12.5 225t59.5 220q23 46 51 70.5t57 25.5
q27 1 54.5 -21.5t47.5 -72.5q2 -4 6.5 -6zM334 565q-17 42 -37 58.5t-36 15.5q-18 -1 -40 -19.5t-42 -60.5q-42 -84 -57 -209t12 -214q27 -90 90 -91q31 0 66 18.5t66 52.5l12 12l9 13q4 5 10 14t9.5 13.5t9.5 14.5l8 13.5t10 15.5l8 14l10 16q8 13 9 15q8 15 25 19.5t32 -4
t19.5 -25.5t-5.5 -34q-1 -1 -9 -15.5t-10 -17.5t-10 -16.5t-11.5 -18.5t-10.5 -16.5t-13 -19.5l-12 -16l-14 -17.5t-14 -15.5q-41 -46 -92 -73t-103 -26q-58 1 -103 39.5t-67 111.5q-30 108 -14 248q17 138 65 237q27 55 66.5 89.5t87.5 36.5q50 2 89.5 -32t64.5 -95
q6 -16 0 -32.5t-22.5 -22.5t-33 0t-22.5 24z" />
    <glyph glyph-name="D" unicode="D" horiz-adv-x="600" 
d="M165 624v-571q133 -5 221 38q75 38 99 100q25 63 7 140q-17 75 -67 142q-51 67 -117 103q-74 41 -143 48zM51.5 677q-3.5 -4 -3 -9t4.5 -8t8 -3l50 3v-631q-17 -7 -18 -14q0 -5 3.5 -9t8.5 -4q90 -6 165 1.5t140 39.5q94 47 125.5 127t9.5 173q-20 86 -78 162.5
t-133 118.5q-126 69 -274 57q-5 0 -8.5 -4zM323 602q71 -38 126 -111q53 -73 72 -154q20 -85 -9 -156q-28 -74 -113 -116q-94 -47 -264 -40v633q108 -11 188 -56zM57 711q158 12 292 -61q81 -44 142 -126.5t83 -174.5q24 -101 -11.5 -191t-139.5 -141q-69 -36 -148 -43.5
t-173 -1.5q-17 2 -28.5 15t-9.5 30q1 27 17 32v579l-17 -1q-18 -2 -31 10t-14.5 29t10 30t28.5 15z" />
    <glyph glyph-name="E" unicode="E" horiz-adv-x="463" 
d="M101 649q-14 14 -20 14q-4 0 -7.5 -4t-3.5 -9q1 -29 -6 -132q-9 -131 -11 -190q-4 -113 2 -181q8 -88 37 -115q50 -47 171 -26q85 14 169 51q4 2 6 7t0 9t-7 6t-9 0q-82 -35 -162 -50q-111 -18 -152 21q-21 20 -29 100q-5 59 -3 173q25 -9 29 -8q25 5 56 12.5l54 13.5
l60 15l54 15q5 2 7.5 6t1 9t-5.5 7.5t-9 1.5l-67 -19q-53 -15 -87.5 -23t-66.5 -13q-3 -2 -25 -2l11 178q5 69 6 116h16q94 16 256 54q5 1 7.5 5t1.5 9t-5 7.5t-9 0.5q-161 -37 -257 -52q4 0 -3 -7zM102 686q92 15 251 52q17 4 32 -5.5t19 -26.5t-5.5 -32t-26.5 -18
q-162 -38 -260 -54h12q-1 -19 -6 -88l-9 -146q-18 0 -17 0q36 7 69.5 15l86.5 21l67 19q17 5 32 -3.5t19.5 -25.5t-4 -32t-25.5 -19l-54 -15l-60 -17q-23 -6 -55 -13.5t-59 -12.5q-12 -1 -3 -4q-2 -72 3 -129q6 -68 19 -80q31 -29 126 -13q78 13 156 48q16 6 32 0t23 -22
t1 -32t-22 -24q-88 -37 -175 -53q-137 -23 -197 34q-37 35 -47 135q-6 70 -2 185q2 59 11 190q7 101 6 130q0 17 11.5 30t29.5 13t20 -2q-5 -5 1 -5z" />
    <glyph glyph-name="F" unicode="F" horiz-adv-x="438" 
d="M98 652q-8 12 -15 12q-5 0 -8.5 -3.5t-3.5 -8.5q0 -105 5.5 -316t5.5 -316q0 -5 3.5 -8.5t8.5 -3.5t8.5 3.5t3.5 8.5q0 103 -5 295q44 9 76 18l82 20l64 18q5 2 7.5 6t1 9t-5.5 7.5t-9 1.5l-62 -17l-74.5 -20.5t-80.5 -17.5q-4 183 -5 289h22q92 14 280 54q5 1 7.5 5
t1.5 9t-5 7.5t-9 0.5q-186 -39 -277 -52q-3 -1 -17 -1zM105 683q95 13 279 52q17 4 32 -5.5t19 -26.5t-5.5 -32t-26.5 -18q-188 -40 -284 -54h6q1 -76 5 -223l43.5 10.5t73.5 19.5l62 17q17 5 32 -3.5t19.5 -25.5t-4 -32t-25.5 -19l-64 -18l-82 -22q-34 -9 -54 -12
q5 -168 5 -271q0 -17 -12.5 -29.5t-29.5 -12.5t-29.5 12.5t-12.5 29.5q0 105 -5.5 316t-5.5 316q0 17 12.5 29.5t29.5 12.5q23 0 31 -12q-10 0 -9 1z" />
    <glyph glyph-name="G" unicode="G" horiz-adv-x="540" 
d="M340.5 638q4.5 0 8 4t3.5 8.5t-4 8.5q-36 34 -74.5 37.5t-69.5 -18.5q-55 -34 -94 -118q-29 -64 -42.5 -139t-4 -154.5t41.5 -140.5q33 -57 77.5 -91.5t93.5 -39.5q50 -5 95 26.5t76 98.5q4 7 32 72q6 -125 6 -248q0 -5 3.5 -8.5t8.5 -3.5t8.5 3.5t3.5 8.5
q0 78 -0.5 119.5t-5.5 109t-16 122.5l1 9q1 4 -2.5 8t-8.5 4q-2 0 -6 -1h-4l-51 -12t-43 -11.5l-52 -17.5t-45 -15q-4 -2 -6.5 -6.5t-1 -9t6.5 -7t10 -1.5q124 42 179 54q-13 -105 -38 -160q-29 -60 -68 -86.5t-80.5 -23.5t-81 34.5t-69.5 84.5q-47 92 -43 204.5t49 207.5
q34 76 84 108q58 36 115 -17q4 -3 8.5 -3zM312 619q-41 37 -79 13q-42 -26 -73 -94q-42 -91 -46 -196.5t39 -189.5q27 -47 61 -73.5t65.5 -29.5t62.5 18.5t57 73.5q23 51 30 110q-12 -2 -135 -44q-17 -5 -32.5 2.5t-21 24t2 32t23.5 21.5q8 2 45.5 15t52.5 17.5t44.5 12.5
t55.5 13h3q4 1 12 1q17 -2 29 -15t10 -31l-1 -5q11 -51 16 -119.5t5.5 -111t0.5 -120.5q0 -17 -12.5 -29.5t-29.5 -12.5t-29.5 12.5t-12.5 29.5q0 123 0 118q23 51 19 44q-34 -73 -87 -109.5t-114 -31.5q-58 5 -108 44.5t-86 102.5q-35 65 -45 149.5t4 164.5t45 146
q42 92 105 132q39 26 88 21.5t92 -44.5q14 -12 14 -29.5t-11.5 -30.5t-28.5 -13t-30 11z" />
    <glyph glyph-name="H" unicode="H" horiz-adv-x="528" 
d="M401 14q1 -5 4.5 -8.5t9 -3t8.5 4.5t2 9q-12 135 -12 333q39 2 63 2q5 0 8.5 3.5t3.5 8.5t-3.5 8.5t-8.5 3.5q-24 0 -62 -2q0 48 1.5 156t1.5 167q0 5 -3.5 8.5t-8.5 3.5t-8.5 -3.5t-3.5 -8.5q0 -59 -1.5 -167t-1.5 -156q-125 -6 -258 -26q-3 158 -8 327q0 4 -4 7.5
t-8.5 3.5t-8 -4t-3.5 -9q6 -173 8 -331l-43 -7q-5 -1 -8 -5t-1.5 -9t5.5 -8t8 -2l40 9q3 -166 3 -299q0 -5 3.5 -8.5t8.5 -3.5t8.5 3.5t3.5 8.5q0 137 -3 302q129 20 256 27q0 -196 12 -335zM359 317q-94 -5 -196 -21q3 -139 3 -276q0 -17 -12.5 -29.5t-29.5 -12.5
t-29.5 12.5t-12.5 29.5q0 133 -2 261l-5 -1q-17 -3 -31 7t-18 27t6 31t27 19l19 3q-2 132 -8 305q0 17 11.5 30t29 13t30.5 -11.5t13 -29.5q5 -169 8 -293q100 16 198 20q0 20 1.5 128t1.5 167q0 17 12.5 29.5t29.5 12.5t29.5 -12.5t12.5 -29.5q0 -59 -1.5 -167t-1.5 -124
h32q17 0 29.5 -12.5t12.5 -29.5t-12.5 -29.5t-29.5 -12.5h-33q0 -168 12 -303q2 -17 -9 -30t-29 -14.5t-31 9t-15 29.5q-12 139 -12 305z" />
    <glyph glyph-name="I" unicode="I" horiz-adv-x="133" 
d="M88 681.5q-4 3.5 -8.5 3.5t-8 -4t-3.5 -9q12 -371 12 -652q0 -5 3.5 -8.5t8.5 -3.5t8.5 3.5t3.5 8.5q0 281 -12 654q0 4 -4 7.5zM122 674q12 -373 12 -654q0 -17 -12.5 -29.5t-29.5 -12.5t-29.5 12.5t-12.5 29.5q0 281 -12 652q0 17 11.5 30t29 13t30.5 -11.5t13 -29.5z
" />
    <glyph glyph-name="J" unicode="J" horiz-adv-x="472" 
d="M68.5 262.5q-4.5 2.5 -9 1.5t-7.5 -5t-1 -11q0 -1 7 -29l8 -34q1 -7 7.5 -29.5t12 -33.5l14.5 -28t19 -30q33 -41 75 -59.5t85.5 -12t77.5 37.5t52 81q10 26 17 55.5t11.5 54t6.5 59.5t3.5 56t0 61t-1.5 56t-4 60l-5 56q-1 11 -6 57.5t-6 53.5q0 5 -4 8.5t-9 3t-8 -5
t-3 -9.5q1 -12 4 -36q9 -88 13 -136t6 -124.5t-7.5 -140t-29.5 -121.5q-16 -45 -45.5 -71t-65.5 -32t-72.5 10.5t-66.5 53.5q-7 9 -14 20.5t-13 25.5t-9 22.5t-8 26.5t-6.5 24.5l-6.5 28.5t-7 27q0 5 -4.5 7.5zM103 261q1 -5 6 -27t6.5 -27.5t6.5 -22.5l7.5 -25.5t8 -20.5
t11.5 -21.5l12 -18.5q25 -31 54 -43.5t56.5 -8.5t50.5 25t37 58q19 56 28 116.5t7 135t-6 122.5t-13 134q-3 24 -4 38q-1 17 9.5 30.5t28 15t31.5 -9t15 -27.5q1 -7 6 -54.5t6 -58.5l5 -56q4 -44 4 -61t1.5 -57t0 -62t-3.5 -58t-7 -61.5t-12 -56t-18 -58.5
q-20 -58 -60.5 -94t-92.5 -44.5t-101.5 14t-87.5 69.5q-11 15 -21 33t-16 31t-13 37.5l-9 31.5l-7 34q-8 30 -8 31q-4 15 5.5 30t26.5 19t32 -5.5t18 -26.5z" />
    <glyph glyph-name="K" unicode="K" horiz-adv-x="469" 
d="M329.5 663q-0.5 5 -4.5 7.5t-9 2t-8 -4.5l-115 -157q-43 -58 -66 -96l-27 -27q-4 151 -8 286q0 4 -4 7.5t-8.5 3.5t-8 -4t-3.5 -9q12 -371 12 -652q0 -5 3.5 -8.5t8.5 -3.5t8.5 3.5t3.5 8.5q0 120 -3 298l52 -73q60 -81 125 -135t155 -98q4 -2 8.5 -0.5t7 6t1 9t-6.5 7.5
q-90 44 -150 95q-61 51 -120 130q-22 30 -32 47q-16 28 -19 49l5 15l21 33q23 36 65 95l115 155q2 5 1.5 10zM352 637l-115 -157q-42 -57 -63 -93q-13 -20 -19 -31l-3 -5q1 -7 15 -29q10 -17 30 -45q57 -77 116 -126q56 -47 144 -91q15 -7 20.5 -23.5t-2 -32t-24 -21
t-32.5 2.5q-92 44 -160 101t-130 140l4 -5q1 -82 1 -202q0 -17 -12.5 -29.5t-29.5 -12.5t-29.5 12.5t-12.5 29.5q0 281 -12 652q0 17 11.5 30t29 13t30.5 -11.5t13 -29.5q4 -135 6 -216l-25 -25q23 36 66 96l115 157q9 14 26 16.5t32 -7t17.5 -26.5t-7.5 -32z" />
    <glyph glyph-name="L" unicode="L" horiz-adv-x="457" 
d="M90 694.5q-4 3.5 -8.5 3.5t-8 -4t-3.5 -9q1 -30 -5 -139q-8 -151 -10 -200q-4 -120 2 -191q4 -43 12 -72q8 -33 23 -47q49 -50 168 -27q76 14 165 53q4 2 6 7t0 9t-7 6t-9 0q-85 -37 -159 -52q-107 -20 -148 20q-9 10 -17 37q-6 26 -10 68q-6 70 -2 188q1 42 10 200
q6 109 5 142q0 4 -4 7.5zM124 687q1 -33 -5 -144q-9 -158 -10 -198q-4 -118 2 -186q4 -38 10 -62q5 -19 9 -23q29 -30 120 -12q71 13 153 50q16 6 32 0t23 -22t1 -32t-22 -24q-93 -39 -171 -55q-135 -25 -196 35q-19 20 -30 61q-9 31 -13 78q-6 73 -2 195q2 49 10 200
q6 107 5 137q0 17 11.5 30t29 13t30.5 -11.5t13 -29.5z" />
    <glyph glyph-name="M" unicode="M" horiz-adv-x="747" 
d="M59 10q3 -4 8 -4.5t9 2.5t5 8l80 495l15 85l11 60l43 -104q15 -46 69 -165q26 -59 44 -93q10 -20 16 -30q4 -7 7 -9l5 -6q3 -2 7 -2q8 0 15 7q4 3 8 9q9 11 22 32q19 33 49 94l76 162l5 10l12 24l14 30l23 23l8 -46q0 -1 13 -81q52 -324 70 -494q1 -4 5 -7.5t9 -3t8 5
t3 9.5q-20 188 -70 494q-15 83 -15 85q-5 31 -9 51q-3 11 -6 19q-1 3 -2 4l-2 4q0 1 -2.5 3t-5.5 3q-6 1 -11 -3q-4 -1 -6 -5q-5 -4 -10 -13q-10 -15 -22 -39l-13 -26l-12 -26l-5 -11l-77 -162q-29 -59 -49 -93l-22 -35l-15 35q-16 30 -43 91q-54 120 -70 163q-10 30 -25 66
q-12 26 -21 41q-5 9 -9 13t-8 5q-7 4 -13 0q-4 -1 -5 -3l-1 -5q-1 -1 -1 2q0 -2 -1 -8l-5 -18q-1 -5 -10 -53l-16 -87l-80 -494q0 -5 3 -9zM27 23l80 496l16 87q9 48 10 53q3 13 5 20v4q3 9 4 10t2 5q7 10 18 15q19 10 38 0q9 -3 17 -11t14 -21q10 -15 22 -43q16 -38 27 -68
q14 -41 68 -161q27 -59 43 -91l-7 17l-8 -13q18 32 47 91l77 162l5 9l12 26l13 28q14 26 24 41q7 11 12 17t12 11q17 12 37 5q9 -3 15.5 -8t9.5 -10l2 -4q4 -5 5 -12q3 -8 6 -21q4 -20 10 -55q0 -2 14 -83q50 -306 70 -496q2 -17 -9 -30.5t-28 -15t-31 9t-15 28.5
q-18 168 -70 492q-14 82 -14 83l3 -14l21 21l-12 -24l-12 -26l-5 -10l-76 -160q-30 -63 -51 -98q-13 -23 -22 -34q-7 -10 -14 -15q-15 -13 -34 -13q-14 0 -26 10l-7 6q-5 6 -11 15q-8 12 -18 32q-18 36 -44 95q-55 119 -71 167q-8 23 -3 10l7 38l-15 -85l-80 -495
q-3 -17 -17 -27t-31 -7.5t-27 16.5t-8 31z" />
    <glyph glyph-name="N" unicode="N" horiz-adv-x="540" 
d="M76.5 10.5q3.5 -3.5 8 -4t8.5 3t4 8.5q2 103 2 145t-3 146.5t-4 146.5q0 5 -0.5 19t-1 35.5t-0.5 100.5l67 -133q112 -211 233 -360l56 -71q17 -21 27 -32q7 -6 11.5 -9l7.5 -5q8 -1 13 5q2 3 3 5v1v4v7v22l-3 63q-5 106 -5 108q2 105 2 187q0 213 4 276q0 5 -3 9t-8 4
t-9 -3t-4 -8q-4 -63 -4 -278q0 -82 -2 -185q0 -12 5 -111l3 -70l-76 97q-119 147 -229 356l-48 92l-29 56q-6 11 -9 16q-4 6 -5 8l-2 1l-3 4q-2 1 -5 1q-6 0 -10 -5q-2 -1 -2 -2l-1 -2q0 -1 -0.5 -3.5t-0.5 -6.5v-21q1 -22 1 -63q1 -19 1.5 -44.5t1 -42.5t0.5 -22
q1 -44 4 -146.5t3 -144.5t-2 -146q0 -5 3.5 -8.5zM43 19q2 104 2 146t-3 144.5t-4 146.5q0 5 -0.5 22t-1 41.5t-1.5 45.5q0 41 -1 63v21q0 6 0.5 8.5t0.5 5.5l3 10q4 7 8 12q14 13 32 13q13 0 25 -9l5 -4l6 -7q1 -4 3 -6q5 -7 11 -20l29 -56l48 -92q110 -207 227 -352
l18 -23l1 -24q-5 101 -5 113q2 103 2 185q0 215 4 280q2 17 15 29t30 10t29 -15t10 -30q-4 -61 -4 -274q0 -82 -2 -187q0 -2 5 -106l3 -65v-22v-7v-4v-5q-3 -12 -9 -19q-17 -22 -45 -15q-9 2 -16.5 7t-16.5 15q-10 11 -29 34l-56 71q-123 151 -235 364l-11 21q0 47 0.5 25.5
t1 -35.5t0.5 -19q1 -42 4 -146.5t3 -146.5t-2 -147q-2 -17 -14 -28.5t-29.5 -11t-29 13t-11.5 29.5z" />
    <glyph glyph-name="O" unicode="O" horiz-adv-x="528" 
d="M212 680q-65 -37 -104 -134q-38 -96 -42 -208q-2 -54 7 -104q8 -49 26.5 -93t50.5 -76.5t75 -45.5q56 -16 102 1.5t80 60.5q66 81 78 218q6 65 -4 127q-9 62 -33 118t-70 95t-107 50q-2 1 -7 -1q-33 4 -52 -8zM278 631q-7 1 -15.5 2t-11 1.5t-5.5 0.5t-4.5 -0.5
t-3.5 -1.5q-48 -27 -82 -110t-36 -185q-3 -105 30 -178q31 -71 91 -89q73 -21 124 43q55 70 66 190q7 77 -8 145t-52.5 117.5t-89.5 64.5h-3zM260 718q7 2 17 1q69 -13 120 -57t77.5 -105t36.5 -127q10 -64 4 -133q-12 -147 -84 -234q-40 -51 -94.5 -71.5t-119.5 -0.5
q-51 15 -88 51.5t-57 85.5t-29 102q-9 52 -7 110q4 116 44 218q43 105 117 148q28 16 63 12zM285 661q66 -19 108.5 -75.5t58.5 -129.5t9 -154q-11 -130 -72 -206q-65 -80 -156 -53q-74 22 -111 105q-35 79 -32 190q2 108 38 197q38 91 98 126q4 1 7.5 2.5t10.5 1.5
t10.5 -0.5t12 -1.5t13.5 -2h5z" />
    <glyph glyph-name="P" unicode="P" horiz-adv-x="444" 
d="M123 623q6 -178 9 -319q33 4 61 16q64 26 115.5 91t50.5 125q-1 41 -23.5 69t-61.5 41q-37 12 -79.5 6t-74.5 -31zM79 685q-4 0 -7.5 -4t-3.5 -9q12 -371 12 -652q0 -5 3.5 -8.5t8.5 -3.5t8.5 3.5t3.5 8.5q0 103 -1 227q75 7 112 23q75 32 137 110t61 156q-1 61 -35 102
t-87 59q-44 15 -93.5 10t-100.5 -35q-12 13 -18 13zM104 647q36 27 85.5 34t94.5 -7q47 -15 75.5 -51t29.5 -87q1 -70 -56.5 -142t-127.5 -102q-32 -14 -103 -22q-3 175 -9 371zM103 710q35 22 91.5 27t106.5 -12q61 -20 101 -69t41 -120q1 -88 -67 -173t-149 -121
q-41 -18 -94 -23q1 -96 1 -199q0 -17 -12.5 -29.5t-29.5 -12.5t-29.5 12.5t-12.5 29.5q0 281 -12 652q0 17 11.5 30t29.5 13q20 0 24 -5z" />
    <glyph glyph-name="Q" unicode="Q" horiz-adv-x="528" 
d="M465 -4q3 -4 8 -4t8.5 3.5t3.5 8.5t-4 8l-69 75q62 89 73 212q6 65 -4 127q-9 62 -33 118t-70 95t-107 50q-2 1 -7 -1q-33 4 -52 -8q-65 -37 -104 -134q-38 -96 -42 -208q-2 -54 7 -104q8 -49 26.5 -93t50.5 -76.5t75 -45.5q91 -26 172 48q42 -47 68 -71zM278 631
q-7 1 -15.5 2t-11 1.5t-5.5 0.5t-4.5 -0.5t-3.5 -1.5q-48 -27 -82 -110t-36 -185q-3 -105 30 -178q31 -71 91 -89q62 -18 98 16l-51 57q-11 12 -11 29.5t13 29t30.5 11.5t29.5 -14l42 -46q30 51 39 150q7 77 -8 145t-52.5 117.5t-89.5 64.5h-3zM395 25q-71 -66 -178 -34
q-51 15 -88 51.5t-57 85.5t-29 102q-9 52 -7 110q4 116 44 218q43 105 117 148q28 16 63 12q7 2 17 1q69 -13 120 -57t77.5 -105t36.5 -127q10 -64 4 -133q-11 -131 -65 -208q26 -29 53 -55q12 -13 12 -30t-12.5 -29.5t-29.5 -12.5t-29 12q-27 26 -49 51zM285 661
q66 -19 108.5 -75.5t58.5 -129.5t9 -154q-9 -107 -65 -198l-68 76q-4 4 -8.5 4t-8.5 -3.5t-4 -8t3 -8.5l71 -79q-70 -66 -148 -42q-74 22 -111 105q-35 79 -32 190q2 108 38 197q38 91 98 126q4 1 7.5 2.5t10.5 1.5t10.5 -0.5t12 -1.5t13.5 -2h5z" />
    <glyph glyph-name="R" unicode="R" 
d="M123 621q5 -144 8 -259q33 3 62 13q59 23 109 74q54 53 53 102q-1 67 -82 86q-41 10 -84 4t-66 -20zM211 325q72 26 130 85q69 71 68 141q-1 57 -36 91.5t-88 47.5q-44 10 -91 5.5t-96 -26.5q-11 16 -19 16q-4 0 -7.5 -4t-3.5 -9q12 -371 12 -652q0 -5 3.5 -8.5t8.5 -3.5
t8.5 3.5t3.5 8.5q0 125 -3 298l117 -113q71 -69 121 -112.5t104 -78.5q4 -3 8.5 -2t7.5 5t2 9t-5 8q-38 25 -80 60t-67 58l-74 71l-89 86q48 9 65 16zM185 670q49 7 94 -3q105 -25 106 -116q1 -61 -61 -124q-56 -55 -121 -80q-33 -12 -102 -17q-3 147 -8 309q43 24 92 31z
M208 291l47 -46l74 -71q25 -23 66 -57t77 -59q14 -9 18 -26t-6 -31t-27.5 -18t-31.5 7q-54 35 -105 79.5t-122 113.5l-65 63q1 -101 1 -226q0 -17 -12.5 -29.5t-29.5 -12.5t-29.5 12.5t-12.5 29.5q0 281 -12 652q0 17 11.5 30t29.5 13q23 0 29 -8q31 14 83 18.5t100 -5.5
q63 -15 105 -57.5t43 -111.5q1 -82 -76 -161q-64 -65 -142 -93q-19 -7 -13 -6z" />
    <glyph glyph-name="S" unicode="S" 
d="M425.5 636q4.5 2 6.5 6t0.5 9t-6.5 7q-100 46 -180 26q-33 -8 -62.5 -32.5t-46.5 -56.5q-18 -34 -19 -69t19 -71q13 -19 36 -41.5t39 -34.5t52 -36.5t44 -31.5q54 -39 85 -76.5t37 -86.5q9 -57 -29.5 -87.5t-104.5 -32.5q-65 -2 -126.5 21t-87.5 59q-3 4 -8 4.5t-9 -2
t-5 -7.5t2 -9q31 -42 98.5 -67t135.5 -23q75 3 117 36q52 40 42 112q-8 55 -42.5 96.5t-90.5 82.5l-47 33q-33 23 -48 34.5t-36 31t-33 39.5q-34 50 0 115q16 29 41 50t52 28q72 17 166 -26q4 -2 8.5 0zM405 608q-85 39 -147 24q-20 -5 -40.5 -22t-32.5 -40q-26 -49 -2 -85
q10 -16 29 -34.5t33 -29t47 -33.5l47 -33q60 -43 98.5 -89.5t46.5 -109.5q13 -90 -52 -140q-50 -39 -135 -42q-74 -2 -148.5 25t-111.5 77q-9 14 -6.5 31t16.5 27.5t31 8t28 -16.5q21 -30 75.5 -50t113.5 -18q56 2 84 23.5t22 62.5t-33 73.5t-79 69.5q-8 7 -43 31.5
t-52 37.5t-42 36.5t-40 46.5q-26 44 -24 87t22 83q21 38 55 66.5t74 38.5q90 22 200 -28q16 -8 22 -24t-1 -32t-23.5 -22t-31.5 0z" />
    <glyph glyph-name="T" unicode="T" horiz-adv-x="528" 
d="M57.5 620q-3.5 -4 -3.5 -8.5t4 -8t9 -3.5q77 3 191 28q-12 -327 24 -613q1 -5 4.5 -8t8.5 -2.5t8.5 4.5t2.5 8q-36 291 -24 617l105 28l93 26q5 2 7.5 6t1 9t-5.5 7.5t-9 0.5q-32 -7 -99.5 -26l-106.5 -29.5t-95.5 -20t-107.5 -11.5q-4 0 -7.5 -4zM65 654
q47 2 102.5 11.5t93.5 19t105.5 28.5l99.5 28q17 4 32 -4.5t19.5 -25.5t-4 -32t-25.5 -19l-93 -26l-83 -24q-12 -300 24 -589q1 -18 -9.5 -31t-27.5 -15.5t-30.5 8.5t-16.5 28q-36 288 -26 579q-78 -17 -159 -20q-17 0 -30 11.5t-13 29t11.5 30.5t29.5 13z" />
    <glyph glyph-name="U" unicode="U" horiz-adv-x="460" 
d="M85 675.5q-3 3.5 -8.5 3.5t-9 -3t-3.5 -9q-4 -89 -5.5 -172t11.5 -176.5t41 -169.5q22 -62 47 -96q41 -60 94 -58q68 2 112 94q35 72 54 200q23 151 23 377q0 5 -3.5 8.5t-8.5 3.5t-8.5 -3.5t-3.5 -8.5q0 -224 -22 -373q-19 -124 -52 -193q-38 -80 -93 -81q-39 -1 -72 47
q-23 32 -45 91q-27 74 -39 164.5t-11 172.5t5 173q0 5 -3 8.5zM118 665q-4 -89 -5 -170t11 -168.5t37 -159.5q20 -55 41 -83q25 -36 48 -35q35 1 65 63q32 65 50 185q22 147 22 369q0 17 12.5 29.5t29.5 12.5t29.5 -12.5t12.5 -29.5q0 -228 -23 -381q-20 -132 -56 -208
q-52 -110 -140 -112q-69 -2 -118 70q-27 38 -51 104q-30 78 -43 174.5t-11.5 180.5t5.5 175q2 18 14.5 30t30 10t29.5 -14.5t10 -29.5z" />
    <glyph glyph-name="V" unicode="V" 
d="M83.5 678q-4.5 2 -9 0t-6.5 -6.5t0 -9.5q17 -39 35 -102q27 -93 31 -104q60 -181 81 -254q2 -3 25 -101l16 -64q3 -13 4 -19q3 -7 3 -8v-1l2 -4l1 -2q0 1 1.5 0t3.5 -2q8 -3 15 4q3 3 6 9t6 20q2 9 5.5 30t5.5 29q9 50 13 63q1 2 4 10l8 26l10 39l30 109l32 123
q11 39 32 104q16 52 39 114q2 5 0 9.5t-6.5 6.5t-9 0t-6.5 -6q-20 -52 -41 -117l-32 -104l-32.5 -124.5t-28.5 -108.5l-11 -39q-5 -16 -8 -26.5t-4 -11.5l-22 -108q-35 152 -37 157q-22 73 -81 253q-5 14 -31 105q-19 65 -37 105q-2 4 -6.5 6zM118 684q18 -42 37 -109
q26 -89 31 -103q59 -180 81 -253l7 -25q-8 -38 -4 -24l4 11.5t8 24.5l10 39q6 24 28.5 108.5l33.5 124.5l32 104q21 67 41 119q6 16 22 23t32 1t23 -21.5t1 -32.5q-23 -62 -39 -114q-21 -63 -31 -102l-32 -123l-30 -109l-11 -39l-8 -26q-3 -12 -4 -14q-2 -7 -11 -57
q-2 -8 -5.5 -29t-5.5 -30q-5 -18 -9 -28t-11 -17q-21 -21 -49 -10q-6 3 -11.5 7t-7.5 9l-1 2l-2 4l-4 7q0 3 -1 6q-3 8 -6 23l-16 62q-22 98 -23 101q-21 73 -81 252l-31 106q-18 61 -35 98q-6 17 0 32.5t22.5 22.5t32 1t23.5 -22z" />
    <glyph glyph-name="W" unicode="W" horiz-adv-x="800" 
d="M76.5 654.5q-4.5 2.5 -9 1t-7 -6t-1.5 -9.5l42 -129l52 -158l39 -131q31 -110 41 -157q2 -14 4 -39q2 -11 2 -15q1 -3 3 -6q4 -5 10 -5t10 4q2 2 3 5l2 5q0 4 2 13q3 12 7 31q0 4 1 10.5t2 11t1.5 8l1 7t1.5 7t1 4.5v-2q21 113 71 260l25 77l20 -40q19 -37 47 -104
l44 -114q26 -68 26 -69q24 -58 24 -62q11 -23 20 -37q6 -8 12 -13q9 -7 18 -6q6 1 10 7q3 4 5 8q2 6 4 19t8 65q13 119 27 187q48 215 140 406q2 4 0.5 8.5t-6 7t-9 1t-6.5 -6.5q-95 -193 -141 -410q-16 -69 -29 -192l-10 -96q-23 68 -46 126l-25 67l-44 112q-28 69 -46 107
l-21 37q-13 18 -22 21q-5 2 -10 -2l-3 -3q-1 0 -2 -2q2 2 2 1q-4 -4 -2 -1q0 -3 -3 -8l-7 -17l-24 -66q-42 -128 -76 -286l-39 142q-18 64 -39 130l-52 160l-42 129q-2 5 -6.5 7.5zM111 657l42 -129l52 -160l40 -132l6 -24q9 40 52 170l24 66l8 21v2q4 7 2 5q0 1 4 5
q1 2 4 6l9 7q17 10 36 4q19 -7 37 -33q9 -14 22 -39q20 -40 48 -109l44 -114l25 -67q23 -58 3 4l-5 -40q13 123 29 194q48 221 144 418q7 15 23.5 20.5t32 -2t21 -24t-1.5 -32.5q-91 -187 -137 -398q-14 -66 -27 -185q-6 -52 -8 -65q-2 -15 -6 -27q-4 -8 -9 -14
q-11 -16 -30 -19q-23 -3 -42 14q-8 7 -16 19q-11 16 -24 43q-1 6 -26 66q0 1 -24 65l-44 112q-28 67 -45 102l12 -24l-3 -9q-49 -145 -69 -252v-4q-2 -3 -2 -4.5t-0.5 -4t-1 -7t-1.5 -9l-2 -9t-1 -8.5q-4 -23 -7 -37q-2 -7 -3 -13l-3 -7q-3 -9 -9 -15q-14 -16 -33 -14
q-21 0 -33 17q-6 9 -9 20q0 6 -2 15q-2 25 -4 37q-9 45 -39 155l-39 129l-52 158l-42 131q-5 15 2.5 30.5t24 21t32 -2t21.5 -24.5z" />
    <glyph glyph-name="X" unicode="X" horiz-adv-x="528" 
d="M441 671q2 4 0.5 8.5t-6 7t-9 1t-6.5 -6.5l-138 -284l-162 280q-2 3 -7 4.5t-9 -1t-5.5 -7.5t1.5 -9l170 -293q-106 -220 -188 -363q-2 -4 -1 -8.5t5 -7t9 -1t7 5.5q77 133 182 348q114 -200 184 -338q2 -5 6.5 -6.5t9 1t6 7t-0.5 8.5q-76 152 -192 354zM331 373
q108 -190 185 -342q7 -16 2 -32.5t-21 -24t-32 -2t-24 20.5q-69 138 -155 288q-80 -165 -158 -298q-7 -16 -24.5 -20.5t-32.5 4t-19.5 26t4.5 31.5q81 141 180 345l-162 279q-9 16 -4.5 33t19.5 25.5t32 4t25 -19.5l134 -230l113 234q8 15 24 20.5t32 -2t21 -24t-2 -32.5z
" />
    <glyph glyph-name="Y" unicode="Y" 
d="M155.5 13.5q1.5 -4.5 6.5 -6.5t9.5 0t6.5 6q13 31 34 89l33 89q97 237 231 482q3 4 1.5 9t-6 7.5t-9.5 1t-7 -5.5q-79 -146 -157 -313q-98 151 -217 318q-3 4 -8 4.5t-9 -2t-5 -7.5t2 -9q132 -186 225 -330l-63 -147l-34 -88q-20 -59 -33 -88q-2 -5 -0.5 -9.5zM128 35
q13 29 33 86l34 90l57 133q-84 130 -216 314q-9 14 -6.5 31t16.5 27.5t31 8t28 -16.5l189 -274q55 119 135 265q9 16 25 20.5t31.5 -4t20.5 -24.5t-3 -32q-134 -243 -230 -480q-10 -24 -33 -87q-21 -58 -35 -91q-8 -16 -23.5 -22t-31.5 1t-22 22.5t0 32.5z" />
    <glyph glyph-name="Z" unicode="Z" 
d="M134 681q-4 -3 -4.5 -8t2.5 -9t7 -5q43 -6 186 -1q88 3 89 3h29q-17 -34 -28 -53q-10 -19 -26 -44l-16 -26l-80 -135q-94 -1 -139 -1q-5 0 -8.5 -3.5t-3.5 -8.5t3.5 -8.5t8.5 -3.5q39 0 124 1q-86 -142 -147 -229l-43 -62l-26 -39l-8 -14l-4 -6q-1 -1 0 0q0 1 0 -1
q-1 -4 -1 -5q0 -5 5 -9q3 -2 11 -4q4 -1 12 -1q17 -1 42 -2q41 0 118 1q25 1 69 2t53 1q58 2 66.5 1.5t12.5 2.5t4 8t-3 9t-8 4q-12 1 -73 -1q-9 0 -53 -1t-69 -2q-76 -1 -116 -1h-38l25 43l44 64q65 93 155 242q76 1 118 1q5 0 8.5 3.5t3.5 8.5t-3.5 8.5t-8.5 3.5
q-33 0 -103 -2l72 123l16 26l27 44q16 27 24 44q5 10 6 17q4 12 -1 19q-3 5 -11 6q-5 1 -11 2q-10 1 -29 1q-6 0 -89 -3q-142 -5 -182 1q-5 1 -9 -2zM147 713q38 -6 176 -1q85 3 91 3q21 0 33 -1q8 -1 13 -2q20 -5 31 -20q11 -19 5 -43q-3 -9 -10 -23q-8 -17 -24 -46
l-27 -44l-16 -26l-44 -75h49q17 0 29.5 -12.5t12.5 -29.5t-12.5 -29.5t-29.5 -12.5q-42 0 -100 -1q-82 -135 -149 -230l-42 -62l1 3h-14q40 0 116 1q25 1 69 2t53 1q61 2 75 1q17 -2 29 -15t10 -30t-15 -29t-26.5 -10.5t-71.5 -0.5q-9 0 -53 -1t-69 -2q-77 -1 -118 -1
q-27 1 -42 2q-10 0 -18 1q-16 4 -25 12q-13 12 -15 29q0 7 1 11q0 2 2 9q3 5 4 6l2 4l8 14l28 39l43 64q59 85 117 181q-31 -1 -70 -1q-17 0 -29.5 12.5t-12.5 29.5t12.5 29.5t29.5 12.5q45 0 121 1l72 121l16 26q16 25 26 42q11 19 6 9h19q-1 0 -87 -3q-147 -5 -192 1
q-18 3 -28 17t-7.5 31t16.5 27t31 9z" />
    <glyph glyph-name="bracketleft" unicode="[" horiz-adv-x="700" 
d="M405 663h-15v-4h-8v-4h-7v-3h-4v-4h-4v-4h-4v-4h-4v-8h-3v-7h-4v-8h-4v-12h-4v-19h-3v-9h3v-15h4v-12h4v-11h4v-8h3v-8h4v-7h4v-8h4v-8h4v-4h3v-7h4v-8h4v-8h4v-7h3v-8h4v-8h4v-8h4v-7h3v-4h4v-8h4v-8h4v-3h3v-8h4v-4h4v-4h4v-4h4v-7h3v-4h4v-4h4v-4h4v-4h7v-4h19v-4h-19
v4h23v4h11v4h11v4h8v4h7v4h8v3h7v4h8v4h8v4h7v4h8v4h7v4h8v3h3v4h8v4h4v4h7v4h4v4h4v4h7v3h4v4h4v4h4v4h3v4h4v4h4v4h4v3h3v4h4v8h4v4h4v8h3v7h4v16h4v1h-4v11h-4v8h-3v4h-4v4h-4v3h-4v4h-3v4h-8v4h-19v4h8v-4h-19v-4h-11v-4h-12v-4h-7v-3h-8v-4h-7v-4h-8v-4h-7v-4h-8v-4h-7
v-4h-42v12h-3v19h-4v20h-4v11h-4v12h-3v7h-4v8h-4v8h-4v8h-4v3h-3v4h-4v8h-4v4h-7v4h-4v4h-8v3h-7v4h-8v4h-15v4h8v-4zM307 451h-15v-4h-8v-4h-7v-4h-4v-3h-4v-4h-4v-4h-3v-4h-4v-8h-4v-4h-4v-7h-3v-4h-4v-8h-4v-4h-4v-7h-4v-8h-3v-4h-38v4h-7v4h-4v4h-8v3h-3v4h-8v4h-4v4
h-7v4h-8v4h-7v4h-12v3h-11v4h-19v4h23v-4h-19v-4h-8v-3h-3v-4h-4v-4h-4v-4h-4v-8h-3v-15h-4v14h4v-11h3v-8h4v-8h4v-7h4v-4h3v-4h4v-8h4v-3h4v-4h7v-4h4v-4h4v-4h4v-4h3v-4h4v-3h4v-4h7v-4h4v-4h8v-4h3v-4h8v-4h8v-3h7v-4h4v-4h7v-4h8v-4h7v-4h8v-4h7v-3h15v-4h16v-4h-4v4
h11v4h8v3h3v4h4v4h8v4h4v4h3v8h4v3h4v4h4v8h3v8h4v4h4v7h4v12h3v8h4v7h4v12h4v15h3v12h4v23h4v-19h-4v24h-4v11h-3v4h-4v8h-4v4h-4v3h-3v4h-4v4h-8v4h-15v4h23v-4zM390 197h-12v-4h-7v-4h-8v-4h-4v-4h-7v-4h-4v-4h-4v-3h-3v-4h-4v-4h-4v-4h-4v-4h-3v-8h-4v-3h-4v-4h-4v-8h-3
v-4h-4v-8h-4v-3h-4v-8h-37v4h-4v4h-4v3h-4v4h-3v4h-4v4h-4v4h-4v4h-3v4h-4v3h-4v4h-4v4h-3v4h-4v4h-8v4h-4v4h-7v3h-4v4h-11v4h-11v4h-8v-4h-8v-4h-7v-4h-4v-3h-4v-4h-7v-4h-4v-8h-4v-4h-3v-7h-4v-16h-4v19h4v-20h4v-7h3v-8h4v-8h4v-4h4v-7h3v-4h4v-4h4v-4h4v-8h3v-4h4v-3h4
v-4h4v-4h4v-4h3v-4h8v-4h4v-4h3v-3h4v-4h4v-4h7v-4h4v-4h4v-4h7v-4h4v-3h8v-4h7v-4h4v-4h8v-4h7v-4h8v-4h11v-3h7v-4h12v-4h11v-4h15v4h8v4h7v4h4v3h4v4h4v4h3v4h4v8h4v4h4v3h3v8h4v8h4v4h4v7h3v8h4v4h4v8h4v4h3v7h4v8h4v8h4v7h4v8h3v12h4v15h4v31h4v-15h-4v20h-4v7h-4v4h-3
v4h-4v4h-4v4h-4v4h-7v4h-8v3h8v-3zM375 697h52v-4h15v-4h8v-4h7v-3h8v-4h4v-4h7v-4h4v-8h4v-4h3v-3h4v-8h4v-8h4v-8h4v-7h3v-12h4v-11h4v-20h4v-19h3v-12h-18v4h7v4h8v4h7v4h8v4h7v4h8v3h7v4h12v4h11v4h19v4h52v-4h19v-4h8v-4h3v-4h4v-3h4v-4h4v-4h3v-8h4v-11h4v-61h-4v-16
h-4v-7h-3v-8h-4v-4h-4v-8h-4v-4h-3v-3h-4v-4h-4v-4h-4v-4h-3v-4h-4v-4h-4v-4h-4v-3h-7v-4h-4v-4h-4v-4h-7v-4h-4v-4h-8v-4h-3v-3h-8v-4h-7v-4h-8v-4h-7v-4h-8v-4h-8v-4h-7v-3h-8v-4h-7v-4h-8v-4h-11v-4h-11v-4h-23v-4h-41v4h-19v4h-7v4h-4v4h-4v4h-4v4h-3v7h-4v4h-4v4h-4v4
h-4v8h-3v3h-4v8h-4v8h-4v4h-3v7h-4v8h-4v8h-4v8h-3v7h-4v8h-4v8h-4v7h-3v4h-4v8h-4v8h-4v7h-4v8h-3v8h-4v11h-4v12h-4v15h-3v69h3v19h4v12h4v8h4v7h3v8h4v4h4v4h4v4h4v3h7v4h8v4h15v4zM277 485h37v-4h15v-4h8v-4h4v-4h3v-3h4v-4h4v-8h4v-4h3v-11h4v-24h4v-41h-4v-23h-4v-12
h-3v-15h-4v-12h-4v-7h-4v-8h-3v-12h-4v-7h-4v-4h-4v-8h-3v-8h-4v-4h-4v-3h-4v-8h-3v-4h-4v-4h-8v-4h-4v-4h-3v-3h-8v-4h-11v-4h-56v4h-16v4h-15v3h-7v4h-8v4h-7v4h-8v4h-7v4h-4v4h-7v3h-8v4h-8v4h-3v4h-8v4h-4v4h-7v4h-4v3h-4v4h-3v4h-4v4h-4v4h-4v4h-7v4h-4v3h-4v8h-4v4h-3
v4h-4v7h-4v8h-4v8h-3v11h-4v46h4v15h3v8h4v4h4v4h4v4h3v3h8v4h19v4h37v-4h19v-4h11v-3h12v-4h7v-4h8v-4h7v-4h4v-4h8v-4h3v-3h8v-4h4v-4h7v-4h-22v4h3v8h4v7h4v4h4v8h4v4h3v7h4v4h4v8h4v4h3v4h4v4h4v3h4v4h7v4h8v4h15v4zM360 230h52v-3h8v-4h7v-4h4v-4h4v-4h4v-4h3v-4h4v-7
h4v-20h4v-45h-4v-31h-4v-15h-4v-12h-3v-8h-4v-7h-4v-8h-4v-8h-4v-7h-3v-4h-4v-8h-4v-4h-4v-8h-3v-7h-4v-4h-4v-8h-4v-8h-3v-3h-4v-4h-4v-8h-4v-4h-3v-4h-4v-4h-4v-3h-4v-4h-7v-4h-8v-4h-75v4h-11v4h-12v4h-7v3h-11v4h-8v4h-7v4h-8v4h-4v4h-7v4h-8v3h-4v4h-7v4h-4v4h-4v4h-7
v4h-4v4h-4v3h-3v4h-4v4h-8v4h-3v4h-4v4h-4v4h-4v3h-4v4h-3v8h-4v4h-4v4h-4v4h-3v7h-4v4h-4v8h-4v8h-3v7h-4v20h-4v41h4v16h4v7h3v4h4v8h4v4h7v4h4v3h4v4h7v4h8v4h68v-4h11v-4h11v-4h4v-3h7v-4h4v-4h8v-4h4v-4h3v-4h4v-4h4v-3h4v-4h3v-4h4v-4h4v-4h4v-4h3v-4h4v-3h4v-4h4v-4
h-23v8h4v3h4v8h4v4h3v8h4v4h4v3h4v8h3v4h4v4h4v4h4v4h3v3h4v4h4v4h7v4h4v4h8v4h7v4h12v3z" />
    <glyph glyph-name="backslash" unicode="\" horiz-adv-x="454" 
d="M428 0.5q5 -1.5 9 0.5t5.5 7t-0.5 10l-165 298q-36 67 -99 197l-94 188q-2 4 -7 5.5t-9 -0.5t-6 -7.5t1 -9.5l94 -187l98 -198l165 -298q3 -4 8 -5.5zM394 -8l-165 298q-36 68 -99 198l-94 187q-8 16 -2.5 32.5t20.5 24.5t31.5 2.5t24.5 -19.5l95 -188l98 -197l165 -298
q8 -15 3.5 -32t-20 -25t-32.5 -3.5t-25 20.5z" />
    <glyph glyph-name="bracketright" unicode="]" horiz-adv-x="728" 
d="M399 176q-37 29 -63 12q-25 -16 -19 -60t40 -94q2 -5 9 -15l11 -17q16 -24 26 -31q22 -16 72 3q41 15 84 48q44 34 64 68q27 43 3 70q-22 25 -53 20q-23 -2 -50 -24q-21 -16 -62 -63q-36 60 -62 83zM158 546q-41 14 -65 8q-16 -4 -25 -18q-8 -14 -7 -35q2 -26 34 -57
q26 -26 68 -49q38 -22 73 -34q17 -5 30 -6q17 -2 26 4q11 8 28 32q12 17 28 46q12 21 44 87q11 23 11.5 51t-9.5 50q-12 26 -35 33q-25 8 -58 -9q-31 -17 -46 -75q-4 -17 -9 -46l-2 -4q-3 -4 -13 -15q-45 26 -73 37zM677 353q17 28 -3 49q-18 20 -60 5q-31 -11 -84 -53
q-21 42 -33 59q-18 27 -36 33q-28 8 -47 -21q-20 -32 5 -97q23 -59 51 -80q26 -19 74 1q20 8 61 34q45 28 65 58l6 12h1zM465 143q17 19 40 37q33 26 64 30q47 7 79 -30q39 -43 1 -106q-23 -38 -72 -76q-47 -35 -92 -52q-64 -25 -99 1q-15 9 -34 39l-11 17l-10 15
q-37 54 -44 106q-8 62 33 90q44 29 98 -16q30 -25 47 -55zM226 547l-9 -9v0q4 25 9 44q18 70 61 93q44 23 81 11q36 -11 53 -49q13 -28 12.5 -63t-14.5 -64q-33 -66 -45 -87q-16 -31 -30 -50q-19 -28 -36 -40q-19 -10 -44 -8q-17 1 -37 8q-38 12 -79 36q-45 25 -74 53
q-40 39 -43 77q-1 31 11 53q16 24 43 32q34 8 83 -10q31 -11 58 -27zM694 323l2 4q-24 -38 -75 -70q-43 -26 -65 -36q-64 -26 -104 3q-35 27 -61 94q-31 79 -2 123q32 49 81 33q28 -8 51 -43q14 -19 19 -31q28 22 64 35q60 21 92 -13q35 -37 -1 -99h-1z" />
    <glyph glyph-name="asciicircum" unicode="^" horiz-adv-x="287" 
d="M55.5 585q1.5 -5 6 -7.5t9 -1t7.5 6.5q40 72 52 88q13 21 30 32q17 -8 29 -24q19 -23 58 -91q2 -4 7 -5.5t9 1t5.5 7t-1.5 8.5q-38 70 -60 95q-27 35 -52 31q-21 -4 -45 -40q-12 -18 -54 -91q-2 -4 -0.5 -9zM30 608q42 75 55 93q31 48 66 54q41 6 80 -41q22 -27 62 -99
q9 -14 4.5 -31.5t-19.5 -26t-32 -4t-25 20.5q-37 64 -56 87q-8 10 -3 8q3 1 -8 -14q-10 -16 -50 -88q-9 -15 -25.5 -19.5t-32 4t-20 24.5t3.5 32z" />
    <glyph glyph-name="underscore" unicode="_" horiz-adv-x="0" 
d="M-29 -132q-5 0 -8.5 -3t-3.5 -8.5t4 -8.5q15 -16 23 -23q12 -9 22 -10q12 -1 24 9q9 6 22 22q3 4 3 9t-4 8t-9 3t-8 -4q-10 -11 -25 -26q-17 14 -32 29q-3 3 -8 3zM-156 -65q-5 0 -8.5 -3t-3.5 -8.5t4 -8.5q15 -16 23 -23q12 -9 22 -10q12 -1 24 9q9 6 22 22q3 4 3 9
t-4 8t-9 3t-8 -4q-10 -11 -25 -26q-17 14 -32 29q-3 3 -8 3zM-284 -123q-5 0 -8.5 -3t-3.5 -8.5t4 -10.5q15 -15 23 -22q12 -9 22 -10q12 -1 24 9q9 6 21 21q5 6 4.5 11t-4.5 8t-9 3t-8 -4q-10 -11 -25 -26q-17 14 -32 29q-3 3 -8 3zM91 -60q-6 0 -10.5 -4t-4.5 -11t4 -12
q20 -20 29 -28q15 -13 27 -14q15 -1 30 12q11 8 27 28q5 6 4.5 12t-5.5 10.5t-11 4t-10 -5.5q-12 -15 -31 -34q-21 18 -39 38q-4 4 -10 4zM-422 -67q-5 0 -8.5 -3.5t-3.5 -9t4 -10.5q16 -15 23 -23q12 -9 22 -10q12 -1 24 9q8 7 21 22q5 6 4.5 11t-4.5 8.5t-9 3.5t-8 -4
q-10 -12 -25 -27q-17 14 -32 30q-3 3 -8 3zM-422 -67q-5 0 -8.5 -3.5t-3.5 -9t4 -10.5q16 -15 23 -23q12 -9 22 -10q12 -1 24 9q8 7 21 22q5 6 4.5 11t-4.5 8.5t-9 3.5t-8 -4q-10 -12 -25 -27q-17 14 -32 30q-3 3 -8 3zM254 -116q-5 0 -8.5 -4t-3.5 -10t4 -10q16 -17 23 -25
q12 -10 22 -11q12 -1 24 9q8 8 21 25q5 5 4.5 10.5t-4.5 9.5t-9 3.5t-8 -3.5q-10 -13 -25 -30q-17 16 -32 33q-3 3 -8 3zM1 -115q13 -13 8 -9q-5 -5 5 6q11 12 28 14t30 -10t15 -29t-11 -31q-15 -18 -26 -26q-20 -16 -44 -15q-20 1 -40 18l-25 23q-12 13 -12 30.5t12.5 29.5
t30.5 12t29 -13zM-126 -48q13 -13 8 -9q-5 -5 5 6q11 12 28 14t30 -10t15 -29t-11 -31q-15 -18 -26 -26q-20 -16 -44 -15q-20 1 -40 18l-25 23q-12 13 -12 30.5t12.5 29.5t30.5 12t29 -13zM-254 -106q13 -13 8 -9q-5 -5 5 6q11 12 28 14t30 -10t14.5 -29t-9.5 -31
q-16 -19 -27 -27q-20 -16 -44 -15q-20 1 -40 18q-8 7 -25 24q-12 13 -12 30.5t12.5 29.5t30.5 12t29 -13zM129 -50q13 -13 8 -9q-5 -5 5 6q11 12 28 14t30 -10t15 -29t-11 -31q-15 -18 -26 -26q-20 -16 -44 -15q-20 1 -40 18l-25 23q-12 13 -12 30.5t12.5 29.5t30.5 12
t29 -13zM-392 -50q13 -14 8 -10q-5 -5 5 7q11 12 28 14t30 -10.5t14.5 -29.5t-9.5 -31q-15 -19 -27 -28q-20 -16 -44 -15q-20 1 -40 18q-9 8 -25 25q-12 13 -12 30.5t12.5 30t30.5 12.5t29 -13zM-392 -50q13 -14 8 -10q-5 -5 5 7q11 12 28 14t30 -10.5t14.5 -29.5t-9.5 -31
q-15 -19 -27 -28q-20 -16 -44 -15q-20 1 -40 18q-9 8 -25 25q-12 13 -12 30.5t12.5 30t30.5 12.5t29 -13zM287 -97q13 -14 8 -10q-5 -5 5 7q11 12 28 14t30 -10.5t14.5 -29.5t-9.5 -31q-15 -19 -27 -28q-20 -16 -44 -15q-20 1 -40 18q-9 8 -25 25q-12 13 -12 30.5t12.5 30
t30.5 12.5t29 -13z" />
    <glyph glyph-name="grave" unicode="`" horiz-adv-x="167" 
d="M55 691q-5 0 -8.5 -3.5t-3.5 -8.5t4 -8q65 -66 74 -162q0 -5 4 -8.5t9 -3t8.5 4.5t2.5 9q-9 104 -82 176q-3 4 -8 4zM85 709q79 -80 90 -196q1 -17 -9.5 -30t-28.5 -14.5t-31 9t-15 29.5q-7 84 -66 142q-12 13 -12 30t12.5 29.5t29.5 12.5t30 -12z" />
    <glyph glyph-name="a" unicode="a" horiz-adv-x="429" 
d="M304 383q-14 40 -50 49q-43 10 -83 -33q-48 -53 -63 -151q-13 -98 21 -160q16 -29 30 -32q8 -2 25 9q20 15 39.5 42.5t30.5 53.5q25 57 38 138q1 4 7 54q2 16 4 24zM359 120q3 -43 4 -69.5t2 -34.5q1 -5 4.5 -8.5t9 -3t8.5 4.5t3 10q-1 9 -3 38l-5 74q-3 45 -5 79
q-6 72 -9 111q-3 24 -5 38v5q2 6 1 10q-10 45 -36 73.5t-62 36.5q-35 8 -70.5 -4.5t-64.5 -44.5q-59 -65 -76 -179q-16 -117 26 -194q28 -51 66 -59q32 -7 68 18q28 20 51 54q24 33 38 64q10 26 44 134zM332 369q-2 -6 -4 -20q-6 -50 -7 -56q-13 -83 -40 -144
q-11 -28 -33.5 -59.5t-46.5 -48.5q-27 -19 -49 -15q-27 7 -50 48q-38 70 -23 178t69 167q52 57 113 43q52 -13 76 -81q-4 -8 -5 -12zM329 111q14 44 2 16q-14 -33 -40 -70q-27 -38 -59 -60q-46 -33 -92 -24q-50 12 -86 75q-46 85 -28 212q17 124 82 195q35 38 78.5 53.5
t86.5 5.5q44 -10 76 -45.5t44 -88.5q3 -12 0 -22v3q1 -12 4 -38q3 -39 10 -111q2 -34 5 -79l5 -74q1 -29 2 -38q2 -18 -9 -31t-28.5 -14.5t-31 9t-14.5 27.5q-1 10 -2.5 36.5t-4.5 69.5v-7z" />
    <glyph glyph-name="b" unicode="b" horiz-adv-x="400" 
d="M111 55q68 12 127.5 62t83.5 130q17 58 2 103q-14 43 -57 46q-38 3 -70 -31t-55 -103q-24 -72 -31 -157v-11v-48v9zM62.5 662.5q-3.5 3.5 -9 3t-8.5 -4.5t-3 -9q6 -69 7 -218q1 -160 4 -219q1 -14 1.5 -24.5t1 -16t0.5 -9t0.5 -4.5t0.5 -8v-3v-5v-7v-12v-19q-3 -54 0 -92
l0.5 -1.5t0.5 -4.5q0 1 3 -4q0 1 0.5 0.5t4 -2t6.5 -0.5l11 7q14 -13 20 -12q99 18 170.5 78t100.5 155q22 75 1 136q-11 35 -37 57.5t-67 25.5q-108 8 -197 -207q0 93 -1 191q0 138 -6 220q-1 5 -4.5 8.5zM81 46v48v13q8 89 32 165q25 75 64 116t93 38q63 -5 83 -66
q17 -55 -2 -121q-26 -90 -92.5 -145t-177.5 -75v27zM96 656q7 -82 7 -222q1 -98 1 -39q40 95 170 85q51 -3 83 -31.5t47 -71.5q23 -71 -1 -154q-31 -105 -109.5 -170t-185.5 -85q-22 -3 -28 4q5 3 -3 1q-13 -1 -23.5 3.5t-16.5 11t-6 9.5q-3 5 -3 12q0 -1 -0.5 0.5t-0.5 3.5
q-4 40 0 96v17v12v7v5v3q0 -1 -0.5 0t-0.5 7.5v12t-0.5 16t-1.5 24.5q-4 61 -5 221q0 147 -6 216q-2 17 9 30t28.5 14.5t31 -9t14.5 -29.5z" />
    <glyph glyph-name="c" unicode="c" horiz-adv-x="400" 
d="M295.5 378.5q4.5 -1.5 9 1.5t5.5 7.5t-1 8.5q-33 55 -69 75t-72 5q-61 -25 -96 -132q-33 -103 -14 -198q23 -111 110 -139q72 -23 141 55q58 64 78 132q1 5 -1.5 9.5t-7 6t-9 -1t-5.5 -6.5q-19 -66 -72 -124q-60 -66 -117 -47q-73 22 -93 120q-18 89 13 187
q15 44 36.5 75t45.5 41q56 23 111 -70q3 -4 7.5 -5.5zM263 368q-43 71 -75 58q-16 -6 -33.5 -32t-30.5 -66q-29 -90 -13 -171q16 -80 73 -98q39 -13 85 39q49 54 66 112q5 16 20.5 24.5t32 4t25 -20t3.5 -32.5q-22 -74 -84 -144q-83 -92 -173 -63q-103 32 -130 161
q-21 103 14 214q39 119 114 150q48 21 94 -5t83 -87q10 -16 5 -32.5t-19.5 -25.5t-31 -4.5t-25.5 18.5z" />
    <glyph glyph-name="d" unicode="d" horiz-adv-x="432" 
d="M297 469q-96 11 -165 -74q-58 -73 -70 -179q-13 -108 32 -165q26 -32 65 -38t91 17q43 19 82 59q13 12 51 57v-132q0 -5 3.5 -8.5t8 -3.5t8.5 3.5t4 8.5q0 77 -1 178q1 2 0 6q-2 422 -2 462q0 5 -4 8.5t-8.5 3.5t-8 -3.5t-3.5 -8.5q0 -86 1 -230q-50 35 -84 39zM352 372
q-25 39 -61 43q-67 8 -117 -53q-49 -62 -58 -153q-11 -85 20 -125q28 -34 92 -4q34 15 66.5 47t57.5 77q0 29 -1 169zM350 488v172q0 17 12 29.5t29.5 12.5t30 -12.5t12.5 -29.5q0 -40 2 -458q3 -8 0 -16q1 -95 1 -172q0 -17 -12.5 -29.5t-30 -12.5t-29.5 12.5t-12 29.5v50
q14 17 0 3q-43 -42 -90 -65q-61 -27 -110.5 -19t-81.5 50q-53 67 -39 187q13 114 77 193q79 99 191 86q42 -6 50 -11zM381 385q1 -152 1 -189q-31 -55 -67 -91t-74 -53q-86 -38 -128 14q-39 50 -27 147q10 99 65 167q60 75 143 65q50 -6 81 -55z" />
    <glyph glyph-name="e" unicode="e" horiz-adv-x="429" 
d="M313 298q1 -4 -4 12q-12 37 -35 71q-24 35 -47 46q-18 9 -35 -3q-50 -32 -68 -116q-3 -14 -2 -13q45 -1 98 0q56 0 89 3q13 1 4 0zM46 257q0 -10 18 -16q2 -64 19 -112q34 -99 110 -122q87 -26 200 65q4 3 4.5 7.5t-2.5 9t-8 5t-9 -3.5q-103 -83 -178 -59q-64 19 -95 106
q-13 41 -18 106q80 -3 133 -2q59 0 94 3q20 1 32 4q6 1 11 4q8 3 11 10q4 10 2 28q-3 16 -10 36q-15 45 -41 85q-32 47 -68 65q-46 23 -89 -6q-69 -45 -91 -151q-3 -19 -6 -49q-18 -5 -19 -13zM312 268q-35 -3 -91 -3q-55 -1 -131 2q2 31 5 47q20 96 80 136q31 20 65 5
q31 -15 59 -58q25 -36 39 -79q5 -18 10 -46q-23 -3 -36 -4zM38 294q1 10 4 31q24 118 103 171q59 37 119 6q44 -20 80 -75q28 -42 45 -91q7 -22 10 -42q4 -26 -4 -44q-7 -17 -25 -26q-7 -3 -17 -6q-14 -3 -38 -4q-35 -3 -94 -3q-55 -1 -101 0q1 -27 14 -64q25 -73 75 -88
q59 -18 150 55q14 10 31 8.5t28 -15t9.5 -31t-15.5 -28.5q-125 -101 -228 -69q-90 27 -130 140q-17 52 -19 100q-20 8 -18 40q1 30 21 35z" />
    <glyph glyph-name="f" unicode="f" horiz-adv-x="300" 
d="M362.5 669q4.5 1 7 5.5t1 9t-6.5 7.5q-94 45 -152 18q-40 -18 -54 -81q-5 -21 -10 -93q-2 -28 -4 -67q-57 0 -100 2q-5 0 -9 -3t-4 -7.5t3.5 -8.5t7.5 -4q43 -2 101 -2q-1 -76 2 -171q7 -227 7 -259q0 -5 3.5 -8.5t8.5 -3.5t8.5 3.5t3.5 8.5q0 33 -7 260q-3 95 -2 170
q68 1 121 4q6 0 9 3.5t3 8.5t-3.5 8t-8.5 3q-53 -3 -120 -4q2 39 4 65q5 71 9 89q12 52 41 67q48 22 132 -20q4 -1 8.5 0zM340 645q-70 34 -104 17q-17 -7 -25 -46q-4 -15 -9 -83q-2 -27 -2 -35q33 1 86 4q17 2 29.5 -9.5t14.5 -28.5t-10 -29.5t-30 -13.5q-53 -3 -93 -4
q-1 -45 2 -141q7 -227 7 -260q0 -17 -12.5 -29t-29.5 -12t-29.5 12t-12.5 29q0 32 -7 259q-3 96 -2 142q-28 0 -71 2q-18 0 -29.5 12.5t-11.5 29.5t13 28t30 11q43 -2 72 -2q0 12 2 40q5 74 10 97q18 76 70 100q72 35 180 -18q15 -7 20.5 -23t-2 -31t-24 -20.5t-32.5 2.5z
" />
    <glyph glyph-name="g" unicode="g" horiz-adv-x="400" 
d="M306 380q-18 31 -48 35q-55 8 -97 -52q-44 -61 -52 -152q-9 -87 20 -128q9 -14 22 -16q20 -4 51 11q28 15 55 47q30 33 57 87l1 5q0 25 -2 64q-2 21 -4.5 57.5t-2.5 41.5zM352.5 480q-3.5 4 -8 4t-8 -3.5t-3.5 -7.5v-34q-43 27 -69 30q-88 11 -149 -74q-52 -72 -63 -180
q-11 -106 30 -163q23 -32 58 -38q37 -7 84 16q37 19 72 59q13 14 54 67q-2 -84 -6 -117q-11 -128 -57 -171q-55 -52 -166 12q-4 2 -8 0.5t-6.5 -6t-1.5 -9.5t5 -7q125 -71 191 -8q53 50 67 186q7 93 -1 248q-2 22 -4 59q-2 23 -4 50q-5 55 -3 78q0 5 -3.5 9zM338 340.5
q2 -36.5 4 -57.5q3 -39 4 -78l-5 -5q-29 -58 -61 -95q-31 -36 -65 -53q-39 -21 -69 -15q-25 4 -42 30q-35 49 -24 146q8 99 56 168q53 74 127 64q44 -6 73 -57q0 -11 2 -47.5zM386 471q-1 -23 2 -76q2 -27 4 -50q2 -37 4 -59q10 -157 1 -252q-14 -148 -75 -206
q-82 -79 -227 4q-14 10 -19 26t3.5 31.5t24.5 20t32 -3.5q91 -52 130 -16q38 35 49 151q3 33 2 23q15 19 2 5q-39 -44 -82 -65q-55 -29 -102 -20q-47 8 -78 50q-47 67 -34 185q11 114 67 194q73 99 177 86q34 -5 36 -6v-20q0 18 13 29.5t29.5 11.5t28.5 -13t12 -30z" />
    <glyph glyph-name="h" unicode="h" horiz-adv-x="463" 
d="M70 686.5q-4 2.5 -9 2t-8 -4.5t-3 -9q27 -204 17 -482q0 -5 -2 -36t-3 -51q-1 -31 -1 -50q0 -11 1 -19q1 -10 5 -15q1 -2 2 -2q5 -5 9 -5q6 0 11 7q1 1 2 4q1 4 1 13v21q7 38 24 96q8 28 31.5 80t52.5 98q35 56 68 83q34 29 62 19q29 -12 48 -62q15 -46 22 -120
q4 -41 5 -83.5t0 -94t-1 -53.5q0 -5 4 -8.5t8.5 -3.5t8 3.5t3.5 8.5q0 9 0.5 42.5t0.5 59.5t-1 63q-1 36 -4 69q-6 78 -24 125q-22 61 -63 76q-39 15 -85 -23q-35 -29 -72 -89q-31 -48 -88 -179q7 323 -17 512q-1 5 -5 7.5zM104 683q25 -191 21 -364q-3 -7 30 43
q39 64 78 97q60 48 115 27q53 -19 81 -94q18 -51 25 -133q3 -33 4 -71q1 -37 1 -63t-0.5 -59.5t-0.5 -42.5q0 -17 -12 -29.5t-29.5 -12.5t-30 12.5t-12.5 29.5q0 2 1 53.5t0 93t-5 82.5q-6 70 -21 112q-13 38 -30 44q-10 4 -32 -15q-29 -23 -62 -75q-27 -44 -49.5 -94
t-30.5 -76q-17 -56 -23 -90v-19q0 -13 -2 -21q-2 -9 -8 -16q-12 -17 -34 -17q-17 0 -28 11q-5 4 -8 10q-8 11 -10 29q-1 8 -1 21q0 19 1 52q1 20 3 50t2 35q10 276 -16 478q-2 19 8 32t28 15.5t31 -8t16 -27.5z" />
    <glyph glyph-name="i" unicode="i" horiz-adv-x="173" 
d="M72 642q-3 4 -8 4.5t-9 -2t-5 -7.5t2 -9l35 -48q6 -9 11 -13q9 -8 18 -4q7 2 11 12q3 5 8 16q13 36 23 56q2 4 0.5 9t-5.5 7t-9 0.5t-7 -5.5q-10 -20 -29 -69zM116.5 461q-3.5 3 -8.5 3t-8.5 -4t-2.5 -9q13 -181 13 -440q0 -5 3.5 -8.5t8 -3.5t8.5 3.5t4 8.5
q0 259 -13 442q-1 5 -4.5 8zM101 653q-1 -3 9 17q6 16 23.5 21.5t33 -1.5t21 -24t-2.5 -33q-10 -18 -22 -52q-6 -15 -9 -20q-10 -20 -27 -26q-26 -12 -49 10q-8 6 -16 17l-35 48q-9 14 -6.5 31t16.5 27.5t31 8t28 -16.5zM151 455q13 -183 13 -444q0 -17 -12.5 -29.5
t-30 -12.5t-29.5 12.5t-12 29.5q0 257 -13 438q-2 17 9.5 30t29 15t30.5 -10t15 -29z" />
    <glyph glyph-name="j" unicode="j" horiz-adv-x="157" 
d="M48 642q-3 4 -8 4.5t-8.5 -2t-4.5 -7.5t2 -9l35 -48q6 -9 10 -13q10 -8 19 -4q7 2 12 13q2 3 6 15q14 34 24 56q2 4 0.5 9t-5.5 7t-9 0.5t-7 -5.5q-10 -20 -29 -69zM104 450.5q-4 3.5 -9 3t-8 -5t-3 -8.5q19 -146 13 -283q-9 -193 -64 -251q-10 -11 -25 -16.5t-26 -6.5
t-35 -3q-5 0 -8.5 -4t-3 -9t4.5 -8t9 -3q1 0 9.5 0.5t11 1t11.5 1.5t12 2l14 3q7 1 11.5 3.5t10.5 5.5t11 7l11 9q61 65 70 268q5 136 -12 285q-1 5 -5 8.5zM78 653q-1 -3 9 17q6 16 23 21.5t33 -1.5t21.5 -24t-2.5 -33q-10 -20 -22 -52q-6 -16 -10 -21q-9 -19 -26 -25
q-26 -12 -49 10q-8 6 -16 17l-35 48q-9 14 -6.5 31t16.5 27.5t31 8t28 -16.5zM138 446q19 -151 13 -291q-10 -213 -79 -288l-13 -11q-7 -6 -15 -10t-14.5 -6.5t-15.5 -5.5l-14 -3q-5 -1 -14 -2t-12.5 -1.5t-13 -1t-10.5 -0.5q-17 -2 -30 10t-14.5 29t10 30t28.5 15
q24 2 33 3t19 4.5t14 8.5q49 50 57 233q5 133 -12 277q-2 18 9 31.5t28 15t31 -9t15 -27.5z" />
    <glyph glyph-name="k" unicode="k" horiz-adv-x="400" 
d="M286.5 448.5q-0.5 4.5 -5 8t-9 3t-7.5 -4.5q-58 -71 -144 -161l-51 -53q5 340 5 432q0 5 -3.5 8.5t-8.5 3.5t-8.5 -3.5t-3.5 -8.5q0 -107 -3 -320.5t-3 -320.5q0 -5 3.5 -8.5t8.5 -3.5t8.5 3.5t3.5 8.5q0 69 1 185l40 -32l92 -64l65 -42l62 -39l35 -23q4 -3 8.5 -2t7.5 5
t2 9t-5 8l-33 21l-63 40l-65 43q-60 40 -91 64q-12 8 -38 30q20 10 19 10l31 31q89 92 146 163q4 5 3.5 9.5zM307 421q-59 -73 -148 -165l-31 -33q-3 -2 13 6q-10 8 2 0q31 -24 89 -62l65 -43l63 -40q26 -17 33 -23q16 -9 19 -26t-7 -32t-27.5 -18t-31.5 8l-33 21l-62 39
l-65 44q-61 40 -94 64l8 -6q-1 -54 -1 -123q0 -17 -12.5 -29.5t-29.5 -12.5t-29.5 12.5t-12.5 29.5q0 107 3 320.5t3 320.5q0 17 12.5 29.5t29.5 12.5t29.5 -12.5t12.5 -29.5q0 -92 -3 -356l-3 -3q86 90 142 159q11 14 28.5 15.5t31 -9t15 -28t-8.5 -30.5z" />
    <glyph glyph-name="l" unicode="l" horiz-adv-x="127" 
d="M74.5 700.5q-3.5 3.5 -8.5 3.5t-8.5 -3.5t-3.5 -8.5q0 -41 -0.5 -163t-0.5 -182.5t2.5 -157t6.5 -174.5q0 -6 3.5 -9t9 -3t8.5 3.5t3 8.5q-4 79 -6.5 175.5t-2.5 157.5t0.5 181t0.5 163q0 5 -3.5 8.5zM108 692q0 -43 -0.5 -163t-0.5 -181t2.5 -156.5t6.5 -174.5
q2 -17 -10 -29.5t-29.5 -14.5t-30 10t-14.5 30q-4 78 -6.5 175.5t-2.5 158t0.5 182.5t0.5 163q0 17 12.5 29.5t29.5 12.5t29.5 -12.5t12.5 -29.5z" />
    <glyph glyph-name="m" unicode="m" horiz-adv-x="667" 
d="M83 461q-4 3 -9 2.5t-8 -4.5t-3 -9q4 -28 8.5 -82t5.5 -62q3 -32 5 -50v-3v-6q0 -14 2 -60q6 -115 8 -138v12h1v-16l1 -5l4 -20l4 -19q1 -7 1 -6q1 -2 1 -4l1 -1l1 -2l0.5 -1t3.5 -2q6 -4 11 -1q4 2 6 6v3q0 4 1 7v11q1 11 2 31q0 9 0.5 22t1 19.5t0.5 7.5q13 119 77 245
q15 28 30 52q11 18 32 41q20 -25 26 -42q14 -33 23 -92q14 -86 16 -165v-79v-1q0 -5 -0.5 -6.5l-1 -3t-1.5 -5.5q-1 -7 0 -11q2 -8 7 -11q6 -3 13 -1q3 1 6 6l2 4v3q2 6 3 15q0 9 2 38q5 66 8 82q14 67 59 167q24 55 47 89q26 38 46 46q21 8 36 -1q13 -9 22 -34
q8 -24 16 -96q3 -28 9 -132q8 -145 13 -183q1 -5 5 -7.5t9 -2t8 4.5t3 9q-5 40 -14 179q-6 110 -8 134q-9 77 -19 103q-12 30 -31 44q-25 17 -58 4q-27 -10 -56 -54q-24 -37 -50 -93q-17 -38 -55 -139q-8 84 -11 101q-11 61 -25 96q-19 48 -46 53q-10 2 -19 -4
q-6 -4 -12 -11q-11 -11 -24 -32q-16 -24 -31 -55q-33 -63 -82 -214v110q1 2 1 0v6v1v2v2q-1 15 -5 55q-1 7 -5.5 62t-8.5 84q-1 4 -5 7zM117 458q4 -29 8.5 -84t5.5 -62q4 -40 6 -57v-4v-2v-1v-6q0 -6 -1 -8v88q-8 -27 25 38q16 33 33 57q14 23 26 36q10 11 19 17
q19 12 40 8q43 -9 68 -71q16 -39 27 -102q3 -19 -1 23q-6 -17 11 21q26 58 52 97q35 52 70 66q49 19 86 -8q27 -18 42 -58q11 -30 20 -109q3 -26 9 -136q8 -139 13 -177q2 -19 -8 -32t-28 -15.5t-31 8t-16 27.5q-6 40 -14 185q-6 104 -8 130q-8 70 -16 90q-5 15 -10 18
q-1 1 -8 -1q-12 -4 -32 -34q-21 -32 -45 -85q-43 -98 -57 -161q-3 -14 -7 -78q-2 -29 -3 -40q-1 -9 -2 -13q0 -7 -3 -13q-1 -4 -4 -8q-7 -13 -22 -18q-19 -6 -36 3q-18 9 -22 29q-3 10 0 25q1 4 1.5 7.5t0.5 4t0 -2.5v1v79q-2 77 -15 161q-9 55 -21 84q-6 15 0 8q4 5 -6 -11
q-14 -22 -28 -50q-62 -120 -74 -233q0 -1 -0.5 -7.5t-1 -18.5t-0.5 -21q-1 -22 -2 -33v-13l-1 -3q0 -7 -3 -15q-6 -12 -18 -20q-21 -11 -41 1q-5 3 -9.5 7t-6.5 8l-1 2l-4 7q0 2 -1 4v8l-4 19l-4 20l-2 9v-12h-1v16q-2 23 -8 138q-2 48 -2 62v6v1q-1 16 -4 48q-1 10 -5.5 63
t-8.5 81q-2 17 8 31t27 16.5t31 -7.5t17 -28z" />
    <glyph glyph-name="n" unicode="n" horiz-adv-x="460" 
d="M88 473q-1 4 -5 7.5t-9 3t-8 -5t-3 -9.5q10 -92 10 -278v-119v-8v-12v-9v-12v-2v-3v5l2 -8q2 -2 6 -4q8 -3 13 3q2 1 3 4q-1 0 -1 1q1 3 1 5q1 17 1 36v28q0 10 3 26q1 13 5 33q6 30 33.5 92t61.5 114q42 63 78 86q19 11 35 9.5t32 -15.5q51 -51 61 -193q7 -88 -5 -220
q0 -5 3.5 -9t8 -4t8.5 3t5 8q10 134 5 224q-11 149 -69 207q-22 22 -49 24q-23 2 -48 -14q-41 -25 -85 -93q-28 -44 -82 -158q-4 172 -11 257zM126 344l30 46q48 74 95 103q33 20 65 18q38 -2 68 -32q66 -66 77 -227q7 -92 -5 -228q-1 -17 -14 -29t-30.5 -10t-29 15t-9.5 30
q10 130 5 216q-10 130 -53 173q-8 8 -14 8.5t-17 -6.5q-30 -19 -68 -76q-32 -50 -58.5 -110t-32.5 -86q-4 -18 -5 -31q-2 -14 -2 -22v-28q0 -19 -1 -36q0 -6 -1 -9q0 -5 -2 -9q-3 -7 -9 -14q-19 -18 -45 -9q-14 6 -22 20l-2 4q-3 3 -3 11v3v2v12v9v12v8v119q0 184 -9 276
q-2 17 9 30.5t28 15t31 -9t15 -28.5q8 -85 9 -131z" />
    <glyph glyph-name="o" unicode="o" horiz-adv-x="435" 
d="M117 420q-43 -64 -49 -160t30 -165q40 -81 119 -88q40 -4 75 13.5t57.5 49.5t35.5 71.5t16 81.5q4 59 -10.5 113.5t-54.5 97.5t-100 54q-4 1 -10 -2q-67 -3 -109 -66zM236 432q-43 4 -74 -42q-35 -52 -40 -133q-5 -82 24 -138q27 -54 75 -58q49 -4 85.5 42.5t40.5 123.5
q5 75 -24 132t-83 73h-4zM218 516q10 5 24 2q69 -13 115 -63t62 -109.5t12 -124.5q-3 -46 -17.5 -89.5t-40.5 -80.5t-68 -57.5t-91 -16.5q-95 9 -143 104q-39 77 -33 181t54 174q51 77 126 80zM244 462q71 -20 104.5 -87t28.5 -150q-5 -87 -49 -143.5t-110 -50.5
q-64 6 -99 74q-32 64 -27 154q5 89 45 147q41 62 101 56h6z" />
    <glyph glyph-name="p" unicode="p" horiz-adv-x="400" 
d="M270 122q72 68 99 157q11 38 7 78q-3 38 -21 68q-19 33 -53 48t-79 7q-48 -9 -132 -82l-2 77q0 5 -3.5 8t-9 3t-8.5 -3.5t-3 -9.5q8 -351 8 -621q0 -5 3.5 -8.5t8.5 -3.5t8.5 3.5t3.5 8.5q0 77 -1 169q102 33 174 101zM121 350q4 -146 5 -261q55 20 112 78q57 56 79 128
q18 59 -8 102q-23 39 -77 29q-7 -1 -14 -3.5t-12.5 -5t-14 -8t-12.5 -9.5l-14 -12l-15 -11q-3 -3 -15.5 -14t-14.5 -13q-3 -2 1 0zM126 -1q1 -70 1 -147q0 -17 -12.5 -29.5t-29.5 -12.5t-29.5 12.5t-12.5 29.5q0 270 -8 621q0 18 12 30.5t29.5 12.5t30 -12t12.5 -29v-13
q42 37 98 48q55 10 97 -9t67 -60q22 -36 25 -82q4 -46 -9 -88q-29 -97 -106 -170t-165 -102zM100 374q4 2 15.5 13t16.5 14l13 11l14 12l16.5 10.5t17 10t16.5 7t19 4.5q72 14 107 -43q32 -55 10 -126q-24 -80 -85 -142q-63 -62 -164 -100q-1 159 -5 323q8 4 9 6z" />
    <glyph glyph-name="q" unicode="q" horiz-adv-x="426" 
d="M375 487.5q-4 3.5 -9 3.5q-8 0 -15 -22q-90 32 -158 -20q-67 -51 -102 -153q-35 -98 -17 -179q9 -42 35 -69t68 -30q76 -6 129 43q16 14 55 62q0 -169 -6 -284q-1 -5 2.5 -8.5t8.5 -3.5t8.5 3t4.5 9q12 243 0 641q0 4 -4 7.5zM336 415q-59 30 -110 -9q-54 -41 -84 -128
q-30 -85 -16 -149q13 -54 55 -57q53 -5 89 29q33 30 60 86h1q-1 102 -5 242q0 -14 10 -14zM409 480q12 -398 0 -643q-2 -18 -14.5 -30t-30 -10t-29.5 14.5t-10 29.5q6 113 6 198q13 16 -4 0q-63 -59 -153 -51q-53 5 -86 40q-32 33 -43 83q-20 89 17 195q39 110 112 167
q82 62 158 34q5 12 33 14q17 0 30.5 -11.5t13.5 -29.5zM356 429q4 -140 5 -248l-4 -8q-29 -60 -66 -94q-46 -42 -113 -37q-64 5 -81 81q-16 72 16 165q34 95 94 142q67 51 136 15q13 0 13 -16z" />
    <glyph glyph-name="r" unicode="r" horiz-adv-x="361" 
d="M79 29q0 -1 0.5 -2.5t0.5 -4.5q0 1 1 0q5 -8 13 -7q6 1 8 7q1 2 1 6q1 2 1 0v18q0 17 -1 42q9 104 74.5 210.5t148.5 169.5q4 3 4.5 8t-2 9t-7.5 4.5t-9 -1.5q-54 -41 -103.5 -103t-107.5 -185q-13 200 -14 242q0 5 -3.5 8t-9 3t-8.5 -3.5t-3 -9.5q1 -46 7 -134t7 -122
q1 -18 1.5 -50.5t0.5 -44.5q-3 -31 0 -60zM49 91q0 10 -0.5 41.5t-1.5 49.5q-1 34 -7 122t-7 136q0 18 12 30.5t29.5 12.5t30 -12t12.5 -29q1 -40 6 -124q10 21 61.5 86t109.5 108q14 10 31 7.5t27.5 -16.5t8 -31t-16.5 -28q-79 -59 -140.5 -160.5t-70.5 -195.5q1 -25 1 -42
v-18q0 -6 -1 -8q0 -4 -3 -10q-8 -20 -32 -25q-28 -3 -41 19q-7 9 -7 18q0 -1 -0.5 0.5t-0.5 4.5q-3 31 0 64z" />
    <glyph glyph-name="s" unicode="s" horiz-adv-x="373" 
d="M336.5 411q4.5 -1 9 1.5t5.5 7.5t-1 9q-16 27 -44.5 41.5t-58 15t-60.5 -6.5q-47 -13 -76 -48.5t-21 -86.5q6 -37 45 -71q20 -17 76 -53q53 -34 76 -57q28 -27 31 -61q5 -52 -45 -69q-44 -16 -102 -3q-23 6 -99 35q-5 2 -9.5 0t-6.5 -7t0 -9t7 -6q77 -31 102 -35
q65 -15 116 2q31 11 48 34t13 60q-2 22 -12.5 42t-30.5 38t-34 28.5t-40 26.5q-56 36 -74 52q-33 28 -37 57q-7 39 16.5 68t63.5 40q39 12 76 1q40 -10 59 -40q3 -5 7.5 -6zM303 401q-12 20 -41 28q-29 7 -60 -1q-31 -9 -47 -29t-11 -47q2 -17 27 -39q16 -14 70 -48
l42 -28.5t37.5 -31.5t35.5 -45t16 -52q5 -49 -18 -81t-63 -45q-59 -21 -132 -4q-27 6 -107 37q-16 6 -23 22t-1 32t22 23t33 1q74 -29 95 -33q49 -11 85 1q28 9 25 37q-2 24 -22 43q-21 21 -71 53q-58 38 -80 57q-47 40 -55 89q-10 63 26.5 107.5t93.5 61.5q35 7 70 6.5
t70 -19t55 -51.5q9 -14 5 -31t-18.5 -26.5t-31.5 -5.5t-27 19z" />
    <glyph glyph-name="t" unicode="t" horiz-adv-x="343" 
d="M174 2q0 -5 3.5 -8.5t8 -3.5t8.5 3.5t4 8.5q0 103 -6 420q62 4 124 13q5 1 8 5t2.5 9t-5 8t-9.5 2q-59 -9 -120 -13q-2 143 -2 235q0 5 -4 8.5t-8.5 3.5t-8 -3.5t-3.5 -8.5q0 -93 2 -236q-64 1 -107 8q-5 1 -9 -2t-5 -8t2 -9t8 -5q46 -7 111 -8q6 -316 6 -419zM139 391
q-39 1 -87 8q-17 3 -27 17t-7.5 31t16 27t31.5 9q42 -7 72 -8q-1 113 -1 206q0 17 12 29.5t29.5 12.5t30 -12.5t12.5 -29.5q0 -92 1 -203q29 2 88 11q17 1 31 -9t16 -27t-8 -31t-27 -17q-64 -9 -98 -11q5 -289 5 -392q0 -17 -12.5 -29.5t-30 -12.5t-29.5 12.5t-12 29.5
q0 103 -5 389z" />
    <glyph glyph-name="u" unicode="u" horiz-adv-x="435" 
d="M94.5 486q-3.5 4 -8.5 4t-9 -3t-4 -8q-11 -181 -6 -266q7 -96 29 -146q14 -32 35 -46q23 -17 54 -9q35 7 66 53q25 34 46 93q16 42 59 207q3 -261 24 -351q1 -5 5 -7.5t9 -1.5t7.5 5t0.5 9q-7 33 -11.5 67t-6.5 73t-2.5 66t-1 74.5t-0.5 68.5q0 9 1 20q0 2 0.5 10.5
t1.5 12.5q2 27 -3 46q-1 4 -4 6q-6 5 -13 3q-4 -2 -6 -6q-2 -3 -3 -6l-6 -20q-6 -21 -23 -90q-35 -134 -51 -178q-21 -56 -43 -88q-25 -37 -52 -44q-21 -4 -35 7q-15 10 -26 35q-21 47 -27 139q-5 83 6 262q1 5 -2.5 9zM127 475q-11 -177 -6 -258q6 -86 25 -129
q7 -17 16 -23q4 -3 11 -1q15 3 34 30q20 30 39 82q16 42 49 176l25 90l6 22q3 7 5 10q6 14 22 20q25 8 43 -9q9 -8 13 -20q6 -23 4 -58q-1 -4 -1.5 -10.5t-0.5 -10.5q-1 -11 -1 -18q0 -21 0.5 -68.5t1 -73.5t2.5 -65t6.5 -71t11.5 -63q4 -17 -5.5 -32t-26.5 -19t-32 5.5
t-18 26.5q-21 92 -21 133q12 49 -4 7q-23 -63 -50 -101q-37 -54 -84 -65q-43 -10 -78 15q-27 18 -45 58q-24 54 -31 156q-5 87 6 270q2 17 15 29t30 10t29 -15t10 -30z" />
    <glyph glyph-name="v" unicode="v" horiz-adv-x="454" 
d="M69 475.5q-5 1.5 -9.5 -1t-6 -7t1.5 -8.5q24 -50 44.5 -105t45 -128t38.5 -109q16 -44 23 -60q10 -21 19 -32q5 -9 11 -12q9 -6 20 1q2 0 4 3q-1 -1 -0.5 0.5t2.5 3.5q-1 -1 0 1l6 15l18 45l54 143l88 241q2 5 0 9.5t-6.5 6t-9 -0.5t-6.5 -7l-89 -240l-54 -142l-20 -56
q-22 46 -38 89l-37 108q-25 74 -46.5 130t-45.5 106q-2 5 -7 6.5zM103 483q25 -52 46.5 -109t46.5 -131l37 -108q16 -41 7 -21l-5 -12l54 142l89 240q5 17 21.5 24t32.5 1.5t23 -22t1 -31.5l-88 -241l-54 -143l-18 -47l-6 -13q-1 -4 -3 -9q-1 0 -1.5 -1.5t-3.5 -4.5
q-6 -7 -13 -11q-24 -13 -48 1q-12 7 -21 20q-10 13 -21 38q-8 16 -24 62q-14 36 -38.5 109t-45 127t-43.5 102q-8 16 -2.5 32.5t21 24t32 2t24.5 -20.5z" />
    <glyph glyph-name="w" unicode="w" horiz-adv-x="600" 
d="M68 479.5q-4 2.5 -9 1t-7.5 -5.5t-0.5 -9l41 -144q28 -99 42 -153q21 -81 23 -87q9 -36 15 -55l8 -19q1 -3 4 -6q8 -9 17 -3q3 1 4 3q-1 -2 -1 -1q4 7 3 6l1 3q2 4 4 11l11 40l34 119q23 77 39 119q4 12 22 48q18 -36 23 -47q16 -37 47 -121l45 -122q11 -26 18 -40l8 -13
l4 -4q6 -5 11.5 -4.5t8.5 5.5l1 3q1 2 2 5q2 3 4 9q3 13 9 34l18 86l36 161q25 111 36 171q2 5 -1 9t-8 5t-8.5 -2t-4.5 -8q-12 -60 -37 -171t-35 -161q-6 -28 -27 -108l-58 154q-32 86 -48 122q-11 28 -20 41q-4 8 -9 12q-9 9 -17 8t-15 -8q-4 -5 -9 -14q-8 -14 -18 -41
q-17 -43 -39 -120l-44 -147l-34 134q-14 54 -42 153l-41 144q-2 5 -6 7.5zM103 480l41 -144q28 -99 42 -153l7 -30l13 43q23 79 40 122q10 29 20 47q7 11 13 18q15 17 35 18q22 1 39 -16q8 -6 15 -18q9 -15 22 -45q16 -36 48 -124l25 -66q-3 -12 2 16q10 50 35 161t37 171
q3 17 17.5 27t31.5 6t27 -18t6 -31q-11 -60 -36 -171l-36 -161q-8 -40 -19 -88q-6 -21 -9 -34l-5 -13q-1 -3 -2 -5q-1 -3 -3 -7q-13 -17 -31.5 -18.5t-32.5 9.5q-6 4 -10 10q-5 7 -10 17q-8 16 -20 44l-45 122q-31 82 -47 119q-4 11 5 -9q10 20 6 10q-16 -42 -38 -117
l-34 -119l-11 -40q-3 -9 -5 -13l-1 -7q-3 -3 -1 0q0 -1 -3 -7q-7 -8 -14 -13q-31 -20 -55 9q-5 5 -9 14q-4 7 -9 21q-7 21 -16 57q-2 6 -23 87q-14 54 -42 153l-41 144q-5 17 3.5 32t25.5 19.5t32 -4t20 -25.5z" />
    <glyph glyph-name="x" unicode="x" horiz-adv-x="400" 
d="M49.5 13q0.5 -5 4 -7.5t8.5 -2t8 4.5q20 26 47 71l43 72l46 75q77 -133 141 -229q3 -4 7.5 -5t8.5 2t5.5 7.5t-1.5 8.5q-68 103 -146 239q82 132 139 214q3 4 2 8.5t-5.5 7.5t-9 2t-7.5 -5q-52 -74 -132 -204l-107 201q-2 4 -7.5 5.5t-9.5 -0.5t-5.5 -7.5t0.5 -9.5
l114 -212l-53 -86l-43 -72q-26 -43 -46 -69q-2 -4 -1.5 -9zM28 40q18 24 43 67l43 72l44 72l-106 196q-7 16 -2 32.5t20 24.5t32 2.5t25 -19.5l83 -155q53 86 105 160q9 16 26.5 19t32 -7t18 -27.5t-7.5 -31.5q-56 -80 -128 -196q69 -120 135 -221q11 -14 7 -31.5t-18 -27.5
t-31 -6t-27 18q-64 96 -117 187l-19 -33l-43 -72q-28 -45 -49 -73q-10 -14 -27.5 -16.5t-31 8t-16 28.5t8.5 30z" />
    <glyph glyph-name="y" unicode="y" horiz-adv-x="432" 
d="M71.5 485.5q-4.5 2.5 -9 1t-7 -6t-1.5 -9.5q21 -63 84 -206q57 -132 79 -203q1 -2 4 -11q-34 -93 -58 -166q-1 -5 1.5 -9.5t7 -6t9 1t6.5 7.5q37 116 119 328.5t99 261.5q2 5 0 9.5t-6.5 6t-9 -0.5t-6.5 -7l-148 -388q-32 88 -76 187q-60 137 -81 203q-2 5 -6.5 7.5z
M106 488q21 -66 81 -201q44 -99 49 -113l119 312q5 17 21 24t32.5 1.5t23.5 -22t1 -31.5q-17 -49 -99 -261.5t-119 -328.5q-6 -17 -21.5 -24.5t-32 -2t-24 21t-2.5 30.5q24 75 54 158q1 -3 0 -1q-22 73 -79 203q-63 145 -84 210q-5 15 2.5 30.5t24 21t32 -2t21.5 -24.5z" />
    <glyph glyph-name="z" unicode="z" horiz-adv-x="400" 
d="M103 474q-3 -4 -3 -8.5t3.5 -8t9.5 -3.5q11 0 113 1h73h17v-19q-13 -31 -41 -81q-22 -42 -58 -99h-82q-5 0 -8.5 -3.5t-3.5 -8.5t3.5 -8.5t8.5 -3.5h67l-48 -74l-52 -75l-31 -43l-10 -15q-2 -3 -2 -3.5v-4.5l-2 -3q-1 -6 3 -10q3 -2 11 -3h-4h2h2h2q1 0 7 1l29 2
q75 5 91 6q139 8 173 4q5 -1 9 2.5t4.5 8t-2.5 9t-8 4.5q-40 4 -178 -4q-34 -2 -107 -7l30 43l54 74l55 89q31 0 79 1q6 0 9.5 3.5t3.5 9t-3.5 8.5t-8.5 3l-64 -2l49 86q29 53 42 83q7 17 9 28q1 7 0 12q-2 9 -8 13q-3 1 -4 1v0h-1h-3h-7h-24h-72q-103 -1 -116 -1
q-5 0 -8 -4zM111 508q12 0 115 1h73h24h7h3h1h3q7 -2 14 -5q20 -12 24 -33q3 -11 0 -24q-2 -13 -11 -34q-13 -32 -42 -85l-23 -40h10q17 0 30 -12t13 -29.5t-12 -30t-30 -12.5q-48 -1 -63 -1l-47 -75l-54 -76l6 9q11 1 45 3q140 8 182 4q17 -2 28 -15.5t9.5 -31t-15.5 -28
t-31 -9.5q-32 4 -169 -4q-16 -1 -89 -6l-29 -2q-6 -1 -10 -1h-2h-2h-2q-9 0 -11 2q-4 1 -13 7q-18 14 -16 36q0 8 2 11q0 2 2.5 6.5t4.5 7.5l10 15l31 45l52 73l18 28h-12q-18 0 -30 12.5t-12 29.5t12 29.5t30 12.5h65q27 43 48 83q28 48 38 73v-17h13h-72q-102 -1 -114 -1
q-17 0 -30 11.5t-13 29t11.5 30.5t29.5 13z" />
    <glyph glyph-name="braceleft" unicode="{" horiz-adv-x="330" 
d="M278 718.5q4 3.5 4.5 8t-2.5 9t-8 4.5q-88 10 -144 -46t-43 -145q3 -16 10 -38q10 -30 11 -37q10 -37 -2 -64q-7 -14 -44 -48l-26 -23l-7.5 -7.5t-5.5 -11.5q-2 0 -1 2t0.5 -1t0.5 -6q2 -5 6 -7l5 -2h3h11q24 -1 30 -1q20 -1 30 -4h12q9 -31 -9 -63q-2 -5 -11 -22
t-15 -29.5t-8 -21.5q-11 -49 4 -93t47 -72t76.5 -41.5t88.5 -5.5q5 1 8 5t2 9t-5.5 8t-9.5 2q-53 -10 -101.5 12.5t-73.5 69t-13 101.5q2 8 6.5 17.5t12.5 23.5l14 25q26 51 7 83q-5 11 -26 15q-8 2 -51 6q56 53 64 69q17 35 4 82l-11 37q-6 21 -8 34q-12 77 35.5 125
t123.5 39q5 -1 9 2.5zM266 686q-62 7 -99 -30t-28 -100q2 -11 8 -30l11 -37q15 -59 -6 -102q-10 -22 -22 -33q-21 2 -11 0q34 -8 46 -31q26 -44 -7 -111l-14 -25q-8 -14 -11.5 -21.5t-5.5 -13.5q-10 -43 10 -79.5t60 -55t84 -10.5q17 3 31.5 -7t17.5 -27t-7 -32t-27 -18
q-51 -8 -102 7.5t-88 47.5t-55 84t-5 109q2 13 9 27.5t16 30.5t11 21q12 24 13 21h6q-10 3 -26 4q-6 0 -30 1h-10q-7 0 -12 2l-7 2q-16 8 -22 23q-5 11 -3.5 20t5.5 18l4 9q-2 -4 2.5 0.5t12.5 10.5l24 23q33 30 38 40q8 15 0 44q-1 5 -11 33q-7 26 -10 42q-16 105 50.5 172
t168.5 55q17 -2 28 -15.5t9.5 -31t-15.5 -28t-31 -9.5z" />
    <glyph glyph-name="bar" unicode="|" horiz-adv-x="639" 
d="M287 453q-25 19 -66.5 39.5t-78.5 25.5q-49 7 -74 -15q-28 -26 -17 -89q9 -47 92 -122q19 -18 42 -36l45 -36q24 -18 31 -24l86 -70q35 -29 54 -42q14 -10 21 -14q4 -2 9 -4q6 -2 11 -1q3 1 5 4l2.5 2.5t0.5 2.5l6 11l13 29q3 8 8 20l10 22l5 13q55 115 87 219
q23 78 28 130q6 69 -20 96q-20 22 -49 18q-80 -11 -125 -134q-17 -49 -35 -150q-54 76 -91 105zM343 297q-46 80 -90 114q-20 15 -55 32t-65 21q-23 4 -27 -1q-7 -6 -1 -39q5 -29 74 -92l42 -34l44 -36q23 -18 30 -25l85 -69q32 -26 52 -40l-12 8v-1l25 56q50 110 82 213
q22 73 26 119q5 44 -6 55h-1q-49 -6 -82 -98q-21 -60 -37 -173q-3 -18 -17 -27.5t-31 -8.5q-17 3 -26 15q-5 4 -10 11zM361 424q6 33 24 84q51 141 149 154q44 6 75 -28q35 -37 28 -118q-5 -56 -29 -136q-33 -106 -88 -223l-5 -13l-10 -22q-5 -12 -8 -20l-14 -31l-5 -9
q-1 -4 -3.5 -7.5t-5.5 -5.5q-7 -9 -19 -12q-14 -5 -30 1q-6 2 -13 6l-23 16q-20 13 -56 42l-86 70q-7 6 -30 24l-46 36q-24 20 -43 38q-91 81 -101 138q-15 79 26 117q35 32 98 23q42 -7 87 -28.5t72 -42.5q41 -33 56 -53zM374 308q5 -6 9 -7q5 -1 9.5 2.5t4.5 7.5
q17 117 39 179q39 110 106 118q16 2 27 -10q20 -21 14 -77q-4 -50 -27 -125q-33 -105 -84 -217l-25 -56l-15 -31l-17 12q-21 14 -54 40l-85 71q-7 5 -30 23l-44 36l-43 36q-77 69 -83 108q-10 49 9 67q15 15 53 9q34 -6 72.5 -24t60.5 -35q49 -38 98 -122q2 -3 5 -5z" />
    <glyph glyph-name="braceright" unicode="}" horiz-adv-x="358" 
d="M54 -26q-4 -3 -5 -8t2 -9t8 -5q87 -13 145.5 41t48.5 143q-3 21 -13 51q-7 24 -8 52q-2 39 45 76q6 4 11.5 8.5t12.5 9t9 5.5q8 6 12 10q8 10 5 20q-2 4 -6 6l-3 1l-4 0.5l-12 1.5q-22 2 -29 2q-20 2 -30 5q-2 0 -13 6q-6 26 13 56q2 5 10 16l12 20q4 7 9 18t6 19
q13 65 -12.5 119.5t-78 82t-116.5 18.5q-5 -1 -8 -5t-2 -9t5 -8t9 -2q84 12 140.5 -46.5t39.5 -145.5q-2 -8 -5.5 -14.5t-6.5 -14.5l-12 -16l-12 -19q-28 -48 -11 -81q5 -11 27 -17q6 -1 47 -10q-78 -62 -76 -113q1 -31 9 -58q9 -29 12 -46q8 -78 -41 -123.5t-125 -34.5
q-5 1 -9 -2zM66 6q63 -9 101.5 26.5t31.5 97.5q-2 15 -11 40q-9 33 -10 68q-3 65 37 97q21 -5 14 -2q-35 8 -46 31q-24 49 13 111l12 19l11 16l5 10.5t4 10.5q13 69 -32.5 116.5t-115.5 37.5q-17 -1 -30.5 9t-16 27t7.5 31t27 17q74 9 135.5 -22.5t91 -95t15.5 -136.5
q-2 -12 -8 -26t-12 -23l-12 -20l-9 -14l-13 -22l-8 4q11 -3 27 -5q6 0 30 -2q9 -1 12 -1.5t6 -0.5l9 -3q16 -8 23 -24q10 -28 -12 -50q-5 -6 -16 -14q-3 -3 -9.5 -6.5t-11.5 -8t-11 -8.5q-34 -27 -33 -50q1 -24 7 -44q10 -34 14 -57q11 -105 -58 -169t-171 -49q-17 3 -27 17
t-7.5 31t16 27t30.5 9z" />
    <glyph glyph-name="asciitilde" unicode="~" horiz-adv-x="400" 
d="M50 474q3 -4 8.5 -4.5t9 3t4.5 7.5q4 45 30 88q30 49 63 34q11 -5 21 -22l17 -38q8 -19 14 -30.5t21 -25t34 -19.5q49 -15 90 27q16 16 50 74q2 4 1 9t-5.5 7.5t-9.5 1t-6 -4.5q-33 -56 -48 -71q-29 -31 -65 -19q-19 6 -31.5 20.5t-21.5 39.5q-15 33 -20 42
q-13 23 -31 31q-29 12 -53 -2t-41 -42q-29 -48 -34 -96q0 -6 3 -10zM18 486q5 56 38 110q21 34 54 54t76 2q28 -12 47 -45q5 -9 20 -44q9 -21 16.5 -30.5t18.5 -13.5q18 -6 35 11q12 13 42 65q8 15 25.5 19.5t32 -4t19.5 -25.5t-5 -33q-35 -60 -54 -80q-53 -54 -120 -33
q-25 8 -44.5 25.5t-27 32t-15.5 33.5q-14 31 -17 36q-4 7 -7 8q-9 5 -25 -22q-22 -37 -26 -74q-1 -18 -14.5 -28.5t-31 -9t-28.5 14.5t-9 31z" />
    <glyph glyph-name="exclamdown" unicode="&#xa1;" horiz-adv-x="176" 
d="M150 612q2 -4 7 -5t9.5 1.5t5.5 7.5t-1 10l-14 20l-10 17q-6 8 -10 12q-8 7 -16 7t-15 -6l-10 -13l-29 -45q-3 -4 -2 -9t5.5 -7.5t9 -1.5t7.5 6l35 54zM129.5 507.5q-3.5 3.5 -9 3.5t-9 -3t-3.5 -8q-5 -63 -5 -244.5t-2 -244.5q0 -5 3.5 -9t8 -4t8.5 3.5t4 7.5
q2 91 2 244t5 245q1 6 -2.5 9.5zM121 602l-8 -12q-9 -15 -26.5 -19t-32 5.5t-18.5 26.5t6 31l29 45q8 12 15 19q17 14 35 14q20 0 36 -15q6 -6 14 -16l12 -19q8 -13 13 -20q9 -15 5 -32t-18.5 -26.5t-31.5 -5.5t-27 18zM162 496q-5 -90 -5 -243t-2 -244q0 -18 -13 -29.5
t-30.5 -11.5t-29 13t-11.5 30q2 63 2 245.5t5 245.5q2 17 14.5 29t30 10t29.5 -14.5t10 -30.5z" />
    <glyph glyph-name="cent" unicode="&#xa2;" horiz-adv-x="269" 
d="M129 515q-3 4 -7.5 4.5t-9 -3t-4.5 -8t3 -9.5q22 -27 43 -24q15 3 39 27q3 4 3 9t-4 8.5t-9 3.5t-8 -3q-9 -11 -27 -25q-13 13 -19 20zM237 308q4 -3 8.5 -1.5t7.5 5.5t2 9q-8 32 -25 57.5t-40 37.5q-25 12 -52 0q-26 -13 -49 -50q-31 -50 -33 -126q-3 -77 21 -129
q27 -64 75 -69q54 -6 114 68q4 5 3.5 9.5t-4.5 8t-9 3t-8 -4.5q-52 -65 -94 -60q-33 4 -55 54t-19.5 119.5t29.5 114.5q20 31 40 41q15 7 32 -2q15 -7 29 -28t22 -50q1 -4 5 -7zM126 -60.5q0 -4.5 4.5 -8t9 -3t7.5 4.5q9 11 26 28l19 -19q3 -4 8.5 -4t9 3t4 8t-3.5 9
q-25 27 -45 21q-14 -3 -36 -30q-3 -5 -3 -9.5zM150 535q-5 -4 3 5q13 13 30 13t30 -11.5t13 -28.5t-11 -31q-31 -32 -56 -37q-38 -5 -72 36q-10 13 -8.5 30.5t15.5 28t31 9t28 -15.5q4 -5 -3 2zM203 307q-7 25 -17 40t-19 20q-3 1 -5 0q-12 -6 -27 -29q-23 -37 -25.5 -99.5
t17.5 -106.5q15 -34 31 -36q25 -3 66 48q11 14 28.5 15.5t31 -9t15.5 -28t-9 -30.5q-71 -88 -142 -80q-65 7 -99 87q-26 58 -23 141q2 84 37 142q28 45 63 62q39 18 78 -2q29 -14 50 -45.5t30 -67.5q4 -17 -5 -32t-25.5 -19.5t-31.5 4.5t-19 25zM105 -33q30 37 52 42
q38 10 75 -31q13 -12 11.5 -30t-14.5 -30t-30.5 -10t-28.5 14l3 -3q5 5 -2 -4q-11 -14 -28 -15.5t-31 9t-15.5 28t8.5 30.5z" />
    <glyph glyph-name="sterling" unicode="&#xa3;" horiz-adv-x="540" 
d="M440 583q4 -2 9 0t7 6.5t0 9.5q-13 32 -36 51t-52 22q-28 3 -56 -11.5t-49 -43.5q-56 -76 -81 -218l-9 -52q-58 0 -107 1q-6 0 -9.5 -3t-3.5 -8.5t3 -9t8 -3.5q46 -1 106 -1q-16 -99 -31 -148q-5 -19 -12 -35q-6 -16 -17 -41l-14 -31q0 -2 -5 -11q-6 -9 -7 -10
q-5 -9 -6 -14q-1 -7 3 -12t11 -6q16 -2 29 16q4 7 6 10l2 4q35 24 69 18q24 -3 67 -23q60 -27 76 -33q45 -16 79 -9q44 8 76 49q19 25 20 51t-14 42q-16 17 -38 10t-35 -37q-2 -4 0 -9t6 -7t9 0t9 11t25 26q24 -39 0 -71q-28 -36 -61 -42q-29 -4 -69 9q-15 5 -73 31
q-48 22 -73 26t-75 -9q28 63 36 89q14 50 31 156q83 0 146 3q4 0 7.5 4t3.5 8.5t-4 8t-9 3.5q-59 -2 -141 -3q6 34 8 47q25 137 78 209q36 50 83 45q47 -4 68 -58q2 -5 6 -7zM406 578q-15 38 -42 40q-31 3 -57 -33q-49 -66 -72 -195l-2 -13q46 1 105 3q17 0 30 -11.5t13 -29
t-11.5 -30.5t-29.5 -13q-63 -3 -120 -3q-13 -82 -29 -134q-8 -28 -12 -37q-4 -1 27 -5q29 -6 81 -28q58 -26 71 -31q32 -11 53 -7q23 4 43 30q12 16 16 9q11 9 6 -3t-21 -18t-32 1t-22 23t0 32q19 42 53 53q40 13 70 -18q23 -24 22 -61t-26 -70q-40 -51 -94 -61
q-42 -7 -95 11q-18 6 -78 33q-39 18 -59 21q-24 4 -41 -8v0l-8 -10q-23 -34 -57 -30q-19 3 -30 17t-10 33q1 13 10 26q1 3 7 12l1 1l16 37q11 25 17 41q7 14 12 31q13 47 23 110q-24 0 -70 1q-17 0 -29 12.5t-12 30t12.5 29.5t30.5 12q49 -1 81 -1l5 28q27 148 87 230
q25 35 60 52.5t71 14.5q39 -3 69 -28t45 -65q6 -17 -1 -32.5t-23 -21.5t-32 1t-22 22z" />
    <glyph glyph-name="currency" unicode="&#xa4;" horiz-adv-x="448" 
d="M337 262q22 25 28 64.5t-7 77.5q-19 50 -63 67q-43 15 -103 -8q-47 -28 -66 -76.5t-6 -92.5q8 -29 28 -47.5t56.5 -25.5t89.5 12q19 7 30 17q1 2 5 6q5 4 8 6zM116 201q86 -57 197 -18q21 7 52 29q9 -14 30 -34q4 -4 8.5 -4t8.5 3.5t4 8.5t-4 8l-33 33q35 49 40.5 101
t-10.5 94q-8 20 -26 47l41 37q3 3 3.5 8t-3 9t-8 4t-8.5 -3l-41 -36q-29 25 -53 33q-52 19 -118 1q-7 1 -11 -1l-16 -9l-22 -9l-45 44q-4 4 -9 4t-8 -3.5t-3 -8.5t3 -8l46 -46q-50 -51 -64 -105t1 -101q8 -31 40 -73l-18 -6l-34 -34q-3 -3 -3 -8t3.5 -8.5t8 -3.5t8.5 4
l33 33q1 1 10 18zM350 234l-1 -2q-21 -18 -44 -27q-61 -23 -106.5 -14t-71.5 33.5t-36 61.5q-15 54 7 111.5t81 93.5q72 27 127 8q56 -21 80 -85q16 -44 9 -92.5t-39 -83.5q-5 -2 -6 -4zM127 161l-33 -33q-12 -12 -29.5 -12t-29.5 12.5t-12 29.5t12 30l32 32q4 6 -8 2
q-10 12 -20 49q-17 55 -1 117t51 97l-25 24q-12 11 -12 29t11.5 30.5t29.5 12.5t30 -12l31 -30l2 1l16 7q12 6 21 5q70 20 131 -3q29 -10 43 -21l21 18q13 13 30.5 11t29 -15t10 -30t-13.5 -28l-22 -19q6 -9 15 -33q19 -48 12.5 -108t-31.5 -93l15 -15q13 -13 13 -30
t-12.5 -29.5t-30 -12.5t-29.5 12q-23 22 -17 14q-10 -6 -34 -15q-125 -45 -196 2q5 9 0 4z" />
    <glyph glyph-name="yen" unicode="&#xa5;" horiz-adv-x="568" 
d="M279 278l35 5l-15 37zM111 693.5q-5 1.5 -9.5 -0.5t-6 -7t0.5 -10q58 -108 125 -290l22 -63l-179 -46q-5 -2 -7.5 -6t-1 -9t5.5 -7.5t9 -1.5q88 25 181 47l16 -53q8 -25 18 -48q-93 -20 -149 -26q-5 -1 -8 -4.5t-2.5 -8.5t4.5 -8.5t9 -2.5q56 7 153 27q8 -100 23 -155
q1 -5 5 -7.5t9 -1t7.5 5.5t1.5 9q-15 55 -22 154q119 27 162 34q4 1 7 5t2 9t-5 8t-9 2q-44 -8 -161 -34l10 36q5 14 23 49l17 35q92 19 171 31q4 1 7 5t2.5 9t-4.5 8t-9 2q-62 -10 -157 -28q93 221 180 335q2 4 1.5 9t-4.5 7.5t-9 2t-8 -4.5q-56 -74 -97.5 -155.5
t-90.5 -199.5l-78 -18l-23 66q-67 185 -125 294q-2 4 -7 5.5zM297 244l-24 63l58 9zM144 702q60 -111 127 -298l15 -40l36 8q43 104 85.5 187.5t100.5 159.5q11 14 28 16.5t31 -8t16.5 -27.5t-7.5 -31q-85 -112 -154 -277q40 8 103 18q17 1 31 -9t16.5 -27t-7.5 -31t-27 -17
q-79 -12 -156 -27l-10 -23q-17 -33 -22 -45l4 14q69 16 113 24q18 3 32.5 -7t17.5 -27t-7 -32t-27 -18q-42 -7 -135 -28q5 -71 19 -122q4 -17 -4.5 -32t-25.5 -19.5t-32 4t-19 25.5q-16 57 -21 127q-65 -14 -123 -21q-18 -1 -31 9.5t-15.5 27.5t8.5 30.5t28 16.5
q55 6 111 18q4 -9 -4 18l-8 25l-153 -39q-17 -5 -32 3.5t-19.5 25.5t4 32t25.5 19q95 27 148 40l-11 31q-67 180 -123 286q-8 15 -3.5 32t20.5 25t33 3.5t24 -20.5z" />
    <glyph glyph-name="brokenbar" unicode="&#xa6;" horiz-adv-x="73" 
d="M68.5 695q-4.5 3 -8.5 2t-7 -6.5t-2 -12.5q7 -47 9.5 -106t1.5 -109t0 -111q0 -7 4.5 -11.5t8.5 -4.5t7.5 5t3.5 13q-1 56 0 107.5t-1 113.5t-11 109q-1 8 -5.5 11zM69 200q-3 3 -8.5 3t-9 -3t-3.5 -8q0 -40 3.5 -112t3.5 -108q0 -33 -7 -107q0 -6 3 -9.5t8 -4t9 2.5t5 6
q6 50 6 106t-3.5 123.5t-3.5 102.5q0 5 -3 8zM103 690q9 -49 11.5 -113t1.5 -115.5t0 -107.5q0 -18 -11 -33t-29 -15t-31 13.5t-13 32.5q-1 61 0 111t-1 108t-9 101q-5 17 5 33.5t27 21.5t31.5 -7t17.5 -30zM102 192q0 -35 3.5 -102.5t3.5 -124.5t-7 -109q-3 -17 -17 -27
t-31 -7.5t-27 16t-8 29.5q6 74 6 105q0 36 -3.5 108t-3.5 112q0 17 13 29t29.5 12t29 -12t12.5 -29z" />
    <glyph glyph-name="section" unicode="&#xa7;" horiz-adv-x="300" 
d="M132 414q-21 1 -35 -16q-14 -18 3 -43q7 -10 19 -21t20.5 -17.5t32 -21.5l31.5 -20l4 -3q11 15 5 39q-7 25 -42 64l-37 38zM252.5 546.5q4.5 -3.5 9 -3t8 5t2.5 8.5q-6 53 -36.5 84.5t-69.5 32.5q-40 1 -66 -29.5t-23 -84.5q2 -35 45 -91q-50 -15 -67 -37
q-18 -23 -19 -50t18 -57q10 -14 27 -29.5t26.5 -23t36.5 -23.5q26 -16 29 -18q37 -25 58 -49q21 -25 27 -60q6 -32 -4.5 -57.5t-27.5 -37.5q-41 -28 -73 19q-8 12 -13 33l-12 42q-1 2 -5.5 4.5t-9 1t-7 -6.5t-1.5 -9q3 -7 7 -23t4 -17q7 -23 17 -38q22 -32 52 -38
q29 -6 53 12q25 17 37.5 49t6.5 69q-8 46 -49 90q44 59 31 109q-10 39 -54 87q-4 5 -38 40q-22 23 -34 37q-34 42 -37 74q-2 44 17.5 66.5t46.5 21.5q29 0 54 -25t29 -71q0 -4 4.5 -7.5zM155 433l37 -38q40 -45 49 -76q9 -38 -26 -87l-29 19q-7 5 -31 20t-33.5 21.5
t-23.5 19.5t-23 27q-30 43 -2 77q24 31 75 26zM218 552q-3 34 -19.5 51t-33.5 17q-14 1 -25 -11.5t-9 -44.5q2 -22 30 -56q11 -14 33 -37l39 -40q48 -54 60 -99q16 -64 -21 -115q30 -32 40 -88q7 -45 -9 -85t-47 -61q-34 -26 -77 -18q-42 10 -70 50q-14 19 -23 52q0 1 -3 14
t-6 20q-5 18 2.5 33t24 20.5t32 -2t22.5 -25.5q0 -2 11 -40q4 -17 9 -25q15 -21 31 -11q10 8 17 25.5t2 39.5q-4 27 -20 46q-18 22 -51 43q-3 2 -29 18l-38 25.5t-30 25t-31 35.5q-24 38 -23 75t25 66q23 30 41 35q-23 30 -25 73q-3 66 31 106.5t88 39.5q52 -1 90 -40.5
t46 -102.5q2 -18 -9 -31.5t-28 -15t-31 9t-16 28.5z" />
    <glyph glyph-name="dieresis" unicode="&#xa8;" horiz-adv-x="200" 
d="M66 641q-5 0 -8.5 -3.5t-3.5 -8.5t3.5 -8.5t8.5 -3.5t8.5 3.5t3.5 8.5t-3.5 8.5t-8.5 3.5zM188 639q-5 0 -8.5 -3.5t-3.5 -8.5t3.5 -8.5t8.5 -3.5t8.5 3.5t3.5 8.5t-3.5 8.5t-8.5 3.5zM108 629q0 -17 -12.5 -29.5t-29.5 -12.5t-29.5 12.5t-12.5 29.5t12.5 29.5t29.5 12.5
t29.5 -12.5t12.5 -29.5zM230 627q0 -17 -12.5 -29.5t-29.5 -12.5t-29.5 12.5t-12.5 29.5t12.5 29.5t29.5 12.5t29.5 -12.5t12.5 -29.5z" />
    <glyph glyph-name="copyright" unicode="&#xa9;" horiz-adv-x="497" 
d="M212 680q-65 -37 -104 -134q-38 -96 -42 -208q-2 -54 7 -104q8 -49 26.5 -93t50.5 -76.5t75 -45.5q56 -16 102 1.5t80 60.5q66 81 78 218q6 65 -4 127q-9 62 -33 118t-70 95t-107 50q-2 1 -7 -1q-33 4 -52 -8zM278 631q-7 1 -15.5 2t-11 1.5t-5.5 0.5t-4.5 -0.5
t-3.5 -1.5q-48 -27 -82 -110t-36 -185q-3 -105 30 -178q31 -71 91 -89q73 -21 124 43q55 70 66 190q7 77 -8 145t-52.5 117.5t-89.5 64.5h-3zM321 424.5q4 -2.5 9 -1.5t7.5 5t0.5 9q-8 36 -25.5 55t-42.5 20q-47 1 -86 -58q-35 -55 -34.5 -119t28.5 -111q32 -53 79 -53
q53 -1 104 66q2 4 1.5 9t-4.5 7.5t-9 2t-8 -4.5q-43 -57 -83 -56q-34 0 -60 41q-25 42 -25 99t29 105q34 49 67 48q33 0 47 -56q1 -5 5 -7.5zM260 718q7 2 17 1q69 -13 120 -57t77.5 -105t36.5 -127q10 -64 4 -133q-12 -147 -84 -234q-40 -51 -94.5 -71.5t-119.5 -0.5
q-51 15 -88 51.5t-57 85.5t-29 102q-9 52 -7 110q4 116 44 218q43 105 117 148q28 16 63 12zM285 661q66 -19 108.5 -75.5t58.5 -129.5t9 -154q-11 -130 -72 -206q-65 -80 -156 -53q-74 22 -111 105q-35 79 -32 190q2 108 38 197q38 91 98 126q4 1 7.5 2.5t10.5 1.5
t10.5 -0.5t12 -1.5t13.5 -2h5zM286 426q-8 32 -17 32q-17 1 -41 -34q-25 -40 -25 -89t21 -83q16 -27 34 -27q26 -1 59 44q11 14 28 16.5t31 -8t16.5 -27.5t-7.5 -31q-61 -79 -128 -78q-64 0 -105 67q-32 55 -32.5 127t38.5 135q49 73 112 72q39 -1 63.5 -28t34.5 -69
q4 -17 -5.5 -32t-26.5 -19t-32 5.5t-18 26.5z" />
    <glyph glyph-name="ordfeminine" unicode="&#xaa;" horiz-adv-x="370" 
d="M249 555q-34 -19 -77 -59q-51 -49 -43 -76q2 -5 0 -5q11 0 35 16q25 17 48 42t29 36q4 9 6 10v19v20q1 11 2 -3zM85.5 636q0.5 -5 4 -8.5t8.5 -3t8 3.5q45 48 94 53t65 -29q4 -7 9 -33q-19 0 -21 -1q-64 -32 -118 -83q-76 -72 -58 -131q14 -43 52 -43q28 0 66 25
q32 22 82 79q20 -84 67 -100q4 -1 8.5 1.5t6 7t-1 9t-7.5 6.5q-35 12 -45 59q-5 26 -4 108q1 75 -13 106q-24 49 -92 43q-57 -5 -108 -61q-3 -3 -2.5 -8zM277 556v-18v-33q-8 -7 -10 -10q-8 -15 -33 -42t-53 -46q-31 -22 -52 -22q-20 0 -28 25q-14 45 51 108q45 42 123 85
q3 -34 2 -47zM66 664q59 64 128 71q88 8 121 -61q17 -37 16 -118q-1 -80 4 -102q6 -31 25 -37q17 -6 24.5 -21.5t2 -32t-21 -24t-30.5 -2.5q-64 20 -74 64q-14 -15 -50 -39q-45 -31 -82 -31q-60 0 -80 63q-24 77 66 163q56 53 124 87q8 5 -1 5q3 -14 1 -11q-8 16 -41 13
t-70 -43q-12 -13 -29.5 -13.5t-30 11t-13 28.5t10.5 30z" />
    <glyph glyph-name="guillemotleft" unicode="&#xab;" horiz-adv-x="395" 
d="M386 440.5q-1 4.5 -5.5 7.5t-9 2t-7.5 -6l-18 -21l-39 -39l-38 -40q-35 -39 -53 -62q-12 -14 -17 -25q-8 -15 -7 -24q2 -7 9 -19q6 -9 17 -23q16 -24 47 -57q43 -50 87 -95q2 -3 7.5 -3t9 3t3.5 8.5t-4 9.5l-86 92q-29 34 -46 56l-15 22l-10 10l10 10q4 7 14 20
q17 23 52 60l37 39q26 26 40 41.5t19 24.5q4 4 3 8.5zM265 443.5q-1 4.5 -5.5 7.5t-9 2t-7.5 -6l-19 -21q-12 -14 -37 -39l-39 -40q-35 -39 -53 -62q-12 -14 -17 -25q-8 -15 -7 -24q2 -7 9 -19q6 -9 17 -23q16 -24 47 -57q43 -50 87 -95q2 -3 7.5 -3t9 3t3.5 8.5t-4 9.5
l-86 92q-29 34 -46 56l-15 22l-10 10l10 10q4 7 14 20q17 23 52 60l37 38l40 42.5t19 24.5q4 4 3 8.5zM408 414q-7 -9 -22 -25.5t-41 -42.5l-36 -39q-34 -37 -51 -58q-8 -11 -12 -20l8 8q-8 8 -6 4q4 -7 13 -18q15 -22 44 -54l84 -92q13 -12 13 -29.5t-13 -29.5t-30.5 -12
t-28.5 13q-45 45 -88 95q-31 35 -48 59q-12 14 -18 25q-11 16 -13 31q-3 19 9 42q7 13 21 29q18 25 55 64l38 40q25 25 37 39l16 19q9 15 26.5 18t32 -7t17.5 -27.5t-7 -31.5zM287 417q-7 -9 -22 -25.5l-41 -43.5l-37 -38q-33 -37 -50 -58q-8 -11 -12 -20l8 8q-8 8 -6 4
q4 -7 13 -18q15 -22 44 -54l84 -92q13 -12 13 -29.5t-13 -29.5t-30.5 -12t-28.5 13q-45 45 -88 95q-31 35 -48 59q-12 14 -18 25q-11 16 -13 31q-3 19 9 42q7 13 21 29q18 25 55 64l39 40l35 39l17 19q9 15 26.5 18t32 -7t17.5 -27.5t-7 -31.5z" />
    <glyph glyph-name="logicalnot" unicode="&#xac;" horiz-adv-x="364" 
d="M49 307.5q-3 -3.5 -2 -9t4.5 -8.5t8.5 -2t26 4l59 9q36 5 60 9l88 12l35 4v-17q3 -15 5 -42q1 -17 2 -45t1 -33q0 -4 3.5 -7.5t9 -3t8.5 4.5t3 9q-1 5 -2 32.5t-2 43.5q-1 30 -4 46l-5 18q-3 10 -8 15q-3 3 -5 3h-4h-4q-2 0 -7 -1q-11 -1 -29 -4q-31 -4 -88 -12
q-24 -4 -60 -9l-57 -8q-21 -3 -27 -4t-9 -4.5zM53 342q6 1 28 4l57 8q35 5 59 9l88 12q19 3 30 4q6 1 11 1h4h4q13 0 26 -11q10 -11 16 -27l5 -22q4 -20 5 -50q1 -16 2 -42.5t2 -31.5q1 -19 -10 -32t-28.5 -14.5t-31 9t-14.5 28.5q0 7 -1 34t-2 44q-2 25 -5 42v-15h-1
l-87 -12q-24 -4 -61 -9l-58 -9q-21 -3 -27 -4q-18 -1 -31 9t-15.5 27.5t7.5 31t28 16.5z" />
    <glyph glyph-name="registered" unicode="&#xae;" horiz-adv-x="494" 
d="M212 680q-65 -37 -104 -134q-38 -96 -42 -208q-2 -54 7 -104q8 -49 26.5 -93t50.5 -76.5t75 -45.5q56 -16 102 1.5t80 60.5q66 81 78 218q6 65 -4 127q-9 62 -33 118t-70 95t-107 50q-2 1 -7 -1q-33 4 -52 -8zM229 409q9 1 23 10.5t15.5 13.5l1.5 4q1 -3 -3 -3
q-19 3 -38 -6q1 -12 1 -19zM278 631q-7 1 -15.5 2t-11 1.5t-5.5 0.5t-4.5 -0.5t-3.5 -1.5q-48 -27 -82 -110t-36 -185q-3 -105 30 -178q31 -71 91 -89q73 -21 124 43q55 70 66 190q7 77 -8 145t-52.5 117.5t-89.5 64.5h-3zM162.5 452q-1.5 -5 0.5 -8q2 -4 11 -11
q2 -47 -1 -105q0 -13 -2.5 -58.5t-3.5 -68.5q0 -5 3.5 -9t8 -4t8.5 3.5t4 7.5q0 16 8 151q79 -123 131 -177q3 -3 8 -3t8.5 3t3.5 8.5t-4 8.5q-52 55 -120 163q60 18 81.5 43t14.5 53q-3 15 -17 26t-34 13q-43 5 -102 -28q-5 -3 -6.5 -8zM260 718q7 2 17 1q69 -13 120 -57
t77.5 -105t36.5 -127q10 -64 4 -133q-12 -147 -84 -234q-40 -51 -94.5 -71.5t-119.5 -0.5q-51 15 -88 51.5t-57 85.5t-29 102q-9 52 -7 110q4 116 44 218q43 105 117 148q28 16 63 12zM198 448q45 19 71 16q27 -2 30 -21q2 -8 -3.5 -21t-26.5 -26.5t-70 -20.5q0 41 -1 73z
M285 661q66 -19 108.5 -75.5t58.5 -129.5t9 -154q-11 -130 -72 -206q-65 -80 -156 -53q-74 22 -111 105q-35 79 -32 190q2 108 38 197q38 91 98 126q4 1 7.5 2.5t10.5 1.5t10.5 -0.5t12 -1.5t13.5 -2h5zM154 486q68 37 121 32q28 -4 49 -20t28 -43q9 -42 -19.5 -76
t-60.5 -44q46 -72 96 -123q12 -13 12 -30.5t-12.5 -29.5t-30.5 -12t-29 13q-54 56 -85 103q-2 -41 -2 -57q0 -18 -13 -29.5t-30.5 -11.5t-29 13t-11.5 30q1 25 3.5 69.5t2.5 57.5q3 58 1 91q-1 1 -7 9q-8 17 -3.5 33t20.5 25z" />
    <glyph glyph-name="macron" unicode="&#xaf;" horiz-adv-x="370" 
d="M53.5 681.5q-3.5 -3.5 -4 -8.5t2.5 -9t9 -4q35 -3 78 -3.5t71.5 0t81.5 2.5l73 4q5 0 8 4t3 8.5t-3.5 8t-8.5 3.5l-74 -4q-52 -2 -79.5 -2.5t-70 0t-78.5 3.5q-5 1 -8.5 -2.5zM65 714q34 -3 75.5 -3.5t69 0t79.5 2.5l74 4q17 0 30 -11.5t13 -29t-11.5 -30.5t-28.5 -13
l-73 -4q-53 -2 -81.5 -2.5t-72.5 0t-81 3.5q-18 2 -29 15t-9.5 31t15 28.5t30.5 9.5z" />
    <glyph glyph-name="degree" unicode="&#xb0;" horiz-adv-x="297" 
d="M187 632q6 2 4 0q-19 -13 -40.5 -48t-31.5 -72q-9 -35 -1 -56q5 -15 25 -19q26 -5 51.5 15t37.5 58q14 35 1.5 70t-45.5 52h-1zM241 672q0 5 -3 9.5t-7 4.5q-2 0 -11 1l-13 2h-10t-13 -1t-12 -4t-14 -8q-27 -19 -53 -62.5t-38 -88.5q-13 -51 0 -87q15 -44 66 -53
q51 -11 92.5 22.5t57.5 86.5q16 39 6.5 86t-48.5 82v10zM195 662q51 -25 67 -71t-1 -91q-16 -46 -50 -73t-74 -20q-37 8 -47 39q-11 29 0 74q11 41 35 80t48 56q6 4 17 8q4 -2 5 -2zM271 676q36 -33 47.5 -89t-6.5 -103q-19 -61 -69.5 -101.5t-115.5 -27.5q-68 13 -89 73
q-15 44 0 105q13 49 41.5 96.5t61.5 70.5q9 7 19 11t18 6t17.5 2h14.5l14 -2q7 -1 8 -1q18 -2 29 -15.5t10 -30.5v6z" />
    <glyph glyph-name="plusminus" unicode="&#xb1;" horiz-adv-x="400" 
d="M200 233q-77 -23 -137 -54q-4 -3 -6 -8t0.5 -9t7.5 -5.5t8 0.5q124 65 313 82q5 0 8.5 4t3 9t-4.5 8t-9 3q-83 -7 -160 -24q-7 67 -18 139q69 17 95 21q4 1 7 5t2.5 9t-5 8t-9.5 2q-30 -6 -93 -20l-21 120q0 5 -4.5 8t-9.5 2t-8 -5t-2 -9q12 -61 21 -122
q-68 -15 -110 -17q-5 0 -8 -3.5t-2.5 -9t4 -8.5t8.5 -3q41 2 112 17q11 -75 17 -140zM158 337q-42 -9 -85 -11q-18 -2 -30.5 10t-14 29.5t10 30t28.5 14.5q40 2 78 11q-5 31 -17 92q-3 17 7 32t27.5 18t32 -7t17.5 -27l15 -90q33 8 63 14q18 3 32.5 -7t17.5 -27t-7 -32
t-27 -18q-25 -4 -66 -13q7 -46 10 -81q46 11 132 18q17 2 30.5 -10t15 -29t-10.5 -30t-28 -15q-183 -17 -302 -78q-14 -8 -31 -2.5t-25 20.5t-2.5 32t20.5 24q63 33 119 50q-4 39 -10 82z" />
    <glyph glyph-name="uni00B2" unicode="&#xb2;" horiz-adv-x="331" 
d="M96 616q0 -5 3.5 -8.5t8.5 -3.5t8 4q33 33 74.5 51.5t69.5 15.5q25 -3 31 -26q6 -32 -25 -94q-11 -23 -25.5 -44t-37.5 -45l-34 -37l-43 -40l-38 -38q-3 -2 -5.5 -3.5t-6.5 -4.5l-9 -5q-18 -12 -18 -28q0 -12 10 -17q6 -2 16 -2q3 0 12 1q6 1 8 1q101 -2 221 25
q5 1 7.5 5t1.5 9t-5 7.5t-9 0.5q-101 -22 -234 -24q40 31 67 55l33 34l30 29q23 24 33 37l24 35q14 20 24 39q33 68 26 108q-4 21 -17.5 32.5t-33.5 13.5q-36 5 -81.5 -16.5t-81.5 -58.5q-4 -3 -4 -8zM78 646q40 39 92.5 63.5t96.5 19.5q28 -4 49.5 -21.5t27.5 -48.5
q9 -50 -30 -128q-10 -21 -26 -43l-24 -35q-12 -15 -35 -39l-30 -31l-35 -34q-27 -26 5 -1q37 0 134 22q17 4 32 -5.5t19 -26.5t-5.5 -32t-26.5 -18q-124 -27 -227 -25l-4 -1q-11 -1 -16 -1q-14 0 -26 4q-30 13 -30 45t32 54l9 5q4 3 5.5 3.5t0.5 0.5l40 38l41 40l34 35
q21 22 34.5 42t24.5 41q25 52 21 74q0 1 -5 2q-20 3 -54.5 -13.5t-63.5 -45.5q-13 -12 -30 -12t-29.5 12.5t-12.5 29.5t12 30z" />
    <glyph glyph-name="uni00B3" unicode="&#xb3;" horiz-adv-x="300" 
d="M79.5 630q-0.5 -5 2.5 -9t8 -4.5t9 2.5q39 33 84 49q56 20 69 -11q8 -15 -7 -35q-12 -18 -39 -37q-20 -14 -48 -27l-16 -8l-5 -3l-1 -1t-3 -2l-1 -2q-3 -4 -3 -9q2 -10 9 -14q6 -4 13 -3q3 1 8.5 2t11.5 2.5t8 1.5q34 8 65 -13q10 -8 17.5 -25.5t5.5 -29.5
q-5 -55 -74 -77q-43 -14 -127 -18q-5 0 -8 -4t-3 -8.5t3.5 -8t8.5 -3.5q88 4 133 18q84 28 91 97q2 20 -8 43q-10 25 -26 36q-14 9 -56 23q51 36 64 56q21 30 10 58q-8 15 -19 23.5t-25.5 9.5t-28 -1.5t-27.5 -6.5q-50 -18 -91 -53q-4 -3 -4.5 -8zM65 662q45 37 100 57
q17 6 33 8.5t37 1.5t38.5 -14.5t28.5 -36.5q18 -44 -12 -86q-16 -24 -23 -30q-10 4 7 -9q23 -15 37 -48q13 -31 10 -57q-9 -89 -112 -123q-49 -16 -141 -20q-18 0 -30 11.5t-13 29t10.5 29.5t28.5 14q81 4 120 16q50 16 53 51q1 6 -3.5 16.5t-7.5 12.5q-19 13 -44 7
q-1 0 -5.5 -1.5t-10 -2.5t-9.5 -2q-20 -1 -35 7q-18 12 -23 36q-1 19 10 33l6 6q2 1 3 2t5 3l5 3l17 8q26 13 44 25q22 17 32 31q3 4 4 3q-3 7 -32 -3q-40 -14 -75 -43q-13 -11 -30.5 -9.5t-28.5 14.5t-9.5 31t15.5 29z" />
    <glyph glyph-name="acute" unicode="&#xb4;" horiz-adv-x="191" 
d="M179 683.5q0 4.5 -3.5 8t-8.5 3.5t-9 -4q-42 -45 -91 -127q-3 -4 -1.5 -8.5t6 -7.5t9 -1.5t7.5 5.5q47 79 88 123q3 4 3 8.5zM198 655q-39 -42 -85 -119q-9 -14 -25.5 -18.5t-31.5 4.5t-19.5 25.5t4.5 32.5q51 84 95 131q12 14 29.5 14t30.5 -11.5t13 -29t-11 -29.5z" />
    <glyph glyph-name="uni00B5" unicode="&#xb5;" horiz-adv-x="358" 
d="M115.5 491.5q-3.5 3.5 -8.5 3.5t-8.5 -3t-4.5 -8q-3 -45 -2 -135q0 -86 -3 -132q-6 -98 -36 -252q-1 -5 1.5 -9t7.5 -5t9 2t5 8q12 57 24 124l22 -22q30 -40 71 -45q46 -6 92 57q24 -31 57 -64q4 -4 8.5 -4t8 3.5t3.5 8.5t-3 8t-8 8.5t-6 6.5t-6 5.5t-6.5 6l-7.5 7.5
l-4 7l-5 6l-4 6q-3 3 -6 9l-7 14q20 48 33 110q25 127 25 267q0 5 -3.5 8.5t-8 3.5t-8.5 -3.5t-4 -8.5q0 -137 -25 -263q-17 -86 -45 -131q-29 -49 -68 -44q-31 4 -54 34q-11 15 -35 62q5 40 7 77q3 48 3 135q-1 88 2 132q1 6 -2.5 9.5zM148 480q-3 -42 -2 -130
q0 -87 -3 -137q-2 -37 -6 -69q18 -37 28 -50q15 -20 34 -22q19 -3 38 30q25 41 42 121q24 122 24 257q0 17 12.5 29.5t30 12.5t29.5 -12.5t12 -29.5q0 -144 -26 -273q-13 -64 -29 -102l1 -2q1 -2 2 -3l5 -8l6 -6l3 -7q3 -2 4.5 -3.5t6.5 -6t6.5 -6.5t6.5 -7.5t7 -6.5
q12 -13 12 -30t-12 -29.5t-29.5 -12.5t-29.5 12l-36 36q-33 -45 -96 -37q-54 7 -90 55l20 -20q-2 -11 -14 -68q-3 -17 -17 -27t-31 -6t-27.5 18t-5.5 31q29 152 35 248q3 44 3 130q-1 90 2 137q2 17 14.5 29t30 10t29.5 -14.5t10 -30.5z" />
    <glyph glyph-name="paragraph" unicode="&#xb6;" horiz-adv-x="431" 
d="M268 659q-48 16 -99 -4q-63 -24 -50 -101q12 -68 107 -133q30 -20 45 -27v263q0 9 -3 2zM348 358v257q-6 7 7 -3v-256q2 -1 -7 2zM379 1q0 -5 3.5 -8.5t8 -3.5t8.5 3.5t4 8.5v287q0 8 2 11q1 1 -2 8q-1 178 -1 278q15 2 18 4q5 3 6 7.5t-2 8.5q-42 60 -83 83
q-44 24 -95.5 29t-95.5 -11q-47 -18 -71 -59.5t-14 -102.5q16 -90 130 -167q44 -29 107 -57v-318q0 -5 3.5 -8.5t8 -3.5t8.5 3.5t4 8.5v307l53 -18v-290zM301 657v-311q-60 29 -92 51q-105 71 -119 151q-18 103 68 135q61 24 149 -6q-6 -17 -6 -20zM325 336v336
q37 -28 53 -45v-311q-32 11 -53 20zM349 269l7 -2v-265q0 -17 -12.5 -29.5t-30 -12.5t-29.5 12.5t-12 29.5v298q-48 22 -94 51q-124 85 -142 187q-12 73 17 123.5t86 72.5q51 18 109 13t108 -33q47 -27 92 -91q11 -14 7.5 -31.5t-18.5 -26.5q-7 -6 -5 -6q0 -74 1 -246
q5 -11 -1 -30q1 1 1 5v-287q0 -17 -12.5 -29.5t-30 -12.5t-29.5 12.5t-12 29.5v268z" />
    <glyph glyph-name="periodcentered" unicode="&#xb7;" horiz-adv-x="100" 
d="M74 405q-5 0 -8.5 -3.5t-3.5 -8.5t3.5 -8.5t8.5 -3.5t8.5 3.5t3.5 8.5t-3.5 8.5t-8.5 3.5zM116 393q0 -17 -12.5 -29.5t-29.5 -12.5t-29.5 12.5t-12.5 29.5t12.5 29.5t29.5 12.5t29.5 -12.5t12.5 -29.5z" />
    <glyph glyph-name="cedilla" unicode="&#xb8;" horiz-adv-x="100" 
d="M76 32q-4 3 -8.5 2t-7 -5.5t-1.5 -7.5q6 -33 -7 -54q-9 -17 -40 -38q-5 -3 -6 -8t2 -9t8 -5t8 2q36 24 49 47q17 29 8 68q-1 5 -5 8zM111 30q11 -51 -12 -90q-17 -29 -57 -55q-14 -11 -31.5 -7t-27.5 18t-6 31t18 26q25 17 31 30q7 11 4 30q-5 17 5 31.5t26.5 18.5
t31.5 -6t18 -27z" />
    <glyph glyph-name="uni00B9" unicode="&#xb9;" horiz-adv-x="260" 
d="M160 691v4q2 7 -1 11t-7.5 5t-9 -1.5t-4.5 -7.5q-7 -30 -24.5 -53.5t-49.5 -53.5q-3 -3 -3 -8.5t3 -9t8.5 -3.5t9.5 3l52 54q-4 -172 10 -272q-41 -5 -74 -10q-4 -1 -7 -5t-2.5 -9t5 -8t9.5 -2q79 14 141 14q5 0 8.5 3.5t3.5 8.5t-3.5 8.5t-8.5 3.5q-18 0 -48 -2
q-12 81 -12 170t4 158v2zM190 689q-4 -69 -4 -157t8 -139h22q17 0 29.5 -12.5t12.5 -29.5t-12.5 -29.5t-29.5 -12.5q-60 0 -135 -14q-18 -3 -32.5 7t-17.5 27t7 32t27 18q34 5 45 6q-10 72 -8 170v0q-13 -11 -30.5 -11t-29 12.5t-11.5 30t12 30.5q31 28 45.5 47.5t19.5 43.5
q3 17 18 26.5t32 5.5t26.5 -19t5.5 -30v0v-2z" />
    <glyph glyph-name="ordmasculine" unicode="&#xba;" horiz-adv-x="263" 
d="M157 640q-21 -21 -33.5 -69t-6.5 -96q5 -44 22 -59q10 -9 33 4q20 11 32 56q13 49 4 99q-8 46 -28 61q-10 8 -23 4zM129 688q-14 -6 -27 -14q-4 -2 -5.5 -6t3.5 -14q-25 -44 -33.5 -92.5t-2.5 -92.5q7 -65 39 -93q39 -35 95 -4q40 23 58 90q16 60 5 122q-11 68 -49 96
q-32 23 -75 10q-5 0 -8 -2zM198 660q30 -21 40 -79q9 -58 -5 -113q-15 -57 -47 -74q-41 -23 -67 0q-25 23 -32 77q-6 54 8 109t46 86q35 11 57 -6zM130 720q56 17 100 -16q48 -36 61 -116q12 -68 -6 -134q-21 -79 -73 -108q-74 -41 -129 8q-40 36 -49 111q-6 48 3 101.5
t29 89.5q-3 8 2.5 22t17.5 22q15 8 29 14q7 4 15 6z" />
    <glyph glyph-name="guillemotright" unicode="&#xbb;" horiz-adv-x="428" 
d="M239 60q1 -5 5.5 -7.5t9.5 -1t8 6.5q4 7 15.5 22.5t33.5 42.5l35 44q31 42 47 66l15 27q6 14 3 24q-2 7 -11 19q-6 9 -17 22l-53 52l-95 86q-4 2 -8.5 2t-8 -4t-3 -9t4.5 -9q47 -39 94 -84q31 -29 51 -51l17 -20l5 -8v-9q-6 -11 -15 -25q-14 -24 -46 -64l-33 -41l-36 -47
q-12 -16 -17 -25q-2 -4 -1 -9zM80 75q1 -5 5.5 -7.5t9.5 -1t8 6.5q4 7 15.5 22.5l33.5 43.5l35 43q31 42 47 66l15 27q6 14 3 24q-2 7 -11 19q-6 9 -17 22l-53 52l-95 86q-4 2 -8.5 2t-8 -4t-3 -9t4.5 -9q47 -39 94 -84q31 -29 51 -51l17 -20l5 -8v-9q-6 -11 -15 -25
q-14 -24 -46 -64l-33 -42l-36 -46q-12 -16 -17 -25q-2 -4 -1 -9zM213 83q7 11 21 29l36 47l33 41q30 40 44 62l10 17v-7v0l-15 16q-18 20 -49 49q-47 45 -92 84q-14 12 -15.5 29t10 30t29 15t29.5 -10l97 -86l54 -54q12 -15 20 -24q11 -16 15 -29q5 -20 -5 -44
q-6 -13 -17 -31q-16 -26 -49 -68l-35 -44q-22 -27 -32.5 -41.5t-14.5 -21.5q-9 -15 -25 -19.5t-31.5 4t-20.5 24.5t3 32zM54 98q7 11 21 29l36 46l33 42q30 40 44 62l10 17v-7v0l-15 16q-18 20 -49 49q-47 45 -92 84q-14 12 -15.5 29t10 30t29 15t29.5 -10l97 -86l54 -54
q12 -15 20 -24q11 -16 15 -29q5 -20 -5 -44q-6 -13 -17 -31q-16 -26 -49 -68l-35 -43q-22 -28 -32.5 -42.5t-14.5 -21.5q-9 -15 -25 -19.5t-31.5 4t-20.5 24.5t3 32z" />
    <glyph glyph-name="onequarter" unicode="&#xbc;" horiz-adv-x="800" 
d="M616 171q-7 69 -7 75l-26 -38q-33 -45 -31 -42h-27q29 0 79 4q13 1 12 1zM174.5 666.5q-2.5 3.5 -9.5 5.5q-6 2 -10 0.5t-7 -5.5q-34 -56 -65 -89q-4 -4 -4 -9.5t3.5 -8.5t9 -3t9.5 3l53 64q-7 -199 0 -276q-58 -8 -72 -9q-5 0 -8 -4.5t-2.5 -9t4.5 -8t9 -2.5l42 6
q27 3 32 4q45 6 75 7q5 0 8 4t3 8.5t-3.5 8t-8.5 3.5q-18 -1 -57 -4q-4 78 -3.5 111.5t2.5 96.5t2 99q0 4 -2.5 7.5zM131 -31q1 -5 5.5 -7.5t9 -1t6.5 4.5l86 141t102 151l90 128l108 148l97 132q3 4 2 9t-4.5 7.5t-8.5 2t-9 -4.5l-96 -132l-108 -148l-91 -129
q-58 -81 -102.5 -151t-85.5 -141q-2 -4 -1 -9zM663 374q-1 7 -6 11q-4 3 -8.5 2t-7.5 -5l-102 -143l-48 -68q-10 -15 -14 -23l-4 -8l-2 -6q0 -4 2 -8q3 -5 11 -8q4 -2 11 -3q11 -2 30 -3q32 0 84 5l42 3q5 -67 7 -101q1 -5 4.5 -8.5t8.5 -3.5t8.5 4t3.5 8q-2 38 -9 104
q61 8 79 11q5 1 8 5t2 9t-5 8t-8 2q-18 -4 -78 -11q-14 147 -9 221v6zM607 140q-52 -4 -82 -4h-28l61 90l80 110q1 -94 11 -191q-29 -4 -42 -5zM207 659q0 -36 -2 -99t-2.5 -96.5t2.5 -79.5q7 1 27 2q17 0 30 -11.5t13 -29t-11.5 -30.5t-28.5 -13q-28 -1 -71 -7
q-5 -1 -34 -4l-42 -6q-17 -1 -31 9.5t-15.5 28t9.5 31t28 15.5q14 1 42 5q-4 51 0 162q15 18 1 4q-12 -13 -29.5 -13t-30.5 12t-13 29.5t11 29.5q30 31 62 85q8 14 23.5 18.5t28.5 -1.5q13 -2 23 -13.5t10 -27.5zM107 -6q41 71 85.5 141t102.5 153l91 129l108 148l98 132
q10 14 27 16.5t31 -8t16.5 -27.5t-6.5 -31l-97 -132l-108 -148l-90 -128q-58 -80 -102 -149t-84 -139q-8 -15 -25.5 -19.5t-32 4t-19.5 25.5t5 33zM693 366q-4 -72 6 -185q28 3 44 7q18 3 32 -7t18 -27t-6 -31t-27 -19q-20 -3 -53 -7q3 -38 5 -76q2 -18 -10.5 -30t-29.5 -14
t-29.5 10.5t-13.5 29.5q-2 34 -5 71l-12 -1q-54 -5 -88 -5q-21 1 -34 3q-11 1 -19 5q-16 7 -25 22q-6 12 -4 28l2 10l6 12q6 10 16 25l48 70l102 141q9 16 26.5 19t31.5 -8q17 -10 18 -31q1 -4 1 -12z" />
    <glyph glyph-name="onehalf" unicode="&#xbd;" horiz-adv-x="750" 
d="M174.5 666.5q-2.5 3.5 -9.5 5.5q-6 2 -10 0.5t-7 -5.5q-34 -56 -65 -89q-4 -4 -4 -9.5t3.5 -8.5t9 -3t9.5 3l53 64q-7 -199 0 -276q-58 -8 -72 -9q-5 0 -8 -4.5t-2.5 -9t4.5 -8t9 -2.5l42 6q27 3 32 4q45 6 75 7q5 0 8 4t3 8.5t-3.5 8t-8.5 3.5q-18 -1 -57 -4
q-4 78 -3.5 111.5t2.5 96.5t2 99q0 4 -2.5 7.5zM131 -31q1 -5 5.5 -7.5t9 -1t6.5 4.5l86 141t102 151l90 128l108 148l97 132q3 4 2 9t-4.5 7.5t-8.5 2t-9 -4.5l-96 -132l-108 -148l-91 -129q-58 -81 -102.5 -151t-85.5 -141q-2 -4 -1 -9zM549.5 281.5q0.5 -4.5 4.5 -8t9 -3
t8 4.5q19 24 44 34.5t44 6.5t26 -21q9 -21 -1 -56q-6 -21 -19.5 -44.5t-25.5 -39.5l-33 -42l-32 -40l-26 -34l-8 -11q-2 -5 -4 -7q0 1 0 -1q-2 -10 5 -14q5 -3 15 -4q8 -1 20 -1q20 -1 53 1q48 2 89 5q5 0 8.5 4t3 9t-4.5 8t-8 3q-42 -3 -89 -5q-17 -1 -61 -1l27 34
q6 9 29 36.5t35.5 45t27.5 44t21 48.5q13 43 0.5 71t-43.5 35q-27 6 -58 -7t-54 -41q-3 -5 -2.5 -9.5zM207 659q0 -36 -2 -99t-2.5 -96.5t2.5 -79.5q7 1 27 2q17 0 30 -11.5t13 -29t-11.5 -30.5t-28.5 -13q-28 -1 -71 -7q-5 -1 -34 -4l-42 -6q-17 -1 -31 9.5t-15.5 28
t9.5 31t28 15.5q14 1 42 5q-4 51 0 162q15 18 1 4q-12 -13 -29.5 -13t-30.5 12t-13 29.5t11 29.5q30 31 62 85q8 14 23.5 18.5t28.5 -1.5q13 -2 23 -13.5t10 -27.5zM107 -6q41 71 85.5 141t102.5 153l91 129l108 148l98 132q10 14 27 16.5t31 -8t16.5 -27.5t-6.5 -31
l-97 -132l-108 -148l-90 -128q-58 -80 -102 -149t-84 -139q-8 -15 -25.5 -19.5t-32 4t-19.5 25.5t5 33zM529 309q27 34 66 51t76 9q45 -11 62.5 -51t2.5 -93q-8 -26 -24 -54.5t-29.5 -47t-35.5 -46t-28 -36.5l11 14q-20 0 -3 1q47 2 87 5q18 2 31 -10t14.5 -29t-10 -30
t-28.5 -15q-43 -3 -91 -5q-33 -2 -55 -1q-12 0 -22 1q-16 1 -27 8q-27 16 -20 44q0 6 5 15q2 2 4 5l10 13l26 34l32 40q21 26 32 41t23 36.5t17 38.5q8 25 3 36q-1 3 -4 3q-11 2 -28 -4.5t-32 -24.5q-11 -14 -28 -15.5t-31 9t-15.5 28t9.5 30.5z" />
    <glyph glyph-name="threequarters" unicode="&#xbe;" horiz-adv-x="759" 
d="M618 171q-7 69 -7 75l-27 -38q-33 -45 -30 -42h-27q28 0 79 4zM132.5 -31q1.5 -5 5.5 -7.5t9 -1t7 4.5q41 72 85.5 141t102.5 151l90 128l108 148l97 132q2 4 1.5 9t-4.5 7.5t-9 2t-8 -4.5l-97 -132l-108 -148l-91 -129q-58 -81 -102 -151l-85 -141q-3 -4 -1.5 -9z
M664 374q0 7 -6 11q-4 3 -8.5 2t-6.5 -5l-103 -143l-48 -68l-14 -23l-4 -8l-1 -6q-1 -4 1 -8q3 -5 11 -8q4 -2 11 -3q12 -2 30 -3q32 0 85 5l42 3q5 -67 7 -101q0 -5 4 -8.5t8.5 -3.5t8 4t3.5 8q-2 38 -8 104q61 8 79 11q5 1 8 5t2 9t-5.5 8t-8.5 2q-17 -4 -78 -11
q-13 147 -8 221q0 2 -1 6zM85 623q0 -5 4 -8.5t9 -3t8 4.5q25 31 73 44q50 15 72 -14q20 -26 -6 -62q-23 -32 -64 -53h-5q3 0 2.5 0t-4.5 -1t-9 -2q-7 -2 -12 -5q-10 -7 -8 -17t12 -11q1 -1 3 0q4 0 11 1q14 2 24 3q39 1 60 -19q8 -8 12 -26.5t2 -32.5q-11 -51 -72 -64
q-48 -9 -113 4q-5 2 -9 -0.5t-5 -7.5t1.5 -9t7.5 -5q69 -16 123 -4q76 15 89 82q5 19 -0.5 42.5t-18.5 36.5t-53 29q34 30 45 45q37 51 5 92t-98 22q-53 -16 -84 -53q-2 -3 -2 -8zM608 140q-51 -4 -81 -4h-29l62 90l79 110q2 -94 11 -191q-28 -4 -42 -5zM108 -6
q41 71 86 141l103 153l91 129l108 148l97 132q11 14 28 16.5t31 -8t16.5 -27.5t-7.5 -31l-97 -132l-108 -148l-90 -128q-58 -80 -101.5 -149l-84.5 -139q-8 -15 -25 -19.5t-32 4t-19.5 25.5t4.5 33zM695 366q-5 -72 6 -185q27 3 44 7q18 3 31.5 -7t17.5 -27t-6 -31t-27 -19
q-20 -3 -53 -7q4 -38 6 -76q2 -18 -10.5 -30t-30 -14t-29.5 10.5t-14 29.5q-2 34 -5 71l-12 -1q-53 -5 -87 -5q-22 1 -34 3q-11 1 -19 5q-16 7 -25 22q-6 12 -5 28l3 10l6 12q5 10 16 25l48 70l101 141q10 16 27.5 19t31.5 -8q16 -10 18 -31q1 -4 1 -12zM65 651q35 43 98 61
q86 25 131 -33t-6 -127l-13 -17l17 -17q21 -19 27.5 -50.5t1.5 -56.5q-17 -87 -113 -106q-60 -12 -135 4q-17 3 -26.5 18t-5.5 32t19 26.5t32 5.5q57 -13 99 -4q41 9 48 40q2 8 -1 18.5t-5 12.5q-11 12 -36 11q-8 -1 -22 -3q-9 -1 -11 -1q-6 -1 -13 0q-30 5 -36 35
q-4 30 20 47q9 7 24 11q5 1 7 1t3.5 1t6.5 1h-3q29 15 48 41q12 18 6 26q-10 13 -40 4q-38 -11 -57 -34q-11 -14 -29 -15.5t-31 9t-14.5 28.5t9.5 31z" />
    <glyph glyph-name="questiondown" unicode="&#xbf;" horiz-adv-x="428" 
d="M388 609q2 -4 7 -4.5t9 2t5 7.5t-3.5 12t-23.5 34q-8 11 -9 15q-5 5 -11 7q-15 7 -29 -11q-6 -9 -24 -42q-2 -4 -1 -8.5t5 -7t9 -1t7 5.5l25 41zM404.5 133.5q-0.5 4.5 -5 7.5t-9 2t-7.5 -5q-42 -60 -92.5 -89.5t-111.5 -10t-80 74.5q-21 61 32 108q44 39 118 59
q2 0 45 7q36 4 51 17q14 11 20 43q2 23 0 60q0 16 -4 60q-3 33 -3 43q0 5 -3.5 8.5t-8 3.5t-8.5 -3.5t-4 -11t3 -43.5q4 -39 5 -59q1 -34 -2 -54q-1 -8 -3 -15.5t-2 -6.5v-3q-16 -11 -44 -16q-47 -7 -50 -8q-78 -21 -126 -62q-65 -59 -39 -135q11 -33 37.5 -57t59 -33.5
t68.5 -5.5q35 3 64 20q52 31 97 96q3 4 2.5 8.5zM355 603l1 1q-8 -16 -25.5 -20.5t-32 4t-19.5 26t5 31.5q18 33 25 44q29 36 65 21q12 -6 24 -19q2 -4 9 -13l26.5 -40t5 -28t-16.5 -27.5t-31 -8t-28 16.5zM426 107q-48 -69 -106 -104q-35 -21 -76 -24q-42 -4 -80.5 7.5
t-70 39.5t-46.5 69q-32 96 48 167q53 47 139 70q4 1 52 8q22 3 19 2v-1q3 3 4 5.5t2 8.5q2 18 1 48q-1 20 -5 59q-3 36 -3 50.5t12.5 27t30 12.5t29.5 -12.5t12 -29.5q0 -8 3 -41q4 -44 4 -62q2 -39 -1 -64q-7 -44 -30 -63q-21 -17 -66 -23q-44 -7 -45 -7q-63 -18 -102 -51
q-38 -34 -23 -76q13 -41 61 -56.5t89.5 9t79.5 78.5q9 16 26.5 19t32 -7t17.5 -27.5t-8 -31.5z" />
    <glyph glyph-name="Agrave" unicode="&#xc0;" horiz-adv-x="600" 
d="M210 260q96 30 189 49q-19 69 -47 185q-2 9 -20 99l9 -37q-37 -76 -67 -145zM187 196q131 42 257 66q43 -144 89 -254q2 -4 6.5 -6t9.5 0t6.5 6.5t-0.5 8.5q-45 107 -88 249q50 9 82 12q4 0 7.5 4.5t3 9t-4.5 8t-9 2.5q-35 -4 -86 -12q-26 94 -56 215q-2 9 -20 98l-10 60
l-4 20l-2 7v-3l-1 1v7v1q0 -5 2 -7l-4 7q-5 6 -13 3q-3 -1 -5 -3q-1 -2 -2 -3.5t-2.5 -5t-7.5 -15.5l-23 -52l-88 -187q-50 -114 -96 -231q-33 -11 -54 -16q-5 -1 -8 -4.5t-1.5 -8.5t5 -8t9.5 -1q4 0 38 13l-65 -175q-2 -5 0 -9.5t7 -6t9.5 0.5t5.5 7q33 92 72 189
q31 10 41 13zM284.5 825.5q-4.5 -1.5 -7 -6t-0.5 -9t6 -7.5l141 -74q5 -2 9.5 -0.5t7 6t1 9t-5.5 7.5l-143 74q-4 2 -8.5 0.5zM246 423l104 221l11 -45q18 -90 20 -99q28 -114 56 -215q-124 -25 -280 -73zM169 159q-34 -83 -66 -175q-5 -17 -21.5 -24t-33 -1.5t-23.5 22
t-1 31.5l42 113q23 9 17 9q-16 -4 -30 6t-18 27t6.5 31.5t26.5 17.5q19 3 37 10q41 105 92 219l88 187l23 52l7 16.5t5 9t5 6.5q7 8 17 11q27 11 48 -13l3 -7q4 -4 4 -11v-1v5l1 -1v-7l1 -3l4 -20l11 -60q17 -89 19 -96q30 -121 49 -189q25 4 61 8q17 1 31 -9.5t15.5 -28
t-9.5 -31t-28 -15.5q-31 -3 -47 -6q33 -108 78 -213q6 -16 0 -32.5t-22.5 -22.5t-33 0t-22.5 24q-46 110 -82 230q-98 -20 -227 -60q-10 -3 -27 -9zM307 851l144 -74q15 -9 19.5 -25.5t-4 -32t-24.5 -20t-32 3.5l-141 74q-15 7 -20.5 23.5t2.5 32t24 21t32 -2.5z" />
    <glyph glyph-name="Aacute" unicode="&#xc1;" horiz-adv-x="600" 
d="M213 260q96 30 189 49q-19 69 -47 185q-2 9 -20 99l9 -37q-37 -76 -67 -145zM190 196q131 42 257 66q43 -144 89 -254q2 -4 6.5 -6t9.5 0t6.5 6.5t-0.5 8.5q-45 107 -88 249q50 9 82 12q4 0 7.5 4.5t3 9t-4.5 8t-9 2.5q-35 -4 -86 -12q-26 94 -56 215q-2 9 -20 98l-10 60
l-4 20l-2 7v-3l-1 1v7v1q0 -5 2 -7l-4 7q-5 6 -13 3q-3 -1 -5 -3q-1 -2 -2 -3.5t-2.5 -5t-7.5 -15.5l-23 -52l-88 -187q-50 -114 -96 -231q-33 -11 -54 -16q-5 -1 -8 -4.5t-1.5 -8.5t5 -8t9.5 -1q4 0 38 13l-65 -175q-2 -5 0 -9.5t7 -6t9.5 0.5t5.5 7q33 92 72 189
q31 10 41 13zM228 726q-2 -5 0 -9t7 -6t9 0q22 10 46 25t40 27l42 33l37 29q4 3 5 8t-2 9t-8 4.5t-9 -1.5l-38 -31l-41 -32q-15 -11 -38 -25t-43 -24q-5 -2 -7 -7zM249 423l104 221l11 -45q18 -90 20 -99q28 -114 56 -215q-124 -25 -280 -73zM172 159q-34 -83 -66 -175
q-5 -17 -21.5 -24t-33 -1.5t-23.5 22t-1 31.5l42 113q23 9 17 9q-16 -4 -30 6t-18 27t6.5 31.5t26.5 17.5q19 3 37 10q41 105 92 219l88 187l23 52l7 16.5t5 9t5 6.5q7 8 17 11q27 11 48 -13l3 -7q4 -4 4 -11v-1v5l1 -1v-7l1 -3l4 -20l11 -60q17 -89 19 -96q30 -121 49 -189
q25 4 61 8q17 1 31 -9.5t15.5 -28t-9.5 -31t-28 -15.5q-31 -3 -47 -6q33 -108 78 -213q6 -16 0 -32.5t-22.5 -22.5t-33 0t-22.5 24q-46 110 -82 230q-98 -20 -227 -60q-10 -3 -27 -9zM222 761q19 8 40.5 21t35.5 24l40 32l39 31q15 10 32 7.5t27 -16.5t7.5 -31t-16.5 -28
l-36 -29l-43.5 -33t-41.5 -28t-50 -28q-16 -6 -32 0t-23 22t-1 32t22 24z" />
    <glyph glyph-name="Acircumflex" unicode="&#xc2;" horiz-adv-x="600" 
d="M210 260q96 30 189 49q-19 69 -47 185q-2 9 -20 99l9 -37q-37 -76 -67 -145zM187 196q131 42 257 66q43 -144 89 -254q2 -4 6.5 -6t9.5 0t6.5 6.5t-0.5 8.5q-45 107 -88 249q50 9 82 12q4 0 7.5 4.5t3 9t-4.5 8t-9 2.5q-35 -4 -86 -12q-26 94 -56 215q-2 9 -20 98l-10 60
l-4 20l-2 7v-3l-1 1v7v1q0 -5 2 -7l-4 7q-5 6 -13 3q-3 -1 -5 -3q-1 -2 -2 -3.5t-2.5 -5t-7.5 -15.5l-23 -52l-88 -187q-50 -114 -96 -231q-33 -11 -54 -16q-5 -1 -8 -4.5t-1.5 -8.5t5 -8t9.5 -1q4 0 38 13l-65 -175q-2 -5 0 -9.5t7 -6t9.5 0.5t5.5 7q33 92 72 189
q31 10 41 13zM243 724q0 -5 3.5 -8.5t8.5 -3.5t9 4q39 38 77 87l26 34l19 -22q62 -84 65 -87q3 -5 8 -5.5t9 3t4.5 8t-2.5 8.5q-2 2 -65 87q-11 16 -18 21q-12 10 -23 7q-10 -2 -20 -13q-6 -6 -21 -25q-41 -51 -76 -87q-4 -3 -4 -8zM246 423l104 221l11 -45q18 -90 20 -99
q28 -114 56 -215q-124 -25 -280 -73zM169 159q-34 -83 -66 -175q-5 -17 -21.5 -24t-33 -1.5t-23.5 22t-1 31.5l42 113q23 9 17 9q-16 -4 -30 6t-18 27t6.5 31.5t26.5 17.5q19 3 37 10q41 105 92 219l88 187l23 52l7 16.5t5 9t5 6.5q7 8 17 11q27 11 48 -13l3 -7q4 -4 4 -11
v-1v5l1 -1v-7l1 -3l4 -20l11 -60q17 -89 19 -96q30 -121 49 -189q25 4 61 8q17 1 31 -9.5t15.5 -28t-9.5 -31t-28 -15.5q-31 -3 -47 -6q33 -108 78 -213q6 -16 0 -32.5t-22.5 -22.5t-33 0t-22.5 24q-46 110 -82 230q-98 -20 -227 -60q-10 -3 -27 -9zM226 754q34 34 74 83
q16 21 22 27q16 17 35 23q26 5 49 -13q10 -9 23 -27q62 -83 64 -85q11 -14 9.5 -31.5t-15.5 -28t-31.5 -9t-27.5 14.5q-3 3 -66 89l7 -8q8 11 -4 -4q-40 -51 -80 -91q-13 -12 -30 -12t-29.5 12.5t-12.5 29.5t13 30z" />
    <glyph glyph-name="Atilde" unicode="&#xc3;" horiz-adv-x="600" 
d="M201 260q96 30 189 49q-19 69 -47 185q-2 9 -20 99l9 -37q-37 -76 -67 -145zM178 196q131 42 257 66q43 -144 89 -254q2 -4 6.5 -6t9.5 0t6.5 6.5t-0.5 8.5q-45 107 -88 249q50 9 82 12q4 0 7.5 4.5t3 9t-4.5 8t-9 2.5q-35 -4 -86 -12q-26 94 -56 215q-2 9 -20 98l-10 60
l-4 20l-2 7v-3l-1 1v7v1q0 -5 2 -7l-4 7q-5 6 -13 3q-3 -1 -5 -3q-1 -2 -2 -3.5t-2.5 -5t-7.5 -15.5l-23 -52l-88 -187q-50 -114 -96 -231q-33 -11 -54 -16q-5 -1 -8 -4.5t-1.5 -8.5t5 -8t9.5 -1q4 0 38 13l-65 -175q-2 -5 0 -9.5t7 -6t9.5 0.5t5.5 7q33 92 72 189
q31 10 41 13zM224 722.5q1 -4.5 5.5 -7.5t9 -2t7.5 5q36 54 64 59q15 3 40 -13q37 -23 57 -23q37 -1 79 48q4 4 3.5 9t-4.5 8t-8.5 3t-8.5 -4q-35 -40 -61 -40q-13 0 -44 19q-34 22 -58 16q-37 -7 -79 -69q-3 -4 -2 -8.5zM237 423l104 221l11 -45q18 -90 20 -99
q28 -114 56 -215q-124 -25 -280 -73zM160 159q-34 -83 -66 -175q-5 -17 -21.5 -24t-33 -1.5t-23.5 22t-1 31.5l42 113q23 9 17 9q-16 -4 -30 6t-18 27t6.5 31.5t26.5 17.5q19 3 37 10q41 105 92 219l88 187l23 52l7 16.5t5 9t5 6.5q7 8 17 11q27 11 48 -13l3 -7q4 -4 4 -11
v-1v5l1 -1v-7l1 -3l4 -20l11 -60q17 -89 19 -96q30 -121 49 -189q25 4 61 8q17 1 31 -9.5t15.5 -28t-9.5 -31t-28 -15.5q-31 -3 -47 -6q33 -108 78 -213q6 -16 0 -32.5t-22.5 -22.5t-33 0t-22.5 24q-46 110 -82 230q-98 -20 -227 -60q-10 -3 -27 -9zM202 749q48 70 96 81
q36 8 81 -20q24 -15 28 -15q12 0 39 30q11 12 28 14t30.5 -10t15 -29t-10.5 -31q-51 -59 -102 -58q-29 0 -73 27q-15 10 -18 9q-16 -3 -45 -45q-9 -16 -26.5 -19t-32 7t-18 27.5t7.5 31.5z" />
    <glyph glyph-name="Adieresis" unicode="&#xc4;" horiz-adv-x="600" 
d="M213 260q96 30 189 49q-19 69 -47 185q-2 9 -20 99l9 -37q-37 -76 -67 -145zM190 196q131 42 257 66q43 -144 89 -254q2 -4 6.5 -6t9.5 0t6.5 6.5t-0.5 8.5q-45 107 -88 249q50 9 82 12q4 0 7.5 4.5t3 9t-4.5 8t-9 2.5q-35 -4 -86 -12q-26 94 -56 215q-2 9 -20 98l-10 60
l-4 20l-2 7v-3l-1 1v7v1q0 -5 2 -7l-4 7q-5 6 -13 3q-3 -1 -5 -3q-1 -2 -2 -3.5t-2.5 -5t-7.5 -15.5l-23 -52l-88 -187q-50 -114 -96 -231q-33 -11 -54 -16q-5 -1 -8 -4.5t-1.5 -8.5t5 -8t9.5 -1q4 0 38 13l-65 -175q-2 -5 0 -9.5t7 -6t9.5 0.5t5.5 7q33 92 72 189
q31 10 41 13zM311 795q-5 0 -8.5 -3.5t-3.5 -8.5t3.5 -8.5t8.5 -3.5t8.5 3.5t3.5 8.5t-3.5 8.5t-8.5 3.5zM416 791q-5 0 -8.5 -3.5t-3.5 -8.5t3.5 -8.5t8.5 -3.5t8.5 3.5t3.5 8.5t-3.5 8.5t-8.5 3.5zM249 423l104 221l11 -45q18 -90 20 -99q28 -114 56 -215
q-124 -25 -280 -73zM172 159q-34 -83 -66 -175q-5 -17 -21.5 -24t-33 -1.5t-23.5 22t-1 31.5l42 113q23 9 17 9q-16 -4 -30 6t-18 27t6.5 31.5t26.5 17.5q19 3 37 10q41 105 92 219l88 187l23 52l7 16.5t5 9t5 6.5q7 8 17 11q27 11 48 -13l3 -7q4 -4 4 -11v-1v5l1 -1v-7
l1 -3l4 -20l11 -60q17 -89 19 -96q30 -121 49 -189q25 4 61 8q17 1 31 -9.5t15.5 -28t-9.5 -31t-28 -15.5q-31 -3 -47 -6q33 -108 78 -213q6 -16 0 -32.5t-22.5 -22.5t-33 0t-22.5 24q-46 110 -82 230q-98 -20 -227 -60q-10 -3 -27 -9zM353 783q0 -17 -12.5 -29.5
t-29.5 -12.5t-29.5 12.5t-12.5 29.5t12.5 29.5t29.5 12.5t29.5 -12.5t12.5 -29.5zM458 779q0 -17 -12.5 -29.5t-29.5 -12.5t-29.5 12.5t-12.5 29.5t12.5 29.5t29.5 12.5t29.5 -12.5t12.5 -29.5z" />
    <glyph glyph-name="Aring" unicode="&#xc5;" horiz-adv-x="600" 
d="M208 260q96 30 189 49q-19 69 -47 185q-2 9 -20 99l9 -37q-37 -76 -67 -145zM302 768q-5 1 21 15q12 6 23 5q10 5 19.5 14.5t11 13.5t1.5 5q1 -5 2 -5q-13 3 -42 -9q-16 -6 -26 -21t-10 -26v8zM332 724q15 -26 14 -28q-2 -2 -3 -3.5t-2.5 -5t-7.5 -15.5l-23 -52l-88 -187
q-50 -114 -96 -231q-33 -11 -54 -16q-5 -1 -8 -4.5t-1.5 -8.5t5 -8t9.5 -1q4 0 38 13l-65 -175q-2 -5 0 -9.5t7 -6t9.5 0.5t5.5 7q33 92 72 189q31 10 41 13q131 42 257 66q43 -144 89 -254q2 -4 6.5 -6t9.5 0t6.5 6.5t-0.5 8.5q-45 107 -88 249q50 9 82 12q4 0 7.5 4.5t3 9
t-4.5 8t-9 2.5q-35 -4 -86 -12q-26 94 -56 215q-2 9 -20 98l-10 60l-4 20l-2 7v-3l-1 1v7v1q0 -5 2 -7l-4 7q-4 5 10.5 27t38 49t20.5 54q-2 14 -11.5 25.5t-24.5 15.5q-32 9 -78 -10q-32 -13 -51.5 -41.5t-18.5 -56.5q0 -15 7 -26t21 -15q20 -5 50 6h6zM244 423l104 221
l11 -45q18 -90 20 -99q28 -114 56 -215q-124 -25 -280 -73zM272 760q-1 19 14.5 42t40.5 33q38 16 63 9q15 -6 18 -21q0 -9 -4 -19t-17 -22.5t-36 -23.5q-10 1 -14 -1q-36 -20 -65 -13v16zM331 694q-34 -13 -63 -4q-25 6 -37.5 26t-12.5 43q-1 36 23.5 72.5t64.5 53.5
q56 23 98 10q24 -6 39 -23.5t19 -41.5q4 -41 -26 -76t-47 -28t-1 -12l3 -7q4 -4 4 -11v-1v5l1 -1v-7l1 -3l4 -20l11 -60q17 -89 19 -96q30 -121 49 -189q25 4 61 8q17 1 31 -9.5t15.5 -28t-9.5 -31t-28 -15.5q-31 -3 -47 -6q33 -108 78 -213q6 -16 0 -32.5t-22.5 -22.5
t-33 0t-22.5 24q-46 110 -82 230q-98 -20 -227 -60q-10 -3 -27 -9q-34 -83 -66 -175q-5 -17 -21.5 -24t-33 -1.5t-23.5 22t-1 31.5l42 113q23 9 17 9q-16 -4 -30 6t-18 27t6.5 31.5t26.5 17.5q19 3 37 10q41 105 92 219l88 187l23 52l7 16.5t5 9t5 6.5q4 6 18 -20
q-7 -2 -10 -2z" />
    <glyph glyph-name="AE" unicode="&#xc6;" horiz-adv-x="900" 
d="M244 322q-14 -2 -3 0q88 14 157 21l-37 151q-2 9 -20 99l9 -37q-34 -70 -67 -145zM249 268q92 15 194 26q45 -156 95 -277v-7q0 -4 4 -7.5t9 -3.5q37 1 102.5 6t97 6.5t102.5 -2.5q5 -1 9 2.5t4.5 8.5t-2.5 9t-9 4q-28 4 -73 3t-70.5 -2.5t-69.5 -5t-81 -4.5
q-49 121 -93 273q156 15 283 18q5 0 8 3.5t3 9t-3.5 8.5t-9.5 3q-130 -3 -288 -19q-22 79 -48 186l-19 97l-15 75q21 0 118 12q83 10 132 11q5 0 8 3.5t3 9t-3.5 8.5t-9.5 3q-52 -1 -132 -11q-106 -13 -125 -14q-5 1 -9 -1q-3 -1 -5 -3q-1 -2 -2 -3.5t-2.5 -5t-7.5 -15.5
l-23 -52l-88 -187l-66 -156q-43 -6 -70 -8q-4 0 -7.5 -4t-3 -9t4 -8t8.5 -3q15 1 56 6q-54 -136 -94 -249q-2 -5 0 -9.5t7 -6t9.5 0.5t5.5 7q46 128 101 262q50 10 65 12zM256 423q33 75 103 221l11 -45q18 -90 20 -99l46 -183q-103 -11 -190 -25q-11 -2 -51 -8zM206 230
q-49 -118 -94 -246q-5 -17 -21.5 -24t-33 -1.5t-23.5 22t-1 31.5q40 113 76 203q8 1 -8 0q-17 -2 -30 10t-14.5 29t10 30t28.5 15q26 2 51 6l60 140l88 187l23 52l7 16.5t5 9t5 6.5q7 8 17 11q10 4 20 3q15 1 120 14q82 10 136 11q18 0 30.5 -12t12.5 -29.5t-11.5 -30
t-29.5 -12.5q-47 -1 -128 -11q-99 -12 -86 -12l8 -39l19 -97q26 -105 41 -160q134 14 266 17q18 0 30.5 -12t12.5 -29.5t-11.5 -30t-29.5 -12.5q-125 -3 -244 -14q33 -116 74 -217q15 1 59 4.5t70 5t72.5 2.5t75.5 -3q18 -2 29 -15t9.5 -31t-15 -28.5t-30.5 -9.5
q-69 4 -99.5 2.5t-96 -6.5t-104.5 -6q-16 0 -29.5 11.5t-13.5 29.5v1q-48 117 -87 251q-76 -9 -168 -24q-14 -2 -47 -8z" />
    <glyph glyph-name="Ccedilla" unicode="&#xc7;" horiz-adv-x="537" 
d="M368.5 569q4.5 -2 9.5 0t6.5 6.5t-0.5 8.5q-22 55 -54.5 83t-70.5 26q-37 -2 -70.5 -30.5t-57.5 -79.5q-46 -93 -62 -227t13 -236q30 -97 114 -127q-21 -63 -43 -104q-3 -4 -1.5 -9t6 -7.5t9 -1t7.5 5.5q24 46 47 114q52 2 95.5 25.5t79.5 63.5q7 7 13 14.5l13 16.5
l12 16q5 6 12 17.5t10.5 16.5t11.5 18.5t9.5 16.5t10.5 18.5t10 16.5q2 3 0.5 8t-5.5 7.5t-9 1t-6 -4.5q-2 -2 -10 -17l-10 -16l-8 -14q-8 -12 -10 -15.5l-8.5 -14.5t-10.5 -15.5t-10 -13.5t-10 -14l-10 -13q-7 -8 -13 -14q-34 -38 -75 -59.5t-79 -21.5q-85 1 -119 113
q-28 95 -12.5 225t59.5 220q23 46 51 70.5t57 25.5q27 1 54.5 -21.5t47.5 -72.5q2 -4 6.5 -6zM334 565q-17 42 -37 58.5t-36 15.5q-18 -1 -40 -19.5t-42 -60.5q-42 -84 -57 -209t12 -214q27 -90 90 -91q31 0 66 18.5t66 52.5l12 12l9 13q4 5 10 14t9.5 13.5t9.5 14.5l8 13.5
t10 15.5l8 14l10 16q8 13 9 15q8 15 25 19.5t32 -4t19.5 -25.5t-5.5 -34q-1 -1 -9 -15.5t-10 -17.5t-10 -16.5t-11.5 -18.5t-10.5 -16.5t-13 -19.5l-12 -16l-14 -17.5t-14 -15.5q-39 -44 -88 -70.5t-87 -28.5q-17 -50 -43 -98q-9 -16 -25.5 -20.5t-31.5 4t-20 24.5t3 32
q21 39 32 72q-70 24 -105 137q-30 108 -14 248q17 138 65 237q27 55 66.5 89.5t87.5 36.5q50 2 89.5 -32t64.5 -95q6 -16 0 -32.5t-22.5 -22.5t-33 0t-22.5 24z" />
    <glyph glyph-name="Egrave" unicode="&#xc8;" horiz-adv-x="469" 
d="M101 649q-14 14 -20 14q-4 0 -7.5 -4t-3.5 -9q1 -29 -6 -132q-9 -131 -11 -190q-4 -113 2 -181q8 -88 37 -115q50 -47 171 -26q85 14 169 51q4 2 6 7t0 9t-7 6t-9 0q-82 -35 -162 -50q-111 -18 -152 21q-21 20 -29 100q-5 59 -3 173q25 -9 29 -8q25 5 56 12.5l54 13.5
l60 15l54 15q5 2 7.5 6t1 9t-5.5 7.5t-9 1.5l-67 -19q-53 -15 -87.5 -23t-66.5 -13q-3 -2 -25 -2l11 178q5 69 6 116h16q94 16 256 54q5 1 7.5 5t1.5 9t-5 7.5t-9 0.5q-161 -37 -257 -52q4 0 -3 -7zM131.5 815q-4.5 -1 -7.5 -5t-2 -9t5 -8q53 -35 113 -58q5 -2 9.5 0t6.5 7
t0 9t-6 6q-60 23 -110 56q-4 3 -8.5 2zM102 686q92 15 251 52q17 4 32 -5.5t19 -26.5t-5.5 -32t-26.5 -18q-162 -38 -260 -54h12q-1 -19 -6 -88l-9 -146q-18 0 -17 0q36 7 69.5 15l86.5 21l67 19q17 5 32 -3.5t19.5 -25.5t-4 -32t-25.5 -19l-54 -15l-60 -17
q-23 -6 -55 -13.5t-59 -12.5q-12 -1 -3 -4q-2 -72 3 -129q6 -68 19 -80q31 -29 126 -13q78 13 156 48q16 6 32 0t23 -22t1 -32t-22 -24q-88 -37 -175 -53q-137 -23 -197 34q-37 35 -47 135q-6 70 -2 185q2 59 11 190q7 101 6 130q0 17 11.5 30t29.5 13t20 -2q-5 -5 1 -5z
M158 837q46 -31 102 -52q16 -6 23 -22t1 -32t-21.5 -23t-32.5 -1q-64 25 -119 62q-14 9 -18 26t6 31t27.5 18t31.5 -7z" />
    <glyph glyph-name="Eacute" unicode="&#xc9;" horiz-adv-x="460" 
d="M101 649q-14 14 -20 14q-4 0 -7.5 -4t-3.5 -9q1 -29 -6 -132q-9 -131 -11 -190q-4 -113 2 -181q8 -88 37 -115q50 -47 171 -26q85 14 169 51q4 2 6 7t0 9t-7 6t-9 0q-82 -35 -162 -50q-111 -18 -152 21q-21 20 -29 100q-5 59 -3 173q25 -9 29 -8q25 5 56 12.5l54 13.5
l60 15l54 15q5 2 7.5 6t1 9t-5.5 7.5t-9 1.5l-67 -19q-53 -15 -87.5 -23t-66.5 -13q-3 -2 -25 -2l11 178q5 69 6 116h16q94 16 256 54q5 1 7.5 5t1.5 9t-5 7.5t-9 0.5q-161 -37 -257 -52q4 0 -3 -7zM141.5 746q-0.5 -5 2 -9t7.5 -4.5t9 1.5q59 43 123 96q4 3 4.5 7.5t-3 9
t-8 5t-9.5 -3.5q-63 -52 -121 -94q-4 -3 -4.5 -8zM102 686q92 15 251 52q17 4 32 -5.5t19 -26.5t-5.5 -32t-26.5 -18q-162 -38 -260 -54h12q-1 -19 -6 -88l-9 -146q-18 0 -17 0q36 7 69.5 15l86.5 21l67 19q17 5 32 -3.5t19.5 -25.5t-4 -32t-25.5 -19l-54 -15l-60 -17
q-23 -6 -55 -13.5t-59 -12.5q-12 -1 -3 -4q-2 -72 3 -129q6 -68 19 -80q31 -29 126 -13q78 13 156 48q16 6 32 0t23 -22t1 -32t-22 -24q-88 -37 -175 -53q-137 -23 -197 34q-37 35 -47 135q-6 70 -2 185q2 59 11 190q7 101 6 130q0 17 11.5 30t29.5 13t20 -2q-5 -5 1 -5z
M128 778q58 42 121 94q13 10 30.5 8.5t28 -15t9 -31t-15.5 -28.5q-64 -53 -123 -96q-14 -10 -31 -7.5t-27.5 16.5t-8 31t16.5 28z" />
    <glyph glyph-name="Ecircumflex" unicode="&#xca;" horiz-adv-x="468" 
d="M101 649q-14 14 -20 14q-4 0 -7.5 -4t-3.5 -9q1 -29 -6 -132q-9 -131 -11 -190q-4 -113 2 -181q8 -88 37 -115q50 -47 171 -26q85 14 169 51q4 2 6 7t0 9t-7 6t-9 0q-82 -35 -162 -50q-111 -18 -152 21q-21 20 -29 100q-5 59 -3 173q25 -9 29 -8q25 5 56 12.5l54 13.5
l60 15l54 15q5 2 7.5 6t1 9t-5.5 7.5t-9 1.5l-67 -19q-53 -15 -87.5 -23t-66.5 -13q-3 -2 -25 -2l11 178q5 69 6 116h16q94 16 256 54q5 1 7.5 5t1.5 9t-5 7.5t-9 0.5q-161 -37 -257 -52q4 0 -3 -7zM108 751q1 -5 5.5 -7.5t9 -1.5t7.5 6q25 39 69 91q2 2 15 25l39 -41
l49 -54q4 -4 8.5 -4t8.5 3.5t4 8t-3 8.5l-49 54l-31 32l-13 11l-6 4q-5 2 -10 1q-12 -4 -21 -17q-2 -4 -3.5 -6.5t-2.5 -4.5t-5 -6q-44 -52 -69 -93q-3 -4 -2 -9zM102 686q92 15 251 52q17 4 32 -5.5t19 -26.5t-5.5 -32t-26.5 -18q-162 -38 -260 -54h12q-1 -19 -6 -88
l-9 -146q-18 0 -17 0q36 7 69.5 15l86.5 21l67 19q17 5 32 -3.5t19.5 -25.5t-4 -32t-25.5 -19l-54 -15l-60 -17q-23 -6 -55 -13.5t-59 -12.5q-12 -1 -3 -4q-2 -72 3 -129q6 -68 19 -80q31 -29 126 -13q78 13 156 48q16 6 32 0t23 -22t1 -32t-22 -24q-88 -37 -175 -53
q-137 -23 -197 34q-37 35 -47 135q-6 70 -2 185q2 59 11 190q7 101 6 130q0 17 11.5 30t29.5 13t20 -2q-5 -5 1 -5zM84 776q27 43 73 97v1t2.5 4.5t4.5 7.5q17 23 39 29q17 5 32 -3q5 -2 10 -6l15 -13l33 -34l49 -54q11 -12 11 -29.5t-13 -29t-30.5 -11.5t-29.5 14l-49 54
l-11 11q5 9 1 5q-42 -50 -65 -87q-9 -15 -26.5 -19t-32 5.5t-18.5 26.5t5 31z" />
    <glyph glyph-name="Edieresis" unicode="&#xcb;" horiz-adv-x="463" 
d="M101 649q-14 14 -20 14q-4 0 -7.5 -4t-3.5 -9q1 -29 -6 -132q-9 -131 -11 -190q-4 -113 2 -181q8 -88 37 -115q50 -47 171 -26q85 14 169 51q4 2 6 7t0 9t-7 6t-9 0q-82 -35 -162 -50q-111 -18 -152 21q-21 20 -29 100q-5 59 -3 173q25 -9 29 -8q25 5 56 12.5l54 13.5
l60 15l54 15q5 2 7.5 6t1 9t-5.5 7.5t-9 1.5l-67 -19q-53 -15 -87.5 -23t-66.5 -13q-3 -2 -25 -2l11 178q5 69 6 116h16q94 16 256 54q5 1 7.5 5t1.5 9t-5 7.5t-9 0.5q-161 -37 -257 -52q4 0 -3 -7zM142 777q-5 0 -8.5 -3.5t-3.5 -8.5t3.5 -8.5t8.5 -3.5t8.5 3.5t3.5 8.5
t-3.5 8.5t-8.5 3.5zM242 777q-5 0 -8.5 -3.5t-3.5 -8.5t3.5 -8.5t8.5 -3.5t8.5 3.5t3.5 8.5t-3.5 8.5t-8.5 3.5zM102 686q92 15 251 52q17 4 32 -5.5t19 -26.5t-5.5 -32t-26.5 -18q-162 -38 -260 -54h12q-1 -19 -6 -88l-9 -146q-18 0 -17 0q36 7 69.5 15l86.5 21l67 19
q17 5 32 -3.5t19.5 -25.5t-4 -32t-25.5 -19l-54 -15l-60 -17q-23 -6 -55 -13.5t-59 -12.5q-12 -1 -3 -4q-2 -72 3 -129q6 -68 19 -80q31 -29 126 -13q78 13 156 48q16 6 32 0t23 -22t1 -32t-22 -24q-88 -37 -175 -53q-137 -23 -197 34q-37 35 -47 135q-6 70 -2 185
q2 59 11 190q7 101 6 130q0 17 11.5 30t29.5 13t20 -2q-5 -5 1 -5zM184 765q0 -17 -12.5 -29.5t-29.5 -12.5t-29.5 12.5t-12.5 29.5t12.5 29.5t29.5 12.5t29.5 -12.5t12.5 -29.5zM284 765q0 -17 -12.5 -29.5t-29.5 -12.5t-29.5 12.5t-12.5 29.5t12.5 29.5t29.5 12.5
t29.5 -12.5t12.5 -29.5z" />
    <glyph glyph-name="Igrave" unicode="&#xcc;" horiz-adv-x="160" 
d="M92 681.5q-4 3.5 -8.5 3.5t-8 -4t-3.5 -9q12 -371 12 -652q0 -5 3.5 -8.5t8.5 -3.5t8.5 3.5t3.5 8.5q0 281 -12 654q0 4 -4 7.5zM23 809q-5 -1 -7.5 -5.5t-1.5 -9t6 -7.5l106 -67q5 -3 10 -2t7.5 5.5t1.5 9.5t-5 7l-108 67q-4 3 -9 2zM126 674q12 -373 12 -654
q0 -17 -12.5 -29.5t-29.5 -12.5t-29.5 12.5t-12.5 29.5q0 281 -12 652q0 17 11.5 30t29 13t30.5 -11.5t13 -29.5zM48 833l108 -67q14 -10 18 -27t-5.5 -31.5t-26.5 -18.5t-32 5l-106 67q-15 9 -19 26.5t5.5 32t26.5 18.5t31 -5z" />
    <glyph glyph-name="Iacute" unicode="&#xcd;" horiz-adv-x="127" 
d="M90 681.5q-4 3.5 -9 3.5t-8 -4t-3 -9q12 -371 12 -652q0 -5 3.5 -8.5t8 -3.5t8.5 3.5t4 8.5q0 281 -12 654q0 4 -4 7.5zM34 734.5q-1 -4.5 2 -8.5t7.5 -4.5t9.5 2.5q17 12 41 37l39 36q4 3 4.5 8t-2.5 9t-8 4.5t-9 -2.5q-12 -11 -40 -39l-39 -35q-4 -3 -5 -7.5zM124 674
q12 -373 12 -654q0 -17 -12.5 -29.5t-30 -12.5t-29.5 12.5t-12 29.5q0 281 -12 652q0 17 11.5 30t28.5 13t30.5 -11.5t13.5 -29.5zM20 766l37 33q29 28 42 39t30.5 9.5t28.5 -14.5t9.5 -31t-15.5 -29q-10 -8 -37 -34q-26 -25 -44 -39q-14 -11 -31.5 -8.5t-27.5 16.5
t-7.5 31.5t15.5 26.5z" />
    <glyph glyph-name="Icircumflex" unicode="&#xce;" horiz-adv-x="130" 
d="M92.5 681.5q-3.5 3.5 -8.5 3.5t-8.5 -4t-3.5 -9q12 -371 12 -652q0 -5 3.5 -8.5t8.5 -3.5t8.5 3.5t3.5 8.5q0 281 -12 654q0 4 -3.5 7.5zM1.5 718.5q1.5 -4.5 5 -7.5t8.5 -2t8 5l47 73l18 26q15 -15 19 -18l16 -17l19 -25l21 -24q3 -5 8 -5t9 3t4.5 8t-2.5 8l-22 27
l-21 24l-13 16q-12 12 -19 18q-11 6 -21 4q-11 -1 -20 -10q-6 -7 -16 -21l-47 -74q-3 -4 -1.5 -8.5zM126 674q12 -373 12 -654q0 -17 -12.5 -29.5t-29.5 -12.5t-29.5 12.5t-12.5 29.5q0 281 -12 652q0 17 11.5 30t29 13t30.5 -11.5t13 -29.5zM-21 745l46 72q11 16 19 25
q17 17 37 20q21 4 43 -10q10 -8 24 -22l14 -16l21 -24l22 -27q11 -13 9.5 -30t-15 -29t-30.5 -10t-29 15l-21 26l-19 23l-13 15q-4 3 5 -6l3 4l-47 -73q-10 -14 -27 -18t-31 6t-18 27.5t7 31.5z" />
    <glyph glyph-name="Idieresis" unicode="&#xcf;" horiz-adv-x="100" 
d="M88 681.5q-4 3.5 -8.5 3.5t-8 -4t-3.5 -9q12 -371 12 -652q0 -5 3.5 -8.5t8.5 -3.5t8.5 3.5t3.5 8.5q0 281 -12 654q0 4 -4 7.5zM24 772q-5 0 -8.5 -3.5t-3.5 -8.5t3.5 -8.5t8.5 -3.5t8.5 3.5t3.5 8.5t-3.5 8.5t-8.5 3.5zM135 773q-5 0 -8.5 -3.5t-3.5 -8.5t3.5 -8.5
t8.5 -3.5t8.5 3.5t3.5 8.5t-3.5 8.5t-8.5 3.5zM122 674q12 -373 12 -654q0 -17 -12.5 -29.5t-29.5 -12.5t-29.5 12.5t-12.5 29.5q0 281 -12 652q0 17 11.5 30t29 13t30.5 -11.5t13 -29.5zM66 760q0 -17 -12.5 -29.5t-29.5 -12.5t-29.5 12.5t-12.5 29.5t12.5 29.5t29.5 12.5
t29.5 -12.5t12.5 -29.5zM177 761q0 -17 -12.5 -29.5t-29.5 -12.5t-29.5 12.5t-12.5 29.5t12.5 29.5t29.5 12.5t29.5 -12.5t12.5 -29.5z" />
    <glyph glyph-name="Eth" unicode="&#xd0;" horiz-adv-x="600" 
d="M178 303v-250q133 -5 221 38q75 38 99 100q25 63 7 140q-17 75 -67 142q-51 67 -117 103q-74 41 -143 48v-237l36 -1q18 -2 29.5 -14.5t10 -30t-14 -29.5t-29.5 -10zM64.5 677q-3.5 -4 -3 -9t4.5 -8t9 -3l49 3v-303q-60 -3 -104 -10q-5 -1 -8 -5t-2 -9t5 -8t9 -2
q41 7 100 10v-304q-17 -7 -17 -14q-1 -5 2.5 -9t8.5 -4q90 -6 165 1.5t140 39.5q94 47 125.5 127t9.5 173q-20 86 -77.5 162.5t-133.5 118.5q-126 69 -274 57q-5 0 -8.5 -4zM212 332q4 0 7.5 3t4 8.5t-2.5 9t-9 3.5l-64 3v299q108 -11 188 -56q71 -38 126 -111
q54 -73 72 -154q20 -85 -8 -156q-28 -74 -114 -116q-94 -47 -264 -40v310zM70 711q158 12 292 -61q81 -44 142.5 -126.5t82.5 -174.5q24 -101 -11 -191t-140 -141q-69 -36 -148 -43.5t-172 -1.5q-18 2 -29.5 15t-9.5 30q1 27 17 32v252q-26 -1 -66 -8q-18 -1 -31.5 9t-16 27
t7.5 31t27 17q46 7 79 8v243l-17 -1q-17 -2 -30.5 10t-15 29t10 30t28.5 15z" />
    <glyph glyph-name="Ntilde" unicode="&#xd1;" horiz-adv-x="537" 
d="M76.5 10.5q3.5 -3.5 8 -4t8.5 3t4 8.5q2 103 2 145t-3 146.5t-4 146.5q0 5 -0.5 19t-1 35.5t-0.5 100.5l67 -133q112 -211 233 -360l56 -71q17 -21 27 -32q7 -6 11.5 -9l7.5 -5q8 -1 13 5q2 3 3 5v1v4v7v22l-3 63q-5 106 -5 108q2 105 2 187q0 213 4 276q0 5 -3 9t-8 4
t-9 -3t-4 -8q-4 -63 -4 -278q0 -82 -2 -185q0 -12 5 -111l3 -70l-76 97q-119 147 -229 356l-48 92l-29 56q-6 11 -9 16q-4 6 -5 8l-2 1l-3 4q-2 1 -5 1q-6 0 -10 -5q-2 -1 -2 -2l-1 -2q0 -1 -0.5 -3.5t-0.5 -6.5v-21q1 -22 1 -63q1 -19 1.5 -44.5t1 -42.5t0.5 -22
q1 -44 4 -146.5t3 -144.5t-2 -146q0 -5 3.5 -8.5zM135 715q0 -5 4 -8t9 -3t9 5q48 57 80 61q19 3 45 -21q1 -1 6 -5l8 -6l9 -7q4 -4 7 -6t8.5 -4.5t9.5 -4t10 -1.5q42 -7 95 42q4 4 4 8.5t-3.5 8.5t-8 4t-8.5 -3q-45 -42 -75 -37q-15 3 -46 30q-35 29 -63 26q-41 -5 -98 -71
q-2 -3 -2 -8zM43 19q2 104 2 146t-3 144.5t-4 146.5q0 5 -0.5 22t-1 41.5t-1.5 45.5q0 41 -1 63v21q0 6 0.5 8.5t0.5 5.5l3 10q4 7 8 12q14 13 32 13q13 0 25 -9l5 -4l6 -7q1 -4 3 -6q5 -7 11 -20l29 -56l48 -92q110 -207 227 -352l18 -23l1 -24q-5 101 -5 113q2 103 2 185
q0 215 4 280q2 17 15 29t30 10t29 -15t10 -30q-4 -61 -4 -274q0 -82 -2 -187q0 -2 5 -106l3 -65v-22v-7v-4v-5q-3 -12 -9 -19q-17 -22 -45 -15q-9 2 -16.5 7t-16.5 15q-10 11 -29 34l-56 71q-123 151 -235 364l-11 21q0 47 0.5 25.5t1 -35.5t0.5 -19q1 -42 4 -146.5
t3 -146.5t-2 -147q-2 -17 -14 -28.5t-29.5 -11t-29 13t-11.5 29.5zM115 743q63 74 116 81q42 5 87 -34q25 -21 32 -22q14 -3 49 29q12 11 29.5 11t29 -13t11.5 -30.5t-14 -29.5q-63 -59 -117 -50q-8 0 -16 2.5t-14.5 6t-11.5 6.5t-11 9l-7 5l-8 6q-7 6 -8 7q-16 14 -21 13
q-20 -2 -62 -51q-12 -13 -29 -15t-30 10t-15 29t10 30z" />
    <glyph glyph-name="Ograve" unicode="&#xd2;" horiz-adv-x="528" 
d="M209 680q-65 -37 -104 -134q-38 -96 -42 -208q-2 -54 7 -104q8 -49 26.5 -93t50.5 -76.5t75 -45.5q56 -16 102 1.5t80 60.5q66 81 78 218q6 65 -4 127q-9 62 -33 118t-70 95t-107 50q-2 1 -7 -1q-33 4 -52 -8zM275 631q-7 1 -15.5 2t-11 1.5t-5.5 0.5t-4.5 -0.5
t-3.5 -1.5q-48 -27 -82 -110t-36 -185q-3 -105 30 -178q31 -71 91 -89q73 -21 124 43q55 70 66 190q7 77 -8 145t-52.5 117.5t-89.5 64.5h-3zM184.5 826q-4.5 -1 -7.5 -5t-2 -9t5 -7q51 -36 101 -64q5 -2 9.5 -0.5t7 6t1 9t-5.5 7.5q-49 26 -100 61q-4 3 -8.5 2zM257 718
q7 2 17 1q69 -13 120 -57t77.5 -105t36.5 -127q10 -64 4 -133q-12 -147 -84 -234q-40 -51 -94.5 -71.5t-119.5 -0.5q-51 15 -88 51.5t-57 85.5t-29 102q-9 52 -7 110q4 116 44 218q43 105 117 148q28 16 63 12zM282 661q66 -19 108.5 -75.5t58.5 -129.5t9 -154
q-11 -130 -72 -206q-65 -80 -156 -53q-74 22 -111 105q-35 79 -32 190q2 108 38 197q38 91 98 126q4 1 7.5 2.5t10.5 1.5t10.5 -0.5t12 -1.5t13.5 -2h5zM211 848q49 -33 96 -59q16 -9 20.5 -25.5t-4 -32t-24.5 -20t-32 3.5q-52 28 -103 64q-15 10 -18.5 27t6.5 32t27.5 18
t31.5 -8z" />
    <glyph glyph-name="Oacute" unicode="&#xd3;" horiz-adv-x="528" 
d="M209 680q-65 -37 -104 -134q-38 -96 -42 -208q-2 -54 7 -104q8 -49 26.5 -93t50.5 -76.5t75 -45.5q56 -16 102 1.5t80 60.5q66 81 78 218q6 65 -4 127q-9 62 -33 118t-70 95t-107 50q-2 1 -7 -1q-33 4 -52 -8zM275 631q-7 1 -15.5 2t-11 1.5t-5.5 0.5t-4.5 -0.5
t-3.5 -1.5q-48 -27 -82 -110t-36 -185q-3 -105 30 -178q31 -71 91 -89q73 -21 124 43q55 70 66 190q7 77 -8 145t-52.5 117.5t-89.5 64.5h-3zM153.5 746.5q-1.5 -4.5 1 -9t7 -6t8.5 0.5q53 27 109 73q4 3 4.5 8t-3 9t-8.5 4.5t-8 -2.5q-55 -47 -104 -70q-5 -3 -6.5 -7.5z
M257 718q7 2 17 1q69 -13 120 -57t77.5 -105t36.5 -127q10 -64 4 -133q-12 -147 -84 -234q-40 -51 -94.5 -71.5t-119.5 -0.5q-51 15 -88 51.5t-57 85.5t-29 102q-9 52 -7 110q4 116 44 218q43 105 117 148q28 16 63 12zM282 661q66 -19 108.5 -75.5t58.5 -129.5t9 -154
q-11 -130 -72 -206q-65 -80 -156 -53q-74 22 -111 105q-35 79 -32 190q2 108 38 197q38 91 98 126q4 1 7.5 2.5t10.5 1.5t10.5 -0.5t12 -1.5t13.5 -2h5zM146 780q47 23 98 66q13 11 31 9.5t29 -14.5t9 -31t-16 -29q-58 -48 -113 -75q-16 -8 -32.5 -2.5t-24 21t-2 32
t20.5 23.5z" />
    <glyph glyph-name="Ocircumflex" unicode="&#xd4;" horiz-adv-x="528" 
d="M209 680q-65 -37 -104 -134q-38 -96 -42 -208q-2 -54 7 -104q8 -49 26.5 -93t50.5 -76.5t75 -45.5q56 -16 102 1.5t80 60.5q66 81 78 218q6 65 -4 127q-9 62 -33 118t-70 95t-107 50q-2 1 -7 -1q-33 4 -52 -8zM275 631q-7 1 -15.5 2t-11 1.5t-5.5 0.5t-4.5 -0.5
t-3.5 -1.5q-48 -27 -82 -110t-36 -185q-3 -105 30 -178q31 -71 91 -89q73 -21 124 43q55 70 66 190q7 77 -8 145t-52.5 117.5t-89.5 64.5h-3zM133 715q0 -5 3.5 -8.5t8.5 -3.5t8 4q28 27 61 71q15 20 28 30q17 -6 29 -17q19 -16 80 -82q3 -3 8 -3t9 3.5t4 8.5t-3 9
q-64 66 -83 83q-30 26 -51 20q-15 -5 -40 -38q-33 -42 -58 -69q-4 -3 -4 -8zM257 718q7 2 17 1q69 -13 120 -57t77.5 -105t36.5 -127q10 -64 4 -133q-12 -147 -84 -234q-40 -51 -94.5 -71.5t-119.5 -0.5q-51 15 -88 51.5t-57 85.5t-29 102q-9 52 -7 110q4 116 44 218
q43 105 117 148q28 16 63 12zM282 661q66 -19 108.5 -75.5t58.5 -129.5t9 -154q-11 -130 -72 -206q-65 -80 -156 -53q-74 22 -111 105q-35 79 -32 190q2 108 38 197q38 91 98 126q4 1 7.5 2.5t10.5 1.5t10.5 -0.5t12 -1.5t13.5 -2h5zM115 745q25 25 56 65q31 41 55 48
q37 12 80 -26q19 -17 85 -85q11 -14 11 -31t-13 -28.5t-30 -11.5t-30 13q-60 64 -78 80q-8 7 -3 5q3 2 -10 -14q-35 -46 -63 -75q-13 -12 -30 -12t-29.5 12.5t-12.5 29.5t12 30z" />
    <glyph glyph-name="Otilde" unicode="&#xd5;" horiz-adv-x="528" 
d="M209 680q-65 -37 -104 -134q-38 -96 -42 -208q-2 -54 7 -104q8 -49 26.5 -93t50.5 -76.5t75 -45.5q56 -16 102 1.5t80 60.5q66 81 78 218q6 65 -4 127q-9 62 -33 118t-70 95t-107 50q-2 1 -7 -1q-33 4 -52 -8zM275 631q-7 1 -15.5 2t-11 1.5t-5.5 0.5t-4.5 -0.5
t-3.5 -1.5q-48 -27 -82 -110t-36 -185q-3 -105 30 -178q31 -71 91 -89q73 -21 124 43q55 70 66 190q7 77 -8 145t-52.5 117.5t-89.5 64.5h-3zM122 741q1 -5 5 -8t9 -2t8 4q34 49 60 56q15 3 41 -11q39 -21 57 -23q40 -4 83 34q4 3 4.5 8t-3 9t-8.5 4t-9 -3q-35 -30 -64 -28
q-15 1 -47 20q-35 19 -59 13q-36 -8 -75 -64q-3 -4 -2 -9zM257 718q7 2 17 1q69 -13 120 -57t77.5 -105t36.5 -127q10 -64 4 -133q-12 -147 -84 -234q-40 -51 -94.5 -71.5t-119.5 -0.5q-51 15 -88 51.5t-57 85.5t-29 102q-9 52 -7 110q4 116 44 218q43 105 117 148
q28 16 63 12zM282 661q66 -19 108.5 -75.5t58.5 -129.5t9 -154q-11 -130 -72 -206q-65 -80 -156 -53q-74 22 -111 105q-35 79 -32 190q2 108 38 197q38 91 98 126q4 1 7.5 2.5t10.5 1.5t10.5 -0.5t12 -1.5t13.5 -2h5zM100 768q45 64 92 76q35 8 80 -17q28 -15 35 -16
q17 -2 42 20q14 13 31 11t29 -15t10 -30t-14 -28q-53 -46 -105 -42q-25 2 -69 27q-16 8 -21 7q-14 -3 -42 -42q-9 -15 -26 -18t-32 7t-18 27t8 33z" />
    <glyph glyph-name="Odieresis" unicode="&#xd6;" 
d="M209 680q-65 -37 -104 -134q-38 -96 -42 -208q-2 -54 7 -104q8 -49 26.5 -93t50.5 -76.5t75 -45.5q56 -16 102 1.5t80 60.5q66 81 78 218q6 65 -4 127q-9 62 -33 118t-70 95t-107 50q-2 1 -7 -1q-33 4 -52 -8zM275 631q-7 1 -15.5 2t-11 1.5t-5.5 0.5t-4.5 -0.5
t-3.5 -1.5q-48 -27 -82 -110t-36 -185q-3 -105 30 -178q31 -71 91 -89q73 -21 124 43q55 70 66 190q7 77 -8 145t-52.5 117.5t-89.5 64.5h-3zM185 775q-5 0 -8.5 -3.5t-3.5 -8.5t3.5 -8.5t8.5 -3.5t8.5 3.5t3.5 8.5t-3.5 8.5t-8.5 3.5zM282 778q-5 0 -8.5 -3.5t-3.5 -8.5
t3.5 -8.5t8.5 -3.5t8.5 3.5t3.5 8.5t-3.5 8.5t-8.5 3.5zM257 718q7 2 17 1q69 -13 120 -57t77.5 -105t36.5 -127q10 -64 4 -133q-12 -147 -84 -234q-40 -51 -94.5 -71.5t-119.5 -0.5q-51 15 -88 51.5t-57 85.5t-29 102q-9 52 -7 110q4 116 44 218q43 105 117 148
q28 16 63 12zM282 661q66 -19 108.5 -75.5t58.5 -129.5t9 -154q-11 -130 -72 -206q-65 -80 -156 -53q-74 22 -111 105q-35 79 -32 190q2 108 38 197q38 91 98 126q4 1 7.5 2.5t10.5 1.5t10.5 -0.5t12 -1.5t13.5 -2h5zM227 763q0 -17 -12.5 -29.5t-29.5 -12.5t-29.5 12.5
t-12.5 29.5t12.5 29.5t29.5 12.5t29.5 -12.5t12.5 -29.5zM324 766q0 -17 -12.5 -29.5t-29.5 -12.5t-29.5 12.5t-12.5 29.5t12.5 29.5t29.5 12.5t29.5 -12.5t12.5 -29.5z" />
    <glyph glyph-name="multiply" unicode="&#xd7;" horiz-adv-x="341" 
d="M337 464q4 4 4 8.5t-3.5 8.5t-8 4t-8.5 -3q-47 -43 -120 -119q-71 71 -114 118q-4 4 -8.5 4t-8.5 -3.5t-4 -8t3 -8.5q44 -48 116 -120l-114 -119q-4 -3 -4 -8t3.5 -8.5t8.5 -3.5t8 4l116 118l119 -116q3 -4 8 -4t8.5 3.5t3.5 8.5t-4 8l-119 119q72 75 118 117zM261 347
l99 -97q12 -13 12 -30t-12.5 -29.5t-29.5 -12.5t-30 12l-97 96l-94 -98q-13 -12 -30 -12t-29.5 12.5t-12.5 29.5t12 30l94 97l-96 100q-11 12 -11 29.5t13 29t30.5 11.5t29.5 -14l92 -96q53 56 100 99q12 11 29.5 11t29 -13t11.5 -30.5t-14 -29.5q-46 -42 -96 -95z" />
    <glyph glyph-name="Oslash" unicode="&#xd8;" horiz-adv-x="528" 
d="M430 383l-125 -114l-145 -134q26 -48 78 -64q73 -21 124 43q55 70 66 190q5 56 2 79zM209 680q-65 -37 -104 -134q-38 -96 -42 -208q-2 -54 7 -104q8 -49 26.5 -93t50.5 -76.5t75 -45.5q56 -16 102 1.5t80 60.5q66 81 78 218q6 65 -4 127q-9 62 -33 118t-70 95t-107 50
q-2 1 -7 -1q-33 4 -52 -8zM275 631q-7 1 -15.5 2t-11 1.5t-5.5 0.5t-4.5 -0.5t-3.5 -1.5q-48 -27 -82 -110.5t-36 -184.5q-3 -80 9 -120l135 125q103 96 151 137q-15 53 -51 95t-83 56h-3zM458 302q-11 -130 -72 -206q-65 -80 -156 -53q-64 18 -108 98l163 150l167 154
q11 -85 6 -143zM257 718q7 2 17 1q69 -13 120 -57t77.5 -105t36.5 -127q10 -64 4 -133q-12 -147 -84 -234q-40 -51 -94.5 -71.5t-119.5 -0.5q-51 15 -88 51.5t-57 85.5t-29 102q-9 52 -7 110q4 116 44 218q43 105 117 148q28 16 63 12zM282 661q61 -18 101.5 -66t62.5 -125
q-62 -53 -165 -149l-169 -157q-28 90 -25 174q2 107 39 197.5t97 125.5q4 1 7.5 2.5t10.5 1.5t10.5 -0.5t12 -1.5t13.5 -2h5z" />
    <glyph glyph-name="Ugrave" unicode="&#xd9;" horiz-adv-x="466" 
d="M85 675.5q-3 3.5 -8.5 3.5t-9 -3t-3.5 -9q-4 -89 -5.5 -172t11.5 -176.5t41 -169.5q22 -62 47 -96q41 -60 94 -58q68 2 112 94q35 72 54 200q23 151 23 377q0 5 -3.5 8.5t-8.5 3.5t-8.5 -3.5t-3.5 -8.5q0 -224 -22 -373q-19 -124 -52 -193q-38 -80 -93 -81q-39 -1 -72 47
q-23 32 -45 91q-27 74 -39 164.5t-11 172.5t5 173q0 5 -3 8.5zM179 808.5q-5 -0.5 -7.5 -4t-2 -8.5t4.5 -8q53 -41 137 -86q4 -2 9.5 -0.5t7.5 5.5t0.5 9.5t-5.5 7.5q-83 43 -135 82q-4 3 -9 2.5zM118 665q-4 -89 -5 -170t11 -168.5t37 -159.5q20 -55 41 -83q25 -36 48 -35
q35 1 65 63q32 65 50 185q22 147 22 369q0 17 12.5 29.5t29.5 12.5t29.5 -12.5t12.5 -29.5q0 -228 -23 -381q-20 -132 -56 -208q-52 -110 -140 -112q-69 -2 -118 70q-27 38 -51 104q-30 78 -43 174.5t-11.5 180.5t5.5 175q2 18 14.5 30t30 10t29.5 -14.5t10 -29.5zM206 830
q50 -37 131 -80q15 -8 20 -24.5t-3 -31.5t-24.5 -20.5t-32.5 2.5q-86 45 -141 88q-14 9 -16.5 27t8 31.5t28.5 16t30 -8.5z" />
    <glyph glyph-name="Uacute" unicode="&#xda;" horiz-adv-x="463" 
d="M85 675.5q-3 3.5 -8.5 3.5t-9 -3t-3.5 -9q-4 -89 -5.5 -172t11.5 -176.5t41 -169.5q22 -62 47 -96q41 -60 94 -58q68 2 112 94q35 72 54 200q23 151 23 377q0 5 -3.5 8.5t-8.5 3.5t-8.5 -3.5t-3.5 -8.5q0 -224 -22 -373q-19 -124 -52 -193q-38 -80 -93 -81q-39 -1 -72 47
q-23 32 -45 91q-27 74 -39 164.5t-11 172.5t5 173q0 5 -3 8.5zM177.5 721q-1.5 -5 1.5 -9t7.5 -5.5t8.5 1.5q30 17 86 45l69 35q4 2 5.5 7t-0.5 9.5t-7 6t-10 -0.5q-13 -7 -69.5 -35.5t-85.5 -46.5q-4 -2 -5.5 -7zM118 665q-4 -89 -5 -170t11 -168.5t37 -159.5
q20 -55 41 -83q25 -36 48 -35q35 1 65 63q32 65 50 185q22 147 22 369q0 17 12.5 29.5t29.5 12.5t29.5 -12.5t12.5 -29.5q0 -228 -23 -381q-20 -132 -56 -208q-52 -110 -140 -112q-69 -2 -118 70q-27 38 -51 104q-30 78 -43 174.5t-11.5 180.5t5.5 175q2 18 14.5 30t30 10
t29.5 -14.5t10 -29.5zM167 754q31 18 87.5 46.5t69.5 35.5q15 8 32 3.5t25 -20t3.5 -32.5t-20.5 -25l-69 -35q-56 -28 -84 -45q-16 -9 -32.5 -4.5t-25.5 19.5t-4.5 31t18.5 26z" />
    <glyph glyph-name="Ucircumflex" unicode="&#xdb;" horiz-adv-x="463" 
d="M85 675.5q-3 3.5 -8.5 3.5t-9 -3t-3.5 -9q-4 -89 -5.5 -172t11.5 -176.5t41 -169.5q22 -62 47 -96q41 -60 94 -58q68 2 112 94q35 72 54 200q23 151 23 377q0 5 -3.5 8.5t-8.5 3.5t-8.5 -3.5t-3.5 -8.5q0 -224 -22 -373q-19 -124 -52 -193q-38 -80 -93 -81q-39 -1 -72 47
q-23 32 -45 91q-27 74 -39 164.5t-11 172.5t5 173q0 5 -3 8.5zM154 730q0 -5 3.5 -8.5t8.5 -3.5t9 4q19 18 56 61l25 26q12 -17 16 -22l51 -76q3 -4 8 -5t9 2t5 7.5t-2 8.5q-46 69 -53 78q-22 27 -39 25q-10 -1 -20 -10q-6 -6 -18 -19q-36 -41 -56 -60q-3 -3 -3 -8zM118 665
q-4 -89 -5 -170t11 -168.5t37 -159.5q20 -55 41 -83q25 -36 48 -35q35 1 65 63q32 65 50 185q22 147 22 369q0 17 12.5 29.5t29.5 12.5t29.5 -12.5t12.5 -29.5q0 -228 -23 -381q-20 -132 -56 -208q-52 -110 -140 -112q-69 -2 -118 70q-27 38 -51 104q-30 78 -43 174.5
t-11.5 180.5t5.5 175q2 18 14.5 30t30 10t29.5 -14.5t10 -29.5zM137 760q18 17 54 58q12 15 20 21q18 15 36 18q35 4 67 -37q7 -9 53 -78q11 -14 7 -31.5t-18 -27.5t-31 -6t-26 18q-47 67 -51 74q-4 3 4 -8l1 2q-37 -43 -58 -63q-12 -12 -29.5 -12t-29.5 12.5t-12 30.5
t13 29z" />
    <glyph glyph-name="Udieresis" unicode="&#xdc;" horiz-adv-x="466" 
d="M85 675.5q-3 3.5 -8.5 3.5t-9 -3t-3.5 -9q-4 -89 -5.5 -172t11.5 -176.5t41 -169.5q22 -62 47 -96q41 -60 94 -58q68 2 112 94q35 72 54 200q23 151 23 377q0 5 -3.5 8.5t-8.5 3.5t-8.5 -3.5t-3.5 -8.5q0 -224 -22 -373q-19 -124 -52 -193q-38 -80 -93 -81q-39 -1 -72 47
q-23 32 -45 91q-27 74 -39 164.5t-11 172.5t5 173q0 5 -3 8.5zM176 773q-5 0 -8.5 -3.5t-3.5 -8.5t3.5 -8.5t8.5 -3.5t8.5 3.5t3.5 8.5t-3.5 8.5t-8.5 3.5zM301 770q-5 0 -8.5 -3.5t-3.5 -8.5t3.5 -8.5t8.5 -3.5t8.5 3.5t3.5 8.5t-3.5 8.5t-8.5 3.5zM118 665q-4 -89 -5 -170
t11 -168.5t37 -159.5q20 -55 41 -83q25 -36 48 -35q35 1 65 63q32 65 50 185q22 147 22 369q0 17 12.5 29.5t29.5 12.5t29.5 -12.5t12.5 -29.5q0 -228 -23 -381q-20 -132 -56 -208q-52 -110 -140 -112q-69 -2 -118 70q-27 38 -51 104q-30 78 -43 174.5t-11.5 180.5t5.5 175
q2 18 14.5 30t30 10t29.5 -14.5t10 -29.5zM218 761q0 -17 -12.5 -29.5t-29.5 -12.5t-29.5 12.5t-12.5 29.5t12.5 29.5t29.5 12.5t29.5 -12.5t12.5 -29.5zM343 758q0 -17 -12.5 -29.5t-29.5 -12.5t-29.5 12.5t-12.5 29.5t12.5 29.5t29.5 12.5t29.5 -12.5t12.5 -29.5z" />
    <glyph glyph-name="Yacute" unicode="&#xdd;" 
d="M152.5 13.5q1.5 -4.5 6.5 -6.5t9.5 0t6.5 6q13 31 34 89l33 89q97 237 231 482q3 4 1.5 9t-6 7.5t-9.5 1t-7 -5.5q-79 -146 -157 -313q-98 151 -217 318q-3 4 -8 4.5t-9 -2t-5 -7.5t2 -9q132 -186 225 -330l-63 -147l-34 -88q-20 -59 -33 -88q-2 -5 -0.5 -9.5zM215 725.5
q-1 -4.5 1.5 -9t7 -6t8.5 0.5l72 42q46 27 69 39q5 3 6.5 7.5t-1.5 9t-7.5 6t-8.5 -0.5l-69 -41q-47 -27 -72 -40q-5 -3 -6 -7.5zM125 35q13 29 33 86l34 90l57 133q-84 130 -216 314q-9 14 -6.5 31t16.5 27.5t31 8t28 -16.5l189 -274q55 119 135 265q9 16 25 20.5t31.5 -4
t20.5 -24.5t-3 -32q-134 -243 -230 -480q-10 -24 -33 -87q-21 -58 -35 -91q-8 -16 -23.5 -22t-31.5 1t-22 22.5t0 32.5zM206 759q25 13 72 40l69 41q16 8 32.5 3.5t25 -20t3.5 -32t-20 -25.5q-23 -12 -69 -39l-72 -42q-16 -8 -32.5 -3.5t-24.5 20t-3.5 32t19.5 25.5z" />
    <glyph glyph-name="Thorn" unicode="&#xde;" horiz-adv-x="438" 
d="M127 148q66 37 132 106t86 150q16 66 -1 91q-10 15 -43 13q-41 -3 -91.5 -30t-78.5 -62v0q3 -131 -4 -268zM70 72l-13 -180q0 -5 3.5 -9t8 -4t8.5 3t5 8q7 93 11 178q57 30 102 61.5t87 71t72.5 88.5t42.5 101q23 91 -9 135q-28 41 -91 37q-42 -3 -89 -24.5t-108 -72.5
q-5 132 -15 227q-1 4 -5 7.5t-9 3t-8 -5t-3 -9.5q28 -257 9 -605q-1 -6 1 -11zM100 428l8 8q32 39 87.5 69t102.5 33q51 4 71 -27q25 -35 5 -115q-22 -87 -92 -161t-188 -139q10 189 6 332zM40 87q17 344 -9 599q-2 17 9 30.5t28 15t31 -9t15 -28.5q10 -95 13 -167
q17 15 69 38.5t100 26.5q79 4 117 -49q40 -56 13 -161q-13 -56 -46 -109t-77 -94.5t-91 -74t-90 -54.5q-4 -69 -11 -162q-1 -17 -14 -29t-30.5 -10t-29 15t-9.5 30q7 97 11 174q-2 9 1 19z" />
    <glyph glyph-name="germandbls" unicode="&#xdf;" horiz-adv-x="472" 
d="M51 14.5q1 -4.5 5 -7t9 -1t7 5.5q26 46 38.5 98.5t10.5 110.5t-7.5 103.5t-17.5 104.5q-2 11 -6 30l-6 28q-2 9 -5.5 28t-2.5 28l1 26q6 47 48.5 77t89.5 21q53 -10 74 -62.5t-7 -101.5q-22 -37 -84 -81l-5 -5q-4 0 -6.5 -1t-5.5 -3q-8 -3 -10 -5l-2 -3q-2 -2 -3 -5t0 -7
q3 -7 9 -8q14 -4 34 2q21 5 24 5q82 9 133 -48q32 -36 45.5 -74t9 -68t-23.5 -55q-28 -38 -78.5 -52.5t-119.5 -0.5q-6 2 -10 -0.5t-5.5 -7.5t1 -9t7.5 -5q72 -18 132 -1t93 63q35 43 27 104q-7 63 -60 122q-46 52 -146 60q50 46 64 71q16 27 18 60t-8.5 61.5t-34.5 50.5
t-57 28q-57 10 -108.5 -25.5t-58.5 -92.5q-1 -20 -1.5 -31t2.5 -30l6 -31q2 -11 6 -30l7 -26q11 -60 17 -105t7.5 -100t-10 -104t-35.5 -93q-2 -4 -1 -8.5zM26 39q22 38 32.5 84t9 98t-7.5 96t-16 102l-7 26q-4 19 -6 30l-7 33q-3 21 -2.5 34t1.5 33q9 73 71 115.5t131 30.5
q42 -8 72 -35t42.5 -62.5t10.5 -75.5t-22 -73q-16 -27 -20 -31q44 -4 98 -64q60 -65 68 -138q9 -73 -33 -126q-39 -54 -107.5 -74t-149.5 0q-17 5 -25.5 20t-4 32t19.5 25.5t32 4.5q61 -14 103 -1.5t64 42.5q14 19 17.5 42t-7.5 54t-39 63q-41 45 -109 38q-1 0 -19 -5
q-27 -6 -47 -2q-23 5 -31 28q-4 14 -1 25t9 17l3 5q8 6 19 11q4 2 10 4t3 2l-2 -3q58 42 77 75q21 35 5.5 73.5t-51.5 44.5q-35 7 -67 -15t-36 -55l-1 -26q-1 -7 2 -23t5 -25l6 -28q4 -19 6 -30q13 -61 18.5 -107.5t7.5 -106.5t-11.5 -117.5t-41.5 -105.5
q-7 -16 -24.5 -20.5t-32.5 4t-19.5 26t4.5 31.5z" />
    <glyph glyph-name="agrave" unicode="&#xe0;" horiz-adv-x="429" 
d="M304 383q-14 40 -50 49q-43 10 -83 -33q-48 -53 -63 -151q-13 -98 21 -160q16 -29 30 -32q8 -2 25 9q20 15 39.5 42.5t30.5 53.5q25 57 38 138q1 4 7 54q2 16 4 24zM359 120q3 -43 4 -69.5t2 -34.5q1 -5 4.5 -8.5t9 -3t8.5 4.5t3 10q-1 9 -3 38l-5 74q-3 45 -5 79
q-6 72 -9 111q-3 24 -5 38v5q2 6 1 10q-10 45 -36 73.5t-62 36.5q-35 8 -70.5 -4.5t-64.5 -44.5q-59 -65 -76 -179q-16 -117 26 -194q28 -51 66 -59q32 -7 68 18q28 20 51 54q24 33 38 64q10 26 44 134zM149 622.5q-5 -1.5 -7 -5.5t-1 -9t6 -7l100 -65q4 -3 8.5 -2t7.5 5.5
t2 9t-5 8.5q-88 57 -102 64q-4 3 -9 1.5zM332 369q-2 -6 -4 -20q-6 -50 -7 -56q-13 -83 -40 -144q-11 -28 -33.5 -59.5t-46.5 -48.5q-27 -19 -49 -15q-27 7 -50 48q-38 70 -23 178t69 167q52 57 113 43q52 -13 76 -81q-4 -8 -5 -12zM329 111q14 44 2 16q-14 -33 -40 -70
q-27 -38 -59 -60q-46 -33 -92 -24q-50 12 -86 75q-46 85 -28 212q17 124 82 195q35 38 78.5 53.5t86.5 5.5q44 -10 76 -45.5t44 -88.5q3 -12 0 -22v3q1 -12 4 -38q3 -39 10 -111q2 -34 5 -79l5 -74q1 -29 2 -38q2 -18 -9 -31t-28.5 -14.5t-31 9t-14.5 27.5q-1 10 -2.5 36.5
t-4.5 69.5v-7zM173 647q14 -7 104 -66q14 -10 18 -26.5t-6 -31t-26.5 -18.5t-31.5 5l-99 65q-15 8 -20 25t4 32t26 19.5t31 -4.5z" />
    <glyph glyph-name="aacute" unicode="&#xe1;" horiz-adv-x="429" 
d="M304 383q-14 40 -50 49q-43 10 -83 -33q-48 -53 -63 -151q-13 -98 21 -160q16 -29 30 -32q8 -2 25 9q20 15 39.5 42.5t30.5 53.5q25 57 38 138q1 4 7 54q2 16 4 24zM359 120q3 -43 4 -69.5t2 -34.5q1 -5 4.5 -8.5t9 -3t8.5 4.5t3 10q-1 9 -3 38l-5 74q-3 45 -5 79
q-6 72 -9 111q-3 24 -5 38v5q2 6 1 10q-10 45 -36 73.5t-62 36.5q-35 8 -70.5 -4.5t-64.5 -44.5q-59 -65 -76 -179q-16 -117 26 -194q28 -51 66 -59q32 -7 68 18q28 20 51 54q24 33 38 64q10 26 44 134zM166 552.5q-1 -4.5 1.5 -9t7.5 -5.5t8 2q28 16 68 48q56 43 65 49
q4 3 4.5 8t-2 9t-8 4.5t-9.5 -1.5l-64 -50q-40 -30 -66 -47q-4 -3 -5 -7.5zM332 369q-2 -6 -4 -20q-6 -50 -7 -56q-13 -83 -40 -144q-11 -28 -33.5 -59.5t-46.5 -48.5q-27 -19 -49 -15q-27 7 -50 48q-38 70 -23 178t69 167q52 57 113 43q52 -13 76 -81q-4 -8 -5 -12z
M329 111q14 44 2 16q-14 -33 -40 -70q-27 -38 -59 -60q-46 -33 -92 -24q-50 12 -86 75q-46 85 -28 212q17 124 82 195q35 38 78.5 53.5t86.5 5.5q44 -10 76 -45.5t44 -88.5q3 -12 0 -22v3q1 -12 4 -38q3 -39 10 -111q2 -34 5 -79l5 -74q1 -29 2 -38q2 -18 -9 -31
t-28.5 -14.5t-31 9t-14.5 27.5q-1 10 -2.5 36.5t-4.5 69.5v-7zM156 586q24 15 62 45l66 50q14 10 31.5 7.5t27 -16.5t7.5 -32t-17 -27q-7 -6 -63 -49q-42 -32 -70 -50q-15 -9 -32 -5t-26 18.5t-5.5 32t19.5 26.5z" />
    <glyph glyph-name="acircumflex" unicode="&#xe2;" horiz-adv-x="400" 
d="M304 383q-14 40 -50 49q-43 10 -83 -33q-48 -53 -63 -151q-13 -98 21 -160q16 -29 30 -32q8 -2 25 9q20 15 39.5 42.5t30.5 53.5q25 57 38 138q1 4 7 54q2 16 4 24zM359 120q3 -43 4 -69.5t2 -34.5q1 -5 4.5 -8.5t9 -3t8.5 4.5t3 10q-1 9 -3 38l-5 74q-3 45 -5 79
q-6 72 -9 111q-3 24 -5 38v5q2 6 1 10q-10 45 -36 73.5t-62 36.5q-35 8 -70.5 -4.5t-64.5 -44.5q-59 -65 -76 -179q-16 -117 26 -194q28 -51 66 -59q32 -7 68 18q28 20 51 54q24 33 38 64q10 26 44 134zM107.5 559.5q0.5 -4.5 4.5 -8t9 -3t8 4.5q65 81 67 83l18 17
q14 -14 26 -30q31 -41 62 -71q4 -4 9 -4t8.5 3.5t3.5 8.5t-4 8q-31 30 -60 70l-18 22q-10 11 -18 14q-12 4 -24 -4q-9 -5 -22 -19q-1 -2 -67 -82q-3 -5 -2.5 -9.5zM332 369q-2 -6 -4 -20q-6 -50 -7 -56q-13 -83 -40 -144q-11 -28 -33.5 -59.5t-46.5 -48.5q-27 -19 -49 -15
q-27 7 -50 48q-38 70 -23 178t69 167q52 57 113 43q52 -13 76 -81q-4 -8 -5 -12zM329 111q14 44 2 16q-14 -33 -40 -70q-27 -38 -59 -60q-46 -33 -92 -24q-50 12 -86 75q-46 85 -28 212q17 124 82 195q35 38 78.5 53.5t86.5 5.5q44 -10 76 -45.5t44 -88.5q3 -12 0 -22v3
q1 -12 4 -38q3 -39 10 -111q2 -34 5 -79l5 -74q1 -29 2 -38q2 -18 -9 -31t-28.5 -14.5t-31 9t-14.5 27.5q-1 10 -2.5 36.5t-4.5 69.5v-7zM87 587q66 82 69 84q15 18 28 25q24 14 48 6q16 -5 32 -22l18 -24q29 -38 58 -66q13 -11 13 -29t-12 -30.5t-30 -12.5t-30 12
q-33 32 -65 75q-11 14 -2 6l3 3l-65 -79q-11 -14 -28 -15.5t-31 9t-15.5 28t9.5 30.5z" />
    <glyph glyph-name="atilde" unicode="&#xe3;" horiz-adv-x="429" 
d="M304 383q-14 40 -50 49q-43 10 -83 -33q-48 -53 -63 -151q-13 -98 21 -160q16 -29 30 -32q8 -2 25 9q20 15 39.5 42.5t30.5 53.5q25 57 38 138q1 4 7 54q2 16 4 24zM359 120q3 -43 4 -69.5t2 -34.5q1 -5 4.5 -8.5t9 -3t8.5 4.5t3 10q-1 9 -3 38l-5 74q-3 45 -5 79
q-6 72 -9 111q-3 24 -5 38v5q2 6 1 10q-10 45 -36 73.5t-62 36.5q-35 8 -70.5 -4.5t-64.5 -44.5q-59 -65 -76 -179q-16 -117 26 -194q28 -51 66 -59q32 -7 68 18q28 20 51 54q24 33 38 64q10 26 44 134zM102.5 548q0.5 -5 4 -8.5t9 -3t8.5 4.5q42 52 75 58q21 3 51 -16
q1 -1 7.5 -5.5t11.5 -5.5l13 -8q6 -3 12 -5t12 -3q38 -6 77 35q4 4 4 9t-4 8.5t-9 3.5t-9 -3q-30 -33 -56 -30q-12 3 -47 25q-38 23 -67 18q-41 -7 -90 -66q-3 -3 -2.5 -8zM332 369q-2 -6 -4 -20q-6 -50 -7 -56q-13 -83 -40 -144q-11 -28 -33.5 -59.5t-46.5 -48.5
q-27 -19 -49 -15q-27 7 -50 48q-38 70 -23 178t69 167q52 57 113 43q52 -13 76 -81q-4 -8 -5 -12zM329 111q14 44 2 16q-14 -33 -40 -70q-27 -38 -59 -60q-46 -33 -92 -24q-50 12 -86 75q-46 85 -28 212q17 124 82 195q35 38 78.5 53.5t86.5 5.5q44 -10 76 -45.5t44 -88.5
q3 -12 0 -22v3q1 -12 4 -38q3 -39 10 -111q2 -34 5 -79l5 -74q1 -29 2 -38q2 -18 -9 -31t-28.5 -14.5t-31 9t-14.5 27.5q-1 10 -2.5 36.5t-4.5 69.5v-7zM82 576q56 67 108 76q41 7 88 -22q30 -20 36 -21q10 -1 30 20q12 13 29 13t30.5 -11.5t13.5 -28.5t-11 -31
q-51 -53 -105 -45q-8 1 -17 4t-17 8l-11 6l-14.5 8.5t-10.5 6.5q-18 11 -27 10q-21 -4 -57 -46q-11 -14 -28.5 -15.5t-31 9t-15 28.5t9.5 31z" />
    <glyph glyph-name="adieresis" unicode="&#xe4;" horiz-adv-x="429" 
d="M304 383q-14 40 -50 49q-43 10 -83 -33q-48 -53 -63 -151q-13 -98 21 -160q16 -29 30 -32q8 -2 25 9q20 15 39.5 42.5t30.5 53.5q25 57 38 138q1 4 7 54q2 16 4 24zM359 120q3 -43 4 -69.5t2 -34.5q1 -5 4.5 -8.5t9 -3t8.5 4.5t3 10q-1 9 -3 38l-5 74q-3 45 -5 79
q-6 72 -9 111q-3 24 -5 38v5q2 6 1 10q-10 45 -36 73.5t-62 36.5q-35 8 -70.5 -4.5t-64.5 -44.5q-59 -65 -76 -179q-16 -117 26 -194q28 -51 66 -59q32 -7 68 18q28 20 51 54q24 33 38 64q10 26 44 134zM161.5 575q-4.5 0 -8 -3.5t-3.5 -8.5t3.5 -8.5t8 -3.5t8.5 3.5t4 8.5
t-4 8.5t-8.5 3.5zM264.5 573q-4.5 0 -8 -3.5t-3.5 -8.5t3.5 -8.5t8 -3.5t8.5 3.5t4 8.5t-4 8.5t-8.5 3.5zM332 369q-2 -6 -4 -20q-6 -50 -7 -56q-13 -83 -40 -144q-11 -28 -33.5 -59.5t-46.5 -48.5q-27 -19 -49 -15q-27 7 -50 48q-38 70 -23 178t69 167q52 57 113 43
q52 -13 76 -81q-4 -8 -5 -12zM329 111q14 44 2 16q-14 -33 -40 -70q-27 -38 -59 -60q-46 -33 -92 -24q-50 12 -86 75q-46 85 -28 212q17 124 82 195q35 38 78.5 53.5t86.5 5.5q44 -10 76 -45.5t44 -88.5q3 -12 0 -22v3q1 -12 4 -38q3 -39 10 -111q2 -34 5 -79l5 -74
q1 -29 2 -38q2 -18 -9 -31t-28.5 -14.5t-31 9t-14.5 27.5q-1 10 -2.5 36.5t-4.5 69.5v-7zM204 563q0 -17 -12.5 -29.5t-30 -12.5t-29.5 12.5t-12 29.5t12 29.5t29.5 12.5t30 -12.5t12.5 -29.5zM307 561q0 -17 -12.5 -29.5t-30 -12.5t-29.5 12.5t-12 29.5t12 29.5t29.5 12.5
t30 -12.5t12.5 -29.5z" />
    <glyph glyph-name="aring" unicode="&#xe5;" horiz-adv-x="432" 
d="M304 383q-14 40 -50 49q-43 10 -83 -33q-48 -53 -63 -151q-13 -98 21 -160q16 -29 30 -32q8 -2 25 9q20 15 39.5 42.5t30.5 53.5q25 57 38 138q1 4 7 54q2 16 4 24zM359 120q3 -43 4 -69.5t2 -34.5q1 -5 4.5 -8.5t9 -3t8.5 4.5t3 10q-1 9 -3 38l-5 74q-3 45 -5 79
q-6 72 -9 111q-3 24 -5 38v5q2 6 1 10q-10 45 -36 73.5t-62 36.5q-35 8 -70.5 -4.5t-64.5 -44.5q-59 -65 -76 -179q-16 -117 26 -194q28 -51 66 -59q32 -7 68 18q28 20 51 54q24 33 38 64q10 26 44 134zM160.5 642q-18.5 -24 -24.5 -48q-9 -38 16 -56q26 -19 82 -3
q44 13 74 45.5t33 66.5q1 17 -6.5 31.5t-24.5 21.5q-33 14 -92 -6q-5 -2 -10 -12q-29 -16 -47.5 -40zM247 638q-19 -3 -36.5 -21t-21.5 -34q-1 -4 -4 -1q4 -3 33 5q31 9 49.5 29t19.5 35q0 1 2 -1q-6 3 -18 1q-6 -10 -24 -13zM332 369q-2 -6 -4 -20q-6 -50 -7 -56
q-13 -83 -40 -144q-11 -28 -33.5 -59.5t-46.5 -48.5q-27 -19 -49 -15q-27 7 -50 48q-38 70 -23 178t69 167q52 57 113 43q52 -13 76 -81q-4 -8 -5 -12zM329 111q14 44 2 16q-14 -33 -40 -70q-27 -38 -59 -60q-46 -33 -92 -24q-50 12 -86 75q-46 85 -28 212q17 124 82 195
q35 38 78.5 53.5t86.5 5.5q44 -10 76 -45.5t44 -88.5q3 -12 0 -22v3q1 -12 4 -38q3 -39 10 -111q2 -34 5 -79l5 -74q1 -29 2 -38q2 -18 -9 -31t-28.5 -14.5t-31 9t-14.5 27.5q-1 10 -2.5 36.5t-4.5 69.5v-7zM185 704q5 12 23 18q70 24 115 6q25 -13 37.5 -35.5t9.5 -47.5
q-3 -44 -39 -83.5t-88 -54.5q-70 -20 -108 7q-41 30 -28 88q8 30 30 59t48 43zM252 679q35 6 50 -1q16 -8 15 -29q-2 -25 -26.5 -52t-63.5 -38q-45 -14 -61 -1q-11 9 -6 31q6 26 29.5 50t52.5 29q4 1 10 11z" />
    <glyph glyph-name="ae" unicode="&#xe6;" horiz-adv-x="670" 
d="M304 383q-14 40 -50 49q-43 10 -83 -33q-48 -53 -63 -151q-13 -98 21 -160q16 -29 30 -32q8 -2 25 9q20 15 39.5 42.5t30.5 53.5q25 57 38 138q1 4 7 54q2 16 4 24zM405 240q43 -2 91 34q57 43 44 103q-1 6 -11 19.5t-18 21.5q-29 26 -64 5.5t-53 -69.5q0 -5 -1 -6v-6
l9 -73zM266 484q-35 8 -70.5 -4.5t-64.5 -44.5q-59 -65 -76 -179q-16 -117 26 -194q28 -51 66 -59q32 -7 68 18q28 20 51 54q24 33 38 64q11 27 30 97l23 -46q5 -45 11 -68v-7q16 -68 54 -91q36 -22 82 -3q40 16 74.5 55.5t49.5 82.5q2 5 -0.5 10t-7 6.5t-9.5 -1t-6 -6.5
q-13 -41 -44.5 -76.5t-65.5 -48.5q-35 -14 -60 1q-27 16 -41 67q0 3 -1 4q-4 18 -12 71q87 1 147 45q37 29 56 70t8 88q-4 16 -18 36.5t-27 32.5q-30 27 -64 29.5t-60 -16.5q-30 -16 -67 -68q-39 70 -90 81zM332 369q-2 -6 -4 -20q-6 -50 -7 -56q-13 -83 -40 -144
q-11 -28 -33.5 -59.5t-46.5 -48.5q-27 -19 -49 -15q-27 7 -50 48q-38 70 -23 178t69 167q52 57 113 43q52 -13 76 -81q-4 -8 -5 -12zM373 265l-9 75l-2 20q2 1 2 0q23 63 72 92.5t96 -12.5q10 -10 22.5 -27.5t14.5 -29.5q17 -78 -55 -133q-57 -42 -136 -38zM359 459
q13 18 48 38q33 23 78 20.5t83 -37.5q15 -14 32 -38.5t21 -46.5q13 -57 -9 -106t-66 -82q-67 -50 -130 -51q2 -17 6 -33q2 -5 2 -8q9 -35 26 -45q13 -7 34 1q28 11 54.5 41.5t37.5 65.5q7 16 22 23.5t31.5 2t24.5 -20.5t3 -32q-17 -51 -56.5 -95.5t-85.5 -62.5
q-60 -25 -108 5q-50 31 -68 111q-1 5 -1 9q-5 23 -10 64l15 -30q1 4 -12 -25q-14 -33 -40 -70q-27 -38 -59 -60q-46 -33 -92 -24q-50 12 -86 75q-46 85 -28 212q17 124 82 195q35 38 78.5 53.5t86.5 5.5q63 -15 86 -55z" />
    <glyph glyph-name="ccedilla" unicode="&#xe7;" horiz-adv-x="432" 
d="M295.5 378.5q4.5 -1.5 9 1.5t5.5 7.5t-1 8.5q-33 55 -69 75t-72 5q-61 -25 -96 -132q-33 -103 -14 -198q22 -102 114 -141q-48 -71 -80 -99q-3 -3 -3.5 -8t3 -9t8 -4t9.5 3q34 31 90 113q59 5 110 61q58 64 78 132q1 5 -1.5 9.5t-7 6t-9 -1t-5.5 -6.5q-19 -66 -72 -124
q-60 -66 -117 -47q-73 22 -93 120q-18 89 13 187q15 44 36.5 75t45.5 41q56 23 111 -70q3 -4 7.5 -5.5zM263 368q-43 71 -75 58q-16 -6 -33.5 -32t-30.5 -66q-29 -90 -13 -171q16 -80 73 -98q39 -13 85 39q49 54 66 112q5 16 20.5 24.5t32 4t25 -20t3.5 -32.5
q-22 -76 -84 -144q-59 -66 -116 -69q-50 -74 -88 -107q-13 -13 -30.5 -11t-29 15t-10 30t14.5 28q28 26 54 63q-74 31 -98 149q-21 103 14 214q39 119 114 150q48 21 94 -5t83 -87q10 -16 5 -32.5t-19.5 -25.5t-31 -4.5t-25.5 18.5z" />
    <glyph glyph-name="egrave" unicode="&#xe8;" horiz-adv-x="429" 
d="M310 298q1 -4 -4 12q-12 37 -35 71q-24 35 -47 46q-18 9 -35 -3q-50 -32 -68 -116q-3 -14 -2 -13q45 -1 98 0q56 0 89 3q13 1 4 0zM43 257q0 -10 18 -16q2 -64 19 -112q34 -99 110 -122q87 -26 200 65q4 3 4.5 7.5t-2.5 9t-8 5t-9 -3.5q-103 -83 -178 -59q-64 19 -95 106
q-13 41 -18 106q80 -3 133 -2q59 0 94 3q20 1 32 4q6 1 11 4q8 3 11 10q4 10 2 28q-3 16 -10 36q-15 45 -41 85q-32 47 -68 65q-46 23 -89 -6q-69 -45 -91 -151q-3 -19 -6 -49q-18 -5 -19 -13zM124.5 632q-4.5 -2 -6.5 -6t-0.5 -9t6.5 -7q60 -26 107 -57q4 -3 8.5 -2
t7.5 5.5t2 9t-5 8.5q-49 31 -110 58q-5 2 -9.5 0zM309 268q-35 -3 -91 -3q-55 -1 -131 2q2 31 5 47q20 96 80 136q31 20 65 5q31 -15 59 -58q25 -36 39 -79q5 -18 10 -46q-23 -3 -36 -4zM35 294q1 10 4 31q24 118 103 171q59 37 119 6q44 -20 80 -75q28 -42 45 -91
q7 -22 10 -42q4 -26 -4 -44q-7 -17 -25 -26q-7 -3 -17 -6q-14 -3 -38 -4q-35 -3 -94 -3q-55 -1 -101 0q1 -27 14 -64q25 -73 75 -88q59 -18 150 55q14 10 31 8.5t28 -15t9.5 -31t-15.5 -28.5q-125 -101 -228 -69q-90 27 -130 140q-17 52 -19 100q-20 8 -18 40q1 30 21 35z
M145 660q65 -29 116 -62q14 -10 18 -26.5t-6 -31t-26.5 -18.5t-32.5 5q-45 31 -103 55q-15 8 -21.5 24t0.5 32t23.5 22t31.5 0z" />
    <glyph glyph-name="eacute" unicode="&#xe9;" horiz-adv-x="432" 
d="M307 298q1 -4 -4 12q-12 37 -35 71q-24 35 -47 46q-18 9 -35 -3q-50 -32 -68 -116q-3 -14 -2 -13q45 -1 98 0q56 0 89 3q13 1 4 0zM40 257q0 -10 18 -16q2 -64 19 -112q34 -99 110 -122q87 -26 200 65q4 3 4.5 7.5t-2.5 9t-8 5t-9 -3.5q-103 -83 -178 -59q-64 19 -95 106
q-13 41 -18 106q80 -3 133 -2q59 0 94 3q20 1 32 4q6 1 11 4q8 3 11 10q4 10 2 28q-3 16 -10 36q-15 45 -41 85q-32 47 -68 65q-46 23 -89 -6q-69 -45 -91 -151q-3 -19 -6 -49q-18 -5 -19 -13zM130.5 549.5q-0.5 -5.5 3 -9t8.5 -3.5t8 3q64 57 107 82q5 2 6 7t-1 9t-7 5.5
t-9 -1.5q-46 -25 -112 -84q-3 -3 -3.5 -8.5zM306 268q-35 -3 -91 -3q-55 -1 -131 2q2 31 5 47q20 96 80 136q31 20 65 5q31 -15 59 -58q25 -36 39 -79q5 -18 10 -46q-23 -3 -36 -4zM32 294q1 10 4 31q24 118 103 171q59 37 119 6q44 -20 80 -75q28 -42 45 -91q7 -22 10 -42
q4 -26 -4 -44q-7 -17 -25 -26q-7 -3 -17 -6q-14 -3 -38 -4q-35 -3 -94 -3q-55 -1 -101 0q1 -27 14 -64q25 -73 75 -88q59 -18 150 55q14 10 31 8.5t28 -15t9.5 -31t-15.5 -28.5q-125 -101 -228 -69q-90 27 -130 140q-17 52 -19 100q-20 8 -18 40q1 30 21 35zM115 580
q68 61 116 88q14 9 31 4.5t26 -19.5t4 -32t-20 -25q-41 -23 -101 -78q-13 -13 -31 -11t-29.5 14.5t-10 30t14.5 28.5z" />
    <glyph glyph-name="ecircumflex" unicode="&#xea;" horiz-adv-x="432" 
d="M307 298q1 -4 -4 12q-12 37 -35 71q-24 35 -47 46q-18 9 -35 -3q-50 -32 -68 -116q-3 -14 -2 -13q45 -1 98 0q56 0 89 3q13 1 4 0zM40 257q0 -10 18 -16q2 -64 19 -112q34 -99 110 -122q87 -26 200 65q4 3 4.5 7.5t-2.5 9t-8 5t-9 -3.5q-103 -83 -178 -59q-64 19 -95 106
q-13 41 -18 106q80 -3 133 -2q59 0 94 3q20 1 32 4q6 1 11 4q8 3 11 10q4 10 2 28q-3 16 -10 36q-15 45 -41 85q-32 47 -68 65q-46 23 -89 -6q-69 -45 -91 -151q-3 -19 -6 -49q-18 -5 -19 -13zM117 555q1 -5 4.5 -7.5t8.5 -2t8 4.5l30 43l25 34l15 15l20 -31q29 -44 59 -78
q3 -4 7.5 -4t8.5 3t4.5 8t-3.5 9q-27 33 -57 76l-16 23q-9 12 -16 15q-12 4 -23 -3q-8 -6 -18 -19q-7 -8 -25 -34l-30 -42q-3 -5 -2 -10zM306 268q-35 -3 -91 -3q-55 -1 -131 2q2 31 5 47q20 96 80 136q31 20 65 5q31 -15 59 -58q25 -36 39 -79q5 -18 10 -46q-23 -3 -36 -4z
M32 294q1 10 4 31q24 118 103 171q59 37 119 6q44 -20 80 -75q28 -42 45 -91q7 -22 10 -42q4 -26 -4 -44q-7 -17 -25 -26q-7 -3 -17 -6q-14 -3 -38 -4q-35 -3 -94 -3q-55 -1 -101 0q1 -27 14 -64q25 -73 75 -88q59 -18 150 55q14 10 31 8.5t28 -15t9.5 -31t-15.5 -28.5
q-125 -101 -228 -69q-90 27 -130 140q-17 52 -19 100q-20 8 -18 40q1 30 21 35zM94 581l30 44q20 26 27 34q12 17 24 25q25 17 51 7q15 -7 30 -25l16 -25q28 -41 55 -72q12 -14 10.5 -31t-14.5 -29t-30.5 -10t-28.5 14q-30 36 -61 82v-1l13 13l-23 -32l-30 -43
q-11 -14 -28 -16.5t-31 8t-16.5 27.5t6.5 30z" />
    <glyph glyph-name="edieresis" unicode="&#xeb;" horiz-adv-x="432" 
d="M307 298q1 -4 -4 12q-12 37 -35 71q-24 35 -47 46q-18 9 -35 -3q-50 -32 -68 -116q-3 -14 -2 -13q45 -1 98 0q56 0 89 3q13 1 4 0zM40 257q0 -10 18 -16q2 -64 19 -112q34 -99 110 -122q87 -26 200 65q4 3 4.5 7.5t-2.5 9t-8 5t-9 -3.5q-103 -83 -178 -59q-64 19 -95 106
q-13 41 -18 106q80 -3 133 -2q59 0 94 3q20 1 32 4q6 1 11 4q8 3 11 10q4 10 2 28q-3 16 -10 36q-15 45 -41 85q-32 47 -68 65q-46 23 -89 -6q-69 -45 -91 -151q-3 -19 -6 -49q-18 -5 -19 -13zM145.5 583q-4.5 0 -8 -3.5t-3.5 -8.5t3.5 -8.5t8 -3.5t8.5 3.5t4 8.5t-4 8.5
t-8.5 3.5zM262.5 578q-4.5 0 -8 -3.5t-3.5 -8.5t3.5 -8.5t8 -3.5t8.5 3.5t4 8.5t-4 8.5t-8.5 3.5zM306 268q-35 -3 -91 -3q-55 -1 -131 2q2 31 5 47q20 96 80 136q31 20 65 5q31 -15 59 -58q25 -36 39 -79q5 -18 10 -46q-23 -3 -36 -4zM32 294q1 10 4 31q24 118 103 171
q59 37 119 6q44 -20 80 -75q28 -42 45 -91q7 -22 10 -42q4 -26 -4 -44q-7 -17 -25 -26q-7 -3 -17 -6q-14 -3 -38 -4q-35 -3 -94 -3q-55 -1 -101 0q1 -27 14 -64q25 -73 75 -88q59 -18 150 55q14 10 31 8.5t28 -15t9.5 -31t-15.5 -28.5q-125 -101 -228 -69q-90 27 -130 140
q-17 52 -19 100q-20 8 -18 40q1 30 21 35zM188 571q0 -17 -12.5 -29.5t-30 -12.5t-29.5 12.5t-12 29.5t12 29.5t29.5 12.5t30 -12.5t12.5 -29.5zM305 566q0 -17 -12.5 -29.5t-30 -12.5t-29.5 12.5t-12 29.5t12 29.5t29.5 12.5t30 -12.5t12.5 -29.5z" />
    <glyph glyph-name="igrave" unicode="&#xec;" horiz-adv-x="170" 
d="M85.5 461q-3.5 3 -8.5 3t-8.5 -4t-2.5 -9q13 -181 13 -440q0 -5 3.5 -8.5t8 -3.5t8.5 3.5t4 8.5q0 259 -13 442q-1 5 -4.5 8zM25 619.5q-5 -0.5 -8 -4.5t-2 -9t5 -8q20 -14 54 -42l48 -40q4 -3 9.5 -2.5t8 4t2 9t-3.5 7.5q-16 11 -50.5 40l-53.5 44q-4 2 -9 1.5zM120 455
q13 -183 13 -444q0 -17 -12.5 -29.5t-30 -12.5t-29.5 12.5t-12 29.5q0 257 -13 438q-2 17 9.5 30t29 15t30.5 -10t15 -29zM51 642q21 -15 55.5 -44t49.5 -40q13 -10 15 -27.5t-8 -31t-28 -16t-32 8.5l-48 40q-33 28 -53 42q-14 11 -16.5 28t7.5 31t27 16.5t31 -7.5z" />
    <glyph glyph-name="iacute" unicode="&#xed;" horiz-adv-x="133" 
d="M83 461q-4 3 -9 3t-8 -4t-3 -9q13 -181 13 -440q0 -5 3.5 -8.5t8.5 -3.5t8.5 3.5t3.5 8.5q0 259 -13 442q0 5 -4 8zM21 534.5q0 -5.5 3.5 -8.5t8.5 -3t8 3q12 12 33 36t36.5 40t34.5 29q4 2 5 7t-2 9t-7.5 5t-8.5 -2q-20 -13 -37.5 -30.5t-40 -43l-29.5 -33.5
q-4 -3 -4 -8.5zM117 455q13 -183 13 -444q0 -17 -12.5 -29.5t-29.5 -12.5t-29.5 12.5t-12.5 29.5q0 257 -13 438q-2 17 10 30t29 15t30 -10t15 -29zM3 565q7 6 29.5 31.5t42 45t39.5 32.5q14 11 31.5 8t27.5 -18t7 -32t-19 -27q-15 -11 -29.5 -25t-35.5 -38t-33 -36
q-11 -13 -29 -13t-30.5 12t-12.5 29.5t12 30.5z" />
    <glyph glyph-name="icircumflex" unicode="&#xee;" horiz-adv-x="139" 
d="M87 461q-4 3 -9 3t-8 -4t-3 -9q13 -181 13 -440q0 -5 3.5 -8.5t8.5 -3.5t8.5 3.5t3.5 8.5q0 259 -13 442q0 5 -4 8zM16 555q1 -5 5.5 -7.5t9 -1.5t7.5 6q24 38 30 45l13 13q18 -20 43 -52q3 -4 8 -4.5t8.5 2.5t4 8t-2.5 9q-26 33 -35 42q-17 17 -31 16t-28 -21
q-6 -8 -30 -46q-3 -4 -2 -9zM121 455q13 -183 13 -444q0 -17 -12.5 -29.5t-29.5 -12.5t-29.5 12.5t-12.5 29.5q0 257 -13 438q-1 17 10.5 30t28.5 15t30 -10t15 -29zM-8 580q26 40 32 48q22 30 50 33t55 -26q9 -9 37 -44q11 -14 8.5 -31t-15.5 -28t-30.5 -8.5t-28.5 14.5
q-25 32 -21 28l11 11q-4 -5 -26 -41q-9 -15 -26.5 -19t-32 5.5t-18.5 26.5t5 31z" />
    <glyph glyph-name="idieresis" unicode="&#xef;" horiz-adv-x="100" 
d="M83 461q-4 3 -9 3t-8 -4t-3 -9q13 -181 13 -440q0 -5 3.5 -8.5t8.5 -3.5t8.5 3.5t3.5 8.5q0 259 -13 442q0 5 -4 8zM21 553q-5 0 -8.5 -3.5t-3.5 -8.5t3.5 -8.5t8.5 -3.5t8.5 3.5t3.5 8.5t-3.5 8.5t-8.5 3.5zM99 553q-5 0 -8.5 -3.5t-3.5 -8.5t3.5 -8.5t8.5 -3.5t8.5 3.5
t3.5 8.5t-3.5 8.5t-8.5 3.5zM117 455q13 -183 13 -444q0 -17 -12.5 -29.5t-29.5 -12.5t-29.5 12.5t-12.5 29.5q0 257 -13 438q-2 17 10 30t29 15t30 -10t15 -29zM63 541q0 -17 -12.5 -29.5t-29.5 -12.5t-29.5 12.5t-12.5 29.5t12.5 29.5t29.5 12.5t29.5 -12.5t12.5 -29.5z
M141 541q0 -17 -12.5 -29.5t-29.5 -12.5t-29.5 12.5t-12.5 29.5t12.5 29.5t29.5 12.5t29.5 -12.5t12.5 -29.5z" />
    <glyph glyph-name="eth" unicode="&#xf0;" horiz-adv-x="434" 
d="M284 292q-90 -58 -129 -127q-18 -32 -6 -60t42 -33q71 -12 110.5 32t17.5 109q-16 48 -35 79zM280 354q-127 -83 -173 -163q-13 -25 -15.5 -54t7 -53t31.5 -42.5t53 -23.5q49 -8 91 6.5t67.5 44t35.5 71.5t-6 91q-19 53 -57 116q67 35 115 48q5 2 7.5 6t1 9t-5.5 7.5
t-9 1.5q-52 -14 -122 -52q-44 58 -106 112l100 84q4 3 4.5 8t-3 9t-8.5 4.5t-8 -2.5l-103 -86q-56 44 -111 77q-4 3 -8.5 2t-7.5 -5.5t-2 -9t6 -7.5q49 -30 104 -72l-99 -84q-4 -3 -4 -8t3 -9t8 -4t9 3l102 85q57 -51 103 -110zM347 223q28 -81 -22.5 -138t-137.5 -43
q-48 7 -66 50t8 87q43 77 165 155q37 -61 53 -111zM177 424l-82 -67q-14 -13 -31 -11t-29 15t-10 30t14 28l71 60q-24 20 -72 48q-15 9 -19 25.5t5 32t25.5 19.5t32.5 -5q57 -35 95 -65l83 70q13 11 31 9.5t28.5 -14.5t9 -31t-15.5 -29l-72 -60q38 -34 68 -74q50 28 106 42
q17 5 32 -3.5t19.5 -25.5t-4 -32t-25.5 -19q-44 -13 -81 -32q24 -39 43 -94q20 -57 8 -107t-42.5 -85.5t-80.5 -52t-105 -8.5q-41 7 -69 30.5t-39.5 54.5t-9 66t19.5 66q50 88 155 157q-24 31 -59 62z" />
    <glyph glyph-name="ntilde" unicode="&#xf1;" horiz-adv-x="441" 
d="M69 471q-1 4 -5 7.5t-9 3t-8 -5t-3 -9.5q10 -92 10 -278v-119v-8v-12v-9v-12v-2v-3v5l2 -8q2 -2 6 -4q8 -3 13 3q2 1 3 4q-1 0 -1 1q1 3 1 5q1 17 1 36v28q0 10 3 26q1 13 5 33q6 30 33.5 92t61.5 114q42 63 78 86q19 11 35 9.5t32 -15.5q51 -51 61 -193q7 -88 -5 -220
q0 -5 3.5 -9t8 -4t8.5 3t5 8q10 134 5 224q-11 149 -69 207q-22 22 -49 24q-23 2 -48 -14q-41 -25 -85 -93q-28 -44 -82 -158q-4 172 -11 257zM98.5 585q-0.5 -5 3 -9t8 -4t9.5 3q50 44 81 39q17 -3 45 -31q10 -10 15.5 -14.5t18 -10.5t23.5 -5q38 3 91 68q3 5 2.5 9.5
t-4.5 8t-9 3t-8 -4.5q-46 -57 -73 -60q-15 -2 -39 24q-8 7 -11 9l-13 13q-8 6 -16.5 10t-18.5 5q-42 6 -101 -45q-3 -3 -3.5 -8zM107 342l30 46q48 74 95 103q33 20 65 18q38 -2 68 -32q66 -66 77 -227q7 -92 -5 -228q-1 -17 -14 -29t-30.5 -10t-29 15t-9.5 30q10 130 5 216
q-10 130 -53 173q-8 8 -14 8.5t-17 -6.5q-30 -19 -68 -76q-32 -50 -58.5 -110t-32.5 -86q-4 -18 -5 -31q-2 -14 -2 -22v-28q0 -19 -1 -36q0 -6 -1 -9q0 -5 -2 -9q-3 -7 -9 -14q-19 -18 -45 -9q-14 6 -22 20l-2 4q-3 3 -3 11v3v2v12v9v12v8v119q0 184 -9 276q-2 17 9 30.5
t28 15t31 -9t15 -28.5q8 -85 9 -131zM83 615q69 61 125 53q14 -3 25.5 -8t23.5 -15l13 -11q3 -2 13 -13q14 -14 15 -14q15 1 53 48q11 14 28 15.5t31 -9t15.5 -28t-9.5 -30.5q-61 -75 -111 -80q-19 -1 -37.5 7t-26 14.5t-17.5 18.5q-22 20 -29 21q-17 3 -57 -31
q-13 -13 -30.5 -11t-29 15t-10 30t14.5 28z" />
    <glyph glyph-name="ograve" unicode="&#xf2;" horiz-adv-x="429" 
d="M117 420q-43 -64 -49 -160t30 -165q40 -81 119 -88q40 -4 75 13.5t57.5 49.5t35.5 71.5t16 81.5q4 59 -10.5 113.5t-54.5 97.5t-100 54q-4 1 -10 -2q-67 -3 -109 -66zM236 432q-43 4 -74 -42q-35 -52 -40 -133q-5 -82 24 -138q27 -54 75 -58q49 -4 85.5 42.5t40.5 123.5
q5 75 -24 132t-83 73h-4zM146.5 627q-4.5 -1 -7.5 -5t-2 -9t5 -7q54 -38 106 -60q5 -2 9.5 0t6.5 6.5t0 9t-6 6.5q-51 22 -103 57q-4 3 -8.5 2zM218 516q10 5 24 2q69 -13 115 -63t62 -109.5t12 -124.5q-3 -46 -17.5 -89.5t-40.5 -80.5t-68 -57.5t-91 -16.5q-95 9 -143 104
q-39 77 -33 181t54 174q51 77 126 80zM244 462q71 -20 104.5 -87t28.5 -150q-5 -87 -49 -143.5t-110 -50.5q-64 6 -99 74q-32 64 -27 154q5 89 45 147q41 62 101 56h6zM173 649q48 -33 97 -53q16 -8 22 -23.5t-0.5 -32t-22.5 -22.5t-32 0q-56 24 -111 62q-15 10 -18.5 27
t6.5 32t27.5 18t31.5 -8z" />
    <glyph glyph-name="oacute" unicode="&#xf3;" horiz-adv-x="435" 
d="M117 420q-43 -64 -49 -160t30 -165q40 -81 119 -88q40 -4 75 13.5t57.5 49.5t35.5 71.5t16 81.5q4 59 -10.5 113.5t-54.5 97.5t-100 54q-4 1 -10 -2q-67 -3 -109 -66zM236 432q-43 4 -74 -42q-35 -52 -40 -133q-5 -82 24 -138q27 -54 75 -58q49 -4 85.5 42.5t40.5 123.5
q5 75 -24 132t-83 73h-4zM147 557q-2 -4 0 -9t6.5 -7t9.5 0q13 5 26 12q14 7 28 16l26 16q9 5 26.5 17.5t23.5 16.5q4 3 5 8t-2 9t-7.5 5t-8.5 -2q-8 -5 -24 -16l-26 -18q-10 -7 -24.5 -15.5t-27 -15t-24.5 -11.5q-5 -2 -7 -6zM218 516q10 5 24 2q69 -13 115 -63t62 -109.5
t12 -124.5q-3 -46 -17.5 -89.5t-40.5 -80.5t-68 -57.5t-91 -16.5q-95 9 -143 104q-39 77 -33 181t54 174q51 77 126 80zM244 462q71 -20 104.5 -87t28.5 -150q-5 -87 -49 -143.5t-110 -50.5q-64 6 -99 74q-32 64 -27 154q5 89 45 147q41 62 101 56h6zM143 591l22.5 10.5
t25 14t22.5 13.5l26 18q17 13 24 16q14 11 31 7t27 -18t6.5 -31t-17.5 -26q-6 -4 -23.5 -16.5l-27.5 -19.5l-26 -16q-16 -9 -30 -16q-14 -9 -30 -14q-16 -6 -32 1t-22 23t1 32t23 22z" />
    <glyph glyph-name="ocircumflex" unicode="&#xf4;" horiz-adv-x="432" 
d="M117 420q-43 -64 -49 -160t30 -165q40 -81 119 -88q40 -4 75 13.5t57.5 49.5t35.5 71.5t16 81.5q4 59 -10.5 113.5t-54.5 97.5t-100 54q-4 1 -10 -2q-67 -3 -109 -66zM236 432q-43 4 -74 -42q-35 -52 -40 -133q-5 -82 24 -138q27 -54 75 -58q49 -4 85.5 42.5t40.5 123.5
q5 75 -24 132t-83 73h-4zM118 543q1 -5 5.5 -7.5t9.5 -1.5t8 5q44 70 55 82l16 22q20 -18 30 -31l62 -72q3 -3 8.5 -3t9 3.5t3.5 8.5t-3 9q-18 18 -61 70q-26 30 -42 33q-20 4 -43 -25q-11 -14 -56 -83q-3 -5 -2 -10zM218 516q10 5 24 2q69 -13 115 -63t62 -109.5t12 -124.5
q-3 -46 -17.5 -89.5t-40.5 -80.5t-68 -57.5t-91 -16.5q-95 9 -143 104q-39 77 -33 181t54 174q51 77 126 80zM244 462q71 -20 104.5 -87t28.5 -150q-5 -87 -49 -143.5t-110 -50.5q-64 6 -99 74q-32 64 -27 154q5 89 45 147q41 62 101 56h6zM95 569q46 71 57 85q35 45 73 37
q26 -5 59 -43q42 -52 60 -70q11 -14 11 -31t-13 -28.5t-30 -11.5t-30 13l-63 74q-9 11 -3 5l3 4q-10 -12 -53 -80q-10 -14 -27 -18t-31.5 5.5t-18.5 26.5t6 32z" />
    <glyph glyph-name="otilde" unicode="&#xf5;" horiz-adv-x="438" 
d="M117 420q-43 -64 -49 -160t30 -165q40 -81 119 -88q40 -4 75 13.5t57.5 49.5t35.5 71.5t16 81.5q4 59 -10.5 113.5t-54.5 97.5t-100 54q-4 1 -10 -2q-67 -3 -109 -66zM236 432q-43 4 -74 -42q-35 -52 -40 -133q-5 -82 24 -138q27 -54 75 -58q49 -4 85.5 42.5t40.5 123.5
q5 75 -24 132t-83 73h-4zM76 547q1 -5 5.5 -7.5t9.5 -1.5t7 6q27 43 58 42q16 0 56 -22q44 -23 69 -19q39 7 66 72q2 5 0.5 9.5t-6.5 6.5t-9.5 0t-6.5 -6q-22 -54 -48 -59q-16 -3 -53 17q-45 25 -69 25q-43 1 -77 -54q-3 -4 -2 -9zM218 516q10 5 24 2q69 -13 115 -63
t62 -109.5t12 -124.5q-3 -46 -17.5 -89.5t-40.5 -80.5t-68 -57.5t-91 -16.5q-95 9 -143 104q-39 77 -33 181t54 174q51 77 126 80zM244 462q71 -20 104.5 -87t28.5 -150q-5 -87 -49 -143.5t-110 -50.5q-64 6 -99 74q-32 64 -27 154q5 89 45 147q41 62 101 56h6zM53 572
q43 69 102 68q32 0 83 -29q28 -14 34 -13q9 1 25 41q7 16 23 22t32.5 0t22.5 -22.5t0 -33.5q-34 -79 -89 -90q-35 -6 -88 23q-34 18 -43 18q-14 1 -31 -28q-9 -15 -26.5 -19t-32 5.5t-18.5 26.5t6 31z" />
    <glyph glyph-name="odieresis" unicode="&#xf6;" horiz-adv-x="435" 
d="M117 420q-43 -64 -49 -160t30 -165q40 -81 119 -88q40 -4 75 13.5t57.5 49.5t35.5 71.5t16 81.5q4 59 -10.5 113.5t-54.5 97.5t-100 54q-4 1 -10 -2q-67 -3 -109 -66zM236 432q-43 4 -74 -42q-35 -52 -40 -133q-5 -82 24 -138q27 -54 75 -58q49 -4 85.5 42.5t40.5 123.5
q5 75 -24 132t-83 73h-4zM175 573q-5 0 -8.5 -3.5t-3.5 -8.5t3.5 -8.5t8.5 -3.5t8.5 3.5t3.5 8.5t-3.5 8.5t-8.5 3.5zM267 575q-5 0 -8.5 -3.5t-3.5 -8.5t3.5 -8.5t8.5 -3.5t8.5 3.5t3.5 8.5t-3.5 8.5t-8.5 3.5zM218 516q10 5 24 2q69 -13 115 -63t62 -109.5t12 -124.5
q-3 -46 -17.5 -89.5t-40.5 -80.5t-68 -57.5t-91 -16.5q-95 9 -143 104q-39 77 -33 181t54 174q51 77 126 80zM244 462q71 -20 104.5 -87t28.5 -150q-5 -87 -49 -143.5t-110 -50.5q-64 6 -99 74q-32 64 -27 154q5 89 45 147q41 62 101 56h6zM217 561q0 -17 -12.5 -29.5
t-29.5 -12.5t-29.5 12.5t-12.5 29.5t12.5 29.5t29.5 12.5t29.5 -12.5t12.5 -29.5zM309 563q0 -17 -12.5 -29.5t-29.5 -12.5t-29.5 12.5t-12.5 29.5t12.5 29.5t29.5 12.5t29.5 -12.5t12.5 -29.5z" />
    <glyph glyph-name="divide" unicode="&#xf7;" horiz-adv-x="352" 
d="M140 408q-4 1 -8.5 -1.5t-5.5 -7.5t1 -9t8 -6t20 -6q11 -4 18 -1q5 2 12 12l12 18q3 5 2.5 10t-4.5 7.5t-9 2t-8 -4.5l-16 -22zM52.5 314.5q-3.5 -3.5 -3 -9t4 -8.5t7.5 -3q37 2 77 7t91.5 12.5t74.5 10.5q6 1 9 4.5t2 9t-4.5 8.5t-8.5 2q-25 -3 -75 -11t-89.5 -12.5
t-75.5 -6.5q-6 0 -9.5 -3.5zM151 224q0 -5 3.5 -8.5t8 -3.5t8.5 4l18 18q19 -5 29 -7q5 -2 9 0.5t5.5 7.5t-1.5 9t-7 5q-11 2 -24 7q-11 3 -17 2q-7 -1 -13 -9q-13 -13 -16 -17q-3 -3 -3 -8zM151 436l2 4q11 14 28 16.5t31.5 -8t16.5 -27.5t-7 -30l-12 -18q-11 -18 -26 -24
q-17 -7 -38 1q-14 4 -20 6q-16 4 -25 19t-4 32t19.5 25.5t32.5 3.5h2zM59 348q36 2 74.5 6.5t88.5 12.5t77 11q17 1 30.5 -9t15.5 -27.5t-8 -31t-28 -16.5q-24 -3 -75.5 -10.5t-92 -12.5t-77.5 -7q-18 -2 -30.5 10t-14 29.5t10.5 30t29 14.5zM133 254q3 2 14 15q14 16 31 19
q12 3 31 -4q11 -3 20 -5q18 -3 27.5 -18t5.5 -32t-19 -26.5t-32 -5.5q-10 2 -13 3l-6 -6q-12 -12 -29.5 -12t-29.5 12.5t-12 29.5t12 30z" />
    <glyph glyph-name="oslash" unicode="&#xf8;" horiz-adv-x="435" 
d="M345 298q-21 -27 -89 -124l-72 -102q10 -9 37 -11q49 -4 85.5 42.5t40.5 123.5q4 53 -2 71zM117 420q-43 -64 -49 -160t30 -165q40 -81 119 -88q40 -4 75 13.5t57.5 49.5t35.5 71.5t16 81.5q4 59 -10.5 113.5t-54.5 97.5t-100 54q-4 1 -10 -2q-67 -3 -109 -66zM236 432
q-43 4 -74 -42q-35 -52 -40 -133q-5 -79 12 -112l43 62l71 100l62 83l-4 -4q-21 33 -66 46h-4zM377 225q-5 -87 -49 -143.5t-110 -50.5q-36 4 -74 35l88 126q68 97 125 170q24 -78 20 -137zM218 516q10 5 24 2q69 -13 115 -63t62 -109.5t12 -124.5q-3 -46 -17.5 -89.5
t-40.5 -80.5t-68 -57.5t-91 -16.5q-95 9 -143 104q-39 77 -33 181t54 174q51 77 126 80zM244 462q60 -17 100 -80l-11 -12l-61 -81l-71 -100l-72 -104q-42 87 -37 174q5 89 45 147q41 62 101 56h6z" />
    <glyph glyph-name="ugrave" unicode="&#xf9;" horiz-adv-x="435" 
d="M94.5 486q-3.5 4 -8.5 4t-9 -3t-4 -8q-11 -181 -6 -266q7 -96 29 -146q14 -32 35 -46q23 -17 54 -9q35 7 66 53q25 34 46 93q16 42 59 207q3 -261 24 -351q1 -5 5 -7.5t9 -1.5t7.5 5t0.5 9q-7 33 -11.5 67t-6.5 73t-2.5 66t-1 74.5t-0.5 68.5q0 9 1 20q0 2 0.5 10.5
t1.5 12.5q2 27 -3 46q-1 4 -4 6q-6 5 -13 3q-4 -2 -6 -6q-2 -3 -3 -6l-6 -20q-6 -21 -23 -90q-35 -134 -51 -178q-21 -56 -43 -88q-25 -37 -52 -44q-21 -4 -35 7q-15 10 -26 35q-21 47 -27 139q-5 83 6 262q1 5 -2.5 9zM151 601.5q-5 -1.5 -7.5 -6t-1 -9t5.5 -7.5l42 -23
l47 -27q21 -13 40 -22q4 -2 8.5 -0.5t7 6t1 9t-6.5 7.5q-27 13 -74.5 40.5t-53.5 31.5q-3 2 -8 0.5zM127 475q-11 -177 -6 -258q6 -86 25 -129q7 -17 16 -23q4 -3 11 -1q15 3 34 30q20 30 39 82q16 42 49 176l25 90l6 22q3 7 5 10q6 14 22 20q25 8 43 -9q9 -8 13 -20
q6 -23 4 -58q-1 -4 -1.5 -10.5t-0.5 -10.5q-1 -11 -1 -18q0 -21 0.5 -68.5t1 -73.5t2.5 -65t6.5 -71t11.5 -63q4 -17 -5.5 -32t-26.5 -19t-32 5.5t-18 26.5q-21 92 -21 133q12 49 -4 7q-23 -63 -50 -101q-37 -54 -84 -65q-43 -10 -78 15q-27 18 -45 58q-24 54 -31 156
q-5 87 6 270q2 17 15 29t30 10t29 -15t10 -30zM175 627q6 -4 52.5 -31.5t73.5 -40.5q15 -7 20.5 -23.5t-2 -32t-24 -21t-32.5 2.5q-19 9 -42 22l-46 27l-41 23q-16 9 -20.5 25.5t4 32t25 20t32.5 -3.5z" />
    <glyph glyph-name="uacute" unicode="&#xfa;" horiz-adv-x="435" 
d="M94.5 486q-3.5 4 -8.5 4t-9 -3t-4 -8q-11 -181 -6 -266q7 -96 29 -146q14 -32 35 -46q23 -17 54 -9q35 7 66 53q25 34 46 93q16 42 59 207q3 -261 24 -351q1 -5 5 -7.5t9 -1.5t7.5 5t0.5 9q-7 33 -11.5 67t-6.5 73t-2.5 66t-1 74.5t-0.5 68.5q0 9 1 20q0 2 0.5 10.5
t1.5 12.5q2 27 -3 46q-1 4 -4 6q-6 5 -13 3q-4 -2 -6 -6q-2 -3 -3 -6l-6 -20q-6 -21 -23 -90q-35 -134 -51 -178q-21 -56 -43 -88q-25 -37 -52 -44q-21 -4 -35 7q-15 10 -26 35q-21 47 -27 139q-5 83 6 262q1 5 -2.5 9zM173 527q-1 -5 2 -9t7.5 -5t8.5 2q28 18 66 53
q45 43 60 55q4 3 4.5 7.5t-3 9t-8 5t-9.5 -3.5q-14 -11 -61 -55q-37 -35 -62 -51q-4 -3 -5 -8zM127 475q-11 -177 -6 -258q6 -86 25 -129q7 -17 16 -23q4 -3 11 -1q15 3 34 30q20 30 39 82q16 42 49 176l25 90l6 22q3 7 5 10q6 14 22 20q25 8 43 -9q9 -8 13 -20q6 -23 4 -58
q-1 -4 -1.5 -10.5t-0.5 -10.5q-1 -11 -1 -18q0 -21 0.5 -68.5t1 -73.5t2.5 -65t6.5 -71t11.5 -63q4 -17 -5.5 -32t-26.5 -19t-32 5.5t-18 26.5q-21 92 -21 133q12 49 -4 7q-23 -63 -50 -101q-37 -54 -84 -65q-43 -10 -78 15q-27 18 -45 58q-24 54 -31 156q-5 87 6 270
q2 17 15 29t30 10t29 -15t10 -30zM162 559q23 16 58 49q47 44 63 57q13 10 30.5 8.5t28.5 -15t9 -31t-16 -28.5q-13 -10 -58 -53q-40 -37 -68 -55q-14 -11 -31.5 -7t-27.5 18t-6 31t18 26z" />
    <glyph glyph-name="ucircumflex" unicode="&#xfb;" horiz-adv-x="429" 
d="M94.5 486q-3.5 4 -8.5 4t-9 -3t-4 -8q-11 -181 -6 -266q7 -96 29 -146q14 -32 35 -46q23 -17 54 -9q35 7 66 53q25 34 46 93q16 42 59 207q3 -261 24 -351q1 -5 5 -7.5t9 -1.5t7.5 5t0.5 9q-7 33 -11.5 67t-6.5 73t-2.5 66t-1 74.5t-0.5 68.5q0 9 1 20q0 2 0.5 10.5
t1.5 12.5q2 27 -3 46q-1 4 -4 6q-6 5 -13 3q-4 -2 -6 -6q-2 -3 -3 -6l-6 -20q-6 -21 -23 -90q-35 -134 -51 -178q-21 -56 -43 -88q-25 -37 -52 -44q-21 -4 -35 7q-15 10 -26 35q-21 47 -27 139q-5 83 6 262q1 5 -2.5 9zM129 574.5q0 -5.5 3.5 -8.5t8.5 -3t8 3q22 23 57 65
l16 20l16 -20l12 -17l20 -27q11 -15 23 -29q3 -4 8 -4.5t8.5 2.5t4 8t-2.5 9l-21 28l-20 28q-8 11 -12 15q-11 15 -17 20q-10 10 -20 9q-9 0 -19 -9q-5 -5 -15 -18q-33 -40 -54 -62q-4 -4 -4 -9.5zM127 475q-11 -177 -6 -258q6 -86 25 -129q7 -17 16 -23q4 -3 11 -1
q15 3 34 30q20 30 39 82q16 42 49 176l25 90l6 22q3 7 5 10q6 14 22 20q25 8 43 -9q9 -8 13 -20q6 -23 4 -58q-1 -4 -1.5 -10.5t-0.5 -10.5q-1 -11 -1 -18q0 -21 0.5 -68.5t1 -73.5t2.5 -65t6.5 -71t11.5 -63q4 -17 -5.5 -32t-26.5 -19t-32 5.5t-18 26.5q-21 92 -21 133
q12 49 -4 7q-23 -63 -50 -101q-37 -54 -84 -65q-43 -10 -78 15q-27 18 -45 58q-24 54 -31 156q-5 87 6 270q2 17 15 29t30 10t29 -15t10 -30zM111 604q21 22 52 62q12 13 19 20q18 17 39 17q22 1 40 -17q8 -7 19 -22q4 -4 14 -17l20 -28l21 -28q11 -14 8.5 -31t-16 -28
t-30.5 -8.5t-27 14.5q-13 16 -24 31l-20 27l-12 17l8 -10l7 8q-36 -42 -58 -65q-11 -13 -29 -13t-30.5 12t-12.5 29.5t12 29.5z" />
    <glyph glyph-name="udieresis" unicode="&#xfc;" horiz-adv-x="438" 
d="M94.5 486q-3.5 4 -8.5 4t-9 -3t-4 -8q-11 -181 -6 -266q7 -96 29 -146q14 -32 35 -46q23 -17 54 -9q35 7 66 53q25 34 46 93q16 42 59 207q3 -261 24 -351q1 -5 5 -7.5t9 -1.5t7.5 5t0.5 9q-7 33 -11.5 67t-6.5 73t-2.5 66t-1 74.5t-0.5 68.5q0 9 1 20q0 2 0.5 10.5
t1.5 12.5q2 27 -3 46q-1 4 -4 6q-6 5 -13 3q-4 -2 -6 -6q-2 -3 -3 -6l-6 -20q-6 -21 -23 -90q-35 -134 -51 -178q-21 -56 -43 -88q-25 -37 -52 -44q-21 -4 -35 7q-15 10 -26 35q-21 47 -27 139q-5 83 6 262q1 5 -2.5 9zM184 575q-5 0 -8.5 -3.5t-3.5 -8.5t3.5 -8.5t8.5 -3.5
t8.5 3.5t3.5 8.5t-3.5 8.5t-8.5 3.5zM280 573q-5 0 -8.5 -3.5t-3.5 -8.5t3.5 -8.5t8.5 -3.5t8.5 3.5t3.5 8.5t-3.5 8.5t-8.5 3.5zM127 475q-11 -177 -6 -258q6 -86 25 -129q7 -17 16 -23q4 -3 11 -1q15 3 34 30q20 30 39 82q16 42 49 176l25 90l6 22q3 7 5 10q6 14 22 20
q25 8 43 -9q9 -8 13 -20q6 -23 4 -58q-1 -4 -1.5 -10.5t-0.5 -10.5q-1 -11 -1 -18q0 -21 0.5 -68.5t1 -73.5t2.5 -65t6.5 -71t11.5 -63q4 -17 -5.5 -32t-26.5 -19t-32 5.5t-18 26.5q-21 92 -21 133q12 49 -4 7q-23 -63 -50 -101q-37 -54 -84 -65q-43 -10 -78 15
q-27 18 -45 58q-24 54 -31 156q-5 87 6 270q2 17 15 29t30 10t29 -15t10 -30zM226 563q0 -17 -12.5 -29.5t-29.5 -12.5t-29.5 12.5t-12.5 29.5t12.5 29.5t29.5 12.5t29.5 -12.5t12.5 -29.5zM322 561q0 -17 -12.5 -29.5t-29.5 -12.5t-29.5 12.5t-12.5 29.5t12.5 29.5
t29.5 12.5t29.5 -12.5t12.5 -29.5z" />
    <glyph glyph-name="yacute" unicode="&#xfd;" horiz-adv-x="432" 
d="M71.5 485.5q-4.5 2.5 -9 1t-7 -6t-1.5 -9.5q21 -63 84 -206q57 -132 79 -203q1 -2 4 -11q-34 -93 -58 -166q-1 -5 1.5 -9.5t7 -6t9 1t6.5 7.5q37 116 119 328.5t99 261.5q2 5 0 9.5t-6.5 6t-9 -0.5t-6.5 -7l-148 -388q-32 88 -76 187q-60 137 -81 203q-2 5 -6.5 7.5z
M180.5 539.5q-1.5 -4.5 1 -9t7.5 -6t9 0.5q50 29 94 78q4 4 3.5 9t-4.5 8t-9 3t-8 -4q-40 -46 -87 -72q-5 -3 -6.5 -7.5zM106 488q21 -66 81 -201q44 -99 49 -113l119 312q5 17 21 24t32.5 1.5t23.5 -22t1 -31.5q-17 -49 -99 -261.5t-119 -328.5q-6 -17 -21.5 -24.5t-32 -2
t-24 21t-2.5 30.5q24 75 54 158q1 -3 0 -1q-22 73 -79 203q-63 145 -84 210q-5 15 2.5 30.5t24 21t32 -2t21.5 -24.5zM172 573q43 24 80 66q11 12 28 14t30 -10t15 -29t-11 -31q-46 -53 -102 -84q-15 -8 -31.5 -3.5t-25 20t-4 32t20.5 25.5z" />
    <glyph glyph-name="thorn" unicode="&#xfe;" horiz-adv-x="400" 
d="M295.5 66.5q78.5 64.5 81.5 177.5q3 111 -41 166q-21 27 -51.5 38.5t-60 7.5t-57.5 -18t-75 -63v355q0 5 -3.5 8.5t-8.5 3.5t-8.5 -3.5t-3.5 -8.5v-873q0 -5 3.5 -8.5t8.5 -3.5t8.5 3.5t3.5 8.5v160q125 -15 203.5 49.5zM122 281v-214q75 -10 136.5 39.5t64.5 139.5
t-29 130q-18 23 -46 26.5t-57 -12.5q-31 -17 -50 -44t-18 -55q0 -6 -1 -10zM122 -17v-126q0 -17 -12.5 -29.5t-29.5 -12.5t-29.5 12.5t-12.5 29.5v873q0 17 12.5 29.5t29.5 12.5t29.5 -12.5t12.5 -29.5v-281q-1 -1 31 15q34 18 69.5 22t73 -9.5t64.5 -48.5q50 -63 47 -184
q-3 -127 -91.5 -200.5t-193.5 -60.5zM93 291q-1 36 23 71t61 54q37 20 76 15.5t65 -37.5q38 -48 35 -148q-3 -104 -75.5 -162.5t-185.5 -42.5v244q1 4 1 6z" />
    <glyph glyph-name="ydieresis" unicode="&#xff;" horiz-adv-x="435" 
d="M71.5 485.5q-4.5 2.5 -9 1t-7 -6t-1.5 -9.5q21 -63 84 -206q57 -132 79 -203q1 -2 4 -11q-34 -93 -58 -166q-1 -5 1.5 -9.5t7 -6t9 1t6.5 7.5q37 116 119 328.5t99 261.5q2 5 0 9.5t-6.5 6t-9 -0.5t-6.5 -7l-148 -388q-32 88 -76 187q-60 137 -81 203q-2 5 -6.5 7.5z
M184 561q-5 0 -8.5 -3.5t-3.5 -8.5t3.5 -8.5t8.5 -3.5t8.5 3.5t3.5 8.5t-3.5 8.5t-8.5 3.5zM283 555q-5 0 -8.5 -3.5t-3.5 -8.5t3.5 -8.5t8.5 -3.5t8.5 3.5t3.5 8.5t-3.5 8.5t-8.5 3.5zM106 488q21 -66 81 -201q44 -99 49 -113l119 312q5 17 21 24t32.5 1.5t23.5 -22
t1 -31.5q-17 -49 -99 -261.5t-119 -328.5q-6 -17 -21.5 -24.5t-32 -2t-24 21t-2.5 30.5q24 75 54 158q1 -3 0 -1q-22 73 -79 203q-63 145 -84 210q-5 15 2.5 30.5t24 21t32 -2t21.5 -24.5zM226 549q0 -17 -12.5 -29.5t-29.5 -12.5t-29.5 12.5t-12.5 29.5t12.5 29.5
t29.5 12.5t29.5 -12.5t12.5 -29.5zM325 543q0 -17 -12.5 -29.5t-29.5 -12.5t-29.5 12.5t-12.5 29.5t12.5 29.5t29.5 12.5t29.5 -12.5t12.5 -29.5z" />
    <glyph glyph-name="OE" unicode="&#x152;" horiz-adv-x="738" 
d="M275 631q-7 1 -15.5 2t-11 1.5t-5.5 0.5t-4.5 -0.5t-3.5 -1.5q-48 -27 -82 -110t-36 -185q-3 -105 30 -178q31 -71 91 -89q73 -21 124 43q55 70 66 190q7 77 -8 145t-52.5 117.5t-89.5 64.5h-3zM254 689q-28 1 -45 -9q-65 -37 -104 -134q-38 -96 -42 -208q-2 -54 7 -104
q8 -49 26.5 -93t50.5 -76.5t75 -45.5q54 -15 104 2h6q43 3 168.5 8t193.5 11q4 0 7.5 4t3 9t-4.5 8.5t-10 2.5q-49 -5 -311 -16l25 33q66 82 78 218l3 39q60 -1 156 6q5 0 8.5 4t3 9t-4.5 8t-9 3q-96 -7 -155 -6q-5 94 -31.5 162.5t-105.5 139.5q146 -3 304 0q5 0 8 3.5t3 9
t-3.5 8.5t-9.5 3q-239 -5 -387 3q-3 0 -8 -2zM282 661q66 -19 108.5 -75.5t58.5 -129.5t9 -154q-11 -130 -72 -206q-65 -80 -156 -53q-74 22 -111 105q-35 79 -32 190q2 108 38 197q38 91 98 126q4 1 7.5 2.5t10.5 1.5t10.5 -0.5t12 -1.5t13.5 -2h5zM262 721q148 -8 387 -3
q18 0 30.5 -12t12.5 -29.5t-11.5 -30t-29.5 -12.5q-158 -3 -223 -2q24 -21 52.5 -95.5t31.5 -144.5q31 -1 125 6q17 2 30 -10t15 -29t-10 -30t-29 -15q-98 -7 -130 -6l-1 -11q-12 -146 -84 -234l13 17q198 9 247 14q18 1 31 -9.5t15 -28.5t-9 -31t-29 -15q-68 -6 -193.5 -11
t-169.5 -8h-2q-55 -19 -117 0q-51 15 -88 51.5t-57 85.5t-29 102q-9 52 -7 110q4 116 44 218q43 105 117 148q24 14 54 13q5 2 14 2z" />
    <glyph glyph-name="oe" unicode="&#x153;" horiz-adv-x="664" 
d="M431 216q27 6 69 48q38 38 53.5 73.5t12.5 54t-12 27.5t-27.5 11.5t-52.5 -13.5t-64 -46q26 -63 21 -150q-1 -13 0 -5zM495 -11q80 10 135 105q3 4 1.5 9t-5.5 7.5t-9 1t-7 -4.5q-50 -86 -118 -95q-69 -8 -132 76q18 31 30 68h15q73 10 133 70q65 65 78.5 130.5
t-25.5 100.5q-35 35 -94.5 24t-134.5 -80q-53 73 -126 87q-4 1 -10 -2q-67 -3 -109 -66q-43 -64 -49 -160t30 -165q40 -81 119 -88q69 -6 130 59q72 -87 148 -77zM236 432q-43 4 -74 -42q-35 -52 -40 -133q-5 -82 24 -138q27 -54 75 -58q49 -4 85.5 42.5t40.5 123.5
q5 75 -24 132t-83 73h-4zM401 223q5 79 -26 156q48 48 88.5 66t67.5 14.5t44 -18.5q16 -17 20.5 -44.5t-14 -70t-60.5 -84.5q-48 -48 -126 -64q5 34 6 45zM346 20q-48 -51 -132 -43q-95 9 -143 104q-39 77 -33 181t54 174q51 77 126 80q10 5 24 2q84 -16 124 -73
q57 53 128.5 66t117.5 -32q51 -47 35 -124.5t-88 -150.5q-67 -66 -152 -78h5q-6 -19 -16 -36q41 -54 92 -48q54 7 96 79q8 15 25 19.5t32 -4t19.5 -25.5t-4.5 -33q-63 -107 -157 -119q-92 -12 -153 61zM244 462q71 -20 104.5 -87t28.5 -150q-5 -87 -49 -143.5t-110 -50.5
q-64 6 -99 74q-32 64 -27 154q5 89 45 147q41 62 101 56h6z" />
    <glyph glyph-name="endash" unicode="&#x2013;" horiz-adv-x="630" 
d="M389 137q-3 5 -7.5 6.5t-9 -1t-6 -7t0.5 -8.5l22 -43q3 -8 6 -12q6 -8 15 -8q8 0 14 8q3 4 8 13l22 42q2 5 0.5 10t-6 7t-9.5 0.5t-7 -5.5l-22 -45zM153 521q-3 3 -8 2.5t-8.5 -4.5t-3 -9t4.5 -8q15 -12 28 -28q7 -8 9 -9q7 -8 14 -7q9 1 13 11q2 4 5 13l15 50
q1 5 -1.5 9.5t-7 6t-9 -1t-6.5 -7.5l-13 -46zM528 129q-2 4 -7 6t-9 0t-6 -7t0 -9q17 -37 19 -43q5 -9 9 -13q7 -8 16 -7q8 1 14 9q3 5 7 13l5 12l7 16q6 12 9 19q2 3 0 8t-6.5 7t-9 0t-6.5 -6l-22 -51zM79 14.5q1 -4.5 5 -7.5t9 -2t7 5l203 281q172 237 254 369q3 4 2 9
t-5.5 7.5t-9 1.5t-7.5 -6q-84 -131 -255 -369l-201 -280q-3 -4 -2 -8.5zM410 162l-4 -9q8 16 25 20.5t32.5 -3.5t20 -25t-3.5 -32l-22 -42q-5 -11 -10 -17q-16 -20 -38 -20q-23 0 -39 20q-5 6 -10 18l-20 41q-8 16 -2.5 32.5t21 24t32 2t23.5 -20.5zM169 547l1 2
q6 17 21.5 24.5t32 2t24 -21t2.5 -30.5l-15 -50q-3 -11 -5 -17q-12 -26 -39 -29q-21 -1 -38 15q-2 3 -9 11q-13 14 -24 24q-14 11 -16 29t9 31t29 14.5t31 -9.5zM548 159l-6 -13q8 16 24 22t32 -1t22 -23t-1 -33q-4 -7 -8 -17l-7 -16l-5 -12q-6 -12 -11 -19q-14 -18 -34 -21
q-25 -3 -42 17q-6 6 -14 19q-3 8 -20 45q-6 16 0 32t21.5 23t32 1t24.5 -22zM57 41l201 280q171 236 253 367q9 15 26.5 19t32 -5.5t18.5 -26.5t-5 -31q-84 -132 -256 -371l-202 -279q-9 -16 -26 -19t-32 7t-18 27.5t8 31.5z" />
    <glyph glyph-name="quoteleft" unicode="&#x2018;" horiz-adv-x="173" 
d="M165 689.5q2 4.5 0 9t-6.5 6.5t-8.5 0q-31 -12 -50 -31t-27.5 -44.5t-12 -49.5t-3.5 -55q0 -5 3.5 -8.5t8.5 -3.5t8.5 3.5t3.5 8.5q0 62 16.5 101t61.5 57q4 2 6 6.5zM169 655q-33 -14 -45.5 -44t-12.5 -86q0 -17 -12.5 -29.5t-29.5 -12.5t-29.5 12.5t-12.5 29.5
q0 33 3.5 59t14 56.5t34.5 54.5t59 38q16 6 32.5 0t22.5 -22.5t0 -33t-24 -22.5z" />
    <glyph glyph-name="quoteright" unicode="&#x2019;" horiz-adv-x="192" 
d="M175 706.5q-4 2.5 -9 1.5t-7.5 -5t-0.5 -9q10 -47 -15 -90.5t-74 -91.5q-3 -3 -3 -8t3 -8.5t8.5 -3.5t9.5 4q12 11 21 22l23 25q12 14 20 27t17 29.5t11.5 31t5 33t-4.5 34.5q-1 6 -5 8.5zM210 706q7 -20 4.5 -42.5t-6 -40t-13.5 -37t-19 -33.5t-23 -30l-23 -25
q-9 -11 -23 -24q-12 -12 -29.5 -12t-29.5 12.5t-12 30.5t13 29q45 44 66 80.5t13 71.5q-4 17 5.5 32t26.5 19t32 -5.5t18 -25.5z" />
    <glyph glyph-name="quotedblleft" unicode="&#x201c;" horiz-adv-x="256" 
d="M138.5 702q-0.5 5 -4.5 7.5t-9 2t-8 -4.5q-32 -44 -44.5 -90t-12.5 -106q0 -5 3.5 -8.5t8.5 -3.5t8.5 3.5t3.5 8.5q0 57 11.5 99.5t41.5 82.5q2 4 1.5 9zM232.5 680.5q-1.5 4.5 -5.5 7t-9 1t-7 -5.5q-54 -93 -54 -192q0 -5 3.5 -8.5t8.5 -3.5t8.5 3.5t3.5 8.5
q0 92 50 181q3 4 1.5 8.5zM161 675q-26 -36 -36.5 -73.5t-10.5 -90.5q0 -17 -12.5 -29.5t-29.5 -12.5t-29.5 12.5t-12.5 29.5q0 64 13.5 115t49.5 99q11 14 28 16.5t31 -8t16.5 -27.5t-7.5 -31zM257 656q-46 -81 -46 -165q0 -17 -12.5 -29.5t-29.5 -12.5t-29.5 12.5
t-12.5 29.5q0 107 58 206q8 16 25 20.5t32 -4t19.5 -26t-4.5 -31.5z" />
    <glyph glyph-name="quotedblright" unicode="&#x201d;" horiz-adv-x="235" 
d="M103.5 705q-4.5 2 -9 0t-6.5 -6.5t0 -9.5q13 -35 0 -67.5t-47 -79.5q-3 -4 -2 -9t5 -7.5t9 -2t8 4.5l20.5 29.5t18.5 30.5t14.5 35t3.5 35.5t-8 39.5q-2 5 -6.5 7zM200.5 695.5q-3.5 3.5 -9 3t-8.5 -4.5t-2 -10q10 -111 -66 -170q-3 -3 -4 -8t2 -8.5t8 -4t8 2.5
q45 33 64 83q17 51 12 109q-1 4 -4.5 7.5zM138 710q10 -25 10 -50.5t-4.5 -43.5t-17 -41t-20 -34.5t-21.5 -30.5q-11 -14 -28 -16.5t-31 8t-16.5 27.5t6.5 31q32 43 42.5 68.5t1.5 50.5q-7 17 0 32.5t23.5 21.5t32 -1t22.5 -22zM235 690q6 -64 -14 -121q-22 -58 -73 -97
q-13 -11 -30.5 -8.5t-28 16t-8 31.5t16.5 27q62 49 53 144q-2 18 9 31t28.5 14.5t31 -9t15.5 -28.5z" />
    <glyph glyph-name="Euro" unicode="&#x20ac;" horiz-adv-x="679" 
d="M65.5 391q-3.5 -3 -4 -8.5t3 -9t8.5 -3.5q51 -3 129 5q-8 -69 -1 -130q-78 -8 -148 -18q-5 -1 -8 -5t-2 -9t5 -8t9 -2q72 10 150 17q3 -18 5 -23q23 -72 74 -119.5t116 -57t138 30.5q72 42 131 121q3 4 2.5 9t-4.5 7.5t-9 2t-8 -4.5q-55 -74 -125 -115
q-92 -51 -176 -10.5t-116 145.5v17q77 5 136 5q4 0 8 3.5t4 8.5t-4 8.5t-8 3.5q-63 0 -145 -6q-8 65 0 132q38 6 88 15t60 10q4 1 6.5 5t2 9t-5 8t-9.5 2l-56 -10l-82 -15q29 111 75 167q59 72 141.5 84t143.5 -54q3 -4 8 -4t8.5 3t4 8t-3.5 9q-33 39 -77.5 54.5t-88.5 7.5
t-85 -32q-40 -24 -70 -60q-55 -69 -80 -186q-76 -8 -131 -5q-6 0 -9.5 -3zM77 424q52 -3 104 3q22 103 82 176q33 40 78 68q45 26 95.5 35t102.5 -8.5t91 -62.5q12 -14 10.5 -31t-14.5 -29t-30.5 -10t-28.5 14q-49 54 -118 44t-121 -72q-42 -52 -57 -111l36 7l57 10
q16 1 31 -8t17 -26t-7 -32t-27 -18q-10 -1 -59.5 -10t-65.5 -11q-5 -41 -1 -74q55 4 119 4q17 0 29.5 -12.5t12.5 -29.5t-12.5 -29.5t-29.5 -12.5q-58 0 -106 -3v15q27 -87 98 -121.5t149 8.5q64 37 116 107q11 14 28 16.5t31 -8t16 -27.5t-7 -31q-63 -83 -141 -129
q-83 -46 -157.5 -34.5t-131.5 65t-83 131.5q-2 7 -1 1q-50 -5 -122 -15q-17 -1 -30.5 9t-16 27t7.5 31t27 17q72 10 120 14q-4 35 0 70q-43 -4 -97 -1q-17 2 -29 14.5t-10.5 30t14 29.5t31.5 10z" />
    <glyph glyph-name="trademark" unicode="&#x2122;" horiz-adv-x="800" 
d="M34.5 590.5q-2.5 -4.5 -1 -9t6.5 -7t9 -1.5q33 12 123 58q3 -70 13 -147q15 -108 17 -149q1 -6 4.5 -9t8.5 -3t8.5 3.5t2.5 8.5q-2 45 -17 152q-13 95 -13 156l129 57q4 2 5.5 7.5t-0.5 9.5t-7.5 5.5t-9.5 -0.5q-18 -10 -39 -20l-45 -20l-40 -16q-18 -8 -67 -33.5
t-80 -35.5q-5 -2 -7.5 -6.5zM419.5 349.5q3.5 -3.5 8.5 -3.5t8.5 3.5t3.5 8.5q0 16 -19 164l-15 113l52 -67l46 -60q11 -12 18 -18q5 -4 10 -7q8 -4 15 1l4 4q0 1 0.5 2.5t1.5 3.5q1 1 2 5q2 8 6 22l16 66l33 125l66 -149l89 -202q2 -4 7 -6t9 0t6 7t0 9l-89 202l-51 116
l-17 38l-6 12v0l-0.5 1t0.5 0l-7 7q-4 2 -10 1t-10 -6q-3 -3 -6 -10q0 -3 -3 -15q-1 -2 -1 -5q-8 -19 -33 -120l-20 -80q-31 36 -57 71q-34 46 -45 59.5t-18 19.5q-4 4 -7 6q-10 5 -18 -1q-3 -2 -5 -8v-5q-1 -3 0 -9q0 -12 2 -33q3 -30 11 -93q19 -151 19 -161
q0 -5 3.5 -8.5zM32 625q29 10 77.5 34.5l67.5 34.5l40 16l45 20q19 8 37 18q16 8 33 2.5t24.5 -20.5t2.5 -31.5t-20 -24.5q-12 -7 -113 -51q0 -39 13 -132q15 -109 17 -154q2 -17 -10 -29.5t-29.5 -14.5t-30 10t-14.5 30q-2 41 -17 147q-10 79 -11 103q-50 -26 -86 -38
q-16 -5 -31.5 2.5t-21 24t2 32t24.5 21.5zM386 358q0 8 -19 157q-8 63 -11 95q-2 21 -2 33q-1 10 0 15q0 5 2 11q4 14 15 22q24 18 51 3q6 -4 12 -10q9 -8 21 -22.5t46 -60.5q26 -35 18 -25l6 24q26 103 32 118q0 -1 2 7t2 11q6 17 13 26q11 13 27.5 16t33.5 -7l10 -9
q3 -3 3.5 -4l1.5 -3l2 -6l5 -10l17 -38l52 -116l89 -202q6 -16 0 -32t-21.5 -23t-32 -1t-23.5 22l-90 202l-31 71l-11 -43l-16 -66q-4 -14 -6 -22q-1 -4 -3 -9q-1 -2 -1.5 -3.5t-2.5 -4.5q-5 -9 -13 -14q-21 -15 -46 -3q-7 3 -15 9q-9 8 -22 24l-47 60l17 -21v-3
q19 -150 19 -168q0 -17 -12.5 -29.5t-29.5 -12.5t-29.5 12.5t-12.5 29.5z" />
    <glyph glyph-name="uni3000" unicode="&#x3000;" horiz-adv-x="1000" 
 />
    </font>
</defs>
</svg>
