<?xml version="1.0" standalone="no"?>
<!DOCTYPE svg PUBLIC "-//W3C//DTD SVG 1.1//EN" "http://www.w3.org/Graphics/SVG/1.1/DTD/svg11.dtd" >
<svg xmlns="http://www.w3.org/2000/svg" width="100%" height="100%">
<metadata>
Created by FontXChange 20100429 at Mon Jan 28 21:50:34 2013
 By Colin Waddell
(c) Vanessa Bays @ ByTheButterfly.com
</metadata>
<defs>
<font id="MyFirstCrushThin" horiz-adv-x="400" >
  <font-face 
    font-family="My First Crush - THIN"
    font-weight="500"
    font-stretch="normal"
    units-per-em="1000"
    panose-1="2 0 6 3 0 0 0 0 0 0"
    ascent="800"
    descent="-200"
    x-height="484"
    cap-height="690"
    bbox="-464 -190.083 1125.2 891.8"
    underline-thickness="50"
    underline-position="-100"
    unicode-range="U+0020-F8FF"
  />
<missing-glyph horiz-adv-x="364" 
d="M46 23h219v620h-219v-620zM33 10v646h245v-646h-245z" />
    <glyph glyph-name=".notdef" horiz-adv-x="364" 
d="M46 23h219v620h-219v-620zM33 10v646h245v-646h-245z" />
    <glyph glyph-name=".null" horiz-adv-x="0" 
 />
    <glyph glyph-name="nonmarkingreturn" horiz-adv-x="333" 
 />
    <glyph glyph-name="space" unicode=" " horiz-adv-x="300" 
 />
    <glyph glyph-name="exclam" unicode="!" horiz-adv-x="167" 
d="M88 33l31 46q3 6 10 7t13 -3t7.5 -10.5t-3.5 -12.5l-29 -43q-7 -9 -12 -13q-9 -8 -18 -8q-11 0 -19 8q-5 5 -11 14q-3 3 -5.5 8.5t-8 14.5t-8.5 15q-4 6 -2 13t8 10.5t13 1.5t10 -7zM106 675q-5 -92 -5 -245t-2 -244q0 -6 -5.5 -11t-12 -5t-11.5 5.5t-5 12.5q2 63 2 245
t5 244q1 7 6 12t12.5 4t12 -6t3.5 -12z" />
    <glyph glyph-name="quotedbl" unicode="&#x22;" horiz-adv-x="200" 
d="M49 662q1 -40 1 -140q0 -7 -5 -12t-12 -5t-12 5t-5 12q0 100 -1 138q0 7 5 12.5t11.5 5.5t12 -5t5.5 -11zM135 658q0 -78 11 -140q1 -7 -3 -13t-11 -7t-13 3t-7 11q-11 63 -11 146q0 7 5 12t12 5t12 -5t5 -12z" />
    <glyph glyph-name="numbersign" unicode="#" horiz-adv-x="531" 
d="M343 363q-79 -5 -145 -4q-2 -78 -9 -155q105 6 166 6q-5 40 -7 63q-4 38 -5 90zM379 624q-5 -141 -4 -224q37 3 89 8q8 1 13 -3.5t6 -12t-3.5 -12.5t-11.5 -6q-60 -5 -92 -9q2 -51 6 -88q2 -27 8 -68q63 -2 108 -9q7 -1 11.5 -7t3.5 -12.5t-7 -11t-13 -3.5q-40 7 -98 10
q15 -98 19 -134q1 -7 -3.5 -12.5t-11.5 -6.5t-12.5 3.5t-6.5 11.5q-4 35 -19 138q-57 0 -175 -5q-9 -78 -20 -142q-1 -7 -7 -11t-13 -3t-11 7t-3 13q11 64 19 133q-60 -2 -99 -2q-7 0 -12 5t-5 12t5 12t12 5q38 0 103 3q7 75 9 157q-55 4 -95 11q-7 1 -11 7t-3 13t7 11t13 3
q40 -7 91 -11q2 120 -4 254q0 7 5 12.5t11.5 5.5t12 -5t5.5 -11q6 -136 4 -257q63 -1 141 4q-1 84 4 229q0 6 5.5 11t12 5t11.5 -5.5t5 -12.5z" />
    <glyph glyph-name="dollar" unicode="$" horiz-adv-x="403" 
d="M226 704l23 30q5 6 12 7t12.5 -3.5t6.5 -11.5t-3 -12l-20 -26q-13 -14 -25 -16q-16 -4 -30 8q-11 9 -24 28q-4 7 -2.5 14t7.5 10.5t13 2t11 -6.5q5 -10 19 -24zM231 -17l-25 -40q-4 -5 -11 -6.5t-13 2t-7.5 10.5t2.5 14q28 42 28 43q4 5 10 9q8 8 19 6q8 -1 15 -7
q4 -4 9 -11q17 -20 27 -30q5 -5 5 -12t-5 -12t-12 -5t-12 5q-10 10 -30 34zM358 526q-19 44 -55.5 62.5t-78.5 12.5q-39 -6 -66 -29t-28 -53q-1 -21 33 -56q13 -14 43 -41.5t40 -37.5q27 -26 46 -48t37.5 -52t26 -63.5t3.5 -68.5q-4 -38 -32 -61t-67 -31q-34 -8 -71 -3
t-65 21q-68 40 -91 131q-2 7 1.5 12.5t10.5 7.5t13 -1.5t8 -10.5q20 -78 76 -111q20 -12 50.5 -15.5t60.5 2.5q66 14 72 63q8 55 -20.5 103.5t-81.5 99.5q-10 10 -41 38.5t-43 42.5q-44 45 -43 80q2 45 38.5 76.5t84.5 38.5q52 8 99.5 -15.5t71.5 -79.5q3 -6 0 -13t-9 -9.5
t-13 0t-10 8.5z" />
    <glyph glyph-name="percent" unicode="%" horiz-adv-x="544" 
d="M368 106l18 36q3 6 10 7.5t13.5 -1.5t8.5 -10t-2 -13l-22 -42q-4 -10 -7 -14q-8 -10 -19 -10t-19 10q-3 4 -7 13l-21 42q-3 7 -0.5 13.5t8.5 9.5t12.5 1t9.5 -8zM141 502l11 39q2 7 8.5 10t13 1t10 -8.5t1.5 -12.5l-15 -50q-3 -10 -5 -14q-5 -13 -18 -14q-9 -1 -18 8
q-1 2 -8 10q-14 15 -27 27q-6 4 -6.5 11.5t3.5 12.5t11.5 6t12.5 -4zM35 26l201 280q172 237 255 369q4 6 11 7.5t13 -2t7.5 -10.5t-2.5 -13q-83 -131 -255 -369l-202 -280q-4 -7 -10.5 -8t-13 3t-7.5 10.5t3 12.5z" />
    <glyph glyph-name="ampersand" unicode="&#x26;" horiz-adv-x="500" 
d="M272 264q141 26 197 45q7 2 13.5 -1t8.5 -9.5t-1 -13t-9 -8.5q-40 -14 -92 -26q-72 -117 -115 -171q-44 -55 -81 -80q-50 -34 -89 -15q-43 20 -50 72q-5 40 11 97q21 71 83 175q-34 -14 -40 -15q-31 -9 -50 3q-22 15 -26 53q-4 34 15 98q20 68 51 122q39 65 82 87
q57 27 109 -24q44 -44 50 -114q0 -7 -4.5 -12t-11.5 -6t-12.5 4t-5.5 12q-4 58 -40 92q-35 34 -71 17q-33 -16 -67 -73q-28 -51 -47 -114q-17 -58 -14 -85q1 -9 3 -15.5t4 -8.5l2 -4q9 -3 22 -1q25 8 73 43l26 18l32 23l15 15l7.5 6t4.5 3q5 2 9 1q10 -2 14 -11q1 -3 1 -6
t-1 -5v-2l-2 -2q-15 -27 -55 -68q-39 -40 -52 -61q-48 -78 -71 -155q-14 -50 -10 -82q3 -35 30 -47q22 -9 56 14q33 22 74 73q39 48 95 140l-65 -12q-7 -1 -13 3t-7.5 11t3 13t11.5 7z" />
    <glyph glyph-name="quotesingle" unicode="'" horiz-adv-x="103" 
d="M69 699q-3 -43 1 -146q0 -7 -5 -12.5t-11.5 -5.5t-12 5t-5.5 11q-4 105 -1 150q1 7 6 12t12 4t12 -6t4 -12z" />
    <glyph glyph-name="parenleft" unicode="(" horiz-adv-x="203" 
d="M130 681q-36 -62 -53 -151.5t-14 -186.5q3 -98 26.5 -185.5t63.5 -148.5q4 -5 2.5 -12t-7 -11t-12.5 -2.5t-11 7.5q-44 64 -68.5 156.5t-27.5 193.5t15 195t58 161q3 7 10 8.5t12.5 -2t7.5 -10t-2 -12.5z" />
    <glyph glyph-name="parenright" unicode=")" horiz-adv-x="202" 
d="M24 14q56 83 81 207t12.5 251t-62.5 212q-4 6 -2 13t8 10.5t13 1.5t10 -7q53 -91 67 -224.5t-13 -264.5t-86 -217q-4 -6 -11 -7.5t-12.5 2.5t-7 11t2.5 12z" />
    <glyph glyph-name="asterisk" unicode="*" horiz-adv-x="294" 
d="M138 633l33 58q10 16 28.5 20.5t35 -5t21.5 -28.5q4 -18 -6 -35l-19 -32l-17 -30q-8 -15 -11 -20q-11 -18 -18 -28q-20 -23 -47 -23q-25 0 -44 23q-8 8 -19 26l-50 78q-11 17 -7.5 35.5t19.5 29t34.5 7.5t28.5 -19zM138 633v0v0z" />
    <glyph glyph-name="plus" unicode="+" horiz-adv-x="275" 
d="M120 235q-46 3 -84 8q-7 1 -11 7t-3 12.5t6.5 11t12.5 3.5q35 -5 79 -8v86q0 7 5 12t11.5 5t12 -5t5.5 -12v-86q42 0 72 3q8 1 13.5 -3.5t6 -12t-4 -12.5t-10.5 -6q-33 -3 -77 -3q2 -47 3 -88q0 -7 -5 -12.5t-12 -5.5t-12 5t-5 11q-1 43 -3 90z" />
    <glyph glyph-name="comma" unicode="," horiz-adv-x="132" 
d="M100 49q0 -52 -21 -86t-67 -59q-6 -4 -12.5 -2t-10 7.5t-1.5 12.5t8 10q38 23 54 49t16 68q0 7 5 12t12 5t12 -5t5 -12z" />
    <glyph glyph-name="hyphen" unicode="-" horiz-adv-x="267" 
d="M34 308q74 -2 175 5q7 1 12 -4t6 -12t-4 -12t-12 -6q-102 -7 -179 -5q-6 0 -11 5.5t-5 12t5.5 11.5t12.5 5z" />
    <glyph glyph-name="period" unicode="." horiz-adv-x="164" 
d="M78 41l28 38q3 6 10 7.5t12.5 -2.5t7.5 -11t-3 -12q-20 -30 -28 -40q-17 -18 -34 -15q-12 3 -24 22q-3 5 -10.5 18.5t-10.5 18.5q-3 6 -1 12.5t8.5 10t13 1.5t10.5 -8z" />
    <glyph glyph-name="slash" unicode="/" horiz-adv-x="500" 
d="M42 31l178 297l222 363q3 5 10 6.5t13 -2t8 -10.5t-2 -14q-81 -125 -222 -362l-178 -296q-4 -6 -11 -7.5t-13 2t-7.5 10.5t2.5 13z" />
    <glyph glyph-name="zero" unicode="0" horiz-adv-x="463" 
d="M244 658q-62 4 -107 -74q-47 -79 -59 -203q-12 -125 19 -222q34 -104 107 -128q69 -23 126 42q48 55 70 141q34 139 -4 266q-40 134 -152 178zM253 691l4 -2q127 -50 172 -200q40 -135 3 -285q-23 -91 -76 -152q-72 -83 -162 -54q-89 30 -129 150q-34 104 -21 237
q13 131 63 217q50 83 119 89q9 5 16 4q4 -2 11 -4z" />
    <glyph glyph-name="one" unicode="1" horiz-adv-x="457" 
d="M79 569.5q9 4.5 35 27.5l51 48q33 30 48 42q12 9 20 13q6 3 12 3q11 1 17 -6l4 -9v-4q1 -3 1 -5v-19v-54q-1 -16 -1 -36.5t-0.5 -33t-0.5 -15.5q0 -308 -13 -469q95 -2 174 -31q6 -3 8.5 -9t0 -13t-8.5 -9.5t-13 -0.5q-57 21 -116 26q-60 5 -108.5 -0.5t-122.5 -20.5
q-6 -2 -12 2t-7.5 10.5t2.5 12.5t11 7q93 20 159 25q12 160 12 470q0 3 0.5 15.5t0.5 33.5t1 37v53l-45 -40l-51 -49q-30 -26 -45 -33q-7 -3 -13.5 -1t-9.5 8.5t-1 13t11 11z" />
    <glyph glyph-name="two" unicode="2" horiz-adv-x="546" 
d="M111 578q6 5 29.5 29t42 38t37.5 24q77 38 139 5q32 -16 49 -47.5t15 -75.5q-4 -83 -100 -236q-63 -98 -154 -210q-10 -12 -54 -59q53 6 67 7q47 2 98.5 2.5t125.5 0t100 -0.5q7 0 12 -5t5 -12t-5 -12t-12 -5q-27 0 -99.5 0.5t-123.5 0t-101 -2.5q-16 -1 -89 -11
q-2 0 -8 -3q-11 -3 -12 -3q-12 -4 -18 -4q-8 1 -14 7q-5 6 -5 15q0 20 24 31q4 2 6.5 2.5t6.5 0.5l2 2q1 0 5 4q8 7 31 31t32 36q90 111 150 207q93 145 96 219q3 67 -44 91q-48 24 -109 -5q-18 -8 -33.5 -21t-36.5 -34t-32 -31q-5 -5 -12 -4t-12 6t-4 12t5 11z" />
    <glyph glyph-name="three" unicode="3" horiz-adv-x="500" 
d="M84 569q1 0 8 10t9 12.5l8.5 11t10 12t10 11t9.5 11.5l12 11l12 10t12 8q53 34 107 32q32 -2 55 -20.5t30 -54.5q11 -57 -32 -115q-17 -24 -66 -71q54 6 79 3q50 -7 81.5 -36t45.5 -72q11 -40 6.5 -84t-23.5 -83q-24 -48 -68 -87t-97 -61t-111.5 -29.5t-110.5 8.5
q-7 2 -10.5 7.5t-1.5 12.5t8 10.5t13 1.5q94 -26 199.5 19.5t148.5 133.5q16 32 19.5 70t-5.5 71q-23 74 -98 84l-36 2q-14 0 -35.5 -5.5t-33.5 -10l-34.5 -13t-37.5 -12.5q-3 0 -6 -1q-2 -1 -7 1q-9 2 -11 11q-2 6 1 13q1 3 5 5q1 2 5 4l23 15q38 23 56 37q51 42 74 75
q34 48 26 90q-7 45 -52 47q-43 2 -88 -27q-15 -9 -31 -26t-24 -27l-26 -35q-4 -6 -11 -7t-12.5 3.5t-6.5 11.5t2 12z" />
    <glyph glyph-name="four" unicode="4" horiz-adv-x="562" 
d="M284 236q-9 158 -5 342q-49 -105 -103 -205q-40 -73 -84 -133h70q54 0 122 -4zM321 703q-19 -200 -2 -468q81 -7 208 -20q7 -1 11 -6.5t3.5 -12.5t-6 -11.5t-12.5 -3.5q-121 13 -201 19q9 -115 23 -204q0 -7 -4 -13t-11 -7t-12.5 3.5t-6.5 11.5q-14 93 -24 212
q-70 3 -125 3q-54 0 -71 -2q-4 0 -5.5 -1t-4.5 -2t-8 -2q-21 -7 -35 2q-10 7 -7 19q0 6 4 10q3 5 11 13q19 18 26 27q33 45 74 119q108 202 141 318v2q1 5 6.5 9.5t12.5 3.5t11 -6t4 -13z" />
    <glyph glyph-name="five" unicode="5" horiz-adv-x="472" 
d="M371 662q-93 0 -133 -1q-53 -1 -80 -3q-16 -1 -26 -3h-9q-3 -13 -4 -19q-3 -21 -3 -55q0 -23 0.5 -57t0.5 -64q28 27 36 34q74 57 146 57q85 -1 129 -84q43 -87 30.5 -181t-68.5 -172q-38 -52 -88 -83t-112.5 -39t-130.5 23q-6 3 -8.5 10t0.5 13t9.5 8.5t12.5 0.5
q57 -27 112 -21.5t99 34t78 74.5q52 71 62.5 157t-26.5 160q-35 65 -100 66q-59 0 -123 -49q-16 -12 -42 -41l-17 -18q-4 -5 -6 -6q-2 -2 -5 -3q-3 -3 -6 -3q-8 -1 -13 4q-3 2 -4.5 4.5t-1.5 1.5v5q-1 1 -1 -1v3v4v7q1 8 2 24q0 6 0.5 15t1 14.5t0.5 6.5q0 5 -0.5 39.5
t-0.5 56.5q0 36 3 58q2 14 5 23q4 14 14 20q6 3 22 6q12 2 30 4q25 2 81 3q42 1 134 1q7 0 12 -5t5 -12t-5 -12t-12 -5z" />
    <glyph glyph-name="six" unicode="6" horiz-adv-x="472" 
d="M256 46q62 43 103 106q42 65 54 126q11 61 -17 89q-8 8 -20.5 11t-22.5 1q-32 -11 -56.5 -51t-37.5 -100q-20 -94 -3 -182zM230 681q-48 -26 -90 -119q-43 -93 -58 -207q-16 -119 5 -204q23 -92 85 -117q20 -8 53 -2q-23 91 2 204q13 65 42 113t74 62q21 6 42 0t35 -20
q40 -40 26 -118q-13 -68 -58 -140q-46 -72 -104 -109q-67 -45 -124 -22q-78 30 -105 139q-24 93 -7 219q17 118 60 216q47 105 107 135q7 3 13.5 1t9.5 -8.5t1 -13t-9 -9.5z" />
    <glyph glyph-name="seven" unicode="7" horiz-adv-x="401" 
d="M50 704q16 -2 31.5 -3t33 -1.5t29.5 -1t33 0t29 0.5t32 1t29.5 1t34 1.5t32.5 1.5q2 0 7 1q10 3 12 3q23 4 32 -12q3 -6 3 -12q0 -2 -0.5 -3l-1.5 -3l-3 -6q-3 -6 -8 -17l-27 -52q-43 -80 -54 -106q-22 -55 -41 -117q30 0 59.5 1t33.5 1q8 0 13 -5t5 -12.5t-5 -13
t-11 -5.5q-88 -2 -104 -2q-29 -127 -34 -314q0 -7 -5.5 -12t-12.5 -5t-11.5 5.5t-4.5 13.5q5 183 33 313q-60 1 -100 9q-7 1 -11.5 7t-3 13.5t7.5 11.5t13 3q42 -8 103 -9q19 68 45 130q11 28 55 110l26 49q-202 -10 -298 -1q-7 1 -11.5 6.5t-4 13.5t6 12.5t13.5 3.5z" />
    <glyph glyph-name="eight" unicode="8" horiz-adv-x="463" 
d="M205 433h1q31 21 49.5 44t25 48t4.5 49t-12 44q-22 41 -60 46q-47 4 -97 -51q-22 -21 -34.5 -51.5t-11.5 -58.5q1 -62 65 -76q27 -5 47 -4l3 2l4 2l3 1q6 4 13 5zM201 393l-37 -46q-49 -64 -63 -141q-17 -92 30 -147q49 -59 140 -40q37 8 68 44.5t47.5 88.5t13.5 99
q-3 49 -27 77q-42 50 -147 70q-5 0 -11 -3q-7 -1 -9 -2h-5zM156 395q-23 0 -28 2q-46 9 -68.5 38t-23.5 68q-1 34 14 71t40 63q63 66 126 59q28 -3 50.5 -20t36.5 -43q14 -28 16.5 -61.5t-10.5 -68t-52 -74.5q101 -28 142 -77q31 -38 35 -98t-16 -112q-18 -58 -55 -102
q-36 -43 -84 -53q-56 -13 -100 1t-73 48q-28 34 -38 80t-1 97q15 86 71 158z" />
    <glyph glyph-name="nine" unicode="9" 
d="M352 594l-21 -28q-67 -107 -105 -152q-39 -46 -75 -66q-47 -29 -86 -8q-52 27 -39 111q12 69 62 143q54 77 115 107q78 36 144 -18q12 7 19 7q9 0 15 -8q1 -2 2 -5v-2.5t1 -5.5v-13q1 -16 1 -44q1 -53 1 -114q0 -81 -1 -241.5t-1 -241.5q0 -7 -5 -12t-12 -5t-12 5t-5 12
q0 81 1 241.5t1 241.5v96zM320 661q-45 37 -101 10t-103 -96q-47 -67 -56 -129q-10 -59 21 -76q21 -11 53 6q30 18 66 60.5t102 146.5q18 29 40 71q-18 4 -22 7z" />
    <glyph glyph-name="colon" unicode=":" horiz-adv-x="154" 
d="M72 439l25 33q3 7 10 8t13 -3t7.5 -10.5t-3.5 -12.5l-28 -41q-7 -8 -12 -12q-10 -8 -20 -6t-16 13q-4 5 -6 16q-2 3 -12 43q-2 7 1.5 12.5t10.5 7.5t13 -1.5t8 -10.5zM79 58l18 33q3 7 9.5 9t13 -1t8.5 -9.5t-1 -13.5q-18 -38 -28 -51q-7 -11 -15 -14q-15 -5 -25 7
q-4 5 -7 15q-2 4 -6 16q-7 25 -13 39q-3 7 -0.5 13t9 9t13 0.5t10 -11t14.5 -41.5z" />
    <glyph glyph-name="semicolon" unicode=";" horiz-adv-x="182" 
d="M90 440l19 34q3 7 10 8.5t13 -2t8 -10t-2 -12.5q-19 -35 -27 -45q-6 -9 -11 -13q-12 -8 -24 -1q-8 4 -12 13q-3 6 -7 16q-1 4 -5.5 19.5t-7.5 24t0.5 15t10 8.5t13 -1t8.5 -10zM80 45q3 -51 -13 -84q-16 -31 -59 -63q-5 -5 -12 -4t-11 7t-3 12.5t6 10.5q35 28 47 51
q14 26 11 68q-1 7 3.5 12t11.5 6t12.5 -4t6.5 -12z" />
    <glyph glyph-name="less" unicode="&#x3c;" horiz-adv-x="300" 
d="M257 512q-9 -12 -116 -124l-65 -68l-20 -26q0 -1 -5 -6q7 -24 22 -49q22 -34 61 -80q70 -82 123 -130q5 -5 5.5 -12t-4 -12t-11.5 -6t-12 4q-56 50 -127 133q-40 49 -63 84q-29 47 -27 71q0 6 4 13q3 5 8 11q7 11 21 26q21 24 65 70q104 110 113 121q4 6 11 7t12.5 -3.5
t6.5 -11.5t-2 -12z" />
    <glyph glyph-name="equal" unicode="=" horiz-adv-x="235" 
d="M39 338q90 -6 134 -3q7 1 12.5 -4t6 -12t-4 -12t-11.5 -6q-47 -3 -140 3q-6 1 -11 6t-4.5 12t6 12t12.5 4zM39 246q133 -7 139 -7q7 0 12 -5t5 -12t-5 -12t-12 -5t-140 7q-8 1 -12.5 6t-4 12t5.5 12t12 4z" />
    <glyph glyph-name="greater" unicode="&#x3e;" horiz-adv-x="300" 
d="M64 515q27 -25 114 -127q42 -47 66 -79l21 -31q5 -6 7 -10q4 -8 4 -15q0 -6 -4 -13l-7 -10q-8 -11 -21 -24q-20 -23 -62 -67l-62 -64l-46 -46q-5 -6 -12 -6t-12 5t-5 11.5t4 11.5l46 46l63 65q39 41 60 65l23 28q-11 16 -24 33l-65 79q-88 102 -111 122q-5 5 -5.5 12
t4 12t12 6t12.5 -4z" />
    <glyph glyph-name="question" unicode="?" 
d="M149 41l18 35q3 7 10 9t13 -1t8.5 -9.5t-1.5 -13.5q-15 -33 -22 -42q-15 -23 -34 -16q-7 3 -13 11q-4 3 -9 12q-18 24 -28 36q-4 4 -3.5 11t6 12t12 4t12.5 -7q9 -11 31 -41zM29 554q39 69 90 107q38 27 86.5 31t93 -19t63.5 -68q34 -77 -28 -143q-43 -46 -120 -75
l-50 -13q-27 -8 -35 -15l-5 -4q0 -4 -1 -9t-1 -13q-1 -19 4 -53q3 -21 10 -59q7 -34 8 -43t-3.5 -14.5t-11.5 -6.5t-12.5 3.5t-6.5 11.5q-1 8 -7 43l-11 60q-5 36 -4 60q2 34 16 48t52 23l44 11q71 27 110 68q45 50 20 106q-22 51 -83 64t-108 -22q-45 -33 -79 -95
q-4 -6 -10.5 -8t-13 1.5t-8.5 10t1 12.5z" />
    <glyph glyph-name="at" unicode="@" horiz-adv-x="778" 
d="M400 525q-44 -12 -86 -63q-40 -48 -63.5 -112t-19.5 -111q5 -44 35 -54q38 -14 82 17q43 28 60 72q18 44 21 81v18q0 6 0.5 9t0.5 4q1 3 3 6q4 5 10 6q8 1 14 -3q3 -2 4 -7q3 -4 2 -3l1 -3q1 -7 1 -24q0 -14 1 -20q7 -56 49.5 -86t95.5 -14q34 12 60.5 54t38.5 103
q11 60 4 113q-7 55 -28 83q-44 56 -112 80t-139.5 16t-137.5 -42q-91 -47 -154 -154t-70 -219q-7 -116 51 -188q66 -81 203 -82q81 -1 133 21q51 22 118 80q6 6 13 5t11.5 -6t4 -12t-5.5 -11q-72 -62 -129 -87t-145 -24q-153 2 -229 94q-67 82 -59 212q7 120 74.5 234
t168.5 167q70 36 148 45.5t155 -17t127 -90.5q28 -37 36 -102t-5 -122q-13 -66 -44 -118q-31 -51 -78 -65q-50 -16 -94 1q-43 17 -76 68l-11 -11q-21 -56 -72 -91q-59 -40 -114 -22q-51 18 -57 85q-5 55 21 126q26 69 72.5 125t100.5 70q7 2 13 -1.5t8 -10.5t-1.5 -12.5
t-10.5 -7.5z" />
    <glyph glyph-name="A" unicode="A" horiz-adv-x="574" 
d="M145 220q146 45 265 69q-27 96 -55 210q-2 9 -20 99l-8 31q-67 -139 -97 -208zM129 179q-38 -94 -71 -187q-2 -7 -8.5 -9.5t-13 -0.5t-9.5 8.5t0 12.5l60 166q-24 -10 -28 -10q-8 -2 -13.5 2t-7 11t2.5 12.5t11 6.5q21 4 51 15q45 115 95 229l88 187l23 52q6 12 7.5 15.5
t3 6t3.5 3.5q2 3 6 5q11 4 19 -5l4 -7q-1 1 -1 4v-1v-5l1 -1v1l1 -6l4 -20l11 -60q17 -89 19 -97q31 -122 56 -211q47 7 81 11q7 1 13 -3.5t6.5 -11.5t-4 -12.5t-11.5 -6.5q-31 -3 -76 -11q42 -136 87 -243q2 -6 -0.5 -12.5t-9 -9t-13 0t-9.5 9.5q-45 109 -88 250
q-121 -24 -252 -65q-10 -3 -38 -13z" />
    <glyph glyph-name="B" unicode="B" horiz-adv-x="463" 
d="M94 -2q-9 -13 -18 -12q-7 0 -12 5.5t-5 12.5q3 116 4.5 219t-8 218t-30.5 215q-2 7 1.5 13t10.5 7.5t13 -2t7 -10.5l5 -23q78 43 151 53q55 8 89 -9q44 -22 47 -78q3 -54 -51 -116q-28 -31 -92 -81q69 0 109 -17t70 -44q38 -35 53 -79.5t0 -92.5q-31 -93 -150 -141
q-85 -33 -194 -38zM94 32q105 6 181 36q105 41 130 119q24 75 -43 136q-29 29 -68.5 42.5t-75.5 9.5q-22 -2 -37 -6t-22.5 -7t-30.5 -13q-9 -5 -32 -14q4 -120 -2 -303zM69 603q18 -104 25 -233l18 9q14 10 36 28l39 32q54 40 86 74q44 51 42 93q-2 35 -28 49q-25 12 -70 6
q-39 -5 -80 -21.5t-68 -36.5z" />
    <glyph glyph-name="C" unicode="C" horiz-adv-x="494" 
d="M332 574q-20 48 -46 69.5t-52 20.5t-53 -24.5t-50 -69.5q-44 -88 -59 -217.5t12 -223.5q33 -108 115 -109q36 0 76 21t74 58q6 6 13 14l10 13q4 5 10 14t9.5 13.5t10 15.5l8.5 14.5t10 15.5l8 14l10 16q9 14 10 16q3 5 9.5 7t12.5 -1.5t8 -10.5t-1 -12q-1 -1 -10 -16.5
t-11 -18.5t-10 -16.5t-11.5 -18.5t-10.5 -16t-11 -18l-12 -16q-7 -9 -13.5 -16.5l-12.5 -14.5q-39 -43 -85.5 -67.5t-91.5 -23.5q-49 1 -87.5 34.5t-59.5 98.5q-28 103 -12 238q16 134 62 229q25 51 59.5 80.5t72.5 31.5q40 2 74 -27t57 -85q2 -6 -0.5 -12.5t-9 -9t-13 0
t-9.5 9.5z" />
    <glyph glyph-name="D" unicode="D" horiz-adv-x="540" 
d="M114 652v-623q164 -6 257 40q84 42 111 113q28 70 8 154q-18 80 -71 152q-55 72 -125 110q-78 44 -180 54zM33 686q150 12 278 -58q76 -42 134 -119.5t79 -164.5q22 -94 -10 -176t-128 -129q-65 -33 -141 -40.5t-167 -1.5q-6 1 -11 6t-4 12q0 11 17 17v623l-44 -3
q-7 -1 -12.5 4t-6 12t4.5 12t11 6z" />
    <glyph glyph-name="E" unicode="E" horiz-adv-x="454" 
d="M79 661q95 15 255 52q7 2 13 -1.5t7.5 -10.5t-2 -13t-10.5 -7q-162 -38 -257 -54h-11q-1 -42 -6 -111l-11 -173q15 0 18 1q33 6 67 14t88 22l67 19q7 2 12.5 -1.5t7.5 -10.5t-1.5 -12.5t-10.5 -7.5l-54 -15l-60 -16q-22 -6 -53.5 -13.5t-57.5 -12.5q-5 -1 -24 6
q-2 -107 3 -166q7 -78 27 -96q40 -38 148 -20q80 14 161 50q6 2 13 -0.5t9.5 -8.5t0 -13t-8.5 -10q-85 -36 -170 -51q-124 -21 -175 27q-30 29 -39 119q-6 68 -2 182q2 58 11 189q7 103 6 132q0 7 4.5 12.5t11.5 5.5q8 0 20 -12q5 5 3 5z" />
    <glyph glyph-name="F" unicode="F" 
d="M88 658q92 13 277 52q7 2 13 -1.5t7.5 -10.5t-2 -13t-10.5 -7q-188 -40 -281 -54h-17q1 -101 5 -278q42 8 74.5 16t74.5 20l62 17q7 2 12.5 -1.5t7.5 -10.5t-1.5 -12.5t-10.5 -7.5l-64 -18l-82 -21q-32 -9 -72 -17q5 -188 5 -291q0 -7 -5 -12t-12 -5t-12 5t-5 12
q0 105 -5.5 316t-5.5 316q0 7 5 12t12 5q10 0 18 -12q9 0 12 1z" />
    <glyph glyph-name="G" unicode="G" horiz-adv-x="500" 
d="M304 637q-55 51 -109 16q-49 -30 -83 -105q-44 -95 -48 -206t42 -202q29 -52 68 -82.5t79 -33.5t77.5 22.5t65.5 84.5q25 54 37 152q-48 -10 -172 -52q-7 -2 -13.5 1t-8.5 9.5t1 13t9 9.5q7 1 45 14t52.5 17.5t43 12t51.5 12.5h4q4 1 7 1q7 -1 12 -6t4 -12l-1 -8
q11 -54 16 -121.5t5.5 -109.5t0.5 -120q0 -7 -5 -12t-12 -5t-12 5t-5 12q0 123 -5 227q-20 -47 -24 -53q-31 -68 -77.5 -100.5t-98.5 -27.5q-50 5 -95.5 40.5t-78.5 93.5q-33 61 -42.5 141.5t4 156.5t42.5 140q40 85 96 121q33 22 73 18t77 -38q6 -5 6 -12t-5 -12.5
t-11.5 -5.5t-11.5 4z" />
    <glyph glyph-name="H" unicode="H" horiz-adv-x="491" 
d="M357 344q-122 -7 -246 -26q3 -161 3 -298q0 -7 -5 -12t-12 -5t-12 5t-5 12q0 133 -3 292l-34 -7q-6 -1 -12 3t-7.5 11t2.5 12.5t11 7.5l39 7q-2 153 -8 326q0 7 5 12.5t11.5 5.5t12 -5t5.5 -11q5 -169 8 -322q127 20 248 25q0 44 1.5 152t1.5 167q0 7 5 12t12 5t12 -5
t5 -12q0 -59 -1.5 -167t-1.5 -150q33 1 57 1q7 0 12 -5t5 -12t-5 -12t-12 -5q-24 0 -58 -1q0 -193 12 -329q1 -7 -3.5 -12t-12 -6t-12.5 3.5t-6 12.5q-12 138 -12 330z" />
    <glyph glyph-name="I" unicode="I" horiz-adv-x="100" 
d="M72 674q12 -373 12 -654q0 -7 -5 -12t-12 -5t-12 5t-5 12q0 281 -12 652q0 7 5 12.5t11.5 5.5t12 -5t5.5 -11z" />
    <glyph glyph-name="J" unicode="J" horiz-adv-x="434" 
d="M51 256q1 -5 6 -27t7 -28.5t7 -24t8 -26.5t8.5 -22.5t12.5 -24.5t14 -20q29 -36 64.5 -51.5t70 -10t63 30.5t44.5 69q19 58 28.5 120.5t7.5 139t-6 124.5t-13 135q-3 24 -4 37q0 7 4 12.5t11 6.5t13 -3.5t6 -11.5q1 -7 6 -54t6 -58l5 -56q4 -43 4 -59.5t1.5 -56.5t0 -61
t-3.5 -56.5t-7 -60l-11.5 -54t-16.5 -56.5q-18 -51 -53.5 -83t-80 -39t-88.5 12.5t-77 61.5q-10 14 -19.5 30.5t-14.5 28.5t-12 34.5t-8 29.5l-8 34q-7 28 -7 29q-2 8 1.5 14t10.5 7.5t13 -2t7 -10.5z" />
    <glyph glyph-name="K" unicode="K" horiz-adv-x="457" 
d="M307 651l-115 -156q-42 -58 -64 -95q-14 -20 -21 -33l-5 -13q2 -18 18 -45q11 -17 32 -47q59 -79 120 -130q58 -49 149 -94q6 -3 8 -9.5t-1 -13t-9.5 -8.5t-13.5 1q-90 43 -155.5 98t-125.5 136l-42 60q2 -162 2 -282q0 -7 -5 -12t-12 -5t-12 5t-5 12q0 281 -12 652
q0 7 5 12.5t11.5 5.5t12 -5t5.5 -11l8 -275l18 19q23 37 66 96l115 157q4 6 11 7t13 -3t7 -11t-3 -13z" />
    <glyph glyph-name="L" unicode="L" horiz-adv-x="438" 
d="M74 687q1 -33 -5 -142q-9 -159 -10 -200q-4 -118 2 -188q4 -41 10 -66q7 -26 16 -35q39 -39 143 -19q73 14 158 52q6 2 13 -0.5t9.5 -8.5t0 -13t-8.5 -10q-90 -38 -166 -53q-122 -23 -173 28q-15 15 -24 50q-8 29 -12 73q-6 71 -2 192q2 49 10 199q6 109 5 139
q0 7 4.5 12.5t11.5 5.5t12.5 -5t5.5 -11z" />
    <glyph glyph-name="M" unicode="M" horiz-adv-x="700" 
d="M26 20l80 494l16 87q9 48 9 53l5 18q2 6 2 7q-1 0 0 1q2 4 2 5q2 3 7 5q9 5 18 0q4 -2 9 -6.5t10 -14.5q9 -15 21 -41q15 -37 25 -66q15 -43 70 -163q27 -60 43 -91l11 -26l17 27q20 33 49 93l77 162l5 10l12 26l13 27q12 24 22 39q6 9 10 13q3 4 7 7q8 5 16 2
q4 -1 7 -3.5t4 -3.5l2 -4q1 -2 2 -6q3 -8 6 -19l10 -52q0 -2 14 -85q50 -305 70 -494q0 -7 -4.5 -12.5t-11 -6.5t-12.5 3.5t-6 11.5q-18 169 -70 494q-13 80 -13 81l-7 35l-16 -15l-13 -29l-12 -25l-5 -10l-76 -161q-30 -61 -50 -95q-13 -21 -21 -32q-5 -7 -9 -10
q-9 -8 -18 -8q-6 0 -11 4l-5 5q-3 3 -8 10q-7 11 -16 31q-18 34 -44 93q-54 119 -70 165q-9 25 -36 89l-8 -44l-15 -85l-80 -495q-1 -7 -7 -11.5t-13 -3.5t-11 7t-3 13z" />
    <glyph glyph-name="N" unicode="N" horiz-adv-x="500" 
d="M43 19q2 104 2 146t-3 144.5t-4 146.5q0 5 -0.5 22t-1 42t-1.5 45q0 41 -1 63v21q0 4 0.5 6.5t0.5 3.5l1 4q1 2 3 4q6 6 14 6q5 0 9 -3l3 -3l2 -2q1 -3 5 -8q3 -5 9 -17l29 -56l48 -92q111 -209 229 -355l66 -85l-2 54q-5 100 -5 112q2 103 2 185q0 215 4 278q1 7 6 12
t12 4t12 -6t4 -12q-4 -63 -4 -276q0 -82 -2 -187q0 -2 5 -107l3 -64v-22v-7v-4v-2q-1 -3 -4 -7q-7 -9 -18 -6q-5 1 -10 4.5t-12 10.5l-27 32l-56 71q-122 150 -233 361l-58 114q0 -58 0.5 -79.5t1 -35.5t0.5 -19q1 -42 4 -146.5t3 -146.5t-2 -145q-1 -7 -6 -12t-11.5 -4.5
t-11.5 5.5t-5 12z" />
    <glyph glyph-name="O" unicode="O" horiz-adv-x="488" 
d="M238 693q6 2 9 1q63 -11 109.5 -51t70.5 -97t34 -120q10 -61 4 -127q-12 -139 -79 -221q-35 -45 -82.5 -62.5t-104.5 -0.5q-45 13 -78 46t-51.5 78t-26.5 95q-9 50 -7 105q4 112 42 209q40 98 106 136q21 13 54 9zM255 656q-6 1 -14.5 2t-11.5 1.5t-9.5 0.5t-9.5 -1.5
t-7 -2.5q-58 -33 -95 -123q-36 -88 -38 -195q-3 -110 32 -188q36 -81 107 -103q89 -25 151 52q60 75 71 203q7 81 -9 153t-57.5 127.5t-105.5 73.5h-4z" />
    <glyph glyph-name="P" unicode="P" 
d="M73 638q6 -193 9 -362q65 7 96 21q69 29 125.5 100t55.5 139q-1 50 -28.5 84.5t-73.5 49.5q-43 13 -91.5 6.5t-83.5 -33.5zM73 678q48 29 99 34t96 -10q54 -19 89 -61.5t36 -104.5q1 -80 -62 -159t-139 -112q-38 -16 -109 -23q1 -119 1 -222q0 -7 -5 -12t-12 -5t-12 5
t-5 12q0 281 -12 652q0 7 5 12.5t11 5.5q9 0 19 -12z" />
    <glyph glyph-name="Q" unicode="Q" horiz-adv-x="494" 
d="M372 60q-80 -73 -173 -45q-45 13 -78 46t-51.5 78t-26.5 95q-9 50 -7 105q4 112 42 209q40 98 106 136q21 13 54 9q6 2 9 1q63 -11 109.5 -51t70.5 -97t34 -120q10 -61 4 -127q-11 -124 -72 -212q40 -44 67 -71q5 -5 5 -12t-5 -12t-12 -5t-12 5q-26 25 -64 68zM255 656
q-6 1 -14.5 2t-11.5 1.5t-9.5 0.5t-9.5 -1.5t-7 -2.5q-58 -33 -95 -123q-36 -88 -38 -195q-3 -110 32 -188q36 -81 107 -103q76 -22 140 38l-68 76q-4 5 -4 11.5t5.5 11.5t12 5t12.5 -6l64 -71q51 85 60 190q7 81 -9 153t-57.5 127.5t-105.5 73.5h-4z" />
    <glyph glyph-name="R" unicode="R" horiz-adv-x="460" 
d="M73 636q5 -159 8 -301q63 5 95 17q65 24 119 79q61 61 60 120q-1 87 -102 111q-45 10 -92.5 3.5t-87.5 -29.5zM131 306l82 -79l74 -71q25 -24 67 -58.5t79 -59.5q6 -4 7.5 -11t-2.5 -12.5t-11 -7t-12 2.5q-54 35 -104 78.5t-121 112.5l-108 105q2 -161 2 -286
q0 -7 -5 -12t-12 -5t-12 5t-5 12q0 281 -12 652q0 7 5 12.5t11 5.5q10 0 21 -14q46 20 93.5 24.5t92.5 -5.5q55 -13 91 -49t37 -95q1 -72 -69 -144q-60 -60 -133 -87q-17 -6 -56 -14z" />
    <glyph glyph-name="S" unicode="S" horiz-adv-x="451" 
d="M389 631q-92 43 -163 26q-26 -7 -50 -27.5t-39 -47.5q-33 -63 -1 -110q12 -19 32.5 -39t35.5 -31l48 -34l47 -33q57 -41 92 -83.5t43 -98.5q10 -76 -44 -117q-43 -34 -120 -37q-69 -2 -137.5 23t-100.5 69q-4 5 -3 12t6.5 11.5t12.5 3.5t12 -7q25 -35 85.5 -57.5
t124.5 -20.5t100.5 31t28.5 83q-6 48 -36.5 84.5t-83.5 75.5q-8 7 -44 31.5t-52 37t-39.5 34.5t-36.5 42q-21 37 -20 73.5t19 71.5q18 34 48 59t65 33q82 20 183 -26q7 -3 9.5 -10t-0.5 -13t-9.5 -8.5t-12.5 -0.5z" />
    <glyph glyph-name="T" unicode="T" horiz-adv-x="491" 
d="M40 629q50 2 106.5 11.5t95.5 19.5t106.5 29t99.5 27q7 2 12.5 -1.5t7.5 -10.5t-1.5 -12.5t-10.5 -7.5l-93 -26l-101 -28q-12 -321 24 -612q1 -7 -3.5 -12.5t-11.5 -6.5t-12.5 3.5t-6.5 12.5q-36 285 -25 607q-107 -24 -185 -27q-7 0 -12.5 5t-5.5 11.5t5 12t11 5.5z" />
    <glyph glyph-name="U" unicode="U" horiz-adv-x="444" 
d="M68 667q-4 -91 -5 -173t11 -171.5t39 -163.5q21 -59 44 -90q32 -46 68 -45q51 1 88 78q33 68 52 191q22 149 22 373q0 7 5 12t12 5t12 -5t5 -12q0 -226 -23 -377q-20 -129 -54 -202q-45 -95 -117 -97q-56 -2 -98 60q-25 35 -48 97q-28 76 -41 170.5t-11.5 177.5t5.5 172
q1 8 6 13t12 4t12 -6t4 -11z" />
    <glyph glyph-name="V" unicode="V" horiz-adv-x="469" 
d="M68 674q18 -40 37 -106q26 -90 31 -104q59 -180 81 -253q2 -6 32 -135q15 75 18 86q1 1 4 11l8 26l10 40q6 24 28.5 108l33.5 124l32 104q21 66 41 117q2 7 8.5 9.5t13 0t9.5 -8.5t0 -14q-23 -62 -39 -114q-21 -64 -32 -103l-32 -123l-30 -109l-10 -39l-8 -26
q-3 -9 -4 -11q-3 -12 -12 -62q-3 -8 -6.5 -29t-4.5 -30q-4 -15 -7 -21.5t-7 -10.5q-9 -9 -21 -5q-3 2 -5 3.5t-2 0.5l-1 2l-2 4l-1 2q0 2 -2 8t-5 20l-16 63q-23 99 -24 102q-21 73 -81 253q-4 12 -31 105q-18 62 -35 101q-3 7 -0.5 13t9 9t13 0.5t9.5 -8.5z" />
    <glyph glyph-name="W" unicode="W" horiz-adv-x="756" 
d="M61 649l42 -129l52 -160q21 -67 39 -131l34 -122q29 138 72 267l24 66l6 17q3 5 3 8q0 -2 2 1v0q1 2 1 3q3 2 5 4q7 4 14 2q11 -4 24 -24q9 -13 21 -37q19 -38 47 -107l44 -113l25 -67q23 -57 38 -104l8 74q13 122 29 192q47 218 141 412q3 6 10 8t13 -1t8 -9.5t-1 -13.5
q-91 -190 -138 -404q-15 -67 -28 -187q-6 -52 -8 -65q-1 -13 -4 -20q-2 -5 -6 -9q-5 -8 -13 -9q-12 -2 -22 8q-6 5 -12 14q-10 14 -21 37q-1 5 -25 63q0 1 -25 69l-44 113q-29 67 -47 103l-15 30l-21 -66q-50 -146 -71 -258v0q0 -1 -1 -4t-1.5 -6.5l-1 -7t-1.5 -8t-2 -10.5
t-1 -10q-4 -20 -6 -33l-3 -12l-2 -6q-1 -4 -4 -6q-6 -7 -14 -6q-9 0 -14 7q-3 4 -4 8q0 5 -2 15q-2 25 -4 39q-10 46 -40 157l-39 130l-52 158l-42 130q-2 6 1 12.5t10 8.5t13 -1t9 -10z" />
    <glyph glyph-name="X" unicode="X" horiz-adv-x="500" 
d="M276 372q114 -201 190 -352q3 -7 1 -13.5t-8.5 -9.5t-13 -1t-9.5 8q-69 139 -179 330q-101 -206 -178 -339q-3 -7 -9.5 -8.5t-12.5 2t-8 10t2 12.5q81 142 186 359l-168 291q-4 6 -2 13t8 10.5t12.5 1.5t9.5 -7l158 -271l133 276q3 6 9.5 8t13 -1t8.5 -9.5t-1 -13.5z" />
    <glyph glyph-name="Y" unicode="Y" horiz-adv-x="454" 
d="M125 25q13 29 33 88l34 88l62 145q-91 142 -223 327q-4 5 -3 12t6.5 11.5t12.5 3.5t12 -7l212 -311q75 159 153 305q4 6 10.5 8t13 -1.5t8.5 -10t-1 -12.5q-134 -245 -232 -482q-10 -25 -33 -89q-21 -57 -34 -89q-3 -6 -9 -8.5t-13 0.5t-9.5 9t0.5 13z" />
    <glyph glyph-name="Z" unicode="Z" horiz-adv-x="444" 
d="M119 688q39 -6 180 -1q84 3 90 3q20 0 30 -1q6 -1 11 -2q10 -2 15 -8q5 -10 1 -23q-1 -8 -7 -19q-8 -16 -24 -44l-27 -44l-16 -26l-67 -114q61 1 94 1q7 0 12 -5t5 -12t-5 -12t-12 -5q-42 0 -115 -1q-88 -147 -154 -240l-43 -64l-22 -35h30q40 0 116 1q25 1 69 2t53 1
q61 2 73 1q7 -1 12 -6t4 -12t-6 -12t-14.5 -4t-67.5 -1q-9 0 -53 -1t-69 -2q-77 -1 -118 -1q-25 1 -42 2q-8 0 -13 1q-9 2 -13 6q-6 5 -7 11q0 3 1 7v2l1 1l4 6l7 14l27 38l43 63q60 87 142 221q-76 -1 -115 -1q-7 0 -12 5t-5 12t5 12t12 5q45 0 136 1l79 133l15 26
q17 25 27 43q11 19 24 46h-21q-1 0 -88 -3q-144 -5 -187 1q-7 1 -11.5 7t-3.5 12.5t7 11t13 3.5z" />
    <glyph glyph-name="bracketleft" unicode="[" horiz-adv-x="728" 
d="M375 672h2v-4h15v-4h8v-4h7v-3h8v-4h4v-4h7v-4h4v-8h4v-4h3v-3h4v-8h4v-8h4v-8h4v-7h3v-12h4v-11h4v-20h4v-19h3v-12h32v4h7v4h8v4h7v4h8v4h7v4h8v3h7v4h12v4h11v4h19v4h2v-4h19v-4h8v-4h3v-4h4v-3h4v-4h4v-4h3v-8h4v-11h4v-11h-4v-16h-4v-7h-3v-8h-4v-4h-4v-8h-4v-4h-3
v-3h-4v-4h-4v-4h-4v-4h-3v-4h-4v-4h-4v-4h-4v-3h-7v-4h-4v-4h-4v-4h-7v-4h-4v-4h-8v-4h-3v-3h-8v-4h-7v-4h-8v-4h-7v-4h-8v-4h-8v-4h-7v-3h-8v-4h-7v-4h-8v-4h-11v-4h-11v-4h-23v-4h9v4h-19v4h-7v4h-4v4h-4v4h-4v4h-3v7h-4v4h-4v4h-4v4h-4v8h-3v3h-4v8h-4v8h-4v4h-3v7h-4v8
h-4v8h-4v8h-3v7h-4v8h-4v8h-4v7h-3v4h-4v8h-4v8h-4v7h-4v8h-3v8h-4v11h-4v12h-4v15h-3v19h3v19h4v12h4v8h4v7h3v8h4v4h4v4h4v4h4v3h7v4h8v4h15v4zM205 568h7v-4h3v-4h4v-8h4v1h-4v-11h-4v-12h-3v-8h-4v-4h-4v-3h-4v-4h-10v4h-7v3h-8v4h-4v4h-7v4h-4v4h-4v7h4v4h4v4h4v3h26v4
h4v4h3v4h4v4zM277 460h-13v-4h15v-4h8v-4h4v-4h3v-3h4v-4h4v-8h4v-4h3v-11h4v-24h4v9h-4v-23h-4v-12h-3v-15h-4v-12h-4v-7h-4v-8h-3v-12h-4v-7h-4v-4h-4v-8h-3v-8h-4v-4h-4v-3h-4v-8h-3v-4h-4v-4h-8v-4h-4v-4h-3v-3h-8v-4h-11v-4h-6v4h-16v4h-15v3h-7v4h-8v4h-7v4h-8v4h-7v4
h-4v4h-7v3h-8v4h-8v4h-3v4h-8v4h-4v4h-7v4h-4v3h-4v4h-3v4h-4v4h-4v4h-4v4h-7v4h-4v3h-4v8h-4v4h-3v4h-4v7h-4v8h-4v8h-3v11h-4v-4h4v15h3v8h4v4h4v4h4v4h3v3h8v4h19v4h-13v-4h19v-4h11v-3h12v-4h7v-4h8v-4h7v-4h4v-4h8v-4h3v-3h8v-4h4v-4h7v-4h28v4h3v8h4v7h4v4h4v8h4v4h3
v7h4v4h4v8h4v4h3v4h4v4h4v3h4v4h7v4h8v4h15v4zM409 302h6v-4h4v-4h3v-8h32v4h-5v-4h7v-3h4v-4h4v-8h4v5h-4v-4h-4v-4h-4v-4h-3v-4h-4v-4h-12v-4h-7v-3h-11v-4h8v4h-7v3h-4v4h-4v4h-3v8h-4v8h-4v11h-4v3h4v4h4v4h4v4zM360 205h2v-3h8v-4h7v-4h4v-4h4v-4h4v-4h3v-4h4v-7h4v-20
h4v5h-4v-31h-4v-15h-4v-12h-3v-8h-4v-7h-4v-8h-4v-8h-4v-7h-3v-4h-4v-8h-4v-4h-4v-8h-3v-7h-4v-4h-4v-8h-4v-8h-3v-3h-4v-4h-4v-8h-4v-4h-3v-4h-4v-4h-4v-3h-4v-4h-7v-4h-8v-4h-25v4h-11v4h-12v4h-7v3h-11v4h-8v4h-7v4h-8v4h-4v4h-7v4h-8v3h-4v4h-7v4h-4v4h-4v4h-7v4h-4v4
h-4v3h-3v4h-4v4h-8v4h-3v4h-4v4h-4v4h-4v3h-4v4h-3v8h-4v4h-4v4h-4v4h-3v7h-4v4h-4v8h-4v8h-3v7h-4v20h-4v-9h4v16h4v7h3v4h4v8h4v4h7v4h4v3h4v4h7v4h8v4h18v-4h11v-4h11v-4h4v-3h7v-4h4v-4h8v-4h4v-4h3v-4h4v-4h4v-3h4v-4h3v-4h4v-4h4v-4h4v-4h3v-4h4v-3h4v-4h4v-4h27v8h4
v3h4v8h4v4h3v8h4v4h4v3h4v8h3v4h4v4h4v4h4v4h3v3h4v4h4v4h7v4h4v4h8v4h7v4h12v3zM17 90h-5v-4h8v-4h3v-4h4v-8h31v4h7v-4h4v-3h3v-8h4v4h-4v-7h-3v-4h-4v-4h-4v-4h-4v-4h-3v-4h-8v-3h-4v-4h-11v-4h9v4h-8v4h-4v3h-3v4h-4v8h-4v4h-4v8h-3v7h-4v4h-4v7h4v4h4v4h7v4z" />
    <glyph glyph-name="backslash" unicode="\" horiz-adv-x="454" 
d="M389 4l-165 298q-36 68 -99 197l-94 187q-3 7 -0.5 14t8 10t12.5 1t10 -8l94 -187q63 -131 99 -198l165 -298q4 -6 2 -13t-8.5 -10t-13.5 -1.5t-10 8.5z" />
    <glyph glyph-name="bracketright" unicode="]" horiz-adv-x="728" 
d="M436 101q38 43 59 59q28 22 52 25q34 5 57 -22q27 -29 -2 -76q-21 -34 -65 -69q-44 -33 -86 -49q-52 -20 -76 -2q-11 7 -28 32l-11 17q-6 11 -8 15q-35 51 -41 96q-6 47 21 66q29 19 68 -14q27 -23 60 -78zM205 515q7 8 9 12l1 3l10 46q15 59 49 77t61 9q26 -7 38 -35
q11 -23 10.5 -52.5t-12.5 -53.5q-32 -65 -44 -86q-16 -30 -28 -47q-17 -25 -30 -34q-10 -6 -28 -4q-14 1 -32 7q-35 11 -74 34q-42 23 -69 49q-33 32 -35 61q-1 23 8 38t27 20q26 7 68 -8q29 -11 71 -36zM654 348l-5 -9q-20 -32 -66 -61q-42 -25 -62 -34q-51 -21 -79 0
q-30 22 -53 83q-26 67 -5 101q22 32 53 22q20 -6 39 -34q12 -17 30 -55q49 39 81 51q45 15 66 -7q22 -23 2 -57h-1zM258 275l5 14q3 6 10 8.5t13 0t8.5 -9.5t0.5 -13q-2 -5 -8 -19q-2 -6 -3 -8q-5 -7 -13 -9q-7 -2 -14 1q-3 0 -7 3q-12 6 -20 9q-6 3 -8.5 9.5t0 13t9 9
t13.5 0.5zM503 540l16 6q7 2 13.5 -0.5t9 -9t0 -13t-9.5 -9.5l-18 -9q-7 -2 -9 -4q-7 -2 -14 1q-8 4 -11 11q-2 4 -3 9q-4 13 -7 20q-1 6 2 12.5t9.5 8.5t13 -1t8.5 -8v-14zM658 60l12 18q4 6 11 7t13 -3t7 -10.5t-3 -12.5q-7 -10 -14 -22l-4 -8q-5 -7 -10 -9q-10 -3 -17 1
q-4 2 -9 6q-15 12 -18 14q-6 4 -7 11t3 13t11.5 7t12.5 -3z" />
    <glyph glyph-name="asciicircum" unicode="^" horiz-adv-x="287" 
d="M25 596q42 74 54 91q25 39 49 43q27 4 57 -32q21 -26 60 -96q3 -6 1.5 -12.5t-7.5 -10t-13 -2t-10 8.5q-38 67 -58 90q-11 15 -25 22q-13 -10 -26 -29q-11 -17 -51 -89q-4 -6 -10.5 -8t-13 1.5t-8.5 10t1 12.5z" />
    <glyph glyph-name="underscore" unicode="_" horiz-adv-x="0" 
d="M-42 -132q14 -14 28 -26l21 23q5 5 12 6t12 -4t6 -12t-5 -12q-13 -17 -22 -23q-13 -11 -27 -10q-12 1 -26 12q-7 6 -23 22q-5 5 -5 12.5t5 12t12 4.5t12 -5zM-169 -65q14 -14 28 -26l21 23q5 5 12 6t12 -4t6 -12t-5 -12q-13 -17 -22 -23q-13 -11 -27 -10q-12 1 -26 12
q-7 6 -23 22q-5 5 -5 12.5t5 12t12 4.5t12 -5zM-297 -123q14 -14 28 -26l21 23q5 5 12 6t12 -4t6 -12t-5 -14q-13 -16 -22 -22q-13 -11 -27 -10q-12 1 -26 12q-7 6 -23 22q-5 6 -5 13.5t5 12t12 4.5t12 -5zM75 -67q14 -14 28 -26l21 23q5 5 12 6t12 -4t6 -12t-5 -12
q-13 -17 -22 -23q-13 -11 -27 -10q-12 1 -26 12q-7 6 -23 22q-5 5 -5 12.5t5 12t12 4.5t12 -5zM-435 -67q14 -15 28 -27l22 25q4 4 10.5 5t12 -4.5t6.5 -12.5t-5 -14q-13 -16 -22 -23q-13 -11 -27 -10q-12 1 -25 11l-24 24q-5 6 -5 13.5t5 12.5t12 5t12 -5zM-435 -67
q14 -15 28 -27l22 25q4 4 10.5 5t12 -4.5t6.5 -12.5t-5 -14q-13 -16 -22 -23q-13 -11 -27 -10q-12 1 -25 11l-24 24q-5 6 -5 13.5t5 12.5t12 5t12 -5zM241 -129q14 -15 28 -27l22 25q4 4 10.5 5t12 -4.5t6.5 -12.5t-5 -14q-13 -16 -22 -23q-13 -11 -27 -10q-12 1 -25 11
l-24 24q-5 6 -5 13.5t5 12.5t12 5t12 -5z" />
    <glyph glyph-name="grave" unicode="`" horiz-adv-x="167" 
d="M42 691q73 -74 83 -180q1 -7 -3.5 -12t-12 -6t-12.5 3.5t-6 12.5q-8 94 -73 158q-5 5 -5 12t5 12t12 5t12 -5z" />
    <glyph glyph-name="a" unicode="a" 
d="M305 381q-22 63 -71 76q-58 13 -108 -41q-53 -59 -68 -165t23 -175q21 -39 47 -45q19 -4 44 14q24 17 45.5 47.5t33.5 58.5q26 60 39 143q2 5 8 56q1 14 3 21q1 4 4 10zM319 246q-26 -83 -37 -109q-13 -31 -38 -65q-24 -35 -52 -55q-38 -26 -72 -19q-40 9 -70 62
q-42 78 -25 197q16 116 76 181q30 33 67 46.5t73 4.5q37 -8 64 -38t38 -76q1 -5 -1 -12v-4q2 -13 5 -38q3 -39 9 -111q2 -34 5 -79l5 -74q2 -29 3 -38q0 -8 -4 -13t-11.5 -6t-13 3.5t-5.5 11.5q-1 9 -2.5 35.5t-4.5 69.5z" />
    <glyph glyph-name="b" unicode="b" horiz-adv-x="373" 
d="M61 25q103 19 168 73t91 142q19 65 2 118q-19 58 -79 63q-50 3 -88 -37t-63 -114q-24 -75 -31 -164v-12v-48v-21zM46 654q7 -81 7 -220q1 -98 1 -165q80 194 192 186q43 -3 69.5 -26.5t38.5 -59.5q21 -63 -1 -139q-29 -97 -102 -158t-173 -79q-9 -1 -21 11q-8 -6 -10 -6
q-5 -1 -9.5 1t-5.5 3.5l-1 1.5l-3 5q0 3 -0.5 4.5l-0.5 1.5q-4 38 0 93v18v12v7v5v3q0 5 -0.5 6t-0.5 5t-0.5 10t-1 16.5t-1.5 24.5q-3 59 -4 219q-1 148 -7 218q-1 7 3.5 12t11.5 6t12.5 -3.5t6.5 -12.5z" />
    <glyph glyph-name="c" unicode="c" 
d="M258 381q-53 90 -105 68q-23 -9 -43.5 -39.5t-35.5 -73.5q-31 -96 -13 -184q19 -95 90 -117q54 -18 111 46q53 58 71 122q2 6 8.5 9.5t13 2t10 -8t1.5 -13.5q-20 -69 -79 -134q-71 -80 -146 -56q-90 28 -114 142q-19 96 14 201q36 109 100 135q37 16 74.5 -5t71.5 -77
q4 -6 2 -13t-8 -10.5t-12.5 -1.5t-10.5 7z" />
    <glyph glyph-name="d" unicode="d" horiz-adv-x="404" 
d="M350 440q-1 134 -1 220q0 7 5 12t11.5 5t12 -5t5.5 -12q0 -40 2 -462q1 -4 0 -7q1 -100 1 -177q0 -7 -5.5 -12t-12 -5t-11.5 5t-5 12v118l-42 -47q-40 -40 -84 -60q-54 -24 -94.5 -17.5t-67.5 40.5q-46 59 -33 169q12 107 71 181q71 87 169 76q36 -5 79 -34zM345 387
q-30 47 -77 53q-81 10 -139 -63q-54 -67 -64 -165q-12 -95 26 -143q40 -49 122 -12q37 17 72.5 52t65.5 88q0 36 -1 186z" />
    <glyph glyph-name="e" unicode="e" horiz-adv-x="395" 
d="M316 277q-4 22 -9 40q-13 41 -38 78q-28 41 -57 55q-31 14 -60 -5q-58 -38 -78 -132q-3 -16 -5 -42q72 -2 126 -1q56 0 90 3q14 1 31 4zM35 274q3 27 6 46q22 108 92 155q46 29 94 5q38 -18 70 -67q27 -39 42 -85q7 -20 10 -37q2 -20 -3 -31q-3 -9 -13 -13q-5 -3 -12 -4
q-12 -3 -33 -4q-35 -3 -93 -3q-54 -1 -128 1q4 -58 17 -98q30 -85 92 -104q72 -22 173 59q6 5 12.5 4t11 -6.5t4 -12.5t-6.5 -11q-114 -93 -204 -65q-79 23 -114 124q-16 49 -19 110q-18 7 -17 20q0 12 19 17z" />
    <glyph glyph-name="f" unicode="f" horiz-adv-x="300" 
d="M326 664q-81 41 -126 19q-28 -13 -39 -63q-4 -16 -9 -88q-2 -27 -3 -61q60 1 114 4q6 1 11 -4t6 -12t-4 -11.5t-13 -5.5q-52 -4 -116 -5q-1 -70 2 -166q7 -229 7 -263q0 -7 -5 -12t-12 -5t-12 5t-5 12q0 33 -7 262q-3 96 -2 167q-53 0 -96 3q-6 0 -11 5t-5 11.5t5.5 11.5
t12.5 5q43 -2 96 -2q1 34 3 63q5 74 10 94q15 66 56 85q61 30 158 -18q6 -3 8 -10t-1 -13.5t-9.5 -8.5t-13.5 1z" />
    <glyph glyph-name="g" unicode="g" horiz-adv-x="370" 
d="M305 387q-27 47 -69 53q-71 10 -122 -62q-47 -67 -55 -165q-11 -96 23 -144q16 -23 39 -27q28 -5 66 14q33 17 63 52q32 36 61 94q0 2 4 5q-1 36 -3 76q-2 21 -4.5 57t-2.5 47zM335 471q-1 -23 3 -78q2 -27 4 -50q2 -37 4 -59q9 -155 1 -248q-14 -138 -68 -190
q-69 -66 -197 8q-6 3 -8 10t1.5 13.5t10 8t12.5 -1.5q107 -61 159 -12q45 41 57 167q3 33 4 102q-31 -42 -44 -55q-36 -41 -74 -60q-48 -25 -87 -17q-37 6 -61 40q-42 59 -30 167q10 108 63 182q63 87 153 76q28 -4 64 -26v25q0 6 5 11t11.5 5t11.5 -5.5t5 -12.5z" />
    <glyph glyph-name="h" unicode="h" horiz-adv-x="435" 
d="M54 679q25 -189 17 -487q48 108 79 157q37 60 73 90q49 40 90 24q43 -16 66 -79q18 -48 25 -127q3 -33 4 -69q1 -37 1 -63t-0.5 -59.5t-0.5 -42.5q0 -7 -5 -12t-12 -5t-12 5t-5 12q0 2 1 53.5t0 94t-5 83.5q-7 73 -23 118q-17 49 -45 59q-24 9 -57 -18q-32 -26 -67 -82
q-28 -45 -51.5 -97t-31.5 -79q-17 -58 -23 -95v-21q0 -9 -2 -15q-1 -3 -3 -6q-6 -8 -14 -8q-7 0 -13 6q-2 1 -3 3q-5 7 -5 18q-1 8 -1 19q0 19 1 51q1 19 3 50t2 36q10 277 -17 481q-1 8 3 13.5t11.5 6.5t13 -3.5t6.5 -11.5z" />
    <glyph glyph-name="i" unicode="i" horiz-adv-x="158" 
d="M81 600q16 40 26 60q2 6 9 8t13 -0.5t8.5 -9.5t-0.5 -13q-11 -20 -24 -55q-4 -13 -7 -17q-6 -12 -14 -15q-12 -5 -24 5q-5 5 -11 14l-35 48q-4 5 -3 12t6.5 11.5t12.5 3.5t12 -7zM100 453q13 -182 13 -442q0 -7 -5.5 -12t-12 -5t-11.5 5t-5 12q0 258 -13 440q-1 7 3.5 12
t11.5 6t12.5 -4t6.5 -12z" />
    <glyph glyph-name="j" unicode="j" horiz-adv-x="142" 
d="M58 600q16 40 26 60q2 6 9 8t13 -0.5t8.5 -9.5t-0.5 -14q-11 -21 -24 -54q-4 -13 -7 -17q-6 -12 -14 -15q-12 -5 -24 5q-5 5 -11 14l-35 48q-4 5 -3 12t6.5 11.5t12.5 3.5t12 -7zM88 443q18 -149 12 -287q-9 -204 -71 -271l-12 -9q-5 -5 -11.5 -8l-11.5 -5.5t-12 -3.5
l-14 -3q-3 -1 -12 -2t-11.5 -1.5t-11.5 -1t-10 -0.5q-7 -1 -12.5 4t-6 12t4.5 12t12 6q24 2 34.5 3t24.5 6t23 15q54 57 63 249q6 135 -12 281q-1 7 3.5 12.5t11.5 6.5t12.5 -3.5t6.5 -11.5z" />
    <glyph glyph-name="k" unicode="k" horiz-adv-x="373" 
d="M262 436q-58 -71 -146 -163l-31 -32l-14 -7q20 -17 32 -25q31 -24 90 -63l66 -43l63 -40q24 -16 32 -22q7 -4 8 -11t-3 -13t-10.5 -7t-12.5 3l-35 22l-62 39l-64 43q-60 40 -93 64l-32 26q-1 -106 -1 -175q0 -7 -5 -12t-12 -5t-12 5t-5 12q0 107 3 320.5t3 320.5
q0 7 5 12t12 5t12 -5t5 -12q0 -92 -4 -419l41 43q87 90 144 161q4 5 11 6t12.5 -3.5t6.5 -11.5t-4 -13z" />
    <glyph glyph-name="l" unicode="l" horiz-adv-x="100" 
d="M58 692q0 -43 -0.5 -164t-0.5 -182t2.5 -157.5t6.5 -177.5q1 -6 -4 -11t-12 -6t-12 4t-6 13q-4 78 -6.5 175.5t-2.5 158t0.5 183.5t0.5 164q0 7 5 12t12 5t12 -5t5 -12z" />
    <glyph glyph-name="m" unicode="m" horiz-adv-x="655" 
d="M67 454q4 -28 8.5 -83t5.5 -62q4 -40 6 -56v-2v-2v-1v-6l-1 -2v-77q39 122 72 185q15 32 31 56q14 21 24 32q7 8 14 13q11 6 22 4q29 -6 49 -56q15 -36 26 -97q3 -17 9 -81q31 82 48 120q25 56 50 93q30 46 58 57q36 14 63 -5q21 -14 33 -47q10 -26 19 -103q3 -25 9 -135
q8 -139 13 -178q0 -8 -4 -13.5t-11.5 -6.5t-12.5 3.5t-6 11.5q-5 38 -13 183q-6 104 -9 131q-8 72 -17 95q-8 23 -20 31t-31 1t-44 -43q-22 -34 -46 -89q-45 -100 -59 -166q-3 -16 -7 -81q-2 -29 -3 -39q-1 -8 -2 -14q0 -3 -2 -5q0 -3 -2 -5q-3 -6 -8 -7q-9 -3 -17 1t-10 13
q-1 6 0 14l1.5 6t1.5 3.5t1 4.5v1v79q-2 79 -16 165q-10 58 -23 90q-6 17 -22 37q-16 -19 -28 -37q-14 -23 -29 -51q-64 -125 -76 -243q0 -2 -0.5 -8t-1 -19t-0.5 -22q-1 -20 -2 -32v-10q-1 -3 -1 -7q0 -2 -1 -5q-3 -5 -8 -8q-8 -4 -16 1q-3 1 -4.5 2.5l-1.5 1.5l-1 2l-1 2
q0 2 -1 4q0 1 -2 7l-4 19l-3 20l-1 6v11h-1v-8q-2 24 -8 138q-2 47 -2 61v6v3q-2 17 -5 49q-1 9 -5.5 62.5t-8.5 81.5q-1 7 3 13t11 7t13 -3.5t7 -11.5z" />
    <glyph glyph-name="n" unicode="n" horiz-adv-x="432" 
d="M77 237q45 95 74 140q45 69 87 94q26 17 51 15q28 -2 52 -25q59 -59 70 -211q6 -90 -5 -224q-1 -7 -6.5 -12t-12 -4t-11.5 6t-4 12q11 132 5 220q-11 139 -60 189q-15 14 -29.5 15t-32.5 -9q-34 -23 -76 -85q-33 -51 -60.5 -113t-33.5 -91q-4 -20 -5 -33q-2 -15 -2 -25
v-28q0 -19 -1 -36q0 -2 -1 -5v-3l-4 -6q-8 -7 -19 -4q-5 3 -8 7l-3 7q1 0 1 -2v3v2v12v9v12v8v119q0 186 -10 278q-1 7 3.5 12.5t11.5 6.5t12.5 -3.5t6.5 -11.5q8 -85 10 -236z" />
    <glyph glyph-name="o" unicode="o" horiz-adv-x="398" 
d="M199 491q7 3 13 2q61 -11 102 -55.5t56 -99.5t11 -115q-3 -43 -16.5 -83t-36.5 -73t-59 -51t-78 -14q-82 7 -123 90q-36 71 -30 168.5t49 161.5q44 66 112 69zM212 457q-57 6 -96 -53q-39 -58 -44 -145q-5 -89 26 -152q33 -65 95 -71q63 -5 106 49.5t48 139.5
q5 82 -28 147t-101 85h-6z" />
    <glyph glyph-name="p" unicode="p" horiz-adv-x="370" 
d="M76 17q1 -88 1 -165q0 -7 -5 -12t-12 -5t-12 5t-5 12q0 270 -8 621q0 8 4.5 13t12 5t12.5 -4.5t5 -11.5l1 -67q78 68 127 77q47 9 82 -7t55 -50q19 -31 22 -71q4 -41 -8 -79q-27 -91 -99.5 -159.5t-172.5 -101.5zM71 365q4 -161 5 -312q94 34 155 96q61 61 85 139
q21 69 -10 122q-33 54 -103 41q-8 -1 -17.5 -4.5t-16 -6.5t-16.5 -9.5t-15 -10.5l-14 -12l-14 -11q-4 -3 -16 -14t-15 -13q-2 -2 -8 -5z" />
    <glyph glyph-name="q" unicode="q" horiz-adv-x="380" 
d="M358 480q12 -398 0 -641q-1 -8 -6 -13t-12.5 -4t-12 6t-3.5 11q6 115 6 270q-31 -37 -46 -52q-55 -51 -134 -44q-44 4 -70 32q-27 28 -37 71q-18 82 17 182q36 103 104 155q70 54 158 22q7 20 18 21q7 0 12.5 -5t5.5 -11zM316 440q-67 35 -131 -14q-60 -46 -93 -140
q-32 -91 -16 -162q17 -72 77 -77q64 -5 108 36q37 33 66 93l3 6q-1 107 -5 247q0 11 -9 11z" />
    <glyph glyph-name="r" unicode="r" horiz-adv-x="327" 
d="M49 90q0 11 -0.5 43t-1.5 50q-1 34 -7 122t-7 135q0 8 4.5 13t12 5t12.5 -4.5t5 -11.5q1 -41 12 -222q51 106 100.5 168.5t104.5 103.5q5 4 12 3t11.5 -7t3.5 -13t-7 -11q-83 -62 -147.5 -168t-73.5 -208q1 -25 1 -42v-18l-1 -2q0 -4 -1 -6q-3 -8 -13 -10q-11 -1 -17 9
l-2 3q0 3 -0.5 4.5l-0.5 1.5q-3 30 0 62z" />
    <glyph glyph-name="s" unicode="s" horiz-adv-x="355" 
d="M298 414q-18 29 -56 39q-36 9 -74 -1q-39 -11 -60.5 -38.5t-15.5 -65.5q4 -26 36 -54q17 -15 73 -50q26 -17 40 -27.5t34.5 -29t31 -39t13.5 -43.5q4 -39 -14 -64t-50 -36q-52 -18 -119 -2q-25 5 -103 35q-6 3 -9 9t-0.5 13t9 9.5t13.5 0.5q75 -30 98 -35q57 -12 99 3
q47 15 42 63q-3 33 -30 58q-23 23 -74 56q-57 37 -77 55q-41 34 -47 74q-8 52 22 89t79 51q31 7 62 6.5t60 -16t46 -42.5q3 -6 1.5 -13t-7.5 -10.5t-12.5 -2t-10.5 7.5z" />
    <glyph glyph-name="t" unicode="t" horiz-adv-x="300" 
d="M137 416q-61 1 -107 8q-7 1 -11 7t-3 12.5t6.5 11t12.5 3.5q44 -7 102 -8q-2 138 -2 231q0 7 5 12t11.5 5t12 -5t5.5 -12q0 -92 2 -230q56 4 115 13q7 1 12.5 -3.5t6.5 -11t-3 -12.5t-11 -7q-62 -9 -120 -13q6 -312 6 -415q0 -7 -5.5 -12t-12 -5t-11.5 5t-5 12
q0 103 -6 414z" />
    <glyph glyph-name="u" unicode="u" 
d="M77 477q-11 -179 -6 -262q6 -90 27 -137q10 -24 24 -33q13 -10 31 -6q25 6 49 41q22 32 42 88q17 43 51 178q18 68 24 89l5 21l4 6q2 6 8 9q10 3 18 -5q4 -3 5 -8q6 -19 4 -47q-1 -4 -1.5 -12.5t-0.5 -11.5q-1 -11 -1 -19q0 -21 0.5 -68.5t1 -74t2.5 -66t6.5 -73
t11.5 -65.5q2 -7 -1.5 -13t-10.5 -7.5t-13 2t-7 10.5q-21 90 -24 315q-34 -130 -49 -172q-22 -59 -47 -94q-32 -47 -69 -55q-33 -8 -58 10q-22 15 -37 48q-22 50 -29 148q-5 85 6 266q1 7 6 12t12 4t12 -6t4 -12z" />
    <glyph glyph-name="v" unicode="v" horiz-adv-x="428" 
d="M53 472q25 -51 46.5 -107t46.5 -130l37 -108q16 -43 32 -78l17 45l54 141l89 241q2 7 8.5 9.5t13 0.5t9 -8.5t0.5 -12.5l-88 -242l-54 -142l-18 -46l-6 -14l-1 -3q-2 -2 -2.5 -3.5t0.5 -0.5q-3 -4 -6 -5q-13 -7 -25 0q-7 4 -13 13q-8 11 -19 33l-22 60q-14 36 -38.5 109
t-45.5 128t-45 104q-3 7 -1 13.5t8.5 9.5t13 1t9.5 -8z" />
    <glyph glyph-name="w" unicode="w" horiz-adv-x="584" 
d="M52 473l41 -144l42 -152l30 -118l38 130q23 78 40 120q9 28 18 43q5 9 10 14q8 9 18 10t21 -9q5 -5 10 -13q8 -14 20 -42q16 -36 48 -122l52 -140q17 65 23 93q10 50 35 161t37 171q1 7 6.5 11t12.5 2.5t11 -7t2 -12.5q-11 -60 -36 -171l-36 -161l-18 -86q-6 -22 -9 -35
q-2 -5 -4 -9q-1 -3 -2 -5q-1 -3 -1 -4q-5 -6 -13 -7t-15 5q-3 2 -5 5l-8 14q-8 14 -18 41l-45 121q-31 84 -48 121q-5 11 -18 37q-13 -26 -17 -38q-16 -42 -39 -118l-34 -119l-11 -40q-2 -8 -4 -12l-1 -3l-3 -6q0 -1 1 0q-2 -2 -6 -5q-13 -8 -23 5q-4 3 -6 7q-2 7 -7 19
q-7 20 -16 56q-2 6 -23 87q-14 54 -42 153l-41 144q-2 7 1.5 12.5t10.5 7.5t13 -1.5t8 -10.5z" />
    <glyph glyph-name="x" unicode="x" horiz-adv-x="373" 
d="M21 25q20 25 45 69l43 72l52 84l-113 209q-3 6 -0.5 13t8 10t13 1t10.5 -8l103 -193q76 122 128 197q4 6 10.5 7t12.5 -3t7.5 -10.5t-3.5 -12.5q-56 -82 -136 -211q76 -133 143 -236q5 -5 3.5 -12t-7.5 -11t-12.5 -2.5t-10.5 7.5q-64 95 -137 222l-42 -69l-43 -72
q-27 -44 -48 -71q-3 -6 -10.5 -7t-12.5 3t-6 11.5t3 12.5z" />
    <glyph glyph-name="y" unicode="y" 
d="M56 480q21 -67 81 -203q44 -99 71 -175l144 376q2 7 8.5 9.5t13 0.5t9 -8.5t0.5 -13.5q-17 -49 -99 -261.5t-119 -328.5q-3 -7 -9 -10t-13 -1t-10 8.5t-1 12.5q24 74 57 165q-2 7 -3 9q-22 71 -80 203q-62 144 -83 207q-2 6 1 12.5t10 8.5t13 -1t9 -10z" />
    <glyph glyph-name="z" unicode="z" 
d="M85 483q13 0 116 1h72h24h7h3h1v0l6 -2q9 -5 11 -16q1 -6 0 -14q-2 -11 -10 -29q-12 -31 -41 -83l-45 -78l55 1q7 0 12 -4.5t5 -12t-5 -12.5t-12 -5q-48 -1 -77 -1l-54 -86l-53 -75l-25 -34l97 6q138 8 179 4q6 -1 10.5 -6.5t4 -12.5t-6 -11.5t-12.5 -3.5q-34 4 -173 -4
q-16 -1 -90 -6l-30 -2q-5 -1 -7 -1h-2h-2h-2q2 0 1 0q-7 2 -10 4q-7 5 -6 15q0 1 2 4q0 3 0.5 4.5t2.5 3.5l10 15l31 44l52 74l43 67h-58q-7 0 -12 5t-5 12t5 12t12 5h79q34 55 56 96q29 50 41 80v13h-12h-72q-102 -1 -114 -1q-8 0 -13 5t-5 11.5t4.5 12t11.5 5.5z" />
    <glyph glyph-name="braceleft" unicode="{" horiz-adv-x="300" 
d="M243 711q-74 8 -120 -38t-34 -121q2 -12 8 -33l11 -37q13 -49 -4 -85q-9 -17 -57 -63q32 -3 40 -5q23 -5 30 -18q19 -33 -7 -87l-14 -25q-8 -14 -12.5 -23t-6.5 -18q-12 -52 12 -97t71 -66.5t99 -12.5q7 1 13.5 -3t7.5 -11t-3 -13t-11 -7q-46 -8 -91 6t-78 42.5t-48.5 74
t-4.5 95.5q2 10 8.5 22.5l15.5 29.5t11 22q16 31 9 56h-9q-10 3 -29 4q-6 0 -30 1h-11h-4l-6 2q-5 3 -8 10q-2 4 -1.5 8l0.5 4h2q2 8 4 10t9 8l25 23q37 33 44 47q11 24 1 60q-1 6 -11 36q-7 23 -9 39q-15 92 43 150t149 47q6 -1 10.5 -6.5t4 -12.5t-6 -11.5t-12.5 -3.5z
" />
    <glyph glyph-name="bar" unicode="|" horiz-adv-x="600" 
d="M348 361q16 89 34 139q45 126 129 137q30 4 53 -20q27 -29 21 -99q-5 -53 -28 -131q-32 -104 -87 -220l-5 -13l-10 -22q-5 -12 -8 -20l-14 -30l-5 -10l-1.5 -3t-2.5 -3q-4 -4 -8 -5q-7 -2 -14 0q-5 2 -10 5q-7 4 -21 14q-19 13 -55 42l-85 70q-7 6 -31 24l-46 36
q-22 18 -41 36q-85 76 -94 125q-12 65 19 94q26 23 78 16q37 -6 79.5 -26.5t67.5 -39.5q38 -30 85 -96zM338 310q-49 84 -97 121q-22 17 -60 35t-71 23q-35 6 -49 -8q-17 -15 -8 -62q7 -37 83 -106l42 -35l44 -36q23 -18 30 -24l85 -70q33 -26 54 -40l12 -9l12 26l25 56
q52 111 84 216q23 75 27 124q6 55 -13 74q-9 10 -22 8q-64 -8 -102 -115q-23 -62 -39 -177q-1 -7 -7 -11.5t-12 -3.5q-7 1 -13 8q-3 3 -5 6z" />
    <glyph glyph-name="braceright" unicode="}" horiz-adv-x="328" 
d="M37 -19q74 -11 121.5 33t38.5 119q-2 17 -11 45q-8 29 -9 60q-2 53 70 111q-31 6 -38 8q-23 6 -29 18q-19 37 11 87l12 18l11 17q4 7 7 13.5t5 13.5q16 84 -38.5 141t-136.5 45q-7 -1 -12.5 3.5t-6.5 11t3 12.5t11 7q66 9 120 -19t80 -84t13 -123q-1 -8 -6 -19.5
t-10 -19.5l-12 -19q-8 -12 -10 -16q-18 -29 -13 -51q8 -4 10 -4q10 -3 29 -5q7 0 29 -2l12 -1.5t5 -0.5l4 -1q6 -3 8 -10q5 -13 -6 -24q-4 -4 -12 -11q-3 -2 -9.5 -6t-12 -8.5t-11.5 -8.5q-45 -35 -43 -71q1 -28 8 -51q10 -31 13 -52q10 -92 -50.5 -147.5t-149.5 -42.5
q-7 1 -11 7t-3 12.5t6.5 11t12.5 3.5z" />
    <glyph glyph-name="asciitilde" unicode="~" 
d="M17 484q4 50 34 99q18 29 43 44t57 2q20 -9 34 -34q5 -8 19 -42q10 -24 21.5 -38t29.5 -19q33 -11 60 17q15 15 46 70q3 5 10 7t13 -1.5t8 -10.5t-2 -13q-33 -58 -50 -75q-43 -44 -95 -27q-20 6 -35.5 20t-22 26t-14.5 31q-14 31 -18 38q-8 15 -18 19q-29 14 -57 -32
q-25 -42 -29 -85q-1 -7 -6.5 -11.5t-12.5 -3.5t-11.5 6t-3.5 13z" />
    <glyph glyph-name="exclamdown" unicode="&#xa1;" horiz-adv-x="176" 
d="M95 650l-30 -47q-4 -6 -11 -7.5t-13 2t-7.5 10.5t2.5 13l29 44q6 10 11 15q9 7 18 7q10 0 19 -8q5 -5 11 -13l11 -17q8 -14 13 -20q4 -7 2 -14t-8 -10.5t-13 -2t-10 6.5zM110 498q-5 -92 -5 -245t-2 -244q0 -6 -5 -11t-12 -5t-12 5.5t-5 12.5q2 63 2 245t5 244q1 7 6 12
t12.5 4t12 -6t3.5 -12z" />
    <glyph glyph-name="cent" unicode="&#xa2;" horiz-adv-x="269" 
d="M123 501q14 12 23 22q5 5 12 5t12.5 -5t5.5 -12t-5 -12q-25 -26 -42 -29q-23 -3 -47 26q-5 6 -4.5 13t6.5 11.5t13 3.5t11 -6zM202 314q-8 28 -21 48t-28 27q-14 7 -27 1q-19 -9 -38 -39q-26 -43 -28.5 -111.5t19.5 -117.5q20 -47 51 -51q38 -5 89 58q4 5 11 6t12.5 -3.5
t6.5 -11.5t-4 -13q-62 -76 -119 -70q-51 5 -79 72q-24 53 -21 131q2 77 33 129q24 38 52 52q29 13 56 -1q24 -12 42 -38.5t25 -58.5q2 -7 -1.5 -13t-10.5 -8t-13 1.5t-7 10.5zM100 -48q23 29 38 32q24 7 51 -23q5 -5 4 -12t-6 -12t-12 -4t-12 6l-15 15q-14 -13 -22 -24
q-4 -5 -11 -6t-13 3.5t-6.5 11.5t4.5 13z" />
    <glyph glyph-name="sterling" unicode="&#xa3;" horiz-adv-x="540" 
d="M404 588q-20 51 -63 55q-45 5 -79 -43q-52 -71 -77 -206q-2 -13 -7 -42q76 1 135 3q7 0 12.5 -5t5.5 -11.5t-5 -12t-11 -5.5q-63 -3 -142 -3q-16 -102 -31 -152q-7 -27 -32 -81q42 11 67 7q26 -5 75 -26q58 -26 73 -31q38 -13 66 -9q32 6 58 40q22 29 3 61
q-16 -13 -20.5 -22.5t-11 -12t-12.5 0t-8.5 9.5t-0.5 13q14 32 38 39q25 9 44 -11q16 -17 15 -44.5t-21 -54.5q-34 -43 -79 -51q-35 -7 -82 9q-16 6 -76 33q-42 20 -65 23q-33 6 -65 -16l-2 -4l-6 -9q-15 -21 -34 -19q-9 1 -14 7.5t-4 15.5q1 7 7 16q1 2 6 11q5 7 5 9l14 32
q11 25 17 41q7 16 13 34q14 49 29 142q-54 0 -100 1q-7 0 -11.5 5t-4.5 12.5t5 12t13 4.5q49 -1 102 -1l9 48q25 143 82 220q22 30 51 45t58 12q31 -3 55.5 -23t37.5 -54q2 -7 -0.5 -13t-9.5 -8.5t-13 0t-9 9.5z" />
    <glyph glyph-name="currency" unicode="&#xa4;" horiz-adv-x="448" 
d="M327 242q30 34 37 80.5t-9 89.5q-22 62 -77 82q-52 19 -122 -8q-57 -34 -79 -90.5t-7 -108.5q10 -35 35 -58.5t69 -32t104 13.5q22 8 41 25q1 2 2 3q2 2 6 4zM84 179l-33 -33q-5 -5 -12 -5t-12 5t-5 12t5 12l34 34q0 1 14 5q-29 37 -37 69q-16 48 -1.5 103.5t61.5 103.5
l-42 42q-5 5 -5 12t4.5 12t12 5t12.5 -5l43 -42l18 8l16 8q6 3 13 2q67 18 120 -1q25 -9 51 -31l38 32q5 6 12 5t12 -6t4 -12t-6 -12l-37 -33q16 -25 24 -46q17 -42 11 -95.5t-39 -99.5l30 -30q5 -5 5 -12t-5 -12t-12 -5t-12 5q-21 20 -28 31q-28 -19 -49 -27
q-114 -40 -197 16q-6 -13 -8 -15z" />
    <glyph glyph-name="yen" unicode="&#xa5;" horiz-adv-x="568" 
d="M295 310l-42 -7l17 -47zM95 690q59 -109 126 -294l22 -62l71 16q47 116 89 198t98 156q5 6 12 7t12.5 -3.5t6.5 -11.5t-3 -12q-86 -114 -175 -325q85 16 147 26q7 1 13 -3.5t7 -11t-3 -12.5t-11 -7q-79 -12 -169 -30l-16 -34q-17 -34 -22 -48l-8 -27q109 24 153 32
q7 1 13 -3t7.5 -11t-3 -13t-10.5 -7q-43 -7 -157 -33q6 -95 21 -149q2 -7 -1.5 -12.5t-10.5 -7.5t-13 1.5t-8 10.5q-15 55 -23 150q-91 -19 -148 -26q-7 -1 -12 3.5t-6 11.5t3.5 12.5t11.5 6.5q55 6 142 25q-7 17 -15 43l-15 48q-88 -21 -176 -45q-7 -2 -13 1.5t-8 10.5
t1.5 12.5t10.5 7.5l173 46l-19 57q-68 182 -125 290q-3 6 -1 13t8 10t13 1.5t10 -8.5z" />
    <glyph glyph-name="brokenbar" unicode="&#xa6;" horiz-adv-x="73" 
d="M53 685q9 -47 11.5 -109.5t1.5 -114t0 -107.5q0 -10 -5 -16.5t-11.5 -6.5t-12 6t-5.5 15q-1 61 0 111t-1.5 109t-10.5 105q-2 8 2.5 15.5t11 9.5t12 -2.5t7.5 -14.5zM52 192q0 -35 3.5 -102.5t3.5 -123.5t-7 -106q-1 -6 -7 -10.5t-13 -3.5t-11 6.5t-3 12.5q7 75 7 107
q0 36 -3.5 108t-3.5 112q0 7 5 11.5t12 4.5t12 -4.5t5 -11.5z" />
    <glyph glyph-name="section" unicode="&#xa7;" horiz-adv-x="300" 
d="M120 438q-46 3 -68 -25q-26 -31 2 -72q8 -13 22 -25.5t23 -19t33 -21.5t31 -20l25 -17q32 44 23 80q-9 30 -48 74l-37 38zM218 554q-4 43 -27.5 67t-50.5 24q-25 1 -43 -20t-16 -63q2 -30 35 -70q12 -15 35 -38q33 -35 37 -39q45 -50 55 -90q14 -52 -29 -110
q40 -42 48 -90q6 -38 -7 -71t-39 -51q-26 -19 -57 -13q-32 7 -55 40q-11 15 -18 40q0 1 -4 16.5t-7 22.5q-1 7 2 13.5t9.5 8.5t13 -1t8.5 -8l11 -42q6 -20 13 -31q29 -43 66 -18q16 12 25.5 36t4.5 54q-6 33 -26 57q-20 25 -57 48q-3 2 -29 18q-27 17 -37 24.5t-27 23.5
t-28 30q-19 32 -18 60.5t20 52.5q18 23 63 37q-40 52 -42 88q-3 56 24 88t70 31q41 -1 72.5 -34t38.5 -87q1 -7 -3.5 -12.5t-11.5 -6.5t-13 3.5t-6 11.5z" />
    <glyph glyph-name="dieresis" unicode="&#xa8;" horiz-adv-x="200" 
d="M58 629q0 -7 -5 -12t-12 -5t-12 5t-5 12t5 12t12 5t12 -5t5 -12zM180 627q0 -7 -5 -12t-12 -5t-12 5t-5 12t5 12t12 5t12 -5t5 -12z" />
    <glyph glyph-name="copyright" unicode="&#xa9;" horiz-adv-x="497" 
d="M238 693q6 2 9 1q63 -11 109.5 -51t70.5 -97t34 -120q10 -61 4 -127q-12 -139 -79 -221q-35 -45 -82.5 -62.5t-104.5 -0.5q-45 13 -78 46t-51.5 78t-26.5 95q-9 50 -7 105q4 112 42 209q40 98 106 136q21 13 54 9zM255 656q-6 1 -14.5 2t-11.5 1.5t-9.5 0.5t-9.5 -1.5
t-7 -2.5q-58 -33 -95 -123q-36 -88 -38 -195q-3 -110 32 -188q36 -81 107 -103q89 -25 151 52q60 75 71 203q7 81 -9 153t-57.5 127.5t-105.5 73.5h-4zM286 431q-13 52 -42 52q-30 1 -62 -46q-29 -46 -29 -102t24 -96q24 -39 56 -39q38 -1 79 54q4 6 11 7t13 -3.5t7 -11.5
t-3 -12q-53 -69 -108 -68q-50 0 -83 55q-29 49 -29.5 114t34.5 122q41 61 91 60q27 -1 46 -21.5t27 -56.5q2 -7 -1.5 -13t-10.5 -7.5t-13 2t-7 10.5z" />
    <glyph glyph-name="ordfeminine" unicode="&#xaa;" horiz-adv-x="370" 
d="M242 595q-70 -39 -115 -81q-63 -60 -50 -102q7 -22 24 -22q19 0 48 21q28 18 53 45t32 41q3 5 10 10v31v19q1 12 -2 38zM56 647q52 57 112 63q71 6 96 -46q15 -32 14 -108q-1 -82 4 -107q9 -45 41 -55q7 -3 10.5 -9.5t1 -13t-8.5 -9.5t-12 -1q-50 16 -68 93
q-44 -49 -77 -72q-39 -26 -68 -26q-42 0 -57 46q-19 62 59 137q54 51 119 83q3 2 17 2q-3 20 -7 26q-14 31 -60.5 26.5t-90.5 -51.5q-5 -5 -12 -5.5t-12 4.5t-5 11.5t4 11.5z" />
    <glyph glyph-name="guillemotleft" unicode="&#xab;" horiz-adv-x="395" 
d="M362 429q-6 -9 -20.5 -24.5l-40.5 -41.5l-37 -39q-34 -38 -51 -60q-10 -13 -14 -20l-6 -7q6 -7 7 -8q5 -9 15 -21q16 -22 45 -56l85 -92q6 -5 6 -12.5t-5 -12t-12.5 -4.5t-11.5 5q-44 45 -87 95q-31 33 -47 57q-11 14 -17 23q-8 13 -9 22q-2 10 7 26q5 11 17 26
q18 24 54 62l38 40l38 39l18 21q4 7 10.5 8t13 -3t7.5 -10.5t-3 -12.5zM241 432q-6 -9 -20.5 -24.5l-40.5 -42.5l-37 -38q-34 -38 -51 -60q-10 -13 -14 -20l-6 -7q6 -7 7 -8q5 -9 15 -21q16 -22 45 -56l85 -92q6 -5 6 -12.5t-5 -12t-12.5 -4.5t-11.5 5q-44 45 -87 95
q-31 33 -47 57q-11 14 -17 23q-8 13 -9 22q-2 10 7 26q5 11 17 26q18 24 54 62l39 40q24 25 36 39l19 21q4 7 10.5 8t13 -3t7.5 -10.5t-3 -12.5z" />
    <glyph glyph-name="logicalnot" unicode="&#xac;" horiz-adv-x="364" 
d="M31 317q6 1 27 4l57 8q36 5 60 9q57 8 88 12q18 3 29 4q5 1 8 1h4h4q4 0 8 -4q6 -6 10 -17l5 -19q3 -17 4 -46q1 -16 2 -43.5t2 -32.5q0 -8 -4 -13t-11.5 -6t-13 3.5t-5.5 10.5t-1 33.5t-2 45.5l-5 42v11l-30 -3l-87 -12q-24 -4 -61 -9l-58 -9q-21 -3 -27 -4t-11.5 3
t-6.5 11.5t3 13t12 6.5z" />
    <glyph glyph-name="registered" unicode="&#xae;" horiz-adv-x="494" 
d="M238 693q6 2 9 1q63 -11 109.5 -51t70.5 -97t34 -120q10 -61 4 -127q-12 -139 -79 -221q-35 -45 -82.5 -62.5t-104.5 -0.5q-45 13 -78 46t-51.5 78t-26.5 95q-9 50 -7 105q4 112 42 209q40 98 106 136q21 13 54 9zM179 381q43 5 62.5 18t24 24.5t3.5 18.5q-2 15 -26 17
q-24 3 -65 -15q1 -28 1 -63zM255 656q-6 1 -14.5 2t-11.5 1.5t-9.5 0.5t-9.5 -1.5t-7 -2.5q-58 -33 -95 -123q-36 -88 -38 -195q-3 -110 32 -188q36 -81 107 -103q89 -25 151 52q60 75 71 203q7 81 -9 153t-57.5 127.5t-105.5 73.5h-4zM141 464q61 34 106 29q21 -3 36 -14.5
t19 -28.5q7 -30 -15.5 -56.5t-78.5 -43.5q65 -102 117 -156q5 -5 5 -12.5t-5 -12t-12 -4.5t-12 5q-52 54 -123 164q-7 -119 -7 -135q0 -6 -5.5 -11t-12.5 -5t-11.5 5.5t-4.5 12.5q1 24 3.5 69t2.5 58q3 58 1 103q-8 6 -10 10q-3 6 -1.5 12.5t8.5 10.5z" />
    <glyph glyph-name="macron" unicode="&#xaf;" horiz-adv-x="370" 
d="M37 689q35 -3 77.5 -3.5t70 0t79.5 2.5l74 4q7 0 12.5 -5t5.5 -11.5t-5 -12t-12 -5.5l-73 -4q-53 -2 -81 -2.5t-71.5 0t-78.5 3.5q-8 1 -12.5 6t-4 12.5t6 12t12.5 3.5z" />
    <glyph glyph-name="degree" unicode="&#xb0;" horiz-adv-x="297" 
d="M163 659q-8 -3 -13 -7q-23 -16 -47 -54.5t-34 -79.5q-11 -43 -1 -70q10 -29 44 -36q37 -7 70 19t48 71q16 43 1 87t-63 68q-1 0 -5 2zM220 665q38 -35 48 -83.5t-6 -89.5q-17 -54 -60 -88.5t-96 -23.5q-54 10 -70 56q-13 37 0 91q12 45 38.5 89t54.5 64q8 5 15.5 8
t13 4.5t13.5 1.5h11l12 -2q9 -1 11 -1q6 -1 10.5 -6.5t4.5 -13.5v-6z" />
    <glyph glyph-name="plusminus" unicode="&#xb1;" 
d="M151 367q-65 -14 -106 -16q-8 -1 -13 4t-5.5 12t4 12t11.5 6q42 2 104 16q-8 56 -20 117q-1 7 3 13t11 7t13 -3t7 -11l20 -115q58 13 88 19q7 1 13 -3t7.5 -11t-3 -13t-10.5 -7q-26 -4 -90 -19q10 -68 16 -130q72 16 156 23q7 1 12.5 -4t6 -12t-4.5 -12t-12 -6
q-188 -17 -311 -81q-5 -3 -12 -1t-10 8t-1 13t9 10q60 32 134 54q-6 60 -17 130z" />
    <glyph glyph-name="uni00B2" unicode="&#xb2;" horiz-adv-x="331" 
d="M71 628q37 37 84 59t84 17q21 -3 36 -15t19 -35q8 -42 -27 -112q-10 -19 -24 -39l-24 -35q-11 -13 -33 -37l-30 -30l-34 -34q-26 -24 -54 -45q116 1 216 23q7 2 13 -1.5t7.5 -10.5t-2 -13t-10.5 -7q-121 -27 -222 -25q-2 0 -7 -1q-9 -1 -13 -1q-10 0 -17 2q-14 6 -14 22
q0 19 20 32l9 6q4 2 6.5 3.5t4.5 3.5l39 38l42 40l34 36q23 24 37.5 45t25.5 44q29 60 24 90q-5 19 -27 22q-27 3 -67 -15.5t-72 -50.5q-5 -5 -12 -5t-12 5t-5 12t5 12z" />
    <glyph glyph-name="uni00B3" unicode="&#xb3;" horiz-adv-x="300" 
d="M55 642q42 35 93 54q14 4 28 6.5t29.5 1.5t28 -10t20.5 -26q12 -31 -10 -62q-14 -21 -57 -53q33 -10 47 -20q18 -12 29 -38q10 -25 8 -45q-7 -73 -95 -101q-46 -15 -134 -19q-7 0 -12 5t-5.5 11.5t4.5 11.5t12 6q83 4 125 17q66 21 71 73q1 12 -6 28t-15 23
q-29 20 -62 12q-2 0 -7.5 -1.5t-11.5 -2.5t-8 -2q-10 -1 -17 4q-9 5 -11 17q-1 8 3 13l3 3q2 1 3 2t2 1l5 3l15 8q28 13 48 27q26 19 38 36q13 17 6 29q-12 28 -63 9q-44 -15 -83 -47q-5 -5 -12 -4t-11.5 6t-4 12.5t6.5 11.5z" />
    <glyph glyph-name="acute" unicode="&#xb4;" horiz-adv-x="191" 
d="M153 672q-41 -44 -88 -123q-4 -5 -10.5 -7t-12.5 1.5t-8 10.5t2 13q49 82 92 127q5 6 11.5 6t12 -5t5.5 -11.5t-4 -11.5z" />
    <glyph glyph-name="uni00B5" unicode="&#xb5;" horiz-adv-x="358" 
d="M96 482q-3 -44 -2 -132q0 -87 -3 -135q-2 -37 -7 -76q23 -45 34 -60q22 -28 51 -32q35 -5 63 42q27 44 44 129q25 125 25 262q0 7 5 12t12 5t12 -5t5 -12q0 -141 -26 -268q-13 -62 -32 -108l6 -12q3 -6 5 -8l5 -7l5 -6l4 -7l6.5 -6.5t6.5 -6t6.5 -6t6.5 -7t7 -7.5
q5 -5 5 -12t-5 -12t-12 -5t-12 5q-33 34 -53 60q-44 -60 -93 -54q-43 5 -74 47l-15 15q-11 -58 -23 -115q-1 -7 -6.5 -11t-12.5 -2.5t-11 7t-2 12.5q30 154 36 251q3 46 3 132q-1 90 2 135q1 7 6 12t12 4t12 -6t4 -12z" />
    <glyph glyph-name="paragraph" unicode="&#xb6;" horiz-adv-x="431" 
d="M275 674q-82 28 -141 4q-83 -31 -65 -129q13 -78 117 -148q32 -22 84 -47v303q0 4 5 17zM347 323v302q-15 15 -43 37v-323zM348 287l-43 15v-300q0 -7 -5.5 -12t-12 -5t-11.5 5t-5 12v314q-61 28 -105 56q-115 79 -132 171q-10 63 14.5 106t73.5 62q45 16 98 11t98 -30
q42 -24 83 -84q5 -6 4 -12.5t-8 -10.5q-4 -2 -16 -4q0 -96 1 -273q3 -8 2 -12q-2 -2 -2 -8v-287q0 -7 -5.5 -12t-12 -5t-11.5 5t-5 12v286z" />
    <glyph glyph-name="periodcentered" unicode="&#xb7;" horiz-adv-x="100" 
d="M66 393q0 -7 -5 -12t-12 -5t-12 5t-5 12t5 12t12 5t12 -5t5 -12z" />
    <glyph glyph-name="cedilla" unicode="&#xb8;" horiz-adv-x="100" 
d="M59 25q10 -41 -8 -72q-14 -24 -51 -48q-5 -4 -12 -2.5t-11 7t-2.5 12.5t7.5 11q30 20 39 37q12 19 6 49q-2 6 2 12t10.5 7.5t12.5 -2.5t7 -11z" />
    <glyph glyph-name="uni00B9" unicode="&#xb9;" horiz-adv-x="260" 
d="M138 689q-4 -69 -4 -158t12 -165q26 2 43 2q7 0 12 -5t5 -12t-5 -12t-12 -5q-61 0 -139 -14q-7 -1 -13 3t-7.5 11t2.5 13t11 7q33 5 69 9q-14 96 -10 255l-43 -45q-5 -4 -12.5 -4t-12.5 5t-5 12.5t5 12.5q32 29 49 52t23 52q1 7 7 10.5t13 2t11 -7.5t1 -14v-3v-2z" />
    <glyph glyph-name="ordmasculine" unicode="&#xba;" horiz-adv-x="263" 
d="M119 662q-31 -30 -44.5 -83.5t-7.5 -106.5t30 -74t62 0q29 16 44 71q14 54 5 111q-10 56 -38 76q-20 15 -51 6zM110 695q46 14 80 -11q40 -30 51 -100q11 -63 -6 -123q-18 -69 -60 -93q-59 -33 -100 4q-34 30 -41 96q-6 45 2 94.5t33 91.5q-4 10 -2 15.5t7 8.5
q13 8 27 14q4 2 9 3z" />
    <glyph glyph-name="guillemotright" unicode="&#xbb;" horiz-adv-x="428" 
d="M209 71q6 9 19 26l36 47l32 41q32 40 46 64q8 13 14 24v5l-4 8l-17 19q-19 21 -50 50l-94 85q-6 5 -6.5 12t4.5 12t11.5 6t11.5 -3l96 -86l52 -53q12 -13 19 -22q9 -12 11 -21q3 -11 -3 -27l-16 -28q-16 -24 -47 -66l-35 -44q-22 -27 -33.5 -42.5t-15.5 -22.5
q-4 -6 -10.5 -8t-13 1.5t-8.5 10t1 12.5zM50 86q6 9 19 26l36 46l33 42q31 40 45 64q8 13 14 24v5l-4 8l-17 19q-19 21 -50 50l-94 85q-6 5 -6.5 12t4.5 12t11.5 6t11.5 -3l96 -86l52 -53q12 -13 19 -22q9 -12 11 -21q3 -11 -3 -27l-16 -28q-16 -24 -47 -66l-35 -43
l-33.5 -43.5t-15.5 -22.5q-4 -6 -10.5 -8t-13 1.5t-8.5 10t1 12.5z" />
    <glyph glyph-name="onequarter" unicode="&#xbc;" horiz-adv-x="800" 
d="M618 149q-9 93 -11 172l-70 -98q-34 -46 -57 -82h20q29 0 80 4q14 1 38 4zM157 659q0 -36 -2 -99t-2.5 -96.5t2.5 -106.5q33 3 52 4q7 0 12.5 -5t5.5 -11.5t-5 -12t-11 -5.5q-30 -1 -75 -7q-5 -1 -33 -4l-41 -6q-7 -1 -13 3.5t-6.5 11.5t4 12.5t10.5 6.5q15 1 67 8
q-5 73 1 257q-32 -38 -45 -52q-4 -5 -11.5 -5t-12.5 4.5t-5 12t4 12.5q32 33 65 89q3 6 9.5 7.5t13.5 -1.5q7 -1 11.5 -6t4.5 -11zM102 -19q41 71 85.5 140.5t102.5 151.5l91 129l108 148l97 132q4 6 11 7t12.5 -3.5t6.5 -11.5t-3 -12l-96 -132l-108 -148l-90 -128
q-59 -81 -103 -150.5l-85 -140.5q-3 -5 -10 -7t-13 1.5t-8 10.5t2 13zM643 367q-5 -73 8 -214q54 6 72 10q6 1 12 -3t7.5 -11t-2.5 -12.5t-11 -7.5q-19 -3 -75 -10q6 -62 8 -100q0 -6 -5 -11t-12 -6t-12 4.5t-5 12.5q-2 34 -7 96l-37 -3q-53 -5 -85 -5q-19 1 -31 3
q-7 1 -12 3q-9 4 -14 11q-2 5 -1 11l1 7l5 8q4 9 14 23l48 69l102 143q4 6 10.5 7t12.5 -3q7 -5 8 -15q1 -3 1 -7z" />
    <glyph glyph-name="onehalf" unicode="&#xbd;" horiz-adv-x="750" 
d="M157 659q0 -36 -2 -99t-2.5 -96.5t2.5 -106.5q33 3 52 4q7 0 12.5 -5t5.5 -11.5t-5 -12t-11 -5.5q-30 -1 -75 -7q-5 -1 -33 -4l-41 -6q-7 -1 -13 3.5t-6.5 11.5t4 12.5t10.5 6.5q15 1 67 8q-5 73 1 257q-32 -38 -45 -52q-4 -5 -11.5 -5t-12.5 4.5t-5 12t4 12.5
q32 33 65 89q3 6 9.5 7.5t13.5 -1.5q7 -1 11.5 -6t4.5 -11zM102 -19q41 71 85.5 140.5t102.5 151.5l91 129l108 148l97 132q4 6 11 7t12.5 -3.5t6.5 -11.5t-3 -12l-96 -132l-108 -148l-90 -128q-59 -81 -103 -150.5l-85 -140.5q-3 -5 -10 -7t-13 1.5t-8 10.5t2 13zM523 294
q23 29 55.5 43t60.5 7q34 -8 47 -38t0 -74q-7 -23 -22 -50t-27.5 -44.5t-35 -45t-28.5 -36.5l-21 -26q33 0 50 1q47 2 89 5q6 1 11.5 -4t6 -12t-4 -12t-11.5 -6q-42 -3 -90 -5q-32 -2 -53 -1q-12 0 -20 1q-11 1 -17 5q-11 6 -7 19v3q2 2 4 7l9 11l26 34l31 40q22 26 33.5 42
t25 39t18.5 43q10 34 2 53q-6 15 -22 18q-18 3 -41.5 -6.5t-42.5 -32.5q-5 -5 -11.5 -6t-12.5 3.5t-6.5 11.5t4.5 13z" />
    <glyph glyph-name="threequarters" unicode="&#xbe;" horiz-adv-x="759" 
d="M618 149q-9 93 -10 172l-71 -98q-33 -46 -56 -82h19q30 0 81 4q13 1 37 4zM103 -19q41 71 85.5 140.5l101.5 151.5l91 129l108 148l97 132q5 6 12 7t12.5 -3.5t6.5 -11.5t-3 -12l-97 -132l-108 -148l-90 -128q-58 -81 -102 -150.5l-85 -140.5q-3 -5 -10 -7t-13 1.5
t-8 10.5t2 13zM643 367q-5 -73 8 -214q55 6 72 10q7 1 12.5 -3t7.5 -11t-2.5 -12.5t-11.5 -7.5q-18 -3 -75 -10q6 -62 8 -100q1 -6 -4 -11t-12 -6t-12 4.5t-6 12.5q-2 34 -6 96l-38 -3q-52 -5 -84 -5q-20 1 -31 3q-8 1 -13 3q-9 4 -13 11q-2 5 -2 11l2 7l4 8q5 9 15 23
l47 69l103 143q4 6 10.5 7t12.5 -3q7 -5 7 -15q1 -3 1 -7zM57 635q31 37 86 53q70 21 104 -23t-6 -98q-11 -15 -39 -40q33 -14 46 -27q15 -14 20.5 -39t1.5 -45q-14 -70 -94 -86q-55 -12 -125 4q-7 1 -10.5 7t-2 13t7.5 10.5t13 1.5q63 -13 110 -4q58 13 68 60q3 13 -1.5 30
t-11.5 24q-19 19 -55 18q-10 -1 -24 -3q-7 -1 -11 -1q-3 -1 -5 0q-13 2 -16 15q-2 13 10 22q6 4 15 6q4 1 7.5 1.5t4.5 1t-1 0.5h4q39 20 61 51q24 33 6 56q-20 27 -66 13q-46 -13 -70 -43q-5 -5 -12 -6t-12.5 3.5t-6 12t3.5 12.5z" />
    <glyph glyph-name="questiondown" unicode="&#xbf;" horiz-adv-x="428" 
d="M325 650l-20 -34q-4 -7 -10.5 -8.5t-12.5 2t-8 10t2 12.5q18 33 24 42q17 21 35 13q7 -3 13 -10l9 -14l24 -35t4 -14t-6.5 -11.5t-12.5 -3.5t-11 7zM377 122q-46 -66 -99 -97q-30 -18 -65 -21q-38 -4 -71.5 6t-60.5 34.5t-39 58.5q-27 80 41 141q48 42 128 63q3 1 50 8
q27 4 40 14v2l2 6.5t3 14.5q3 19 2 52q-1 21 -5 60q-3 35 -3 44t5.5 14t12 5t11.5 -5t5 -12q0 -9 3 -43q4 -43 4 -60q2 -38 0 -61q-6 -34 -22 -46q-16 -13 -53 -18q-43 -7 -45 -7q-72 -20 -115 -58q-51 -45 -31 -102q18 -53 77 -72t107.5 9.5t90.5 88.5q4 6 10.5 7t12.5 -3
t7.5 -10.5t-3.5 -12.5z" />
    <glyph glyph-name="Agrave" unicode="&#xc0;" horiz-adv-x="571" 
d="M139 220q146 45 265 69q-27 96 -55 210q-2 9 -20 99l-8 31q-67 -139 -97 -208zM123 179q-38 -94 -71 -187q-2 -7 -8.5 -9.5t-13 -0.5t-9.5 8.5t0 12.5l60 166q-24 -10 -28 -10q-8 -2 -13.5 2t-7 11t2.5 12.5t11 6.5q21 4 51 15q45 115 95 229l88 187l23 52q6 12 7.5 15.5
t3 6t3.5 3.5q2 3 6 5q11 4 19 -5l4 -7q-1 1 -1 4v-1v-5l1 -1v1l1 -6l4 -20l11 -60q17 -89 19 -97q31 -122 56 -211q47 7 81 11q7 1 13 -3.5t6.5 -11.5t-4 -12.5t-11.5 -6.5q-31 -3 -76 -11q42 -136 87 -243q2 -6 -0.5 -12.5t-9 -9t-13 0t-9.5 9.5q-45 109 -88 250
q-121 -24 -252 -65q-10 -3 -38 -13zM269 829l142 -74q7 -4 8.5 -10.5t-2 -13t-10 -8t-12.5 1.5l-141 74q-7 3 -9 9.5t1 13t9.5 8.5t13.5 -1z" />
    <glyph glyph-name="Aacute" unicode="&#xc1;" horiz-adv-x="571" 
d="M142 220q146 45 265 69q-27 96 -55 210q-2 9 -20 99l-8 31q-67 -139 -97 -208zM126 179q-38 -94 -71 -187q-2 -7 -8.5 -9.5t-13 -0.5t-9.5 8.5t0 12.5l60 166q-24 -10 -28 -10q-8 -2 -13.5 2t-7 11t2.5 12.5t11 6.5q21 4 51 15q45 115 95 229l88 187l23 52q6 12 7.5 15.5
t3 6t3.5 3.5q2 3 6 5q11 4 19 -5l4 -7q-1 1 -1 4v-1v-5l1 -1v1l1 -6l4 -20l11 -60q17 -89 19 -97q31 -122 56 -211q47 7 81 11q7 1 13 -3.5t6.5 -11.5t-4 -12.5t-11.5 -6.5q-31 -3 -76 -11q42 -136 87 -243q2 -6 -0.5 -12.5t-9 -9t-13 0t-9.5 9.5q-45 109 -88 250
q-121 -24 -252 -65q-10 -3 -38 -13zM205 738q21 9 43.5 23t37.5 25l40 32l39 31q6 4 13 3t11 -7t3 -13t-7 -11l-37 -29l-42 -33t-40.5 -27t-46.5 -26q-6 -2 -12.5 0.5t-9.5 8.5t-0.5 13t8.5 10z" />
    <glyph glyph-name="Acircumflex" unicode="&#xc2;" horiz-adv-x="568" 
d="M139 220q146 45 265 69q-27 96 -55 210q-2 9 -20 99l-8 31q-67 -139 -97 -208zM123 179q-38 -94 -71 -187q-2 -7 -8.5 -9.5t-13 -0.5t-9.5 8.5t0 12.5l60 166q-24 -10 -28 -10q-8 -2 -13.5 2t-7 11t2.5 12.5t11 6.5q21 4 51 15q45 115 95 229l88 187l23 52q6 12 7.5 15.5
t3 6t3.5 3.5q2 3 6 5q11 4 19 -5l4 -7q-1 1 -1 4v-1v-5l1 -1v1l1 -6l4 -20l11 -60q17 -89 19 -97q31 -122 56 -211q47 7 81 11q7 1 13 -3.5t6.5 -11.5t-4 -12.5t-11.5 -6.5q-31 -3 -76 -11q42 -136 87 -243q2 -6 -0.5 -12.5t-9 -9t-13 0t-9.5 9.5q-45 109 -88 250
q-121 -24 -252 -65q-10 -3 -38 -13zM216 736q36 35 76 86l21 25q12 12 23 15q14 3 27 -8q8 -6 19 -22q63 -85 65 -87q4 -5 3.5 -12t-6.5 -11.5t-13 -3.5t-11 7q-3 3 -65 87l-14 17l-23 -29q-38 -49 -78 -88q-5 -5 -12 -5t-12 5t-5 12t5 12z" />
    <glyph glyph-name="Atilde" unicode="&#xc3;" horiz-adv-x="562" 
d="M130 220q146 45 265 69q-27 96 -55 210q-2 9 -20 99l-8 31q-67 -139 -97 -208zM114 179q-38 -94 -71 -187q-2 -7 -8.5 -9.5t-13 -0.5t-9.5 8.5t0 12.5l60 166q-24 -10 -28 -10q-8 -2 -13.5 2t-7 11t2.5 12.5t11 6.5q21 4 51 15q45 115 95 229l88 187l23 52q6 12 7.5 15.5
t3 6t3.5 3.5q2 3 6 5q11 4 19 -5l4 -7q-1 1 -1 4v-1v-5l1 -1v1l1 -6l4 -20l11 -60q17 -89 19 -97q31 -122 56 -211q47 7 81 11q7 1 13 -3.5t6.5 -11.5t-4 -12.5t-11.5 -6.5q-31 -3 -76 -11q42 -136 87 -243q2 -6 -0.5 -12.5t-9 -9t-13 0t-9.5 9.5q-45 109 -88 250
q-121 -24 -252 -65q-10 -3 -38 -13zM195 734q43 63 81 71q26 6 63 -16q29 -19 41 -19q24 0 58 38q4 5 11 6t12.5 -4t6 -12t-4.5 -12q-43 -51 -83 -50q-22 0 -59 23q-24 16 -37 13q-26 -5 -61 -57q-4 -6 -11 -7t-13 3t-7 10.5t3 12.5z" />
    <glyph glyph-name="Adieresis" unicode="&#xc4;" horiz-adv-x="574" 
d="M142 220q146 45 265 69q-27 96 -55 210q-2 9 -20 99l-8 31q-67 -139 -97 -208zM126 179q-38 -94 -71 -187q-2 -7 -8.5 -9.5t-13 -0.5t-9.5 8.5t0 12.5l60 166q-24 -10 -28 -10q-8 -2 -13.5 2t-7 11t2.5 12.5t11 6.5q21 4 51 15q45 115 95 229l88 187l23 52q6 12 7.5 15.5
t3 6t3.5 3.5q2 3 6 5q11 4 19 -5l4 -7q-1 1 -1 4v-1v-5l1 -1v1l1 -6l4 -20l11 -60q17 -89 19 -97q31 -122 56 -211q47 7 81 11q7 1 13 -3.5t6.5 -11.5t-4 -12.5t-11.5 -6.5q-31 -3 -76 -11q42 -136 87 -243q2 -6 -0.5 -12.5t-9 -9t-13 0t-9.5 9.5q-45 109 -88 250
q-121 -24 -252 -65q-10 -3 -38 -13zM301 783q0 -7 -5 -12t-12 -5t-12 5t-5 12t5 12t12 5t12 -5t5 -12zM406 779q0 -7 -5 -12t-12 -5t-12 5t-5 12t5 12t12 5t12 -5t5 -12z" />
    <glyph glyph-name="Aring" unicode="&#xc5;" horiz-adv-x="568" 
d="M133 220q146 45 265 69q-27 96 -55 210q-2 9 -20 99l-8 31q-67 -139 -97 -208zM246 748q24 -6 58 13q5 3 15 2q21 10 33.5 22t16 21t3.5 17q-2 11 -15 16q-23 7 -60 -9q-22 -9 -37 -30.5t-14 -39.5v-12zM295 719q-30 -11 -51 -5q-16 4 -24 16.5t-8 28.5q-1 29 19.5 59
t53.5 44q48 19 81 9q17 -4 27.5 -16t12.5 -28q3 -30 -21.5 -58t-156.5 -75q102 12 108 5l4 -7q-1 1 -1 4v-1v-5l1 -1v1l1 -6l4 -20l11 -60q17 -89 19 -97q31 -122 56 -211q47 7 81 11q7 1 13 -3.5t6.5 -11.5t-4 -12.5t-11.5 -6.5q-31 -3 -76 -11q42 -136 87 -243
q2 -6 -0.5 -12.5t-9 -9t-13 0t-9.5 9.5q-45 109 -88 250q-121 -24 -252 -65q-10 -3 -38 -13q-38 -94 -71 -187q-2 -7 -8.5 -9.5t-13 -0.5t-9.5 8.5t0 12.5l60 166q-24 -10 -28 -10q-8 -2 -13.5 2t-7 11t2.5 12.5t11 6.5q21 4 51 15q45 115 95 229l88 187l23 52
q6 12 7.5 15.5t3 6t3.5 3.5q2 3 219 112l-228 -91q-2 -1 -7 -1z" />
    <glyph glyph-name="AE" unicode="&#xc6;" horiz-adv-x="876" 
d="M176 290q31 5 42 7q87 14 185 24l-45 178q-2 9 -20 99l-8 31q-64 -133 -97 -208zM161 252q-54 -131 -100 -260q-2 -7 -8.5 -9.5t-13 -0.5t-9.5 8.5t0 12.5q40 113 91 242q-34 -4 -49 -5q-6 -1 -11.5 4t-6 12t4 12t11.5 6q26 2 66 8l65 153l88 187l23 52q6 12 7.5 15.5
t3 6t3.5 3.5q2 3 7 5t10 1q18 1 124 14q81 10 133 11q8 0 13 -4.5t5 -12t-4.5 -12.5t-11.5 -5q-49 -1 -131 -11q-97 -12 -113 -12l13 -69l19 -97q27 -107 48 -182q154 16 284 19q8 0 13 -4.5t5 -12t-4.5 -12.5t-11.5 -5q-126 -3 -277 -17q43 -146 91 -264q33 1 77 4.5
t69.5 5t71 2.5t72.5 -3q8 -1 12.5 -6t4 -12.5t-6 -12t-12.5 -3.5q-71 4 -102 2.5t-96.5 -6.5t-103.5 -6q-7 0 -12.5 5t-5.5 11v6q-49 120 -94 273q-97 -11 -189 -26q-15 -2 -62 -11z" />
    <glyph glyph-name="Ccedilla" unicode="&#xc7;" horiz-adv-x="500" 
d="M332 574q-20 48 -46 69.5t-52 20.5t-53 -24.5t-50 -69.5q-44 -88 -59 -217.5t12 -223.5q33 -108 115 -109q36 0 76 21t74 58q6 6 13 14l10 13q4 5 10 14t9.5 13.5t10 15.5l8.5 14.5t10 15.5l8 14l10 16q9 14 10 16q3 5 9.5 7t12.5 -1.5t8 -10.5t-1 -12q-1 -1 -10 -16.5
t-11 -18.5t-10 -16.5t-11.5 -18.5t-10.5 -16t-11 -18l-12 -16q-7 -9 -13.5 -16.5l-12.5 -14.5q-37 -41 -81.5 -65t-93.5 -26q-22 -65 -47 -111q-4 -6 -10.5 -8t-13 1.5t-8 10t1.5 12.5q22 41 41 99q-81 29 -113 129q-28 103 -12 238q16 134 62 229q25 51 59.5 80.5
t72.5 31.5q40 2 74 -27t57 -85q2 -6 -0.5 -12.5t-9 -9t-13 0t-9.5 9.5z" />
    <glyph glyph-name="Egrave" unicode="&#xc8;" horiz-adv-x="438" 
d="M79 661q95 15 255 52q7 2 13 -1.5t7.5 -10.5t-2 -13t-10.5 -7q-162 -38 -257 -54h-11q-1 -42 -6 -111l-11 -173q15 0 18 1q33 6 67 14t88 22l67 19q7 2 12.5 -1.5t7.5 -10.5t-1.5 -12.5t-10.5 -7.5l-54 -15l-60 -16q-22 -6 -53.5 -13.5t-57.5 -12.5q-5 -1 -24 6
q-2 -107 3 -166q7 -78 27 -96q40 -38 148 -20q80 14 161 50q6 2 13 -0.5t9.5 -8.5t0 -13t-8.5 -10q-85 -36 -170 -51q-124 -21 -175 27q-30 29 -39 119q-6 68 -2 182q2 58 11 189q7 103 6 132q0 7 4.5 12.5t11.5 5.5q8 0 20 -12q5 5 3 5zM118 817q49 -33 108 -55
q7 -3 9.5 -9t0 -13t-8.5 -9.5t-14 -0.5q-60 24 -113 59q-6 4 -7.5 11t2.5 12.5t11 7t12 -2.5z" />
    <glyph glyph-name="Eacute" unicode="&#xc9;" horiz-adv-x="444" 
d="M79 661q95 15 255 52q7 2 13 -1.5t7.5 -10.5t-2 -13t-10.5 -7q-162 -38 -257 -54h-11q-1 -42 -6 -111l-11 -173q15 0 18 1q33 6 67 14t88 22l67 19q7 2 12.5 -1.5t7.5 -10.5t-1.5 -12.5t-10.5 -7.5l-54 -15l-60 -16q-22 -6 -53.5 -13.5t-57.5 -12.5q-5 -1 -24 6
q-2 -107 3 -166q7 -78 27 -96q40 -38 148 -20q80 14 161 50q6 2 13 -0.5t9.5 -8.5t0 -13t-8.5 -10q-85 -36 -170 -51q-124 -21 -175 27q-30 29 -39 119q-6 68 -2 182q2 58 11 189q7 103 6 132q0 7 4.5 12.5t11.5 5.5q8 0 20 -12q5 5 3 5zM118 758q58 42 121 94q6 5 13 4
t11.5 -6.5t3.5 -12.5t-6 -11q-64 -53 -123 -96q-5 -4 -12 -3t-11.5 7t-3.5 13t7 11z" />
    <glyph glyph-name="Ecircumflex" unicode="&#xca;" horiz-adv-x="449" 
d="M79 661q95 15 255 52q7 2 13 -1.5t7.5 -10.5t-2 -13t-10.5 -7q-162 -38 -257 -54h-11q-1 -42 -6 -111l-11 -173q15 0 18 1q33 6 67 14t88 22l67 19q7 2 12.5 -1.5t7.5 -10.5t-1.5 -12.5t-10.5 -7.5l-54 -15l-60 -16q-22 -6 -53.5 -13.5t-57.5 -12.5q-5 -1 -24 6
q-2 -107 3 -166q7 -78 27 -96q40 -38 148 -20q80 14 161 50q6 2 13 -0.5t9.5 -8.5t0 -13t-8.5 -10q-85 -36 -170 -51q-124 -21 -175 27q-30 29 -39 119q-6 68 -2 182q2 58 11 189q7 103 6 132q0 7 4.5 12.5t11.5 5.5q8 0 20 -12q5 5 3 5zM80 763q26 41 70 93q4 4 4.5 6
t2.5 4.5t4 6.5q10 14 24 18q7 2 14 -1l6 -4l13 -11l32 -33l49 -54q4 -5 4 -11.5t-5.5 -11.5t-12.5 -5t-12 6l-49 54l-34 36q-10 -18 -12 -20q-44 -52 -69 -91q-3 -6 -10 -7.5t-13 2t-7.5 10.5t1.5 13z" />
    <glyph glyph-name="Edieresis" unicode="&#xcb;" horiz-adv-x="448" 
d="M79 661q95 15 255 52q7 2 13 -1.5t7.5 -10.5t-2 -13t-10.5 -7q-162 -38 -257 -54h-11q-1 -42 -6 -111l-11 -173q15 0 18 1q33 6 67 14t88 22l67 19q7 2 12.5 -1.5t7.5 -10.5t-1.5 -12.5t-10.5 -7.5l-54 -15l-60 -16q-22 -6 -53.5 -13.5t-57.5 -12.5q-5 -1 -24 6
q-2 -107 3 -166q7 -78 27 -96q40 -38 148 -20q80 14 161 50q6 2 13 -0.5t9.5 -8.5t0 -13t-8.5 -10q-85 -36 -170 -51q-124 -21 -175 27q-30 29 -39 119q-6 68 -2 182q2 58 11 189q7 103 6 132q0 7 4.5 12.5t11.5 5.5q8 0 20 -12q5 5 3 5zM134 765q0 -7 -5 -12t-12 -5t-12 5
t-5 12t5 12t12 5t12 -5t5 -12zM234 765q0 -7 -5 -12t-12 -5t-12 5t-5 12t5 12t12 5t12 -5t5 -12z" />
    <glyph glyph-name="Igrave" unicode="&#xcc;" horiz-adv-x="160" 
d="M74 674q12 -373 12 -654q0 -7 -5 -12t-12 -5t-12 5t-5 12q0 281 -12 652q0 7 5 12.5t12 5.5t12 -5t5 -11zM8 812l108 -67q5 -4 7 -11t-2 -13t-11 -7.5t-13 2.5l-106 67q-7 3 -8.5 10t2.5 13t10.5 7.5t12.5 -1.5z" />
    <glyph glyph-name="Iacute" unicode="&#xcd;" horiz-adv-x="127" 
d="M73 674q12 -373 12 -654q0 -7 -5.5 -12t-12 -5t-11.5 5t-5 12q0 281 -12 652q0 7 4.5 12.5t11.5 5.5t12.5 -5t5.5 -11zM10 746l38 35q28 28 41 38q5 5 12.5 4t11.5 -6t3.5 -12.5t-6.5 -11.5l-38 -36q-25 -24 -42 -37q-6 -5 -13 -4t-11 7t-3 12.5t7 10.5z" />
    <glyph glyph-name="Icircumflex" unicode="&#xce;" horiz-adv-x="130" 
d="M74 674q12 -373 12 -654q0 -7 -5 -12t-12 -5t-12 5t-5 12q0 281 -12 652q0 7 5 12.5t11.5 5.5t12 -5t5.5 -11zM-28 730l46 73q11 15 18 22q10 11 22 12q12 2 24 -5q9 -7 21 -19l13 -15l21 -24l22 -27q4 -5 3.5 -12t-6 -12t-12.5 -4t-12 7l-21 24l-19 24l-15 17
q-4 4 -15 14l-15 -20l-47 -74q-4 -5 -11 -6.5t-12.5 2.5t-7 11t2.5 12z" />
    <glyph glyph-name="Idieresis" unicode="&#xcf;" horiz-adv-x="100" 
d="M72 674q12 -373 12 -654q0 -7 -5 -12t-12 -5t-12 5t-5 12q0 281 -12 652q0 7 5 12.5t11.5 5.5t12 -5t5.5 -11zM16 760q0 -7 -5 -12t-12 -5t-12 5t-5 12t5 12t12 5t12 -5t5 -12zM127 761q0 -7 -5 -12t-12 -5t-12 5t-5 12t5 12t12 5t12 -5t5 -12z" />
    <glyph glyph-name="Eth" unicode="&#xd0;" horiz-adv-x="552" 
d="M127 329v-300q164 -6 257 40q84 42 111 113q28 70 8 154q-18 80 -71 152q-55 72 -125 110q-78 44 -180 54v-289l59 -2q8 -1 12.5 -6t4 -12t-5.5 -12t-12 -4zM46 686q150 12 278 -58q76 -42 134 -119.5t79 -164.5q22 -94 -10 -176t-128 -129q-65 -33 -141 -40.5t-167 -1.5
q-7 1 -11.5 6t-3.5 12q0 11 17 17v295q-54 -2 -95 -9q-7 -1 -12.5 3.5t-6.5 11t3 12.5t11 7q45 7 100 9v294l-44 -3q-7 -1 -12.5 4t-6 12t4 12t11.5 6z" />
    <glyph glyph-name="Ntilde" unicode="&#xd1;" horiz-adv-x="500" 
d="M43 19q2 104 2 146t-3 144.5t-4 146.5q0 5 -0.5 22t-1 42t-1.5 45q0 41 -1 63v21q0 4 0.5 6.5t0.5 3.5l1 4q1 2 3 4q6 6 14 6q5 0 9 -3l3 -3l2 -2q1 -3 5 -8q3 -5 9 -17l29 -56l48 -92q111 -209 229 -355l66 -85l-2 54q-5 100 -5 112q2 103 2 185q0 215 4 278q1 7 6 12
t12 4t12 -6t4 -12q-4 -63 -4 -276q0 -82 -2 -187q0 -2 5 -107l3 -64v-22v-7v-4v-2q-1 -3 -4 -7q-7 -9 -18 -6q-5 1 -10 4.5t-12 10.5l-27 32l-56 71q-122 150 -233 361l-58 114q0 -58 0.5 -79.5t1 -35.5t0.5 -19q1 -42 4 -146.5t3 -146.5t-2 -145q-1 -7 -6 -12t-11.5 -4.5
t-11.5 5.5t-5 12zM109 726q57 68 100 73q31 4 68 -28q30 -25 43 -28q27 -5 71 36q5 4 11.5 4t11.5 -5.5t5 -12.5t-6 -12q-54 -50 -98 -43q-6 0 -11 1.5t-10.5 4.5l-9 5t-7.5 7l-9 6l-8 6q-5 4 -6 5q-25 23 -41 20q-30 -4 -78 -59q-5 -6 -12 -7t-12 4t-6 12t4 11z" />
    <glyph glyph-name="Ograve" unicode="&#xd2;" horiz-adv-x="485" 
d="M235 693q6 2 9 1q63 -11 109.5 -51t70.5 -97t34 -120q10 -61 4 -127q-12 -139 -79 -221q-35 -45 -82.5 -62.5t-104.5 -0.5q-45 13 -78 46t-51.5 78t-26.5 95q-9 50 -7 105q4 112 42 209q40 98 106 136q21 13 54 9zM252 656q-6 1 -14.5 2t-11.5 1.5t-9.5 0.5t-9.5 -1.5
t-7 -2.5q-58 -33 -95 -123q-36 -88 -38 -195q-3 -110 32 -188q36 -81 107 -103q89 -25 151 52q60 75 71 203q7 81 -9 153t-57.5 127.5t-105.5 73.5h-4zM171 828q51 -35 99 -61q6 -4 8 -10.5t-1.5 -13t-10 -8t-12.5 1.5q-51 27 -102 63q-6 4 -7 11t3 13t10.5 7t12.5 -3z" />
    <glyph glyph-name="Oacute" unicode="&#xd3;" horiz-adv-x="482" 
d="M235 693q6 2 9 1q63 -11 109.5 -51t70.5 -97t34 -120q10 -61 4 -127q-12 -139 -79 -221q-35 -45 -82.5 -62.5t-104.5 -0.5q-45 13 -78 46t-51.5 78t-26.5 95q-9 50 -7 105q4 112 42 209q40 98 106 136q21 13 54 9zM252 656q-6 1 -14.5 2t-11.5 1.5t-9.5 0.5t-9.5 -1.5
t-7 -2.5q-58 -33 -95 -123q-36 -88 -38 -195q-3 -110 32 -188q36 -81 107 -103q89 -25 151 52q60 75 71 203q7 81 -9 153t-57.5 127.5t-105.5 73.5h-4zM132 758q49 24 103 69q5 5 12.5 4t12 -6t3.5 -12.5t-6 -11.5q-57 -47 -110 -73q-6 -3 -12.5 -1t-9.5 8.5t-1 13t8 9.5z
" />
    <glyph glyph-name="Ocircumflex" unicode="&#xd4;" horiz-adv-x="482" 
d="M235 693q6 2 9 1q63 -11 109.5 -51t70.5 -97t34 -120q10 -61 4 -127q-12 -139 -79 -221q-35 -45 -82.5 -62.5t-104.5 -0.5q-45 13 -78 46t-51.5 78t-26.5 95q-9 50 -7 105q4 112 42 209q40 98 106 136q21 13 54 9zM252 656q-6 1 -14.5 2t-11.5 1.5t-9.5 0.5t-9.5 -1.5
t-7 -2.5q-58 -33 -95 -123q-36 -88 -38 -195q-3 -110 32 -188q36 -81 107 -103q89 -25 151 52q60 75 71 203q7 81 -9 153t-57.5 127.5t-105.5 73.5h-4zM108 727q26 26 58 68q26 34 42 39q24 8 56 -21q19 -16 83 -83q5 -5 5 -12t-5.5 -12t-12.5 -5t-12 5q-61 65 -79 81
q-12 11 -25 15q-10 -8 -25 -27q-34 -44 -61 -72q-5 -5 -12 -5t-12 5t-5 12t5 12z" />
    <glyph glyph-name="Otilde" unicode="&#xd5;" horiz-adv-x="491" 
d="M235 693q6 2 9 1q63 -11 109.5 -51t70.5 -97t34 -120q10 -61 4 -127q-12 -139 -79 -221q-35 -45 -82.5 -62.5t-104.5 -0.5q-45 13 -78 46t-51.5 78t-26.5 95q-9 50 -7 105q4 112 42 209q40 98 106 136q21 13 54 9zM252 656q-6 1 -14.5 2t-11.5 1.5t-9.5 0.5t-9.5 -1.5
t-7 -2.5q-58 -33 -95 -123q-36 -88 -38 -195q-3 -110 32 -188q36 -81 107 -103q89 -25 151 52q60 75 71 203q7 81 -9 153t-57.5 127.5t-105.5 73.5h-4zM95 753q40 57 77 66q27 6 63 -14q32 -18 45 -19q27 -2 61 26q5 6 12 5t12 -6t4 -12t-6 -11q-44 -40 -86 -36
q-20 2 -59 24q-25 12 -38 10q-24 -6 -57 -53q-4 -6 -11 -7t-13 3t-7 11t3 13z" />
    <glyph glyph-name="Odieresis" unicode="&#xd6;" horiz-adv-x="485" 
d="M235 693q6 2 9 1q63 -11 109.5 -51t70.5 -97t34 -120q10 -61 4 -127q-12 -139 -79 -221q-35 -45 -82.5 -62.5t-104.5 -0.5q-45 13 -78 46t-51.5 78t-26.5 95q-9 50 -7 105q4 112 42 209q40 98 106 136q21 13 54 9zM252 656q-6 1 -14.5 2t-11.5 1.5t-9.5 0.5t-9.5 -1.5
t-7 -2.5q-58 -33 -95 -123q-36 -88 -38 -195q-3 -110 32 -188q36 -81 107 -103q89 -25 151 52q60 75 71 203q7 81 -9 153t-57.5 127.5t-105.5 73.5h-4zM177 763q0 -7 -5 -12t-12 -5t-12 5t-5 12t5 12t12 5t12 -5t5 -12zM274 766q0 -7 -5 -12t-12 -5t-12 5t-5 12t5 12t12 5
t12 -5t5 -12z" />
    <glyph glyph-name="multiply" unicode="&#xd7;" horiz-adv-x="341" 
d="M201 347l116 -115q5 -5 5 -12t-5 -12t-12 -5t-12 5l-115 113l-112 -115q-5 -5 -12 -5t-12 5t-5 12t5 12l111 115q-69 69 -113 117q-4 5 -4 11.5t5.5 11.5t12.5 5t12 -6q43 -47 110 -114q70 73 117 116q5 4 11.5 4t11.5 -5.5t5 -12.5t-6 -12q-46 -42 -114 -113z" />
    <glyph glyph-name="Oslash" unicode="&#xd8;" horiz-adv-x="488" 
d="M423 434l-160 -147l-160 -147q41 -74 103 -93q89 -25 151 52q60 75 71 203q5 58 -5 132zM235 693q6 2 9 1q63 -11 109.5 -51t70.5 -97t34 -120q10 -61 4 -127q-12 -139 -79 -221q-35 -45 -82.5 -62.5t-104.5 -0.5q-45 13 -78 46t-51.5 78t-26.5 95q-9 50 -7 105
q4 112 42 209q40 98 106 136q21 13 54 9zM252 656q-6 1 -14.5 2t-11.5 1.5t-9.5 0.5t-9.5 -1.5t-7 -2.5q-58 -33 -94.5 -122.5t-38.5 -195.5q-3 -83 22 -165l164 152l162 147q-21 73 -60.5 120t-98.5 64h-4z" />
    <glyph glyph-name="Ugrave" unicode="&#xd9;" horiz-adv-x="441" 
d="M68 667q-4 -91 -5 -173t11 -171.5t39 -163.5q21 -59 44 -90q32 -46 68 -45q51 1 88 78q33 68 52 191q22 149 22 373q0 7 5 12t12 5t12 -5t5 -12q0 -226 -23 -377q-20 -129 -54 -202q-45 -95 -117 -97q-56 -2 -98 60q-25 35 -48 97q-28 76 -41 170.5t-11.5 177.5t5.5 172
q1 8 6 13t12 4t12 -6t4 -11zM166 810q52 -38 134 -82q6 -3 8 -10t-1 -13t-10 -8t-13 1q-85 44 -138 86q-6 4 -7 11t3 12.5t11.5 6t12.5 -3.5z" />
    <glyph glyph-name="Uacute" unicode="&#xda;" horiz-adv-x="441" 
d="M68 667q-4 -91 -5 -173t11 -171.5t39 -163.5q21 -59 44 -90q32 -46 68 -45q51 1 88 78q33 68 52 191q22 149 22 373q0 7 5 12t12 5t12 -5t5 -12q0 -226 -23 -377q-20 -129 -54 -202q-45 -95 -117 -97q-56 -2 -98 60q-25 35 -48 97q-28 76 -41 170.5t-11.5 177.5t5.5 172
q1 8 6 13t12 4t12 -6t4 -11zM155 733q30 17 86.5 45.5t69.5 35.5q6 3 13 1.5t10 -8t1.5 -13.5t-8.5 -10l-69 -35q-56 -28 -85 -45q-6 -4 -13 -2t-10.5 8t-1.5 12.5t7 10.5z" />
    <glyph glyph-name="Ucircumflex" unicode="&#xdb;" horiz-adv-x="444" 
d="M68 667q-4 -91 -5 -173t11 -171.5t39 -163.5q21 -59 44 -90q32 -46 68 -45q51 1 88 78q33 68 52 191q22 149 22 373q0 7 5 12t12 5t12 -5t5 -12q0 -226 -23 -377q-20 -129 -54 -202q-45 -95 -117 -97q-56 -2 -98 60q-25 35 -48 97q-28 76 -41 170.5t-11.5 177.5t5.5 172
q1 8 6 13t12 4t12 -6t4 -11zM129 742q19 18 56 59q11 14 17 19q12 11 23 12q21 2 44 -27q7 -9 53 -78q4 -5 2.5 -12t-7 -11t-12.5 -2.5t-11 7.5q-46 66 -51 75q-4 4 -12 17l-21 -21q-37 -43 -57 -62q-5 -5 -12.5 -5t-12 5t-4.5 12t5 12z" />
    <glyph glyph-name="Udieresis" unicode="&#xdc;" horiz-adv-x="444" 
d="M68 667q-4 -91 -5 -173t11 -171.5t39 -163.5q21 -59 44 -90q32 -46 68 -45q51 1 88 78q33 68 52 191q22 149 22 373q0 7 5 12t12 5t12 -5t5 -12q0 -226 -23 -377q-20 -129 -54 -202q-45 -95 -117 -97q-56 -2 -98 60q-25 35 -48 97q-28 76 -41 170.5t-11.5 177.5t5.5 172
q1 8 6 13t12 4t12 -6t4 -11zM168 761q0 -7 -5 -12t-12 -5t-12 5t-5 12t5 12t12 5t12 -5t5 -12zM293 758q0 -7 -5 -12t-12 -5t-12 5t-5 12t5 12t12 5t12 -5t5 -12z" />
    <glyph glyph-name="Yacute" unicode="&#xdd;" horiz-adv-x="451" 
d="M122 25q13 29 33 88l34 88l62 145q-91 142 -223 327q-4 5 -3 12t6.5 11.5t12.5 3.5t12 -7l212 -311q75 159 153 305q4 6 10.5 8t13 -1.5t8.5 -10t-1 -12.5q-134 -245 -232 -482q-10 -25 -33 -89q-21 -57 -34 -89q-3 -6 -9 -8.5t-13 0.5t-9.5 9t0.5 13zM192 737
q25 13 73 40l68 41q7 3 13.5 1.5t10 -8t1.5 -13t-8 -10.5q-23 -12 -69 -39l-72 -42q-6 -3 -13 -1.5t-10.5 8t-1.5 13t8 10.5z" />
    <glyph glyph-name="Thorn" unicode="&#xde;" 
d="M74 105q109 60 178.5 133t90.5 160q19 77 -4 111q-18 27 -66 24q-46 -3 -101 -32.5t-86 -67.5l-6 -7q3 -141 -6 -321zM39 84q18 347 -9 604q-1 7 3.5 12.5t11.5 6.5t12.5 -3.5t6.5 -11.5q10 -95 14 -217q54 45 102 67t91 25q66 4 96 -39q33 -46 9 -140
q-13 -52 -43.5 -102t-73 -89.5t-88 -71t-99.5 -60.5q-4 -82 -11 -175q-1 -7 -6.5 -12t-12 -4t-11.5 6t-4 12q7 97 12 179q-2 6 0 13z" />
    <glyph glyph-name="germandbls" unicode="&#xdf;" horiz-adv-x="441" 
d="M21 26q24 42 35 91t9.5 103.5t-7.5 99.5t-17 104l-7 26q-4 19 -6 30l-6 32q-3 19 -2.5 30.5t1.5 30.5q8 60 60.5 96.5t111.5 26.5q36 -6 61 -29t35.5 -52.5t8.5 -64t-18 -62.5q-15 -25 -57 -64q90 -8 138 -61q54 -59 61 -124q8 -63 -28 -108q-34 -47 -95.5 -65t-134.5 1
q-7 2 -10.5 7.5t-1.5 12.5t8 10.5t13 1.5q68 -14 117 0t76 51q18 24 22 53t-8.5 65.5t-43.5 72.5q-50 54 -129 46q-3 0 -24 -5q-21 -6 -36 -2q-9 2 -12 11q-2 6 -1 10.5t4 6.5l2 4q3 2 11 6q4 2 7 3t6 1l4 3q61 44 83 81q26 46 6 96.5t-70 59.5q-45 9 -85.5 -19.5
t-46.5 -73.5l-1 -26q-1 -9 2 -27.5t5 -27.5l6 -28q4 -19 6 -30q13 -60 18.5 -105.5t7.5 -103.5t-10.5 -111.5t-39.5 -99.5q-3 -7 -9.5 -8.5t-12.5 2t-8 10t2 12.5z" />
    <glyph glyph-name="agrave" unicode="&#xe0;" 
d="M305 381q-22 63 -71 76q-58 13 -108 -41q-53 -59 -68 -165t23 -175q21 -39 47 -45q19 -4 44 14q24 17 45.5 47.5t33.5 58.5q26 60 39 143q2 5 8 56q1 14 3 21q1 4 4 10zM319 246q-26 -83 -37 -109q-13 -31 -38 -65q-24 -35 -52 -55q-38 -26 -72 -19q-40 9 -70 62
q-42 78 -25 197q16 116 76 181q30 33 67 46.5t73 4.5q37 -8 64 -38t38 -76q1 -5 -1 -12v-4q2 -13 5 -38q3 -39 9 -111q2 -34 5 -79l5 -74q2 -29 3 -38q0 -8 -4 -13t-11.5 -6t-13 3.5t-5.5 11.5q-1 9 -2.5 35.5t-4.5 69.5zM135 625q14 -7 102 -64q6 -5 7.5 -11.5t-2.5 -12.5
t-11 -7.5t-13 1.5l-99 66q-7 3 -9 10t1.5 12.5t10.5 7.5t13 -2z" />
    <glyph glyph-name="aacute" unicode="&#xe1;" 
d="M305 381q-22 63 -71 76q-58 13 -108 -41q-53 -59 -68 -165t23 -175q21 -39 47 -45q19 -4 44 14q24 17 45.5 47.5t33.5 58.5q26 60 39 143q2 5 8 56q1 14 3 21q1 4 4 10zM319 246q-26 -83 -37 -109q-13 -31 -38 -65q-24 -35 -52 -55q-38 -26 -72 -19q-40 9 -70 62
q-42 78 -25 197q16 116 76 181q30 33 67 46.5t73 4.5q37 -8 64 -38t38 -76q1 -5 -1 -12v-4q2 -13 5 -38q3 -39 9 -111q2 -34 5 -79l5 -74q2 -29 3 -38q0 -8 -4 -13t-11.5 -6t-13 3.5t-5.5 11.5q-1 9 -2.5 35.5t-4.5 69.5zM143 564q25 17 65 47l64 50q6 4 13.5 3t11 -6.5
t2.5 -13t-6 -11.5l-64 -49q-41 -32 -69 -49q-5 -3 -12 -1.5t-11 7.5t-2.5 13t8.5 10z" />
    <glyph glyph-name="acircumflex" unicode="&#xe2;" 
d="M305 381q-22 63 -71 76q-58 13 -108 -41q-53 -59 -68 -165t23 -175q21 -39 47 -45q19 -4 44 14q24 17 45.5 47.5t33.5 58.5q26 60 39 143q2 5 8 56q1 14 3 21q1 4 4 10zM319 246q-26 -83 -37 -109q-13 -31 -38 -65q-24 -35 -52 -55q-38 -26 -72 -19q-40 9 -70 62
q-42 78 -25 197q16 116 76 181q30 33 67 46.5t73 4.5q37 -8 64 -38t38 -76q1 -5 -1 -12v-4q2 -13 5 -38q3 -39 9 -111q2 -34 5 -79l5 -74q2 -29 3 -38q0 -8 -4 -13t-11.5 -6t-13 3.5t-5.5 11.5q-1 9 -2.5 35.5t-4.5 69.5zM80 572q66 80 68 82q13 15 23 20q14 9 27 5
q10 -4 21 -15l18 -23q29 -40 60 -69q5 -5 5 -12t-5 -12t-12 -5t-12 5q-32 31 -63 72q-12 16 -22 26l-14 -14q-2 -1 -67 -82q-5 -5 -11.5 -6t-12.5 3.5t-6.5 11.5t3.5 13z" />
    <glyph glyph-name="atilde" unicode="&#xe3;" 
d="M305 381q-22 63 -71 76q-58 13 -108 -41q-53 -59 -68 -165t23 -175q21 -39 47 -45q19 -4 44 14q24 17 45.5 47.5t33.5 58.5q26 60 39 143q2 5 8 56q1 14 3 21q1 4 4 10zM319 246q-26 -83 -37 -109q-13 -31 -38 -65q-24 -35 -52 -55q-38 -26 -72 -19q-40 9 -70 62
q-42 78 -25 197q16 116 76 181q30 33 67 46.5t73 4.5q37 -8 64 -38t38 -76q1 -5 -1 -12v-4q2 -13 5 -38q3 -39 9 -111q2 -34 5 -79l5 -74q2 -29 3 -38q0 -8 -4 -13t-11.5 -6t-13 3.5t-5.5 11.5q-1 9 -2.5 35.5t-4.5 69.5zM75 560q50 60 93 67q32 6 70 -18q35 -22 46 -25
q24 -2 52 28q5 5 12 5t12.5 -5t5.5 -12t-5 -12q-41 -43 -82 -37q-6 1 -12.5 3t-12.5 6l-13 7q-5 2 -12 6.5t-8 5.5q-28 17 -47 15q-31 -6 -72 -56q-5 -5 -12 -6t-12.5 3.5t-6 12t3.5 12.5z" />
    <glyph glyph-name="adieresis" unicode="&#xe4;" 
d="M305 381q-22 63 -71 76q-58 13 -108 -41q-53 -59 -68 -165t23 -175q21 -39 47 -45q19 -4 44 14q24 17 45.5 47.5t33.5 58.5q26 60 39 143q2 5 8 56q1 14 3 21q1 4 4 10zM319 246q-26 -83 -37 -109q-13 -31 -38 -65q-24 -35 -52 -55q-38 -26 -72 -19q-40 9 -70 62
q-42 78 -25 197q16 116 76 181q30 33 67 46.5t73 4.5q37 -8 64 -38t38 -76q1 -5 -1 -12v-4q2 -13 5 -38q3 -39 9 -111q2 -34 5 -79l5 -74q2 -29 3 -38q0 -8 -4 -13t-11.5 -6t-13 3.5t-5.5 11.5q-1 9 -2.5 35.5t-4.5 69.5zM153 563q0 -7 -5.5 -12t-12 -5t-11.5 5t-5 12t5 12
t11.5 5t12 -5t5.5 -12zM256 561q0 -7 -5.5 -12t-12 -5t-11.5 5t-5 12t5 12t11.5 5t12 -5t5.5 -12z" />
    <glyph glyph-name="aring" unicode="&#xe5;" 
d="M305 381q-22 63 -71 76q-58 13 -108 -41q-53 -59 -68 -165t23 -175q21 -39 47 -45q19 -4 44 14q24 17 45.5 47.5t33.5 58.5q26 60 39 143q2 5 8 56q1 14 3 21q1 4 4 10zM319 246q-26 -83 -37 -109q-13 -31 -38 -65q-24 -35 -52 -55q-38 -26 -72 -19q-40 9 -70 62
q-42 78 -25 197q16 116 76 181q30 33 67 46.5t73 4.5q37 -8 64 -38t38 -76q1 -5 -1 -12v-4q2 -13 5 -38q3 -39 9 -111q2 -34 5 -79l5 -74q2 -29 3 -38q0 -8 -4 -13t-11.5 -6t-13 3.5t-5.5 11.5q-1 9 -2.5 35.5t-4.5 69.5zM178 686q5 10 12 13q61 20 97 6q17 -9 25.5 -24.5
t7.5 -33.5q-3 -36 -34 -69.5t-76 -46.5q-58 -17 -86 3t-19 62q7 25 25.5 49.5t47.5 40.5zM217 663q-27 -5 -49.5 -28t-28.5 -47q-5 -19 5 -26q13 -11 55 1q38 11 61.5 37t25.5 49q1 18 -12 24q-14 6 -45 1q-6 -10 -12 -11z" />
    <glyph glyph-name="ae" unicode="&#xe6;" horiz-adv-x="630" 
d="M305 381q-22 63 -71 76q-58 13 -108 -41q-53 -59 -68 -165t23 -175q21 -39 47 -45q19 -4 44 14q24 17 45.5 47.5t33.5 58.5q26 60 39 143q2 5 8 56q1 14 3 21q1 4 4 10zM357 216q73 -3 128 38q70 53 53 128q-2 11 -14 27.5t-21 26.5q-44 39 -90.5 11.5t-69.5 -88.5l-2 -1
l2 -18l9 -74zM331 412q32 46 63 64q28 19 64 16.5t67 -30.5q13 -13 27.5 -34t18.5 -38q11 -49 -8 -91.5t-58 -71.5q-61 -45 -144 -46q7 -47 11 -65q1 -2 1 -4q13 -49 39 -64q23 -13 55 0q34 13 64.5 47.5t42.5 74.5q3 6 9 9t13 1t10 -8.5t1 -13.5q-15 -45 -50.5 -85.5
t-76.5 -56.5q-48 -20 -86 4q-41 24 -57 94v7q-5 24 -11 68l-16 33q-16 -58 -28 -85q-13 -31 -38 -65q-24 -35 -52 -55q-38 -26 -72 -19q-40 9 -70 62q-42 78 -25 197q16 116 76 181q30 33 67 46.5t73 4.5q53 -12 90 -77z" />
    <glyph glyph-name="ccedilla" unicode="&#xe7;" 
d="M258 381q-53 90 -105 68q-23 -9 -43.5 -39.5t-35.5 -73.5q-31 -96 -13 -184q19 -95 90 -117q54 -18 111 46q53 58 71 122q2 6 8.5 9.5t13 2t10 -8t1.5 -13.5q-20 -70 -79 -134q-52 -58 -111 -62q-55 -81 -90 -113q-6 -5 -12.5 -4t-11.5 6t-4.5 12t5.5 12q31 27 76 92
q-90 38 -112 143q-19 96 14 201q36 109 100 135q37 16 74.5 -5t71.5 -77q4 -6 2 -13t-8 -10.5t-12.5 -1.5t-10.5 7z" />
    <glyph glyph-name="egrave" unicode="&#xe8;" horiz-adv-x="395" 
d="M313 277q-4 22 -9 40q-13 41 -38 78q-28 41 -57 55q-31 14 -60 -5q-58 -38 -78 -132q-3 -16 -5 -42q72 -2 126 -1q56 0 90 3q14 1 31 4zM32 274q3 27 6 46q22 108 92 155q46 29 94 5q38 -18 70 -67q27 -39 42 -85q7 -20 10 -37q2 -20 -3 -31q-3 -9 -13 -13q-5 -3 -12 -4
q-12 -3 -33 -4q-35 -3 -93 -3q-54 -1 -128 1q4 -58 17 -98q30 -85 92 -104q72 -22 173 59q6 5 12.5 4t11 -6.5t4 -12.5t-6.5 -11q-114 -93 -204 -65q-79 23 -114 124q-16 49 -19 110q-18 7 -17 20q0 12 19 17zM110 637q62 -28 111 -59q6 -5 7.5 -11.5t-2.5 -12.5t-11 -7.5
t-13 1.5q-47 32 -106 57q-6 3 -9 10t0 13t10 8.5t13 0.5z" />
    <glyph glyph-name="eacute" unicode="&#xe9;" horiz-adv-x="386" 
d="M310 277q-4 22 -9 40q-13 41 -38 78q-28 41 -57 55q-31 14 -60 -5q-58 -38 -78 -132q-3 -16 -5 -42q72 -2 126 -1q56 0 90 3q14 1 31 4zM29 274q3 27 6 46q22 108 92 155q46 29 94 5q38 -18 70 -67q27 -39 42 -85q7 -20 10 -37q2 -20 -3 -31q-3 -9 -13 -13q-5 -3 -12 -4
q-12 -3 -33 -4q-35 -3 -93 -3q-54 -1 -128 1q4 -58 17 -98q30 -85 92 -104q72 -22 173 59q6 5 12.5 4t11 -6.5t4 -12.5t-6.5 -11q-114 -93 -204 -65q-79 23 -114 124q-16 49 -19 110q-18 7 -17 20q0 12 19 17zM105 562q66 59 113 84q5 4 12 2t10.5 -7.5t1.5 -12.5t-8 -10
q-43 -25 -106 -82q-5 -5 -12.5 -4t-12 6t-4 12t5.5 12z" />
    <glyph glyph-name="ecircumflex" unicode="&#xea;" horiz-adv-x="386" 
d="M310 277q-4 22 -9 40q-13 41 -38 78q-28 41 -57 55q-31 14 -60 -5q-58 -38 -78 -132q-3 -16 -5 -42q72 -2 126 -1q56 0 90 3q14 1 31 4zM29 274q3 27 6 46q22 108 92 155q46 29 94 5q38 -18 70 -67q27 -39 42 -85q7 -20 10 -37q2 -20 -3 -31q-3 -9 -13 -13q-5 -3 -12 -4
q-12 -3 -33 -4q-35 -3 -93 -3q-54 -1 -128 1q4 -58 17 -98q30 -85 92 -104q72 -22 173 59q6 5 12.5 4t11 -6.5t4 -12.5t-6.5 -11q-114 -93 -204 -65q-79 23 -114 124q-16 49 -19 110q-18 7 -17 20q0 12 19 17zM89 567l30 43q18 26 25 34q11 14 19 20q14 9 28 4q8 -4 19 -17
l15 -24q30 -42 57 -75q5 -5 4.5 -12t-6 -12t-12 -4t-11.5 6q-29 34 -59 79l-17 25l-10 -10l-24 -34l-30 -43q-5 -6 -12 -7t-12.5 3.5t-6.5 11.5t3 12z" />
    <glyph glyph-name="edieresis" unicode="&#xeb;" horiz-adv-x="389" 
d="M310 277q-4 22 -9 40q-13 41 -38 78q-28 41 -57 55q-31 14 -60 -5q-58 -38 -78 -132q-3 -16 -5 -42q72 -2 126 -1q56 0 90 3q14 1 31 4zM29 274q3 27 6 46q22 108 92 155q46 29 94 5q38 -18 70 -67q27 -39 42 -85q7 -20 10 -37q2 -20 -3 -31q-3 -9 -13 -13q-5 -3 -12 -4
q-12 -3 -33 -4q-35 -3 -93 -3q-54 -1 -128 1q4 -58 17 -98q30 -85 92 -104q72 -22 173 59q6 5 12.5 4t11 -6.5t4 -12.5t-6.5 -11q-114 -93 -204 -65q-79 23 -114 124q-16 49 -19 110q-18 7 -17 20q0 12 19 17zM137 571q0 -7 -5 -12t-12 -5t-12 5t-5 12t5 12t12 5t12 -5
t5 -12zM254 566q0 -7 -5 -12t-12 -5t-12 5t-5 12t5 12t12 5t12 -5t5 -12z" />
    <glyph glyph-name="igrave" unicode="&#xec;" horiz-adv-x="127" 
d="M69 453q13 -182 13 -442q0 -7 -5.5 -12t-12 -5t-11.5 5t-5 12q0 258 -13 440q-1 7 3.5 12t11.5 6t12.5 -4t6.5 -12zM11 622l53.5 -44t50.5 -40q4 -3 5 -10.5t-3 -13t-11.5 -6.5t-12.5 4l-48 40q-34 28 -55 42q-5 4 -6 11t3 13t11 7t13 -3z" />
    <glyph glyph-name="iacute" unicode="&#xed;" horiz-adv-x="133" 
d="M67 453q13 -182 13 -442q0 -7 -5 -12t-12 -5t-12 5t-5 12q0 258 -13 440q-1 7 4 12t12 6t12 -4t6 -12zM-4 547q7 7 29.5 32.5t40.5 43.5t38 31q6 4 12.5 3t10.5 -7t3 -13t-7 -11q-18 -12 -33.5 -27.5t-36.5 -39.5t-33 -36q-5 -5 -12 -5t-12 4.5t-5 12t5 12.5z" />
    <glyph glyph-name="icircumflex" unicode="&#xee;" horiz-adv-x="139" 
d="M69 453q13 -182 13 -442q0 -7 -5 -12t-12 -5t-12 5t-5 12q0 258 -13 440q0 7 4.5 12t11.5 6t12.5 -4t5.5 -12zM-13 567l30 46q16 21 32 23t35 -18q9 -9 35 -42q5 -6 4 -13t-6.5 -11.5t-12.5 -3.5t-11 6l-39 49l-9 -9q-6 -7 -29 -45q-4 -6 -11 -7.5t-13 2t-7.5 10.5
t2.5 13z" />
    <glyph glyph-name="idieresis" unicode="&#xef;" horiz-adv-x="100" 
d="M67 453q13 -182 13 -442q0 -7 -5 -12t-12 -5t-12 5t-5 12q0 258 -13 440q-1 7 4 12t12 6t12 -4t6 -12zM13 541q0 -7 -5 -12t-12 -5t-12 5t-5 12t5 12t12 5t12 -5t5 -12zM91 541q0 -7 -5 -12t-12 -5t-12 5t-5 12t5 12t12 5t12 -5t5 -12z" />
    <glyph glyph-name="eth" unicode="&#xf0;" horiz-adv-x="434" 
d="M266 327q-117 -75 -159 -150q-25 -42 -8 -82.5t62 -47.5q84 -14 133 41t22 133q-17 50 -50 106zM151 457l-99 -81q-6 -6 -13 -5t-11.5 6t-4 12t5.5 11l94 80q-50 39 -99 69q-6 3 -7.5 9.5t2.5 13t10.5 8t12.5 -2.5q56 -33 109 -75l99 83q5 5 12 4t11.5 -6t4 -12.5
t-6.5 -11.5l-95 -80q58 -51 100 -106q66 37 119 50q7 2 13 -1.5t8 -10.5t-1.5 -12.5t-10.5 -7.5q-47 -14 -110 -46q36 -59 55 -112q17 -50 6.5 -93.5t-36.5 -74t-70 -45.5t-93 -7q-33 5 -56 24.5t-33 44.5t-7.5 55t16.5 56q47 82 170 163q-42 54 -95 101z" />
    <glyph glyph-name="ntilde" unicode="&#xf1;" 
d="M58 235q45 95 74 140q45 69 87 94q26 17 51 15q28 -2 52 -25q59 -59 70 -211q6 -90 -5 -224q-1 -7 -6.5 -12t-12 -4t-11.5 6t-4 12q11 132 5 220q-11 139 -60 189q-15 14 -29.5 15t-32.5 -9q-34 -23 -76 -85q-33 -51 -60.5 -113t-33.5 -91q-4 -20 -5 -33q-2 -15 -2 -25
v-28q0 -19 -1 -36q0 -2 -1 -5v-3l-4 -6q-8 -7 -19 -4q-5 3 -8 7l-3 7q1 0 1 -2v3v2v12v9v12v8v119q0 186 -10 278q-1 7 3.5 12.5t11.5 6.5t12.5 -3.5t6.5 -11.5q8 -85 10 -236zM73 596q61 53 105 47q11 -2 19.5 -6t17.5 -11l13 -12q3 -2 12 -10q22 -24 35 -22q25 2 70 58
q4 5 11 6t12.5 -3.5t6 -11.5t-3.5 -13q-54 -66 -94 -70q-12 -1 -26 5.5t-19.5 11t-15.5 15.5q-28 26 -43 29q-28 5 -77 -37q-6 -6 -12.5 -5t-11.5 6t-4.5 12t5.5 11z" />
    <glyph glyph-name="ograve" unicode="&#xf2;" horiz-adv-x="401" 
d="M199 491q7 3 13 2q61 -11 102 -55.5t56 -99.5t11 -115q-3 -43 -16.5 -83t-36.5 -73t-59 -51t-78 -14q-82 7 -123 90q-36 71 -30 168.5t49 161.5q44 66 112 69zM212 457q-57 6 -96 -53q-39 -58 -44 -145q-5 -89 26 -152q33 -65 95 -71q63 -5 106 49.5t48 139.5
q5 82 -28 147t-101 85h-6zM133 629q51 -35 102 -56q6 -3 8.5 -9.5t-0.5 -13t-9 -9t-13 -0.5q-53 23 -107 60q-6 4 -7.5 11t3 13t11 7t12.5 -3z" />
    <glyph glyph-name="oacute" unicode="&#xf3;" horiz-adv-x="401" 
d="M199 491q7 3 13 2q61 -11 102 -55.5t56 -99.5t11 -115q-3 -43 -16.5 -83t-36.5 -73t-59 -51t-78 -14q-82 7 -123 90q-36 71 -30 168.5t49 161.5q44 66 112 69zM212 457q-57 6 -96 -53q-39 -58 -44 -145q-5 -89 26 -152q33 -65 95 -71q63 -5 106 49.5t48 139.5
q5 82 -28 147t-101 85h-6zM127 568q12 5 24.5 11t26.5 15l23 15l27 18q16 12 23 16q6 4 13 2.5t11 -7t2.5 -12.5t-7.5 -11t-23.5 -16.5l-26.5 -18.5l-25 -15q-15 -9 -29 -16q-13 -8 -27 -13q-7 -2 -13 0.5t-8.5 9.5t0 13t9.5 9z" />
    <glyph glyph-name="ocircumflex" unicode="&#xf4;" horiz-adv-x="395" 
d="M199 491q7 3 13 2q61 -11 102 -55.5t56 -99.5t11 -115q-3 -43 -16.5 -83t-36.5 -73t-59 -51t-78 -14q-82 7 -123 90q-36 71 -30 168.5t49 161.5q44 66 112 69zM212 457q-57 6 -96 -53q-39 -58 -44 -145q-5 -89 26 -152q33 -65 95 -71q63 -5 106 49.5t48 139.5
q5 82 -28 147t-101 85h-6zM90 556q46 69 57 83q25 32 48 27q18 -3 44 -34q43 -53 61 -71q5 -5 5 -12t-5.5 -12t-12.5 -5t-12 5l-62 72q-10 13 -26 26l-13 -17q-10 -12 -55 -82q-3 -5 -10 -6.5t-13 2t-8 10.5t2 14z" />
    <glyph glyph-name="otilde" unicode="&#xf5;" horiz-adv-x="401" 
d="M199 491q7 3 13 2q61 -11 102 -55.5t56 -99.5t11 -115q-3 -43 -16.5 -83t-36.5 -73t-59 -51t-78 -14q-82 7 -123 90q-36 71 -30 168.5t49 161.5q44 66 112 69zM212 457q-57 6 -96 -53q-39 -58 -44 -145q-5 -89 26 -152q33 -65 95 -71q63 -5 106 49.5t48 139.5
q5 82 -28 147t-101 85h-6zM48 559q36 57 82 56q25 0 71 -26q35 -18 50 -16q23 4 44 56q3 6 9.5 8.5t13 0t9 -9t0.5 -13.5q-29 -67 -71 -75q-26 -5 -71 20q-40 21 -55 21q-28 1 -53 -40q-4 -6 -10.5 -7.5t-12.5 2t-7.5 10.5t1.5 13z" />
    <glyph glyph-name="odieresis" unicode="&#xf6;" horiz-adv-x="401" 
d="M199 491q7 3 13 2q61 -11 102 -55.5t56 -99.5t11 -115q-3 -43 -16.5 -83t-36.5 -73t-59 -51t-78 -14q-82 7 -123 90q-36 71 -30 168.5t49 161.5q44 66 112 69zM212 457q-57 6 -96 -53q-39 -58 -44 -145q-5 -89 26 -152q33 -65 95 -71q63 -5 106 49.5t48 139.5
q5 82 -28 147t-101 85h-6zM167 561q0 -7 -5 -12t-12 -5t-12 5t-5 12t5 12t12 5t12 -5t5 -12zM259 563q0 -7 -5 -12t-12 -5t-12 5t-5 12t5 12t12 5t12 -5t5 -12z" />
    <glyph glyph-name="divide" unicode="&#xf7;" horiz-adv-x="321" 
d="M135 406l13 19q4 6 11 7t12.5 -3.5t6.5 -11.5t-3 -12q-4 -6 -12 -19q-7 -11 -14 -14q-9 -3 -21 2q-14 4 -20 6q-8 2 -11.5 7.5t-1.5 12.5t8 10.5t13 1.5zM35 323q37 2 76 6.5t89 12.5t76 11q7 1 12 -3t6 -11.5t-3 -13t-12 -6.5q-24 -3 -75.5 -10.5t-91 -12.5t-76.5 -7
q-7 -1 -12 4t-5.5 12t4 12t12.5 6zM125 236q3 3 15 16q8 10 17 11q6 2 18 -2q13 -5 24 -7q7 -1 10.5 -7t2 -13t-7.5 -10.5t-13 -1.5q-10 2 -26 6l-16 -16q-5 -5 -12 -5t-12 5t-5 12t5 12z" />
    <glyph glyph-name="oslash" unicode="&#xf8;" horiz-adv-x="401" 
d="M330 351q-51 -65 -119 -162l-86 -122q34 -28 68 -31q63 -5 106 49.5t48 139.5q4 58 -17 126zM199 491q7 3 13 2q61 -11 102 -55.5t56 -99.5t11 -115q-3 -43 -16.5 -83t-36.5 -73t-59 -51t-78 -14q-82 7 -123 90q-36 71 -30 168.5t49 161.5q44 66 112 69zM212 457
q-57 6 -96 -53q-39 -58 -44 -145q-5 -86 32 -164l68 97l71 100l60 81l10 10q-38 58 -95 74h-6z" />
    <glyph glyph-name="ugrave" unicode="&#xf9;" 
d="M77 477q-11 -179 -6 -262q6 -90 27 -137q10 -24 24 -33q13 -10 31 -6q25 6 49 41q22 32 42 88q17 43 51 178q18 68 24 89l5 21l4 6q2 6 8 9q10 3 18 -5q4 -3 5 -8q6 -19 4 -47q-1 -4 -1.5 -12.5t-0.5 -11.5q-1 -11 -1 -19q0 -21 0.5 -68.5t1 -74t2.5 -66t6.5 -73
t11.5 -65.5q2 -7 -1.5 -13t-10.5 -7.5t-13 2t-7 10.5q-21 90 -24 315q-34 -130 -49 -172q-22 -59 -47 -94q-32 -47 -69 -55q-33 -8 -58 10q-22 15 -37 48q-22 50 -29 148q-5 85 6 266q1 7 6 12t12 4t12 -6t4 -12zM137 605q6 -3 53 -31t75 -41q6 -3 8 -9.5t-1 -13t-9.5 -8.5
t-13.5 1q-18 9 -40 22l-47 27l-41 23q-6 4 -8 10.5t1.5 13t10 8t12.5 -1.5z" />
    <glyph glyph-name="uacute" unicode="&#xfa;" 
d="M77 477q-11 -179 -6 -262q6 -90 27 -137q10 -24 24 -33q13 -10 31 -6q25 6 49 41q22 32 42 88q17 43 51 178q18 68 24 89l5 21l4 6q2 6 8 9q10 3 18 -5q4 -3 5 -8q6 -19 4 -47q-1 -4 -1.5 -12.5t-0.5 -11.5q-1 -11 -1 -19q0 -21 0.5 -68.5t1 -74t2.5 -66t6.5 -73
t11.5 -65.5q2 -7 -1.5 -13t-10.5 -7.5t-13 2t-7 10.5q-21 90 -24 315q-34 -130 -49 -172q-22 -59 -47 -94q-32 -47 -69 -55q-33 -8 -58 10q-22 15 -37 48q-22 50 -29 148q-5 85 6 266q1 7 6 12t12 4t12 -6t4 -12zM151 539q24 16 61 51l61 55q6 5 13 4t11.5 -6.5t3.5 -12.5
t-6 -11q-15 -11 -60 -55q-38 -35 -66 -53q-5 -4 -12 -2.5t-11 7t-2.5 12.5t7.5 11z" />
    <glyph glyph-name="ucircumflex" unicode="&#xfb;" 
d="M77 477q-11 -179 -6 -262q6 -90 27 -137q10 -24 24 -33q13 -10 31 -6q25 6 49 41q22 32 42 88q17 43 51 178q18 68 24 89l5 21l4 6q2 6 8 9q10 3 18 -5q4 -3 5 -8q6 -19 4 -47q-1 -4 -1.5 -12.5t-0.5 -11.5q-1 -11 -1 -19q0 -21 0.5 -68.5t1 -74t2.5 -66t6.5 -73
t11.5 -65.5q2 -7 -1.5 -13t-10.5 -7.5t-13 2t-7 10.5q-21 90 -24 315q-34 -130 -49 -172q-22 -59 -47 -94q-32 -47 -69 -55q-33 -8 -58 10q-22 15 -37 48q-22 50 -29 148q-5 85 6 266q1 7 6 12t12 4t12 -6t4 -12zM104 587q22 22 54 63q10 12 16 18q11 10 22 10q12 1 23 -10
q7 -6 17 -21q4 -4 13 -15l20 -28l21 -28q5 -6 4 -13t-6.5 -11.5t-12.5 -3.5t-11 6l-23 30l-20 27l-12 17l-12 15l-13 -16q-34 -41 -56 -64q-5 -5 -12 -5t-12 4.5t-5 12t5 12.5z" />
    <glyph glyph-name="udieresis" unicode="&#xfc;" 
d="M77 477q-11 -179 -6 -262q6 -90 27 -137q10 -24 24 -33q13 -10 31 -6q25 6 49 41q22 32 42 88q17 43 51 178q18 68 24 89l5 21l4 6q2 6 8 9q10 3 18 -5q4 -3 5 -8q6 -19 4 -47q-1 -4 -1.5 -12.5t-0.5 -11.5q-1 -11 -1 -19q0 -21 0.5 -68.5t1 -74t2.5 -66t6.5 -73
t11.5 -65.5q2 -7 -1.5 -13t-10.5 -7.5t-13 2t-7 10.5q-21 90 -24 315q-34 -130 -49 -172q-22 -59 -47 -94q-32 -47 -69 -55q-33 -8 -58 10q-22 15 -37 48q-22 50 -29 148q-5 85 6 266q1 7 6 12t12 4t12 -6t4 -12zM176 563q0 -7 -5 -12t-12 -5t-12 5t-5 12t5 12t12 5t12 -5
t5 -12zM272 561q0 -7 -5 -12t-12 -5t-12 5t-5 12t5 12t12 5t12 -5t5 -12z" />
    <glyph glyph-name="yacute" unicode="&#xfd;" 
d="M56 480q21 -67 81 -203q44 -99 71 -175l144 376q2 7 8.5 9.5t13 0.5t9 -8.5t0.5 -13.5q-17 -49 -99 -261.5t-119 -328.5q-3 -7 -9 -10t-13 -1t-10 8.5t-1 12.5q24 74 57 165q-2 7 -3 9q-22 71 -80 203q-62 144 -83 207q-2 6 1 12.5t10 8.5t13 -1t9 -10zM157 551
q47 26 87 71q4 5 11 6t12.5 -4t6 -12t-4.5 -12q-44 -50 -95 -79q-7 -3 -13.5 -1.5t-10 8t-1.5 13t8 10.5z" />
    <glyph glyph-name="thorn" unicode="&#xfe;" horiz-adv-x="373" 
d="M72 11v-154q0 -7 -5 -12t-12 -5t-12 5t-5 12v873q0 7 5 12t12 5t12 -5t5 -12v-343q39 41 68 55q29 15 59.5 19t62 -7.5t53.5 -40.5q45 -56 42 -169q-3 -115 -83 -181.5t-202 -51.5zM72 284v-239q107 -14 177.5 42.5t73.5 158.5q3 98 -34 145q-25 31 -62 35.5t-73 -14.5
t-59 -52.5t-22 -68.5q0 -3 -1 -7z" />
    <glyph glyph-name="ydieresis" unicode="&#xff;" 
d="M56 480q21 -67 81 -203q44 -99 71 -175l144 376q2 7 8.5 9.5t13 0.5t9 -8.5t0.5 -13.5q-17 -49 -99 -261.5t-119 -328.5q-3 -7 -9 -10t-13 -1t-10 8.5t-1 12.5q24 74 57 165q-2 7 -3 9q-22 71 -80 203q-62 144 -83 207q-2 6 1 12.5t10 8.5t13 -1t9 -10zM174 549
q0 -7 -5 -12t-12 -5t-12 5t-5 12t5 12t12 5t12 -5t5 -12zM273 543q0 -7 -5 -12t-12 -5t-12 5t-5 12t5 12t12 5t12 -5t5 -12z" />
    <glyph glyph-name="OE" unicode="&#x152;" horiz-adv-x="698" 
d="M252 656q-6 1 -14.5 2t-11.5 1.5t-9.5 0.5t-9.5 -1.5t-7 -2.5q-58 -33 -95 -123q-36 -88 -38 -195q-3 -110 32 -188q36 -81 107 -103q89 -25 151 52q60 75 71 203q7 81 -9 153t-57.5 127.5t-105.5 73.5h-4zM237 696q148 -8 387 -3q8 0 13 -4.5t5 -12t-4.5 -12.5t-11.5 -5
q-158 -3 -291 0q71 -63 97.5 -132.5t30.5 -159.5q55 -1 151 6q7 1 12 -4t6 -12t-4 -12t-12 -6q-96 -7 -151 -6l-3 -34q-12 -138 -79 -221l-19 -25q252 11 301 16q8 1 13 -3.5t6 -12t-3.5 -12.5t-11.5 -6q-68 -6 -193.5 -11t-168.5 -8h-6q-50 -18 -105 -1q-45 13 -78 46
t-51.5 78t-26.5 95q-9 50 -7 105q4 112 42 209q40 98 106 136q18 11 47 10q5 2 9 2z" />
    <glyph glyph-name="oe" unicode="&#x153;" horiz-adv-x="628" 
d="M376 184q69 15 116 62q41 41 59 82.5t14 67.5t-19 41q-16 14 -41.5 17.5t-65 -14.5t-84.5 -63q31 -74 26 -154q-1 -12 -5 -39zM321 58q-58 -63 -130 -56q-82 7 -123 90q-36 71 -30 168.5t49 161.5q44 66 112 69q7 3 13 2q74 -14 125 -85q73 67 134 78t98 -25
q41 -38 27.5 -105t-80.5 -134q-61 -61 -136 -71h-11q-11 -34 -28 -63q59 -79 125 -71q66 9 115 92q3 5 9.5 7t12.5 -1.5t8 -10.5t-2 -13q-56 -97 -138 -107q-79 -10 -150 74zM212 457q-57 6 -96 -53q-39 -58 -44 -145q-5 -89 26 -152q33 -65 95 -71q63 -5 106 49.5t48 139.5
q5 82 -28 147t-101 85h-6z" />
    <glyph glyph-name="endash" unicode="&#x2013;" horiz-adv-x="593" 
d="M383 106l18 36q3 6 10 7.5t13.5 -1.5t8.5 -10t-2 -13l-22 -42q-4 -10 -7 -14q-8 -10 -19 -10t-19 10q-3 4 -7 13l-21 42q-3 7 -0.5 13.5t8.5 9.5t12.5 1t9.5 -8zM156 502l11 39q2 7 8.5 10t13 1t10 -8.5t1.5 -12.5l-15 -50q-3 -10 -5 -14q-5 -13 -18 -14q-9 -1 -18 8
q-1 2 -8 10q-14 15 -27 27q-6 4 -6.5 11.5t3.5 12.5t11.5 6t12.5 -4zM521 95l17 41q4 6 10.5 8.5t12.5 0t9 -9.5t0 -13q-4 -6 -9 -18l-7 -16l-5 -12q-4 -9 -8 -14q-7 -10 -17 -11q-12 -1 -20 9q-5 4 -10 13q-2 7 -19 44q-3 6 -0.5 13t9 9.5t13 0t9.5 -8.5zM50 26l201 280
q172 237 255 369q4 6 11 7.5t13 -2t7.5 -10.5t-2.5 -13q-83 -131 -255 -369l-202 -280q-4 -7 -10.5 -8t-13 3t-7.5 10.5t3 12.5z" />
    <glyph glyph-name="quoteleft" unicode="&#x2018;" horiz-adv-x="173" 
d="M135 678q-43 -17 -58.5 -54.5t-15.5 -98.5q0 -7 -5 -12t-12 -5t-12 5t-5 12q0 31 3.5 55.5t12.5 51t29 46t51 32.5q6 2 12.5 -0.5t9 -9t0 -13t-9.5 -9.5z" />
    <glyph glyph-name="quoteright" unicode="&#x2019;" horiz-adv-x="192" 
d="M160 699q7 -16 4.5 -35t-5.5 -34.5t-12 -32.5t-17 -30t-20 -27l-24 -25q-8 -11 -21 -23q-5 -5 -12.5 -5t-12 5t-4.5 12t5 12q48 47 72.5 89t14.5 87q-2 7 1.5 13t10.5 7.5t13 -2t7 -11.5z" />
    <glyph glyph-name="quotedblleft" unicode="&#x201c;" horiz-adv-x="256" 
d="M116 690q-29 -40 -40.5 -81.5t-11.5 -97.5q0 -7 -5 -12t-12 -5t-12 5t-5 12q0 61 12.5 108t45.5 91q4 6 11 7t13 -3.5t7 -11.5t-3 -12zM210 669q-49 -87 -49 -178q0 -7 -5 -12t-12 -5t-12 5t-5 12q0 100 55 194q3 7 10 8.5t12.5 -2t7.5 -10t-2 -12.5z" />
    <glyph glyph-name="quotedblright" unicode="&#x201d;" horiz-adv-x="235" 
d="M88 700q9 -20 9 -41.5t-4 -36.5t-15 -36t-18.5 -31.5l-20.5 -29.5q-5 -6 -12 -7t-12.5 3.5t-6.5 11.5t3 12q33 46 45.5 77.5t0.5 64.5q-3 8 0 14t9.5 8.5t13 0t8.5 -9.5zM184 688q5 -59 -13 -111q-19 -51 -65 -85q-5 -4 -12 -3.5t-11 6t-3 12.5t6 11q74 58 64 166
q-1 8 3.5 13t11.5 6t12.5 -3.5t6.5 -11.5z" />
    <glyph glyph-name="Euro" unicode="&#x20ac;" horiz-adv-x="679" 
d="M49 399q55 -3 127 5q24 115 80 184q30 36 72 61q41 24 86 32.5t91 -7.5t80 -56q5 -5 4.5 -12t-6 -12t-12.5 -4t-11 6q-59 64 -139.5 52t-137.5 -82q-46 -55 -72 -158l74 14l56 10q7 1 13 -3t7 -11t-3 -13t-10 -7q-10 -1 -59.5 -10t-83.5 -14q-9 -63 -1 -123q78 6 141 6
q6 0 11.5 -5t5.5 -12t-5.5 -12t-11.5 -5q-59 0 -131 -5v-12q31 -101 113 -140.5t171 9.5q69 40 124 114q4 6 11 7t12.5 -3.5t6.5 -11.5t-3 -12q-59 -79 -132 -122q-75 -42 -142 -32t-119 59t-75 121q-2 5 -4 20q-74 -7 -146 -17q-7 -1 -12.5 3.5t-6.5 11t3 12.5t11 7
q71 10 144 17q-7 57 0 120q-72 -7 -124 -4q-7 1 -11.5 6t-4 12t5.5 12t13 4z" />
    <glyph glyph-name="trademark" unicode="&#x2122;" horiz-adv-x="800" 
d="M13 602q31 10 80 35l67 34l40 16l45 20q21 9 39 19q6 3 13 1t10 -8t1 -13t-7 -10q-12 -6 -127 -56q0 -58 13 -152q15 -108 17 -153q1 -6 -3.5 -11t-12 -6t-12.5 4t-6 13q-2 41 -17 148q-10 78 -12 140q-84 -43 -118 -54q-6 -2 -12.5 1t-8.5 9.5t1 13t10 9.5zM384 358
q0 10 -19 160q-8 63 -11 94q-2 20 -2 33q-1 6 0 10q0 4 1 6q2 7 6 10q11 8 23 1q4 -2 8 -6q8 -7 19 -20.5t45 -59.5q26 -35 50 -63l18 71q26 101 33 119q0 2 1 6q3 11 3 13q3 9 7 13q5 7 13 8.5t14 -2.5l7 -7l0.5 -1l0.5 -1l1 -2l5 -11l17 -38l52 -116l89 -202
q2 -6 -0.5 -13t-8.5 -9.5t-13 0t-10 8.5l-89 202l-60 136l-29 -112l-16 -65q-4 -14 -6 -23q-1 -3 -2 -5t-1.5 -3.5t-1.5 -2.5q-1 -3 -5 -6q-10 -6 -20 -1q-6 3 -12 7q-7 6 -18 19l-46 60l-41 52l13 -94q19 -149 19 -165q0 -7 -5 -12t-12 -5t-12 5t-5 12z" />
    <glyph glyph-name="uni3000" unicode="&#x3000;" horiz-adv-x="1000" 
 />
    <glyph glyph-name="uniF8FF" unicode="&#xf8ff;" horiz-adv-x="1161" 
d="M308 370q-13 29 -14 48q-10 34 -20 53q-7 15 -20 23q-11 -8 -14 -16q-8 -15 -12 -41q-9 -59 0 -116q5 -28 15 -47t24 -22q16 -4 26 6q9 9 13 29q4 21 2 70v5v8zM570 503q-32 63 -63 63zM530 562q-13 -13 -8 -36q4 -24 45 -113q-7 80 -10 99q-7 36 -17 50h-10zM905 737
l-10 -50q-6 -23 -23 -64q-7 -19 -16 -48q0 -15 2 -28q5 -36 20 -56q7 -9 14 -12q5 0 11 3q9 8 14 32q5 21 6 52q3 50 -1 91q-1 8 -3 22zM828 440q6 -48 37 -16l-7 8q-5 6 -15 8h-15zM725 383q7 10 7 22q0 28 -19 74q-5 14 -30 64q-2 -80 3 -110q5 -20 11 -32q6 -13 15 -17
q6 -1 13 -1zM314 353q0 -56 -3 -67q-3 -22 -13 -32q-12 -13 -32 -8q-17 4 -28 26q-10 18 -15 49q-10 57 -1 116q5 28 12 44q9 18 21 17q13 -1 25 -24q7 -15 62 -175q-29 147 -29 150q1 25 13 33q20 12 43 -10q7 -7 37 -50q-4 49 -4 58q0 26 13 32q9 6 19 -1q9 -6 18 -20
q11 -19 36 -70q26 -55 36 -69q9 -15 17 -21q1 -1 19 -10v14q3 11 5 27q1 20 1 49l-21 38q-23 46 -29 76q-7 39 17 45q5 2 9 -2q1 -1 5 -6q10 -11 16 -49q6 -34 8 -78q1 -10 1 -23l20 -33l24 -32v38q1 22 -2 71q-3 60 -3 75q-1 38 4 52q1 6 4 10q3 7 9 6q17 -1 50 -41
q10 42 15 58q7 19 15 27q10 11 22.5 6.5t30.5 -24.5q15 -18 30 -46q12 -20 34 -66q13 45 24 72q2 75 42 121q2 1 3 2q2 1 0 1q1 -1 17 -1v9q0 1 2 2h1l7 -7h-5q0 9 0 6q44 -110 72 -150q59 -83 133 -65q3 1 4 -2t-3 -4q-78 -20 -139 68q-17 24 -55 103q3 -77 1 -102
q-1 -33 -6 -54q-6 -26 -15.5 -33.5t-18.5 -4.5q-8 3 -16 14t-25 65l-14 -68q6 -28 8 -52q0 -2 0.5 -6t0.5 -5q0 -3 -0.5 -4.5t-0.5 -2.5q-1 -1 -3 -1q-1 0 -2 2l-2 2q-16 34 -11 79q-15 40 -37 79q-17 28 -30 44q-17 19 -31 25q-7 0 -13 -6q-8 -7 -14 -25q-9 -25 -14 -66
q20 -33 35 -68q18 -46 18 -74q1 -16 -6 -23q-7 -8 -22 -3q-11 3 -19 17q-6 14 -10 36q-8 41 -4 95q0 7 1 19l-7 10q-25 35 -45 38l-6 -13q-4 -13 -3 -51q0 -14 3 -76q3 -48 2 -70q-1 -17 -3 -26q-2 -11 -7 -15l-1 -1l-1 1l-2 2l-1 1q-2 3 -5 7l-31 45q0 -34 -1 -37
q-1 -17 -4 -26q-3 -11 -9 -14q-10 -4 -20 4q-8 7 -19 22q-11 19 -36 70q-23 52 -35 69q-9 14 -18 20l-9 3q-12 -9 -12 -30q-1 -19 6 -49q4 -21 13 -50q1 -6 3 -14l5 -12l3 -8l1 -4q1 -2 1 -4q2 -5 2 -6q0 -5 -4 -7q-2 0 -3 1l1 -1q0 1 -4 5l2 -2v0l-3 7l-7 20q-12 34 -25 59
q-18 37 -34 53q-20 18 -37 8q-8 -6 -9 -27q0 -18 7 -47q4 -20 23 -80q7 -22 12 -41q0 -2 1 -4q0 -4 1 -7q1 -1 0 -2q-2 -5 -5 -5t-5 3q-1 1 -1 13q-1 0 -1 -5v3q-6 14 -37 76zM602 -25q-16 31 -30 41q-34 23 -93 27q-77 5 -146 -20l-10 -7l-26 -17l32 -51q32 10 58 17
q107 25 215 10zM601 -30q-97 15 -212 -11q-25 -5 -58 -16q32 -58 34 -88q0 -2 -1 -3t-2 -1t-2 1l-1 1q-2 32 -32 88q-34 -14 -53 -25q-52 -32 -61 -81l8 -4q7 -4 23 -8q28 -3 70 -1q97 5 166 27q106 33 119 97q2 7 2 24zM613 125l-2 3q-25 33 -30 51l-3 9q-1 2 1 4
q0 2 10 10q-20 21 -38 32q-17 9 -26 6q-10 0 -14 -11q-9 -20 -1 -60q10 -41 31 -72q24 -33 51 -33q19 0 24 13q6 12 0 35q-1 4 -3 13zM869 150q5 0 9 4l10 9l11 15q23 33 6 102q-32 -30 -44 -51q-17 -33 -14 -58q2 -11 8 -17q6 -4 14 -4zM861 14q-16 56 -28 81
q-6 14 -58 103q26 -92 31 -104q13 -38 55 -80zM606 162q8 -21 12 -36q12 -14 20 -21q6 -6 16 -9q19 9 16 37q0 9 -3 20q-13 21 -17 38v3q0 1 1 2t3 1h1q-1 0 0 -1t3 -5q3 -4 6 -9q5 -10 9 -27q9 -15 19 -23q14 -13 29 -14t30 13q22 21 15 71q-1 3 -1 7q-21 33 -29 50
q-5 11 -6 19q-2 9 2 12t7 1l4 -4q1 -3 3 -7v-3q4 -7 24 -45q3 51 5 64q8 49 35 61q25 11 51 -7q23 -16 40 -47l4 -14q54 32 106 32q3 0 3 -3t-3 -3q-53 0 -102 -32q22 -68 -4 -107q-4 -6 -13 -16q-6 -7 -10 -10q-6 -6 -10 -6q-13 -2 -21 7q-9 6 -10 19q-4 27 15 61
q15 29 47 55q-6 9 -7 13q-16 31 -38 46q-24 15 -46 6q-24 -10 -32 -56q-6 -42 2 -103q47 -74 57 -93q14 -29 18 -49q2 -7 2 -12q0 -6 -2 -9q-2 -4 -8 -3q-5 0 -12 4q-19 13 -37 62q-8 22 -20 75q-18 -33 -25 -40q-17 -17 -35 -15q-14 1 -41 23q-6 -38 -22 -43q-8 -3 -33 13
q0 -25 -2 -29q-7 -18 -30 -18q-30 0 -56 36q-22 31 -31 73q-10 43 1 65q6 12 18 14t29 -8q23 -12 36.5 -27.5t25.5 -39.5q1 -4 -9 -9zM10 597q28 -126 100 -263l30 -63v47q-6 94 12 158.5t70 149.5q2 2 4.5 0.5t1.5 -4.5q-52 -83 -70 -146.5t-12 -156.5q3 -37 7 -56
q3 -12 3 -47v-1v-1l2 5q1 0 -1 -3t-3 -3.5t-2 -0.5l-1 1l-1 2v-1v5q-1 8 -3 11q-10 38 -43 101q-72 136 -100 264q-1 4 2.5 4.5t3.5 -2.5zM106 87q20 31 57 55q37 23 80 33q100 25 162 -24q20 -16 15 -39q-4 -17 -24 -39l-35 -35q75 14 117 11q63 -4 97 -28q23 -17 31 -47
q10 -2 13 -3t2 -4q0 -3 -15 0q0 -17 -1 -22q-14 -67 -124 -101q-68 -22 -167 -28q-43 -3 -69 2q-19 3 -28 8q-12 7 -9 19q9 43 62 76q19 11 54 25l-31 49l-15 -7q-2 -2 -4 -2h-2q-2 0 -2 1l-1 2l1 2l5 5l10 10q-33 52 -45 73q-20 37 -18 57q0 2 1 2.5t2.5 0.5t2 -1l0.5 -1
q-2 -19 17 -56q11 -20 46 -72q21 12 40 19q41 28 60 49q20 20 24 37q3 19 -14 33q-60 47 -155 23q-43 -11 -79 -34t-55 -53q-2 -2 -4.5 -0.5t-1.5 4.5z" />
    </font>
</defs>
</svg>
